<?xml version="1.0" encoding="UTF-8" standalone="no"?>
<svg width="70px" height="32px" viewBox="0 0 70 32" version="1.1" xmlns="http://www.w3.org/2000/svg" xmlns:xlink="http://www.w3.org/1999/xlink">
    <!-- Generator: Sketch 40.2 (33826) - http://www.bohemiancoding.com/sketch -->
    <title>btn-2-nml</title>
    <desc>Created with Sketch.</desc>
    <defs>
        <rect id="path-1" x="0" y="0" width="70" height="32"></rect>
        <mask id="mask-2" maskContentUnits="userSpaceOnUse" maskUnits="objectBoundingBox" x="0" y="0" width="70" height="32" fill="white">
            <use xlink:href="#path-1"></use>
        </mask>
    </defs>
    <g id="Components" stroke="none" stroke-width="1" fill="none" fill-rule="evenodd">
        <g id="Buttons" transform="translate(-325.000000, -1225.000000)">
            <g id="btn-2-nml" transform="translate(325.000000, 1225.000000)">
                <use id="Rectangle-2" stroke="#BCBCBC" mask="url(#mask-2)" stroke-width="2" fill="#F5F5F5" xlink:href="#path-1"></use>
                <path d="M17.1777344,11.4335938 L19.5976562,11.4335938 C20.7343807,11.4335938 21.5566381,11.6035139 22.0644531,11.9433594 C22.5722682,12.2832048 22.8261719,12.8203088 22.8261719,13.5546875 C22.8261719,14.0625025 22.6845717,14.4814437 22.4013672,14.8115234 C22.1181626,15.1416032 21.7050808,15.3554683 21.1621094,15.453125 L21.1621094,15.5117188 C22.4628971,15.7343761 23.1132812,16.417963 23.1132812,17.5625 C23.1132812,18.3281288 22.8544948,18.9257791 22.3369141,19.3554688 C21.8193333,19.7851584 21.0957078,20 20.1660156,20 L17.1777344,20 L17.1777344,11.4335938 Z M18.1738281,15.1015625 L19.8144531,15.1015625 C20.5175816,15.1015625 21.023436,14.991212 21.3320312,14.7705078 C21.6406265,14.5498036 21.7949219,14.177737 21.7949219,13.6542969 C21.7949219,13.1738257 21.6230486,12.8271495 21.2792969,12.6142578 C20.9355452,12.4013661 20.3886756,12.2949219 19.6386719,12.2949219 L18.1738281,12.2949219 L18.1738281,15.1015625 Z M18.1738281,15.9453125 L18.1738281,19.1503906 L19.9609375,19.1503906 C20.6523472,19.1503906 21.1728498,19.0166029 21.5224609,18.7490234 C21.8720721,18.481444 22.046875,18.0625029 22.046875,17.4921875 C22.046875,16.9609348 21.8681658,16.5703138 21.5107422,16.3203125 C21.1533185,16.0703112 20.6093787,15.9453125 19.8789062,15.9453125 L18.1738281,15.9453125 Z M25.7207031,13.578125 L25.7207031,17.7441406 C25.7207031,18.2675807 25.8398426,18.6582018 26.078125,18.9160156 C26.3164074,19.1738294 26.6894506,19.3027344 27.1972656,19.3027344 C27.869144,19.3027344 28.36035,19.1191425 28.6708984,18.7519531 C28.9814469,18.3847638 29.1367188,17.7851604 29.1367188,16.953125 L29.1367188,13.578125 L30.109375,13.578125 L30.109375,20 L29.3066406,20 L29.1660156,19.1386719 L29.1132812,19.1386719 C28.9140615,19.4550797 28.6376971,19.6972648 28.2841797,19.8652344 C27.9306623,20.033204 27.527346,20.1171875 27.0742188,20.1171875 C26.2929648,20.1171875 25.7080098,19.9316425 25.3193359,19.5605469 C24.9306621,19.1894513 24.7363281,18.5957072 24.7363281,17.7792969 L24.7363281,13.578125 L25.7207031,13.578125 Z M34.2460938,19.3144531 C34.4179696,19.3144531 34.5839836,19.3017579 34.7441406,19.2763672 C34.9042977,19.2509764 35.0312495,19.2246095 35.125,19.1972656 L35.125,19.9414062 C35.0195307,19.9921878 34.8642588,20.0341795 34.6591797,20.0673828 C34.4541005,20.1005861 34.2695321,20.1171875 34.1054688,20.1171875 C32.863275,20.1171875 32.2421875,19.4628972 32.2421875,18.1542969 L32.2421875,14.3339844 L31.3222656,14.3339844 L31.3222656,13.8652344 L32.2421875,13.4609375 L32.6523438,12.0898438 L33.2148438,12.0898438 L33.2148438,13.578125 L35.078125,13.578125 L35.078125,14.3339844 L33.2148438,14.3339844 L33.2148438,18.1132812 C33.2148438,18.5000019 33.3066397,18.796874 33.4902344,19.0039062 C33.673829,19.2109385 33.9257796,19.3144531 34.2460938,19.3144531 L34.2460938,19.3144531 Z M38.4824219,19.3144531 C38.6542977,19.3144531 38.8203117,19.3017579 38.9804688,19.2763672 C39.1406258,19.2509764 39.2675777,19.2246095 39.3613281,19.1972656 L39.3613281,19.9414062 C39.2558588,19.9921878 39.100587,20.0341795 38.8955078,20.0673828 C38.6904287,20.1005861 38.5058602,20.1171875 38.3417969,20.1171875 C37.0996032,20.1171875 36.4785156,19.4628972 36.4785156,18.1542969 L36.4785156,14.3339844 L35.5585938,14.3339844 L35.5585938,13.8652344 L36.4785156,13.4609375 L36.8886719,12.0898438 L37.4511719,12.0898438 L37.4511719,13.578125 L39.3144531,13.578125 L39.3144531,14.3339844 L37.4511719,14.3339844 L37.4511719,18.1132812 C37.4511719,18.5000019 37.5429678,18.796874 37.7265625,19.0039062 C37.9101572,19.2109385 38.1621078,19.3144531 38.4824219,19.3144531 L38.4824219,19.3144531 Z M46.1875,16.7832031 C46.1875,17.8300834 45.9238308,18.647458 45.3964844,19.2353516 C44.869138,19.8232451 44.1406296,20.1171875 43.2109375,20.1171875 C42.6367159,20.1171875 42.1269554,19.9824232 41.6816406,19.7128906 C41.2363259,19.443358 40.8925793,19.0566431 40.6503906,18.5527344 C40.4082019,18.0488256 40.2871094,17.4589878 40.2871094,16.7832031 C40.2871094,15.7363229 40.5488255,14.9209014 41.0722656,14.3369141 C41.5957057,13.7529268 42.322261,13.4609375 43.2519531,13.4609375 C44.1503951,13.4609375 44.8642552,13.7597626 45.3935547,14.3574219 C45.9228542,14.9550811 46.1875,15.7636668 46.1875,16.7832031 L46.1875,16.7832031 Z M41.2949219,16.7832031 C41.2949219,17.6035197 41.4589827,18.2285135 41.7871094,18.6582031 C42.115236,19.0878928 42.5976531,19.3027344 43.234375,19.3027344 C43.8710969,19.3027344 44.3544905,19.0888693 44.6845703,18.6611328 C45.0146501,18.2333963 45.1796875,17.607426 45.1796875,16.7832031 C45.1796875,15.9667928 45.0146501,15.3466818 44.6845703,14.9228516 C44.3544905,14.4990213 43.8671907,14.2871094 43.2226562,14.2871094 C42.5859343,14.2871094 42.1054704,14.4960917 41.78125,14.9140625 C41.4570296,15.3320333 41.2949219,15.955074 41.2949219,16.7832031 L41.2949219,16.7832031 Z M52.2871094,20 L52.2871094,15.8457031 C52.2871094,15.322263 52.1679699,14.9316419 51.9296875,14.6738281 C51.6914051,14.4160143 51.3183619,14.2871094 50.8105469,14.2871094 C50.1386685,14.2871094 49.6464859,14.4687482 49.3339844,14.8320312 C49.0214828,15.1953143 48.8652344,15.7949177 48.8652344,16.6308594 L48.8652344,20 L47.8925781,20 L47.8925781,13.578125 L48.6835938,13.578125 L48.8417969,14.4570312 L48.8886719,14.4570312 C49.0878916,14.1406234 49.3671857,13.8955087 49.7265625,13.7216797 C50.0859393,13.5478507 50.4863259,13.4609375 50.9277344,13.4609375 C51.7011757,13.4609375 52.2832012,13.6474591 52.6738281,14.0205078 C53.0644551,14.3935566 53.2597656,14.9902303 53.2597656,15.8105469 L53.2597656,20 L52.2871094,20 Z" id="Button" fill="#4A4A4A"></path>
            </g>
        </g>
    </g>
</svg>