<?xml version="1.0" encoding="UTF-8" standalone="no"?>
<svg width="116px" height="44px" viewBox="0 0 116 44" version="1.1" xmlns="http://www.w3.org/2000/svg" xmlns:xlink="http://www.w3.org/1999/xlink">
    <!-- Generator: Sketch 40.2 (33826) - http://www.bohemiancoding.com/sketch -->
    <title>btn-lg</title>
    <desc>Created with Sketch.</desc>
    <defs>
        <rect id="path-1" x="0" y="0" width="100" height="44"></rect>
        <mask id="mask-2" maskContentUnits="userSpaceOnUse" maskUnits="objectBoundingBox" x="0" y="0" width="100" height="44" fill="white">
            <use xlink:href="#path-1"></use>
        </mask>
    </defs>
    <g id="Components" stroke="none" stroke-width="1" fill="none" fill-rule="evenodd">
        <g id="Buttons" transform="translate(-325.000000, -835.000000)">
            <g id="btn-lg" transform="translate(325.000000, 835.000000)">
                <use id="Rectangle-2-Copy" stroke="#024059" mask="url(#mask-2)" stroke-width="2" fill="#025B80" xlink:href="#path-1"></use>
                <path d="M26.5703125,14.578125 L29.796875,14.578125 C31.3125076,14.578125 32.4088508,14.8046852 33.0859375,15.2578125 C33.7630242,15.7109398 34.1015625,16.4270784 34.1015625,17.40625 C34.1015625,18.0833367 33.9127623,18.6419249 33.5351562,19.0820312 C33.1575502,19.5221376 32.6067745,19.807291 31.8828125,19.9375 L31.8828125,20.015625 C33.6171962,20.3125015 34.484375,21.2239507 34.484375,22.75 C34.484375,23.7708384 34.1393264,24.5677055 33.4492188,25.140625 C32.7591111,25.7135445 31.794277,26 30.5546875,26 L26.5703125,26 L26.5703125,14.578125 Z M27.8984375,19.46875 L30.0859375,19.46875 C31.0234422,19.46875 31.6979146,19.3216161 32.109375,19.0273438 C32.5208354,18.7330714 32.7265625,18.2369827 32.7265625,17.5390625 C32.7265625,16.8984343 32.4973981,16.4361993 32.0390625,16.1523438 C31.5807269,15.8684882 30.8515675,15.7265625 29.8515625,15.7265625 L27.8984375,15.7265625 L27.8984375,19.46875 Z M27.8984375,20.59375 L27.8984375,24.8671875 L30.28125,24.8671875 C31.2031296,24.8671875 31.8971331,24.6888039 32.3632812,24.3320312 C32.8294294,23.9752586 33.0625,23.4166705 33.0625,22.65625 C33.0625,21.9479131 32.8242211,21.427085 32.3476562,21.09375 C31.8710914,20.760415 31.1458382,20.59375 30.171875,20.59375 L27.8984375,20.59375 Z M37.9609375,17.4375 L37.9609375,22.9921875 C37.9609375,23.6901077 38.1197901,24.2109358 38.4375,24.5546875 C38.7552099,24.8984392 39.2526008,25.0703125 39.9296875,25.0703125 C40.8255253,25.0703125 41.4804667,24.8255233 41.8945312,24.3359375 C42.3085958,23.8463517 42.515625,23.0468805 42.515625,21.9375 L42.515625,17.4375 L43.8125,17.4375 L43.8125,26 L42.7421875,26 L42.5546875,24.8515625 L42.484375,24.8515625 C42.2187487,25.2734396 41.8502628,25.596353 41.3789062,25.8203125 C40.9075497,26.044272 40.3697947,26.15625 39.765625,26.15625 C38.7239531,26.15625 37.944013,25.9088566 37.4257812,25.4140625 C36.9075495,24.9192684 36.6484375,24.1276096 36.6484375,23.0390625 L36.6484375,17.4375 L37.9609375,17.4375 Z M49.328125,25.0859375 C49.5572928,25.0859375 49.7786448,25.0690106 49.9921875,25.0351562 C50.2057302,25.0013019 50.3749994,24.966146 50.5,24.9296875 L50.5,25.921875 C50.3593743,25.9895837 50.1523451,26.0455727 49.8789062,26.0898438 C49.6054674,26.1341148 49.3593761,26.15625 49.140625,26.15625 C47.4843667,26.15625 46.65625,25.2838629 46.65625,23.5390625 L46.65625,18.4453125 L45.4296875,18.4453125 L45.4296875,17.8203125 L46.65625,17.28125 L47.203125,15.453125 L47.953125,15.453125 L47.953125,17.4375 L50.4375,17.4375 L50.4375,18.4453125 L47.953125,18.4453125 L47.953125,23.484375 C47.953125,24.0000026 48.0755196,24.395832 48.3203125,24.671875 C48.5651054,24.947918 48.9010395,25.0859375 49.328125,25.0859375 L49.328125,25.0859375 Z M54.9765625,25.0859375 C55.2057303,25.0859375 55.4270823,25.0690106 55.640625,25.0351562 C55.8541677,25.0013019 56.0234369,24.966146 56.1484375,24.9296875 L56.1484375,25.921875 C56.0078118,25.9895837 55.8007826,26.0455727 55.5273438,26.0898438 C55.2539049,26.1341148 55.0078136,26.15625 54.7890625,26.15625 C53.1328042,26.15625 52.3046875,25.2838629 52.3046875,23.5390625 L52.3046875,18.4453125 L51.078125,18.4453125 L51.078125,17.8203125 L52.3046875,17.28125 L52.8515625,15.453125 L53.6015625,15.453125 L53.6015625,17.4375 L56.0859375,17.4375 L56.0859375,18.4453125 L53.6015625,18.4453125 L53.6015625,23.484375 C53.6015625,24.0000026 53.7239571,24.395832 53.96875,24.671875 C54.2135429,24.947918 54.549477,25.0859375 54.9765625,25.0859375 L54.9765625,25.0859375 Z M65.25,21.7109375 C65.25,23.1067778 64.898441,24.1966107 64.1953125,24.9804688 C63.492184,25.7643268 62.5208395,26.15625 61.28125,26.15625 C60.5156212,26.15625 59.8359405,25.9765643 59.2421875,25.6171875 C58.6484345,25.2578107 58.1901058,24.7421909 57.8671875,24.0703125 C57.5442692,23.3984341 57.3828125,22.6119837 57.3828125,21.7109375 C57.3828125,20.3150972 57.7317673,19.2278685 58.4296875,18.4492188 C59.1276077,17.670569 60.096348,17.28125 61.3359375,17.28125 C62.5338602,17.28125 63.4856736,17.6796835 64.1914062,18.4765625 C64.8971389,19.2734415 65.25,20.3515557 65.25,21.7109375 L65.25,21.7109375 Z M58.7265625,21.7109375 C58.7265625,22.804693 58.9453103,23.638018 59.3828125,24.2109375 C59.8203147,24.783857 60.4635374,25.0703125 61.3125,25.0703125 C62.1614626,25.0703125 62.8059874,24.7851591 63.2460938,24.2148438 C63.6862001,23.6445284 63.90625,22.8099013 63.90625,21.7109375 C63.90625,20.6223904 63.6862001,19.7955757 63.2460938,19.2304688 C62.8059874,18.6653618 62.1562543,18.3828125 61.296875,18.3828125 C60.4479124,18.3828125 59.8072938,18.6614555 59.375,19.21875 C58.9427062,19.7760445 58.7265625,20.6067653 58.7265625,21.7109375 L58.7265625,21.7109375 Z M73.3828125,26 L73.3828125,20.4609375 C73.3828125,19.7630173 73.2239599,19.2421892 72.90625,18.8984375 C72.5885401,18.5546858 72.0911492,18.3828125 71.4140625,18.3828125 C70.5182247,18.3828125 69.8619812,18.6249976 69.4453125,19.109375 C69.0286438,19.5937524 68.8203125,20.3932236 68.8203125,21.5078125 L68.8203125,26 L67.5234375,26 L67.5234375,17.4375 L68.578125,17.4375 L68.7890625,18.609375 L68.8515625,18.609375 C69.1171888,18.1874979 69.4895809,17.8606782 69.96875,17.6289062 C70.4479191,17.3971343 70.9817679,17.28125 71.5703125,17.28125 C72.6015677,17.28125 73.3776016,17.5299454 73.8984375,18.0273438 C74.4192734,18.5247421 74.6796875,19.320307 74.6796875,20.4140625 L74.6796875,26 L73.3828125,26 Z" id="Button-Copy" fill="#FFFFFF"></path>
                <path d="M112.5,0.5 L112.5,43.5" id="Line" stroke="#919191" stroke-linecap="square"></path>
                <path id="Line-decoration-1" d="M115.5,0.5 L109.5,0.5" stroke="#919191" stroke-linecap="square"></path>
                <path id="Line-decoration-2" d="M115.5,43.5 L109.5,43.5" stroke="#919191" stroke-linecap="square"></path>
            </g>
        </g>
    </g>
</svg>