<?xml version="1.0" encoding="UTF-8" standalone="no"?>
<svg width="105px" height="38px" viewBox="0 0 105 38" version="1.1" xmlns="http://www.w3.org/2000/svg" xmlns:xlink="http://www.w3.org/1999/xlink">
    <!-- Generator: Sketch 40.2 (33826) - http://www.bohemiancoding.com/sketch -->
    <title>btn-md</title>
    <desc>Created with Sketch.</desc>
    <defs>
        <rect id="path-1" x="0" y="0" width="90" height="38"></rect>
        <mask id="mask-2" maskContentUnits="userSpaceOnUse" maskUnits="objectBoundingBox" x="0" y="0" width="90" height="38" fill="white">
            <use xlink:href="#path-1"></use>
        </mask>
    </defs>
    <g id="Components" stroke="none" stroke-width="1" fill="none" fill-rule="evenodd">
        <g id="Buttons" transform="translate(-325.000000, -773.000000)">
            <g id="btn-md" transform="translate(325.000000, 773.000000)">
                <use id="Rectangle-2" stroke="#024059" mask="url(#mask-2)" stroke-width="2" fill="#025B80" xlink:href="#path-1"></use>
                <path d="M24.3740234,13.0058594 L27.1972656,13.0058594 C28.5234441,13.0058594 29.4827444,13.2040996 30.0751953,13.6005859 C30.6676462,13.9970723 30.9638672,14.6236936 30.9638672,15.4804688 C30.9638672,16.0729196 30.798667,16.5616843 30.4682617,16.9467773 C30.1378564,17.3318704 29.6559276,17.5813796 29.0224609,17.6953125 L29.0224609,17.7636719 C30.5400467,18.0234388 31.2988281,18.8209569 31.2988281,20.15625 C31.2988281,21.0494836 30.9969106,21.7467423 30.3930664,22.2480469 C29.7892222,22.7493515 28.9449924,23 27.8603516,23 L24.3740234,23 L24.3740234,13.0058594 Z M25.5361328,17.2851562 L27.4501953,17.2851562 C28.2705119,17.2851562 28.8606753,17.156414 29.2207031,16.8989258 C29.580731,16.6414375 29.7607422,16.2073598 29.7607422,15.5966797 C29.7607422,15.03613 29.5602234,14.6316744 29.1591797,14.3833008 C28.758136,14.1349271 28.1201216,14.0107422 27.2451172,14.0107422 L25.5361328,14.0107422 L25.5361328,17.2851562 Z M25.5361328,18.2695312 L25.5361328,22.0087891 L27.6210938,22.0087891 C28.4277384,22.0087891 29.0349915,21.8527034 29.4428711,21.5405273 C29.8507507,21.2283513 30.0546875,20.7395867 30.0546875,20.0742188 C30.0546875,19.454424 29.8461935,18.9986994 29.4291992,18.7070312 C29.0122049,18.4153631 28.3776084,18.2695312 27.5253906,18.2695312 L25.5361328,18.2695312 Z M34.3408203,15.5078125 L34.3408203,20.3681641 C34.3408203,20.9788442 34.4798163,21.4345688 34.7578125,21.7353516 C35.0358087,22.0361343 35.4710257,22.1865234 36.0634766,22.1865234 C36.8473346,22.1865234 37.4204083,21.9723329 37.7827148,21.5439453 C38.1450213,21.1155578 38.3261719,20.4160205 38.3261719,19.4453125 L38.3261719,15.5078125 L39.4609375,15.5078125 L39.4609375,23 L38.5244141,23 L38.3603516,21.9951172 L38.2988281,21.9951172 C38.0664051,22.3642597 37.7439799,22.6468089 37.331543,22.8427734 C36.919106,23.038738 36.4485704,23.1367188 35.9199219,23.1367188 C35.008459,23.1367188 34.3260114,22.9202496 33.8725586,22.4873047 C33.4191058,22.0543598 33.1923828,21.3616584 33.1923828,20.4091797 L33.1923828,15.5078125 L34.3408203,15.5078125 Z M44.2871094,22.2001953 C44.4876312,22.2001953 44.6813142,22.1853843 44.8681641,22.1557617 C45.055014,22.1261392 45.2031245,22.0953778 45.3125,22.0634766 L45.3125,22.9316406 C45.1894525,22.9908857 45.008302,23.0398761 44.769043,23.0786133 C44.529784,23.1173505 44.3144541,23.1367188 44.1230469,23.1367188 C42.6738209,23.1367188 41.9492188,22.37338 41.9492188,20.8466797 L41.9492188,16.3896484 L40.8759766,16.3896484 L40.8759766,15.8427734 L41.9492188,15.3710938 L42.4277344,13.7714844 L43.0839844,13.7714844 L43.0839844,15.5078125 L45.2578125,15.5078125 L45.2578125,16.3896484 L43.0839844,16.3896484 L43.0839844,20.7988281 C43.0839844,21.2500023 43.1910797,21.596353 43.4052734,21.8378906 C43.6194672,22.0794283 43.9134096,22.2001953 44.2871094,22.2001953 L44.2871094,22.2001953 Z M49.2294922,22.2001953 C49.430014,22.2001953 49.623697,22.1853843 49.8105469,22.1557617 C49.9973968,22.1261392 50.1455073,22.0953778 50.2548828,22.0634766 L50.2548828,22.9316406 C50.1318353,22.9908857 49.9506848,23.0398761 49.7114258,23.0786133 C49.4721668,23.1173505 49.2568369,23.1367188 49.0654297,23.1367188 C47.6162037,23.1367188 46.8916016,22.37338 46.8916016,20.8466797 L46.8916016,16.3896484 L45.8183594,16.3896484 L45.8183594,15.8427734 L46.8916016,15.3710938 L47.3701172,13.7714844 L48.0263672,13.7714844 L48.0263672,15.5078125 L50.2001953,15.5078125 L50.2001953,16.3896484 L48.0263672,16.3896484 L48.0263672,20.7988281 C48.0263672,21.2500023 48.1334625,21.596353 48.3476562,21.8378906 C48.56185,22.0794283 48.8557924,22.2001953 49.2294922,22.2001953 L49.2294922,22.2001953 Z M58.21875,19.2470703 C58.21875,20.4684306 57.9111359,21.4220343 57.2958984,22.1079102 C56.680661,22.793786 55.8307346,23.1367188 54.7460938,23.1367188 C54.0761685,23.1367188 53.4814479,22.9794938 52.9619141,22.6650391 C52.4423802,22.3505844 52.0413426,21.899417 51.7587891,21.3115234 C51.4762356,20.7236299 51.3349609,20.0354857 51.3349609,19.2470703 C51.3349609,18.02571 51.6402964,17.0743849 52.2509766,16.3930664 C52.8616567,15.7117479 53.7093045,15.3710938 54.7939453,15.3710938 C55.8421276,15.3710938 56.6749644,15.7197231 57.2924805,16.4169922 C57.9099966,17.1142613 58.21875,18.0576112 58.21875,19.2470703 L58.21875,19.2470703 Z M52.5107422,19.2470703 C52.5107422,20.2041063 52.7021465,20.9332657 53.0849609,21.4345703 C53.4677754,21.9358749 54.0305952,22.1865234 54.7734375,22.1865234 C55.5162798,22.1865234 56.080239,21.9370142 56.465332,21.4379883 C56.8504251,20.9389623 57.0429688,20.2086637 57.0429688,19.2470703 C57.0429688,18.2945916 56.8504251,17.5711288 56.465332,17.0766602 C56.080239,16.5821915 55.5117225,16.3349609 54.7597656,16.3349609 C54.0169234,16.3349609 53.4563821,16.5787736 53.078125,17.0664062 C52.6998679,17.5540389 52.5107422,18.2809196 52.5107422,19.2470703 L52.5107422,19.2470703 Z M65.3349609,23 L65.3349609,18.1533203 C65.3349609,17.5426402 65.1959649,17.0869156 64.9179688,16.7861328 C64.6399726,16.4853501 64.2047556,16.3349609 63.6123047,16.3349609 C62.8284466,16.3349609 62.2542336,16.5468729 61.8896484,16.9707031 C61.5250633,17.3945334 61.3427734,18.0940706 61.3427734,19.0693359 L61.3427734,23 L60.2080078,23 L60.2080078,15.5078125 L61.1308594,15.5078125 L61.3154297,16.5332031 L61.3701172,16.5332031 C61.6025402,16.1640607 61.9283833,15.8780935 62.3476562,15.675293 C62.7669292,15.4724925 63.2340469,15.3710938 63.7490234,15.3710938 C64.6513717,15.3710938 65.3304014,15.5887023 65.7861328,16.0239258 C66.2418643,16.4591493 66.4697266,17.1552687 66.4697266,18.1123047 L66.4697266,23 L65.3349609,23 Z" id="Button" fill="#FFFFFF"></path>
                <path d="M101.5,0.5 L101.5,37.5" id="Line" stroke="#919191" stroke-linecap="square"></path>
                <path id="Line-decoration-1" d="M104.5,0.5 L98.5,0.5" stroke="#919191" stroke-linecap="square"></path>
                <path id="Line-decoration-2" d="M104.5,37.5 L98.5,37.5" stroke="#919191" stroke-linecap="square"></path>
            </g>
        </g>
    </g>
</svg>