<?xml version="1.0" encoding="UTF-8" standalone="no"?>
<svg width="32px" height="32px" viewBox="0 0 32 32" version="1.1" xmlns="http://www.w3.org/2000/svg" xmlns:xlink="http://www.w3.org/1999/xlink">
    <!-- Generator: Sketch 40.2 (33826) - http://www.bohemiancoding.com/sketch -->
    <title>icn-2</title>
    <desc>Created with Sketch.</desc>
    <defs>
        <rect id="path-1" x="0" y="0" width="32" height="32"></rect>
        <mask id="mask-2" maskContentUnits="userSpaceOnUse" maskUnits="objectBoundingBox" x="0" y="0" width="32" height="32" fill="white">
            <use xlink:href="#path-1"></use>
        </mask>
    </defs>
    <g id="Components" stroke="none" stroke-width="1" fill="none" fill-rule="evenodd">
        <g id="Buttons" transform="translate(-327.000000, -3111.000000)">
            <g id="icn-2" transform="translate(327.000000, 3111.000000)">
                <use id="Rectangle-4" stroke="#BCBCBC" mask="url(#mask-2)" stroke-width="2" fill="#F5F5F5" xlink:href="#path-1"></use>
                <path d="M20.926994,16.9119252 L20.926994,21.401403 C20.926994,21.5635238 20.8677585,21.7038186 20.7492855,21.8222915 C20.6308126,21.9407644 20.4905178,22 20.328397,22 L16.7368148,22 L16.7368148,18.4084178 L14.3424266,18.4084178 L14.3424266,22 L10.7508444,22 C10.5887235,22 10.4484288,21.9407644 10.3299558,21.8222915 C10.2114829,21.7038186 10.1522474,21.5635238 10.1522474,21.401403 L10.1522474,16.9119252 C10.1522474,16.9056898 10.1538062,16.8963368 10.1569239,16.8838659 C10.1600416,16.8713951 10.1616004,16.8620421 10.1616004,16.8558067 L15.5396207,12.4224474 L20.917641,16.8558067 C20.9238764,16.8682775 20.926994,16.8869835 20.926994,16.9119252 L20.926994,16.9119252 Z M23.0127306,16.2665627 L22.4328397,16.9586906 C22.3829564,17.0148093 22.3174855,17.0491036 22.2364251,17.0615744 L22.2083658,17.0615744 C22.1273054,17.0615744 22.0618345,17.0397508 22.0119512,16.9961029 L15.5396207,11.5993765 L9.06729022,16.9961029 C8.99246522,17.0459862 8.91764134,17.0678099 8.84281633,17.0615744 C8.76175591,17.0491036 8.69628502,17.0148093 8.64640168,16.9586906 L8.0665108,16.2665627 C8.01662746,16.2042086 7.99480383,16.1309435 8.00103925,16.0467654 C8.00727466,15.9625873 8.04156894,15.8955575 8.10392311,15.8456742 L14.8287867,10.24318 C15.0283201,10.0810592 15.2652623,10 15.5396207,10 C15.813979,10 16.0509213,10.0810592 16.2504547,10.24318 L18.5326059,12.1512081 L18.5326059,10.3273578 C18.5326059,10.2400619 18.5606648,10.1683557 18.6167836,10.1122369 C18.6729023,10.0561182 18.7446086,10.0280592 18.8319044,10.0280592 L20.6276955,10.0280592 C20.7149914,10.0280592 20.7866976,10.0561182 20.8428163,10.1122369 C20.8989351,10.1683557 20.926994,10.2400619 20.926994,10.3273578 L20.926994,14.1434139 L22.9753183,15.8456742 C23.0376725,15.8955575 23.0719667,15.9625873 23.0782021,16.0467654 C23.0844376,16.1309435 23.0626139,16.2042086 23.0127306,16.2665627 L23.0127306,16.2665627 Z" id="" fill="#4A4A4A"></path>
            </g>
        </g>
    </g>
</svg>