<?xml version="1.0" encoding="UTF-8" standalone="no"?>
<svg width="44px" height="44px" viewBox="0 0 44 44" version="1.1" xmlns="http://www.w3.org/2000/svg" xmlns:xlink="http://www.w3.org/1999/xlink">
    <!-- Generator: Sketch 40.2 (33826) - http://www.bohemiancoding.com/sketch -->
    <title>icn-btn-3</title>
    <desc>Created with Sketch.</desc>
    <defs>
        <rect id="path-1" x="0" y="0" width="44" height="44"></rect>
        <mask id="mask-2" maskContentUnits="userSpaceOnUse" maskUnits="objectBoundingBox" x="0" y="0" width="44" height="44" fill="white">
            <use xlink:href="#path-1"></use>
        </mask>
    </defs>
    <g id="Components" stroke="none" stroke-width="1" fill="none" fill-rule="evenodd">
        <g id="Icons" transform="translate(-325.000000, -763.000000)">
            <g id="icn-btn-3" transform="translate(325.000000, 763.000000)">
                <use id="Rectangle-2-Copy" stroke="#024059" mask="url(#mask-2)" stroke-width="2" fill="#025B80" xlink:href="#path-1"></use>
                <path d="M29.2359921,23.2159002 L29.2359921,29.2018706 C29.2359921,29.4180317 29.1570113,29.6050914 28.9990474,29.7630553 C28.8410835,29.9210192 28.6540238,30 28.4378627,30 L23.6490864,30 L23.6490864,25.2112237 L20.4565688,25.2112237 L20.4565688,30 L15.6677925,30 C15.4516314,30 15.2645717,29.9210192 15.1066078,29.7630553 C14.9486439,29.6050914 14.8696631,29.4180317 14.8696631,29.2018706 L14.8696631,23.2159002 C14.8696631,23.2075863 14.8717416,23.1951157 14.8758985,23.1784879 C14.8800555,23.1618601 14.8821339,23.1493895 14.8821339,23.1410756 L22.0528276,17.2299299 L29.2235213,23.1410756 C29.2318352,23.1577034 29.2359921,23.1826447 29.2359921,23.2159002 L29.2359921,23.2159002 Z M32.0169741,22.355417 L31.2437863,23.2782541 C31.1772752,23.3530791 31.0899806,23.3988048 30.9819001,23.4154326 L30.9444878,23.4154326 C30.8364072,23.4154326 30.7491127,23.3863344 30.6826016,23.3281372 L22.0528276,16.1325019 L13.4230536,23.3281372 C13.323287,23.3946483 13.2235218,23.4237465 13.1237551,23.4154326 C13.0156745,23.3988048 12.92838,23.3530791 12.8618689,23.2782541 L12.0886811,22.355417 C12.02217,22.2722781 11.9930718,22.1745914 12.0013857,22.0623539 C12.0096996,21.9501164 12.0554253,21.8607434 12.1385642,21.7942323 L21.105049,14.3242401 C21.3710934,14.1080789 21.6870165,14 22.0528276,14 C22.4186387,14 22.7345618,14.1080789 23.0006062,14.3242401 L26.0434745,16.8682775 L26.0434745,14.436477 C26.0434745,14.3200826 26.0808865,14.2244743 26.1557115,14.1496493 C26.2305365,14.0748243 26.3261448,14.0374123 26.4425392,14.0374123 L28.8369274,14.0374123 C28.9533218,14.0374123 29.0489301,14.0748243 29.1237551,14.1496493 C29.1985801,14.2244743 29.2359921,14.3200826 29.2359921,14.436477 L29.2359921,19.5245518 L31.967091,21.7942323 C32.0502299,21.8607434 32.0959556,21.9501164 32.1042695,22.0623539 C32.1125834,22.1745914 32.0834852,22.2722781 32.0169741,22.355417 L32.0169741,22.355417 Z" id="-copy-2" fill="#FFFFFF"></path>
            </g>
        </g>
    </g>
</svg>