<?xml version="1.0" encoding="UTF-8" standalone="no"?>
<svg width="32px" height="32px" viewBox="0 0 32 32" version="1.1" xmlns="http://www.w3.org/2000/svg" xmlns:xlink="http://www.w3.org/1999/xlink">
    <!-- Generator: Sketch 40.2 (33826) - http://www.bohemiancoding.com/sketch -->
    <title>icn-1</title>
    <desc>Created with Sketch.</desc>
    <defs>
        <rect id="path-1" x="0" y="0" width="32" height="32"></rect>
        <mask id="mask-2" maskContentUnits="userSpaceOnUse" maskUnits="objectBoundingBox" x="0" y="0" width="32" height="32" fill="white">
            <use xlink:href="#path-1"></use>
        </mask>
    </defs>
    <g id="Components" stroke="none" stroke-width="1" fill="none" fill-rule="evenodd">
        <g id="Buttons" transform="translate(-327.000000, -3061.000000)">
            <g id="icn-1" transform="translate(327.000000, 3061.000000)">
                <use id="Rectangle-4" stroke="#024059" mask="url(#mask-2)" stroke-width="2" fill="#025B80" xlink:href="#path-1"></use>
                <path d="M20.926994,15.9119252 L20.926994,20.401403 C20.926994,20.5635238 20.8677585,20.7038186 20.7492855,20.8222915 C20.6308126,20.9407644 20.4905178,21 20.328397,21 L16.7368148,21 L16.7368148,17.4084178 L14.3424266,17.4084178 L14.3424266,21 L10.7508444,21 C10.5887235,21 10.4484288,20.9407644 10.3299558,20.8222915 C10.2114829,20.7038186 10.1522474,20.5635238 10.1522474,20.401403 L10.1522474,15.9119252 C10.1522474,15.9056898 10.1538062,15.8963368 10.1569239,15.8838659 C10.1600416,15.8713951 10.1616004,15.8620421 10.1616004,15.8558067 L15.5396207,11.4224474 L20.917641,15.8558067 C20.9238764,15.8682775 20.926994,15.8869835 20.926994,15.9119252 L20.926994,15.9119252 Z M23.0127306,15.2665627 L22.4328397,15.9586906 C22.3829564,16.0148093 22.3174855,16.0491036 22.2364251,16.0615744 L22.2083658,16.0615744 C22.1273054,16.0615744 22.0618345,16.0397508 22.0119512,15.9961029 L15.5396207,10.5993765 L9.06729022,15.9961029 C8.99246522,16.0459862 8.91764134,16.0678099 8.84281633,16.0615744 C8.76175591,16.0491036 8.69628502,16.0148093 8.64640168,15.9586906 L8.0665108,15.2665627 C8.01662746,15.2042086 7.99480383,15.1309435 8.00103925,15.0467654 C8.00727466,14.9625873 8.04156894,14.8955575 8.10392311,14.8456742 L14.8287867,9.24318005 C15.0283201,9.0810592 15.2652623,9 15.5396207,9 C15.813979,9 16.0509213,9.0810592 16.2504547,9.24318005 L18.5326059,11.1512081 L18.5326059,9.32735776 C18.5326059,9.24006192 18.5606648,9.1683557 18.6167836,9.11223694 C18.6729023,9.05611819 18.7446086,9.02805924 18.8319044,9.02805924 L20.6276955,9.02805924 C20.7149914,9.02805924 20.7866976,9.05611819 20.8428163,9.11223694 C20.8989351,9.1683557 20.926994,9.24006192 20.926994,9.32735776 L20.926994,13.1434139 L22.9753183,14.8456742 C23.0376725,14.8955575 23.0719667,14.9625873 23.0782021,15.0467654 C23.0844376,15.1309435 23.0626139,15.2042086 23.0127306,15.2665627 L23.0127306,15.2665627 Z" id="" fill="#FFFFFF"></path>
            </g>
        </g>
    </g>
</svg>