<?xml version="1.0" encoding="UTF-8" standalone="no"?>
<svg width="38px" height="38px" viewBox="0 0 38 38" version="1.1" xmlns="http://www.w3.org/2000/svg" xmlns:xlink="http://www.w3.org/1999/xlink">
    <!-- Generator: Sketch 40.2 (33826) - http://www.bohemiancoding.com/sketch -->
    <title>icn-btn-2</title>
    <desc>Created with Sketch.</desc>
    <defs>
        <rect id="path-1" x="0" y="0" width="38" height="38"></rect>
        <mask id="mask-2" maskContentUnits="userSpaceOnUse" maskUnits="objectBoundingBox" x="0" y="0" width="38" height="38" fill="white">
            <use xlink:href="#path-1"></use>
        </mask>
    </defs>
    <g id="Components" stroke="none" stroke-width="1" fill="none" fill-rule="evenodd">
        <g id="Icons" transform="translate(-325.000000, -701.000000)">
            <g id="icn-btn-2" transform="translate(325.000000, 701.000000)">
                <use id="Rectangle-2" stroke="#024059" mask="url(#mask-2)" stroke-width="2" fill="#025B80" xlink:href="#path-1"></use>
                <path d="M25.081493,20.0639127 L25.081493,25.3016368 C25.081493,25.4907778 25.0123849,25.654455 24.8741665,25.7926734 C24.7359481,25.9308918 24.5722708,26 24.3831298,26 L20.1929506,26 L20.1929506,21.8098207 L17.3994977,21.8098207 L17.3994977,26 L13.2093185,26 C13.0201775,26 12.8565002,25.9308918 12.7182818,25.7926734 C12.5800634,25.654455 12.5109552,25.4907778 12.5109552,25.3016368 L12.5109552,20.0639127 C12.5109552,20.0566381 12.5127739,20.0457262 12.5164112,20.0311769 C12.5200485,20.0166276 12.5218672,20.0057158 12.5218672,19.9984412 L18.7962241,14.8261886 L25.0705811,19.9984412 C25.0778558,20.0129905 25.081493,20.0348141 25.081493,20.0639127 L25.081493,20.0639127 Z M27.5148524,19.3109899 L26.838313,20.1184723 C26.7801158,20.1839442 26.7037331,20.2239542 26.6091626,20.2385035 L26.5764268,20.2385035 C26.4818563,20.2385035 26.4054736,20.2130426 26.3472764,20.16212 L18.7962241,13.8659392 L11.2451719,20.16212 C11.1578761,20.2203173 11.0705816,20.2457782 10.9832857,20.2385035 C10.8887152,20.2239542 10.8123325,20.1839442 10.7541353,20.1184723 L10.0775959,19.3109899 C10.0193987,19.2382433 9.9939378,19.1527674 10.0012125,19.0545596 C10.0084871,18.9563518 10.0484971,18.8781505 10.1212436,18.8199532 L17.9669178,12.2837101 C18.1997067,12.0945691 18.4761394,12 18.7962241,12 C19.1163089,12 19.3927416,12.0945691 19.6255305,12.2837101 L22.2880402,14.5097428 L22.2880402,12.3819174 C22.2880402,12.2800722 22.3207757,12.196415 22.3862475,12.1309431 C22.4517194,12.0654712 22.5353767,12.0327358 22.6372218,12.0327358 L24.7323114,12.0327358 C24.8341566,12.0327358 24.9178138,12.0654712 24.9832857,12.1309431 C25.0487576,12.196415 25.081493,12.2800722 25.081493,12.3819174 L25.081493,16.8339829 L27.4712047,18.8199532 C27.5439512,18.8781505 27.5839612,18.9563518 27.5912358,19.0545596 C27.5985105,19.1527674 27.5730496,19.2382433 27.5148524,19.3109899 L27.5148524,19.3109899 Z" id="-copy" fill="#FFFFFF"></path>
            </g>
        </g>
    </g>
</svg>