<?xml version="1.0" encoding="UTF-8" standalone="no"?>
<svg width="190px" height="32px" viewBox="0 0 190 32" version="1.1" xmlns="http://www.w3.org/2000/svg" xmlns:xlink="http://www.w3.org/1999/xlink">
    <!-- Generator: Sketch 40.2 (33826) - http://www.bohemiancoding.com/sketch -->
    <title>sgmt-2</title>
    <desc>Created with Sketch.</desc>
    <defs>
        <rect id="path-1" x="0" y="0" width="64" height="32"></rect>
        <mask id="mask-2" maskContentUnits="userSpaceOnUse" maskUnits="objectBoundingBox" x="0" y="0" width="64" height="32" fill="white">
            <use xlink:href="#path-1"></use>
        </mask>
        <rect id="path-3" x="63" y="0" width="64" height="32"></rect>
        <mask id="mask-4" maskContentUnits="userSpaceOnUse" maskUnits="objectBoundingBox" x="0" y="0" width="64" height="32" fill="white">
            <use xlink:href="#path-3"></use>
        </mask>
        <rect id="path-5" x="126" y="0" width="64" height="32"></rect>
        <mask id="mask-6" maskContentUnits="userSpaceOnUse" maskUnits="objectBoundingBox" x="0" y="0" width="64" height="32" fill="white">
            <use xlink:href="#path-5"></use>
        </mask>
    </defs>
    <g id="Components" stroke="none" stroke-width="1" fill="none" fill-rule="evenodd">
        <g id="Buttons" transform="translate(-327.000000, -2013.000000)">
            <g id="sgmt-2" transform="translate(327.000000, 2013.000000)">
                <g id="Toolbar-Toggle-Buttons">
                    <g>
                        <use id="Rectangle-1" stroke="#BCBCBC" mask="url(#mask-2)" stroke-width="2" fill="#BCBCBC" xlink:href="#path-1"></use>
                        <use id="Rectangle-1-Copy" stroke="#BCBCBC" mask="url(#mask-4)" stroke-width="2" fill="#F5F5F5" xlink:href="#path-3"></use>
                        <use id="Rectangle-1-Copy-2" stroke="#BCBCBC" mask="url(#mask-6)" stroke-width="2" fill="#F5F5F5" xlink:href="#path-5"></use>
                        <path d="M28.3310547,16.347168 C28.3310547,17.832527 27.9554888,19.000484 27.2043457,19.8510742 C26.4532026,20.7016644 25.4090236,21.1269531 24.0717773,21.1269531 C22.7049085,21.1269531 21.6501502,20.7090699 20.9074707,19.873291 C20.1647912,19.0375121 19.793457,17.8579178 19.793457,16.3344727 C19.793457,14.8237229 20.1658491,13.652592 20.9106445,12.8210449 C21.6554399,11.9894978 22.7133721,11.5737305 24.0844727,11.5737305 C25.4174871,11.5737305 26.4584923,11.9969033 27.2075195,12.8432617 C27.9565467,13.6896201 28.3310547,14.8575772 28.3310547,16.347168 L28.3310547,16.347168 Z M20.9360352,16.347168 C20.9360352,17.6040102 21.203692,18.557207 21.7390137,19.2067871 C22.2743354,19.8563672 23.0519155,20.1811523 24.0717773,20.1811523 C25.1001028,20.1811523 25.876625,19.8574251 26.4013672,19.2099609 C26.9261094,18.5624968 27.1884766,17.608242 27.1884766,16.347168 C27.1884766,15.0987893 26.9271673,14.1519401 26.404541,13.5065918 C25.8819147,12.8612435 25.1085663,12.5385742 24.0844727,12.5385742 C23.0561472,12.5385742 22.2743354,12.8633594 21.7390137,13.5129395 C21.203692,14.1625195 20.9360352,15.1072529 20.9360352,16.347168 L20.9360352,16.347168 Z M35.0050414,21 L35.0050414,16.4995117 C35.0050414,15.9324516 34.8759737,15.5092787 34.6178344,15.2299805 C34.3596951,14.9506822 33.955565,14.8110352 33.405432,14.8110352 C32.6775638,14.8110352 32.144366,15.0078105 31.8058227,15.4013672 C31.4672793,15.7949238 31.2980102,16.4444942 31.2980102,17.3500977 L31.2980102,21 L30.2442992,21 L30.2442992,14.0429688 L31.1012328,14.0429688 L31.2726195,14.9951172 L31.3234008,14.9951172 C31.5392222,14.652342 31.8417908,14.3868011 32.2311156,14.1984863 C32.6204405,14.0101716 33.0541927,13.9160156 33.5323852,13.9160156 C34.37028,13.9160156 35.0008075,14.1180807 35.4239867,14.5222168 C35.8471659,14.9263529 36.0587523,15.5727495 36.0587523,16.4614258 L36.0587523,21 L35.0050414,21 Z M41.164868,21.1269531 C40.1365425,21.1269531 39.3251086,20.8138052 38.7305418,20.1875 C38.135975,19.5611948 37.8386961,18.6915746 37.8386961,17.5786133 C37.8386961,16.4571884 38.1148164,15.5664096 38.6670652,14.90625 C39.2193141,14.2460904 39.9609245,13.9160156 40.8919188,13.9160156 C41.7636679,13.9160156 42.4534396,14.2027152 42.9612547,14.776123 C43.4690697,15.3495309 43.7229734,16.1059523 43.7229734,17.0454102 L43.7229734,17.7119141 L38.930493,17.7119141 C38.9516519,18.5286499 39.1579487,19.1485981 39.5493895,19.5717773 C39.9408302,19.9949565 40.4920129,20.206543 41.2029539,20.206543 C41.9519811,20.206543 42.6925336,20.049969 43.4246336,19.7368164 L43.4246336,20.6762695 C43.0522359,20.8370776 42.6999445,20.9523922 42.3677488,21.0222168 C42.0355532,21.0920414 41.6345969,21.1269531 41.164868,21.1269531 L41.164868,21.1269531 Z M40.8792234,14.7983398 C40.3206269,14.7983398 39.8752375,14.9803042 39.5430418,15.3442383 C39.2108461,15.7081724 39.0151287,16.2117481 38.9558836,16.8549805 L42.5930906,16.8549805 C42.5930906,16.1905891 42.4449801,15.6817238 42.1487547,15.3283691 C41.8525292,14.9750145 41.4293564,14.7983398 40.8792234,14.7983398 L40.8792234,14.7983398 Z" id="One" fill="#4A4A4A"></path>
                        <path d="M86.1323242,21 L85.0532227,21 L85.0532227,12.6782227 L82.1142578,12.6782227 L82.1142578,11.7197266 L89.0712891,11.7197266 L89.0712891,12.6782227 L86.1323242,12.6782227 L86.1323242,21 Z M95.7325805,21 L94.4567016,16.918457 C94.3762975,16.6687813 94.2260712,16.1017297 94.006018,15.2172852 L93.9552367,15.2172852 C93.785965,15.9578488 93.6378545,16.5291321 93.5109008,16.9311523 L92.1969359,21 L90.9781859,21 L89.0802367,14.0429688 L90.1847289,14.0429688 C90.6332989,15.7906988 90.9750109,17.1215775 91.2098754,18.0356445 C91.4447398,18.9497116 91.5790972,19.5654281 91.6129516,19.8828125 L91.6637328,19.8828125 C91.7102825,19.6416004 91.7853957,19.3295104 91.8890746,18.9465332 C91.9927535,18.563556 92.0826777,18.2599295 92.15885,18.0356445 L93.4347289,14.0429688 L94.577307,14.0429688 L95.8214477,18.0356445 C96.058428,18.7635128 96.2192337,19.3749975 96.3038695,19.8701172 L96.3546508,19.8701172 C96.3715779,19.7177727 96.417069,19.4829117 96.4911254,19.1655273 C96.5651818,18.8481429 97.0063394,17.1406405 97.8146117,14.0429688 L98.9064086,14.0429688 L96.9830688,21 L95.7325805,21 Z M106.170727,17.5151367 C106.170727,18.649257 105.885086,19.5347462 105.313794,20.1716309 C104.742502,20.8085156 103.953284,21.1269531 102.946118,21.1269531 C102.324045,21.1269531 101.771804,20.9809585 101.28938,20.6889648 C100.806955,20.3969712 100.434563,19.9780301 100.172192,19.4321289 C99.9098211,18.8862277 99.7786375,18.2472367 99.7786375,17.5151367 C99.7786375,16.3810165 100.062163,15.4976431 100.629223,14.8649902 C101.196284,14.2323373 101.983385,13.9160156 102.990552,13.9160156 C103.963864,13.9160156 104.737212,14.2397429 105.31062,14.887207 C105.884028,15.5346712 106.170727,16.410639 106.170727,17.5151367 L106.170727,17.5151367 Z M100.870434,17.5151367 C100.870434,18.403813 101.048167,19.0808896 101.403638,19.5463867 C101.759108,20.0118838 102.281726,20.2446289 102.971509,20.2446289 C103.661291,20.2446289 104.184967,20.0129418 104.542554,19.5495605 C104.90014,19.0861793 105.07893,18.4080448 105.07893,17.5151367 C105.07893,16.6306922 104.90014,15.9589053 104.542554,15.4997559 C104.184967,15.0406064 103.657059,14.8110352 102.958813,14.8110352 C102.269031,14.8110352 101.748529,15.0374326 101.39729,15.4902344 C101.046051,15.9430361 100.870434,16.6179968 100.870434,17.5151367 L100.870434,17.5151367 Z" id="Two" fill="#4A4A4A"></path>
                        <path d="M145.132324,21 L144.053223,21 L144.053223,12.6782227 L141.114258,12.6782227 L141.114258,11.7197266 L148.071289,11.7197266 L148.071289,12.6782227 L145.132324,12.6782227 L145.132324,21 Z M154.072424,21 L154.072424,16.4995117 C154.072424,15.9324516 153.943356,15.5092787 153.685217,15.2299805 C153.427078,14.9506822 153.022948,14.8110352 152.472815,14.8110352 C151.740715,14.8110352 151.206459,15.0099264 150.870032,15.4077148 C150.533604,15.8055033 150.365393,16.4571895 150.365393,17.362793 L150.365393,21 L149.311682,21 L149.311682,11.1230469 L150.365393,11.1230469 L150.365393,14.112793 C150.365393,14.4724953 150.348466,14.7708321 150.314612,15.0078125 L150.378088,15.0078125 C150.585446,14.6735009 150.880609,14.4100758 151.263586,14.2175293 C151.646564,14.0249828 152.083489,13.9287109 152.574377,13.9287109 C153.424968,13.9287109 154.062901,14.130776 154.488196,14.5349121 C154.913491,14.9390482 155.126135,15.581213 155.126135,16.4614258 L155.126135,21 L154.072424,21 Z M160.467114,13.9160156 C160.776035,13.9160156 161.053213,13.941406 161.298657,13.9921875 L161.152661,14.9697266 C160.864899,14.9062497 160.610995,14.8745117 160.390942,14.8745117 C159.828114,14.8745117 159.346755,15.1030251 158.94685,15.5600586 C158.546946,16.0170921 158.346997,16.5862596 158.346997,17.2675781 L158.346997,21 L157.293286,21 L157.293286,14.0429688 L158.162915,14.0429688 L158.28352,15.331543 L158.334302,15.331543 C158.592441,14.8787412 158.903473,14.5296236 159.267407,14.2841797 C159.631341,14.0387358 160.031239,13.9160156 160.467114,13.9160156 L160.467114,13.9160156 Z M165.281238,21.1269531 C164.252912,21.1269531 163.441478,20.8138052 162.846911,20.1875 C162.252345,19.5611948 161.955066,18.6915746 161.955066,17.5786133 C161.955066,16.4571884 162.231186,15.5664096 162.783435,14.90625 C163.335684,14.2460904 164.077294,13.9160156 165.008288,13.9160156 C165.880037,13.9160156 166.569809,14.2027152 167.077624,14.776123 C167.585439,15.3495309 167.839343,16.1059523 167.839343,17.0454102 L167.839343,17.7119141 L163.046863,17.7119141 C163.068021,18.5286499 163.274318,19.1485981 163.665759,19.5717773 C164.0572,19.9949565 164.608382,20.206543 165.319323,20.206543 C166.068351,20.206543 166.808903,20.049969 167.541003,19.7368164 L167.541003,20.6762695 C167.168605,20.8370776 166.816314,20.9523922 166.484118,21.0222168 C166.151923,21.0920414 165.750966,21.1269531 165.281238,21.1269531 L165.281238,21.1269531 Z M164.995593,14.7983398 C164.436996,14.7983398 163.991607,14.9803042 163.659411,15.3442383 C163.327216,15.7081724 163.131498,16.2117481 163.072253,16.8549805 L166.70946,16.8549805 C166.70946,16.1905891 166.56135,15.6817238 166.265124,15.3283691 C165.968899,14.9750145 165.545726,14.7983398 164.995593,14.7983398 L164.995593,14.7983398 Z M172.577295,21.1269531 C171.548969,21.1269531 170.737535,20.8138052 170.142968,20.1875 C169.548402,19.5611948 169.251123,18.6915746 169.251123,17.5786133 C169.251123,16.4571884 169.527243,15.5664096 170.079492,14.90625 C170.631741,14.2460904 171.373351,13.9160156 172.304345,13.9160156 C173.176094,13.9160156 173.865866,14.2027152 174.373681,14.776123 C174.881496,15.3495309 175.1354,16.1059523 175.1354,17.0454102 L175.1354,17.7119141 L170.34292,17.7119141 C170.364078,18.5286499 170.570375,19.1485981 170.961816,19.5717773 C171.353257,19.9949565 171.904439,20.206543 172.61538,20.206543 C173.364408,20.206543 174.10496,20.049969 174.83706,19.7368164 L174.83706,20.6762695 C174.464662,20.8370776 174.112371,20.9523922 173.780175,21.0222168 C173.44798,21.0920414 173.047023,21.1269531 172.577295,21.1269531 L172.577295,21.1269531 Z M172.29165,14.7983398 C171.733053,14.7983398 171.287664,14.9803042 170.955468,15.3442383 C170.623273,15.7081724 170.427555,16.2117481 170.36831,16.8549805 L174.005517,16.8549805 C174.005517,16.1905891 173.857407,15.6817238 173.561181,15.3283691 C173.264956,14.9750145 172.841783,14.7983398 172.29165,14.7983398 L172.29165,14.7983398 Z" id="Three" fill="#4A4A4A"></path>
                    </g>
                </g>
            </g>
        </g>
    </g>
</svg>