<?xml version="1.0" encoding="UTF-8" standalone="no"?>
<svg width="190px" height="32px" viewBox="0 0 190 32" version="1.1" xmlns="http://www.w3.org/2000/svg" xmlns:xlink="http://www.w3.org/1999/xlink">
    <!-- Generator: Sketch 40.2 (33826) - http://www.bohemiancoding.com/sketch -->
    <title>sgmt-1</title>
    <desc>Created with Sketch.</desc>
    <defs>
        <rect id="path-1" x="63" y="0" width="64" height="32"></rect>
        <mask id="mask-2" maskContentUnits="userSpaceOnUse" maskUnits="objectBoundingBox" x="0" y="0" width="64" height="32" fill="white">
            <use xlink:href="#path-1"></use>
        </mask>
        <rect id="path-3" x="126" y="0" width="64" height="32"></rect>
        <mask id="mask-4" maskContentUnits="userSpaceOnUse" maskUnits="objectBoundingBox" x="0" y="0" width="64" height="32" fill="white">
            <use xlink:href="#path-3"></use>
        </mask>
        <rect id="path-5" x="0" y="0" width="64" height="32"></rect>
        <mask id="mask-6" maskContentUnits="userSpaceOnUse" maskUnits="objectBoundingBox" x="0" y="0" width="64" height="32" fill="white">
            <use xlink:href="#path-5"></use>
        </mask>
    </defs>
    <g id="Components" stroke="none" stroke-width="1" fill="none" fill-rule="evenodd">
        <g id="Buttons" transform="translate(-327.000000, -1958.000000)">
            <g id="sgmt-1" transform="translate(327.000000, 1958.000000)">
                <use id="Rectangle-2" stroke="#024059" mask="url(#mask-2)" stroke-width="2" fill="#025B80" xlink:href="#path-1"></use>
                <use id="Rectangle-2" stroke="#024059" mask="url(#mask-4)" stroke-width="2" fill="#025B80" xlink:href="#path-3"></use>
                <path d="M86.8144531,20 L85.8183594,20 L85.8183594,12.3183594 L83.1054688,12.3183594 L83.1054688,11.4335938 L89.5273438,11.4335938 L89.5273438,12.3183594 L86.8144531,12.3183594 L86.8144531,20 Z M95.6738281,20 L94.4960938,16.2324219 C94.4218746,16.001952 94.2832041,15.4785197 94.0800781,14.6621094 L94.0332031,14.6621094 C93.8769523,15.3457065 93.740235,15.873045 93.6230469,16.2441406 L92.4101562,20 L91.2851562,20 L89.5332031,13.578125 L90.5527344,13.578125 C90.9667989,15.1914143 91.2822255,16.4199177 91.4990234,17.2636719 C91.7158214,18.1074261 91.8398436,18.6757798 91.8710938,18.96875 L91.9179688,18.96875 C91.9609377,18.7460926 92.030273,18.4580096 92.1259766,18.1044922 C92.2216802,17.7509748 92.3046871,17.4707042 92.375,17.2636719 L93.5527344,13.578125 L94.6074219,13.578125 L95.7558594,17.2636719 C95.9746105,17.9355502 96.1230465,18.4999977 96.2011719,18.9570312 L96.2480469,18.9570312 C96.263672,18.8164055 96.3056637,18.5996108 96.3740234,18.3066406 C96.4423832,18.0136704 96.8496056,16.4375143 97.5957031,13.578125 L98.6035156,13.578125 L96.828125,20 L95.6738281,20 Z M105.306641,16.7832031 C105.306641,17.8300834 105.042971,18.647458 104.515625,19.2353516 C103.988279,19.8232451 103.25977,20.1171875 102.330078,20.1171875 C101.755857,20.1171875 101.246096,19.9824232 100.800781,19.7128906 C100.355467,19.443358 100.01172,19.0566431 99.7695312,18.5527344 C99.5273425,18.0488256 99.40625,17.4589878 99.40625,16.7832031 C99.40625,15.7363229 99.6679661,14.9209014 100.191406,14.3369141 C100.714846,13.7529268 101.441402,13.4609375 102.371094,13.4609375 C103.269536,13.4609375 103.983396,13.7597626 104.512695,14.3574219 C105.041995,14.9550811 105.306641,15.7636668 105.306641,16.7832031 L105.306641,16.7832031 Z M100.414062,16.7832031 C100.414062,17.6035197 100.578123,18.2285135 100.90625,18.6582031 C101.234377,19.0878928 101.716794,19.3027344 102.353516,19.3027344 C102.990238,19.3027344 103.473631,19.0888693 103.803711,18.6611328 C104.133791,18.2333963 104.298828,17.607426 104.298828,16.7832031 C104.298828,15.9667928 104.133791,15.3466818 103.803711,14.9228516 C103.473631,14.4990213 102.986331,14.2871094 102.341797,14.2871094 C101.705075,14.2871094 101.224611,14.4960917 100.900391,14.9140625 C100.57617,15.3320333 100.414062,15.955074 100.414062,16.7832031 L100.414062,16.7832031 Z" id="Two" fill="#FFFFFF"></path>
                <use id="Rectangle-2" stroke="#024059" mask="url(#mask-6)" stroke-width="2" fill="#024059" xlink:href="#path-5"></use>
                <path d="M28.6132812,15.7050781 C28.6132812,17.0761787 28.266605,18.1542929 27.5732422,18.9394531 C26.8798793,19.7246133 25.9160218,20.1171875 24.6816406,20.1171875 C23.4199156,20.1171875 22.4462925,19.7314492 21.7607422,18.9599609 C21.0751919,18.1884727 20.7324219,17.0996164 20.7324219,15.6933594 C20.7324219,14.2988212 21.0761684,13.2177773 21.7636719,12.4501953 C22.4511753,11.6826133 23.427728,11.2988281 24.6933594,11.2988281 C25.9238343,11.2988281 26.8847622,11.6894492 27.5761719,12.4707031 C28.2675816,13.251957 28.6132812,14.3300712 28.6132812,15.7050781 L28.6132812,15.7050781 Z M21.7871094,15.7050781 C21.7871094,16.8652402 22.0341772,17.7451142 22.5283203,18.3447266 C23.0224634,18.9443389 23.7402297,19.2441406 24.6816406,19.2441406 C25.6308641,19.2441406 26.3476538,18.9453155 26.8320312,18.3476562 C27.3164087,17.749997 27.5585938,16.8691464 27.5585938,15.7050781 C27.5585938,14.5527286 27.3173852,13.6787139 26.8349609,13.0830078 C26.3525367,12.4873017 25.6386766,12.1894531 24.6933594,12.1894531 C23.7441359,12.1894531 23.0224634,12.4892548 22.5283203,13.0888672 C22.0341772,13.6884796 21.7871094,14.5605412 21.7871094,15.7050781 L21.7871094,15.7050781 Z M34.7714844,20 L34.7714844,15.8457031 C34.7714844,15.322263 34.6523449,14.9316419 34.4140625,14.6738281 C34.1757801,14.4160143 33.8027369,14.2871094 33.2949219,14.2871094 C32.6230435,14.2871094 32.1308609,14.4687482 31.8183594,14.8320312 C31.5058578,15.1953143 31.3496094,15.7949177 31.3496094,16.6308594 L31.3496094,20 L30.3769531,20 L30.3769531,13.578125 L31.1679688,13.578125 L31.3261719,14.4570312 L31.3730469,14.4570312 C31.5722666,14.1406234 31.8515607,13.8955087 32.2109375,13.7216797 C32.5703143,13.5478507 32.9707009,13.4609375 33.4121094,13.4609375 C34.1855507,13.4609375 34.7675762,13.6474591 35.1582031,14.0205078 C35.5488301,14.3935566 35.7441406,14.9902303 35.7441406,15.8105469 L35.7441406,20 L34.7714844,20 Z M40.4550781,20.1171875 C39.5058546,20.1171875 38.7568387,19.8281279 38.2080078,19.25 C37.6591769,18.6718721 37.3847656,17.8691458 37.3847656,16.8417969 C37.3847656,15.8066354 37.6396459,14.984378 38.1494141,14.375 C38.6591822,13.765622 39.3437457,13.4609375 40.203125,13.4609375 C41.0078165,13.4609375 41.6445289,13.7255833 42.1132812,14.2548828 C42.5820336,14.7841823 42.8164062,15.4824175 42.8164062,16.3496094 L42.8164062,16.9648438 L38.3925781,16.9648438 C38.4121095,17.7187538 38.6025373,18.2910137 38.9638672,18.6816406 C39.3251971,19.0722676 39.8339811,19.2675781 40.4902344,19.2675781 C41.1816441,19.2675781 41.865231,19.1230483 42.5410156,18.8339844 L42.5410156,19.7011719 C42.1972639,19.8496101 41.8720718,19.9560544 41.5654297,20.0205078 C41.2587875,20.0849613 40.888674,20.1171875 40.4550781,20.1171875 L40.4550781,20.1171875 Z M40.1914062,14.2753906 C39.6757787,14.2753906 39.26465,14.4433577 38.9580078,14.7792969 C38.6513657,15.1152361 38.4707034,15.5800752 38.4160156,16.1738281 L41.7734375,16.1738281 C41.7734375,15.5605438 41.6367201,15.0908219 41.3632812,14.7646484 C41.0898424,14.4384749 40.6992213,14.2753906 40.1914062,14.2753906 L40.1914062,14.2753906 Z" id="One" fill="#FFFFFF"></path>
                <path d="M145.814453,20 L144.818359,20 L144.818359,12.3183594 L142.105469,12.3183594 L142.105469,11.4335938 L148.527344,11.4335938 L148.527344,12.3183594 L145.814453,12.3183594 L145.814453,20 Z M154.064453,20 L154.064453,15.8457031 C154.064453,15.322263 153.945314,14.9316419 153.707031,14.6738281 C153.468749,14.4160143 153.095706,14.2871094 152.587891,14.2871094 C151.912106,14.2871094 151.418947,14.4707013 151.108398,14.8378906 C150.79785,15.20508 150.642578,15.8066364 150.642578,16.6425781 L150.642578,20 L149.669922,20 L149.669922,10.8828125 L150.642578,10.8828125 L150.642578,13.6425781 C150.642578,13.974611 150.626953,14.2499989 150.595703,14.46875 L150.654297,14.46875 C150.845704,14.1601547 151.118162,13.9169931 151.47168,13.7392578 C151.825197,13.5615225 152.228513,13.4726562 152.681641,13.4726562 C153.466801,13.4726562 154.055662,13.6591778 154.448242,14.0322266 C154.840822,14.4052753 155.037109,14.9980428 155.037109,15.8105469 L155.037109,20 L154.064453,20 Z M159.964844,13.4609375 C160.250001,13.4609375 160.505858,13.4843748 160.732422,13.53125 L160.597656,14.4335938 C160.33203,14.3749997 160.097657,14.3457031 159.894531,14.3457031 C159.374997,14.3457031 158.930666,14.5566385 158.561523,14.9785156 C158.192381,15.4003927 158.007812,15.9257781 158.007812,16.5546875 L158.007812,20 L157.035156,20 L157.035156,13.578125 L157.837891,13.578125 L157.949219,14.7675781 L157.996094,14.7675781 C158.234376,14.3496073 158.521483,14.0273449 158.857422,13.8007812 C159.193361,13.5742176 159.562498,13.4609375 159.964844,13.4609375 L159.964844,13.4609375 Z M164.40625,20.1171875 C163.457027,20.1171875 162.708011,19.8281279 162.15918,19.25 C161.610349,18.6718721 161.335938,17.8691458 161.335938,16.8417969 C161.335938,15.8066354 161.590818,14.984378 162.100586,14.375 C162.610354,13.765622 163.294918,13.4609375 164.154297,13.4609375 C164.958988,13.4609375 165.595701,13.7255833 166.064453,14.2548828 C166.533205,14.7841823 166.767578,15.4824175 166.767578,16.3496094 L166.767578,16.9648438 L162.34375,16.9648438 C162.363281,17.7187538 162.553709,18.2910137 162.915039,18.6816406 C163.276369,19.0722676 163.785153,19.2675781 164.441406,19.2675781 C165.132816,19.2675781 165.816403,19.1230483 166.492188,18.8339844 L166.492188,19.7011719 C166.148436,19.8496101 165.823244,19.9560544 165.516602,20.0205078 C165.209959,20.0849613 164.839846,20.1171875 164.40625,20.1171875 L164.40625,20.1171875 Z M164.142578,14.2753906 C163.626951,14.2753906 163.215822,14.4433577 162.90918,14.7792969 C162.602538,15.1152361 162.421875,15.5800752 162.367188,16.1738281 L165.724609,16.1738281 C165.724609,15.5605438 165.587892,15.0908219 165.314453,14.7646484 C165.041014,14.4384749 164.650393,14.2753906 164.142578,14.2753906 L164.142578,14.2753906 Z M171.138672,20.1171875 C170.189448,20.1171875 169.440432,19.8281279 168.891602,19.25 C168.342771,18.6718721 168.068359,17.8691458 168.068359,16.8417969 C168.068359,15.8066354 168.32324,14.984378 168.833008,14.375 C169.342776,13.765622 170.027339,13.4609375 170.886719,13.4609375 C171.69141,13.4609375 172.328123,13.7255833 172.796875,14.2548828 C173.265627,14.7841823 173.5,15.4824175 173.5,16.3496094 L173.5,16.9648438 L169.076172,16.9648438 C169.095703,17.7187538 169.286131,18.2910137 169.647461,18.6816406 C170.008791,19.0722676 170.517575,19.2675781 171.173828,19.2675781 C171.865238,19.2675781 172.548825,19.1230483 173.224609,18.8339844 L173.224609,19.7011719 C172.880858,19.8496101 172.555666,19.9560544 172.249023,20.0205078 C171.942381,20.0849613 171.572268,20.1171875 171.138672,20.1171875 L171.138672,20.1171875 Z M170.875,14.2753906 C170.359372,14.2753906 169.948244,14.4433577 169.641602,14.7792969 C169.334959,15.1152361 169.154297,15.5800752 169.099609,16.1738281 L172.457031,16.1738281 C172.457031,15.5605438 172.320314,15.0908219 172.046875,14.7646484 C171.773436,14.4384749 171.382815,14.2753906 170.875,14.2753906 L170.875,14.2753906 Z" id="Three" fill="#FFFFFF"></path>
            </g>
        </g>
    </g>
</svg>