<?xml version="1.0" encoding="UTF-8" standalone="no"?>
<svg width="117px" height="32px" viewBox="0 0 117 32" version="1.1" xmlns="http://www.w3.org/2000/svg" xmlns:xlink="http://www.w3.org/1999/xlink">
    <!-- Generator: Sketch 40.2 (33826) - http://www.bohemiancoding.com/sketch -->
    <title>splt-1</title>
    <desc>Created with Sketch.</desc>
    <defs>
        <rect id="path-1" x="0" y="0" width="117" height="32"></rect>
        <mask id="mask-2" maskContentUnits="userSpaceOnUse" maskUnits="objectBoundingBox" x="0" y="0" width="117" height="32" fill="white">
            <use xlink:href="#path-1"></use>
        </mask>
    </defs>
    <g id="Components" stroke="none" stroke-width="1" fill="none" fill-rule="evenodd">
        <g id="Buttons" transform="translate(-327.000000, -2322.000000)">
            <g id="splt-1" transform="translate(327.000000, 2322.000000)">
                <use id="Rectangle-2-Copy" stroke="#024059" mask="url(#mask-2)" stroke-width="2" fill="#025B80" xlink:href="#path-1"></use>
                <path d="M101.895307,18.8346947 C101.789957,18.9387398 101.649163,19 101.499508,19 C101.350837,19 101.209058,18.9387398 101.104693,18.8346947 L97.1673777,14.9461299 C97.0620282,14.8420848 97,14.7030338 97,14.5552314 C97,14.2518475 97.2550049,14 97.5621923,14 L105.436823,14 C105.744995,14 106,14.2518475 106,14.5552314 C106,14.7030338 105.937972,14.8420848 105.832622,14.9461299 L101.895307,18.8346947 Z" id="Fill-46" fill="#FFFFFF"></path>
                <path d="M85.5,1.5 L85.5,30.5172367" id="Line" stroke="#024059" stroke-linecap="square"></path>
            </g>
        </g>
    </g>
</svg>