<?xml version="1.0" encoding="UTF-8" standalone="no"?>
<svg width="541px" height="63px" viewBox="0 0 541 63" version="1.1" xmlns="http://www.w3.org/2000/svg" xmlns:xlink="http://www.w3.org/1999/xlink">
    <!-- Generator: Sketch 40.2 (33826) - http://www.bohemiancoding.com/sketch -->
    <title>tlbr-2</title>
    <desc>Created with Sketch.</desc>
    <defs></defs>
    <g id="Components" stroke="none" stroke-width="1" fill="none" fill-rule="evenodd">
        <g id="Buttons" transform="translate(-325.000000, -1587.000000)">
            <g id="tlbr-2" transform="translate(325.000000, 1587.000000)">
                <rect id="Rectangle-19-Copy-4" fill="#333333" x="0" y="23" width="541" height="40"></rect>
                <rect id="Rectangle-20-Copy-2" fill="#262626" x="0" y="23" width="139" height="40"></rect>
                <rect id="Rectangle-19-Copy-5" fill="#474747" x="276" y="23" width="132" height="40"></rect>
                <text id="Button-1" font-family="OpenSans, Open Sans" font-size="12" font-weight="normal" fill="#B2B2B2">
                    <tspan x="35" y="47">Button 1</tspan>
                </text>
                <path d="M23.8303571,39.5446429 C23.9553578,39.6696435 24.0624996,39.8392846 24.1517857,40.0535714 C24.2410719,40.2678582 24.2857143,40.4642848 24.2857143,40.6428571 L24.2857143,48.3571429 C24.2857143,48.5357152 24.2232149,48.6874994 24.0982143,48.8125 C23.9732137,48.9375006 23.8214295,49 23.6428571,49 L14.6428571,49 C14.4642848,49 14.3125006,48.9375006 14.1875,48.8125 C14.0624994,48.6874994 14,48.5357152 14,48.3571429 L14,37.6428571 C14,37.4642848 14.0624994,37.3125006 14.1875,37.1875 C14.3125006,37.0624994 14.4642848,37 14.6428571,37 L20.6428571,37 C20.8214295,37 21.0178561,37.0446424 21.2321429,37.1339286 C21.4464296,37.2232147 21.6160708,37.3303565 21.7410714,37.4553571 L23.8303571,39.5446429 Z M20.8571429,37.9107143 L20.8571429,40.4285714 L23.375,40.4285714 C23.3303569,40.2991065 23.2812503,40.2075896 23.2276786,40.1540179 L21.1316964,38.0580357 C21.0781247,38.004464 20.9866078,37.9553574 20.8571429,37.9107143 L20.8571429,37.9107143 Z M23.4285714,48.1428571 L23.4285714,41.2857143 L20.6428571,41.2857143 C20.4642848,41.2857143 20.3125006,41.2232149 20.1875,41.0982143 C20.0624994,40.9732137 20,40.8214295 20,40.6428571 L20,37.8571429 L14.8571429,37.8571429 L14.8571429,48.1428571 L23.4285714,48.1428571 Z" id="-copy-12" fill="#B2B2B2"></path>
                <text id="Button-2" font-family="OpenSans, Open Sans" font-size="12" font-weight="normal" fill="#B2B2B2">
                    <tspan x="176" y="47">Button 2</tspan>
                </text>
                <path d="M164.830357,39.5446429 C164.955358,39.6696435 165.0625,39.8392846 165.151786,40.0535714 C165.241072,40.2678582 165.285714,40.4642848 165.285714,40.6428571 L165.285714,48.3571429 C165.285714,48.5357152 165.223215,48.6874994 165.098214,48.8125 C164.973214,48.9375006 164.821429,49 164.642857,49 L155.642857,49 C155.464285,49 155.312501,48.9375006 155.1875,48.8125 C155.062499,48.6874994 155,48.5357152 155,48.3571429 L155,37.6428571 C155,37.4642848 155.062499,37.3125006 155.1875,37.1875 C155.312501,37.0624994 155.464285,37 155.642857,37 L161.642857,37 C161.821429,37 162.017856,37.0446424 162.232143,37.1339286 C162.44643,37.2232147 162.616071,37.3303565 162.741071,37.4553571 L164.830357,39.5446429 Z M161.857143,37.9107143 L161.857143,40.4285714 L164.375,40.4285714 C164.330357,40.2991065 164.28125,40.2075896 164.227679,40.1540179 L162.131696,38.0580357 C162.078125,38.004464 161.986608,37.9553574 161.857143,37.9107143 L161.857143,37.9107143 Z M164.428571,48.1428571 L164.428571,41.2857143 L161.642857,41.2857143 C161.464285,41.2857143 161.312501,41.2232149 161.1875,41.0982143 C161.062499,40.9732137 161,40.8214295 161,40.6428571 L161,37.8571429 L155.857143,37.8571429 L155.857143,48.1428571 L164.428571,48.1428571 Z" id="-copy-13" fill="#B2B2B2"></path>
                <text id="Button-3" font-family="OpenSans, Open Sans" font-size="12" font-weight="normal" fill="#B2B2B2">
                    <tspan x="310" y="47">Button 3</tspan>
                </text>
                <path d="M298.830357,39.5446429 C298.955358,39.6696435 299.0625,39.8392846 299.151786,40.0535714 C299.241072,40.2678582 299.285714,40.4642848 299.285714,40.6428571 L299.285714,48.3571429 C299.285714,48.5357152 299.223215,48.6874994 299.098214,48.8125 C298.973214,48.9375006 298.821429,49 298.642857,49 L289.642857,49 C289.464285,49 289.312501,48.9375006 289.1875,48.8125 C289.062499,48.6874994 289,48.5357152 289,48.3571429 L289,37.6428571 C289,37.4642848 289.062499,37.3125006 289.1875,37.1875 C289.312501,37.0624994 289.464285,37 289.642857,37 L295.642857,37 C295.821429,37 296.017856,37.0446424 296.232143,37.1339286 C296.44643,37.2232147 296.616071,37.3303565 296.741071,37.4553571 L298.830357,39.5446429 Z M295.857143,37.9107143 L295.857143,40.4285714 L298.375,40.4285714 C298.330357,40.2991065 298.28125,40.2075896 298.227679,40.1540179 L296.131696,38.0580357 C296.078125,38.004464 295.986608,37.9553574 295.857143,37.9107143 L295.857143,37.9107143 Z M298.428571,48.1428571 L298.428571,41.2857143 L295.642857,41.2857143 C295.464285,41.2857143 295.312501,41.2232149 295.1875,41.0982143 C295.062499,40.9732137 295,40.8214295 295,40.6428571 L295,37.8571429 L289.857143,37.8571429 L289.857143,48.1428571 L298.428571,48.1428571 Z" id="-copy-14" fill="#B2B2B2"></path>
                <path d="M49.794,0.662 L51.166,0.662 L54.82,10 L53.322,10 L52.356,7.396 L48.52,7.396 L47.554,10 L46.14,10 L49.794,0.662 Z M51.95,6.262 L50.438,2.16 L48.912,6.262 L51.95,6.262 Z M61.498,9.104 C61.2086652,9.4306683 60.8516688,9.69433233 60.427,9.895 C60.0023312,10.0956677 59.5100028,10.196 58.95,10.196 C58.4273307,10.196 57.9536688,10.1096675 57.529,9.937 C57.1043312,9.76433247 56.7450015,9.52633485 56.451,9.223 C56.1569985,8.91966515 55.9306675,8.55566879 55.772,8.131 C55.6133325,7.70633121 55.534,7.24200252 55.534,6.738 C55.534,6.26199762 55.6179992,5.8140021 55.786,5.394 C55.9540008,4.9739979 56.1896651,4.60766823 56.493,4.295 C56.7963348,3.98233177 57.1556646,3.73500091 57.571,3.553 C57.9863354,3.37099909 58.4459975,3.28 58.95,3.28 C59.5006694,3.28 59.9859979,3.37799902 60.406,3.574 C60.8260021,3.77000098 61.1853318,4.03599832 61.484,4.372 L60.658,5.17 C60.461999,4.92733212 60.2240014,4.7360007 59.944,4.596 C59.6639986,4.4559993 59.3326686,4.386 58.95,4.386 C58.6139983,4.386 58.3130013,4.44899937 58.047,4.575 C57.7809987,4.70100063 57.5570009,4.87366557 57.375,5.093 C57.1929991,5.31233443 57.0530005,5.56433191 56.955,5.849 C56.8569995,6.13366809 56.808,6.42999846 56.808,6.738 C56.808,7.03666816 56.8569995,7.32833191 56.955,7.613 C57.0530005,7.89766809 57.1929991,8.14966557 57.375,8.369 C57.5570009,8.58833443 57.7809987,8.76333268 58.047,8.894 C58.3130013,9.02466732 58.6139983,9.09 58.95,9.09 C59.3326686,9.09 59.6756651,9.01766739 59.979,8.873 C60.2823348,8.72833261 60.531999,8.53466788 60.728,8.292 L61.498,9.104 Z M63.304,4.54 L62.128,4.54 L62.128,3.49 L63.304,3.49 L63.304,1.362 L64.564,1.362 L64.564,3.49 L66.468,3.49 L66.468,4.54 L64.564,4.54 L64.564,7.746 C64.564,8.26866928 64.6456658,8.62799902 64.809,8.824 C64.9723341,9.02000098 65.2033318,9.118 65.502,9.118 C65.7446679,9.118 65.9453325,9.08066704 66.104,9.006 C66.2626675,8.93133296 66.4213325,8.81933408 66.58,8.67 L67.154,9.44 C66.883332,9.70133464 66.6056681,9.89033275 66.321,10.007 C66.0363319,10.1236673 65.698002,10.182 65.306,10.182 C64.6153299,10.182 64.1090016,9.9953352 63.787,9.622 C63.4649984,9.2486648 63.304,8.6653373 63.304,7.872 L63.304,4.54 Z M68.092,0.914 L69.506,0.914 L69.506,2.328 L68.092,2.328 L68.092,0.914 Z M68.176,3.49 L69.436,3.49 L69.436,10 L68.176,10 L68.176,3.49 Z M70.164,3.49 L71.606,3.49 L73.636,8.572 L75.652,3.49 L77.01,3.49 L74.224,10 L72.964,10 L70.164,3.49 Z M83.632,9.048 C83.557333,9.13200042 83.4453341,9.23933268 83.296,9.37 C83.1466659,9.50066732 82.9530012,9.62666606 82.715,9.748 C82.4769988,9.86933394 82.1970016,9.97433289 81.875,10.063 C81.5529984,10.1516671 81.1866687,10.196 80.776,10.196 C80.2719975,10.196 79.8100021,10.1120008 79.39,9.944 C78.9699979,9.77599916 78.6106682,9.53800154 78.312,9.23 C78.0133318,8.92199846 77.7823341,8.55333548 77.619,8.124 C77.4556658,7.69466452 77.374,7.21866928 77.374,6.696 C77.374,6.21999762 77.4533325,5.77433541 77.612,5.359 C77.7706675,4.94366459 77.9946652,4.58433485 78.284,4.281 C78.5733348,3.97766515 78.9163313,3.73733422 79.313,3.56 C79.7096686,3.38266578 80.1459976,3.294 80.622,3.294 C81.1820028,3.294 81.6626647,3.40133226 82.064,3.616 C82.4653353,3.83066774 82.794332,4.11533156 83.051,4.47 C83.3076679,4.82466844 83.4966661,5.23066438 83.618,5.688 C83.7393339,6.14533562 83.8,6.62133086 83.8,7.116 L78.662,7.116 C78.6713334,7.40533478 78.7343327,7.67133212 78.851,7.914 C78.9676672,8.15666788 79.123999,8.36666578 79.32,8.544 C79.516001,8.72133422 79.7399987,8.86133282 79.992,8.964 C80.2440013,9.06666718 80.5099986,9.118 80.79,9.118 C81.3406694,9.118 81.7933316,9.0246676 82.148,8.838 C82.5026684,8.6513324 82.7593325,8.46933422 82.918,8.292 L83.632,9.048 Z M82.498,6.178 C82.4606665,5.67399748 82.2833349,5.24466844 81.966,4.89 C81.6486651,4.53533156 81.2006696,4.358 80.622,4.358 C80.3233318,4.358 80.0550012,4.40933282 79.817,4.512 C79.5789988,4.61466718 79.3760008,4.74999916 79.208,4.918 C79.0399992,5.08600084 78.9093338,5.27966557 78.816,5.499 C78.7226662,5.71833443 78.6713334,5.9446655 78.662,6.178 L82.498,6.178 Z" id="Active-Copy" fill="#9B9B9B"></path>
                <path d="M181.064,0.662 L182.408,0.662 L182.408,10 L181.064,10 L181.064,0.662 Z M184.34,10 L184.34,4.162 C184.34,3.94733226 184.335333,3.7233345 184.326,3.49 L185.53,3.49 L185.572,4.47 C185.656,4.35799944 185.758666,4.23433401 185.88,4.099 C186.001334,3.96366599 186.150666,3.84000056 186.328,3.728 C186.505334,3.61599944 186.712999,3.52266704 186.951,3.448 C187.189001,3.37333296 187.457332,3.336 187.756,3.336 C188.605338,3.336 189.235331,3.58333086 189.646,4.078 C190.056669,4.57266914 190.262,5.24466242 190.262,6.094 L190.262,10 L189.002,10 L189.002,6.192 C189.002,5.5853303 188.871335,5.13966809 188.61,4.855 C188.348665,4.57033191 187.980002,4.428 187.504,4.428 C187.139998,4.428 186.836668,4.50266592 186.594,4.652 C186.351332,4.80133408 186.157667,4.99499881 186.013,5.233 C185.868333,5.47100119 185.763334,5.74166515 185.698,6.045 C185.632666,6.34833485 185.6,6.65866508 185.6,6.976 L185.6,10 L184.34,10 Z M196.03,9.216 C195.787332,9.5426683 195.467669,9.78533254 195.071,9.944 C194.674331,10.1026675 194.266002,10.182 193.846,10.182 C193.575332,10.182 193.307001,10.1470004 193.041,10.077 C192.774999,10.0069997 192.532334,9.89033415 192.313,9.727 C192.093666,9.56366585 191.916334,9.35366795 191.781,9.097 C191.645666,8.84033205 191.578,8.5253352 191.578,8.152 C191.578,7.4519965 191.822998,6.8920021 192.313,6.472 C192.803002,6.0519979 193.509995,5.842 194.434,5.842 C194.583334,5.842 194.741999,5.84666662 194.91,5.856 C195.078001,5.86533338 195.236666,5.87466662 195.386,5.884 C195.535334,5.89333338 195.665999,5.90266662 195.778,5.912 C195.890001,5.92133338 195.969333,5.93066662 196.016,5.94 L196.016,5.702 C196.016,5.21666424 195.869001,4.86900105 195.575,4.659 C195.280999,4.44899895 194.882003,4.344 194.378,4.344 C193.883331,4.344 193.491335,4.41166599 193.202,4.547 C192.912665,4.68233401 192.670001,4.8199993 192.474,4.96 L191.886,4.106 C191.998001,4.0126662 192.133333,3.9193338 192.292,3.826 C192.450667,3.7326662 192.637332,3.64633373 192.852,3.567 C193.066668,3.48766627 193.309332,3.42233359 193.58,3.371 C193.850668,3.31966641 194.163332,3.294 194.518,3.294 C195.358004,3.294 196.018331,3.49699797 196.499,3.903 C196.979669,4.30900203 197.22,4.8853296 197.22,5.632 L197.22,9.426 C197.22,9.65000112 197.224667,9.84133254 197.234,10 L196.058,10 L196.03,9.216 Z M196.016,6.92 C195.978666,6.91066662 195.906334,6.89900007 195.799,6.885 C195.691666,6.87099993 195.568001,6.85933338 195.428,6.85 C195.287999,6.84066662 195.138667,6.83133338 194.98,6.822 C194.821333,6.81266662 194.667334,6.808 194.518,6.808 C194.163332,6.808 193.876334,6.84999958 193.657,6.934 C193.437666,7.01800042 193.265001,7.12299937 193.139,7.249 C193.012999,7.37500063 192.926667,7.51499923 192.88,7.669 C192.833333,7.82300077 192.81,7.9699993 192.81,8.11 C192.81,8.46466844 192.931332,8.73299909 193.174,8.915 C193.416668,9.09700091 193.752665,9.188 194.182,9.188 C194.424668,9.188 194.655666,9.14600042 194.875,9.062 C195.094334,8.97799958 195.287999,8.8660007 195.456,8.726 C195.624001,8.5859993 195.759333,8.4226676 195.862,8.236 C195.964667,8.0493324 196.016,7.85800098 196.016,7.662 L196.016,6.92 Z M204.598,9.104 C204.308665,9.4306683 203.951669,9.69433233 203.527,9.895 C203.102331,10.0956677 202.610003,10.196 202.05,10.196 C201.527331,10.196 201.053669,10.1096675 200.629,9.937 C200.204331,9.76433247 199.845001,9.52633485 199.551,9.223 C199.256999,8.91966515 199.030667,8.55566879 198.872,8.131 C198.713333,7.70633121 198.634,7.24200252 198.634,6.738 C198.634,6.26199762 198.717999,5.8140021 198.886,5.394 C199.054001,4.9739979 199.289665,4.60766823 199.593,4.295 C199.896335,3.98233177 200.255665,3.73500091 200.671,3.553 C201.086335,3.37099909 201.545997,3.28 202.05,3.28 C202.600669,3.28 203.085998,3.37799902 203.506,3.574 C203.926002,3.77000098 204.285332,4.03599832 204.584,4.372 L203.758,5.17 C203.561999,4.92733212 203.324001,4.7360007 203.044,4.596 C202.763999,4.4559993 202.432669,4.386 202.05,4.386 C201.713998,4.386 201.413001,4.44899937 201.147,4.575 C200.880999,4.70100063 200.657001,4.87366557 200.475,5.093 C200.292999,5.31233443 200.153,5.56433191 200.055,5.849 C199.957,6.13366809 199.908,6.42999846 199.908,6.738 C199.908,7.03666816 199.957,7.32833191 200.055,7.613 C200.153,7.89766809 200.292999,8.14966557 200.475,8.369 C200.657001,8.58833443 200.880999,8.76333268 201.147,8.894 C201.413001,9.02466732 201.713998,9.09 202.05,9.09 C202.432669,9.09 202.775665,9.01766739 203.079,8.873 C203.382335,8.72833261 203.631999,8.53466788 203.828,8.292 L204.598,9.104 Z M206.404,4.54 L205.228,4.54 L205.228,3.49 L206.404,3.49 L206.404,1.362 L207.664,1.362 L207.664,3.49 L209.568,3.49 L209.568,4.54 L207.664,4.54 L207.664,7.746 C207.664,8.26866928 207.745666,8.62799902 207.909,8.824 C208.072334,9.02000098 208.303332,9.118 208.602,9.118 C208.844668,9.118 209.045333,9.08066704 209.204,9.006 C209.362667,8.93133296 209.521333,8.81933408 209.68,8.67 L210.254,9.44 C209.983332,9.70133464 209.705668,9.89033275 209.421,10.007 C209.136332,10.1236673 208.798002,10.182 208.406,10.182 C207.71533,10.182 207.209002,9.9953352 206.887,9.622 C206.564998,9.2486648 206.404,8.6653373 206.404,7.872 L206.404,4.54 Z M211.192,0.914 L212.606,0.914 L212.606,2.328 L211.192,2.328 L211.192,0.914 Z M211.276,3.49 L212.536,3.49 L212.536,10 L211.276,10 L211.276,3.49 Z M213.264,3.49 L214.706,3.49 L216.736,8.572 L218.752,3.49 L220.11,3.49 L217.324,10 L216.064,10 L213.264,3.49 Z M226.732,9.048 C226.657333,9.13200042 226.545334,9.23933268 226.396,9.37 C226.246666,9.50066732 226.053001,9.62666606 225.815,9.748 C225.576999,9.86933394 225.297002,9.97433289 224.975,10.063 C224.652998,10.1516671 224.286669,10.196 223.876,10.196 C223.371997,10.196 222.910002,10.1120008 222.49,9.944 C222.069998,9.77599916 221.710668,9.53800154 221.412,9.23 C221.113332,8.92199846 220.882334,8.55333548 220.719,8.124 C220.555666,7.69466452 220.474,7.21866928 220.474,6.696 C220.474,6.21999762 220.553333,5.77433541 220.712,5.359 C220.870667,4.94366459 221.094665,4.58433485 221.384,4.281 C221.673335,3.97766515 222.016331,3.73733422 222.413,3.56 C222.809669,3.38266578 223.245998,3.294 223.722,3.294 C224.282003,3.294 224.762665,3.40133226 225.164,3.616 C225.565335,3.83066774 225.894332,4.11533156 226.151,4.47 C226.407668,4.82466844 226.596666,5.23066438 226.718,5.688 C226.839334,6.14533562 226.9,6.62133086 226.9,7.116 L221.762,7.116 C221.771333,7.40533478 221.834333,7.67133212 221.951,7.914 C222.067667,8.15666788 222.223999,8.36666578 222.42,8.544 C222.616001,8.72133422 222.839999,8.86133282 223.092,8.964 C223.344001,9.06666718 223.609999,9.118 223.89,9.118 C224.440669,9.118 224.893332,9.0246676 225.248,8.838 C225.602668,8.6513324 225.859333,8.46933422 226.018,8.292 L226.732,9.048 Z M225.598,6.178 C225.560666,5.67399748 225.383335,5.24466844 225.066,4.89 C224.748665,4.53533156 224.30067,4.358 223.722,4.358 C223.423332,4.358 223.155001,4.40933282 222.917,4.512 C222.678999,4.61466718 222.476001,4.74999916 222.308,4.918 C222.139999,5.08600084 222.009334,5.27966557 221.916,5.499 C221.822666,5.71833443 221.771333,5.9446655 221.762,6.178 L225.598,6.178 Z" id="Inactive-Copy" fill="#9B9B9B"></path>
                <path d="M324.064,0.662 L325.408,0.662 L325.408,4.568 L330.518,4.568 L330.518,0.662 L331.862,0.662 L331.862,10 L330.518,10 L330.518,5.772 L325.408,5.772 L325.408,10 L324.064,10 L324.064,0.662 Z M336.93,10.196 C336.425997,10.196 335.964002,10.1050009 335.544,9.923 C335.123998,9.74099909 334.762335,9.49133492 334.459,9.174 C334.155665,8.85666508 333.917668,8.49033541 333.745,8.075 C333.572332,7.65966459 333.486,7.21400238 333.486,6.738 C333.486,6.26199762 333.572332,5.81633541 333.745,5.401 C333.917668,4.98566459 334.155665,4.61933492 334.459,4.302 C334.762335,3.98466508 335.123998,3.73500091 335.544,3.553 C335.964002,3.37099909 336.425997,3.28 336.93,3.28 C337.424669,3.28 337.881998,3.37099909 338.302,3.553 C338.722002,3.73500091 339.085998,3.98466508 339.394,4.302 C339.702002,4.61933492 339.942332,4.98566459 340.115,5.401 C340.287668,5.81633541 340.374,6.26199762 340.374,6.738 C340.374,7.21400238 340.287668,7.65966459 340.115,8.075 C339.942332,8.49033541 339.702002,8.85666508 339.394,9.174 C339.085998,9.49133492 338.722002,9.74099909 338.302,9.923 C337.881998,10.1050009 337.424669,10.196 336.93,10.196 L336.93,10.196 Z M336.93,9.104 C337.266002,9.104 337.569332,9.03633401 337.84,8.901 C338.110668,8.76566599 338.339332,8.58833443 338.526,8.369 C338.712668,8.14966557 338.855,7.89766809 338.953,7.613 C339.051,7.32833191 339.1,7.03666816 339.1,6.738 C339.1,6.44866522 339.051,6.16166809 338.953,5.877 C338.855,5.59233191 338.710334,5.33800112 338.519,5.114 C338.327666,4.88999888 338.099001,4.71033401 337.833,4.575 C337.566999,4.43966599 337.266002,4.372 336.93,4.372 C336.593998,4.372 336.290668,4.43966599 336.02,4.575 C335.749332,4.71033401 335.520668,4.88766557 335.334,5.107 C335.147332,5.32633443 335.005,5.57833191 334.907,5.863 C334.809,6.14766809 334.76,6.43933184 334.76,6.738 C334.76,7.03666816 334.809,7.3259986 334.907,7.606 C335.005,7.8860014 335.149666,8.13799888 335.341,8.362 C335.532334,8.58600112 335.760999,8.76566599 336.027,8.901 C336.293001,9.03633401 336.593998,9.104 336.93,9.104 L336.93,9.104 Z M340.668,3.49 L342.11,3.49 L344.14,8.572 L346.156,3.49 L347.514,3.49 L344.728,10 L343.468,10 L340.668,3.49 Z M354.136,9.048 C354.061333,9.13200042 353.949334,9.23933268 353.8,9.37 C353.650666,9.50066732 353.457001,9.62666606 353.219,9.748 C352.980999,9.86933394 352.701002,9.97433289 352.379,10.063 C352.056998,10.1516671 351.690669,10.196 351.28,10.196 C350.775997,10.196 350.314002,10.1120008 349.894,9.944 C349.473998,9.77599916 349.114668,9.53800154 348.816,9.23 C348.517332,8.92199846 348.286334,8.55333548 348.123,8.124 C347.959666,7.69466452 347.878,7.21866928 347.878,6.696 C347.878,6.21999762 347.957333,5.77433541 348.116,5.359 C348.274667,4.94366459 348.498665,4.58433485 348.788,4.281 C349.077335,3.97766515 349.420331,3.73733422 349.817,3.56 C350.213669,3.38266578 350.649998,3.294 351.126,3.294 C351.686003,3.294 352.166665,3.40133226 352.568,3.616 C352.969335,3.83066774 353.298332,4.11533156 353.555,4.47 C353.811668,4.82466844 354.000666,5.23066438 354.122,5.688 C354.243334,6.14533562 354.304,6.62133086 354.304,7.116 L349.166,7.116 C349.175333,7.40533478 349.238333,7.67133212 349.355,7.914 C349.471667,8.15666788 349.627999,8.36666578 349.824,8.544 C350.020001,8.72133422 350.243999,8.86133282 350.496,8.964 C350.748001,9.06666718 351.013999,9.118 351.294,9.118 C351.844669,9.118 352.297332,9.0246676 352.652,8.838 C353.006668,8.6513324 353.263333,8.46933422 353.422,8.292 L354.136,9.048 Z M353.002,6.178 C352.964666,5.67399748 352.787335,5.24466844 352.47,4.89 C352.152665,4.53533156 351.70467,4.358 351.126,4.358 C350.827332,4.358 350.559001,4.40933282 350.321,4.512 C350.082999,4.61466718 349.880001,4.74999916 349.712,4.918 C349.543999,5.08600084 349.413334,5.27966557 349.32,5.499 C349.226666,5.71833443 349.175333,5.9446655 349.166,6.178 L353.002,6.178 Z M355.704,10 L355.704,4.12 C355.704,3.91466564 355.699333,3.70466774 355.69,3.49 L356.894,3.49 L356.936,4.54 C357.010667,4.42799944 357.108666,4.30433401 357.23,4.169 C357.351334,4.03366599 357.498332,3.91000056 357.671,3.798 C357.843668,3.68599944 358.044332,3.59033373 358.273,3.511 C358.501668,3.43166627 358.765332,3.392 359.064,3.392 C359.204001,3.392 359.332333,3.40133324 359.449,3.42 C359.565667,3.43866676 359.675333,3.46666648 359.778,3.504 L359.498,4.68 C359.329999,4.61466634 359.115335,4.582 358.854,4.582 C358.583332,4.582 358.333668,4.63333282 358.105,4.736 C357.876332,4.83866718 357.678001,4.98099909 357.51,5.163 C357.341999,5.34500091 357.209,5.55733212 357.111,5.8 C357.013,6.04266788 356.964,6.29933198 356.964,6.57 L356.964,10 L355.704,10 Z" id="Hover-Copy" fill="#9B9B9B"></path>
            </g>
        </g>
    </g>
</svg>