<?xml version="1.0" encoding="UTF-8" standalone="no"?>
<svg width="168px" height="40px" viewBox="0 0 168 40" version="1.1" xmlns="http://www.w3.org/2000/svg" xmlns:xlink="http://www.w3.org/1999/xlink">
    <!-- Generator: Sketch 40.2 (33826) - http://www.bohemiancoding.com/sketch -->
    <title>tlbr-4</title>
    <desc>Created with Sketch.</desc>
    <defs></defs>
    <g id="Components" stroke="none" stroke-width="1" fill="none" fill-rule="evenodd">
        <g id="Buttons" transform="translate(-325.000000, -1804.000000)">
            <g id="tlbr-4" transform="translate(325.000000, 1804.000000)">
                <rect id="Rectangle-19-Copy" fill="#333333" x="0" y="0" width="168" height="40"></rect>
                <rect id="Rectangle-20-Copy" fill="#262626" x="0" y="0" width="56" height="40"></rect>
                <rect id="Rectangle-19-Copy-6" fill="#474747" x="112" y="0" width="56" height="40"></rect>
                <path d="M10.8833008,25.5751953 L12.6982422,25.5751953 C13.5507855,25.5751953 14.1674786,25.7026354 14.5483398,25.9575195 C14.9292011,26.2124036 15.1196289,26.6152316 15.1196289,27.1660156 C15.1196289,27.5468769 15.0134288,27.8610827 14.8010254,28.1086426 C14.588622,28.3562024 14.2788106,28.5166012 13.871582,28.5898438 L13.871582,28.6337891 C14.8471728,28.8007821 15.3349609,29.3134723 15.3349609,30.171875 C15.3349609,30.7460966 15.1408711,31.1943343 14.7526855,31.5166016 C14.3645,31.8388688 13.8217808,32 13.1245117,32 L10.8833008,32 L10.8833008,25.5751953 Z M11.6303711,28.3261719 L12.8608398,28.3261719 C13.3881862,28.3261719 13.767577,28.243409 13.9990234,28.0778809 C14.2304699,27.9123527 14.3461914,27.6333027 14.3461914,27.2407227 C14.3461914,26.8803693 14.2172864,26.6203621 13.9594727,26.4606934 C13.7016589,26.3010246 13.2915067,26.2211914 12.7290039,26.2211914 L11.6303711,26.2211914 L11.6303711,28.3261719 Z M11.6303711,28.9589844 L11.6303711,31.362793 L12.9707031,31.362793 C13.4892604,31.362793 13.8796374,31.2624522 14.1418457,31.0617676 C14.404054,30.861083 14.5351562,30.5468771 14.5351562,30.1191406 C14.5351562,29.7207011 14.4011244,29.4277353 14.1330566,29.2402344 C13.8649889,29.0527334 13.457034,28.9589844 12.9091797,28.9589844 L11.6303711,28.9589844 Z M17.2905273,27.1835938 L17.2905273,30.3081055 C17.2905273,30.7006856 17.3798819,30.9936514 17.5585938,31.1870117 C17.7373056,31.3803721 18.0170879,31.4770508 18.3979492,31.4770508 C18.901858,31.4770508 19.2702625,31.3393568 19.5031738,31.0639648 C19.7360851,30.7885728 19.8525391,30.3388703 19.8525391,29.7148438 L19.8525391,27.1835938 L20.5820312,27.1835938 L20.5820312,32 L19.9799805,32 L19.8745117,31.3540039 L19.8349609,31.3540039 C19.6855461,31.5913098 19.4782728,31.7729486 19.2131348,31.8989258 C18.9479967,32.024903 18.6455095,32.0878906 18.3056641,32.0878906 C17.7197236,32.0878906 17.2810073,31.9487319 16.989502,31.6704102 C16.6979966,31.3920885 16.5522461,30.9467804 16.5522461,30.3344727 L16.5522461,27.1835938 L17.2905273,27.1835938 Z M23.6845703,31.4858398 C23.8134772,31.4858398 23.9379877,31.4763185 24.0581055,31.4572754 C24.1782233,31.4382323 24.2734371,31.4184571 24.34375,31.3979492 L24.34375,31.9560547 C24.264648,31.9941408 24.1481941,32.0256346 23.9943848,32.0505371 C23.8405754,32.0754396 23.7021491,32.0878906 23.5791016,32.0878906 C22.6474563,32.0878906 22.1816406,31.5971729 22.1816406,30.6157227 L22.1816406,27.7504883 L21.4916992,27.7504883 L21.4916992,27.3989258 L22.1816406,27.0957031 L22.4892578,26.0673828 L22.9111328,26.0673828 L22.9111328,27.1835938 L24.3085938,27.1835938 L24.3085938,27.7504883 L22.9111328,27.7504883 L22.9111328,30.5849609 C22.9111328,30.8750015 22.9799798,31.0976555 23.1176758,31.2529297 C23.2553718,31.4082039 23.4443347,31.4858398 23.6845703,31.4858398 L23.6845703,31.4858398 Z M26.8618164,31.4858398 C26.9907233,31.4858398 27.1152338,31.4763185 27.2353516,31.4572754 C27.3554694,31.4382323 27.4506832,31.4184571 27.5209961,31.3979492 L27.5209961,31.9560547 C27.4418941,31.9941408 27.3254402,32.0256346 27.1716309,32.0505371 C27.0178215,32.0754396 26.8793951,32.0878906 26.7563477,32.0878906 C25.8247024,32.0878906 25.3588867,31.5971729 25.3588867,30.6157227 L25.3588867,27.7504883 L24.6689453,27.7504883 L24.6689453,27.3989258 L25.3588867,27.0957031 L25.6665039,26.0673828 L26.0883789,26.0673828 L26.0883789,27.1835938 L27.4858398,27.1835938 L27.4858398,27.7504883 L26.0883789,27.7504883 L26.0883789,30.5849609 C26.0883789,30.8750015 26.1572259,31.0976555 26.2949219,31.2529297 C26.4326179,31.4082039 26.6215808,31.4858398 26.8618164,31.4858398 L26.8618164,31.4858398 Z M32.640625,29.5874023 C32.640625,30.3725625 32.4428731,30.9855935 32.0473633,31.4265137 C31.6518535,31.8674338 31.1054722,32.0878906 30.4082031,32.0878906 C29.9775369,32.0878906 29.5952165,31.9868174 29.2612305,31.784668 C28.9272444,31.5825185 28.6694345,31.2924824 28.487793,30.9145508 C28.3061514,30.5366192 28.215332,30.0942408 28.215332,29.5874023 C28.215332,28.8022422 28.4116191,28.190676 28.8041992,27.7526855 C29.1967793,27.3146951 29.7416957,27.0957031 30.4389648,27.0957031 C31.1127963,27.0957031 31.6481914,27.319822 32.045166,27.7680664 C32.4421407,28.2163108 32.640625,28.8227501 32.640625,29.5874023 L32.640625,29.5874023 Z M28.9711914,29.5874023 C28.9711914,30.2026398 29.0942371,30.6713851 29.340332,30.9936523 C29.586427,31.3159196 29.9482398,31.4770508 30.4257812,31.4770508 C30.9033227,31.4770508 31.2658679,31.316652 31.5134277,30.9958496 C31.7609876,30.6750472 31.8847656,30.2055695 31.8847656,29.5874023 C31.8847656,28.9750946 31.7609876,28.5100114 31.5134277,28.1921387 C31.2658679,27.874266 30.900393,27.715332 30.4169922,27.715332 C29.9394507,27.715332 29.5791028,27.8720687 29.3359375,28.1855469 C29.0927722,28.499025 28.9711914,28.9663055 28.9711914,29.5874023 L28.9711914,29.5874023 Z M37.215332,32 L37.215332,28.8842773 C37.215332,28.4916973 37.1259775,28.1987314 36.9472656,28.0053711 C36.7685538,27.8120108 36.4887714,27.715332 36.1079102,27.715332 C35.6040014,27.715332 35.2348645,27.8515611 35.0004883,28.1240234 C34.7661121,28.3964857 34.6489258,28.8461883 34.6489258,29.4731445 L34.6489258,32 L33.9194336,32 L33.9194336,27.1835938 L34.5126953,27.1835938 L34.6313477,27.8427734 L34.6665039,27.8427734 C34.8159187,27.6054676 35.0253893,27.4216315 35.2949219,27.2912598 C35.5644545,27.160888 35.8647444,27.0957031 36.1958008,27.0957031 C36.7758818,27.0957031 37.2124009,27.2355943 37.5053711,27.5153809 C37.7983413,27.7951674 37.9448242,28.2426727 37.9448242,28.8579102 L37.9448242,32 L37.215332,32 Z M44.1499023,32 L43.4379883,32 L43.4379883,27.4208984 C43.4379883,27.0400372 43.4497069,26.6796892 43.4731445,26.3398438 C43.4116208,26.4013675 43.3427738,26.46582 43.2666016,26.5332031 C43.1904293,26.6005863 42.8418,26.8862279 42.2207031,27.3901367 L41.8339844,26.8891602 L43.534668,25.5751953 L44.1499023,25.5751953 L44.1499023,32 Z" id="Button-1-Copy" fill="#B2B2B2"></path>
                <path d="M30.8303571,10.5446429 C30.9553578,10.6696435 31.0624996,10.8392846 31.1517857,11.0535714 C31.2410719,11.2678582 31.2857143,11.4642848 31.2857143,11.6428571 L31.2857143,19.3571429 C31.2857143,19.5357152 31.2232149,19.6874994 31.0982143,19.8125 C30.9732137,19.9375006 30.8214295,20 30.6428571,20 L21.6428571,20 C21.4642848,20 21.3125006,19.9375006 21.1875,19.8125 C21.0624994,19.6874994 21,19.5357152 21,19.3571429 L21,8.64285714 C21,8.46428482 21.0624994,8.31250062 21.1875,8.1875 C21.3125006,8.06249938 21.4642848,8 21.6428571,8 L27.6428571,8 C27.8214295,8 28.0178561,8.04464241 28.2321429,8.13392857 C28.4464296,8.22321473 28.6160708,8.33035652 28.7410714,8.45535714 L30.8303571,10.5446429 Z M27.8571429,8.91071429 L27.8571429,11.4285714 L30.375,11.4285714 C30.3303569,11.2991065 30.2812503,11.2075896 30.2276786,11.1540179 L28.1316964,9.05803571 C28.0781247,9.00446402 27.9866078,8.95535737 27.8571429,8.91071429 L27.8571429,8.91071429 Z M30.4285714,19.1428571 L30.4285714,12.2857143 L27.6428571,12.2857143 C27.4642848,12.2857143 27.3125006,12.2232149 27.1875,12.0982143 C27.0624994,11.9732137 27,11.8214295 27,11.6428571 L27,8.85714286 L21.8571429,8.85714286 L21.8571429,19.1428571 L30.4285714,19.1428571 Z" id="-copy-9" fill="#B2B2B2"></path>
                <path d="M66.8833008,25.5751953 L68.6982422,25.5751953 C69.5507855,25.5751953 70.1674786,25.7026354 70.5483398,25.9575195 C70.9292011,26.2124036 71.1196289,26.6152316 71.1196289,27.1660156 C71.1196289,27.5468769 71.0134288,27.8610827 70.8010254,28.1086426 C70.588622,28.3562024 70.2788106,28.5166012 69.871582,28.5898438 L69.871582,28.6337891 C70.8471728,28.8007821 71.3349609,29.3134723 71.3349609,30.171875 C71.3349609,30.7460966 71.1408711,31.1943343 70.7526855,31.5166016 C70.3645,31.8388688 69.8217808,32 69.1245117,32 L66.8833008,32 L66.8833008,25.5751953 Z M67.6303711,28.3261719 L68.8608398,28.3261719 C69.3881862,28.3261719 69.767577,28.243409 69.9990234,28.0778809 C70.2304699,27.9123527 70.3461914,27.6333027 70.3461914,27.2407227 C70.3461914,26.8803693 70.2172864,26.6203621 69.9594727,26.4606934 C69.7016589,26.3010246 69.2915067,26.2211914 68.7290039,26.2211914 L67.6303711,26.2211914 L67.6303711,28.3261719 Z M67.6303711,28.9589844 L67.6303711,31.362793 L68.9707031,31.362793 C69.4892604,31.362793 69.8796374,31.2624522 70.1418457,31.0617676 C70.404054,30.861083 70.5351562,30.5468771 70.5351562,30.1191406 C70.5351562,29.7207011 70.4011244,29.4277353 70.1330566,29.2402344 C69.8649889,29.0527334 69.457034,28.9589844 68.9091797,28.9589844 L67.6303711,28.9589844 Z M73.2905273,27.1835938 L73.2905273,30.3081055 C73.2905273,30.7006856 73.3798819,30.9936514 73.5585938,31.1870117 C73.7373056,31.3803721 74.0170879,31.4770508 74.3979492,31.4770508 C74.901858,31.4770508 75.2702625,31.3393568 75.5031738,31.0639648 C75.7360851,30.7885728 75.8525391,30.3388703 75.8525391,29.7148438 L75.8525391,27.1835938 L76.5820312,27.1835938 L76.5820312,32 L75.9799805,32 L75.8745117,31.3540039 L75.8349609,31.3540039 C75.6855461,31.5913098 75.4782728,31.7729486 75.2131348,31.8989258 C74.9479967,32.024903 74.6455095,32.0878906 74.3056641,32.0878906 C73.7197236,32.0878906 73.2810073,31.9487319 72.989502,31.6704102 C72.6979966,31.3920885 72.5522461,30.9467804 72.5522461,30.3344727 L72.5522461,27.1835938 L73.2905273,27.1835938 Z M79.6845703,31.4858398 C79.8134772,31.4858398 79.9379877,31.4763185 80.0581055,31.4572754 C80.1782233,31.4382323 80.2734371,31.4184571 80.34375,31.3979492 L80.34375,31.9560547 C80.264648,31.9941408 80.1481941,32.0256346 79.9943848,32.0505371 C79.8405754,32.0754396 79.7021491,32.0878906 79.5791016,32.0878906 C78.6474563,32.0878906 78.1816406,31.5971729 78.1816406,30.6157227 L78.1816406,27.7504883 L77.4916992,27.7504883 L77.4916992,27.3989258 L78.1816406,27.0957031 L78.4892578,26.0673828 L78.9111328,26.0673828 L78.9111328,27.1835938 L80.3085938,27.1835938 L80.3085938,27.7504883 L78.9111328,27.7504883 L78.9111328,30.5849609 C78.9111328,30.8750015 78.9799798,31.0976555 79.1176758,31.2529297 C79.2553718,31.4082039 79.4443347,31.4858398 79.6845703,31.4858398 L79.6845703,31.4858398 Z M82.8618164,31.4858398 C82.9907233,31.4858398 83.1152338,31.4763185 83.2353516,31.4572754 C83.3554694,31.4382323 83.4506832,31.4184571 83.5209961,31.3979492 L83.5209961,31.9560547 C83.4418941,31.9941408 83.3254402,32.0256346 83.1716309,32.0505371 C83.0178215,32.0754396 82.8793951,32.0878906 82.7563477,32.0878906 C81.8247024,32.0878906 81.3588867,31.5971729 81.3588867,30.6157227 L81.3588867,27.7504883 L80.6689453,27.7504883 L80.6689453,27.3989258 L81.3588867,27.0957031 L81.6665039,26.0673828 L82.0883789,26.0673828 L82.0883789,27.1835938 L83.4858398,27.1835938 L83.4858398,27.7504883 L82.0883789,27.7504883 L82.0883789,30.5849609 C82.0883789,30.8750015 82.1572259,31.0976555 82.2949219,31.2529297 C82.4326179,31.4082039 82.6215808,31.4858398 82.8618164,31.4858398 L82.8618164,31.4858398 Z M88.640625,29.5874023 C88.640625,30.3725625 88.4428731,30.9855935 88.0473633,31.4265137 C87.6518535,31.8674338 87.1054722,32.0878906 86.4082031,32.0878906 C85.9775369,32.0878906 85.5952165,31.9868174 85.2612305,31.784668 C84.9272444,31.5825185 84.6694345,31.2924824 84.487793,30.9145508 C84.3061514,30.5366192 84.215332,30.0942408 84.215332,29.5874023 C84.215332,28.8022422 84.4116191,28.190676 84.8041992,27.7526855 C85.1967793,27.3146951 85.7416957,27.0957031 86.4389648,27.0957031 C87.1127963,27.0957031 87.6481914,27.319822 88.045166,27.7680664 C88.4421407,28.2163108 88.640625,28.8227501 88.640625,29.5874023 L88.640625,29.5874023 Z M84.9711914,29.5874023 C84.9711914,30.2026398 85.0942371,30.6713851 85.340332,30.9936523 C85.586427,31.3159196 85.9482398,31.4770508 86.4257812,31.4770508 C86.9033227,31.4770508 87.2658679,31.316652 87.5134277,30.9958496 C87.7609876,30.6750472 87.8847656,30.2055695 87.8847656,29.5874023 C87.8847656,28.9750946 87.7609876,28.5100114 87.5134277,28.1921387 C87.2658679,27.874266 86.900393,27.715332 86.4169922,27.715332 C85.9394507,27.715332 85.5791028,27.8720687 85.3359375,28.1855469 C85.0927722,28.499025 84.9711914,28.9663055 84.9711914,29.5874023 L84.9711914,29.5874023 Z M93.215332,32 L93.215332,28.8842773 C93.215332,28.4916973 93.1259775,28.1987314 92.9472656,28.0053711 C92.7685538,27.8120108 92.4887714,27.715332 92.1079102,27.715332 C91.6040014,27.715332 91.2348645,27.8515611 91.0004883,28.1240234 C90.7661121,28.3964857 90.6489258,28.8461883 90.6489258,29.4731445 L90.6489258,32 L89.9194336,32 L89.9194336,27.1835938 L90.5126953,27.1835938 L90.6313477,27.8427734 L90.6665039,27.8427734 C90.8159187,27.6054676 91.0253893,27.4216315 91.2949219,27.2912598 C91.5644545,27.160888 91.8647444,27.0957031 92.1958008,27.0957031 C92.7758818,27.0957031 93.2124009,27.2355943 93.5053711,27.5153809 C93.7983413,27.7951674 93.9448242,28.2426727 93.9448242,28.8579102 L93.9448242,32 L93.215332,32 Z M101.67041,32 L97.4472656,32 L97.4472656,31.371582 L99.1391602,29.6708984 C99.6547877,29.1494115 99.9946281,28.7773449 100.158691,28.5546875 C100.322755,28.3320301 100.4458,28.1152354 100.527832,27.9042969 C100.609864,27.6933583 100.650879,27.4663098 100.650879,27.2231445 C100.650879,26.8803694 100.546876,26.6086436 100.338867,26.407959 C100.130858,26.2072744 99.842287,26.1069336 99.4731445,26.1069336 C99.2065416,26.1069336 98.9538586,26.1508785 98.7150879,26.2387695 C98.4763172,26.3266606 98.2104507,26.486327 97.9174805,26.7177734 L97.5307617,26.2211914 C98.1225616,25.7290014 98.7670864,25.4829102 99.4643555,25.4829102 C100.067874,25.4829102 100.541014,25.6374496 100.883789,25.9465332 C101.226564,26.2556168 101.397949,26.6708958 101.397949,27.1923828 C101.397949,27.5996114 101.283693,28.0024394 101.055176,28.4008789 C100.826659,28.7993184 100.398929,29.3032196 99.7719727,29.9125977 L98.3657227,31.2880859 L98.3657227,31.3232422 L101.67041,31.3232422 L101.67041,32 Z" id="Button-2" fill="#B2B2B2"></path>
                <path d="M86.8303571,10.5446429 C86.9553578,10.6696435 87.0624996,10.8392846 87.1517857,11.0535714 C87.2410719,11.2678582 87.2857143,11.4642848 87.2857143,11.6428571 L87.2857143,19.3571429 C87.2857143,19.5357152 87.2232149,19.6874994 87.0982143,19.8125 C86.9732137,19.9375006 86.8214295,20 86.6428571,20 L77.6428571,20 C77.4642848,20 77.3125006,19.9375006 77.1875,19.8125 C77.0624994,19.6874994 77,19.5357152 77,19.3571429 L77,8.64285714 C77,8.46428482 77.0624994,8.31250062 77.1875,8.1875 C77.3125006,8.06249938 77.4642848,8 77.6428571,8 L83.6428571,8 C83.8214295,8 84.0178561,8.04464241 84.2321429,8.13392857 C84.4464296,8.22321473 84.6160708,8.33035652 84.7410714,8.45535714 L86.8303571,10.5446429 Z M83.8571429,8.91071429 L83.8571429,11.4285714 L86.375,11.4285714 C86.3303569,11.2991065 86.2812503,11.2075896 86.2276786,11.1540179 L84.1316964,9.05803571 C84.0781247,9.00446402 83.9866078,8.95535737 83.8571429,8.91071429 L83.8571429,8.91071429 Z M86.4285714,19.1428571 L86.4285714,12.2857143 L83.6428571,12.2857143 C83.4642848,12.2857143 83.3125006,12.2232149 83.1875,12.0982143 C83.0624994,11.9732137 83,11.8214295 83,11.6428571 L83,8.85714286 L77.8571429,8.85714286 L77.8571429,19.1428571 L86.4285714,19.1428571 Z" id="-copy-9" fill="#B2B2B2"></path>
                <path d="M121.883301,25.5751953 L123.698242,25.5751953 C124.550786,25.5751953 125.167479,25.7026354 125.54834,25.9575195 C125.929201,26.2124036 126.119629,26.6152316 126.119629,27.1660156 C126.119629,27.5468769 126.013429,27.8610827 125.801025,28.1086426 C125.588622,28.3562024 125.278811,28.5166012 124.871582,28.5898438 L124.871582,28.6337891 C125.847173,28.8007821 126.334961,29.3134723 126.334961,30.171875 C126.334961,30.7460966 126.140871,31.1943343 125.752686,31.5166016 C125.3645,31.8388688 124.821781,32 124.124512,32 L121.883301,32 L121.883301,25.5751953 Z M122.630371,28.3261719 L123.86084,28.3261719 C124.388186,28.3261719 124.767577,28.243409 124.999023,28.0778809 C125.23047,27.9123527 125.346191,27.6333027 125.346191,27.2407227 C125.346191,26.8803693 125.217286,26.6203621 124.959473,26.4606934 C124.701659,26.3010246 124.291507,26.2211914 123.729004,26.2211914 L122.630371,26.2211914 L122.630371,28.3261719 Z M122.630371,28.9589844 L122.630371,31.362793 L123.970703,31.362793 C124.48926,31.362793 124.879637,31.2624522 125.141846,31.0617676 C125.404054,30.861083 125.535156,30.5468771 125.535156,30.1191406 C125.535156,29.7207011 125.401124,29.4277353 125.133057,29.2402344 C124.864989,29.0527334 124.457034,28.9589844 123.90918,28.9589844 L122.630371,28.9589844 Z M128.290527,27.1835938 L128.290527,30.3081055 C128.290527,30.7006856 128.379882,30.9936514 128.558594,31.1870117 C128.737306,31.3803721 129.017088,31.4770508 129.397949,31.4770508 C129.901858,31.4770508 130.270263,31.3393568 130.503174,31.0639648 C130.736085,30.7885728 130.852539,30.3388703 130.852539,29.7148438 L130.852539,27.1835938 L131.582031,27.1835938 L131.582031,32 L130.97998,32 L130.874512,31.3540039 L130.834961,31.3540039 C130.685546,31.5913098 130.478273,31.7729486 130.213135,31.8989258 C129.947997,32.024903 129.64551,32.0878906 129.305664,32.0878906 C128.719724,32.0878906 128.281007,31.9487319 127.989502,31.6704102 C127.697997,31.3920885 127.552246,30.9467804 127.552246,30.3344727 L127.552246,27.1835938 L128.290527,27.1835938 Z M134.68457,31.4858398 C134.813477,31.4858398 134.937988,31.4763185 135.058105,31.4572754 C135.178223,31.4382323 135.273437,31.4184571 135.34375,31.3979492 L135.34375,31.9560547 C135.264648,31.9941408 135.148194,32.0256346 134.994385,32.0505371 C134.840575,32.0754396 134.702149,32.0878906 134.579102,32.0878906 C133.647456,32.0878906 133.181641,31.5971729 133.181641,30.6157227 L133.181641,27.7504883 L132.491699,27.7504883 L132.491699,27.3989258 L133.181641,27.0957031 L133.489258,26.0673828 L133.911133,26.0673828 L133.911133,27.1835938 L135.308594,27.1835938 L135.308594,27.7504883 L133.911133,27.7504883 L133.911133,30.5849609 C133.911133,30.8750015 133.97998,31.0976555 134.117676,31.2529297 C134.255372,31.4082039 134.444335,31.4858398 134.68457,31.4858398 L134.68457,31.4858398 Z M137.861816,31.4858398 C137.990723,31.4858398 138.115234,31.4763185 138.235352,31.4572754 C138.355469,31.4382323 138.450683,31.4184571 138.520996,31.3979492 L138.520996,31.9560547 C138.441894,31.9941408 138.32544,32.0256346 138.171631,32.0505371 C138.017821,32.0754396 137.879395,32.0878906 137.756348,32.0878906 C136.824702,32.0878906 136.358887,31.5971729 136.358887,30.6157227 L136.358887,27.7504883 L135.668945,27.7504883 L135.668945,27.3989258 L136.358887,27.0957031 L136.666504,26.0673828 L137.088379,26.0673828 L137.088379,27.1835938 L138.48584,27.1835938 L138.48584,27.7504883 L137.088379,27.7504883 L137.088379,30.5849609 C137.088379,30.8750015 137.157226,31.0976555 137.294922,31.2529297 C137.432618,31.4082039 137.621581,31.4858398 137.861816,31.4858398 L137.861816,31.4858398 Z M143.640625,29.5874023 C143.640625,30.3725625 143.442873,30.9855935 143.047363,31.4265137 C142.651853,31.8674338 142.105472,32.0878906 141.408203,32.0878906 C140.977537,32.0878906 140.595217,31.9868174 140.26123,31.784668 C139.927244,31.5825185 139.669435,31.2924824 139.487793,30.9145508 C139.306151,30.5366192 139.215332,30.0942408 139.215332,29.5874023 C139.215332,28.8022422 139.411619,28.190676 139.804199,27.7526855 C140.196779,27.3146951 140.741696,27.0957031 141.438965,27.0957031 C142.112796,27.0957031 142.648191,27.319822 143.045166,27.7680664 C143.442141,28.2163108 143.640625,28.8227501 143.640625,29.5874023 L143.640625,29.5874023 Z M139.971191,29.5874023 C139.971191,30.2026398 140.094237,30.6713851 140.340332,30.9936523 C140.586427,31.3159196 140.94824,31.4770508 141.425781,31.4770508 C141.903323,31.4770508 142.265868,31.316652 142.513428,30.9958496 C142.760988,30.6750472 142.884766,30.2055695 142.884766,29.5874023 C142.884766,28.9750946 142.760988,28.5100114 142.513428,28.1921387 C142.265868,27.874266 141.900393,27.715332 141.416992,27.715332 C140.939451,27.715332 140.579103,27.8720687 140.335938,28.1855469 C140.092772,28.499025 139.971191,28.9663055 139.971191,29.5874023 L139.971191,29.5874023 Z M148.215332,32 L148.215332,28.8842773 C148.215332,28.4916973 148.125977,28.1987314 147.947266,28.0053711 C147.768554,27.8120108 147.488771,27.715332 147.10791,27.715332 C146.604001,27.715332 146.234864,27.8515611 146.000488,28.1240234 C145.766112,28.3964857 145.648926,28.8461883 145.648926,29.4731445 L145.648926,32 L144.919434,32 L144.919434,27.1835938 L145.512695,27.1835938 L145.631348,27.8427734 L145.666504,27.8427734 C145.815919,27.6054676 146.025389,27.4216315 146.294922,27.2912598 C146.564454,27.160888 146.864744,27.0957031 147.195801,27.0957031 C147.775882,27.0957031 148.212401,27.2355943 148.505371,27.5153809 C148.798341,27.7951674 148.944824,28.2426727 148.944824,28.8579102 L148.944824,32 L148.215332,32 Z M156.428711,27.0869141 C156.428711,27.4970724 156.313722,27.8325182 156.08374,28.0932617 C155.853759,28.3540052 155.527834,28.5283199 155.105957,28.6162109 L155.105957,28.6513672 C155.621585,28.7158206 156.003905,28.8798815 156.25293,29.1435547 C156.501954,29.4072279 156.626465,29.7529275 156.626465,30.1806641 C156.626465,30.7929718 156.414065,31.2639144 155.989258,31.5935059 C155.564451,31.9230974 154.960941,32.0878906 154.178711,32.0878906 C153.838865,32.0878906 153.527589,32.0622561 153.244873,32.0109863 C152.962157,31.9597165 152.687501,31.8696296 152.420898,31.7407227 L152.420898,31.0463867 C152.69922,31.1840827 152.995848,31.288818 153.310791,31.3605957 C153.625734,31.4323734 153.923827,31.4682617 154.205078,31.4682617 C155.315435,31.4682617 155.870605,31.0332075 155.870605,30.1630859 C155.870605,29.3837852 155.258307,28.9941406 154.033691,28.9941406 L153.400879,28.9941406 L153.400879,28.3657227 L154.04248,28.3657227 C154.54346,28.3657227 154.940428,28.2551281 155.233398,28.0339355 C155.526369,27.812743 155.672852,27.5058613 155.672852,27.1132812 C155.672852,26.7998031 155.565187,26.5537118 155.349854,26.375 C155.13452,26.1962882 154.842287,26.1069336 154.473145,26.1069336 C154.191893,26.1069336 153.926759,26.1450192 153.677734,26.2211914 C153.42871,26.2973637 153.144533,26.4379873 152.825195,26.6430664 L152.456055,26.1508789 C152.719728,25.9428701 153.02368,25.7795416 153.36792,25.6608887 C153.71216,25.5422357 154.074705,25.4829102 154.455566,25.4829102 C155.079593,25.4829102 155.564451,25.625731 155.910156,25.911377 C156.255861,26.1970229 156.428711,26.5888647 156.428711,27.0869141 L156.428711,27.0869141 Z" id="Button-3" fill="#B2B2B2"></path>
                <path d="M141.830357,10.5446429 C141.955358,10.6696435 142.0625,10.8392846 142.151786,11.0535714 C142.241072,11.2678582 142.285714,11.4642848 142.285714,11.6428571 L142.285714,19.3571429 C142.285714,19.5357152 142.223215,19.6874994 142.098214,19.8125 C141.973214,19.9375006 141.821429,20 141.642857,20 L132.642857,20 C132.464285,20 132.312501,19.9375006 132.1875,19.8125 C132.062499,19.6874994 132,19.5357152 132,19.3571429 L132,8.64285714 C132,8.46428482 132.062499,8.31250062 132.1875,8.1875 C132.312501,8.06249938 132.464285,8 132.642857,8 L138.642857,8 C138.821429,8 139.017856,8.04464241 139.232143,8.13392857 C139.44643,8.22321473 139.616071,8.33035652 139.741071,8.45535714 L141.830357,10.5446429 Z M138.857143,8.91071429 L138.857143,11.4285714 L141.375,11.4285714 C141.330357,11.2991065 141.28125,11.2075896 141.227679,11.1540179 L139.131696,9.05803571 C139.078125,9.00446402 138.986608,8.95535737 138.857143,8.91071429 L138.857143,8.91071429 Z M141.428571,19.1428571 L141.428571,12.2857143 L138.642857,12.2857143 C138.464285,12.2857143 138.312501,12.2232149 138.1875,12.0982143 C138.062499,11.9732137 138,11.8214295 138,11.6428571 L138,8.85714286 L132.857143,8.85714286 L132.857143,19.1428571 L141.428571,19.1428571 Z" id="-copy-9" fill="#B2B2B2"></path>
            </g>
        </g>
    </g>
</svg>