<?xml version="1.0" encoding="UTF-8" standalone="no"?>
<svg width="541px" height="204px" viewBox="0 0 541 204" version="1.1" xmlns="http://www.w3.org/2000/svg" xmlns:xlink="http://www.w3.org/1999/xlink">
    <!-- Generator: Sketch 40.2 (33826) - http://www.bohemiancoding.com/sketch -->
    <title>tlbr-dpdn-2</title>
    <desc>Created with Sketch.</desc>
    <defs></defs>
    <g id="Components" stroke="none" stroke-width="1" fill="none" fill-rule="evenodd">
        <g id="Buttons" transform="translate(-325.000000, -2757.000000)">
            <g id="tlbr-dpdn-2" transform="translate(325.000000, 2757.000000)">
                <rect id="Rectangle-19-Copy-4" fill="#333333" x="0" y="23" width="541" height="40"></rect>
                <rect id="Rectangle-20-Copy-2" fill="#262626" x="0" y="23" width="139" height="181"></rect>
                <rect id="Rectangle-19-Copy-5" fill="#474747" x="276" y="23" width="132" height="40"></rect>
                <path d="M43.015625,42.6347656 C43.015625,44.0488352 42.6318398,45.1298791 41.8642578,45.8779297 C41.0966758,46.6259803 39.9921947,47 38.5507812,47 L36.1777344,47 L36.1777344,38.4335938 L38.8027344,38.4335938 C40.1347723,38.4335938 41.1699182,38.8027307 41.9082031,39.5410156 C42.6464881,40.2793006 43.015625,41.3105403 43.015625,42.6347656 L43.015625,42.6347656 Z M41.9609375,42.6699219 C41.9609375,41.5527288 41.6806669,40.7109403 41.1201172,40.1445312 C40.5595675,39.5781222 39.726568,39.2949219 38.6210938,39.2949219 L37.1738281,39.2949219 L37.1738281,46.1386719 L38.3867188,46.1386719 C39.5742247,46.1386719 40.4667939,45.8466826 41.0644531,45.2626953 C41.6621124,44.678708 41.9609375,43.8144588 41.9609375,42.6699219 L41.9609375,42.6699219 Z M47.7089844,40.4609375 C47.9941421,40.4609375 48.2499989,40.4843748 48.4765625,40.53125 L48.3417969,41.4335938 C48.0761705,41.3749997 47.8417979,41.3457031 47.6386719,41.3457031 C47.119138,41.3457031 46.6748065,41.5566385 46.3056641,41.9785156 C45.9365216,42.4003927 45.7519531,42.9257781 45.7519531,43.5546875 L45.7519531,47 L44.7792969,47 L44.7792969,40.578125 L45.5820312,40.578125 L45.6933594,41.7675781 L45.7402344,41.7675781 C45.9785168,41.3496073 46.2656233,41.0273449 46.6015625,40.8007812 C46.9375017,40.5742176 47.3066386,40.4609375 47.7089844,40.4609375 L47.7089844,40.4609375 Z M54.9804688,43.7832031 C54.9804688,44.8300834 54.7167995,45.647458 54.1894531,46.2353516 C53.6621067,46.8232451 52.9335984,47.1171875 52.0039062,47.1171875 C51.4296846,47.1171875 50.9199241,46.9824232 50.4746094,46.7128906 C50.0292946,46.443358 49.6855481,46.0566431 49.4433594,45.5527344 C49.2011707,45.0488256 49.0800781,44.4589878 49.0800781,43.7832031 C49.0800781,42.7363229 49.3417943,41.9209014 49.8652344,41.3369141 C50.3886745,40.7529268 51.1152297,40.4609375 52.0449219,40.4609375 C52.9433639,40.4609375 53.6572239,40.7597626 54.1865234,41.3574219 C54.715823,41.9550811 54.9804688,42.7636668 54.9804688,43.7832031 L54.9804688,43.7832031 Z M50.0878906,43.7832031 C50.0878906,44.6035197 50.2519515,45.2285135 50.5800781,45.6582031 C50.9082048,46.0878928 51.3906218,46.3027344 52.0273438,46.3027344 C52.6640657,46.3027344 53.1474593,46.0888693 53.4775391,45.6611328 C53.8076188,45.2333963 53.9726562,44.607426 53.9726562,43.7832031 C53.9726562,42.9667928 53.8076188,42.3466818 53.4775391,41.9228516 C53.1474593,41.4990213 52.6601595,41.2871094 52.015625,41.2871094 C51.3789031,41.2871094 50.8984391,41.4960917 50.5742188,41.9140625 C50.2499984,42.3320333 50.0878906,42.955074 50.0878906,43.7832031 L50.0878906,43.7832031 Z M59.6738281,47.1171875 C59.2558573,47.1171875 58.8740252,47.0400398 58.5283203,46.8857422 C58.1826155,46.7314445 57.8925793,46.4941422 57.6582031,46.1738281 L57.5878906,46.1738281 C57.6347659,46.54883 57.6582031,46.9042952 57.6582031,47.2402344 L57.6582031,49.8828125 L56.6855469,49.8828125 L56.6855469,40.578125 L57.4765625,40.578125 L57.6113281,41.4570312 L57.6582031,41.4570312 C57.9082044,41.105467 58.1992171,40.8515633 58.53125,40.6953125 C58.8632829,40.5390617 59.2441385,40.4609375 59.6738281,40.4609375 C60.5253949,40.4609375 61.1826149,40.7519502 61.6455078,41.3339844 C62.1084008,41.9160185 62.3398438,42.7324166 62.3398438,43.7832031 C62.3398438,44.8378959 62.1044945,45.6572236 61.6337891,46.2412109 C61.1630836,46.8251982 60.5097698,47.1171875 59.6738281,47.1171875 L59.6738281,47.1171875 Z M59.5332031,41.2871094 C58.8769498,41.2871094 58.4023452,41.4687482 58.109375,41.8320312 C57.8164048,42.1953143 57.6660157,42.7734335 57.6582031,43.5664062 L57.6582031,43.7832031 C57.6582031,44.6855514 57.8085922,45.3310527 58.109375,45.7197266 C58.4101578,46.1084004 58.8925748,46.3027344 59.5566406,46.3027344 C60.1113309,46.3027344 60.5458969,46.0781272 60.8603516,45.6289062 C61.1748063,45.1796853 61.3320312,44.5605508 61.3320312,43.7714844 C61.3320312,42.9706991 61.1748063,42.3564475 60.8603516,41.9287109 C60.5458969,41.5009744 60.1035185,41.2871094 59.5332031,41.2871094 L59.5332031,41.2871094 Z M68.4101562,46.1386719 L68.3574219,46.1386719 C67.9082009,46.7910189 67.2363326,47.1171875 66.3417969,47.1171875 C65.5019489,47.1171875 64.8486351,46.830081 64.3818359,46.2558594 C63.9150367,45.6816378 63.6816406,44.8652397 63.6816406,43.8066406 C63.6816406,42.7480416 63.9160133,41.9257842 64.3847656,41.3398438 C64.853518,40.7539033 65.5058552,40.4609375 66.3417969,40.4609375 C67.212895,40.4609375 67.8808571,40.7773406 68.3457031,41.4101562 L68.421875,41.4101562 L68.3808594,40.9472656 L68.3574219,40.4960938 L68.3574219,37.8828125 L69.3300781,37.8828125 L69.3300781,47 L68.5390625,47 L68.4101562,46.1386719 Z M66.4648438,46.3027344 C67.1289096,46.3027344 67.6103501,46.1220721 67.9091797,45.7607422 C68.2080093,45.3994123 68.3574219,44.8164103 68.3574219,44.0117188 L68.3574219,43.8066406 C68.3574219,42.8964798 68.2060562,42.2470723 67.9033203,41.8583984 C67.6005844,41.4697246 67.1171908,41.2753906 66.453125,41.2753906 C65.8828096,41.2753906 65.4462906,41.4970681 65.1435547,41.9404297 C64.8408188,42.3837913 64.6894531,43.0097616 64.6894531,43.8183594 C64.6894531,44.638676 64.8398422,45.2578104 65.140625,45.6757812 C65.4414078,46.0937521 65.8828096,46.3027344 66.4648438,46.3027344 L66.4648438,46.3027344 Z M76.9355469,43.7832031 C76.9355469,44.8300834 76.6718776,45.647458 76.1445312,46.2353516 C75.6171849,46.8232451 74.8886765,47.1171875 73.9589844,47.1171875 C73.3847628,47.1171875 72.8750022,46.9824232 72.4296875,46.7128906 C71.9843728,46.443358 71.6406262,46.0566431 71.3984375,45.5527344 C71.1562488,45.0488256 71.0351562,44.4589878 71.0351562,43.7832031 C71.0351562,42.7363229 71.2968724,41.9209014 71.8203125,41.3369141 C72.3437526,40.7529268 73.0703079,40.4609375 74,40.4609375 C74.898442,40.4609375 75.612302,40.7597626 76.1416016,41.3574219 C76.6709011,41.9550811 76.9355469,42.7636668 76.9355469,43.7832031 L76.9355469,43.7832031 Z M72.0429688,43.7832031 C72.0429688,44.6035197 72.2070296,45.2285135 72.5351562,45.6582031 C72.8632829,46.0878928 73.3456999,46.3027344 73.9824219,46.3027344 C74.6191438,46.3027344 75.1025374,46.0888693 75.4326172,45.6611328 C75.762697,45.2333963 75.9277344,44.607426 75.9277344,43.7832031 C75.9277344,42.9667928 75.762697,42.3466818 75.4326172,41.9228516 C75.1025374,41.4990213 74.6152376,41.2871094 73.9707031,41.2871094 C73.3339812,41.2871094 72.8535172,41.4960917 72.5292969,41.9140625 C72.2050765,42.3320333 72.0429688,42.955074 72.0429688,43.7832031 L72.0429688,43.7832031 Z M83.6445312,47 L82.4667969,43.2324219 C82.3925778,43.001952 82.2539073,42.4785197 82.0507812,41.6621094 L82.0039062,41.6621094 C81.8476555,42.3457065 81.7109381,42.873045 81.59375,43.2441406 L80.3808594,47 L79.2558594,47 L77.5039062,40.578125 L78.5234375,40.578125 C78.9375021,42.1914143 79.2529286,43.4199177 79.4697266,44.2636719 C79.6865245,45.1074261 79.8105467,45.6757798 79.8417969,45.96875 L79.8886719,45.96875 C79.9316408,45.7460926 80.0009761,45.4580096 80.0966797,45.1044922 C80.1923833,44.7509748 80.2753903,44.4707042 80.3457031,44.2636719 L81.5234375,40.578125 L82.578125,40.578125 L83.7265625,44.2636719 C83.9453136,44.9355502 84.0937496,45.4999977 84.171875,45.9570312 L84.21875,45.9570312 C84.2343751,45.8164055 84.2763668,45.5996108 84.3447266,45.3066406 C84.4130863,45.0136704 84.8203088,43.4375143 85.5664062,40.578125 L86.5742188,40.578125 L84.7988281,47 L83.6445312,47 Z M92.1289062,47 L92.1289062,42.8457031 C92.1289062,42.322263 92.0097668,41.9316419 91.7714844,41.6738281 C91.5332019,41.4160143 91.1601588,41.2871094 90.6523438,41.2871094 C89.9804654,41.2871094 89.4882828,41.4687482 89.1757812,41.8320312 C88.8632797,42.1953143 88.7070312,42.7949177 88.7070312,43.6308594 L88.7070312,47 L87.734375,47 L87.734375,40.578125 L88.5253906,40.578125 L88.6835938,41.4570312 L88.7304688,41.4570312 C88.9296885,41.1406234 89.2089826,40.8955087 89.5683594,40.7216797 C89.9277362,40.5478507 90.3281228,40.4609375 90.7695312,40.4609375 C91.5429726,40.4609375 92.124998,40.6474591 92.515625,41.0205078 C92.906252,41.3935566 93.1015625,41.9902303 93.1015625,42.8105469 L93.1015625,47 L92.1289062,47 Z M101.375,47 L100.425781,47 L100.425781,40.8945312 C100.425781,40.3867162 100.441406,39.9062523 100.472656,39.453125 C100.390625,39.5351567 100.298829,39.6210933 100.197266,39.7109375 C100.095703,39.8007817 99.6308635,40.1816373 98.8027344,40.8535156 L98.2871094,40.1855469 L100.554688,38.4335938 L101.375,38.4335938 L101.375,47 Z" id="Dropdown-1-Copy-2" fill="#B2B2B2"></path>
                <path d="M43.6132812,75.7050781 C43.6132812,77.0761787 43.266605,78.1542929 42.5732422,78.9394531 C41.8798793,79.7246133 40.9160218,80.1171875 39.6816406,80.1171875 C38.4199156,80.1171875 37.4462925,79.7314492 36.7607422,78.9599609 C36.0751919,78.1884727 35.7324219,77.0996164 35.7324219,75.6933594 C35.7324219,74.2988212 36.0761684,73.2177773 36.7636719,72.4501953 C37.4511753,71.6826133 38.427728,71.2988281 39.6933594,71.2988281 C40.9238343,71.2988281 41.8847622,71.6894492 42.5761719,72.4707031 C43.2675816,73.251957 43.6132812,74.3300713 43.6132812,75.7050781 L43.6132812,75.7050781 Z M36.7871094,75.7050781 C36.7871094,76.8652402 37.0341772,77.7451142 37.5283203,78.3447266 C38.0224634,78.9443389 38.7402297,79.2441406 39.6816406,79.2441406 C40.6308641,79.2441406 41.3476538,78.9453155 41.8320312,78.3476562 C42.3164087,77.749997 42.5585938,76.8691464 42.5585938,75.7050781 C42.5585938,74.5527286 42.3173852,73.6787139 41.8349609,73.0830078 C41.3525367,72.4873017 40.6386766,72.1894531 39.6933594,72.1894531 C38.7441359,72.1894531 38.0224634,72.4892548 37.5283203,73.0888672 C37.0341772,73.6884796 36.7871094,74.5605412 36.7871094,75.7050781 L36.7871094,75.7050781 Z M48.3652344,80.1171875 C47.9472635,80.1171875 47.5654314,80.0400398 47.2197266,79.8857422 C46.8740217,79.7314445 46.5839855,79.4941422 46.3496094,79.1738281 L46.2792969,79.1738281 C46.3261721,79.54883 46.3496094,79.9042952 46.3496094,80.2402344 L46.3496094,82.8828125 L45.3769531,82.8828125 L45.3769531,73.578125 L46.1679688,73.578125 L46.3027344,74.4570312 L46.3496094,74.4570312 C46.5996106,74.105467 46.8906233,73.8515633 47.2226562,73.6953125 C47.5546892,73.5390617 47.9355447,73.4609375 48.3652344,73.4609375 C49.2168011,73.4609375 49.8740211,73.7519502 50.3369141,74.3339844 C50.799807,74.9160185 51.03125,75.7324166 51.03125,76.7832031 C51.03125,77.8378959 50.7959008,78.6572236 50.3251953,79.2412109 C49.8544898,79.8251982 49.2011761,80.1171875 48.3652344,80.1171875 L48.3652344,80.1171875 Z M48.2246094,74.2871094 C47.5683561,74.2871094 47.0937515,74.4687482 46.8007812,74.8320312 C46.507811,75.1953143 46.3574219,75.7734335 46.3496094,76.5664062 L46.3496094,76.7832031 C46.3496094,77.6855514 46.4999985,78.3310527 46.8007812,78.7197266 C47.101564,79.1084004 47.5839811,79.3027344 48.2480469,79.3027344 C48.8027371,79.3027344 49.2373031,79.0781272 49.5517578,78.6289062 C49.8662125,78.1796853 50.0234375,77.5605508 50.0234375,76.7714844 C50.0234375,75.9706991 49.8662125,75.3564475 49.5517578,74.9287109 C49.2373031,74.5009744 48.7949247,74.2871094 48.2246094,74.2871094 L48.2246094,74.2871094 Z M54.8046875,79.3144531 C54.9765634,79.3144531 55.1425773,79.3017579 55.3027344,79.2763672 C55.4628914,79.2509764 55.5898433,79.2246095 55.6835938,79.1972656 L55.6835938,79.9414062 C55.5781245,79.9921878 55.4228526,80.0341795 55.2177734,80.0673828 C55.0126943,80.1005861 54.8281258,80.1171875 54.6640625,80.1171875 C53.4218688,80.1171875 52.8007812,79.4628972 52.8007812,78.1542969 L52.8007812,74.3339844 L51.8808594,74.3339844 L51.8808594,73.8652344 L52.8007812,73.4609375 L53.2109375,72.0898438 L53.7734375,72.0898438 L53.7734375,73.578125 L55.6367188,73.578125 L55.6367188,74.3339844 L53.7734375,74.3339844 L53.7734375,78.1132812 C53.7734375,78.5000019 53.8652335,78.796874 54.0488281,79.0039062 C54.2324228,79.2109385 54.4843734,79.3144531 54.8046875,79.3144531 L54.8046875,79.3144531 Z M57.9394531,80 L56.9667969,80 L56.9667969,73.578125 L57.9394531,73.578125 L57.9394531,80 Z M56.8847656,71.8378906 C56.8847656,71.6152333 56.9394526,71.452149 57.0488281,71.3486328 C57.1582037,71.2451167 57.2949211,71.1933594 57.4589844,71.1933594 C57.6152352,71.1933594 57.7499994,71.2460932 57.8632812,71.3515625 C57.9765631,71.4570318 58.0332031,71.6191395 58.0332031,71.8378906 C58.0332031,72.0566417 57.9765631,72.219726 57.8632812,72.3271484 C57.7499994,72.4345708 57.6152352,72.4882812 57.4589844,72.4882812 C57.2949211,72.4882812 57.1582037,72.4345708 57.0488281,72.3271484 C56.9394526,72.219726 56.8847656,72.0566417 56.8847656,71.8378906 L56.8847656,71.8378906 Z M65.5449219,76.7832031 C65.5449219,77.8300834 65.2812526,78.647458 64.7539062,79.2353516 C64.2265599,79.8232451 63.4980515,80.1171875 62.5683594,80.1171875 C61.9941378,80.1171875 61.4843772,79.9824232 61.0390625,79.7128906 C60.5937478,79.443358 60.2500012,79.0566431 60.0078125,78.5527344 C59.7656238,78.0488256 59.6445312,77.4589878 59.6445312,76.7832031 C59.6445312,75.7363229 59.9062474,74.9209014 60.4296875,74.3369141 C60.9531276,73.7529268 61.6796829,73.4609375 62.609375,73.4609375 C63.507817,73.4609375 64.221677,73.7597626 64.7509766,74.3574219 C65.2802761,74.9550811 65.5449219,75.7636668 65.5449219,76.7832031 L65.5449219,76.7832031 Z M60.6523438,76.7832031 C60.6523438,77.6035197 60.8164046,78.2285135 61.1445312,78.6582031 C61.4726579,79.0878928 61.9550749,79.3027344 62.5917969,79.3027344 C63.2285188,79.3027344 63.7119124,79.0888693 64.0419922,78.6611328 C64.372072,78.2333963 64.5371094,77.607426 64.5371094,76.7832031 C64.5371094,75.9667928 64.372072,75.3466818 64.0419922,74.9228516 C63.7119124,74.4990213 63.2246126,74.2871094 62.5800781,74.2871094 C61.9433562,74.2871094 61.4628922,74.4960917 61.1386719,74.9140625 C60.8144515,75.3320333 60.6523438,75.955074 60.6523438,76.7832031 L60.6523438,76.7832031 Z M71.6445312,80 L71.6445312,75.8457031 C71.6445312,75.322263 71.5253918,74.9316419 71.2871094,74.6738281 C71.0488269,74.4160143 70.6757838,74.2871094 70.1679688,74.2871094 C69.4960904,74.2871094 69.0039078,74.4687482 68.6914062,74.8320312 C68.3789047,75.1953143 68.2226562,75.7949177 68.2226562,76.6308594 L68.2226562,80 L67.25,80 L67.25,73.578125 L68.0410156,73.578125 L68.1992188,74.4570312 L68.2460938,74.4570312 C68.4453135,74.1406234 68.7246076,73.8955087 69.0839844,73.7216797 C69.4433612,73.5478507 69.8437478,73.4609375 70.2851562,73.4609375 C71.0585976,73.4609375 71.640623,73.6474591 72.03125,74.0205078 C72.421877,74.3935566 72.6171875,74.9902303 72.6171875,75.8105469 L72.6171875,80 L71.6445312,80 Z M80.890625,80 L79.9414062,80 L79.9414062,73.8945312 C79.9414062,73.3867162 79.9570311,72.9062523 79.9882812,72.453125 C79.9062496,72.5351567 79.8144536,72.6210933 79.7128906,72.7109375 C79.6113276,72.8007817 79.1464885,73.1816373 78.3183594,73.8535156 L77.8027344,73.1855469 L80.0703125,71.4335938 L80.890625,71.4335938 L80.890625,80 Z" id="Option-1-Copy-2" fill="#B2B2B2"></path>
                <path d="M43.6132812,110.705078 C43.6132812,112.076179 43.266605,113.154293 42.5732422,113.939453 C41.8798793,114.724613 40.9160218,115.117188 39.6816406,115.117188 C38.4199156,115.117188 37.4462925,114.731449 36.7607422,113.959961 C36.0751919,113.188473 35.7324219,112.099616 35.7324219,110.693359 C35.7324219,109.298821 36.0761684,108.217777 36.7636719,107.450195 C37.4511753,106.682613 38.427728,106.298828 39.6933594,106.298828 C40.9238343,106.298828 41.8847622,106.689449 42.5761719,107.470703 C43.2675816,108.251957 43.6132812,109.330071 43.6132812,110.705078 L43.6132812,110.705078 Z M36.7871094,110.705078 C36.7871094,111.86524 37.0341772,112.745114 37.5283203,113.344727 C38.0224634,113.944339 38.7402297,114.244141 39.6816406,114.244141 C40.6308641,114.244141 41.3476538,113.945315 41.8320312,113.347656 C42.3164087,112.749997 42.5585938,111.869146 42.5585938,110.705078 C42.5585938,109.552729 42.3173852,108.678714 41.8349609,108.083008 C41.3525367,107.487302 40.6386766,107.189453 39.6933594,107.189453 C38.7441359,107.189453 38.0224634,107.489255 37.5283203,108.088867 C37.0341772,108.68848 36.7871094,109.560541 36.7871094,110.705078 L36.7871094,110.705078 Z M48.3652344,115.117188 C47.9472635,115.117188 47.5654314,115.04004 47.2197266,114.885742 C46.8740217,114.731445 46.5839855,114.494142 46.3496094,114.173828 L46.2792969,114.173828 C46.3261721,114.54883 46.3496094,114.904295 46.3496094,115.240234 L46.3496094,117.882812 L45.3769531,117.882812 L45.3769531,108.578125 L46.1679688,108.578125 L46.3027344,109.457031 L46.3496094,109.457031 C46.5996106,109.105467 46.8906233,108.851563 47.2226562,108.695312 C47.5546892,108.539062 47.9355447,108.460938 48.3652344,108.460938 C49.2168011,108.460938 49.8740211,108.75195 50.3369141,109.333984 C50.799807,109.916019 51.03125,110.732417 51.03125,111.783203 C51.03125,112.837896 50.7959008,113.657224 50.3251953,114.241211 C49.8544898,114.825198 49.2011761,115.117188 48.3652344,115.117188 L48.3652344,115.117188 Z M48.2246094,109.287109 C47.5683561,109.287109 47.0937515,109.468748 46.8007812,109.832031 C46.507811,110.195314 46.3574219,110.773434 46.3496094,111.566406 L46.3496094,111.783203 C46.3496094,112.685551 46.4999985,113.331053 46.8007812,113.719727 C47.101564,114.1084 47.5839811,114.302734 48.2480469,114.302734 C48.8027371,114.302734 49.2373031,114.078127 49.5517578,113.628906 C49.8662125,113.179685 50.0234375,112.560551 50.0234375,111.771484 C50.0234375,110.970699 49.8662125,110.356447 49.5517578,109.928711 C49.2373031,109.500974 48.7949247,109.287109 48.2246094,109.287109 L48.2246094,109.287109 Z M54.8046875,114.314453 C54.9765634,114.314453 55.1425773,114.301758 55.3027344,114.276367 C55.4628914,114.250976 55.5898433,114.22461 55.6835938,114.197266 L55.6835938,114.941406 C55.5781245,114.992188 55.4228526,115.03418 55.2177734,115.067383 C55.0126943,115.100586 54.8281258,115.117188 54.6640625,115.117188 C53.4218688,115.117188 52.8007812,114.462897 52.8007812,113.154297 L52.8007812,109.333984 L51.8808594,109.333984 L51.8808594,108.865234 L52.8007812,108.460938 L53.2109375,107.089844 L53.7734375,107.089844 L53.7734375,108.578125 L55.6367188,108.578125 L55.6367188,109.333984 L53.7734375,109.333984 L53.7734375,113.113281 C53.7734375,113.500002 53.8652335,113.796874 54.0488281,114.003906 C54.2324228,114.210939 54.4843734,114.314453 54.8046875,114.314453 L54.8046875,114.314453 Z M57.9394531,115 L56.9667969,115 L56.9667969,108.578125 L57.9394531,108.578125 L57.9394531,115 Z M56.8847656,106.837891 C56.8847656,106.615233 56.9394526,106.452149 57.0488281,106.348633 C57.1582037,106.245117 57.2949211,106.193359 57.4589844,106.193359 C57.6152352,106.193359 57.7499994,106.246093 57.8632812,106.351562 C57.9765631,106.457032 58.0332031,106.61914 58.0332031,106.837891 C58.0332031,107.056642 57.9765631,107.219726 57.8632812,107.327148 C57.7499994,107.434571 57.6152352,107.488281 57.4589844,107.488281 C57.2949211,107.488281 57.1582037,107.434571 57.0488281,107.327148 C56.9394526,107.219726 56.8847656,107.056642 56.8847656,106.837891 L56.8847656,106.837891 Z M65.5449219,111.783203 C65.5449219,112.830083 65.2812526,113.647458 64.7539062,114.235352 C64.2265599,114.823245 63.4980515,115.117188 62.5683594,115.117188 C61.9941378,115.117188 61.4843772,114.982423 61.0390625,114.712891 C60.5937478,114.443358 60.2500012,114.056643 60.0078125,113.552734 C59.7656238,113.048826 59.6445312,112.458988 59.6445312,111.783203 C59.6445312,110.736323 59.9062474,109.920901 60.4296875,109.336914 C60.9531276,108.752927 61.6796829,108.460938 62.609375,108.460938 C63.507817,108.460938 64.221677,108.759763 64.7509766,109.357422 C65.2802761,109.955081 65.5449219,110.763667 65.5449219,111.783203 L65.5449219,111.783203 Z M60.6523438,111.783203 C60.6523438,112.60352 60.8164046,113.228513 61.1445312,113.658203 C61.4726579,114.087893 61.9550749,114.302734 62.5917969,114.302734 C63.2285188,114.302734 63.7119124,114.088869 64.0419922,113.661133 C64.372072,113.233396 64.5371094,112.607426 64.5371094,111.783203 C64.5371094,110.966793 64.372072,110.346682 64.0419922,109.922852 C63.7119124,109.499021 63.2246126,109.287109 62.5800781,109.287109 C61.9433562,109.287109 61.4628922,109.496092 61.1386719,109.914062 C60.8144515,110.332033 60.6523438,110.955074 60.6523438,111.783203 L60.6523438,111.783203 Z M71.6445312,115 L71.6445312,110.845703 C71.6445312,110.322263 71.5253918,109.931642 71.2871094,109.673828 C71.0488269,109.416014 70.6757838,109.287109 70.1679688,109.287109 C69.4960904,109.287109 69.0039078,109.468748 68.6914062,109.832031 C68.3789047,110.195314 68.2226562,110.794918 68.2226562,111.630859 L68.2226562,115 L67.25,115 L67.25,108.578125 L68.0410156,108.578125 L68.1992188,109.457031 L68.2460938,109.457031 C68.4453135,109.140623 68.7246076,108.895509 69.0839844,108.72168 C69.4433612,108.547851 69.8437478,108.460938 70.2851562,108.460938 C71.0585976,108.460938 71.640623,108.647459 72.03125,109.020508 C72.421877,109.393557 72.6171875,109.99023 72.6171875,110.810547 L72.6171875,115 L71.6445312,115 Z M82.9179688,115 L77.2871094,115 L77.2871094,114.162109 L79.5429688,111.894531 C80.2304722,111.199215 80.6835927,110.703126 80.9023438,110.40625 C81.1210948,110.109374 81.2851557,109.820314 81.3945312,109.539062 C81.5039068,109.257811 81.5585938,108.95508 81.5585938,108.630859 C81.5585938,108.173826 81.4199233,107.811525 81.1425781,107.543945 C80.865233,107.276366 80.4804712,107.142578 79.9882812,107.142578 C79.6328107,107.142578 79.2959,107.201171 78.9775391,107.318359 C78.6591781,107.435547 78.3046895,107.648436 77.9140625,107.957031 L77.3984375,107.294922 C78.1875039,106.638669 79.0468704,106.310547 79.9765625,106.310547 C80.781254,106.310547 81.4121071,106.5166 81.8691406,106.928711 C82.3261742,107.340822 82.5546875,107.894528 82.5546875,108.589844 C82.5546875,109.132815 82.4023453,109.669919 82.0976562,110.201172 C81.7929672,110.732425 81.2226604,111.404293 80.3867188,112.216797 L78.5117188,114.050781 L78.5117188,114.097656 L82.9179688,114.097656 L82.9179688,115 Z" id="Option-2-Copy-2" fill="#B2B2B2"></path>
                <path d="M43.6132812,144.705078 C43.6132812,146.076179 43.266605,147.154293 42.5732422,147.939453 C41.8798793,148.724613 40.9160218,149.117188 39.6816406,149.117188 C38.4199156,149.117188 37.4462925,148.731449 36.7607422,147.959961 C36.0751919,147.188473 35.7324219,146.099616 35.7324219,144.693359 C35.7324219,143.298821 36.0761684,142.217777 36.7636719,141.450195 C37.4511753,140.682613 38.427728,140.298828 39.6933594,140.298828 C40.9238343,140.298828 41.8847622,140.689449 42.5761719,141.470703 C43.2675816,142.251957 43.6132812,143.330071 43.6132812,144.705078 L43.6132812,144.705078 Z M36.7871094,144.705078 C36.7871094,145.86524 37.0341772,146.745114 37.5283203,147.344727 C38.0224634,147.944339 38.7402297,148.244141 39.6816406,148.244141 C40.6308641,148.244141 41.3476538,147.945315 41.8320312,147.347656 C42.3164087,146.749997 42.5585938,145.869146 42.5585938,144.705078 C42.5585938,143.552729 42.3173852,142.678714 41.8349609,142.083008 C41.3525367,141.487302 40.6386766,141.189453 39.6933594,141.189453 C38.7441359,141.189453 38.0224634,141.489255 37.5283203,142.088867 C37.0341772,142.68848 36.7871094,143.560541 36.7871094,144.705078 L36.7871094,144.705078 Z M48.3652344,149.117188 C47.9472635,149.117188 47.5654314,149.04004 47.2197266,148.885742 C46.8740217,148.731445 46.5839855,148.494142 46.3496094,148.173828 L46.2792969,148.173828 C46.3261721,148.54883 46.3496094,148.904295 46.3496094,149.240234 L46.3496094,151.882812 L45.3769531,151.882812 L45.3769531,142.578125 L46.1679688,142.578125 L46.3027344,143.457031 L46.3496094,143.457031 C46.5996106,143.105467 46.8906233,142.851563 47.2226562,142.695312 C47.5546892,142.539062 47.9355447,142.460938 48.3652344,142.460938 C49.2168011,142.460938 49.8740211,142.75195 50.3369141,143.333984 C50.799807,143.916019 51.03125,144.732417 51.03125,145.783203 C51.03125,146.837896 50.7959008,147.657224 50.3251953,148.241211 C49.8544898,148.825198 49.2011761,149.117188 48.3652344,149.117188 L48.3652344,149.117188 Z M48.2246094,143.287109 C47.5683561,143.287109 47.0937515,143.468748 46.8007812,143.832031 C46.507811,144.195314 46.3574219,144.773434 46.3496094,145.566406 L46.3496094,145.783203 C46.3496094,146.685551 46.4999985,147.331053 46.8007812,147.719727 C47.101564,148.1084 47.5839811,148.302734 48.2480469,148.302734 C48.8027371,148.302734 49.2373031,148.078127 49.5517578,147.628906 C49.8662125,147.179685 50.0234375,146.560551 50.0234375,145.771484 C50.0234375,144.970699 49.8662125,144.356447 49.5517578,143.928711 C49.2373031,143.500974 48.7949247,143.287109 48.2246094,143.287109 L48.2246094,143.287109 Z M54.8046875,148.314453 C54.9765634,148.314453 55.1425773,148.301758 55.3027344,148.276367 C55.4628914,148.250976 55.5898433,148.22461 55.6835938,148.197266 L55.6835938,148.941406 C55.5781245,148.992188 55.4228526,149.03418 55.2177734,149.067383 C55.0126943,149.100586 54.8281258,149.117188 54.6640625,149.117188 C53.4218688,149.117188 52.8007812,148.462897 52.8007812,147.154297 L52.8007812,143.333984 L51.8808594,143.333984 L51.8808594,142.865234 L52.8007812,142.460938 L53.2109375,141.089844 L53.7734375,141.089844 L53.7734375,142.578125 L55.6367188,142.578125 L55.6367188,143.333984 L53.7734375,143.333984 L53.7734375,147.113281 C53.7734375,147.500002 53.8652335,147.796874 54.0488281,148.003906 C54.2324228,148.210939 54.4843734,148.314453 54.8046875,148.314453 L54.8046875,148.314453 Z M57.9394531,149 L56.9667969,149 L56.9667969,142.578125 L57.9394531,142.578125 L57.9394531,149 Z M56.8847656,140.837891 C56.8847656,140.615233 56.9394526,140.452149 57.0488281,140.348633 C57.1582037,140.245117 57.2949211,140.193359 57.4589844,140.193359 C57.6152352,140.193359 57.7499994,140.246093 57.8632812,140.351562 C57.9765631,140.457032 58.0332031,140.61914 58.0332031,140.837891 C58.0332031,141.056642 57.9765631,141.219726 57.8632812,141.327148 C57.7499994,141.434571 57.6152352,141.488281 57.4589844,141.488281 C57.2949211,141.488281 57.1582037,141.434571 57.0488281,141.327148 C56.9394526,141.219726 56.8847656,141.056642 56.8847656,140.837891 L56.8847656,140.837891 Z M65.5449219,145.783203 C65.5449219,146.830083 65.2812526,147.647458 64.7539062,148.235352 C64.2265599,148.823245 63.4980515,149.117188 62.5683594,149.117188 C61.9941378,149.117188 61.4843772,148.982423 61.0390625,148.712891 C60.5937478,148.443358 60.2500012,148.056643 60.0078125,147.552734 C59.7656238,147.048826 59.6445312,146.458988 59.6445312,145.783203 C59.6445312,144.736323 59.9062474,143.920901 60.4296875,143.336914 C60.9531276,142.752927 61.6796829,142.460938 62.609375,142.460938 C63.507817,142.460938 64.221677,142.759763 64.7509766,143.357422 C65.2802761,143.955081 65.5449219,144.763667 65.5449219,145.783203 L65.5449219,145.783203 Z M60.6523438,145.783203 C60.6523438,146.60352 60.8164046,147.228513 61.1445312,147.658203 C61.4726579,148.087893 61.9550749,148.302734 62.5917969,148.302734 C63.2285188,148.302734 63.7119124,148.088869 64.0419922,147.661133 C64.372072,147.233396 64.5371094,146.607426 64.5371094,145.783203 C64.5371094,144.966793 64.372072,144.346682 64.0419922,143.922852 C63.7119124,143.499021 63.2246126,143.287109 62.5800781,143.287109 C61.9433562,143.287109 61.4628922,143.496092 61.1386719,143.914062 C60.8144515,144.332033 60.6523438,144.955074 60.6523438,145.783203 L60.6523438,145.783203 Z M71.6445312,149 L71.6445312,144.845703 C71.6445312,144.322263 71.5253918,143.931642 71.2871094,143.673828 C71.0488269,143.416014 70.6757838,143.287109 70.1679688,143.287109 C69.4960904,143.287109 69.0039078,143.468748 68.6914062,143.832031 C68.3789047,144.195314 68.2226562,144.794918 68.2226562,145.630859 L68.2226562,149 L67.25,149 L67.25,142.578125 L68.0410156,142.578125 L68.1992188,143.457031 L68.2460938,143.457031 C68.4453135,143.140623 68.7246076,142.895509 69.0839844,142.72168 C69.4433612,142.547851 69.8437478,142.460938 70.2851562,142.460938 C71.0585976,142.460938 71.640623,142.647459 72.03125,143.020508 C72.421877,143.393557 72.6171875,143.99023 72.6171875,144.810547 L72.6171875,149 L71.6445312,149 Z M82.5957031,142.449219 C82.5957031,142.996096 82.4423843,143.443358 82.1357422,143.791016 C81.8291,144.138674 81.3945341,144.371093 80.8320312,144.488281 L80.8320312,144.535156 C81.5195347,144.621094 82.0292952,144.839842 82.3613281,145.191406 C82.693361,145.542971 82.859375,146.003903 82.859375,146.574219 C82.859375,147.390629 82.5761747,148.018552 82.0097656,148.458008 C81.4433565,148.897463 80.6386771,149.117188 79.5957031,149.117188 C79.1425759,149.117188 78.7275409,149.083008 78.3505859,149.014648 C77.9736309,148.946289 77.6074237,148.826173 77.2519531,148.654297 L77.2519531,147.728516 C77.6230487,147.91211 78.0185526,148.051757 78.4384766,148.147461 C78.8584005,148.243165 79.2558575,148.291016 79.6308594,148.291016 C81.1113355,148.291016 81.8515625,147.710943 81.8515625,146.550781 C81.8515625,145.511714 81.0351644,144.992188 79.4023438,144.992188 L78.5585938,144.992188 L78.5585938,144.154297 L79.4140625,144.154297 C80.0820346,144.154297 80.6113262,144.006837 81.0019531,143.711914 C81.3925801,143.416991 81.5878906,143.007815 81.5878906,142.484375 C81.5878906,142.066404 81.4443374,141.738282 81.1572266,141.5 C80.8701158,141.261718 80.4804712,141.142578 79.9882812,141.142578 C79.6132794,141.142578 79.2597673,141.193359 78.9277344,141.294922 C78.5957015,141.396485 78.216799,141.583983 77.7910156,141.857422 L77.2988281,141.201172 C77.6503924,140.923827 78.0556618,140.706055 78.5146484,140.547852 C78.9736351,140.389648 79.4570287,140.310547 79.9648438,140.310547 C80.7968792,140.310547 81.4433571,140.500975 81.9042969,140.881836 C82.3652367,141.262697 82.5957031,141.785153 82.5957031,142.449219 L82.5957031,142.449219 Z" id="Option-3-Copy-2" fill="#B2B2B2"></path>
                <path d="M43.6132812,178.705078 C43.6132812,180.076179 43.266605,181.154293 42.5732422,181.939453 C41.8798793,182.724613 40.9160218,183.117188 39.6816406,183.117188 C38.4199156,183.117188 37.4462925,182.731449 36.7607422,181.959961 C36.0751919,181.188473 35.7324219,180.099616 35.7324219,178.693359 C35.7324219,177.298821 36.0761684,176.217777 36.7636719,175.450195 C37.4511753,174.682613 38.427728,174.298828 39.6933594,174.298828 C40.9238343,174.298828 41.8847622,174.689449 42.5761719,175.470703 C43.2675816,176.251957 43.6132812,177.330071 43.6132812,178.705078 L43.6132812,178.705078 Z M36.7871094,178.705078 C36.7871094,179.86524 37.0341772,180.745114 37.5283203,181.344727 C38.0224634,181.944339 38.7402297,182.244141 39.6816406,182.244141 C40.6308641,182.244141 41.3476538,181.945315 41.8320312,181.347656 C42.3164087,180.749997 42.5585938,179.869146 42.5585938,178.705078 C42.5585938,177.552729 42.3173852,176.678714 41.8349609,176.083008 C41.3525367,175.487302 40.6386766,175.189453 39.6933594,175.189453 C38.7441359,175.189453 38.0224634,175.489255 37.5283203,176.088867 C37.0341772,176.68848 36.7871094,177.560541 36.7871094,178.705078 L36.7871094,178.705078 Z M48.3652344,183.117188 C47.9472635,183.117188 47.5654314,183.04004 47.2197266,182.885742 C46.8740217,182.731445 46.5839855,182.494142 46.3496094,182.173828 L46.2792969,182.173828 C46.3261721,182.54883 46.3496094,182.904295 46.3496094,183.240234 L46.3496094,185.882812 L45.3769531,185.882812 L45.3769531,176.578125 L46.1679688,176.578125 L46.3027344,177.457031 L46.3496094,177.457031 C46.5996106,177.105467 46.8906233,176.851563 47.2226562,176.695312 C47.5546892,176.539062 47.9355447,176.460938 48.3652344,176.460938 C49.2168011,176.460938 49.8740211,176.75195 50.3369141,177.333984 C50.799807,177.916019 51.03125,178.732417 51.03125,179.783203 C51.03125,180.837896 50.7959008,181.657224 50.3251953,182.241211 C49.8544898,182.825198 49.2011761,183.117188 48.3652344,183.117188 L48.3652344,183.117188 Z M48.2246094,177.287109 C47.5683561,177.287109 47.0937515,177.468748 46.8007812,177.832031 C46.507811,178.195314 46.3574219,178.773434 46.3496094,179.566406 L46.3496094,179.783203 C46.3496094,180.685551 46.4999985,181.331053 46.8007812,181.719727 C47.101564,182.1084 47.5839811,182.302734 48.2480469,182.302734 C48.8027371,182.302734 49.2373031,182.078127 49.5517578,181.628906 C49.8662125,181.179685 50.0234375,180.560551 50.0234375,179.771484 C50.0234375,178.970699 49.8662125,178.356447 49.5517578,177.928711 C49.2373031,177.500974 48.7949247,177.287109 48.2246094,177.287109 L48.2246094,177.287109 Z M54.8046875,182.314453 C54.9765634,182.314453 55.1425773,182.301758 55.3027344,182.276367 C55.4628914,182.250976 55.5898433,182.22461 55.6835938,182.197266 L55.6835938,182.941406 C55.5781245,182.992188 55.4228526,183.03418 55.2177734,183.067383 C55.0126943,183.100586 54.8281258,183.117188 54.6640625,183.117188 C53.4218688,183.117188 52.8007812,182.462897 52.8007812,181.154297 L52.8007812,177.333984 L51.8808594,177.333984 L51.8808594,176.865234 L52.8007812,176.460938 L53.2109375,175.089844 L53.7734375,175.089844 L53.7734375,176.578125 L55.6367188,176.578125 L55.6367188,177.333984 L53.7734375,177.333984 L53.7734375,181.113281 C53.7734375,181.500002 53.8652335,181.796874 54.0488281,182.003906 C54.2324228,182.210939 54.4843734,182.314453 54.8046875,182.314453 L54.8046875,182.314453 Z M57.9394531,183 L56.9667969,183 L56.9667969,176.578125 L57.9394531,176.578125 L57.9394531,183 Z M56.8847656,174.837891 C56.8847656,174.615233 56.9394526,174.452149 57.0488281,174.348633 C57.1582037,174.245117 57.2949211,174.193359 57.4589844,174.193359 C57.6152352,174.193359 57.7499994,174.246093 57.8632812,174.351562 C57.9765631,174.457032 58.0332031,174.61914 58.0332031,174.837891 C58.0332031,175.056642 57.9765631,175.219726 57.8632812,175.327148 C57.7499994,175.434571 57.6152352,175.488281 57.4589844,175.488281 C57.2949211,175.488281 57.1582037,175.434571 57.0488281,175.327148 C56.9394526,175.219726 56.8847656,175.056642 56.8847656,174.837891 L56.8847656,174.837891 Z M65.5449219,179.783203 C65.5449219,180.830083 65.2812526,181.647458 64.7539062,182.235352 C64.2265599,182.823245 63.4980515,183.117188 62.5683594,183.117188 C61.9941378,183.117188 61.4843772,182.982423 61.0390625,182.712891 C60.5937478,182.443358 60.2500012,182.056643 60.0078125,181.552734 C59.7656238,181.048826 59.6445312,180.458988 59.6445312,179.783203 C59.6445312,178.736323 59.9062474,177.920901 60.4296875,177.336914 C60.9531276,176.752927 61.6796829,176.460938 62.609375,176.460938 C63.507817,176.460938 64.221677,176.759763 64.7509766,177.357422 C65.2802761,177.955081 65.5449219,178.763667 65.5449219,179.783203 L65.5449219,179.783203 Z M60.6523438,179.783203 C60.6523438,180.60352 60.8164046,181.228513 61.1445312,181.658203 C61.4726579,182.087893 61.9550749,182.302734 62.5917969,182.302734 C63.2285188,182.302734 63.7119124,182.088869 64.0419922,181.661133 C64.372072,181.233396 64.5371094,180.607426 64.5371094,179.783203 C64.5371094,178.966793 64.372072,178.346682 64.0419922,177.922852 C63.7119124,177.499021 63.2246126,177.287109 62.5800781,177.287109 C61.9433562,177.287109 61.4628922,177.496092 61.1386719,177.914062 C60.8144515,178.332033 60.6523438,178.955074 60.6523438,179.783203 L60.6523438,179.783203 Z M71.6445312,183 L71.6445312,178.845703 C71.6445312,178.322263 71.5253918,177.931642 71.2871094,177.673828 C71.0488269,177.416014 70.6757838,177.287109 70.1679688,177.287109 C69.4960904,177.287109 69.0039078,177.468748 68.6914062,177.832031 C68.3789047,178.195314 68.2226562,178.794918 68.2226562,179.630859 L68.2226562,183 L67.25,183 L67.25,176.578125 L68.0410156,176.578125 L68.1992188,177.457031 L68.2460938,177.457031 C68.4453135,177.140623 68.7246076,176.895509 69.0839844,176.72168 C69.4433612,176.547851 69.8437478,176.460938 70.2851562,176.460938 C71.0585976,176.460938 71.640623,176.647459 72.03125,177.020508 C72.421877,177.393557 72.6171875,177.99023 72.6171875,178.810547 L72.6171875,183 L71.6445312,183 Z M83.3222656,181.03125 L82.0507812,181.03125 L82.0507812,183 L81.1191406,183 L81.1191406,181.03125 L76.953125,181.03125 L76.953125,180.181641 L81.0195312,174.386719 L82.0507812,174.386719 L82.0507812,180.146484 L83.3222656,180.146484 L83.3222656,181.03125 Z M81.1191406,180.146484 L81.1191406,177.298828 C81.1191406,176.740232 81.1386717,176.109379 81.1777344,175.40625 L81.1308594,175.40625 C80.9433584,175.781252 80.7675789,176.091796 80.6035156,176.337891 L77.9257812,180.146484 L81.1191406,180.146484 Z" id="Option-4-Copy-2" fill="#B2B2B2"></path>
                <path d="M120.101562,44.6015625 L116.601562,48.1015625 C116.502604,48.2005213 116.385417,48.25 116.25,48.25 C116.114583,48.25 115.997396,48.2005213 115.898437,48.1015625 C115.799479,48.0026037 115.75,47.8854173 115.75,47.75 L115.75,40.75 C115.75,40.6145827 115.799479,40.4973963 115.898437,40.3984375 C115.997396,40.2994787 116.114583,40.25 116.25,40.25 C116.385417,40.25 116.502604,40.2994787 116.601562,40.3984375 L120.101562,43.8984375 C120.200521,43.9973963 120.25,44.1145827 120.25,44.25 C120.25,44.3854173 120.200521,44.5026037 120.101562,44.6015625 Z" id="-copy-17" fill="#B2B2B2" transform="translate(118.000000, 44.250000) rotate(-270.000000) translate(-118.000000, -44.250000) "></path>
                <path d="M23.8303571,39.5446429 C23.9553578,39.6696435 24.0624996,39.8392846 24.1517857,40.0535714 C24.2410719,40.2678582 24.2857143,40.4642848 24.2857143,40.6428571 L24.2857143,48.3571429 C24.2857143,48.5357152 24.2232149,48.6874994 24.0982143,48.8125 C23.9732137,48.9375006 23.8214295,49 23.6428571,49 L14.6428571,49 C14.4642848,49 14.3125006,48.9375006 14.1875,48.8125 C14.0624994,48.6874994 14,48.5357152 14,48.3571429 L14,37.6428571 C14,37.4642848 14.0624994,37.3125006 14.1875,37.1875 C14.3125006,37.0624994 14.4642848,37 14.6428571,37 L20.6428571,37 C20.8214295,37 21.0178561,37.0446424 21.2321429,37.1339286 C21.4464296,37.2232147 21.6160708,37.3303565 21.7410714,37.4553571 L23.8303571,39.5446429 Z M20.8571429,37.9107143 L20.8571429,40.4285714 L23.375,40.4285714 C23.3303569,40.2991065 23.2812503,40.2075896 23.2276786,40.1540179 L21.1316964,38.0580357 C21.0781247,38.004464 20.9866078,37.9553574 20.8571429,37.9107143 L20.8571429,37.9107143 Z M23.4285714,48.1428571 L23.4285714,41.2857143 L20.6428571,41.2857143 C20.4642848,41.2857143 20.3125006,41.2232149 20.1875,41.0982143 C20.0624994,40.9732137 20,40.8214295 20,40.6428571 L20,37.8571429 L14.8571429,37.8571429 L14.8571429,48.1428571 L23.4285714,48.1428571 Z" id="-copy-12" fill="#B2B2B2"></path>
                <path d="M184.015625,42.6347656 C184.015625,44.0488352 183.63184,45.1298791 182.864258,45.8779297 C182.096676,46.6259803 180.992195,47 179.550781,47 L177.177734,47 L177.177734,38.4335938 L179.802734,38.4335938 C181.134772,38.4335938 182.169918,38.8027307 182.908203,39.5410156 C183.646488,40.2793006 184.015625,41.3105403 184.015625,42.6347656 L184.015625,42.6347656 Z M182.960938,42.6699219 C182.960938,41.5527288 182.680667,40.7109403 182.120117,40.1445312 C181.559568,39.5781222 180.726568,39.2949219 179.621094,39.2949219 L178.173828,39.2949219 L178.173828,46.1386719 L179.386719,46.1386719 C180.574225,46.1386719 181.466794,45.8466826 182.064453,45.2626953 C182.662112,44.678708 182.960938,43.8144588 182.960938,42.6699219 L182.960938,42.6699219 Z M188.708984,40.4609375 C188.994142,40.4609375 189.249999,40.4843748 189.476562,40.53125 L189.341797,41.4335938 C189.076171,41.3749997 188.841798,41.3457031 188.638672,41.3457031 C188.119138,41.3457031 187.674807,41.5566385 187.305664,41.9785156 C186.936522,42.4003927 186.751953,42.9257781 186.751953,43.5546875 L186.751953,47 L185.779297,47 L185.779297,40.578125 L186.582031,40.578125 L186.693359,41.7675781 L186.740234,41.7675781 C186.978517,41.3496073 187.265623,41.0273449 187.601562,40.8007812 C187.937502,40.5742176 188.306639,40.4609375 188.708984,40.4609375 L188.708984,40.4609375 Z M195.980469,43.7832031 C195.980469,44.8300834 195.7168,45.647458 195.189453,46.2353516 C194.662107,46.8232451 193.933598,47.1171875 193.003906,47.1171875 C192.429685,47.1171875 191.919924,46.9824232 191.474609,46.7128906 C191.029295,46.443358 190.685548,46.0566431 190.443359,45.5527344 C190.201171,45.0488256 190.080078,44.4589878 190.080078,43.7832031 C190.080078,42.7363229 190.341794,41.9209014 190.865234,41.3369141 C191.388674,40.7529268 192.11523,40.4609375 193.044922,40.4609375 C193.943364,40.4609375 194.657224,40.7597626 195.186523,41.3574219 C195.715823,41.9550811 195.980469,42.7636668 195.980469,43.7832031 L195.980469,43.7832031 Z M191.087891,43.7832031 C191.087891,44.6035197 191.251951,45.2285135 191.580078,45.6582031 C191.908205,46.0878928 192.390622,46.3027344 193.027344,46.3027344 C193.664066,46.3027344 194.147459,46.0888693 194.477539,45.6611328 C194.807619,45.2333963 194.972656,44.607426 194.972656,43.7832031 C194.972656,42.9667928 194.807619,42.3466818 194.477539,41.9228516 C194.147459,41.4990213 193.660159,41.2871094 193.015625,41.2871094 C192.378903,41.2871094 191.898439,41.4960917 191.574219,41.9140625 C191.249998,42.3320333 191.087891,42.955074 191.087891,43.7832031 L191.087891,43.7832031 Z M200.673828,47.1171875 C200.255857,47.1171875 199.874025,47.0400398 199.52832,46.8857422 C199.182615,46.7314445 198.892579,46.4941422 198.658203,46.1738281 L198.587891,46.1738281 C198.634766,46.54883 198.658203,46.9042952 198.658203,47.2402344 L198.658203,49.8828125 L197.685547,49.8828125 L197.685547,40.578125 L198.476562,40.578125 L198.611328,41.4570312 L198.658203,41.4570312 C198.908204,41.105467 199.199217,40.8515633 199.53125,40.6953125 C199.863283,40.5390617 200.244138,40.4609375 200.673828,40.4609375 C201.525395,40.4609375 202.182615,40.7519502 202.645508,41.3339844 C203.108401,41.9160185 203.339844,42.7324166 203.339844,43.7832031 C203.339844,44.8378959 203.104495,45.6572236 202.633789,46.2412109 C202.163084,46.8251982 201.50977,47.1171875 200.673828,47.1171875 L200.673828,47.1171875 Z M200.533203,41.2871094 C199.87695,41.2871094 199.402345,41.4687482 199.109375,41.8320312 C198.816405,42.1953143 198.666016,42.7734335 198.658203,43.5664062 L198.658203,43.7832031 C198.658203,44.6855514 198.808592,45.3310527 199.109375,45.7197266 C199.410158,46.1084004 199.892575,46.3027344 200.556641,46.3027344 C201.111331,46.3027344 201.545897,46.0781272 201.860352,45.6289062 C202.174806,45.1796853 202.332031,44.5605508 202.332031,43.7714844 C202.332031,42.9706991 202.174806,42.3564475 201.860352,41.9287109 C201.545897,41.5009744 201.103518,41.2871094 200.533203,41.2871094 L200.533203,41.2871094 Z M209.410156,46.1386719 L209.357422,46.1386719 C208.908201,46.7910189 208.236333,47.1171875 207.341797,47.1171875 C206.501949,47.1171875 205.848635,46.830081 205.381836,46.2558594 C204.915037,45.6816378 204.681641,44.8652397 204.681641,43.8066406 C204.681641,42.7480416 204.916013,41.9257842 205.384766,41.3398438 C205.853518,40.7539033 206.505855,40.4609375 207.341797,40.4609375 C208.212895,40.4609375 208.880857,40.7773406 209.345703,41.4101562 L209.421875,41.4101562 L209.380859,40.9472656 L209.357422,40.4960938 L209.357422,37.8828125 L210.330078,37.8828125 L210.330078,47 L209.539062,47 L209.410156,46.1386719 Z M207.464844,46.3027344 C208.12891,46.3027344 208.61035,46.1220721 208.90918,45.7607422 C209.208009,45.3994123 209.357422,44.8164103 209.357422,44.0117188 L209.357422,43.8066406 C209.357422,42.8964798 209.206056,42.2470723 208.90332,41.8583984 C208.600584,41.4697246 208.117191,41.2753906 207.453125,41.2753906 C206.88281,41.2753906 206.446291,41.4970681 206.143555,41.9404297 C205.840819,42.3837913 205.689453,43.0097616 205.689453,43.8183594 C205.689453,44.638676 205.839842,45.2578104 206.140625,45.6757812 C206.441408,46.0937521 206.88281,46.3027344 207.464844,46.3027344 L207.464844,46.3027344 Z M217.935547,43.7832031 C217.935547,44.8300834 217.671878,45.647458 217.144531,46.2353516 C216.617185,46.8232451 215.888677,47.1171875 214.958984,47.1171875 C214.384763,47.1171875 213.875002,46.9824232 213.429688,46.7128906 C212.984373,46.443358 212.640626,46.0566431 212.398438,45.5527344 C212.156249,45.0488256 212.035156,44.4589878 212.035156,43.7832031 C212.035156,42.7363229 212.296872,41.9209014 212.820312,41.3369141 C213.343753,40.7529268 214.070308,40.4609375 215,40.4609375 C215.898442,40.4609375 216.612302,40.7597626 217.141602,41.3574219 C217.670901,41.9550811 217.935547,42.7636668 217.935547,43.7832031 L217.935547,43.7832031 Z M213.042969,43.7832031 C213.042969,44.6035197 213.20703,45.2285135 213.535156,45.6582031 C213.863283,46.0878928 214.3457,46.3027344 214.982422,46.3027344 C215.619144,46.3027344 216.102537,46.0888693 216.432617,45.6611328 C216.762697,45.2333963 216.927734,44.607426 216.927734,43.7832031 C216.927734,42.9667928 216.762697,42.3466818 216.432617,41.9228516 C216.102537,41.4990213 215.615238,41.2871094 214.970703,41.2871094 C214.333981,41.2871094 213.853517,41.4960917 213.529297,41.9140625 C213.205077,42.3320333 213.042969,42.955074 213.042969,43.7832031 L213.042969,43.7832031 Z M224.644531,47 L223.466797,43.2324219 C223.392578,43.001952 223.253907,42.4785197 223.050781,41.6621094 L223.003906,41.6621094 C222.847655,42.3457065 222.710938,42.873045 222.59375,43.2441406 L221.380859,47 L220.255859,47 L218.503906,40.578125 L219.523438,40.578125 C219.937502,42.1914143 220.252929,43.4199177 220.469727,44.2636719 C220.686525,45.1074261 220.810547,45.6757798 220.841797,45.96875 L220.888672,45.96875 C220.931641,45.7460926 221.000976,45.4580096 221.09668,45.1044922 C221.192383,44.7509748 221.27539,44.4707042 221.345703,44.2636719 L222.523438,40.578125 L223.578125,40.578125 L224.726562,44.2636719 C224.945314,44.9355502 225.09375,45.4999977 225.171875,45.9570312 L225.21875,45.9570312 C225.234375,45.8164055 225.276367,45.5996108 225.344727,45.3066406 C225.413086,45.0136704 225.820309,43.4375143 226.566406,40.578125 L227.574219,40.578125 L225.798828,47 L224.644531,47 Z M233.128906,47 L233.128906,42.8457031 C233.128906,42.322263 233.009767,41.9316419 232.771484,41.6738281 C232.533202,41.4160143 232.160159,41.2871094 231.652344,41.2871094 C230.980465,41.2871094 230.488283,41.4687482 230.175781,41.8320312 C229.86328,42.1953143 229.707031,42.7949177 229.707031,43.6308594 L229.707031,47 L228.734375,47 L228.734375,40.578125 L229.525391,40.578125 L229.683594,41.4570312 L229.730469,41.4570312 C229.929688,41.1406234 230.208983,40.8955087 230.568359,40.7216797 C230.927736,40.5478507 231.328123,40.4609375 231.769531,40.4609375 C232.542973,40.4609375 233.124998,40.6474591 233.515625,41.0205078 C233.906252,41.3935566 234.101562,41.9902303 234.101562,42.8105469 L234.101562,47 L233.128906,47 Z M244.402344,47 L238.771484,47 L238.771484,46.1621094 L241.027344,43.8945312 C241.714847,43.1992153 242.167968,42.7031265 242.386719,42.40625 C242.60547,42.1093735 242.769531,41.8203139 242.878906,41.5390625 C242.988282,41.2578111 243.042969,40.9550797 243.042969,40.6308594 C243.042969,40.1738258 242.904298,39.8115248 242.626953,39.5439453 C242.349608,39.2763658 241.964846,39.1425781 241.472656,39.1425781 C241.117186,39.1425781 240.780275,39.2011713 240.461914,39.3183594 C240.143553,39.4355475 239.789064,39.648436 239.398438,39.9570312 L238.882812,39.2949219 C239.671879,38.6386686 240.531245,38.3105469 241.460938,38.3105469 C242.265629,38.3105469 242.896482,38.5165995 243.353516,38.9287109 C243.810549,39.3408224 244.039062,39.8945278 244.039062,40.5898438 C244.039062,41.1328152 243.88672,41.6699192 243.582031,42.2011719 C243.277342,42.7324245 242.707035,43.4042928 241.871094,44.2167969 L239.996094,46.0507812 L239.996094,46.0976562 L244.402344,46.0976562 L244.402344,47 Z" id="Dropdown-2-Copy-2" fill="#B2B2B2"></path>
                <path d="M261.101562,44.6015625 L257.601562,48.1015625 C257.502604,48.2005213 257.385417,48.25 257.25,48.25 C257.114583,48.25 256.997396,48.2005213 256.898438,48.1015625 C256.799479,48.0026037 256.75,47.8854173 256.75,47.75 L256.75,40.75 C256.75,40.6145827 256.799479,40.4973963 256.898438,40.3984375 C256.997396,40.2994787 257.114583,40.25 257.25,40.25 C257.385417,40.25 257.502604,40.2994787 257.601562,40.3984375 L261.101562,43.8984375 C261.200521,43.9973963 261.25,44.1145827 261.25,44.25 C261.25,44.3854173 261.200521,44.5026037 261.101562,44.6015625 Z" id="-copy-18" fill="#B2B2B2" transform="translate(259.000000, 44.250000) rotate(-270.000000) translate(-259.000000, -44.250000) "></path>
                <path d="M164.830357,39.5446429 C164.955358,39.6696435 165.0625,39.8392846 165.151786,40.0535714 C165.241072,40.2678582 165.285714,40.4642848 165.285714,40.6428571 L165.285714,48.3571429 C165.285714,48.5357152 165.223215,48.6874994 165.098214,48.8125 C164.973214,48.9375006 164.821429,49 164.642857,49 L155.642857,49 C155.464285,49 155.312501,48.9375006 155.1875,48.8125 C155.062499,48.6874994 155,48.5357152 155,48.3571429 L155,37.6428571 C155,37.4642848 155.062499,37.3125006 155.1875,37.1875 C155.312501,37.0624994 155.464285,37 155.642857,37 L161.642857,37 C161.821429,37 162.017856,37.0446424 162.232143,37.1339286 C162.44643,37.2232147 162.616071,37.3303565 162.741071,37.4553571 L164.830357,39.5446429 Z M161.857143,37.9107143 L161.857143,40.4285714 L164.375,40.4285714 C164.330357,40.2991065 164.28125,40.2075896 164.227679,40.1540179 L162.131696,38.0580357 C162.078125,38.004464 161.986608,37.9553574 161.857143,37.9107143 L161.857143,37.9107143 Z M164.428571,48.1428571 L164.428571,41.2857143 L161.642857,41.2857143 C161.464285,41.2857143 161.312501,41.2232149 161.1875,41.0982143 C161.062499,40.9732137 161,40.8214295 161,40.6428571 L161,37.8571429 L155.857143,37.8571429 L155.857143,48.1428571 L164.428571,48.1428571 Z" id="-copy-13" fill="#B2B2B2"></path>
                <path d="M318.015625,42.6347656 C318.015625,44.0488352 317.63184,45.1298791 316.864258,45.8779297 C316.096676,46.6259803 314.992195,47 313.550781,47 L311.177734,47 L311.177734,38.4335938 L313.802734,38.4335938 C315.134772,38.4335938 316.169918,38.8027307 316.908203,39.5410156 C317.646488,40.2793006 318.015625,41.3105403 318.015625,42.6347656 L318.015625,42.6347656 Z M316.960938,42.6699219 C316.960938,41.5527288 316.680667,40.7109403 316.120117,40.1445312 C315.559568,39.5781222 314.726568,39.2949219 313.621094,39.2949219 L312.173828,39.2949219 L312.173828,46.1386719 L313.386719,46.1386719 C314.574225,46.1386719 315.466794,45.8466826 316.064453,45.2626953 C316.662112,44.678708 316.960938,43.8144588 316.960938,42.6699219 L316.960938,42.6699219 Z M322.708984,40.4609375 C322.994142,40.4609375 323.249999,40.4843748 323.476562,40.53125 L323.341797,41.4335938 C323.076171,41.3749997 322.841798,41.3457031 322.638672,41.3457031 C322.119138,41.3457031 321.674807,41.5566385 321.305664,41.9785156 C320.936522,42.4003927 320.751953,42.9257781 320.751953,43.5546875 L320.751953,47 L319.779297,47 L319.779297,40.578125 L320.582031,40.578125 L320.693359,41.7675781 L320.740234,41.7675781 C320.978517,41.3496073 321.265623,41.0273449 321.601562,40.8007812 C321.937502,40.5742176 322.306639,40.4609375 322.708984,40.4609375 L322.708984,40.4609375 Z M329.980469,43.7832031 C329.980469,44.8300834 329.7168,45.647458 329.189453,46.2353516 C328.662107,46.8232451 327.933598,47.1171875 327.003906,47.1171875 C326.429685,47.1171875 325.919924,46.9824232 325.474609,46.7128906 C325.029295,46.443358 324.685548,46.0566431 324.443359,45.5527344 C324.201171,45.0488256 324.080078,44.4589878 324.080078,43.7832031 C324.080078,42.7363229 324.341794,41.9209014 324.865234,41.3369141 C325.388674,40.7529268 326.11523,40.4609375 327.044922,40.4609375 C327.943364,40.4609375 328.657224,40.7597626 329.186523,41.3574219 C329.715823,41.9550811 329.980469,42.7636668 329.980469,43.7832031 L329.980469,43.7832031 Z M325.087891,43.7832031 C325.087891,44.6035197 325.251951,45.2285135 325.580078,45.6582031 C325.908205,46.0878928 326.390622,46.3027344 327.027344,46.3027344 C327.664066,46.3027344 328.147459,46.0888693 328.477539,45.6611328 C328.807619,45.2333963 328.972656,44.607426 328.972656,43.7832031 C328.972656,42.9667928 328.807619,42.3466818 328.477539,41.9228516 C328.147459,41.4990213 327.660159,41.2871094 327.015625,41.2871094 C326.378903,41.2871094 325.898439,41.4960917 325.574219,41.9140625 C325.249998,42.3320333 325.087891,42.955074 325.087891,43.7832031 L325.087891,43.7832031 Z M334.673828,47.1171875 C334.255857,47.1171875 333.874025,47.0400398 333.52832,46.8857422 C333.182615,46.7314445 332.892579,46.4941422 332.658203,46.1738281 L332.587891,46.1738281 C332.634766,46.54883 332.658203,46.9042952 332.658203,47.2402344 L332.658203,49.8828125 L331.685547,49.8828125 L331.685547,40.578125 L332.476562,40.578125 L332.611328,41.4570312 L332.658203,41.4570312 C332.908204,41.105467 333.199217,40.8515633 333.53125,40.6953125 C333.863283,40.5390617 334.244138,40.4609375 334.673828,40.4609375 C335.525395,40.4609375 336.182615,40.7519502 336.645508,41.3339844 C337.108401,41.9160185 337.339844,42.7324166 337.339844,43.7832031 C337.339844,44.8378959 337.104495,45.6572236 336.633789,46.2412109 C336.163084,46.8251982 335.50977,47.1171875 334.673828,47.1171875 L334.673828,47.1171875 Z M334.533203,41.2871094 C333.87695,41.2871094 333.402345,41.4687482 333.109375,41.8320312 C332.816405,42.1953143 332.666016,42.7734335 332.658203,43.5664062 L332.658203,43.7832031 C332.658203,44.6855514 332.808592,45.3310527 333.109375,45.7197266 C333.410158,46.1084004 333.892575,46.3027344 334.556641,46.3027344 C335.111331,46.3027344 335.545897,46.0781272 335.860352,45.6289062 C336.174806,45.1796853 336.332031,44.5605508 336.332031,43.7714844 C336.332031,42.9706991 336.174806,42.3564475 335.860352,41.9287109 C335.545897,41.5009744 335.103518,41.2871094 334.533203,41.2871094 L334.533203,41.2871094 Z M343.410156,46.1386719 L343.357422,46.1386719 C342.908201,46.7910189 342.236333,47.1171875 341.341797,47.1171875 C340.501949,47.1171875 339.848635,46.830081 339.381836,46.2558594 C338.915037,45.6816378 338.681641,44.8652397 338.681641,43.8066406 C338.681641,42.7480416 338.916013,41.9257842 339.384766,41.3398438 C339.853518,40.7539033 340.505855,40.4609375 341.341797,40.4609375 C342.212895,40.4609375 342.880857,40.7773406 343.345703,41.4101562 L343.421875,41.4101562 L343.380859,40.9472656 L343.357422,40.4960938 L343.357422,37.8828125 L344.330078,37.8828125 L344.330078,47 L343.539062,47 L343.410156,46.1386719 Z M341.464844,46.3027344 C342.12891,46.3027344 342.61035,46.1220721 342.90918,45.7607422 C343.208009,45.3994123 343.357422,44.8164103 343.357422,44.0117188 L343.357422,43.8066406 C343.357422,42.8964798 343.206056,42.2470723 342.90332,41.8583984 C342.600584,41.4697246 342.117191,41.2753906 341.453125,41.2753906 C340.88281,41.2753906 340.446291,41.4970681 340.143555,41.9404297 C339.840819,42.3837913 339.689453,43.0097616 339.689453,43.8183594 C339.689453,44.638676 339.839842,45.2578104 340.140625,45.6757812 C340.441408,46.0937521 340.88281,46.3027344 341.464844,46.3027344 L341.464844,46.3027344 Z M351.935547,43.7832031 C351.935547,44.8300834 351.671878,45.647458 351.144531,46.2353516 C350.617185,46.8232451 349.888677,47.1171875 348.958984,47.1171875 C348.384763,47.1171875 347.875002,46.9824232 347.429688,46.7128906 C346.984373,46.443358 346.640626,46.0566431 346.398438,45.5527344 C346.156249,45.0488256 346.035156,44.4589878 346.035156,43.7832031 C346.035156,42.7363229 346.296872,41.9209014 346.820312,41.3369141 C347.343753,40.7529268 348.070308,40.4609375 349,40.4609375 C349.898442,40.4609375 350.612302,40.7597626 351.141602,41.3574219 C351.670901,41.9550811 351.935547,42.7636668 351.935547,43.7832031 L351.935547,43.7832031 Z M347.042969,43.7832031 C347.042969,44.6035197 347.20703,45.2285135 347.535156,45.6582031 C347.863283,46.0878928 348.3457,46.3027344 348.982422,46.3027344 C349.619144,46.3027344 350.102537,46.0888693 350.432617,45.6611328 C350.762697,45.2333963 350.927734,44.607426 350.927734,43.7832031 C350.927734,42.9667928 350.762697,42.3466818 350.432617,41.9228516 C350.102537,41.4990213 349.615238,41.2871094 348.970703,41.2871094 C348.333981,41.2871094 347.853517,41.4960917 347.529297,41.9140625 C347.205077,42.3320333 347.042969,42.955074 347.042969,43.7832031 L347.042969,43.7832031 Z M358.644531,47 L357.466797,43.2324219 C357.392578,43.001952 357.253907,42.4785197 357.050781,41.6621094 L357.003906,41.6621094 C356.847655,42.3457065 356.710938,42.873045 356.59375,43.2441406 L355.380859,47 L354.255859,47 L352.503906,40.578125 L353.523438,40.578125 C353.937502,42.1914143 354.252929,43.4199177 354.469727,44.2636719 C354.686525,45.1074261 354.810547,45.6757798 354.841797,45.96875 L354.888672,45.96875 C354.931641,45.7460926 355.000976,45.4580096 355.09668,45.1044922 C355.192383,44.7509748 355.27539,44.4707042 355.345703,44.2636719 L356.523438,40.578125 L357.578125,40.578125 L358.726562,44.2636719 C358.945314,44.9355502 359.09375,45.4999977 359.171875,45.9570312 L359.21875,45.9570312 C359.234375,45.8164055 359.276367,45.5996108 359.344727,45.3066406 C359.413086,45.0136704 359.820309,43.4375143 360.566406,40.578125 L361.574219,40.578125 L359.798828,47 L358.644531,47 Z M367.128906,47 L367.128906,42.8457031 C367.128906,42.322263 367.009767,41.9316419 366.771484,41.6738281 C366.533202,41.4160143 366.160159,41.2871094 365.652344,41.2871094 C364.980465,41.2871094 364.488283,41.4687482 364.175781,41.8320312 C363.86328,42.1953143 363.707031,42.7949177 363.707031,43.6308594 L363.707031,47 L362.734375,47 L362.734375,40.578125 L363.525391,40.578125 L363.683594,41.4570312 L363.730469,41.4570312 C363.929688,41.1406234 364.208983,40.8955087 364.568359,40.7216797 C364.927736,40.5478507 365.328123,40.4609375 365.769531,40.4609375 C366.542973,40.4609375 367.124998,40.6474591 367.515625,41.0205078 C367.906252,41.3935566 368.101562,41.9902303 368.101562,42.8105469 L368.101562,47 L367.128906,47 Z M378.080078,40.4492188 C378.080078,40.9960965 377.926759,41.4433576 377.620117,41.7910156 C377.313475,42.1386736 376.878909,42.3710932 376.316406,42.4882812 L376.316406,42.5351562 C377.00391,42.6210942 377.51367,42.839842 377.845703,43.1914062 C378.177736,43.5429705 378.34375,44.0039034 378.34375,44.5742188 C378.34375,45.3906291 378.06055,46.0185525 377.494141,46.4580078 C376.927732,46.8974631 376.123052,47.1171875 375.080078,47.1171875 C374.626951,47.1171875 374.211916,47.0830082 373.834961,47.0146484 C373.458006,46.9462887 373.091799,46.8261727 372.736328,46.6542969 L372.736328,45.7285156 C373.107424,45.9121103 373.502928,46.0517573 373.922852,46.1474609 C374.342776,46.2431645 374.740232,46.2910156 375.115234,46.2910156 C376.595711,46.2910156 377.335938,45.7109433 377.335938,44.5507812 C377.335938,43.5117136 376.519539,42.9921875 374.886719,42.9921875 L374.042969,42.9921875 L374.042969,42.1542969 L374.898438,42.1542969 C375.56641,42.1542969 376.095701,42.0068374 376.486328,41.7119141 C376.876955,41.4169907 377.072266,41.0078151 377.072266,40.484375 C377.072266,40.0664042 376.928712,39.7382824 376.641602,39.5 C376.354491,39.2617176 375.964846,39.1425781 375.472656,39.1425781 C375.097654,39.1425781 374.744142,39.1933589 374.412109,39.2949219 C374.080076,39.3964849 373.701174,39.583983 373.275391,39.8574219 L372.783203,39.2011719 C373.134767,38.9238267 373.540037,38.7060555 373.999023,38.5478516 C374.45801,38.3896476 374.941404,38.3105469 375.449219,38.3105469 C376.281254,38.3105469 376.927732,38.5009747 377.388672,38.8818359 C377.849612,39.2626972 378.080078,39.7851529 378.080078,40.4492188 L378.080078,40.4492188 Z" id="Dropdown-3-Copy-2" fill="#B2B2B2"></path>
                <path d="M395.101562,44.6015625 L391.601562,48.1015625 C391.502604,48.2005213 391.385417,48.25 391.25,48.25 C391.114583,48.25 390.997396,48.2005213 390.898438,48.1015625 C390.799479,48.0026037 390.75,47.8854173 390.75,47.75 L390.75,40.75 C390.75,40.6145827 390.799479,40.4973963 390.898438,40.3984375 C390.997396,40.2994787 391.114583,40.25 391.25,40.25 C391.385417,40.25 391.502604,40.2994787 391.601562,40.3984375 L395.101562,43.8984375 C395.200521,43.9973963 395.25,44.1145827 395.25,44.25 C395.25,44.3854173 395.200521,44.5026037 395.101562,44.6015625 Z" id="-copy-19" fill="#B2B2B2" transform="translate(393.000000, 44.250000) rotate(-270.000000) translate(-393.000000, -44.250000) "></path>
                <path d="M298.830357,39.5446429 C298.955358,39.6696435 299.0625,39.8392846 299.151786,40.0535714 C299.241072,40.2678582 299.285714,40.4642848 299.285714,40.6428571 L299.285714,48.3571429 C299.285714,48.5357152 299.223215,48.6874994 299.098214,48.8125 C298.973214,48.9375006 298.821429,49 298.642857,49 L289.642857,49 C289.464285,49 289.312501,48.9375006 289.1875,48.8125 C289.062499,48.6874994 289,48.5357152 289,48.3571429 L289,37.6428571 C289,37.4642848 289.062499,37.3125006 289.1875,37.1875 C289.312501,37.0624994 289.464285,37 289.642857,37 L295.642857,37 C295.821429,37 296.017856,37.0446424 296.232143,37.1339286 C296.44643,37.2232147 296.616071,37.3303565 296.741071,37.4553571 L298.830357,39.5446429 Z M295.857143,37.9107143 L295.857143,40.4285714 L298.375,40.4285714 C298.330357,40.2991065 298.28125,40.2075896 298.227679,40.1540179 L296.131696,38.0580357 C296.078125,38.004464 295.986608,37.9553574 295.857143,37.9107143 L295.857143,37.9107143 Z M298.428571,48.1428571 L298.428571,41.2857143 L295.642857,41.2857143 C295.464285,41.2857143 295.312501,41.2232149 295.1875,41.0982143 C295.062499,40.9732137 295,40.8214295 295,40.6428571 L295,37.8571429 L289.857143,37.8571429 L289.857143,48.1428571 L298.428571,48.1428571 Z" id="-copy-14" fill="#B2B2B2"></path>
                <path d="M49.794,0.662 L51.166,0.662 L54.82,10 L53.322,10 L52.356,7.396 L48.52,7.396 L47.554,10 L46.14,10 L49.794,0.662 Z M51.95,6.262 L50.438,2.16 L48.912,6.262 L51.95,6.262 Z M61.498,9.104 C61.2086652,9.4306683 60.8516688,9.69433233 60.427,9.895 C60.0023312,10.0956677 59.5100028,10.196 58.95,10.196 C58.4273307,10.196 57.9536688,10.1096675 57.529,9.937 C57.1043312,9.76433247 56.7450015,9.52633485 56.451,9.223 C56.1569985,8.91966515 55.9306675,8.55566879 55.772,8.131 C55.6133325,7.70633121 55.534,7.24200252 55.534,6.738 C55.534,6.26199762 55.6179992,5.8140021 55.786,5.394 C55.9540008,4.9739979 56.1896651,4.60766823 56.493,4.295 C56.7963348,3.98233177 57.1556646,3.73500091 57.571,3.553 C57.9863354,3.37099909 58.4459975,3.28 58.95,3.28 C59.5006694,3.28 59.9859979,3.37799902 60.406,3.574 C60.8260021,3.77000098 61.1853318,4.03599832 61.484,4.372 L60.658,5.17 C60.461999,4.92733212 60.2240014,4.7360007 59.944,4.596 C59.6639986,4.4559993 59.3326686,4.386 58.95,4.386 C58.6139983,4.386 58.3130013,4.44899937 58.047,4.575 C57.7809987,4.70100063 57.5570009,4.87366557 57.375,5.093 C57.1929991,5.31233443 57.0530005,5.56433191 56.955,5.849 C56.8569995,6.13366809 56.808,6.42999846 56.808,6.738 C56.808,7.03666816 56.8569995,7.32833191 56.955,7.613 C57.0530005,7.89766809 57.1929991,8.14966557 57.375,8.369 C57.5570009,8.58833443 57.7809987,8.76333268 58.047,8.894 C58.3130013,9.02466732 58.6139983,9.09 58.95,9.09 C59.3326686,9.09 59.6756651,9.01766739 59.979,8.873 C60.2823348,8.72833261 60.531999,8.53466788 60.728,8.292 L61.498,9.104 Z M63.304,4.54 L62.128,4.54 L62.128,3.49 L63.304,3.49 L63.304,1.362 L64.564,1.362 L64.564,3.49 L66.468,3.49 L66.468,4.54 L64.564,4.54 L64.564,7.746 C64.564,8.26866928 64.6456658,8.62799902 64.809,8.824 C64.9723341,9.02000098 65.2033318,9.118 65.502,9.118 C65.7446679,9.118 65.9453325,9.08066704 66.104,9.006 C66.2626675,8.93133296 66.4213325,8.81933408 66.58,8.67 L67.154,9.44 C66.883332,9.70133464 66.6056681,9.89033275 66.321,10.007 C66.0363319,10.1236672 65.698002,10.182 65.306,10.182 C64.6153299,10.182 64.1090016,9.9953352 63.787,9.622 C63.4649984,9.2486648 63.304,8.6653373 63.304,7.872 L63.304,4.54 Z M68.092,0.914 L69.506,0.914 L69.506,2.328 L68.092,2.328 L68.092,0.914 Z M68.176,3.49 L69.436,3.49 L69.436,10 L68.176,10 L68.176,3.49 Z M70.164,3.49 L71.606,3.49 L73.636,8.572 L75.652,3.49 L77.01,3.49 L74.224,10 L72.964,10 L70.164,3.49 Z M83.632,9.048 C83.557333,9.13200042 83.4453341,9.23933268 83.296,9.37 C83.1466659,9.50066732 82.9530012,9.62666606 82.715,9.748 C82.4769988,9.86933394 82.1970016,9.97433289 81.875,10.063 C81.5529984,10.1516671 81.1866687,10.196 80.776,10.196 C80.2719975,10.196 79.8100021,10.1120008 79.39,9.944 C78.9699979,9.77599916 78.6106682,9.53800154 78.312,9.23 C78.0133318,8.92199846 77.7823341,8.55333548 77.619,8.124 C77.4556658,7.69466452 77.374,7.21866928 77.374,6.696 C77.374,6.21999762 77.4533325,5.77433541 77.612,5.359 C77.7706675,4.94366459 77.9946652,4.58433485 78.284,4.281 C78.5733348,3.97766515 78.9163313,3.73733422 79.313,3.56 C79.7096686,3.38266578 80.1459976,3.294 80.622,3.294 C81.1820028,3.294 81.6626647,3.40133226 82.064,3.616 C82.4653353,3.83066774 82.794332,4.11533156 83.051,4.47 C83.3076679,4.82466844 83.4966661,5.23066438 83.618,5.688 C83.7393339,6.14533562 83.8,6.62133086 83.8,7.116 L78.662,7.116 C78.6713334,7.40533478 78.7343327,7.67133212 78.851,7.914 C78.9676672,8.15666788 79.123999,8.36666578 79.32,8.544 C79.516001,8.72133422 79.7399987,8.86133282 79.992,8.964 C80.2440013,9.06666718 80.5099986,9.118 80.79,9.118 C81.3406694,9.118 81.7933316,9.0246676 82.148,8.838 C82.5026684,8.6513324 82.7593325,8.46933422 82.918,8.292 L83.632,9.048 Z M82.498,6.178 C82.4606665,5.67399748 82.2833349,5.24466844 81.966,4.89 C81.6486651,4.53533156 81.2006696,4.358 80.622,4.358 C80.3233318,4.358 80.0550012,4.40933282 79.817,4.512 C79.5789988,4.61466718 79.3760008,4.74999916 79.208,4.918 C79.0399992,5.08600084 78.9093338,5.27966557 78.816,5.499 C78.7226662,5.71833443 78.6713334,5.9446655 78.662,6.178 L82.498,6.178 Z" id="Active-Copy" fill="#9B9B9B"></path>
                <path d="M181.064,0.662 L182.408,0.662 L182.408,10 L181.064,10 L181.064,0.662 Z M184.34,10 L184.34,4.162 C184.34,3.94733226 184.335333,3.7233345 184.326,3.49 L185.53,3.49 L185.572,4.47 C185.656,4.35799944 185.758666,4.23433401 185.88,4.099 C186.001334,3.96366599 186.150666,3.84000056 186.328,3.728 C186.505334,3.61599944 186.712999,3.52266704 186.951,3.448 C187.189001,3.37333296 187.457332,3.336 187.756,3.336 C188.605338,3.336 189.235331,3.58333086 189.646,4.078 C190.056669,4.57266914 190.262,5.24466242 190.262,6.094 L190.262,10 L189.002,10 L189.002,6.192 C189.002,5.5853303 188.871335,5.13966809 188.61,4.855 C188.348665,4.57033191 187.980002,4.428 187.504,4.428 C187.139998,4.428 186.836668,4.50266592 186.594,4.652 C186.351332,4.80133408 186.157667,4.99499881 186.013,5.233 C185.868333,5.47100119 185.763334,5.74166515 185.698,6.045 C185.632666,6.34833485 185.6,6.65866508 185.6,6.976 L185.6,10 L184.34,10 Z M196.03,9.216 C195.787332,9.5426683 195.467669,9.78533254 195.071,9.944 C194.674331,10.1026675 194.266002,10.182 193.846,10.182 C193.575332,10.182 193.307001,10.1470003 193.041,10.077 C192.774999,10.0069996 192.532334,9.89033415 192.313,9.727 C192.093666,9.56366585 191.916334,9.35366795 191.781,9.097 C191.645666,8.84033205 191.578,8.5253352 191.578,8.152 C191.578,7.4519965 191.822998,6.8920021 192.313,6.472 C192.803002,6.0519979 193.509995,5.842 194.434,5.842 C194.583334,5.842 194.741999,5.84666662 194.91,5.856 C195.078001,5.86533338 195.236666,5.87466662 195.386,5.884 C195.535334,5.89333338 195.665999,5.90266662 195.778,5.912 C195.890001,5.92133338 195.969333,5.93066662 196.016,5.94 L196.016,5.702 C196.016,5.21666424 195.869001,4.86900105 195.575,4.659 C195.280999,4.44899895 194.882003,4.344 194.378,4.344 C193.883331,4.344 193.491335,4.41166599 193.202,4.547 C192.912665,4.68233401 192.670001,4.8199993 192.474,4.96 L191.886,4.106 C191.998001,4.0126662 192.133333,3.9193338 192.292,3.826 C192.450667,3.7326662 192.637332,3.64633373 192.852,3.567 C193.066668,3.48766627 193.309332,3.42233359 193.58,3.371 C193.850668,3.31966641 194.163332,3.294 194.518,3.294 C195.358004,3.294 196.018331,3.49699797 196.499,3.903 C196.979669,4.30900203 197.22,4.8853296 197.22,5.632 L197.22,9.426 C197.22,9.65000112 197.224667,9.84133254 197.234,10 L196.058,10 L196.03,9.216 Z M196.016,6.92 C195.978666,6.91066662 195.906334,6.89900007 195.799,6.885 C195.691666,6.87099993 195.568001,6.85933338 195.428,6.85 C195.287999,6.84066662 195.138667,6.83133338 194.98,6.822 C194.821333,6.81266662 194.667334,6.808 194.518,6.808 C194.163332,6.808 193.876334,6.84999958 193.657,6.934 C193.437666,7.01800042 193.265001,7.12299937 193.139,7.249 C193.012999,7.37500063 192.926667,7.51499923 192.88,7.669 C192.833333,7.82300077 192.81,7.9699993 192.81,8.11 C192.81,8.46466844 192.931332,8.73299909 193.174,8.915 C193.416668,9.09700091 193.752665,9.188 194.182,9.188 C194.424668,9.188 194.655666,9.14600042 194.875,9.062 C195.094334,8.97799958 195.287999,8.8660007 195.456,8.726 C195.624001,8.5859993 195.759333,8.4226676 195.862,8.236 C195.964667,8.0493324 196.016,7.85800098 196.016,7.662 L196.016,6.92 Z M204.598,9.104 C204.308665,9.4306683 203.951669,9.69433233 203.527,9.895 C203.102331,10.0956677 202.610003,10.196 202.05,10.196 C201.527331,10.196 201.053669,10.1096675 200.629,9.937 C200.204331,9.76433247 199.845001,9.52633485 199.551,9.223 C199.256999,8.91966515 199.030667,8.55566879 198.872,8.131 C198.713333,7.70633121 198.634,7.24200252 198.634,6.738 C198.634,6.26199762 198.717999,5.8140021 198.886,5.394 C199.054001,4.9739979 199.289665,4.60766823 199.593,4.295 C199.896335,3.98233177 200.255665,3.73500091 200.671,3.553 C201.086335,3.37099909 201.545997,3.28 202.05,3.28 C202.600669,3.28 203.085998,3.37799902 203.506,3.574 C203.926002,3.77000098 204.285332,4.03599832 204.584,4.372 L203.758,5.17 C203.561999,4.92733212 203.324001,4.7360007 203.044,4.596 C202.763999,4.4559993 202.432669,4.386 202.05,4.386 C201.713998,4.386 201.413001,4.44899937 201.147,4.575 C200.880999,4.70100063 200.657001,4.87366557 200.475,5.093 C200.292999,5.31233443 200.153,5.56433191 200.055,5.849 C199.957,6.13366809 199.908,6.42999846 199.908,6.738 C199.908,7.03666816 199.957,7.32833191 200.055,7.613 C200.153,7.89766809 200.292999,8.14966557 200.475,8.369 C200.657001,8.58833443 200.880999,8.76333268 201.147,8.894 C201.413001,9.02466732 201.713998,9.09 202.05,9.09 C202.432669,9.09 202.775665,9.01766739 203.079,8.873 C203.382335,8.72833261 203.631999,8.53466788 203.828,8.292 L204.598,9.104 Z M206.404,4.54 L205.228,4.54 L205.228,3.49 L206.404,3.49 L206.404,1.362 L207.664,1.362 L207.664,3.49 L209.568,3.49 L209.568,4.54 L207.664,4.54 L207.664,7.746 C207.664,8.26866928 207.745666,8.62799902 207.909,8.824 C208.072334,9.02000098 208.303332,9.118 208.602,9.118 C208.844668,9.118 209.045333,9.08066704 209.204,9.006 C209.362667,8.93133296 209.521333,8.81933408 209.68,8.67 L210.254,9.44 C209.983332,9.70133464 209.705668,9.89033275 209.421,10.007 C209.136332,10.1236672 208.798002,10.182 208.406,10.182 C207.71533,10.182 207.209002,9.9953352 206.887,9.622 C206.564998,9.2486648 206.404,8.6653373 206.404,7.872 L206.404,4.54 Z M211.192,0.914 L212.606,0.914 L212.606,2.328 L211.192,2.328 L211.192,0.914 Z M211.276,3.49 L212.536,3.49 L212.536,10 L211.276,10 L211.276,3.49 Z M213.264,3.49 L214.706,3.49 L216.736,8.572 L218.752,3.49 L220.11,3.49 L217.324,10 L216.064,10 L213.264,3.49 Z M226.732,9.048 C226.657333,9.13200042 226.545334,9.23933268 226.396,9.37 C226.246666,9.50066732 226.053001,9.62666606 225.815,9.748 C225.576999,9.86933394 225.297002,9.97433289 224.975,10.063 C224.652998,10.1516671 224.286669,10.196 223.876,10.196 C223.371997,10.196 222.910002,10.1120008 222.49,9.944 C222.069998,9.77599916 221.710668,9.53800154 221.412,9.23 C221.113332,8.92199846 220.882334,8.55333548 220.719,8.124 C220.555666,7.69466452 220.474,7.21866928 220.474,6.696 C220.474,6.21999762 220.553333,5.77433541 220.712,5.359 C220.870667,4.94366459 221.094665,4.58433485 221.384,4.281 C221.673335,3.97766515 222.016331,3.73733422 222.413,3.56 C222.809669,3.38266578 223.245998,3.294 223.722,3.294 C224.282003,3.294 224.762665,3.40133226 225.164,3.616 C225.565335,3.83066774 225.894332,4.11533156 226.151,4.47 C226.407668,4.82466844 226.596666,5.23066438 226.718,5.688 C226.839334,6.14533562 226.9,6.62133086 226.9,7.116 L221.762,7.116 C221.771333,7.40533478 221.834333,7.67133212 221.951,7.914 C222.067667,8.15666788 222.223999,8.36666578 222.42,8.544 C222.616001,8.72133422 222.839999,8.86133282 223.092,8.964 C223.344001,9.06666718 223.609999,9.118 223.89,9.118 C224.440669,9.118 224.893332,9.0246676 225.248,8.838 C225.602668,8.6513324 225.859333,8.46933422 226.018,8.292 L226.732,9.048 Z M225.598,6.178 C225.560666,5.67399748 225.383335,5.24466844 225.066,4.89 C224.748665,4.53533156 224.30067,4.358 223.722,4.358 C223.423332,4.358 223.155001,4.40933282 222.917,4.512 C222.678999,4.61466718 222.476001,4.74999916 222.308,4.918 C222.139999,5.08600084 222.009334,5.27966557 221.916,5.499 C221.822666,5.71833443 221.771333,5.9446655 221.762,6.178 L225.598,6.178 Z" id="Inactive-Copy" fill="#9B9B9B"></path>
                <path d="M324.064,0.662 L325.408,0.662 L325.408,4.568 L330.518,4.568 L330.518,0.662 L331.862,0.662 L331.862,10 L330.518,10 L330.518,5.772 L325.408,5.772 L325.408,10 L324.064,10 L324.064,0.662 Z M336.93,10.196 C336.425997,10.196 335.964002,10.1050009 335.544,9.923 C335.123998,9.74099909 334.762335,9.49133492 334.459,9.174 C334.155665,8.85666508 333.917668,8.49033541 333.745,8.075 C333.572332,7.65966459 333.486,7.21400238 333.486,6.738 C333.486,6.26199762 333.572332,5.81633541 333.745,5.401 C333.917668,4.98566459 334.155665,4.61933492 334.459,4.302 C334.762335,3.98466508 335.123998,3.73500091 335.544,3.553 C335.964002,3.37099909 336.425997,3.28 336.93,3.28 C337.424669,3.28 337.881998,3.37099909 338.302,3.553 C338.722002,3.73500091 339.085998,3.98466508 339.394,4.302 C339.702002,4.61933492 339.942332,4.98566459 340.115,5.401 C340.287668,5.81633541 340.374,6.26199762 340.374,6.738 C340.374,7.21400238 340.287668,7.65966459 340.115,8.075 C339.942332,8.49033541 339.702002,8.85666508 339.394,9.174 C339.085998,9.49133492 338.722002,9.74099909 338.302,9.923 C337.881998,10.1050009 337.424669,10.196 336.93,10.196 L336.93,10.196 Z M336.93,9.104 C337.266002,9.104 337.569332,9.03633401 337.84,8.901 C338.110668,8.76566599 338.339332,8.58833443 338.526,8.369 C338.712668,8.14966557 338.855,7.89766809 338.953,7.613 C339.051,7.32833191 339.1,7.03666816 339.1,6.738 C339.1,6.44866522 339.051,6.16166809 338.953,5.877 C338.855,5.59233191 338.710334,5.33800112 338.519,5.114 C338.327666,4.88999888 338.099001,4.71033401 337.833,4.575 C337.566999,4.43966599 337.266002,4.372 336.93,4.372 C336.593998,4.372 336.290668,4.43966599 336.02,4.575 C335.749332,4.71033401 335.520668,4.88766557 335.334,5.107 C335.147332,5.32633443 335.005,5.57833191 334.907,5.863 C334.809,6.14766809 334.76,6.43933184 334.76,6.738 C334.76,7.03666816 334.809,7.3259986 334.907,7.606 C335.005,7.8860014 335.149666,8.13799888 335.341,8.362 C335.532334,8.58600112 335.760999,8.76566599 336.027,8.901 C336.293001,9.03633401 336.593998,9.104 336.93,9.104 L336.93,9.104 Z M340.668,3.49 L342.11,3.49 L344.14,8.572 L346.156,3.49 L347.514,3.49 L344.728,10 L343.468,10 L340.668,3.49 Z M354.136,9.048 C354.061333,9.13200042 353.949334,9.23933268 353.8,9.37 C353.650666,9.50066732 353.457001,9.62666606 353.219,9.748 C352.980999,9.86933394 352.701002,9.97433289 352.379,10.063 C352.056998,10.1516671 351.690669,10.196 351.28,10.196 C350.775997,10.196 350.314002,10.1120008 349.894,9.944 C349.473998,9.77599916 349.114668,9.53800154 348.816,9.23 C348.517332,8.92199846 348.286334,8.55333548 348.123,8.124 C347.959666,7.69466452 347.878,7.21866928 347.878,6.696 C347.878,6.21999762 347.957333,5.77433541 348.116,5.359 C348.274667,4.94366459 348.498665,4.58433485 348.788,4.281 C349.077335,3.97766515 349.420331,3.73733422 349.817,3.56 C350.213669,3.38266578 350.649998,3.294 351.126,3.294 C351.686003,3.294 352.166665,3.40133226 352.568,3.616 C352.969335,3.83066774 353.298332,4.11533156 353.555,4.47 C353.811668,4.82466844 354.000666,5.23066438 354.122,5.688 C354.243334,6.14533562 354.304,6.62133086 354.304,7.116 L349.166,7.116 C349.175333,7.40533478 349.238333,7.67133212 349.355,7.914 C349.471667,8.15666788 349.627999,8.36666578 349.824,8.544 C350.020001,8.72133422 350.243999,8.86133282 350.496,8.964 C350.748001,9.06666718 351.013999,9.118 351.294,9.118 C351.844669,9.118 352.297332,9.0246676 352.652,8.838 C353.006668,8.6513324 353.263333,8.46933422 353.422,8.292 L354.136,9.048 Z M353.002,6.178 C352.964666,5.67399748 352.787335,5.24466844 352.47,4.89 C352.152665,4.53533156 351.70467,4.358 351.126,4.358 C350.827332,4.358 350.559001,4.40933282 350.321,4.512 C350.082999,4.61466718 349.880001,4.74999916 349.712,4.918 C349.543999,5.08600084 349.413334,5.27966557 349.32,5.499 C349.226666,5.71833443 349.175333,5.9446655 349.166,6.178 L353.002,6.178 Z M355.704,10 L355.704,4.12 C355.704,3.91466564 355.699333,3.70466774 355.69,3.49 L356.894,3.49 L356.936,4.54 C357.010667,4.42799944 357.108666,4.30433401 357.23,4.169 C357.351334,4.03366599 357.498332,3.91000056 357.671,3.798 C357.843668,3.68599944 358.044332,3.59033373 358.273,3.511 C358.501668,3.43166627 358.765332,3.392 359.064,3.392 C359.204001,3.392 359.332333,3.40133324 359.449,3.42 C359.565667,3.43866676 359.675333,3.46666648 359.778,3.504 L359.498,4.68 C359.329999,4.61466634 359.115335,4.582 358.854,4.582 C358.583332,4.582 358.333668,4.63333282 358.105,4.736 C357.876332,4.83866718 357.678001,4.98099909 357.51,5.163 C357.341999,5.34500091 357.209,5.55733212 357.111,5.8 C357.013,6.04266788 356.964,6.29933198 356.964,6.57 L356.964,10 L355.704,10 Z" id="Hover-Copy" fill="#9B9B9B"></path>
            </g>
        </g>
    </g>
</svg>