<?xml version="1.0" encoding="UTF-8" standalone="no"?>
<svg width="541px" height="63px" viewBox="0 0 541 63" version="1.1" xmlns="http://www.w3.org/2000/svg" xmlns:xlink="http://www.w3.org/1999/xlink">
    <!-- Generator: Sketch 40.2 (33826) - http://www.bohemiancoding.com/sketch -->
    <title>tlbr-2</title>
    <desc>Created with Sketch.</desc>
    <defs></defs>
    <g id="Components" stroke="none" stroke-width="1" fill="none" fill-rule="evenodd">
        <g id="Buttons" transform="translate(-325.000000, -1587.000000)">
            <g id="tlbr-2" transform="translate(325.000000, 1587.000000)">
                <rect id="Rectangle-19-Copy-4" fill="#333333" x="0" y="23" width="541" height="40"></rect>
                <rect id="Rectangle-20-Copy-2" fill="#262626" x="0" y="23" width="139" height="40"></rect>
                <rect id="Rectangle-19-Copy-5" fill="#474747" x="276" y="23" width="132" height="40"></rect>
                <path d="M36.1777344,38.4335938 L38.5976562,38.4335938 C39.7343807,38.4335938 40.5566381,38.6035139 41.0644531,38.9433594 C41.5722682,39.2832048 41.8261719,39.8203088 41.8261719,40.5546875 C41.8261719,41.0625025 41.6845717,41.4814437 41.4013672,41.8115234 C41.1181626,42.1416032 40.7050808,42.3554683 40.1621094,42.453125 L40.1621094,42.5117188 C41.4628971,42.7343761 42.1132812,43.417963 42.1132812,44.5625 C42.1132812,45.3281288 41.8544948,45.9257791 41.3369141,46.3554688 C40.8193333,46.7851584 40.0957078,47 39.1660156,47 L36.1777344,47 L36.1777344,38.4335938 Z M37.1738281,42.1015625 L38.8144531,42.1015625 C39.5175816,42.1015625 40.023436,41.991212 40.3320312,41.7705078 C40.6406265,41.5498036 40.7949219,41.177737 40.7949219,40.6542969 C40.7949219,40.1738257 40.6230486,39.8271495 40.2792969,39.6142578 C39.9355452,39.4013661 39.3886756,39.2949219 38.6386719,39.2949219 L37.1738281,39.2949219 L37.1738281,42.1015625 Z M37.1738281,42.9453125 L37.1738281,46.1503906 L38.9609375,46.1503906 C39.6523472,46.1503906 40.1728498,46.0166029 40.5224609,45.7490234 C40.8720721,45.481444 41.046875,45.0625029 41.046875,44.4921875 C41.046875,43.9609348 40.8681658,43.5703137 40.5107422,43.3203125 C40.1533185,43.0703113 39.6093787,42.9453125 38.8789062,42.9453125 L37.1738281,42.9453125 Z M44.7207031,40.578125 L44.7207031,44.7441406 C44.7207031,45.2675807 44.8398426,45.6582018 45.078125,45.9160156 C45.3164074,46.1738294 45.6894506,46.3027344 46.1972656,46.3027344 C46.869144,46.3027344 47.36035,46.1191425 47.6708984,45.7519531 C47.9814469,45.3847638 48.1367188,44.7851604 48.1367188,43.953125 L48.1367188,40.578125 L49.109375,40.578125 L49.109375,47 L48.3066406,47 L48.1660156,46.1386719 L48.1132812,46.1386719 C47.9140615,46.4550797 47.6376971,46.6972648 47.2841797,46.8652344 C46.9306623,47.033204 46.527346,47.1171875 46.0742188,47.1171875 C45.2929648,47.1171875 44.7080098,46.9316425 44.3193359,46.5605469 C43.9306621,46.1894513 43.7363281,45.5957072 43.7363281,44.7792969 L43.7363281,40.578125 L44.7207031,40.578125 Z M53.2460938,46.3144531 C53.4179696,46.3144531 53.5839836,46.3017579 53.7441406,46.2763672 C53.9042977,46.2509764 54.0312495,46.2246095 54.125,46.1972656 L54.125,46.9414062 C54.0195307,46.9921878 53.8642588,47.0341795 53.6591797,47.0673828 C53.4541005,47.1005861 53.2695321,47.1171875 53.1054688,47.1171875 C51.863275,47.1171875 51.2421875,46.4628972 51.2421875,45.1542969 L51.2421875,41.3339844 L50.3222656,41.3339844 L50.3222656,40.8652344 L51.2421875,40.4609375 L51.6523438,39.0898438 L52.2148438,39.0898438 L52.2148438,40.578125 L54.078125,40.578125 L54.078125,41.3339844 L52.2148438,41.3339844 L52.2148438,45.1132812 C52.2148438,45.5000019 52.3066397,45.796874 52.4902344,46.0039062 C52.673829,46.2109385 52.9257796,46.3144531 53.2460938,46.3144531 L53.2460938,46.3144531 Z M57.4824219,46.3144531 C57.6542977,46.3144531 57.8203117,46.3017579 57.9804688,46.2763672 C58.1406258,46.2509764 58.2675777,46.2246095 58.3613281,46.1972656 L58.3613281,46.9414062 C58.2558588,46.9921878 58.100587,47.0341795 57.8955078,47.0673828 C57.6904287,47.1005861 57.5058602,47.1171875 57.3417969,47.1171875 C56.0996032,47.1171875 55.4785156,46.4628972 55.4785156,45.1542969 L55.4785156,41.3339844 L54.5585938,41.3339844 L54.5585938,40.8652344 L55.4785156,40.4609375 L55.8886719,39.0898438 L56.4511719,39.0898438 L56.4511719,40.578125 L58.3144531,40.578125 L58.3144531,41.3339844 L56.4511719,41.3339844 L56.4511719,45.1132812 C56.4511719,45.5000019 56.5429678,45.796874 56.7265625,46.0039062 C56.9101572,46.2109385 57.1621078,46.3144531 57.4824219,46.3144531 L57.4824219,46.3144531 Z M65.1875,43.7832031 C65.1875,44.8300834 64.9238308,45.647458 64.3964844,46.2353516 C63.869138,46.8232451 63.1406296,47.1171875 62.2109375,47.1171875 C61.6367159,47.1171875 61.1269554,46.9824232 60.6816406,46.7128906 C60.2363259,46.443358 59.8925793,46.0566431 59.6503906,45.5527344 C59.4082019,45.0488256 59.2871094,44.4589878 59.2871094,43.7832031 C59.2871094,42.7363229 59.5488255,41.9209014 60.0722656,41.3369141 C60.5957057,40.7529268 61.322261,40.4609375 62.2519531,40.4609375 C63.1503951,40.4609375 63.8642552,40.7597626 64.3935547,41.3574219 C64.9228542,41.9550811 65.1875,42.7636668 65.1875,43.7832031 L65.1875,43.7832031 Z M60.2949219,43.7832031 C60.2949219,44.6035197 60.4589827,45.2285135 60.7871094,45.6582031 C61.115236,46.0878928 61.5976531,46.3027344 62.234375,46.3027344 C62.8710969,46.3027344 63.3544905,46.0888693 63.6845703,45.6611328 C64.0146501,45.2333963 64.1796875,44.607426 64.1796875,43.7832031 C64.1796875,42.9667928 64.0146501,42.3466818 63.6845703,41.9228516 C63.3544905,41.4990213 62.8671907,41.2871094 62.2226562,41.2871094 C61.5859343,41.2871094 61.1054704,41.4960917 60.78125,41.9140625 C60.4570296,42.3320333 60.2949219,42.955074 60.2949219,43.7832031 L60.2949219,43.7832031 Z M71.2871094,47 L71.2871094,42.8457031 C71.2871094,42.322263 71.1679699,41.9316419 70.9296875,41.6738281 C70.6914051,41.4160143 70.3183619,41.2871094 69.8105469,41.2871094 C69.1386685,41.2871094 68.6464859,41.4687482 68.3339844,41.8320312 C68.0214828,42.1953143 67.8652344,42.7949177 67.8652344,43.6308594 L67.8652344,47 L66.8925781,47 L66.8925781,40.578125 L67.6835938,40.578125 L67.8417969,41.4570312 L67.8886719,41.4570312 C68.0878916,41.1406234 68.3671857,40.8955087 68.7265625,40.7216797 C69.0859393,40.5478507 69.4863259,40.4609375 69.9277344,40.4609375 C70.7011757,40.4609375 71.2832012,40.6474591 71.6738281,41.0205078 C72.0644551,41.3935566 72.2597656,41.9902303 72.2597656,42.8105469 L72.2597656,47 L71.2871094,47 Z M80.5332031,47 L79.5839844,47 L79.5839844,40.8945312 C79.5839844,40.3867162 79.5996092,39.9062523 79.6308594,39.453125 C79.5488277,39.5351567 79.4570318,39.6210933 79.3554688,39.7109375 C79.2539057,39.8007817 78.7890666,40.1816373 77.9609375,40.8535156 L77.4453125,40.1855469 L79.7128906,38.4335938 L80.5332031,38.4335938 L80.5332031,47 Z" id="Button-1" fill="#B2B2B2"></path>
                <path d="M23.8303571,39.5446429 C23.9553578,39.6696435 24.0624996,39.8392846 24.1517857,40.0535714 C24.2410719,40.2678582 24.2857143,40.4642848 24.2857143,40.6428571 L24.2857143,48.3571429 C24.2857143,48.5357152 24.2232149,48.6874994 24.0982143,48.8125 C23.9732137,48.9375006 23.8214295,49 23.6428571,49 L14.6428571,49 C14.4642848,49 14.3125006,48.9375006 14.1875,48.8125 C14.0624994,48.6874994 14,48.5357152 14,48.3571429 L14,37.6428571 C14,37.4642848 14.0624994,37.3125006 14.1875,37.1875 C14.3125006,37.0624994 14.4642848,37 14.6428571,37 L20.6428571,37 C20.8214295,37 21.0178561,37.0446424 21.2321429,37.1339286 C21.4464296,37.2232147 21.6160708,37.3303565 21.7410714,37.4553571 L23.8303571,39.5446429 Z M20.8571429,37.9107143 L20.8571429,40.4285714 L23.375,40.4285714 C23.3303569,40.2991065 23.2812503,40.2075896 23.2276786,40.1540179 L21.1316964,38.0580357 C21.0781247,38.004464 20.9866078,37.9553574 20.8571429,37.9107143 L20.8571429,37.9107143 Z M23.4285714,48.1428571 L23.4285714,41.2857143 L20.6428571,41.2857143 C20.4642848,41.2857143 20.3125006,41.2232149 20.1875,41.0982143 C20.0624994,40.9732137 20,40.8214295 20,40.6428571 L20,37.8571429 L14.8571429,37.8571429 L14.8571429,48.1428571 L23.4285714,48.1428571 Z" id="-copy-12" fill="#B2B2B2"></path>
                <path d="M177.177734,38.4335938 L179.597656,38.4335938 C180.734381,38.4335938 181.556638,38.6035139 182.064453,38.9433594 C182.572268,39.2832048 182.826172,39.8203088 182.826172,40.5546875 C182.826172,41.0625025 182.684572,41.4814437 182.401367,41.8115234 C182.118163,42.1416032 181.705081,42.3554683 181.162109,42.453125 L181.162109,42.5117188 C182.462897,42.7343761 183.113281,43.417963 183.113281,44.5625 C183.113281,45.3281288 182.854495,45.9257791 182.336914,46.3554688 C181.819333,46.7851584 181.095708,47 180.166016,47 L177.177734,47 L177.177734,38.4335938 Z M178.173828,42.1015625 L179.814453,42.1015625 C180.517582,42.1015625 181.023436,41.991212 181.332031,41.7705078 C181.640627,41.5498036 181.794922,41.177737 181.794922,40.6542969 C181.794922,40.1738257 181.623049,39.8271495 181.279297,39.6142578 C180.935545,39.4013661 180.388676,39.2949219 179.638672,39.2949219 L178.173828,39.2949219 L178.173828,42.1015625 Z M178.173828,42.9453125 L178.173828,46.1503906 L179.960938,46.1503906 C180.652347,46.1503906 181.17285,46.0166029 181.522461,45.7490234 C181.872072,45.481444 182.046875,45.0625029 182.046875,44.4921875 C182.046875,43.9609348 181.868166,43.5703137 181.510742,43.3203125 C181.153319,43.0703113 180.609379,42.9453125 179.878906,42.9453125 L178.173828,42.9453125 Z M185.720703,40.578125 L185.720703,44.7441406 C185.720703,45.2675807 185.839843,45.6582018 186.078125,45.9160156 C186.316407,46.1738294 186.689451,46.3027344 187.197266,46.3027344 C187.869144,46.3027344 188.36035,46.1191425 188.670898,45.7519531 C188.981447,45.3847638 189.136719,44.7851604 189.136719,43.953125 L189.136719,40.578125 L190.109375,40.578125 L190.109375,47 L189.306641,47 L189.166016,46.1386719 L189.113281,46.1386719 C188.914062,46.4550797 188.637697,46.6972648 188.28418,46.8652344 C187.930662,47.033204 187.527346,47.1171875 187.074219,47.1171875 C186.292965,47.1171875 185.70801,46.9316425 185.319336,46.5605469 C184.930662,46.1894513 184.736328,45.5957072 184.736328,44.7792969 L184.736328,40.578125 L185.720703,40.578125 Z M194.246094,46.3144531 C194.41797,46.3144531 194.583984,46.3017579 194.744141,46.2763672 C194.904298,46.2509764 195.03125,46.2246095 195.125,46.1972656 L195.125,46.9414062 C195.019531,46.9921878 194.864259,47.0341795 194.65918,47.0673828 C194.454101,47.1005861 194.269532,47.1171875 194.105469,47.1171875 C192.863275,47.1171875 192.242188,46.4628972 192.242188,45.1542969 L192.242188,41.3339844 L191.322266,41.3339844 L191.322266,40.8652344 L192.242188,40.4609375 L192.652344,39.0898438 L193.214844,39.0898438 L193.214844,40.578125 L195.078125,40.578125 L195.078125,41.3339844 L193.214844,41.3339844 L193.214844,45.1132812 C193.214844,45.5000019 193.30664,45.796874 193.490234,46.0039062 C193.673829,46.2109385 193.92578,46.3144531 194.246094,46.3144531 L194.246094,46.3144531 Z M198.482422,46.3144531 C198.654298,46.3144531 198.820312,46.3017579 198.980469,46.2763672 C199.140626,46.2509764 199.267578,46.2246095 199.361328,46.1972656 L199.361328,46.9414062 C199.255859,46.9921878 199.100587,47.0341795 198.895508,47.0673828 C198.690429,47.1005861 198.50586,47.1171875 198.341797,47.1171875 C197.099603,47.1171875 196.478516,46.4628972 196.478516,45.1542969 L196.478516,41.3339844 L195.558594,41.3339844 L195.558594,40.8652344 L196.478516,40.4609375 L196.888672,39.0898438 L197.451172,39.0898438 L197.451172,40.578125 L199.314453,40.578125 L199.314453,41.3339844 L197.451172,41.3339844 L197.451172,45.1132812 C197.451172,45.5000019 197.542968,45.796874 197.726562,46.0039062 C197.910157,46.2109385 198.162108,46.3144531 198.482422,46.3144531 L198.482422,46.3144531 Z M206.1875,43.7832031 C206.1875,44.8300834 205.923831,45.647458 205.396484,46.2353516 C204.869138,46.8232451 204.14063,47.1171875 203.210938,47.1171875 C202.636716,47.1171875 202.126955,46.9824232 201.681641,46.7128906 C201.236326,46.443358 200.892579,46.0566431 200.650391,45.5527344 C200.408202,45.0488256 200.287109,44.4589878 200.287109,43.7832031 C200.287109,42.7363229 200.548826,41.9209014 201.072266,41.3369141 C201.595706,40.7529268 202.322261,40.4609375 203.251953,40.4609375 C204.150395,40.4609375 204.864255,40.7597626 205.393555,41.3574219 C205.922854,41.9550811 206.1875,42.7636668 206.1875,43.7832031 L206.1875,43.7832031 Z M201.294922,43.7832031 C201.294922,44.6035197 201.458983,45.2285135 201.787109,45.6582031 C202.115236,46.0878928 202.597653,46.3027344 203.234375,46.3027344 C203.871097,46.3027344 204.354491,46.0888693 204.68457,45.6611328 C205.01465,45.2333963 205.179688,44.607426 205.179688,43.7832031 C205.179688,42.9667928 205.01465,42.3466818 204.68457,41.9228516 C204.354491,41.4990213 203.867191,41.2871094 203.222656,41.2871094 C202.585934,41.2871094 202.10547,41.4960917 201.78125,41.9140625 C201.45703,42.3320333 201.294922,42.955074 201.294922,43.7832031 L201.294922,43.7832031 Z M212.287109,47 L212.287109,42.8457031 C212.287109,42.322263 212.16797,41.9316419 211.929688,41.6738281 C211.691405,41.4160143 211.318362,41.2871094 210.810547,41.2871094 C210.138669,41.2871094 209.646486,41.4687482 209.333984,41.8320312 C209.021483,42.1953143 208.865234,42.7949177 208.865234,43.6308594 L208.865234,47 L207.892578,47 L207.892578,40.578125 L208.683594,40.578125 L208.841797,41.4570312 L208.888672,41.4570312 C209.087892,41.1406234 209.367186,40.8955087 209.726562,40.7216797 C210.085939,40.5478507 210.486326,40.4609375 210.927734,40.4609375 C211.701176,40.4609375 212.283201,40.6474591 212.673828,41.0205078 C213.064455,41.3935566 213.259766,41.9902303 213.259766,42.8105469 L213.259766,47 L212.287109,47 Z M223.560547,47 L217.929688,47 L217.929688,46.1621094 L220.185547,43.8945312 C220.87305,43.1992153 221.326171,42.7031265 221.544922,42.40625 C221.763673,42.1093735 221.927734,41.8203139 222.037109,41.5390625 C222.146485,41.2578111 222.201172,40.9550797 222.201172,40.6308594 C222.201172,40.1738258 222.062501,39.8115248 221.785156,39.5439453 C221.507811,39.2763658 221.123049,39.1425781 220.630859,39.1425781 C220.275389,39.1425781 219.938478,39.2011713 219.620117,39.3183594 C219.301756,39.4355475 218.947268,39.648436 218.556641,39.9570312 L218.041016,39.2949219 C218.830082,38.6386686 219.689448,38.3105469 220.619141,38.3105469 C221.423832,38.3105469 222.054685,38.5165995 222.511719,38.9287109 C222.968752,39.3408224 223.197266,39.8945278 223.197266,40.5898438 C223.197266,41.1328152 223.044923,41.6699192 222.740234,42.2011719 C222.435545,42.7324245 221.865239,43.4042928 221.029297,44.2167969 L219.154297,46.0507812 L219.154297,46.0976562 L223.560547,46.0976562 L223.560547,47 Z" id="Button-2" fill="#B2B2B2"></path>
                <path d="M164.830357,39.5446429 C164.955358,39.6696435 165.0625,39.8392846 165.151786,40.0535714 C165.241072,40.2678582 165.285714,40.4642848 165.285714,40.6428571 L165.285714,48.3571429 C165.285714,48.5357152 165.223215,48.6874994 165.098214,48.8125 C164.973214,48.9375006 164.821429,49 164.642857,49 L155.642857,49 C155.464285,49 155.312501,48.9375006 155.1875,48.8125 C155.062499,48.6874994 155,48.5357152 155,48.3571429 L155,37.6428571 C155,37.4642848 155.062499,37.3125006 155.1875,37.1875 C155.312501,37.0624994 155.464285,37 155.642857,37 L161.642857,37 C161.821429,37 162.017856,37.0446424 162.232143,37.1339286 C162.44643,37.2232147 162.616071,37.3303565 162.741071,37.4553571 L164.830357,39.5446429 Z M161.857143,37.9107143 L161.857143,40.4285714 L164.375,40.4285714 C164.330357,40.2991065 164.28125,40.2075896 164.227679,40.1540179 L162.131696,38.0580357 C162.078125,38.004464 161.986608,37.9553574 161.857143,37.9107143 L161.857143,37.9107143 Z M164.428571,48.1428571 L164.428571,41.2857143 L161.642857,41.2857143 C161.464285,41.2857143 161.312501,41.2232149 161.1875,41.0982143 C161.062499,40.9732137 161,40.8214295 161,40.6428571 L161,37.8571429 L155.857143,37.8571429 L155.857143,48.1428571 L164.428571,48.1428571 Z" id="-copy-13" fill="#B2B2B2"></path>
                <path d="M311.177734,38.4335938 L313.597656,38.4335938 C314.734381,38.4335938 315.556638,38.6035139 316.064453,38.9433594 C316.572268,39.2832048 316.826172,39.8203088 316.826172,40.5546875 C316.826172,41.0625025 316.684572,41.4814437 316.401367,41.8115234 C316.118163,42.1416032 315.705081,42.3554683 315.162109,42.453125 L315.162109,42.5117188 C316.462897,42.7343761 317.113281,43.417963 317.113281,44.5625 C317.113281,45.3281288 316.854495,45.9257791 316.336914,46.3554688 C315.819333,46.7851584 315.095708,47 314.166016,47 L311.177734,47 L311.177734,38.4335938 Z M312.173828,42.1015625 L313.814453,42.1015625 C314.517582,42.1015625 315.023436,41.991212 315.332031,41.7705078 C315.640627,41.5498036 315.794922,41.177737 315.794922,40.6542969 C315.794922,40.1738257 315.623049,39.8271495 315.279297,39.6142578 C314.935545,39.4013661 314.388676,39.2949219 313.638672,39.2949219 L312.173828,39.2949219 L312.173828,42.1015625 Z M312.173828,42.9453125 L312.173828,46.1503906 L313.960938,46.1503906 C314.652347,46.1503906 315.17285,46.0166029 315.522461,45.7490234 C315.872072,45.481444 316.046875,45.0625029 316.046875,44.4921875 C316.046875,43.9609348 315.868166,43.5703137 315.510742,43.3203125 C315.153319,43.0703113 314.609379,42.9453125 313.878906,42.9453125 L312.173828,42.9453125 Z M319.720703,40.578125 L319.720703,44.7441406 C319.720703,45.2675807 319.839843,45.6582018 320.078125,45.9160156 C320.316407,46.1738294 320.689451,46.3027344 321.197266,46.3027344 C321.869144,46.3027344 322.36035,46.1191425 322.670898,45.7519531 C322.981447,45.3847638 323.136719,44.7851604 323.136719,43.953125 L323.136719,40.578125 L324.109375,40.578125 L324.109375,47 L323.306641,47 L323.166016,46.1386719 L323.113281,46.1386719 C322.914062,46.4550797 322.637697,46.6972648 322.28418,46.8652344 C321.930662,47.033204 321.527346,47.1171875 321.074219,47.1171875 C320.292965,47.1171875 319.70801,46.9316425 319.319336,46.5605469 C318.930662,46.1894513 318.736328,45.5957072 318.736328,44.7792969 L318.736328,40.578125 L319.720703,40.578125 Z M328.246094,46.3144531 C328.41797,46.3144531 328.583984,46.3017579 328.744141,46.2763672 C328.904298,46.2509764 329.03125,46.2246095 329.125,46.1972656 L329.125,46.9414062 C329.019531,46.9921878 328.864259,47.0341795 328.65918,47.0673828 C328.454101,47.1005861 328.269532,47.1171875 328.105469,47.1171875 C326.863275,47.1171875 326.242188,46.4628972 326.242188,45.1542969 L326.242188,41.3339844 L325.322266,41.3339844 L325.322266,40.8652344 L326.242188,40.4609375 L326.652344,39.0898438 L327.214844,39.0898438 L327.214844,40.578125 L329.078125,40.578125 L329.078125,41.3339844 L327.214844,41.3339844 L327.214844,45.1132812 C327.214844,45.5000019 327.30664,45.796874 327.490234,46.0039062 C327.673829,46.2109385 327.92578,46.3144531 328.246094,46.3144531 L328.246094,46.3144531 Z M332.482422,46.3144531 C332.654298,46.3144531 332.820312,46.3017579 332.980469,46.2763672 C333.140626,46.2509764 333.267578,46.2246095 333.361328,46.1972656 L333.361328,46.9414062 C333.255859,46.9921878 333.100587,47.0341795 332.895508,47.0673828 C332.690429,47.1005861 332.50586,47.1171875 332.341797,47.1171875 C331.099603,47.1171875 330.478516,46.4628972 330.478516,45.1542969 L330.478516,41.3339844 L329.558594,41.3339844 L329.558594,40.8652344 L330.478516,40.4609375 L330.888672,39.0898438 L331.451172,39.0898438 L331.451172,40.578125 L333.314453,40.578125 L333.314453,41.3339844 L331.451172,41.3339844 L331.451172,45.1132812 C331.451172,45.5000019 331.542968,45.796874 331.726562,46.0039062 C331.910157,46.2109385 332.162108,46.3144531 332.482422,46.3144531 L332.482422,46.3144531 Z M340.1875,43.7832031 C340.1875,44.8300834 339.923831,45.647458 339.396484,46.2353516 C338.869138,46.8232451 338.14063,47.1171875 337.210938,47.1171875 C336.636716,47.1171875 336.126955,46.9824232 335.681641,46.7128906 C335.236326,46.443358 334.892579,46.0566431 334.650391,45.5527344 C334.408202,45.0488256 334.287109,44.4589878 334.287109,43.7832031 C334.287109,42.7363229 334.548826,41.9209014 335.072266,41.3369141 C335.595706,40.7529268 336.322261,40.4609375 337.251953,40.4609375 C338.150395,40.4609375 338.864255,40.7597626 339.393555,41.3574219 C339.922854,41.9550811 340.1875,42.7636668 340.1875,43.7832031 L340.1875,43.7832031 Z M335.294922,43.7832031 C335.294922,44.6035197 335.458983,45.2285135 335.787109,45.6582031 C336.115236,46.0878928 336.597653,46.3027344 337.234375,46.3027344 C337.871097,46.3027344 338.354491,46.0888693 338.68457,45.6611328 C339.01465,45.2333963 339.179688,44.607426 339.179688,43.7832031 C339.179688,42.9667928 339.01465,42.3466818 338.68457,41.9228516 C338.354491,41.4990213 337.867191,41.2871094 337.222656,41.2871094 C336.585934,41.2871094 336.10547,41.4960917 335.78125,41.9140625 C335.45703,42.3320333 335.294922,42.955074 335.294922,43.7832031 L335.294922,43.7832031 Z M346.287109,47 L346.287109,42.8457031 C346.287109,42.322263 346.16797,41.9316419 345.929688,41.6738281 C345.691405,41.4160143 345.318362,41.2871094 344.810547,41.2871094 C344.138669,41.2871094 343.646486,41.4687482 343.333984,41.8320312 C343.021483,42.1953143 342.865234,42.7949177 342.865234,43.6308594 L342.865234,47 L341.892578,47 L341.892578,40.578125 L342.683594,40.578125 L342.841797,41.4570312 L342.888672,41.4570312 C343.087892,41.1406234 343.367186,40.8955087 343.726562,40.7216797 C344.085939,40.5478507 344.486326,40.4609375 344.927734,40.4609375 C345.701176,40.4609375 346.283201,40.6474591 346.673828,41.0205078 C347.064455,41.3935566 347.259766,41.9902303 347.259766,42.8105469 L347.259766,47 L346.287109,47 Z M357.238281,40.4492188 C357.238281,40.9960965 357.084962,41.4433576 356.77832,41.7910156 C356.471678,42.1386736 356.037112,42.3710932 355.474609,42.4882812 L355.474609,42.5351562 C356.162113,42.6210942 356.671873,42.839842 357.003906,43.1914062 C357.335939,43.5429705 357.501953,44.0039034 357.501953,44.5742188 C357.501953,45.3906291 357.218753,46.0185525 356.652344,46.4580078 C356.085935,46.8974631 355.281255,47.1171875 354.238281,47.1171875 C353.785154,47.1171875 353.370119,47.0830082 352.993164,47.0146484 C352.616209,46.9462887 352.250002,46.8261727 351.894531,46.6542969 L351.894531,45.7285156 C352.265627,45.9121103 352.661131,46.0517573 353.081055,46.1474609 C353.500979,46.2431645 353.898436,46.2910156 354.273438,46.2910156 C355.753914,46.2910156 356.494141,45.7109433 356.494141,44.5507812 C356.494141,43.5117136 355.677743,42.9921875 354.044922,42.9921875 L353.201172,42.9921875 L353.201172,42.1542969 L354.056641,42.1542969 C354.724613,42.1542969 355.253904,42.0068374 355.644531,41.7119141 C356.035158,41.4169907 356.230469,41.0078151 356.230469,40.484375 C356.230469,40.0664042 356.086915,39.7382824 355.799805,39.5 C355.512694,39.2617176 355.123049,39.1425781 354.630859,39.1425781 C354.255857,39.1425781 353.902345,39.1933589 353.570312,39.2949219 C353.23828,39.3964849 352.859377,39.583983 352.433594,39.8574219 L351.941406,39.2011719 C352.292971,38.9238267 352.69824,38.7060555 353.157227,38.5478516 C353.616213,38.3896476 354.099607,38.3105469 354.607422,38.3105469 C355.439457,38.3105469 356.085935,38.5009747 356.546875,38.8818359 C357.007815,39.2626972 357.238281,39.7851529 357.238281,40.4492188 L357.238281,40.4492188 Z" id="Button-3" fill="#B2B2B2"></path>
                <path d="M298.830357,39.5446429 C298.955358,39.6696435 299.0625,39.8392846 299.151786,40.0535714 C299.241072,40.2678582 299.285714,40.4642848 299.285714,40.6428571 L299.285714,48.3571429 C299.285714,48.5357152 299.223215,48.6874994 299.098214,48.8125 C298.973214,48.9375006 298.821429,49 298.642857,49 L289.642857,49 C289.464285,49 289.312501,48.9375006 289.1875,48.8125 C289.062499,48.6874994 289,48.5357152 289,48.3571429 L289,37.6428571 C289,37.4642848 289.062499,37.3125006 289.1875,37.1875 C289.312501,37.0624994 289.464285,37 289.642857,37 L295.642857,37 C295.821429,37 296.017856,37.0446424 296.232143,37.1339286 C296.44643,37.2232147 296.616071,37.3303565 296.741071,37.4553571 L298.830357,39.5446429 Z M295.857143,37.9107143 L295.857143,40.4285714 L298.375,40.4285714 C298.330357,40.2991065 298.28125,40.2075896 298.227679,40.1540179 L296.131696,38.0580357 C296.078125,38.004464 295.986608,37.9553574 295.857143,37.9107143 L295.857143,37.9107143 Z M298.428571,48.1428571 L298.428571,41.2857143 L295.642857,41.2857143 C295.464285,41.2857143 295.312501,41.2232149 295.1875,41.0982143 C295.062499,40.9732137 295,40.8214295 295,40.6428571 L295,37.8571429 L289.857143,37.8571429 L289.857143,48.1428571 L298.428571,48.1428571 Z" id="-copy-14" fill="#B2B2B2"></path>
                <path d="M49.794,0.662 L51.166,0.662 L54.82,10 L53.322,10 L52.356,7.396 L48.52,7.396 L47.554,10 L46.14,10 L49.794,0.662 Z M51.95,6.262 L50.438,2.16 L48.912,6.262 L51.95,6.262 Z M61.498,9.104 C61.2086652,9.4306683 60.8516688,9.69433233 60.427,9.895 C60.0023312,10.0956677 59.5100028,10.196 58.95,10.196 C58.4273307,10.196 57.9536688,10.1096675 57.529,9.937 C57.1043312,9.76433247 56.7450015,9.52633485 56.451,9.223 C56.1569985,8.91966515 55.9306675,8.55566879 55.772,8.131 C55.6133325,7.70633121 55.534,7.24200252 55.534,6.738 C55.534,6.26199762 55.6179992,5.8140021 55.786,5.394 C55.9540008,4.9739979 56.1896651,4.60766823 56.493,4.295 C56.7963348,3.98233177 57.1556646,3.73500091 57.571,3.553 C57.9863354,3.37099909 58.4459975,3.28 58.95,3.28 C59.5006694,3.28 59.9859979,3.37799902 60.406,3.574 C60.8260021,3.77000098 61.1853318,4.03599832 61.484,4.372 L60.658,5.17 C60.461999,4.92733212 60.2240014,4.7360007 59.944,4.596 C59.6639986,4.4559993 59.3326686,4.386 58.95,4.386 C58.6139983,4.386 58.3130013,4.44899937 58.047,4.575 C57.7809987,4.70100063 57.5570009,4.87366557 57.375,5.093 C57.1929991,5.31233443 57.0530005,5.56433191 56.955,5.849 C56.8569995,6.13366809 56.808,6.42999846 56.808,6.738 C56.808,7.03666816 56.8569995,7.32833191 56.955,7.613 C57.0530005,7.89766809 57.1929991,8.14966557 57.375,8.369 C57.5570009,8.58833443 57.7809987,8.76333268 58.047,8.894 C58.3130013,9.02466732 58.6139983,9.09 58.95,9.09 C59.3326686,9.09 59.6756651,9.01766739 59.979,8.873 C60.2823348,8.72833261 60.531999,8.53466788 60.728,8.292 L61.498,9.104 Z M63.304,4.54 L62.128,4.54 L62.128,3.49 L63.304,3.49 L63.304,1.362 L64.564,1.362 L64.564,3.49 L66.468,3.49 L66.468,4.54 L64.564,4.54 L64.564,7.746 C64.564,8.26866928 64.6456658,8.62799902 64.809,8.824 C64.9723341,9.02000098 65.2033318,9.118 65.502,9.118 C65.7446679,9.118 65.9453325,9.08066704 66.104,9.006 C66.2626675,8.93133296 66.4213325,8.81933408 66.58,8.67 L67.154,9.44 C66.883332,9.70133464 66.6056681,9.89033275 66.321,10.007 C66.0363319,10.1236673 65.698002,10.182 65.306,10.182 C64.6153299,10.182 64.1090016,9.9953352 63.787,9.622 C63.4649984,9.2486648 63.304,8.6653373 63.304,7.872 L63.304,4.54 Z M68.092,0.914 L69.506,0.914 L69.506,2.328 L68.092,2.328 L68.092,0.914 Z M68.176,3.49 L69.436,3.49 L69.436,10 L68.176,10 L68.176,3.49 Z M70.164,3.49 L71.606,3.49 L73.636,8.572 L75.652,3.49 L77.01,3.49 L74.224,10 L72.964,10 L70.164,3.49 Z M83.632,9.048 C83.557333,9.13200042 83.4453341,9.23933268 83.296,9.37 C83.1466659,9.50066732 82.9530012,9.62666606 82.715,9.748 C82.4769988,9.86933394 82.1970016,9.97433289 81.875,10.063 C81.5529984,10.1516671 81.1866687,10.196 80.776,10.196 C80.2719975,10.196 79.8100021,10.1120008 79.39,9.944 C78.9699979,9.77599916 78.6106682,9.53800154 78.312,9.23 C78.0133318,8.92199846 77.7823341,8.55333548 77.619,8.124 C77.4556658,7.69466452 77.374,7.21866928 77.374,6.696 C77.374,6.21999762 77.4533325,5.77433541 77.612,5.359 C77.7706675,4.94366459 77.9946652,4.58433485 78.284,4.281 C78.5733348,3.97766515 78.9163313,3.73733422 79.313,3.56 C79.7096686,3.38266578 80.1459976,3.294 80.622,3.294 C81.1820028,3.294 81.6626647,3.40133226 82.064,3.616 C82.4653353,3.83066774 82.794332,4.11533156 83.051,4.47 C83.3076679,4.82466844 83.4966661,5.23066438 83.618,5.688 C83.7393339,6.14533562 83.8,6.62133086 83.8,7.116 L78.662,7.116 C78.6713334,7.40533478 78.7343327,7.67133212 78.851,7.914 C78.9676672,8.15666788 79.123999,8.36666578 79.32,8.544 C79.516001,8.72133422 79.7399987,8.86133282 79.992,8.964 C80.2440013,9.06666718 80.5099986,9.118 80.79,9.118 C81.3406694,9.118 81.7933316,9.0246676 82.148,8.838 C82.5026684,8.6513324 82.7593325,8.46933422 82.918,8.292 L83.632,9.048 Z M82.498,6.178 C82.4606665,5.67399748 82.2833349,5.24466844 81.966,4.89 C81.6486651,4.53533156 81.2006696,4.358 80.622,4.358 C80.3233318,4.358 80.0550012,4.40933282 79.817,4.512 C79.5789988,4.61466718 79.3760008,4.74999916 79.208,4.918 C79.0399992,5.08600084 78.9093338,5.27966557 78.816,5.499 C78.7226662,5.71833443 78.6713334,5.9446655 78.662,6.178 L82.498,6.178 Z" id="Active-Copy" fill="#9B9B9B"></path>
                <path d="M181.064,0.662 L182.408,0.662 L182.408,10 L181.064,10 L181.064,0.662 Z M184.34,10 L184.34,4.162 C184.34,3.94733226 184.335333,3.7233345 184.326,3.49 L185.53,3.49 L185.572,4.47 C185.656,4.35799944 185.758666,4.23433401 185.88,4.099 C186.001334,3.96366599 186.150666,3.84000056 186.328,3.728 C186.505334,3.61599944 186.712999,3.52266704 186.951,3.448 C187.189001,3.37333296 187.457332,3.336 187.756,3.336 C188.605338,3.336 189.235331,3.58333086 189.646,4.078 C190.056669,4.57266914 190.262,5.24466242 190.262,6.094 L190.262,10 L189.002,10 L189.002,6.192 C189.002,5.5853303 188.871335,5.13966809 188.61,4.855 C188.348665,4.57033191 187.980002,4.428 187.504,4.428 C187.139998,4.428 186.836668,4.50266592 186.594,4.652 C186.351332,4.80133408 186.157667,4.99499881 186.013,5.233 C185.868333,5.47100119 185.763334,5.74166515 185.698,6.045 C185.632666,6.34833485 185.6,6.65866508 185.6,6.976 L185.6,10 L184.34,10 Z M196.03,9.216 C195.787332,9.5426683 195.467669,9.78533254 195.071,9.944 C194.674331,10.1026675 194.266002,10.182 193.846,10.182 C193.575332,10.182 193.307001,10.1470004 193.041,10.077 C192.774999,10.0069997 192.532334,9.89033415 192.313,9.727 C192.093666,9.56366585 191.916334,9.35366795 191.781,9.097 C191.645666,8.84033205 191.578,8.5253352 191.578,8.152 C191.578,7.4519965 191.822998,6.8920021 192.313,6.472 C192.803002,6.0519979 193.509995,5.842 194.434,5.842 C194.583334,5.842 194.741999,5.84666662 194.91,5.856 C195.078001,5.86533338 195.236666,5.87466662 195.386,5.884 C195.535334,5.89333338 195.665999,5.90266662 195.778,5.912 C195.890001,5.92133338 195.969333,5.93066662 196.016,5.94 L196.016,5.702 C196.016,5.21666424 195.869001,4.86900105 195.575,4.659 C195.280999,4.44899895 194.882003,4.344 194.378,4.344 C193.883331,4.344 193.491335,4.41166599 193.202,4.547 C192.912665,4.68233401 192.670001,4.8199993 192.474,4.96 L191.886,4.106 C191.998001,4.0126662 192.133333,3.9193338 192.292,3.826 C192.450667,3.7326662 192.637332,3.64633373 192.852,3.567 C193.066668,3.48766627 193.309332,3.42233359 193.58,3.371 C193.850668,3.31966641 194.163332,3.294 194.518,3.294 C195.358004,3.294 196.018331,3.49699797 196.499,3.903 C196.979669,4.30900203 197.22,4.8853296 197.22,5.632 L197.22,9.426 C197.22,9.65000112 197.224667,9.84133254 197.234,10 L196.058,10 L196.03,9.216 Z M196.016,6.92 C195.978666,6.91066662 195.906334,6.89900007 195.799,6.885 C195.691666,6.87099993 195.568001,6.85933338 195.428,6.85 C195.287999,6.84066662 195.138667,6.83133338 194.98,6.822 C194.821333,6.81266662 194.667334,6.808 194.518,6.808 C194.163332,6.808 193.876334,6.84999958 193.657,6.934 C193.437666,7.01800042 193.265001,7.12299937 193.139,7.249 C193.012999,7.37500063 192.926667,7.51499923 192.88,7.669 C192.833333,7.82300077 192.81,7.9699993 192.81,8.11 C192.81,8.46466844 192.931332,8.73299909 193.174,8.915 C193.416668,9.09700091 193.752665,9.188 194.182,9.188 C194.424668,9.188 194.655666,9.14600042 194.875,9.062 C195.094334,8.97799958 195.287999,8.8660007 195.456,8.726 C195.624001,8.5859993 195.759333,8.4226676 195.862,8.236 C195.964667,8.0493324 196.016,7.85800098 196.016,7.662 L196.016,6.92 Z M204.598,9.104 C204.308665,9.4306683 203.951669,9.69433233 203.527,9.895 C203.102331,10.0956677 202.610003,10.196 202.05,10.196 C201.527331,10.196 201.053669,10.1096675 200.629,9.937 C200.204331,9.76433247 199.845001,9.52633485 199.551,9.223 C199.256999,8.91966515 199.030667,8.55566879 198.872,8.131 C198.713333,7.70633121 198.634,7.24200252 198.634,6.738 C198.634,6.26199762 198.717999,5.8140021 198.886,5.394 C199.054001,4.9739979 199.289665,4.60766823 199.593,4.295 C199.896335,3.98233177 200.255665,3.73500091 200.671,3.553 C201.086335,3.37099909 201.545997,3.28 202.05,3.28 C202.600669,3.28 203.085998,3.37799902 203.506,3.574 C203.926002,3.77000098 204.285332,4.03599832 204.584,4.372 L203.758,5.17 C203.561999,4.92733212 203.324001,4.7360007 203.044,4.596 C202.763999,4.4559993 202.432669,4.386 202.05,4.386 C201.713998,4.386 201.413001,4.44899937 201.147,4.575 C200.880999,4.70100063 200.657001,4.87366557 200.475,5.093 C200.292999,5.31233443 200.153,5.56433191 200.055,5.849 C199.957,6.13366809 199.908,6.42999846 199.908,6.738 C199.908,7.03666816 199.957,7.32833191 200.055,7.613 C200.153,7.89766809 200.292999,8.14966557 200.475,8.369 C200.657001,8.58833443 200.880999,8.76333268 201.147,8.894 C201.413001,9.02466732 201.713998,9.09 202.05,9.09 C202.432669,9.09 202.775665,9.01766739 203.079,8.873 C203.382335,8.72833261 203.631999,8.53466788 203.828,8.292 L204.598,9.104 Z M206.404,4.54 L205.228,4.54 L205.228,3.49 L206.404,3.49 L206.404,1.362 L207.664,1.362 L207.664,3.49 L209.568,3.49 L209.568,4.54 L207.664,4.54 L207.664,7.746 C207.664,8.26866928 207.745666,8.62799902 207.909,8.824 C208.072334,9.02000098 208.303332,9.118 208.602,9.118 C208.844668,9.118 209.045333,9.08066704 209.204,9.006 C209.362667,8.93133296 209.521333,8.81933408 209.68,8.67 L210.254,9.44 C209.983332,9.70133464 209.705668,9.89033275 209.421,10.007 C209.136332,10.1236673 208.798002,10.182 208.406,10.182 C207.71533,10.182 207.209002,9.9953352 206.887,9.622 C206.564998,9.2486648 206.404,8.6653373 206.404,7.872 L206.404,4.54 Z M211.192,0.914 L212.606,0.914 L212.606,2.328 L211.192,2.328 L211.192,0.914 Z M211.276,3.49 L212.536,3.49 L212.536,10 L211.276,10 L211.276,3.49 Z M213.264,3.49 L214.706,3.49 L216.736,8.572 L218.752,3.49 L220.11,3.49 L217.324,10 L216.064,10 L213.264,3.49 Z M226.732,9.048 C226.657333,9.13200042 226.545334,9.23933268 226.396,9.37 C226.246666,9.50066732 226.053001,9.62666606 225.815,9.748 C225.576999,9.86933394 225.297002,9.97433289 224.975,10.063 C224.652998,10.1516671 224.286669,10.196 223.876,10.196 C223.371997,10.196 222.910002,10.1120008 222.49,9.944 C222.069998,9.77599916 221.710668,9.53800154 221.412,9.23 C221.113332,8.92199846 220.882334,8.55333548 220.719,8.124 C220.555666,7.69466452 220.474,7.21866928 220.474,6.696 C220.474,6.21999762 220.553333,5.77433541 220.712,5.359 C220.870667,4.94366459 221.094665,4.58433485 221.384,4.281 C221.673335,3.97766515 222.016331,3.73733422 222.413,3.56 C222.809669,3.38266578 223.245998,3.294 223.722,3.294 C224.282003,3.294 224.762665,3.40133226 225.164,3.616 C225.565335,3.83066774 225.894332,4.11533156 226.151,4.47 C226.407668,4.82466844 226.596666,5.23066438 226.718,5.688 C226.839334,6.14533562 226.9,6.62133086 226.9,7.116 L221.762,7.116 C221.771333,7.40533478 221.834333,7.67133212 221.951,7.914 C222.067667,8.15666788 222.223999,8.36666578 222.42,8.544 C222.616001,8.72133422 222.839999,8.86133282 223.092,8.964 C223.344001,9.06666718 223.609999,9.118 223.89,9.118 C224.440669,9.118 224.893332,9.0246676 225.248,8.838 C225.602668,8.6513324 225.859333,8.46933422 226.018,8.292 L226.732,9.048 Z M225.598,6.178 C225.560666,5.67399748 225.383335,5.24466844 225.066,4.89 C224.748665,4.53533156 224.30067,4.358 223.722,4.358 C223.423332,4.358 223.155001,4.40933282 222.917,4.512 C222.678999,4.61466718 222.476001,4.74999916 222.308,4.918 C222.139999,5.08600084 222.009334,5.27966557 221.916,5.499 C221.822666,5.71833443 221.771333,5.9446655 221.762,6.178 L225.598,6.178 Z" id="Inactive-Copy" fill="#9B9B9B"></path>
                <path d="M324.064,0.662 L325.408,0.662 L325.408,4.568 L330.518,4.568 L330.518,0.662 L331.862,0.662 L331.862,10 L330.518,10 L330.518,5.772 L325.408,5.772 L325.408,10 L324.064,10 L324.064,0.662 Z M336.93,10.196 C336.425997,10.196 335.964002,10.1050009 335.544,9.923 C335.123998,9.74099909 334.762335,9.49133492 334.459,9.174 C334.155665,8.85666508 333.917668,8.49033541 333.745,8.075 C333.572332,7.65966459 333.486,7.21400238 333.486,6.738 C333.486,6.26199762 333.572332,5.81633541 333.745,5.401 C333.917668,4.98566459 334.155665,4.61933492 334.459,4.302 C334.762335,3.98466508 335.123998,3.73500091 335.544,3.553 C335.964002,3.37099909 336.425997,3.28 336.93,3.28 C337.424669,3.28 337.881998,3.37099909 338.302,3.553 C338.722002,3.73500091 339.085998,3.98466508 339.394,4.302 C339.702002,4.61933492 339.942332,4.98566459 340.115,5.401 C340.287668,5.81633541 340.374,6.26199762 340.374,6.738 C340.374,7.21400238 340.287668,7.65966459 340.115,8.075 C339.942332,8.49033541 339.702002,8.85666508 339.394,9.174 C339.085998,9.49133492 338.722002,9.74099909 338.302,9.923 C337.881998,10.1050009 337.424669,10.196 336.93,10.196 L336.93,10.196 Z M336.93,9.104 C337.266002,9.104 337.569332,9.03633401 337.84,8.901 C338.110668,8.76566599 338.339332,8.58833443 338.526,8.369 C338.712668,8.14966557 338.855,7.89766809 338.953,7.613 C339.051,7.32833191 339.1,7.03666816 339.1,6.738 C339.1,6.44866522 339.051,6.16166809 338.953,5.877 C338.855,5.59233191 338.710334,5.33800112 338.519,5.114 C338.327666,4.88999888 338.099001,4.71033401 337.833,4.575 C337.566999,4.43966599 337.266002,4.372 336.93,4.372 C336.593998,4.372 336.290668,4.43966599 336.02,4.575 C335.749332,4.71033401 335.520668,4.88766557 335.334,5.107 C335.147332,5.32633443 335.005,5.57833191 334.907,5.863 C334.809,6.14766809 334.76,6.43933184 334.76,6.738 C334.76,7.03666816 334.809,7.3259986 334.907,7.606 C335.005,7.8860014 335.149666,8.13799888 335.341,8.362 C335.532334,8.58600112 335.760999,8.76566599 336.027,8.901 C336.293001,9.03633401 336.593998,9.104 336.93,9.104 L336.93,9.104 Z M340.668,3.49 L342.11,3.49 L344.14,8.572 L346.156,3.49 L347.514,3.49 L344.728,10 L343.468,10 L340.668,3.49 Z M354.136,9.048 C354.061333,9.13200042 353.949334,9.23933268 353.8,9.37 C353.650666,9.50066732 353.457001,9.62666606 353.219,9.748 C352.980999,9.86933394 352.701002,9.97433289 352.379,10.063 C352.056998,10.1516671 351.690669,10.196 351.28,10.196 C350.775997,10.196 350.314002,10.1120008 349.894,9.944 C349.473998,9.77599916 349.114668,9.53800154 348.816,9.23 C348.517332,8.92199846 348.286334,8.55333548 348.123,8.124 C347.959666,7.69466452 347.878,7.21866928 347.878,6.696 C347.878,6.21999762 347.957333,5.77433541 348.116,5.359 C348.274667,4.94366459 348.498665,4.58433485 348.788,4.281 C349.077335,3.97766515 349.420331,3.73733422 349.817,3.56 C350.213669,3.38266578 350.649998,3.294 351.126,3.294 C351.686003,3.294 352.166665,3.40133226 352.568,3.616 C352.969335,3.83066774 353.298332,4.11533156 353.555,4.47 C353.811668,4.82466844 354.000666,5.23066438 354.122,5.688 C354.243334,6.14533562 354.304,6.62133086 354.304,7.116 L349.166,7.116 C349.175333,7.40533478 349.238333,7.67133212 349.355,7.914 C349.471667,8.15666788 349.627999,8.36666578 349.824,8.544 C350.020001,8.72133422 350.243999,8.86133282 350.496,8.964 C350.748001,9.06666718 351.013999,9.118 351.294,9.118 C351.844669,9.118 352.297332,9.0246676 352.652,8.838 C353.006668,8.6513324 353.263333,8.46933422 353.422,8.292 L354.136,9.048 Z M353.002,6.178 C352.964666,5.67399748 352.787335,5.24466844 352.47,4.89 C352.152665,4.53533156 351.70467,4.358 351.126,4.358 C350.827332,4.358 350.559001,4.40933282 350.321,4.512 C350.082999,4.61466718 349.880001,4.74999916 349.712,4.918 C349.543999,5.08600084 349.413334,5.27966557 349.32,5.499 C349.226666,5.71833443 349.175333,5.9446655 349.166,6.178 L353.002,6.178 Z M355.704,10 L355.704,4.12 C355.704,3.91466564 355.699333,3.70466774 355.69,3.49 L356.894,3.49 L356.936,4.54 C357.010667,4.42799944 357.108666,4.30433401 357.23,4.169 C357.351334,4.03366599 357.498332,3.91000056 357.671,3.798 C357.843668,3.68599944 358.044332,3.59033373 358.273,3.511 C358.501668,3.43166627 358.765332,3.392 359.064,3.392 C359.204001,3.392 359.332333,3.40133324 359.449,3.42 C359.565667,3.43866676 359.675333,3.46666648 359.778,3.504 L359.498,4.68 C359.329999,4.61466634 359.115335,4.582 358.854,4.582 C358.583332,4.582 358.333668,4.63333282 358.105,4.736 C357.876332,4.83866718 357.678001,4.98099909 357.51,5.163 C357.341999,5.34500091 357.209,5.55733212 357.111,5.8 C357.013,6.04266788 356.964,6.29933198 356.964,6.57 L356.964,10 L355.704,10 Z" id="Hover-Copy" fill="#9B9B9B"></path>
            </g>
        </g>
    </g>
</svg>