<?xml version="1.0" encoding="UTF-8" standalone="no"?>
<svg width="168px" height="40px" viewBox="0 0 168 40" version="1.1" xmlns="http://www.w3.org/2000/svg" xmlns:xlink="http://www.w3.org/1999/xlink">
    <!-- Generator: Sketch 40.2 (33826) - http://www.bohemiancoding.com/sketch -->
    <title>tlbr-4</title>
    <desc>Created with Sketch.</desc>
    <defs></defs>
    <g id="Components" stroke="none" stroke-width="1" fill="none" fill-rule="evenodd">
        <g id="Buttons" transform="translate(-325.000000, -1804.000000)">
            <g id="tlbr-4" transform="translate(325.000000, 1804.000000)">
                <rect id="Rectangle-19-Copy" fill="#333333" x="0" y="0" width="168" height="40"></rect>
                <rect id="Rectangle-20-Copy" fill="#262626" x="0" y="0" width="56" height="40"></rect>
                <rect id="Rectangle-19-Copy-6" fill="#474747" x="112" y="0" width="56" height="40"></rect>
                <text id="Button-1-Copy" font-family="OpenSans, Open Sans" font-size="9" font-weight="normal" fill="#B2B2B2">
                    <tspan x="10" y="32">Button 1</tspan>
                </text>
                <path d="M30.8303571,10.5446429 C30.9553578,10.6696435 31.0624996,10.8392846 31.1517857,11.0535714 C31.2410719,11.2678582 31.2857143,11.4642848 31.2857143,11.6428571 L31.2857143,19.3571429 C31.2857143,19.5357152 31.2232149,19.6874994 31.0982143,19.8125 C30.9732137,19.9375006 30.8214295,20 30.6428571,20 L21.6428571,20 C21.4642848,20 21.3125006,19.9375006 21.1875,19.8125 C21.0624994,19.6874994 21,19.5357152 21,19.3571429 L21,8.64285714 C21,8.46428482 21.0624994,8.31250062 21.1875,8.1875 C21.3125006,8.06249938 21.4642848,8 21.6428571,8 L27.6428571,8 C27.8214295,8 28.0178561,8.04464241 28.2321429,8.13392857 C28.4464296,8.22321473 28.6160708,8.33035652 28.7410714,8.45535714 L30.8303571,10.5446429 Z M27.8571429,8.91071429 L27.8571429,11.4285714 L30.375,11.4285714 C30.3303569,11.2991065 30.2812503,11.2075896 30.2276786,11.1540179 L28.1316964,9.05803571 C28.0781247,9.00446402 27.9866078,8.95535737 27.8571429,8.91071429 L27.8571429,8.91071429 Z M30.4285714,19.1428571 L30.4285714,12.2857143 L27.6428571,12.2857143 C27.4642848,12.2857143 27.3125006,12.2232149 27.1875,12.0982143 C27.0624994,11.9732137 27,11.8214295 27,11.6428571 L27,8.85714286 L21.8571429,8.85714286 L21.8571429,19.1428571 L30.4285714,19.1428571 Z" id="-copy-9" fill="#B2B2B2"></path>
                <text id="Button-2" font-family="OpenSans, Open Sans" font-size="9" font-weight="normal" fill="#B2B2B2">
                    <tspan x="66" y="32">Button 2</tspan>
                </text>
                <path d="M86.8303571,10.5446429 C86.9553578,10.6696435 87.0624996,10.8392846 87.1517857,11.0535714 C87.2410719,11.2678582 87.2857143,11.4642848 87.2857143,11.6428571 L87.2857143,19.3571429 C87.2857143,19.5357152 87.2232149,19.6874994 87.0982143,19.8125 C86.9732137,19.9375006 86.8214295,20 86.6428571,20 L77.6428571,20 C77.4642848,20 77.3125006,19.9375006 77.1875,19.8125 C77.0624994,19.6874994 77,19.5357152 77,19.3571429 L77,8.64285714 C77,8.46428482 77.0624994,8.31250062 77.1875,8.1875 C77.3125006,8.06249938 77.4642848,8 77.6428571,8 L83.6428571,8 C83.8214295,8 84.0178561,8.04464241 84.2321429,8.13392857 C84.4464296,8.22321473 84.6160708,8.33035652 84.7410714,8.45535714 L86.8303571,10.5446429 Z M83.8571429,8.91071429 L83.8571429,11.4285714 L86.375,11.4285714 C86.3303569,11.2991065 86.2812503,11.2075896 86.2276786,11.1540179 L84.1316964,9.05803571 C84.0781247,9.00446402 83.9866078,8.95535737 83.8571429,8.91071429 L83.8571429,8.91071429 Z M86.4285714,19.1428571 L86.4285714,12.2857143 L83.6428571,12.2857143 C83.4642848,12.2857143 83.3125006,12.2232149 83.1875,12.0982143 C83.0624994,11.9732137 83,11.8214295 83,11.6428571 L83,8.85714286 L77.8571429,8.85714286 L77.8571429,19.1428571 L86.4285714,19.1428571 Z" id="-copy-9" fill="#B2B2B2"></path>
                <text id="Button-3" font-family="OpenSans, Open Sans" font-size="9" font-weight="normal" fill="#B2B2B2">
                    <tspan x="121" y="32">Button 3</tspan>
                </text>
                <path d="M141.830357,10.5446429 C141.955358,10.6696435 142.0625,10.8392846 142.151786,11.0535714 C142.241072,11.2678582 142.285714,11.4642848 142.285714,11.6428571 L142.285714,19.3571429 C142.285714,19.5357152 142.223215,19.6874994 142.098214,19.8125 C141.973214,19.9375006 141.821429,20 141.642857,20 L132.642857,20 C132.464285,20 132.312501,19.9375006 132.1875,19.8125 C132.062499,19.6874994 132,19.5357152 132,19.3571429 L132,8.64285714 C132,8.46428482 132.062499,8.31250062 132.1875,8.1875 C132.312501,8.06249938 132.464285,8 132.642857,8 L138.642857,8 C138.821429,8 139.017856,8.04464241 139.232143,8.13392857 C139.44643,8.22321473 139.616071,8.33035652 139.741071,8.45535714 L141.830357,10.5446429 Z M138.857143,8.91071429 L138.857143,11.4285714 L141.375,11.4285714 C141.330357,11.2991065 141.28125,11.2075896 141.227679,11.1540179 L139.131696,9.05803571 C139.078125,9.00446402 138.986608,8.95535737 138.857143,8.91071429 L138.857143,8.91071429 Z M141.428571,19.1428571 L141.428571,12.2857143 L138.642857,12.2857143 C138.464285,12.2857143 138.312501,12.2232149 138.1875,12.0982143 C138.062499,11.9732137 138,11.8214295 138,11.6428571 L138,8.85714286 L132.857143,8.85714286 L132.857143,19.1428571 L141.428571,19.1428571 Z" id="-copy-9" fill="#B2B2B2"></path>
            </g>
        </g>
    </g>
</svg>