<?xml version="1.0" encoding="UTF-8" standalone="no"?>
<svg width="500px" height="266px" viewBox="0 0 500 266" version="1.1" xmlns="http://www.w3.org/2000/svg" xmlns:xlink="http://www.w3.org/1999/xlink">
    <!-- Generator: Sketch 40.2 (33826) - http://www.bohemiancoding.com/sketch -->
    <title>acrdn</title>
    <desc>Created with Sketch.</desc>
    <defs></defs>
    <g id="Components" stroke="none" stroke-width="1" fill="none" fill-rule="evenodd">
        <g id="Layouts" transform="translate(-325.000000, -640.000000)">
            <g id="acrdn" transform="translate(325.000000, 640.000000)">
                <rect id="Rectangle-11" fill="#FFFFFF" x="0" y="0" width="500" height="266"></rect>
                <rect id="Rectangle-12" fill="#F5F5F5" x="5" y="5" width="490" height="44"></rect>
                <rect id="Rectangle-12-Copy" fill="#F5F5F5" x="5" y="54" width="490" height="44"></rect>
                <rect id="Rectangle-12-Copy-2" fill="#F5F5F5" x="5" y="217" width="490" height="44"></rect>
                <path d="M21.4921875,21.1328125 C20.0598887,21.1328125 18.9322958,21.5911412 18.109375,22.5078125 C17.2864542,23.4244838 16.875,24.6796795 16.875,26.2734375 C16.875,27.903654 17.263017,29.1692663 18.0390625,30.0703125 C18.815108,30.9713587 19.924472,31.421875 21.3671875,31.421875 C22.3255256,31.421875 23.2057252,31.2994804 24.0078125,31.0546875 L24.0078125,31.7578125 C23.2526004,32.0234388 22.3099015,32.15625 21.1796875,32.15625 C19.5755128,32.15625 18.3125046,31.638026 17.390625,30.6015625 C16.4687454,29.565099 16.0078125,28.1171968 16.0078125,26.2578125 C16.0078125,25.0963484 16.2278624,24.0729211 16.6679688,23.1875 C17.1080751,22.3020789 17.7408813,21.618492 18.5664062,21.1367188 C19.3919312,20.6549455 20.351557,20.4140625 21.4453125,20.4140625 C22.5599014,20.4140625 23.5572873,20.6223938 24.4375,21.0390625 L24.1171875,21.7578125 C23.28385,21.3411438 22.4088588,21.1328125 21.4921875,21.1328125 L21.4921875,21.1328125 Z M31.515625,32 L31.3203125,30.65625 L31.2578125,30.65625 C30.830727,31.2031277 30.3919293,31.5898426 29.9414062,31.8164062 C29.4908832,32.0429699 28.9583364,32.15625 28.34375,32.15625 C27.5104125,32.15625 26.8619815,31.9427105 26.3984375,31.515625 C25.9348935,31.0885395 25.703125,30.4973996 25.703125,29.7421875 C25.703125,28.9140584 26.0481736,28.2708356 26.7382812,27.8125 C27.4283889,27.3541644 28.4270768,27.1119793 29.734375,27.0859375 L31.3515625,27.0390625 L31.3515625,26.4765625 C31.3515625,25.6692668 31.1875016,25.0598979 30.859375,24.6484375 C30.5312484,24.2369771 30.0026078,24.03125 29.2734375,24.03125 C28.4869752,24.03125 27.6718792,24.2499978 26.828125,24.6875 L26.5390625,24.015625 C27.4713588,23.5781228 28.3932246,23.359375 29.3046875,23.359375 C30.2369838,23.359375 30.9335914,23.6015601 31.3945312,24.0859375 C31.8554711,24.5703149 32.0859375,25.3255157 32.0859375,26.3515625 L32.0859375,32 L31.515625,32 Z M28.390625,31.453125 C29.2968795,31.453125 30.0117161,31.194013 30.5351562,30.6757812 C31.0585964,30.1575495 31.3203125,29.4375046 31.3203125,28.515625 L31.3203125,27.6796875 L29.8359375,27.7421875 C28.6432232,27.7994795 27.7929713,27.9856755 27.2851562,28.3007812 C26.7773412,28.615887 26.5234375,29.1067675 26.5234375,29.7734375 C26.5234375,30.3046902 26.6861963,30.7174464 27.0117188,31.0117188 C27.3372412,31.3059911 27.796872,31.453125 28.390625,31.453125 L28.390625,31.453125 Z M37.078125,31.46875 C37.5677108,31.46875 37.9947898,31.4270838 38.359375,31.34375 L38.359375,31.96875 C37.9843731,32.0937506 37.5520858,32.15625 37.0625,32.15625 C36.3124963,32.15625 35.7591164,31.9557312 35.4023438,31.5546875 C35.0455711,31.1536438 34.8671875,30.5234418 34.8671875,29.6640625 L34.8671875,24.1796875 L33.609375,24.1796875 L33.609375,23.7265625 L34.8671875,23.375 L35.2578125,21.453125 L35.65625,21.453125 L35.65625,23.5078125 L38.1484375,23.5078125 L38.1484375,24.1796875 L35.65625,24.1796875 L35.65625,29.5546875 C35.65625,30.2057324 35.7708322,30.6874984 36,31 C36.2291678,31.3125016 36.5885392,31.46875 37.078125,31.46875 L37.078125,31.46875 Z M43.625,32.15625 C42.3906188,32.15625 41.4283889,31.7760455 40.7382812,31.015625 C40.0481736,30.2552045 39.703125,29.190111 39.703125,27.8203125 C39.703125,26.4661391 40.036455,25.3815145 40.703125,24.5664062 C41.369795,23.751298 42.2682235,23.34375 43.3984375,23.34375 C44.3984425,23.34375 45.1874971,23.6927048 45.765625,24.390625 C46.3437529,25.0885452 46.6328125,26.0364523 46.6328125,27.234375 L46.6328125,27.859375 L40.515625,27.859375 C40.5260417,29.0260475 40.7981744,29.9166636 41.3320312,30.53125 C41.8658881,31.1458364 42.6302034,31.453125 43.625,31.453125 C44.1093774,31.453125 44.5351544,31.4192712 44.9023438,31.3515625 C45.2695331,31.2838538 45.7343722,31.138022 46.296875,30.9140625 L46.296875,31.6171875 C45.8177059,31.8255219 45.375002,31.9674475 44.96875,32.0429688 C44.562498,32.11849 44.1145858,32.15625 43.625,32.15625 L43.625,32.15625 Z M43.3984375,24.03125 C42.5807251,24.03125 41.9244816,24.3007786 41.4296875,24.8398438 C40.9348934,25.3789089 40.6458338,26.1562449 40.5625,27.171875 L45.8125,27.171875 C45.8125,26.1874951 45.5989605,25.4179715 45.171875,24.8632812 C44.7447895,24.308591 44.1536496,24.03125 43.3984375,24.03125 L43.3984375,24.03125 Z M55.6015625,23.5078125 L55.6015625,24.046875 L53.84375,24.15625 C54.3125023,24.7395862 54.546875,25.3802048 54.546875,26.078125 C54.546875,26.8958374 54.2747423,27.5585912 53.7304688,28.0664062 C53.1861952,28.5742213 52.4557338,28.828125 51.5390625,28.828125 C51.1536439,28.828125 50.8828133,28.8125002 50.7265625,28.78125 C50.4192693,28.9427091 50.1848966,29.1328114 50.0234375,29.3515625 C49.8619784,29.5703136 49.78125,29.8020821 49.78125,30.046875 C49.78125,30.3177097 49.8841136,30.5156244 50.0898438,30.640625 C50.2955739,30.7656256 50.6406226,30.828125 51.125,30.828125 L52.609375,30.828125 C53.5312546,30.828125 54.2369767,31.0143211 54.7265625,31.3867188 C55.2161483,31.7591164 55.4609375,32.3098922 55.4609375,33.0390625 C55.4609375,33.9349003 55.0976599,34.6262996 54.3710938,35.1132812 C53.6445276,35.6002629 52.6093817,35.84375 51.265625,35.84375 C50.1979113,35.84375 49.3710967,35.6380229 48.7851562,35.2265625 C48.1992158,34.8151021 47.90625,34.2421912 47.90625,33.5078125 C47.90625,32.9244762 48.0872378,32.4401061 48.4492188,32.0546875 C48.8111997,31.6692689 49.3020802,31.4062507 49.921875,31.265625 C49.6666654,31.1562495 49.4622404,31.0013031 49.3085938,30.8007812 C49.1549471,30.6002594 49.078125,30.369793 49.078125,30.109375 C49.078125,29.5416638 49.4401005,29.0416688 50.1640625,28.609375 C49.6692684,28.406249 49.2838555,28.0872418 49.0078125,27.6523438 C48.7317695,27.2174457 48.59375,26.7187528 48.59375,26.15625 C48.59375,25.3072874 48.8632786,24.6263046 49.4023438,24.1132812 C49.9414089,23.6002579 50.6692662,23.34375 51.5859375,23.34375 C52.143232,23.34375 52.5755193,23.398437 52.8828125,23.5078125 L55.6015625,23.5078125 Z M48.7265625,33.4375 C48.7265625,34.6041725 49.5937413,35.1875 51.328125,35.1875 C53.5573028,35.1875 54.671875,34.4765696 54.671875,33.0546875 C54.671875,32.5442683 54.4973976,32.1744803 54.1484375,31.9453125 C53.7994774,31.7161447 53.2343789,31.6015625 52.453125,31.6015625 L51.0625,31.6015625 C49.5052005,31.6015625 48.7265625,32.2135355 48.7265625,33.4375 L48.7265625,33.4375 Z M49.375,26.15625 C49.375,26.8125033 49.5742168,27.3216128 49.9726562,27.6835938 C50.3710957,28.0455747 50.9036425,28.2265625 51.5703125,28.2265625 C52.2786494,28.2265625 52.8216127,28.0468768 53.1992188,27.6875 C53.5768248,27.3281232 53.765625,26.8072951 53.765625,26.125 C53.765625,25.401038 53.5716165,24.8580747 53.1835938,24.4960938 C52.795571,24.1341128 52.2526077,23.953125 51.5546875,23.953125 C50.8776008,23.953125 50.345054,24.1471335 49.9570312,24.5351562 C49.5690085,24.923179 49.375,25.4635382 49.375,26.15625 L49.375,26.15625 Z M64.3671875,27.7421875 C64.3671875,29.1276111 64.0312534,30.2096315 63.359375,30.9882812 C62.6874966,31.766931 61.7604226,32.15625 60.578125,32.15625 C59.8333296,32.15625 59.1770862,31.9765643 58.609375,31.6171875 C58.0416638,31.2578107 57.6067723,30.7421909 57.3046875,30.0703125 C57.0026027,29.3984341 56.8515625,28.6224002 56.8515625,27.7421875 C56.8515625,26.3567639 57.1874966,25.2773476 57.859375,24.5039062 C58.5312534,23.7304649 59.4531191,23.34375 60.625,23.34375 C61.7916725,23.34375 62.7070279,23.7356732 63.3710938,24.5195312 C64.0351596,25.3033893 64.3671875,26.3775973 64.3671875,27.7421875 L64.3671875,27.7421875 Z M57.6640625,27.7421875 C57.6640625,28.90886 57.9205704,29.8190071 58.4335938,30.4726562 C58.9466171,31.1263054 59.6718703,31.453125 60.609375,31.453125 C61.5468797,31.453125 62.2721329,31.1263054 62.7851562,30.4726562 C63.2981796,29.8190071 63.5546875,28.90886 63.5546875,27.7421875 C63.5546875,26.5703066 63.2955755,25.6614616 62.7773438,25.015625 C62.259112,24.3697884 61.5312547,24.046875 60.59375,24.046875 C59.6562453,24.046875 58.9335963,24.3684864 58.4257812,25.0117188 C57.9179662,25.6549511 57.6640625,26.5650983 57.6640625,27.7421875 L57.6640625,27.7421875 Z M70.0625,23.34375 C70.4218768,23.34375 70.8072896,23.380208 71.21875,23.453125 L71.0703125,24.1953125 C70.7161441,24.1067704 70.3489602,24.0625 69.96875,24.0625 C69.244788,24.0625 68.651044,24.3697886 68.1875,24.984375 C67.723956,25.5989614 67.4921875,26.3749953 67.4921875,27.3125 L67.4921875,32 L66.71875,32 L66.71875,23.5078125 L67.375,23.5078125 L67.453125,25.0390625 L67.5078125,25.0390625 C67.8567726,24.4140594 68.2291647,23.9752617 68.625,23.7226562 C69.0208353,23.4700508 69.4999972,23.34375 70.0625,23.34375 L70.0625,23.34375 Z M71.5234375,23.5078125 L72.3203125,23.5078125 L74.1171875,28.2734375 C74.6640652,29.7369865 75.0104159,30.7239558 75.15625,31.234375 L75.203125,31.234375 C75.4218761,30.5624966 75.7786434,29.5599025 76.2734375,28.2265625 L78.0703125,23.5078125 L78.8671875,23.5078125 L75.0625,33.375 C74.7552068,34.1770873 74.4973969,34.7187486 74.2890625,35 C74.0807281,35.2812514 73.837241,35.4921868 73.5585938,35.6328125 C73.2799465,35.7734382 72.9427103,35.84375 72.546875,35.84375 C72.2499985,35.84375 71.9192727,35.789063 71.5546875,35.6796875 L71.5546875,35.0078125 C71.8567723,35.0911463 72.1822899,35.1328125 72.53125,35.1328125 C72.7968763,35.1328125 73.031249,35.0703131 73.234375,34.9453125 C73.437501,34.8203119 73.6210929,34.6263034 73.7851562,34.3632812 C73.9492196,34.1002591 74.1393218,33.6835966 74.3554688,33.1132812 C74.5716157,32.5429659 74.7109372,32.1718759 74.7734375,32 L71.5234375,23.5078125 Z M88.3515625,32 L87.5859375,32 L87.5859375,23.6796875 C87.5859375,22.9244754 87.6171872,22.1406291 87.6796875,21.328125 C87.6015621,21.4062504 87.5208338,21.4817705 87.4375,21.5546875 C87.3541662,21.6276045 86.5494868,22.2604107 85.0234375,23.453125 L84.578125,22.8984375 L87.6796875,20.578125 L88.3515625,20.578125 L88.3515625,32 Z" id="Category-1" fill="#4A4A4A"></path>
                <path d="M21.4921875,70.1328125 C20.0598887,70.1328125 18.9322958,70.5911412 18.109375,71.5078125 C17.2864542,72.4244838 16.875,73.6796795 16.875,75.2734375 C16.875,76.903654 17.263017,78.1692663 18.0390625,79.0703125 C18.815108,79.9713587 19.924472,80.421875 21.3671875,80.421875 C22.3255256,80.421875 23.2057252,80.2994804 24.0078125,80.0546875 L24.0078125,80.7578125 C23.2526004,81.0234388 22.3099015,81.15625 21.1796875,81.15625 C19.5755128,81.15625 18.3125046,80.638026 17.390625,79.6015625 C16.4687454,78.565099 16.0078125,77.1171968 16.0078125,75.2578125 C16.0078125,74.0963484 16.2278624,73.0729211 16.6679688,72.1875 C17.1080751,71.3020789 17.7408813,70.618492 18.5664062,70.1367188 C19.3919312,69.6549455 20.351557,69.4140625 21.4453125,69.4140625 C22.5599014,69.4140625 23.5572873,69.6223938 24.4375,70.0390625 L24.1171875,70.7578125 C23.28385,70.3411438 22.4088588,70.1328125 21.4921875,70.1328125 L21.4921875,70.1328125 Z M31.515625,81 L31.3203125,79.65625 L31.2578125,79.65625 C30.830727,80.2031277 30.3919293,80.5898426 29.9414062,80.8164062 C29.4908832,81.0429699 28.9583364,81.15625 28.34375,81.15625 C27.5104125,81.15625 26.8619815,80.9427105 26.3984375,80.515625 C25.9348935,80.0885395 25.703125,79.4973996 25.703125,78.7421875 C25.703125,77.9140584 26.0481736,77.2708356 26.7382812,76.8125 C27.4283889,76.3541644 28.4270768,76.1119793 29.734375,76.0859375 L31.3515625,76.0390625 L31.3515625,75.4765625 C31.3515625,74.6692668 31.1875016,74.0598979 30.859375,73.6484375 C30.5312484,73.2369771 30.0026078,73.03125 29.2734375,73.03125 C28.4869752,73.03125 27.6718792,73.2499978 26.828125,73.6875 L26.5390625,73.015625 C27.4713588,72.5781228 28.3932246,72.359375 29.3046875,72.359375 C30.2369838,72.359375 30.9335914,72.6015601 31.3945312,73.0859375 C31.8554711,73.5703149 32.0859375,74.3255157 32.0859375,75.3515625 L32.0859375,81 L31.515625,81 Z M28.390625,80.453125 C29.2968795,80.453125 30.0117161,80.194013 30.5351562,79.6757812 C31.0585964,79.1575495 31.3203125,78.4375046 31.3203125,77.515625 L31.3203125,76.6796875 L29.8359375,76.7421875 C28.6432232,76.7994795 27.7929713,76.9856755 27.2851562,77.3007812 C26.7773412,77.615887 26.5234375,78.1067675 26.5234375,78.7734375 C26.5234375,79.3046902 26.6861963,79.7174464 27.0117188,80.0117188 C27.3372412,80.3059911 27.796872,80.453125 28.390625,80.453125 L28.390625,80.453125 Z M37.078125,80.46875 C37.5677108,80.46875 37.9947898,80.4270838 38.359375,80.34375 L38.359375,80.96875 C37.9843731,81.0937506 37.5520858,81.15625 37.0625,81.15625 C36.3124963,81.15625 35.7591164,80.9557312 35.4023438,80.5546875 C35.0455711,80.1536438 34.8671875,79.5234418 34.8671875,78.6640625 L34.8671875,73.1796875 L33.609375,73.1796875 L33.609375,72.7265625 L34.8671875,72.375 L35.2578125,70.453125 L35.65625,70.453125 L35.65625,72.5078125 L38.1484375,72.5078125 L38.1484375,73.1796875 L35.65625,73.1796875 L35.65625,78.5546875 C35.65625,79.2057324 35.7708322,79.6874984 36,80 C36.2291678,80.3125016 36.5885392,80.46875 37.078125,80.46875 L37.078125,80.46875 Z M43.625,81.15625 C42.3906188,81.15625 41.4283889,80.7760455 40.7382812,80.015625 C40.0481736,79.2552045 39.703125,78.190111 39.703125,76.8203125 C39.703125,75.4661391 40.036455,74.3815145 40.703125,73.5664062 C41.369795,72.751298 42.2682235,72.34375 43.3984375,72.34375 C44.3984425,72.34375 45.1874971,72.6927048 45.765625,73.390625 C46.3437529,74.0885452 46.6328125,75.0364523 46.6328125,76.234375 L46.6328125,76.859375 L40.515625,76.859375 C40.5260417,78.0260475 40.7981744,78.9166636 41.3320312,79.53125 C41.8658881,80.1458364 42.6302034,80.453125 43.625,80.453125 C44.1093774,80.453125 44.5351544,80.4192712 44.9023438,80.3515625 C45.2695331,80.2838538 45.7343722,80.138022 46.296875,79.9140625 L46.296875,80.6171875 C45.8177059,80.8255219 45.375002,80.9674475 44.96875,81.0429688 C44.562498,81.11849 44.1145858,81.15625 43.625,81.15625 L43.625,81.15625 Z M43.3984375,73.03125 C42.5807251,73.03125 41.9244816,73.3007786 41.4296875,73.8398438 C40.9348934,74.3789089 40.6458338,75.1562449 40.5625,76.171875 L45.8125,76.171875 C45.8125,75.1874951 45.5989605,74.4179715 45.171875,73.8632812 C44.7447895,73.308591 44.1536496,73.03125 43.3984375,73.03125 L43.3984375,73.03125 Z M55.6015625,72.5078125 L55.6015625,73.046875 L53.84375,73.15625 C54.3125023,73.7395863 54.546875,74.3802048 54.546875,75.078125 C54.546875,75.8958374 54.2747423,76.5585912 53.7304688,77.0664062 C53.1861952,77.5742213 52.4557338,77.828125 51.5390625,77.828125 C51.1536439,77.828125 50.8828133,77.8125002 50.7265625,77.78125 C50.4192693,77.9427091 50.1848966,78.1328114 50.0234375,78.3515625 C49.8619784,78.5703136 49.78125,78.8020821 49.78125,79.046875 C49.78125,79.3177097 49.8841136,79.5156244 50.0898438,79.640625 C50.2955739,79.7656256 50.6406226,79.828125 51.125,79.828125 L52.609375,79.828125 C53.5312546,79.828125 54.2369767,80.0143211 54.7265625,80.3867188 C55.2161483,80.7591164 55.4609375,81.3098922 55.4609375,82.0390625 C55.4609375,82.9349003 55.0976599,83.6262996 54.3710938,84.1132812 C53.6445276,84.6002629 52.6093817,84.84375 51.265625,84.84375 C50.1979113,84.84375 49.3710967,84.6380229 48.7851562,84.2265625 C48.1992158,83.8151021 47.90625,83.2421912 47.90625,82.5078125 C47.90625,81.9244762 48.0872378,81.4401061 48.4492188,81.0546875 C48.8111997,80.6692689 49.3020802,80.4062507 49.921875,80.265625 C49.6666654,80.1562495 49.4622404,80.0013031 49.3085938,79.8007812 C49.1549471,79.6002594 49.078125,79.369793 49.078125,79.109375 C49.078125,78.5416638 49.4401005,78.0416688 50.1640625,77.609375 C49.6692684,77.406249 49.2838555,77.0872418 49.0078125,76.6523438 C48.7317695,76.2174457 48.59375,75.7187528 48.59375,75.15625 C48.59375,74.3072874 48.8632786,73.6263046 49.4023438,73.1132812 C49.9414089,72.6002579 50.6692662,72.34375 51.5859375,72.34375 C52.143232,72.34375 52.5755193,72.398437 52.8828125,72.5078125 L55.6015625,72.5078125 Z M48.7265625,82.4375 C48.7265625,83.6041725 49.5937413,84.1875 51.328125,84.1875 C53.5573028,84.1875 54.671875,83.4765696 54.671875,82.0546875 C54.671875,81.5442683 54.4973976,81.1744803 54.1484375,80.9453125 C53.7994774,80.7161447 53.2343789,80.6015625 52.453125,80.6015625 L51.0625,80.6015625 C49.5052005,80.6015625 48.7265625,81.2135355 48.7265625,82.4375 L48.7265625,82.4375 Z M49.375,75.15625 C49.375,75.8125033 49.5742168,76.3216128 49.9726562,76.6835938 C50.3710957,77.0455747 50.9036425,77.2265625 51.5703125,77.2265625 C52.2786494,77.2265625 52.8216127,77.0468768 53.1992188,76.6875 C53.5768248,76.3281232 53.765625,75.8072951 53.765625,75.125 C53.765625,74.401038 53.5716165,73.8580747 53.1835938,73.4960938 C52.795571,73.1341128 52.2526077,72.953125 51.5546875,72.953125 C50.8776008,72.953125 50.345054,73.1471335 49.9570312,73.5351562 C49.5690085,73.923179 49.375,74.4635382 49.375,75.15625 L49.375,75.15625 Z M64.3671875,76.7421875 C64.3671875,78.1276111 64.0312534,79.2096315 63.359375,79.9882812 C62.6874966,80.766931 61.7604226,81.15625 60.578125,81.15625 C59.8333296,81.15625 59.1770862,80.9765643 58.609375,80.6171875 C58.0416638,80.2578107 57.6067723,79.7421909 57.3046875,79.0703125 C57.0026027,78.3984341 56.8515625,77.6224002 56.8515625,76.7421875 C56.8515625,75.3567639 57.1874966,74.2773476 57.859375,73.5039062 C58.5312534,72.7304649 59.4531191,72.34375 60.625,72.34375 C61.7916725,72.34375 62.7070279,72.7356732 63.3710938,73.5195312 C64.0351596,74.3033893 64.3671875,75.3775973 64.3671875,76.7421875 L64.3671875,76.7421875 Z M57.6640625,76.7421875 C57.6640625,77.90886 57.9205704,78.8190071 58.4335938,79.4726562 C58.9466171,80.1263054 59.6718703,80.453125 60.609375,80.453125 C61.5468797,80.453125 62.2721329,80.1263054 62.7851562,79.4726562 C63.2981796,78.8190071 63.5546875,77.90886 63.5546875,76.7421875 C63.5546875,75.5703066 63.2955755,74.6614616 62.7773438,74.015625 C62.259112,73.3697884 61.5312547,73.046875 60.59375,73.046875 C59.6562453,73.046875 58.9335963,73.3684864 58.4257812,74.0117188 C57.9179662,74.6549511 57.6640625,75.5650983 57.6640625,76.7421875 L57.6640625,76.7421875 Z M70.0625,72.34375 C70.4218768,72.34375 70.8072896,72.380208 71.21875,72.453125 L71.0703125,73.1953125 C70.7161441,73.1067704 70.3489602,73.0625 69.96875,73.0625 C69.244788,73.0625 68.651044,73.3697886 68.1875,73.984375 C67.723956,74.5989614 67.4921875,75.3749953 67.4921875,76.3125 L67.4921875,81 L66.71875,81 L66.71875,72.5078125 L67.375,72.5078125 L67.453125,74.0390625 L67.5078125,74.0390625 C67.8567726,73.4140594 68.2291647,72.9752617 68.625,72.7226562 C69.0208353,72.4700508 69.4999972,72.34375 70.0625,72.34375 L70.0625,72.34375 Z M71.5234375,72.5078125 L72.3203125,72.5078125 L74.1171875,77.2734375 C74.6640652,78.7369865 75.0104159,79.7239558 75.15625,80.234375 L75.203125,80.234375 C75.4218761,79.5624966 75.7786434,78.5599025 76.2734375,77.2265625 L78.0703125,72.5078125 L78.8671875,72.5078125 L75.0625,82.375 C74.7552068,83.1770873 74.4973969,83.7187486 74.2890625,84 C74.0807281,84.2812514 73.837241,84.4921868 73.5585938,84.6328125 C73.2799465,84.7734382 72.9427103,84.84375 72.546875,84.84375 C72.2499985,84.84375 71.9192727,84.789063 71.5546875,84.6796875 L71.5546875,84.0078125 C71.8567723,84.0911463 72.1822899,84.1328125 72.53125,84.1328125 C72.7968763,84.1328125 73.031249,84.0703131 73.234375,83.9453125 C73.437501,83.8203119 73.6210929,83.6263034 73.7851562,83.3632812 C73.9492196,83.1002591 74.1393218,82.6835966 74.3554688,82.1132812 C74.5716157,81.5429659 74.7109372,81.1718759 74.7734375,81 L71.5234375,72.5078125 Z M91.0546875,81 L83.90625,81 L83.90625,80.3125 L86.9453125,77.140625 C87.7994834,76.2552039 88.3984358,75.5781273 88.7421875,75.109375 C89.0859392,74.6406227 89.3385409,74.1927105 89.5,73.765625 C89.6614591,73.3385395 89.7421875,72.8906273 89.7421875,72.421875 C89.7421875,71.7395799 89.5182314,71.184898 89.0703125,70.7578125 C88.6223936,70.330727 88.0416702,70.1171875 87.328125,70.1171875 C86.3749952,70.1171875 85.463546,70.4635382 84.59375,71.15625 L84.171875,70.6171875 C85.1250048,69.8151002 86.1822859,69.4140625 87.34375,69.4140625 C88.3385466,69.4140625 89.1210909,69.6796848 89.6914062,70.2109375 C90.2617216,70.7421902 90.546875,71.4739537 90.546875,72.40625 C90.546875,73.1614621 90.3554707,73.8919236 89.9726562,74.5976562 C89.5898418,75.3033889 88.8906301,76.174474 87.875,77.2109375 L84.9453125,80.21875 L84.9453125,80.25 L91.0546875,80.25 L91.0546875,81 Z" id="Category-2" fill="#4A4A4A"></path>
                <path d="M21.4921875,233.132812 C20.0598887,233.132812 18.9322958,233.591141 18.109375,234.507812 C17.2864542,235.424484 16.875,236.67968 16.875,238.273438 C16.875,239.903654 17.263017,241.169266 18.0390625,242.070312 C18.815108,242.971359 19.924472,243.421875 21.3671875,243.421875 C22.3255256,243.421875 23.2057252,243.29948 24.0078125,243.054688 L24.0078125,243.757812 C23.2526004,244.023439 22.3099015,244.15625 21.1796875,244.15625 C19.5755128,244.15625 18.3125046,243.638026 17.390625,242.601562 C16.4687454,241.565099 16.0078125,240.117197 16.0078125,238.257812 C16.0078125,237.096348 16.2278624,236.072921 16.6679688,235.1875 C17.1080751,234.302079 17.7408813,233.618492 18.5664062,233.136719 C19.3919312,232.654946 20.351557,232.414062 21.4453125,232.414062 C22.5599014,232.414062 23.5572873,232.622394 24.4375,233.039062 L24.1171875,233.757812 C23.28385,233.341144 22.4088588,233.132812 21.4921875,233.132812 L21.4921875,233.132812 Z M31.515625,244 L31.3203125,242.65625 L31.2578125,242.65625 C30.830727,243.203128 30.3919293,243.589843 29.9414062,243.816406 C29.4908832,244.04297 28.9583364,244.15625 28.34375,244.15625 C27.5104125,244.15625 26.8619815,243.94271 26.3984375,243.515625 C25.9348935,243.08854 25.703125,242.4974 25.703125,241.742188 C25.703125,240.914058 26.0481736,240.270836 26.7382812,239.8125 C27.4283889,239.354164 28.4270768,239.111979 29.734375,239.085938 L31.3515625,239.039062 L31.3515625,238.476562 C31.3515625,237.669267 31.1875016,237.059898 30.859375,236.648438 C30.5312484,236.236977 30.0026078,236.03125 29.2734375,236.03125 C28.4869752,236.03125 27.6718792,236.249998 26.828125,236.6875 L26.5390625,236.015625 C27.4713588,235.578123 28.3932246,235.359375 29.3046875,235.359375 C30.2369838,235.359375 30.9335914,235.60156 31.3945312,236.085938 C31.8554711,236.570315 32.0859375,237.325516 32.0859375,238.351562 L32.0859375,244 L31.515625,244 Z M28.390625,243.453125 C29.2968795,243.453125 30.0117161,243.194013 30.5351562,242.675781 C31.0585964,242.157549 31.3203125,241.437505 31.3203125,240.515625 L31.3203125,239.679688 L29.8359375,239.742188 C28.6432232,239.799479 27.7929713,239.985676 27.2851562,240.300781 C26.7773412,240.615887 26.5234375,241.106767 26.5234375,241.773438 C26.5234375,242.30469 26.6861963,242.717446 27.0117188,243.011719 C27.3372412,243.305991 27.796872,243.453125 28.390625,243.453125 L28.390625,243.453125 Z M37.078125,243.46875 C37.5677108,243.46875 37.9947898,243.427084 38.359375,243.34375 L38.359375,243.96875 C37.9843731,244.093751 37.5520858,244.15625 37.0625,244.15625 C36.3124963,244.15625 35.7591164,243.955731 35.4023438,243.554688 C35.0455711,243.153644 34.8671875,242.523442 34.8671875,241.664062 L34.8671875,236.179688 L33.609375,236.179688 L33.609375,235.726562 L34.8671875,235.375 L35.2578125,233.453125 L35.65625,233.453125 L35.65625,235.507812 L38.1484375,235.507812 L38.1484375,236.179688 L35.65625,236.179688 L35.65625,241.554688 C35.65625,242.205732 35.7708322,242.687498 36,243 C36.2291678,243.312502 36.5885392,243.46875 37.078125,243.46875 L37.078125,243.46875 Z M43.625,244.15625 C42.3906188,244.15625 41.4283889,243.776045 40.7382812,243.015625 C40.0481736,242.255205 39.703125,241.190111 39.703125,239.820312 C39.703125,238.466139 40.036455,237.381514 40.703125,236.566406 C41.369795,235.751298 42.2682235,235.34375 43.3984375,235.34375 C44.3984425,235.34375 45.1874971,235.692705 45.765625,236.390625 C46.3437529,237.088545 46.6328125,238.036452 46.6328125,239.234375 L46.6328125,239.859375 L40.515625,239.859375 C40.5260417,241.026048 40.7981744,241.916664 41.3320312,242.53125 C41.8658881,243.145836 42.6302034,243.453125 43.625,243.453125 C44.1093774,243.453125 44.5351544,243.419271 44.9023438,243.351562 C45.2695331,243.283854 45.7343722,243.138022 46.296875,242.914062 L46.296875,243.617188 C45.8177059,243.825522 45.375002,243.967448 44.96875,244.042969 C44.562498,244.11849 44.1145858,244.15625 43.625,244.15625 L43.625,244.15625 Z M43.3984375,236.03125 C42.5807251,236.03125 41.9244816,236.300779 41.4296875,236.839844 C40.9348934,237.378909 40.6458338,238.156245 40.5625,239.171875 L45.8125,239.171875 C45.8125,238.187495 45.5989605,237.417972 45.171875,236.863281 C44.7447895,236.308591 44.1536496,236.03125 43.3984375,236.03125 L43.3984375,236.03125 Z M55.6015625,235.507812 L55.6015625,236.046875 L53.84375,236.15625 C54.3125023,236.739586 54.546875,237.380205 54.546875,238.078125 C54.546875,238.895837 54.2747423,239.558591 53.7304688,240.066406 C53.1861952,240.574221 52.4557338,240.828125 51.5390625,240.828125 C51.1536439,240.828125 50.8828133,240.8125 50.7265625,240.78125 C50.4192693,240.942709 50.1848966,241.132811 50.0234375,241.351562 C49.8619784,241.570314 49.78125,241.802082 49.78125,242.046875 C49.78125,242.31771 49.8841136,242.515624 50.0898438,242.640625 C50.2955739,242.765626 50.6406226,242.828125 51.125,242.828125 L52.609375,242.828125 C53.5312546,242.828125 54.2369767,243.014321 54.7265625,243.386719 C55.2161483,243.759116 55.4609375,244.309892 55.4609375,245.039062 C55.4609375,245.9349 55.0976599,246.6263 54.3710938,247.113281 C53.6445276,247.600263 52.6093817,247.84375 51.265625,247.84375 C50.1979113,247.84375 49.3710967,247.638023 48.7851562,247.226562 C48.1992158,246.815102 47.90625,246.242191 47.90625,245.507812 C47.90625,244.924476 48.0872378,244.440106 48.4492188,244.054688 C48.8111997,243.669269 49.3020802,243.406251 49.921875,243.265625 C49.6666654,243.156249 49.4622404,243.001303 49.3085938,242.800781 C49.1549471,242.600259 49.078125,242.369793 49.078125,242.109375 C49.078125,241.541664 49.4401005,241.041669 50.1640625,240.609375 C49.6692684,240.406249 49.2838555,240.087242 49.0078125,239.652344 C48.7317695,239.217446 48.59375,238.718753 48.59375,238.15625 C48.59375,237.307287 48.8632786,236.626305 49.4023438,236.113281 C49.9414089,235.600258 50.6692662,235.34375 51.5859375,235.34375 C52.143232,235.34375 52.5755193,235.398437 52.8828125,235.507812 L55.6015625,235.507812 Z M48.7265625,245.4375 C48.7265625,246.604173 49.5937413,247.1875 51.328125,247.1875 C53.5573028,247.1875 54.671875,246.47657 54.671875,245.054688 C54.671875,244.544268 54.4973976,244.17448 54.1484375,243.945312 C53.7994774,243.716145 53.2343789,243.601562 52.453125,243.601562 L51.0625,243.601562 C49.5052005,243.601562 48.7265625,244.213536 48.7265625,245.4375 L48.7265625,245.4375 Z M49.375,238.15625 C49.375,238.812503 49.5742168,239.321613 49.9726562,239.683594 C50.3710957,240.045575 50.9036425,240.226562 51.5703125,240.226562 C52.2786494,240.226562 52.8216127,240.046877 53.1992188,239.6875 C53.5768248,239.328123 53.765625,238.807295 53.765625,238.125 C53.765625,237.401038 53.5716165,236.858075 53.1835938,236.496094 C52.795571,236.134113 52.2526077,235.953125 51.5546875,235.953125 C50.8776008,235.953125 50.345054,236.147133 49.9570312,236.535156 C49.5690085,236.923179 49.375,237.463538 49.375,238.15625 L49.375,238.15625 Z M64.3671875,239.742188 C64.3671875,241.127611 64.0312534,242.209632 63.359375,242.988281 C62.6874966,243.766931 61.7604226,244.15625 60.578125,244.15625 C59.8333296,244.15625 59.1770862,243.976564 58.609375,243.617188 C58.0416638,243.257811 57.6067723,242.742191 57.3046875,242.070312 C57.0026027,241.398434 56.8515625,240.6224 56.8515625,239.742188 C56.8515625,238.356764 57.1874966,237.277348 57.859375,236.503906 C58.5312534,235.730465 59.4531191,235.34375 60.625,235.34375 C61.7916725,235.34375 62.7070279,235.735673 63.3710938,236.519531 C64.0351596,237.303389 64.3671875,238.377597 64.3671875,239.742188 L64.3671875,239.742188 Z M57.6640625,239.742188 C57.6640625,240.90886 57.9205704,241.819007 58.4335938,242.472656 C58.9466171,243.126305 59.6718703,243.453125 60.609375,243.453125 C61.5468797,243.453125 62.2721329,243.126305 62.7851562,242.472656 C63.2981796,241.819007 63.5546875,240.90886 63.5546875,239.742188 C63.5546875,238.570307 63.2955755,237.661462 62.7773438,237.015625 C62.259112,236.369788 61.5312547,236.046875 60.59375,236.046875 C59.6562453,236.046875 58.9335963,236.368486 58.4257812,237.011719 C57.9179662,237.654951 57.6640625,238.565098 57.6640625,239.742188 L57.6640625,239.742188 Z M70.0625,235.34375 C70.4218768,235.34375 70.8072896,235.380208 71.21875,235.453125 L71.0703125,236.195312 C70.7161441,236.10677 70.3489602,236.0625 69.96875,236.0625 C69.244788,236.0625 68.651044,236.369789 68.1875,236.984375 C67.723956,237.598961 67.4921875,238.374995 67.4921875,239.3125 L67.4921875,244 L66.71875,244 L66.71875,235.507812 L67.375,235.507812 L67.453125,237.039062 L67.5078125,237.039062 C67.8567726,236.414059 68.2291647,235.975262 68.625,235.722656 C69.0208353,235.470051 69.4999972,235.34375 70.0625,235.34375 L70.0625,235.34375 Z M71.5234375,235.507812 L72.3203125,235.507812 L74.1171875,240.273438 C74.6640652,241.736986 75.0104159,242.723956 75.15625,243.234375 L75.203125,243.234375 C75.4218761,242.562497 75.7786434,241.559902 76.2734375,240.226562 L78.0703125,235.507812 L78.8671875,235.507812 L75.0625,245.375 C74.7552068,246.177087 74.4973969,246.718749 74.2890625,247 C74.0807281,247.281251 73.837241,247.492187 73.5585938,247.632812 C73.2799465,247.773438 72.9427103,247.84375 72.546875,247.84375 C72.2499985,247.84375 71.9192727,247.789063 71.5546875,247.679688 L71.5546875,247.007812 C71.8567723,247.091146 72.1822899,247.132812 72.53125,247.132812 C72.7968763,247.132812 73.031249,247.070313 73.234375,246.945312 C73.437501,246.820312 73.6210929,246.626303 73.7851562,246.363281 C73.9492196,246.100259 74.1393218,245.683597 74.3554688,245.113281 C74.5716157,244.542966 74.7109372,244.171876 74.7734375,244 L71.5234375,235.507812 Z M90.671875,235.265625 C90.671875,235.973962 90.449221,236.57031 90.0039062,237.054688 C89.5585915,237.539065 88.9609412,237.848958 88.2109375,237.984375 L88.2109375,238.03125 C89.1276088,238.145834 89.8255184,238.437498 90.3046875,238.90625 C90.7838566,239.375002 91.0234375,240.005204 91.0234375,240.796875 C91.0234375,241.864589 90.6601599,242.691403 89.9335938,243.277344 C89.2070276,243.863284 88.1614652,244.15625 86.796875,244.15625 C85.6354109,244.15625 84.6224002,243.940106 83.7578125,243.507812 L83.7578125,242.734375 C84.1953147,242.963543 84.6861952,243.143229 85.2304688,243.273438 C85.7747423,243.403646 86.2864559,243.46875 86.765625,243.46875 C87.9166724,243.46875 88.7812471,243.235679 89.359375,242.769531 C89.9375029,242.303383 90.2265625,241.645838 90.2265625,240.796875 C90.2265625,240.041663 89.9309925,239.46094 89.3398438,239.054688 C88.748695,238.648435 87.8802141,238.445312 86.734375,238.445312 L85.5,238.445312 L85.5,237.695312 L86.75,237.695312 C87.6979214,237.695312 88.449216,237.470054 89.0039062,237.019531 C89.5585965,236.569008 89.8359375,235.958337 89.8359375,235.1875 C89.8359375,234.55208 89.6106793,234.042971 89.1601562,233.660156 C88.7096332,233.277342 88.1197953,233.085938 87.390625,233.085938 C86.8229138,233.085938 86.3046898,233.165364 85.8359375,233.324219 C85.3671852,233.483074 84.8411488,233.755206 84.2578125,234.140625 L83.875,233.617188 C84.3177105,233.247394 84.8515594,232.954428 85.4765625,232.738281 C86.1015656,232.522134 86.7343718,232.414062 87.375,232.414062 C88.4270886,232.414062 89.2395805,232.662758 89.8125,233.160156 C90.3854195,233.657555 90.671875,234.35937 90.671875,235.265625 L90.671875,235.265625 Z" id="Category-3" fill="#4A4A4A"></path>
                <path d="M474.895307,29.8346947 C474.789957,29.9387398 474.649163,30 474.499508,30 C474.350837,30 474.209058,29.9387398 474.104693,29.8346947 L470.167378,25.9461299 C470.062028,25.8420848 470,25.7030338 470,25.5552314 C470,25.2518475 470.255005,25 470.562192,25 L478.436823,25 C478.744995,25 479,25.2518475 479,25.5552314 C479,25.7030338 478.937972,25.8420848 478.832622,25.9461299 L474.895307,29.8346947 Z" id="Fill-46" fill="#4A4A4A" transform="translate(474.500000, 27.500000) rotate(-270.000000) translate(-474.500000, -27.500000) "></path>
                <path d="M474.895307,240.834695 C474.789957,240.93874 474.649163,241 474.499508,241 C474.350837,241 474.209058,240.93874 474.104693,240.834695 L470.167378,236.94613 C470.062028,236.842085 470,236.703034 470,236.555231 C470,236.251848 470.255005,236 470.562192,236 L478.436823,236 C478.744995,236 479,236.251848 479,236.555231 C479,236.703034 478.937972,236.842085 478.832622,236.94613 L474.895307,240.834695 Z" id="Fill-46" fill="#4A4A4A" transform="translate(474.500000, 238.500000) rotate(-270.000000) translate(-474.500000, -238.500000) "></path>
                <path d="M474.895307,78.8346947 C474.789957,78.9387398 474.649163,79 474.499508,79 C474.350837,79 474.209058,78.9387398 474.104693,78.8346947 L470.167378,74.9461299 C470.062028,74.8420848 470,74.7030338 470,74.5552314 C470,74.2518475 470.255005,74 470.562192,74 L478.436823,74 C478.744995,74 479,74.2518475 479,74.5552314 C479,74.7030338 478.937972,74.8420848 478.832622,74.9461299 L474.895307,78.8346947 Z" id="Fill-46" fill="#4A4A4A"></path>
            </g>
        </g>
    </g>
</svg>