<?xml version="1.0" encoding="UTF-8" standalone="no"?>
<svg width="327px" height="173px" viewBox="0 0 327 173" version="1.1" xmlns="http://www.w3.org/2000/svg" xmlns:xlink="http://www.w3.org/1999/xlink">
    <!-- Generator: Sketch 40.2 (33826) - http://www.bohemiancoding.com/sketch -->
    <title>alert</title>
    <desc>Created with Sketch.</desc>
    <defs>
        <filter x="-50%" y="-50%" width="200%" height="200%" filterUnits="objectBoundingBox" id="filter-1">
            <feOffset dx="0" dy="2" in="SourceAlpha" result="shadowOffsetOuter1"></feOffset>
            <feGaussianBlur stdDeviation="2" in="shadowOffsetOuter1" result="shadowBlurOuter1"></feGaussianBlur>
            <feColorMatrix values="0 0 0 0 0   0 0 0 0 0   0 0 0 0 0  0 0 0 0.5 0" type="matrix" in="shadowBlurOuter1" result="shadowMatrixOuter1"></feColorMatrix>
            <feMerge>
                <feMergeNode in="shadowMatrixOuter1"></feMergeNode>
                <feMergeNode in="SourceGraphic"></feMergeNode>
            </feMerge>
        </filter>
        <polygon id="path-2" points="0 0 319 0 319 165 0 165"></polygon>
        <mask id="mask-3" maskContentUnits="userSpaceOnUse" maskUnits="objectBoundingBox" x="0" y="0" width="319" height="165" fill="white">
            <use xlink:href="#path-2"></use>
        </mask>
        <rect id="path-4" x="132" y="125" width="56" height="32"></rect>
        <mask id="mask-5" maskContentUnits="userSpaceOnUse" maskUnits="objectBoundingBox" x="0" y="0" width="56" height="32" fill="white">
            <use xlink:href="#path-4"></use>
        </mask>
    </defs>
    <g id="Components" stroke="none" stroke-width="1" fill="none" fill-rule="evenodd">
        <g id="Dialogs" transform="translate(-320.000000, -733.000000)">
            <g id="alert" transform="translate(324.000000, 735.000000)">
                <g id="Message-Box" filter="url(#filter-1)">
                    <use id="Fill-20" stroke="#025B80" mask="url(#mask-3)" stroke-width="4" fill="#FFFFFF" xlink:href="#path-2"></use>
                    <polygon id="Fill-22" fill="#025B80" points="0 0 319 0 319 44 0 44"></polygon>
                    <polygon id="Fill-23" fill="#ECECEC" points="2 119 317 119 317 163 2 163"></polygon>
                </g>
                <path d="M21.75,26 L20.328125,22.3671875 L15.75,22.3671875 L14.34375,26 L13,26 L17.515625,14.53125 L18.6328125,14.53125 L23.125,26 L21.75,26 Z M19.9140625,21.171875 L18.5859375,17.6328125 C18.4140616,17.1848936 18.2369801,16.6354199 18.0546875,15.984375 C17.9401036,16.4843775 17.7760427,17.0338512 17.5625,17.6328125 L16.21875,21.171875 L19.9140625,21.171875 Z M25.796875,26 L24.5,26 L24.5,13.84375 L25.796875,13.84375 L25.796875,26 Z M32.1640625,26.15625 C30.8984312,26.15625 29.8997432,25.7708372 29.1679688,25 C28.4361943,24.2291628 28.0703125,23.158861 28.0703125,21.7890625 C28.0703125,20.4088473 28.4101529,19.3125041 29.0898438,18.5 C29.7695346,17.6874959 30.6822859,17.28125 31.828125,17.28125 C32.901047,17.28125 33.7499969,17.6341111 34.375,18.3398438 C35.0000031,19.0455764 35.3125,19.9765567 35.3125,21.1328125 L35.3125,21.953125 L29.4140625,21.953125 C29.4401043,22.9583384 29.694008,23.7213516 30.1757812,24.2421875 C30.6575545,24.7630234 31.3359331,25.0234375 32.2109375,25.0234375 C33.1328171,25.0234375 34.0442663,24.8307311 34.9453125,24.4453125 L34.9453125,25.6015625 C34.4869769,25.7994802 34.0533875,25.9414058 33.6445312,26.0273438 C33.235675,26.1132817 32.7421904,26.15625 32.1640625,26.15625 L32.1640625,26.15625 Z M31.8125,18.3671875 C31.1249966,18.3671875 30.576825,18.5911436 30.1679688,19.0390625 C29.7591125,19.4869814 29.5182295,20.1067669 29.4453125,20.8984375 L33.921875,20.8984375 C33.921875,20.0807251 33.7395852,19.4544293 33.375,19.0195312 C33.0104148,18.5846332 32.4895867,18.3671875 31.8125,18.3671875 L31.8125,18.3671875 Z M41.4296875,17.28125 C41.8098977,17.28125 42.1510402,17.3124997 42.453125,17.375 L42.2734375,18.578125 C41.9192691,18.4999996 41.6067722,18.4609375 41.3359375,18.4609375 C40.6432257,18.4609375 40.0507837,18.7421847 39.5585938,19.3046875 C39.0664038,19.8671903 38.8203125,20.5677041 38.8203125,21.40625 L38.8203125,26 L37.5234375,26 L37.5234375,17.4375 L38.59375,17.4375 L38.7421875,19.0234375 L38.8046875,19.0234375 C39.1223974,18.466143 39.5052061,18.0364598 39.953125,17.734375 C40.4010439,17.4322902 40.8932265,17.28125 41.4296875,17.28125 L41.4296875,17.28125 Z M46.8203125,25.0859375 C47.0494803,25.0859375 47.2708323,25.0690106 47.484375,25.0351562 C47.6979177,25.0013019 47.8671869,24.966146 47.9921875,24.9296875 L47.9921875,25.921875 C47.8515618,25.9895837 47.6445326,26.0455727 47.3710938,26.0898438 C47.0976549,26.1341148 46.8515636,26.15625 46.6328125,26.15625 C44.9765542,26.15625 44.1484375,25.2838629 44.1484375,23.5390625 L44.1484375,18.4453125 L42.921875,18.4453125 L42.921875,17.8203125 L44.1484375,17.28125 L44.6953125,15.453125 L45.4453125,15.453125 L45.4453125,17.4375 L47.9296875,17.4375 L47.9296875,18.4453125 L45.4453125,18.4453125 L45.4453125,23.484375 C45.4453125,24.0000026 45.5677071,24.395832 45.8125,24.671875 C46.0572929,24.947918 46.393227,25.0859375 46.8203125,25.0859375 L46.8203125,25.0859375 Z" id="Alert" fill="#FFFFFF"></path>
                <path d="M22.7324219,85 L22.0786133,85 L22.0786133,76.3291016 L19.0634766,76.3291016 L19.0634766,75.7197266 L25.7475586,75.7197266 L25.7475586,76.3291016 L22.7324219,76.3291016 L22.7324219,85 Z M31.777832,85 L31.777832,80.5249023 C31.777832,79.8308885 31.6318374,79.3262548 31.3398438,79.0109863 C31.0478501,78.6957178 30.5950552,78.5380859 29.9814453,78.5380859 C29.1562459,78.5380859 28.5521666,78.7464986 28.1691895,79.1633301 C27.7862123,79.5801616 27.5947266,80.2561802 27.5947266,81.1914062 L27.5947266,85 L26.9663086,85 L26.9663086,75.1230469 L27.5947266,75.1230469 L27.5947266,78.2651367 L27.5629883,79.1474609 L27.6074219,79.1474609 C27.8655612,78.7327453 28.1914043,78.4322926 28.5849609,78.2460938 C28.9785176,78.0598949 29.4672822,77.9667969 30.0512695,77.9667969 C31.6170326,77.9667969 32.3999023,78.806795 32.3999023,80.4868164 L32.3999023,85 L31.777832,85 Z M37.4208984,85.1269531 C36.4179637,85.1269531 35.6361519,84.8180369 35.0754395,84.2001953 C34.514727,83.5823537 34.234375,82.7169652 34.234375,81.6040039 C34.234375,80.503738 34.5052056,79.6224805 35.046875,78.9602051 C35.5885444,78.2979296 36.3185175,77.9667969 37.2368164,77.9667969 C38.0493205,77.9667969 38.6904273,78.2503227 39.1601562,78.8173828 C39.6298852,79.3844429 39.8647461,80.1546175 39.8647461,81.1279297 L39.8647461,81.6357422 L34.8945312,81.6357422 C34.9029948,82.5836636 35.1241026,83.3072892 35.5578613,83.8066406 C35.99162,84.3059921 36.6126262,84.5556641 37.4208984,84.5556641 C37.8144551,84.5556641 38.1603989,84.5281578 38.4587402,84.4731445 C38.7570816,84.4181312 39.1347633,84.2996428 39.5917969,84.1176758 L39.5917969,84.6889648 C39.202472,84.8582365 38.8427751,84.9735511 38.5126953,85.0349121 C38.1826155,85.0962731 37.8186869,85.1269531 37.4208984,85.1269531 L37.4208984,85.1269531 Z M37.2368164,78.5253906 C36.5724251,78.5253906 36.0392273,78.7443826 35.637207,79.182373 C35.2351868,79.6203635 35.0003259,80.251949 34.9326172,81.0771484 L39.1982422,81.0771484 C39.1982422,80.2773398 39.0247413,79.6521019 38.6777344,79.201416 C38.3307274,78.7507302 37.8504262,78.5253906 37.2368164,78.5253906 L37.2368164,78.5253906 Z M47.6025391,85.1269531 C46.6969356,85.1269531 45.9944686,84.8265004 45.4951172,84.2255859 C44.9957657,83.6246715 44.7460938,82.7571671 44.7460938,81.6230469 C44.7460938,80.4593041 44.9957657,79.5590038 45.4951172,78.9221191 C45.9944686,78.2852344 46.7096308,77.9667969 47.640625,77.9667969 C48.6393279,77.9667969 49.386228,78.3349573 49.8813477,79.0712891 L49.9194336,79.0712891 L50.0336914,78.1000977 L50.5668945,78.1000977 L50.5668945,88.1230469 L49.9448242,88.1230469 L49.9448242,85.4951172 C49.9448242,84.9788386 49.9575194,84.4541042 49.9829102,83.9208984 L49.9448242,83.9208984 C49.4454728,84.7249389 48.6647189,85.1269531 47.6025391,85.1269531 L47.6025391,85.1269531 Z M47.6152344,84.5683594 C48.4531292,84.5683594 49.0508608,84.3377302 49.4084473,83.8764648 C49.7660337,83.4151995 49.9448242,82.6407932 49.9448242,81.5532227 L49.9448242,81.4770508 C49.9448242,80.4402617 49.7649758,79.6912458 49.4052734,79.2299805 C49.0455711,78.7687151 48.4721719,78.5380859 47.6850586,78.5380859 C46.9402632,78.5380859 46.3742695,78.8004531 45.9870605,79.3251953 C45.5998516,79.8499375 45.40625,80.6201121 45.40625,81.6357422 C45.40625,82.6048226 45.5956199,83.3358537 45.9743652,83.8288574 C46.3531106,84.3218612 46.9000615,84.5683594 47.6152344,84.5683594 L47.6152344,84.5683594 Z M53.4296875,78.1000977 L53.4296875,82.5688477 C53.4296875,83.2628615 53.5756821,83.7674952 53.8676758,84.0827637 C54.1596694,84.3980322 54.6124644,84.5556641 55.2260742,84.5556641 C56.0470419,84.5556641 56.6511211,84.3483094 57.0383301,83.9335938 C57.425539,83.5188781 57.6191406,82.8439174 57.6191406,81.9086914 L57.6191406,78.1000977 L58.2412109,78.1000977 L58.2412109,85 L57.7080078,85 L57.59375,84.0478516 L57.5556641,84.0478516 C57.1070941,84.7672562 56.3094133,85.1269531 55.1625977,85.1269531 C53.5926028,85.1269531 52.8076172,84.286955 52.8076172,82.6069336 L52.8076172,78.1000977 L53.4296875,78.1000977 Z M61.1801758,85 L60.5517578,85 L60.5517578,78.1000977 L61.1801758,78.1000977 L61.1801758,85 Z M60.4628906,76.1831055 C60.4628906,75.7768534 60.5961901,75.5737305 60.862793,75.5737305 C60.9939785,75.5737305 61.0965979,75.6266271 61.1706543,75.7324219 C61.2447107,75.8382167 61.2817383,75.988443 61.2817383,76.1831055 C61.2817383,76.3735361 61.2447107,76.5237625 61.1706543,76.6337891 C61.0965979,76.7438157 60.9939785,76.7988281 60.862793,76.7988281 C60.5961901,76.7988281 60.4628906,76.5935893 60.4628906,76.1831055 L60.4628906,76.1831055 Z M66.2456055,85.1269531 C65.2595979,85.1269531 64.4873075,84.8159211 63.9287109,84.1938477 C63.3701144,83.5717742 63.0908203,82.7042699 63.0908203,81.5913086 C63.0908203,80.4487248 63.3806937,79.5590038 63.9604492,78.9221191 C64.5402047,78.2852344 65.3336538,77.9667969 66.3408203,77.9667969 C66.937503,77.9667969 67.5087863,78.0704742 68.0546875,78.277832 L67.8833008,78.8364258 C67.2866181,78.6375316 66.7682314,78.5380859 66.328125,78.5380859 C65.4817666,78.5380859 64.8406597,78.7993952 64.4047852,79.3220215 C63.9689106,79.8446478 63.7509766,80.5968375 63.7509766,81.5786133 C63.7509766,82.5096075 63.9689106,83.2385228 64.4047852,83.7653809 C64.8406597,84.292239 65.4500286,84.5556641 66.2329102,84.5556641 C66.8592154,84.5556641 67.441078,84.4435233 67.9785156,84.2192383 L67.9785156,84.8032227 C67.5384093,85.019044 66.9607783,85.1269531 66.2456055,85.1269531 L66.2456055,85.1269531 Z M70.2827148,81.972168 L73.8056641,78.1000977 L74.5673828,78.1000977 L71.8505859,81.0454102 L74.8022461,85 L74.046875,85 L71.425293,81.5151367 L70.2954102,82.543457 L70.2954102,85 L69.6669922,85 L69.6669922,75.1230469 L70.2954102,75.1230469 L70.2954102,80.0742188 L70.2509766,81.972168 L70.2827148,81.972168 Z M82.2480469,77.9667969 C83.2128954,77.9667969 83.9396948,78.2704234 84.4284668,78.8776855 C84.9172388,79.4849477 85.1616211,80.3725528 85.1616211,81.5405273 C85.1616211,82.687343 84.9045436,83.5717742 84.3903809,84.1938477 C83.8762181,84.8159211 83.1536505,85.1269531 82.2226562,85.1269531 C81.7317684,85.1269531 81.2895527,85.0253916 80.8959961,84.8222656 C80.5024394,84.6191396 80.1914074,84.3313821 79.9628906,83.9589844 L79.9057617,83.9589844 L79.7280273,85 L79.3344727,85 L79.3344727,75.1230469 L79.9628906,75.1230469 L79.9628906,77.6049805 C79.9628906,77.9773782 79.9544272,78.3201482 79.9375,78.6333008 L79.918457,79.1728516 L79.9628906,79.1728516 C80.2252617,78.7581359 80.5415834,78.4534515 80.9118652,78.2587891 C81.282147,78.0641266 81.7275365,77.9667969 82.2480469,77.9667969 L82.2480469,77.9667969 Z M82.2353516,78.5380859 C81.4228475,78.5380859 80.8409848,78.770831 80.4897461,79.2363281 C80.1385074,79.7018252 79.9628906,80.469884 79.9628906,81.5405273 L79.9628906,81.6484375 C79.9628906,82.6894583 80.1459129,83.4363584 80.5119629,83.8891602 C80.8780129,84.3419619 81.4482383,84.5683594 82.2226562,84.5683594 C82.9759152,84.5683594 83.5429668,84.3049343 83.9238281,83.7780762 C84.3046894,83.2512181 84.4951172,82.5011442 84.4951172,81.527832 C84.4951172,79.534658 83.7418695,78.5380859 82.2353516,78.5380859 L82.2353516,78.5380859 Z M89.7890625,77.9667969 C90.0810561,77.9667969 90.3942041,77.996419 90.7285156,78.0556641 L90.6079102,78.6586914 C90.3201483,78.5867509 90.0218114,78.5507812 89.7128906,78.5507812 C89.1246715,78.5507812 88.6422545,78.8004532 88.265625,79.2998047 C87.8889955,79.7991561 87.7006836,80.4296837 87.7006836,81.1914062 L87.7006836,85 L87.0722656,85 L87.0722656,78.1000977 L87.6054688,78.1000977 L87.6689453,79.3442383 L87.7133789,79.3442383 C87.996909,78.8364232 88.2994776,78.4799001 88.6210938,78.2746582 C88.9427099,78.0694163 89.332029,77.9667969 89.7890625,77.9667969 L89.7890625,77.9667969 Z M97.5776367,81.5405273 C97.5776367,82.666184 97.3046902,83.5453256 96.7587891,84.1779785 C96.2128879,84.8106314 95.4596402,85.1269531 94.4990234,85.1269531 C93.8938772,85.1269531 93.3606794,84.9809585 92.8994141,84.6889648 C92.4381487,84.3969712 92.0847994,83.9780301 91.8393555,83.4321289 C91.5939115,82.8862277 91.4711914,82.2557002 91.4711914,81.5405273 C91.4711914,80.4148707 91.7441379,79.5378449 92.2900391,78.9094238 C92.8359402,78.2810027 93.5849562,77.9667969 94.5371094,77.9667969 C95.4850308,77.9667969 96.2287571,78.2852344 96.7683105,78.9221191 C97.307864,79.5590038 97.5776367,80.4317978 97.5776367,81.5405273 L97.5776367,81.5405273 Z M92.1313477,81.5405273 C92.1313477,82.4884488 92.3397603,83.2279433 92.7565918,83.7590332 C93.1734233,84.2901231 93.7626915,84.5556641 94.5244141,84.5556641 C95.2861366,84.5556641 95.8754048,84.2901231 96.2922363,83.7590332 C96.7090678,83.2279433 96.9174805,82.4884488 96.9174805,81.5405273 C96.9174805,80.5883741 96.706952,79.8499375 96.2858887,79.3251953 C95.8648254,78.8004531 95.2734413,78.5380859 94.5117188,78.5380859 C93.7499962,78.5380859 93.1628439,78.7993952 92.7502441,79.3220215 C92.3376444,79.8446478 92.1313477,80.5841424 92.1313477,81.5405273 L92.1313477,81.5405273 Z M104.744141,85 L103.233398,80.3852539 C103.136067,80.0721013 103.011231,79.6129588 102.858887,79.0078125 L102.820801,79.0078125 L102.6875,79.4775391 L102.401855,80.3979492 L100.865723,85 L100.243652,85 L98.2695312,78.1000977 L98.9423828,78.1000977 L100.046875,82.0991211 C100.305014,83.0893604 100.474283,83.8172177 100.554688,84.2827148 L100.592773,84.2827148 C100.842449,83.2924755 101.024413,82.6344417 101.138672,82.3085938 L102.560547,78.1000977 L103.131836,78.1000977 L104.483887,82.2958984 C104.788576,83.2903696 104.974772,83.9484033 105.04248,84.2700195 L105.080566,84.2700195 C105.114421,83.9949531 105.28369,83.2586323 105.588379,82.0610352 L106.64209,78.1000977 L107.276855,78.1000977 L105.404297,85 L104.744141,85 Z M113.44043,85 L113.44043,80.5249023 C113.44043,79.8308885 113.294435,79.3262548 113.002441,79.0109863 C112.710448,78.6957178 112.257653,78.5380859 111.644043,78.5380859 C110.818844,78.5380859 110.214764,78.7464986 109.831787,79.1633301 C109.44881,79.5801616 109.257324,80.2561802 109.257324,81.1914062 L109.257324,85 L108.628906,85 L108.628906,78.1000977 L109.162109,78.1000977 L109.282715,79.0458984 L109.320801,79.0458984 C109.769371,78.3264938 110.567052,77.9667969 111.713867,77.9667969 C113.27963,77.9667969 114.0625,78.806795 114.0625,80.4868164 L114.0625,85 L113.44043,85 Z M122.238281,78.6459961 L120.613281,78.6459961 L120.613281,85 L119.984863,85 L119.984863,78.6459961 L118.702637,78.6459961 L118.702637,78.277832 L119.984863,78.0429688 L119.984863,77.5097656 C119.984863,76.6634072 120.140379,76.0424011 120.451416,75.6467285 C120.762453,75.251056 121.271318,75.0532227 121.978027,75.0532227 C122.358889,75.0532227 122.739744,75.110351 123.120605,75.2246094 L122.974609,75.7705078 C122.636066,75.664713 122.299644,75.6118164 121.965332,75.6118164 C121.474444,75.6118164 121.126384,75.7567531 120.921143,76.0466309 C120.715901,76.3365086 120.613281,76.8072884 120.613281,77.4589844 L120.613281,78.1000977 L122.238281,78.1000977 L122.238281,78.6459961 Z M129.277832,81.5405273 C129.277832,82.666184 129.004886,83.5453256 128.458984,84.1779785 C127.913083,84.8106314 127.159836,85.1269531 126.199219,85.1269531 C125.594072,85.1269531 125.060875,84.9809585 124.599609,84.6889648 C124.138344,84.3969712 123.784995,83.9780301 123.539551,83.4321289 C123.294107,82.8862277 123.171387,82.2557002 123.171387,81.5405273 C123.171387,80.4148707 123.444333,79.5378449 123.990234,78.9094238 C124.536136,78.2810027 125.285151,77.9667969 126.237305,77.9667969 C127.185226,77.9667969 127.928952,78.2852344 128.468506,78.9221191 C129.008059,79.5590038 129.277832,80.4317978 129.277832,81.5405273 L129.277832,81.5405273 Z M123.831543,81.5405273 C123.831543,82.4884488 124.039956,83.2279433 124.456787,83.7590332 C124.873619,84.2901231 125.462887,84.5556641 126.224609,84.5556641 C126.986332,84.5556641 127.5756,84.2901231 127.992432,83.7590332 C128.409263,83.2279433 128.617676,82.4884488 128.617676,81.5405273 C128.617676,80.5883741 128.407147,79.8499375 127.986084,79.3251953 C127.565021,78.8004531 126.973637,78.5380859 126.211914,78.5380859 C125.450192,78.5380859 124.863039,78.7993952 124.450439,79.3220215 C124.03784,79.8446478 123.831543,80.5841424 123.831543,81.5405273 L123.831543,81.5405273 Z M132.623047,81.4516602 L130.217285,78.1000977 L130.940918,78.1000977 L132.997559,81.0073242 L135.035156,78.1000977 L135.727051,78.1000977 L133.359375,81.4516602 L135.898438,85 L135.168457,85 L132.997559,81.9213867 L130.813965,85 L130.12207,85 L132.623047,81.4516602 Z M139.859375,88.1230469 C139.520832,88.1230469 139.23519,88.0701503 139.002441,87.9643555 L139.002441,87.418457 C139.294435,87.5030929 139.567382,87.5454102 139.821289,87.5454102 C140.46029,87.5454102 140.779785,87.173018 140.779785,86.4282227 L140.779785,78.1000977 L141.408203,78.1000977 L141.408203,86.3393555 C141.408203,86.9106474 141.273846,87.3507472 141.005127,87.659668 C140.736408,87.9685888 140.354495,88.1230469 139.859375,88.1230469 L139.859375,88.1230469 Z M140.690918,76.1831055 C140.690918,75.7768534 140.824217,75.5737305 141.09082,75.5737305 C141.222006,75.5737305 141.324625,75.6266271 141.398682,75.7324219 C141.472738,75.8382167 141.509766,75.988443 141.509766,76.1831055 C141.509766,76.3735361 141.472738,76.5237625 141.398682,76.6337891 C141.324625,76.7438157 141.222006,76.7988281 141.09082,76.7988281 C140.824217,76.7988281 140.690918,76.5935893 140.690918,76.1831055 L140.690918,76.1831055 Z M144.264648,78.1000977 L144.264648,82.5688477 C144.264648,83.2628615 144.410643,83.7674952 144.702637,84.0827637 C144.99463,84.3980322 145.447425,84.5556641 146.061035,84.5556641 C146.882003,84.5556641 147.486082,84.3483094 147.873291,83.9335938 C148.2605,83.5188781 148.454102,82.8439174 148.454102,81.9086914 L148.454102,78.1000977 L149.076172,78.1000977 L149.076172,85 L148.542969,85 L148.428711,84.0478516 L148.390625,84.0478516 C147.942055,84.7672562 147.144374,85.1269531 145.997559,85.1269531 C144.427564,85.1269531 143.642578,84.286955 143.642578,82.6069336 L143.642578,78.1000977 L144.264648,78.1000977 Z M160.006836,85 L160.006836,80.4741211 C160.006836,79.8012662 159.875652,79.3103857 159.613281,79.0014648 C159.35091,78.692544 158.948896,78.5380859 158.407227,78.5380859 C157.700517,78.5380859 157.177899,78.7327454 156.839355,79.1220703 C156.500812,79.5113952 156.331543,80.1228799 156.331543,80.956543 L156.331543,85 L155.69043,85 L155.69043,80.2836914 C155.69043,79.1199486 155.157232,78.5380859 154.09082,78.5380859 C153.367184,78.5380859 152.840334,78.7486144 152.510254,79.1696777 C152.180174,79.590741 152.015137,80.2646438 152.015137,81.1914062 L152.015137,85 L151.386719,85 L151.386719,78.1000977 L151.907227,78.1000977 L152.040527,79.0458984 L152.078613,79.0458984 C152.269044,78.7031233 152.539875,78.4375823 152.891113,78.2492676 C153.242352,78.0609528 153.629555,77.9667969 154.052734,77.9667969 C155.140305,77.9667969 155.83854,78.3751587 156.147461,79.1918945 L156.172852,79.1918945 C156.397137,78.7983379 156.698647,78.4957693 157.077393,78.2841797 C157.456138,78.0725901 157.886716,77.9667969 158.369141,77.9667969 C159.1224,77.9667969 159.687335,78.167804 160.063965,78.5698242 C160.440594,78.9718445 160.628906,79.6108355 160.628906,80.4868164 L160.628906,85 L160.006836,85 Z M165.814941,85.1269531 C164.752762,85.1269531 163.978355,84.7291706 163.491699,83.9335938 L163.447266,83.9335938 L163.466309,84.4667969 C163.483236,84.7799495 163.491699,85.1227195 163.491699,85.4951172 L163.491699,88.1230469 L162.863281,88.1230469 L162.863281,78.1000977 L163.396484,78.1000977 L163.51709,79.0839844 L163.555176,79.0839844 C164.029136,78.339189 164.786616,77.9667969 165.827637,77.9667969 C166.758631,77.9667969 167.468503,78.2725393 167.957275,78.8840332 C168.446047,79.4955271 168.69043,80.3852481 168.69043,81.5532227 C168.69043,82.6873429 168.433352,83.5664845 167.919189,84.1906738 C167.405027,84.8148631 166.703618,85.1269531 165.814941,85.1269531 L165.814941,85.1269531 Z M165.802246,84.5683594 C166.508955,84.5683594 167.055906,84.3059922 167.443115,83.78125 C167.830324,83.2565078 168.023926,82.5223029 168.023926,81.5786133 C168.023926,79.5515849 167.291837,78.5380859 165.827637,78.5380859 C165.023596,78.5380859 164.43327,78.7591938 164.056641,79.201416 C163.680011,79.6436383 163.491699,80.3640901 163.491699,81.362793 L163.491699,81.565918 C163.491699,82.6450249 163.672606,83.4151995 164.034424,83.8764648 C164.396242,84.3377302 164.98551,84.5683594 165.802246,84.5683594 L165.802246,84.5683594 Z M173.387695,85.1269531 C172.384761,85.1269531 171.602949,84.8180369 171.042236,84.2001953 C170.481524,83.5823537 170.201172,82.7169652 170.201172,81.6040039 C170.201172,80.503738 170.472003,79.6224805 171.013672,78.9602051 C171.555341,78.2979296 172.285314,77.9667969 173.203613,77.9667969 C174.016117,77.9667969 174.657224,78.2503227 175.126953,78.8173828 C175.596682,79.3844429 175.831543,80.1546175 175.831543,81.1279297 L175.831543,81.6357422 L170.861328,81.6357422 C170.869792,82.5836636 171.0909,83.3072892 171.524658,83.8066406 C171.958417,84.3059921 172.579423,84.5556641 173.387695,84.5556641 C173.781252,84.5556641 174.127196,84.5281578 174.425537,84.4731445 C174.723878,84.4181312 175.10156,84.2996428 175.558594,84.1176758 L175.558594,84.6889648 C175.169269,84.8582365 174.809572,84.9735511 174.479492,85.0349121 C174.149412,85.0962731 173.785484,85.1269531 173.387695,85.1269531 L173.387695,85.1269531 Z M173.203613,78.5253906 C172.539222,78.5253906 172.006024,78.7443826 171.604004,79.182373 C171.201984,79.6203635 170.967123,80.251949 170.899414,81.0771484 L175.165039,81.0771484 C175.165039,80.2773398 174.991538,79.6521019 174.644531,79.201416 C174.297524,78.7507302 173.817223,78.5253906 173.203613,78.5253906 L173.203613,78.5253906 Z M180.262207,77.9667969 C180.761558,77.9667969 181.193195,78.057779 181.557129,78.2397461 C181.921063,78.4217131 182.246906,78.7327452 182.534668,79.1728516 L182.572754,79.1728516 C182.547363,78.6396458 182.534668,78.1170273 182.534668,77.6049805 L182.534668,75.1230469 L183.156738,75.1230469 L183.156738,85 L182.744141,85 L182.585449,83.9462891 L182.534668,83.9462891 C182.009926,84.7334024 181.256678,85.1269531 180.274902,85.1269531 C179.322749,85.1269531 178.594892,84.8307321 178.091309,84.2382812 C177.587725,83.6458304 177.335938,82.7825578 177.335938,81.6484375 C177.335938,80.4550722 177.585609,79.5431347 178.084961,78.9125977 C178.584312,78.2820606 179.310054,77.9667969 180.262207,77.9667969 L180.262207,77.9667969 Z M180.262207,78.5380859 C179.508948,78.5380859 178.942954,78.802569 178.564209,79.331543 C178.185464,79.860517 177.996094,80.6285757 177.996094,81.6357422 C177.996094,83.5908301 178.755689,84.5683594 180.274902,84.5683594 C181.053552,84.5683594 181.624835,84.3419619 181.98877,83.8891602 C182.352704,83.4363584 182.534668,82.6894583 182.534668,81.6484375 L182.534668,81.5405273 C182.534668,80.4741158 182.355877,79.707115 181.998291,79.239502 C181.640705,78.7718889 181.062016,78.5380859 180.262207,78.5380859 L180.262207,78.5380859 Z M194.557129,81.5405273 C194.557129,82.666184 194.284182,83.5453256 193.738281,84.1779785 C193.19238,84.8106314 192.439132,85.1269531 191.478516,85.1269531 C190.873369,85.1269531 190.340172,84.9809585 189.878906,84.6889648 C189.417641,84.3969712 189.064292,83.9780301 188.818848,83.4321289 C188.573404,82.8862277 188.450684,82.2557002 188.450684,81.5405273 C188.450684,80.4148707 188.72363,79.5378449 189.269531,78.9094238 C189.815432,78.2810027 190.564448,77.9667969 191.516602,77.9667969 C192.464523,77.9667969 193.208249,78.2852344 193.747803,78.9221191 C194.287356,79.5590038 194.557129,80.4317978 194.557129,81.5405273 L194.557129,81.5405273 Z M189.11084,81.5405273 C189.11084,82.4884488 189.319252,83.2279433 189.736084,83.7590332 C190.152915,84.2901231 190.742184,84.5556641 191.503906,84.5556641 C192.265629,84.5556641 192.854897,84.2901231 193.271729,83.7590332 C193.68856,83.2279433 193.896973,82.4884488 193.896973,81.5405273 C193.896973,80.5883741 193.686444,79.8499375 193.265381,79.3251953 C192.844318,78.8004531 192.252933,78.5380859 191.491211,78.5380859 C190.729488,78.5380859 190.142336,78.7993952 189.729736,79.3220215 C189.317137,79.8446478 189.11084,80.5841424 189.11084,81.5405273 L189.11084,81.5405273 Z M197.718262,85 L195.052246,78.1000977 L195.699707,78.1000977 L197.483398,82.7910156 C197.720379,83.3919301 197.898111,83.9166644 198.016602,84.3652344 L198.054688,84.3652344 C198.228191,83.7897107 198.405924,83.2607446 198.587891,82.7783203 L200.371582,78.1000977 L201.019043,78.1000977 L198.353027,85 L197.718262,85 Z M204.960938,85.1269531 C203.958003,85.1269531 203.176191,84.8180369 202.615479,84.2001953 C202.054766,83.5823537 201.774414,82.7169652 201.774414,81.6040039 C201.774414,80.503738 202.045245,79.6224805 202.586914,78.9602051 C203.128583,78.2979296 203.858557,77.9667969 204.776855,77.9667969 C205.58936,77.9667969 206.230466,78.2503227 206.700195,78.8173828 C207.169924,79.3844429 207.404785,80.1546175 207.404785,81.1279297 L207.404785,81.6357422 L202.43457,81.6357422 C202.443034,82.5836636 202.664142,83.3072892 203.0979,83.8066406 C203.531659,84.3059921 204.152665,84.5556641 204.960938,84.5556641 C205.354494,84.5556641 205.700438,84.5281578 205.998779,84.4731445 C206.297121,84.4181312 206.674802,84.2996428 207.131836,84.1176758 L207.131836,84.6889648 C206.742511,84.8582365 206.382814,84.9735511 206.052734,85.0349121 C205.722655,85.0962731 205.358726,85.1269531 204.960938,85.1269531 L204.960938,85.1269531 Z M204.776855,78.5253906 C204.112464,78.5253906 203.579266,78.7443826 203.177246,79.182373 C202.775226,79.6203635 202.540365,80.251949 202.472656,81.0771484 L206.738281,81.0771484 C206.738281,80.2773398 206.56478,79.6521019 206.217773,79.201416 C205.870766,78.7507302 205.390465,78.5253906 204.776855,78.5253906 L204.776855,78.5253906 Z M212.025879,77.9667969 C212.317873,77.9667969 212.63102,77.996419 212.965332,78.0556641 L212.844727,78.6586914 C212.556965,78.5867509 212.258628,78.5507812 211.949707,78.5507812 C211.361488,78.5507812 210.879071,78.8004532 210.502441,79.2998047 C210.125812,79.7991561 209.9375,80.4296837 209.9375,81.1914062 L209.9375,85 L209.309082,85 L209.309082,78.1000977 L209.842285,78.1000977 L209.905762,79.3442383 L209.950195,79.3442383 C210.233725,78.8364232 210.536294,78.4799001 210.85791,78.2746582 C211.179526,78.0694163 211.568845,77.9667969 212.025879,77.9667969 L212.025879,77.9667969 Z M219.566895,84.5683594 C219.964683,84.5683594 220.311685,84.5345055 220.60791,84.4667969 L220.60791,84.9746094 C220.303221,85.0761724 219.951988,85.1269531 219.554199,85.1269531 C218.944821,85.1269531 218.4952,84.9640316 218.205322,84.6381836 C217.915445,84.3123356 217.770508,83.8002965 217.770508,83.1020508 L217.770508,78.6459961 L216.748535,78.6459961 L216.748535,78.277832 L217.770508,77.9921875 L218.087891,76.4306641 L218.411621,76.4306641 L218.411621,78.1000977 L220.436523,78.1000977 L220.436523,78.6459961 L218.411621,78.6459961 L218.411621,83.0131836 C218.411621,83.5421576 218.504719,83.9335925 218.690918,84.1875 C218.877117,84.4414075 219.169106,84.5683594 219.566895,84.5683594 L219.566895,84.5683594 Z M226.911133,85 L226.911133,80.5249023 C226.911133,79.8308885 226.765138,79.3262548 226.473145,79.0109863 C226.181151,78.6957178 225.728356,78.5380859 225.114746,78.5380859 C224.289547,78.5380859 223.685467,78.7464986 223.30249,79.1633301 C222.919513,79.5801616 222.728027,80.2561802 222.728027,81.1914062 L222.728027,85 L222.099609,85 L222.099609,75.1230469 L222.728027,75.1230469 L222.728027,78.2651367 L222.696289,79.1474609 L222.740723,79.1474609 C222.998862,78.7327453 223.324705,78.4322926 223.718262,78.2460938 C224.111818,78.0598949 224.600583,77.9667969 225.18457,77.9667969 C226.750333,77.9667969 227.533203,78.806795 227.533203,80.4868164 L227.533203,85 L226.911133,85 Z M232.554199,85.1269531 C231.551265,85.1269531 230.769453,84.8180369 230.20874,84.2001953 C229.648028,83.5823537 229.367676,82.7169652 229.367676,81.6040039 C229.367676,80.503738 229.638506,79.6224805 230.180176,78.9602051 C230.721845,78.2979296 231.451818,77.9667969 232.370117,77.9667969 C233.182621,77.9667969 233.823728,78.2503227 234.293457,78.8173828 C234.763186,79.3844429 234.998047,80.1546175 234.998047,81.1279297 L234.998047,81.6357422 L230.027832,81.6357422 C230.036296,82.5836636 230.257403,83.3072892 230.691162,83.8066406 C231.124921,84.3059921 231.745927,84.5556641 232.554199,84.5556641 C232.947756,84.5556641 233.2937,84.5281578 233.592041,84.4731445 C233.890382,84.4181312 234.268064,84.2996428 234.725098,84.1176758 L234.725098,84.6889648 C234.335773,84.8582365 233.976076,84.9735511 233.645996,85.0349121 C233.315916,85.0962731 232.951988,85.1269531 232.554199,85.1269531 L232.554199,85.1269531 Z M232.370117,78.5253906 C231.705726,78.5253906 231.172528,78.7443826 230.770508,79.182373 C230.368488,79.6203635 230.133627,80.251949 230.065918,81.0771484 L234.331543,81.0771484 C234.331543,80.2773398 234.158042,79.6521019 233.811035,79.201416 C233.464028,78.7507302 232.983727,78.5253906 232.370117,78.5253906 L232.370117,78.5253906 Z M240.907715,85 L240.279297,85 L240.279297,75.1230469 L240.907715,75.1230469 L240.907715,85 Z M247.407715,85 L247.249023,83.9082031 L247.198242,83.9082031 C246.851235,84.3525413 246.494712,84.6667471 246.128662,84.8508301 C245.762612,85.034913 245.329918,85.1269531 244.830566,85.1269531 C244.15348,85.1269531 243.626629,84.9534523 243.25,84.6064453 C242.873371,84.2594384 242.685059,83.7791372 242.685059,83.1655273 C242.685059,82.4926724 242.965411,81.9700539 243.526123,81.5976562 C244.086835,81.2252586 244.898269,81.0284832 245.960449,81.0073242 L247.274414,80.9692383 L247.274414,80.512207 C247.274414,79.8562793 247.141115,79.361167 246.874512,79.0268555 C246.607909,78.6925439 246.178388,78.5253906 245.585938,78.5253906 C244.946937,78.5253906 244.284671,78.7031232 243.599121,79.0585938 L243.364258,78.5126953 C244.121749,78.1572248 244.870765,77.9794922 245.611328,77.9794922 C246.368819,77.9794922 246.934813,78.1762676 247.309326,78.5698242 C247.68384,78.9633809 247.871094,79.5769815 247.871094,80.4106445 L247.871094,85 L247.407715,85 Z M244.868652,84.5556641 C245.604984,84.5556641 246.185789,84.3451356 246.611084,83.9240723 C247.036379,83.503009 247.249023,82.9179725 247.249023,82.1689453 L247.249023,81.4897461 L246.042969,81.5405273 C245.073888,81.5870771 244.383059,81.7383614 243.970459,81.9943848 C243.557859,82.2504082 243.351562,82.6492486 243.351562,83.190918 C243.351562,83.6225608 243.483804,83.9579252 243.748291,84.1970215 C244.012778,84.4361177 244.386228,84.5556641 244.868652,84.5556641 L244.868652,84.5556641 Z M254.396484,85 L249.470703,85 L249.470703,84.6000977 L253.564941,78.6586914 L249.769043,78.6586914 L249.769043,78.1000977 L254.383789,78.1000977 L254.383789,78.5 L250.26416,84.4414062 L254.396484,84.4414062 L254.396484,85 Z M254.942383,78.1000977 L255.589844,78.1000977 L257.049805,81.972168 C257.494143,83.1613015 257.775553,83.9632141 257.894043,84.3779297 L257.932129,84.3779297 C258.109864,83.8320285 258.399738,83.0174208 258.801758,81.934082 L260.261719,78.1000977 L260.90918,78.1000977 L257.817871,86.1171875 C257.568195,86.7688835 257.358725,87.2089832 257.189453,87.4375 C257.020181,87.6660168 256.822348,87.8374018 256.595947,87.9516602 C256.369546,88.0659185 256.095542,88.1230469 255.773926,88.1230469 C255.532714,88.1230469 255.263999,88.0786137 254.967773,87.9897461 L254.967773,87.4438477 C255.213217,87.5115563 255.4777,87.5454102 255.76123,87.5454102 C255.977052,87.5454102 256.16748,87.4946294 256.33252,87.3930664 C256.497559,87.2915034 256.646728,87.1338715 256.780029,86.920166 C256.913331,86.7064605 257.067789,86.3679222 257.243408,85.904541 C257.419028,85.4411598 257.532226,85.1396491 257.583008,85 L254.942383,78.1000977 Z M267.967773,77.9667969 C268.467125,77.9667969 268.898761,78.057779 269.262695,78.2397461 C269.626629,78.4217131 269.952473,78.7327452 270.240234,79.1728516 L270.27832,79.1728516 C270.25293,78.6396458 270.240234,78.1170273 270.240234,77.6049805 L270.240234,75.1230469 L270.862305,75.1230469 L270.862305,85 L270.449707,85 L270.291016,83.9462891 L270.240234,83.9462891 C269.715492,84.7334024 268.962244,85.1269531 267.980469,85.1269531 C267.028316,85.1269531 266.300458,84.8307321 265.796875,84.2382812 C265.293292,83.6458304 265.041504,82.7825578 265.041504,81.6484375 C265.041504,80.4550722 265.291176,79.5431347 265.790527,78.9125977 C266.289879,78.2820606 267.01562,77.9667969 267.967773,77.9667969 L267.967773,77.9667969 Z M267.967773,78.5380859 C267.214514,78.5380859 266.648521,78.802569 266.269775,79.331543 C265.89103,79.860517 265.70166,80.6285757 265.70166,81.6357422 C265.70166,83.5908301 266.461255,84.5683594 267.980469,84.5683594 C268.759118,84.5683594 269.330402,84.3419619 269.694336,83.8891602 C270.05827,83.4363584 270.240234,82.6894583 270.240234,81.6484375 L270.240234,81.5405273 C270.240234,80.4741158 270.061444,79.707115 269.703857,79.239502 C269.346271,78.7718889 268.767582,78.5380859 267.967773,78.5380859 L267.967773,78.5380859 Z M278.885742,81.5405273 C278.885742,82.666184 278.612796,83.5453256 278.066895,84.1779785 C277.520993,84.8106314 276.767746,85.1269531 275.807129,85.1269531 C275.201983,85.1269531 274.668785,84.9809585 274.20752,84.6889648 C273.746254,84.3969712 273.392905,83.9780301 273.147461,83.4321289 C272.902017,82.8862277 272.779297,82.2557002 272.779297,81.5405273 C272.779297,80.4148707 273.052243,79.5378449 273.598145,78.9094238 C274.144046,78.2810027 274.893062,77.9667969 275.845215,77.9667969 C276.793136,77.9667969 277.536863,78.2852344 278.076416,78.9221191 C278.615969,79.5590038 278.885742,80.4317978 278.885742,81.5405273 L278.885742,81.5405273 Z M273.439453,81.5405273 C273.439453,82.4884488 273.647866,83.2279433 274.064697,83.7590332 C274.481529,84.2901231 275.070797,84.5556641 275.83252,84.5556641 C276.594242,84.5556641 277.18351,84.2901231 277.600342,83.7590332 C278.017173,83.2279433 278.225586,82.4884488 278.225586,81.5405273 C278.225586,80.5883741 278.015057,79.8499375 277.593994,79.3251953 C277.172931,78.8004531 276.581547,78.5380859 275.819824,78.5380859 C275.058102,78.5380859 274.470949,78.7993952 274.05835,79.3220215 C273.64575,79.8446478 273.439453,80.5841424 273.439453,81.5405273 L273.439453,81.5405273 Z M286.179199,78.1000977 L286.179199,78.5380859 L284.750977,78.6269531 C285.131838,79.1009138 285.322266,79.6214164 285.322266,80.1884766 C285.322266,80.8528679 285.101158,81.3913554 284.658936,81.8039551 C284.216713,82.2165548 283.623213,82.4228516 282.878418,82.4228516 C282.565265,82.4228516 282.345215,82.4101564 282.218262,82.3847656 C281.968586,82.5159512 281.778158,82.6704093 281.646973,82.8481445 C281.515787,83.0258798 281.450195,83.2141917 281.450195,83.4130859 C281.450195,83.6331391 281.533772,83.7939448 281.700928,83.8955078 C281.868084,83.9970708 282.148436,84.0478516 282.541992,84.0478516 L283.748047,84.0478516 C284.497074,84.0478516 285.070473,84.1991359 285.468262,84.501709 C285.86605,84.8042821 286.064941,85.2517874 286.064941,85.8442383 C286.064941,86.5721065 285.769778,87.1338685 285.179443,87.529541 C284.589108,87.9252136 283.748052,88.1230469 282.65625,88.1230469 C281.788733,88.1230469 281.116946,87.9558936 280.640869,87.621582 C280.164793,87.2872705 279.926758,86.8217803 279.926758,86.2250977 C279.926758,85.751137 280.07381,85.3575862 280.36792,85.0444336 C280.662029,84.731281 281.06087,84.5175787 281.564453,84.4033203 C281.357095,84.3144527 281.191,84.1885588 281.066162,84.0256348 C280.941324,83.8627108 280.878906,83.6754568 280.878906,83.4638672 C280.878906,83.0026019 281.173011,82.5963559 281.76123,82.2451172 C281.35921,82.0800773 281.046062,81.8208839 280.821777,81.4675293 C280.597492,81.1141747 280.485352,80.7089867 280.485352,80.2519531 C280.485352,79.562171 280.704344,79.0088725 281.142334,78.592041 C281.580324,78.1752095 282.171709,77.9667969 282.916504,77.9667969 C283.369306,77.9667969 283.720539,78.01123 283.970215,78.1000977 L286.179199,78.1000977 Z M280.593262,86.1679688 C280.593262,87.1158902 281.297845,87.5898438 282.707031,87.5898438 C284.518238,87.5898438 285.423828,87.0122128 285.423828,85.8569336 C285.423828,85.442218 285.282065,85.1417653 284.998535,84.9555664 C284.715005,84.7693676 284.255863,84.6762695 283.621094,84.6762695 L282.491211,84.6762695 C281.225905,84.6762695 280.593262,85.1734976 280.593262,86.1679688 L280.593262,86.1679688 Z M281.120117,80.2519531 C281.120117,80.7851589 281.281981,81.1988104 281.605713,81.4929199 C281.929445,81.7870295 282.362139,81.934082 282.903809,81.934082 C283.479332,81.934082 283.92049,81.7880874 284.227295,81.4960938 C284.5341,81.2041001 284.6875,80.7809273 284.6875,80.2265625 C284.6875,79.6383434 284.529868,79.1971857 284.2146,78.9030762 C283.899331,78.6089666 283.458173,78.4619141 282.891113,78.4619141 C282.34098,78.4619141 281.908286,78.6195459 281.593018,78.9348145 C281.277749,79.250083 281.120117,79.6891248 281.120117,80.2519531 L281.120117,80.2519531 Z M287.467773,84.5048828 C287.467773,84.0901672 287.637043,83.8828125 287.975586,83.8828125 C288.322593,83.8828125 288.496094,84.0901672 288.496094,84.5048828 C288.496094,84.9195984 288.322593,85.1269531 287.975586,85.1269531 C287.637043,85.1269531 287.467773,84.9195984 287.467773,84.5048828 L287.467773,84.5048828 Z" id="The-quick-brown-fox" fill="#4A4A4A"></path>
                <use id="Rectangle-2" stroke="#024059" mask="url(#mask-5)" stroke-width="2" fill="#025B80" xlink:href="#path-4"></use>
                <path d="M159.613281,140.705078 C159.613281,142.076179 159.266605,143.154293 158.573242,143.939453 C157.879879,144.724613 156.916022,145.117188 155.681641,145.117188 C154.419916,145.117188 153.446292,144.731449 152.760742,143.959961 C152.075192,143.188473 151.732422,142.099616 151.732422,140.693359 C151.732422,139.298821 152.076168,138.217777 152.763672,137.450195 C153.451175,136.682613 154.427728,136.298828 155.693359,136.298828 C156.923834,136.298828 157.884762,136.689449 158.576172,137.470703 C159.267582,138.251957 159.613281,139.330071 159.613281,140.705078 L159.613281,140.705078 Z M152.787109,140.705078 C152.787109,141.86524 153.034177,142.745114 153.52832,143.344727 C154.022463,143.944339 154.74023,144.244141 155.681641,144.244141 C156.630864,144.244141 157.347654,143.945315 157.832031,143.347656 C158.316409,142.749997 158.558594,141.869146 158.558594,140.705078 C158.558594,139.552729 158.317385,138.678714 157.834961,138.083008 C157.352537,137.487302 156.638677,137.189453 155.693359,137.189453 C154.744136,137.189453 154.022463,137.489255 153.52832,138.088867 C153.034177,138.68848 152.787109,139.560541 152.787109,140.705078 L152.787109,140.705078 Z M167.710938,145 L166.539062,145 L163.416016,140.845703 L162.519531,141.642578 L162.519531,145 L161.523438,145 L161.523438,136.433594 L162.519531,136.433594 L162.519531,140.681641 L166.404297,136.433594 L167.582031,136.433594 L164.136719,140.154297 L167.710938,145 Z" id="OK" fill="#FFFFFF"></path>
            </g>
        </g>
    </g>
</svg>