<?xml version="1.0" encoding="UTF-8" standalone="no"?>
<svg width="409px" height="90px" viewBox="0 0 409 90" version="1.1" xmlns="http://www.w3.org/2000/svg" xmlns:xlink="http://www.w3.org/1999/xlink">
    <!-- Generator: Sketch 40.2 (33826) - http://www.bohemiancoding.com/sketch -->
    <title>bsc-tabs</title>
    <desc>Created with Sketch.</desc>
    <defs></defs>
    <g id="Components" stroke="none" stroke-width="1" fill="none" fill-rule="evenodd">
        <g id="Tabs" transform="translate(-325.000000, -705.000000)">
            <g id="bsc-tabs" transform="translate(325.000000, 705.000000)">
                <g id="Light-Tabs">
                    <rect id="Rectangle-6-Copy-6" fill="#E6E6E6" x="167" y="19" width="69" height="32" rx="2"></rect>
                    <path d="M96,50 L96,19 L27,19 L27,50 L0,50 L0,90 L354,90 L354,50 L96,50 Z" id="Rectangle-6-Copy-5" fill="#F5F5F5"></path>
                    <path d="M50.8144531,40 L49.8183594,40 L49.8183594,32.3183594 L47.1054688,32.3183594 L47.1054688,31.4335938 L53.5273438,31.4335938 L53.5273438,32.3183594 L50.8144531,32.3183594 L50.8144531,40 Z M57.6582031,40 L57.4648438,39.0859375 L57.4179688,39.0859375 C57.0976546,39.4882833 56.7783219,39.7607415 56.4599609,39.9033203 C56.1416,40.0458992 55.744143,40.1171875 55.2675781,40.1171875 C54.6308562,40.1171875 54.1318377,39.9531266 53.7705078,39.625 C53.4091779,39.2968734 53.2285156,38.8300812 53.2285156,38.2246094 C53.2285156,36.9277279 54.2656146,36.2480472 56.3398438,36.1855469 L57.4296875,36.1503906 L57.4296875,35.7519531 C57.4296875,35.2480444 57.3212901,34.8759778 57.1044922,34.6357422 C56.8876942,34.3955066 56.541018,34.2753906 56.0644531,34.2753906 C55.5292942,34.2753906 54.9238315,34.4394515 54.2480469,34.7675781 L53.9492188,34.0234375 C54.2656266,33.8515616 54.6123028,33.7167974 54.9892578,33.6191406 C55.3662128,33.5214839 55.7441387,33.4726562 56.1230469,33.4726562 C56.8886757,33.4726562 57.4560528,33.6425764 57.8251953,33.9824219 C58.1943378,34.3222673 58.3789062,34.8671837 58.3789062,35.6171875 L58.3789062,40 L57.6582031,40 Z M55.4609375,39.3144531 C56.0664093,39.3144531 56.5419905,39.1484392 56.8876953,38.8164062 C57.2334002,38.4843733 57.40625,38.0195342 57.40625,37.421875 L57.40625,36.8417969 L56.4335938,36.8828125 C55.6601524,36.9101564 55.1025408,37.0302724 54.7607422,37.2431641 C54.4189436,37.4560558 54.2480469,37.7871071 54.2480469,38.2363281 C54.2480469,38.5878924 54.3544911,38.8554678 54.5673828,39.0390625 C54.7802745,39.2226572 55.0781231,39.3144531 55.4609375,39.3144531 L55.4609375,39.3144531 Z M63.3710938,33.4726562 C64.214848,33.4726562 64.8701149,33.7607393 65.3369141,34.3369141 C65.8037133,34.9130888 66.0371094,35.7285104 66.0371094,36.7832031 C66.0371094,37.8378959 65.8017602,38.6572236 65.3310547,39.2412109 C64.8603492,39.8251982 64.2070354,40.1171875 63.3710938,40.1171875 C62.9531229,40.1171875 62.5712908,40.0400398 62.2255859,39.8857422 C61.8798811,39.7314445 61.5898449,39.4941422 61.3554688,39.1738281 L61.2851562,39.1738281 L61.0800781,40 L60.3828125,40 L60.3828125,30.8828125 L61.3554688,30.8828125 L61.3554688,33.0976562 C61.3554688,33.5937525 61.3398439,34.0390605 61.3085938,34.4335938 L61.3554688,34.4335938 C61.808596,33.7929655 62.4804643,33.4726562 63.3710938,33.4726562 L63.3710938,33.4726562 Z M63.2304688,34.2871094 C62.5664029,34.2871094 62.0878921,34.4775372 61.7949219,34.8583984 C61.5019517,35.2392597 61.3554688,35.8808549 61.3554688,36.7832031 C61.3554688,37.6855514 61.5058579,38.3310527 61.8066406,38.7197266 C62.1074234,39.1084004 62.5898404,39.3027344 63.2539062,39.3027344 C63.8515655,39.3027344 64.2968735,39.0849631 64.5898438,38.6494141 C64.882814,38.213865 65.0292969,37.5878947 65.0292969,36.7714844 C65.0292969,35.9355427 64.882814,35.3125021 64.5898438,34.9023438 C64.2968735,34.4921854 63.8437531,34.2871094 63.2304688,34.2871094 L63.2304688,34.2871094 Z M74.0117188,40 L73.0625,40 L73.0625,33.8945312 C73.0625,33.3867162 73.0781248,32.9062523 73.109375,32.453125 C73.0273433,32.5351567 72.9355474,32.6210933 72.8339844,32.7109375 C72.7324214,32.8007817 72.2675823,33.1816373 71.4394531,33.8535156 L70.9238281,33.1855469 L73.1914062,31.4335938 L74.0117188,31.4335938 L74.0117188,40 Z" id="Tab-1" fill="#4A4A4A"></path>
                    <path d="M118.814453,40 L117.818359,40 L117.818359,32.3183594 L115.105469,32.3183594 L115.105469,31.4335938 L121.527344,31.4335938 L121.527344,32.3183594 L118.814453,32.3183594 L118.814453,40 Z M125.658203,40 L125.464844,39.0859375 L125.417969,39.0859375 C125.097655,39.4882833 124.778322,39.7607415 124.459961,39.9033203 C124.1416,40.0458992 123.744143,40.1171875 123.267578,40.1171875 C122.630856,40.1171875 122.131838,39.9531266 121.770508,39.625 C121.409178,39.2968734 121.228516,38.8300812 121.228516,38.2246094 C121.228516,36.9277279 122.265615,36.2480472 124.339844,36.1855469 L125.429688,36.1503906 L125.429688,35.7519531 C125.429688,35.2480444 125.32129,34.8759778 125.104492,34.6357422 C124.887694,34.3955066 124.541018,34.2753906 124.064453,34.2753906 C123.529294,34.2753906 122.923832,34.4394515 122.248047,34.7675781 L121.949219,34.0234375 C122.265627,33.8515616 122.612303,33.7167974 122.989258,33.6191406 C123.366213,33.5214839 123.744139,33.4726562 124.123047,33.4726562 C124.888676,33.4726562 125.456053,33.6425764 125.825195,33.9824219 C126.194338,34.3222673 126.378906,34.8671837 126.378906,35.6171875 L126.378906,40 L125.658203,40 Z M123.460938,39.3144531 C124.066409,39.3144531 124.54199,39.1484392 124.887695,38.8164062 C125.2334,38.4843733 125.40625,38.0195342 125.40625,37.421875 L125.40625,36.8417969 L124.433594,36.8828125 C123.660152,36.9101564 123.102541,37.0302724 122.760742,37.2431641 C122.418944,37.4560558 122.248047,37.7871071 122.248047,38.2363281 C122.248047,38.5878924 122.354491,38.8554678 122.567383,39.0390625 C122.780275,39.2226572 123.078123,39.3144531 123.460938,39.3144531 L123.460938,39.3144531 Z M131.371094,33.4726562 C132.214848,33.4726562 132.870115,33.7607393 133.336914,34.3369141 C133.803713,34.9130888 134.037109,35.7285104 134.037109,36.7832031 C134.037109,37.8378959 133.80176,38.6572236 133.331055,39.2412109 C132.860349,39.8251982 132.207035,40.1171875 131.371094,40.1171875 C130.953123,40.1171875 130.571291,40.0400398 130.225586,39.8857422 C129.879881,39.7314445 129.589845,39.4941422 129.355469,39.1738281 L129.285156,39.1738281 L129.080078,40 L128.382812,40 L128.382812,30.8828125 L129.355469,30.8828125 L129.355469,33.0976562 C129.355469,33.5937525 129.339844,34.0390605 129.308594,34.4335938 L129.355469,34.4335938 C129.808596,33.7929655 130.480464,33.4726562 131.371094,33.4726562 L131.371094,33.4726562 Z M131.230469,34.2871094 C130.566403,34.2871094 130.087892,34.4775372 129.794922,34.8583984 C129.501952,35.2392597 129.355469,35.8808549 129.355469,36.7832031 C129.355469,37.6855514 129.505858,38.3310527 129.806641,38.7197266 C130.107423,39.1084004 130.58984,39.3027344 131.253906,39.3027344 C131.851565,39.3027344 132.296874,39.0849631 132.589844,38.6494141 C132.882814,38.213865 133.029297,37.5878947 133.029297,36.7714844 C133.029297,35.9355427 132.882814,35.3125021 132.589844,34.9023438 C132.296874,34.4921854 131.843753,34.2871094 131.230469,34.2871094 L131.230469,34.2871094 Z M144.039062,40 L138.408203,40 L138.408203,39.1621094 L140.664062,36.8945312 C141.351566,36.1992153 141.804686,35.7031265 142.023438,35.40625 C142.242189,35.1093735 142.406249,34.8203139 142.515625,34.5390625 C142.625001,34.2578111 142.679688,33.9550797 142.679688,33.6308594 C142.679688,33.1738258 142.541017,32.8115248 142.263672,32.5439453 C141.986327,32.2763658 141.601565,32.1425781 141.109375,32.1425781 C140.753904,32.1425781 140.416994,32.2011713 140.098633,32.3183594 C139.780272,32.4355475 139.425783,32.648436 139.035156,32.9570312 L138.519531,32.2949219 C139.308598,31.6386686 140.167964,31.3105469 141.097656,31.3105469 C141.902348,31.3105469 142.533201,31.5165995 142.990234,31.9287109 C143.447268,32.3408224 143.675781,32.8945278 143.675781,33.5898438 C143.675781,34.1328152 143.523439,34.6699192 143.21875,35.2011719 C142.914061,35.7324245 142.343754,36.4042928 141.507812,37.2167969 L139.632812,39.0507812 L139.632812,39.0976562 L144.039062,39.0976562 L144.039062,40 Z" id="Tab-2" fill="#4A4A4A"></path>
                    <path d="M188.814453,40 L187.818359,40 L187.818359,32.3183594 L185.105469,32.3183594 L185.105469,31.4335938 L191.527344,31.4335938 L191.527344,32.3183594 L188.814453,32.3183594 L188.814453,40 Z M195.658203,40 L195.464844,39.0859375 L195.417969,39.0859375 C195.097655,39.4882833 194.778322,39.7607415 194.459961,39.9033203 C194.1416,40.0458992 193.744143,40.1171875 193.267578,40.1171875 C192.630856,40.1171875 192.131838,39.9531266 191.770508,39.625 C191.409178,39.2968734 191.228516,38.8300812 191.228516,38.2246094 C191.228516,36.9277279 192.265615,36.2480472 194.339844,36.1855469 L195.429688,36.1503906 L195.429688,35.7519531 C195.429688,35.2480444 195.32129,34.8759778 195.104492,34.6357422 C194.887694,34.3955066 194.541018,34.2753906 194.064453,34.2753906 C193.529294,34.2753906 192.923832,34.4394515 192.248047,34.7675781 L191.949219,34.0234375 C192.265627,33.8515616 192.612303,33.7167974 192.989258,33.6191406 C193.366213,33.5214839 193.744139,33.4726562 194.123047,33.4726562 C194.888676,33.4726562 195.456053,33.6425764 195.825195,33.9824219 C196.194338,34.3222673 196.378906,34.8671837 196.378906,35.6171875 L196.378906,40 L195.658203,40 Z M193.460938,39.3144531 C194.066409,39.3144531 194.54199,39.1484392 194.887695,38.8164062 C195.2334,38.4843733 195.40625,38.0195342 195.40625,37.421875 L195.40625,36.8417969 L194.433594,36.8828125 C193.660152,36.9101564 193.102541,37.0302724 192.760742,37.2431641 C192.418944,37.4560558 192.248047,37.7871071 192.248047,38.2363281 C192.248047,38.5878924 192.354491,38.8554678 192.567383,39.0390625 C192.780275,39.2226572 193.078123,39.3144531 193.460938,39.3144531 L193.460938,39.3144531 Z M201.371094,33.4726562 C202.214848,33.4726562 202.870115,33.7607393 203.336914,34.3369141 C203.803713,34.9130888 204.037109,35.7285104 204.037109,36.7832031 C204.037109,37.8378959 203.80176,38.6572236 203.331055,39.2412109 C202.860349,39.8251982 202.207035,40.1171875 201.371094,40.1171875 C200.953123,40.1171875 200.571291,40.0400398 200.225586,39.8857422 C199.879881,39.7314445 199.589845,39.4941422 199.355469,39.1738281 L199.285156,39.1738281 L199.080078,40 L198.382812,40 L198.382812,30.8828125 L199.355469,30.8828125 L199.355469,33.0976562 C199.355469,33.5937525 199.339844,34.0390605 199.308594,34.4335938 L199.355469,34.4335938 C199.808596,33.7929655 200.480464,33.4726562 201.371094,33.4726562 L201.371094,33.4726562 Z M201.230469,34.2871094 C200.566403,34.2871094 200.087892,34.4775372 199.794922,34.8583984 C199.501952,35.2392597 199.355469,35.8808549 199.355469,36.7832031 C199.355469,37.6855514 199.505858,38.3310527 199.806641,38.7197266 C200.107423,39.1084004 200.58984,39.3027344 201.253906,39.3027344 C201.851565,39.3027344 202.296874,39.0849631 202.589844,38.6494141 C202.882814,38.213865 203.029297,37.5878947 203.029297,36.7714844 C203.029297,35.9355427 202.882814,35.3125021 202.589844,34.9023438 C202.296874,34.4921854 201.843753,34.2871094 201.230469,34.2871094 L201.230469,34.2871094 Z M213.716797,33.4492188 C213.716797,33.9960965 213.563478,34.4433576 213.256836,34.7910156 C212.950194,35.1386736 212.515628,35.3710932 211.953125,35.4882812 L211.953125,35.5351562 C212.640628,35.6210942 213.150389,35.839842 213.482422,36.1914062 C213.814455,36.5429705 213.980469,37.0039034 213.980469,37.5742188 C213.980469,38.3906291 213.697268,39.0185525 213.130859,39.4580078 C212.56445,39.8974631 211.759771,40.1171875 210.716797,40.1171875 C210.26367,40.1171875 209.848635,40.0830082 209.47168,40.0146484 C209.094725,39.9462887 208.728517,39.8261727 208.373047,39.6542969 L208.373047,38.7285156 C208.744142,38.9121103 209.139646,39.0517573 209.55957,39.1474609 C209.979494,39.2431645 210.376951,39.2910156 210.751953,39.2910156 C212.232429,39.2910156 212.972656,38.7109433 212.972656,37.5507812 C212.972656,36.5117136 212.156258,35.9921875 210.523438,35.9921875 L209.679688,35.9921875 L209.679688,35.1542969 L210.535156,35.1542969 C211.203128,35.1542969 211.73242,35.0068374 212.123047,34.7119141 C212.513674,34.4169907 212.708984,34.0078151 212.708984,33.484375 C212.708984,33.0664042 212.565431,32.7382824 212.27832,32.5 C211.99121,32.2617176 211.601565,32.1425781 211.109375,32.1425781 C210.734373,32.1425781 210.380861,32.1933589 210.048828,32.2949219 C209.716795,32.3964849 209.337893,32.583983 208.912109,32.8574219 L208.419922,32.2011719 C208.771486,31.9238267 209.176756,31.7060555 209.635742,31.5478516 C210.094729,31.3896476 210.578122,31.3105469 211.085938,31.3105469 C211.917973,31.3105469 212.564451,31.5009747 213.025391,31.8818359 C213.48633,32.2626972 213.716797,32.7851529 213.716797,33.4492188 L213.716797,33.4492188 Z" id="Tab-3" fill="#4A4A4A"></path>
                    <path d="M46.794,0.662 L48.166,0.662 L51.82,10 L50.322,10 L49.356,7.396 L45.52,7.396 L44.554,10 L43.14,10 L46.794,0.662 Z M48.95,6.262 L47.438,2.16 L45.912,6.262 L48.95,6.262 Z M58.498,9.104 C58.2086652,9.4306683 57.8516688,9.69433233 57.427,9.895 C57.0023312,10.0956677 56.5100028,10.196 55.95,10.196 C55.4273307,10.196 54.9536688,10.1096675 54.529,9.937 C54.1043312,9.76433247 53.7450015,9.52633485 53.451,9.223 C53.1569985,8.91966515 52.9306675,8.55566879 52.772,8.131 C52.6133325,7.70633121 52.534,7.24200252 52.534,6.738 C52.534,6.26199762 52.6179992,5.8140021 52.786,5.394 C52.9540008,4.9739979 53.1896651,4.60766823 53.493,4.295 C53.7963348,3.98233177 54.1556646,3.73500091 54.571,3.553 C54.9863354,3.37099909 55.4459975,3.28 55.95,3.28 C56.5006694,3.28 56.9859979,3.37799902 57.406,3.574 C57.8260021,3.77000098 58.1853318,4.03599832 58.484,4.372 L57.658,5.17 C57.461999,4.92733212 57.2240014,4.7360007 56.944,4.596 C56.6639986,4.4559993 56.3326686,4.386 55.95,4.386 C55.6139983,4.386 55.3130013,4.44899937 55.047,4.575 C54.7809987,4.70100063 54.5570009,4.87366557 54.375,5.093 C54.1929991,5.31233443 54.0530005,5.56433191 53.955,5.849 C53.8569995,6.13366809 53.808,6.42999846 53.808,6.738 C53.808,7.03666816 53.8569995,7.32833191 53.955,7.613 C54.0530005,7.89766809 54.1929991,8.14966557 54.375,8.369 C54.5570009,8.58833443 54.7809987,8.76333268 55.047,8.894 C55.3130013,9.02466732 55.6139983,9.09 55.95,9.09 C56.3326686,9.09 56.6756651,9.01766739 56.979,8.873 C57.2823348,8.72833261 57.531999,8.53466788 57.728,8.292 L58.498,9.104 Z M60.304,4.54 L59.128,4.54 L59.128,3.49 L60.304,3.49 L60.304,1.362 L61.564,1.362 L61.564,3.49 L63.468,3.49 L63.468,4.54 L61.564,4.54 L61.564,7.746 C61.564,8.26866928 61.6456658,8.62799902 61.809,8.824 C61.9723341,9.02000098 62.2033318,9.118 62.502,9.118 C62.7446679,9.118 62.9453325,9.08066704 63.104,9.006 C63.2626675,8.93133296 63.4213325,8.81933408 63.58,8.67 L64.154,9.44 C63.883332,9.70133464 63.6056681,9.89033275 63.321,10.007 C63.0363319,10.1236673 62.698002,10.182 62.306,10.182 C61.6153299,10.182 61.1090016,9.9953352 60.787,9.622 C60.4649984,9.2486648 60.304,8.6653373 60.304,7.872 L60.304,4.54 Z M65.092,0.914 L66.506,0.914 L66.506,2.328 L65.092,2.328 L65.092,0.914 Z M65.176,3.49 L66.436,3.49 L66.436,10 L65.176,10 L65.176,3.49 Z M67.164,3.49 L68.606,3.49 L70.636,8.572 L72.652,3.49 L74.01,3.49 L71.224,10 L69.964,10 L67.164,3.49 Z M80.632,9.048 C80.557333,9.13200042 80.4453341,9.23933268 80.296,9.37 C80.1466659,9.50066732 79.9530012,9.62666606 79.715,9.748 C79.4769988,9.86933394 79.1970016,9.97433289 78.875,10.063 C78.5529984,10.1516671 78.1866687,10.196 77.776,10.196 C77.2719975,10.196 76.8100021,10.1120008 76.39,9.944 C75.9699979,9.77599916 75.6106682,9.53800154 75.312,9.23 C75.0133318,8.92199846 74.7823341,8.55333548 74.619,8.124 C74.4556658,7.69466452 74.374,7.21866928 74.374,6.696 C74.374,6.21999762 74.4533325,5.77433541 74.612,5.359 C74.7706675,4.94366459 74.9946652,4.58433485 75.284,4.281 C75.5733348,3.97766515 75.9163313,3.73733422 76.313,3.56 C76.7096686,3.38266578 77.1459976,3.294 77.622,3.294 C78.1820028,3.294 78.6626647,3.40133226 79.064,3.616 C79.4653353,3.83066774 79.794332,4.11533156 80.051,4.47 C80.3076679,4.82466844 80.4966661,5.23066438 80.618,5.688 C80.7393339,6.14533562 80.8,6.62133086 80.8,7.116 L75.662,7.116 C75.6713334,7.40533478 75.7343327,7.67133212 75.851,7.914 C75.9676672,8.15666788 76.123999,8.36666578 76.32,8.544 C76.516001,8.72133422 76.7399987,8.86133282 76.992,8.964 C77.2440013,9.06666718 77.5099986,9.118 77.79,9.118 C78.3406694,9.118 78.7933316,9.0246676 79.148,8.838 C79.5026684,8.6513324 79.7593325,8.46933422 79.918,8.292 L80.632,9.048 Z M79.498,6.178 C79.4606665,5.67399748 79.2833349,5.24466844 78.966,4.89 C78.6486651,4.53533156 78.2006696,4.358 77.622,4.358 C77.3233318,4.358 77.0550012,4.40933282 76.817,4.512 C76.5789988,4.61466718 76.3760008,4.74999916 76.208,4.918 C76.0399992,5.08600084 75.9093338,5.27966557 75.816,5.499 C75.7226662,5.71833443 75.6713334,5.9446655 75.662,6.178 L79.498,6.178 Z" id="Active" fill="#9B9B9B"></path>
                    <path d="M110.064,0.662 L111.408,0.662 L111.408,10 L110.064,10 L110.064,0.662 Z M113.34,10 L113.34,4.162 C113.34,3.94733226 113.335333,3.7233345 113.326,3.49 L114.53,3.49 L114.572,4.47 C114.656,4.35799944 114.758666,4.23433401 114.88,4.099 C115.001334,3.96366599 115.150666,3.84000056 115.328,3.728 C115.505334,3.61599944 115.712999,3.52266704 115.951,3.448 C116.189001,3.37333296 116.457332,3.336 116.756,3.336 C117.605338,3.336 118.235331,3.58333086 118.646,4.078 C119.056669,4.57266914 119.262,5.24466242 119.262,6.094 L119.262,10 L118.002,10 L118.002,6.192 C118.002,5.5853303 117.871335,5.13966809 117.61,4.855 C117.348665,4.57033191 116.980002,4.428 116.504,4.428 C116.139998,4.428 115.836668,4.50266592 115.594,4.652 C115.351332,4.80133408 115.157667,4.99499881 115.013,5.233 C114.868333,5.47100119 114.763334,5.74166515 114.698,6.045 C114.632666,6.34833485 114.6,6.65866508 114.6,6.976 L114.6,10 L113.34,10 Z M125.03,9.216 C124.787332,9.5426683 124.467669,9.78533254 124.071,9.944 C123.674331,10.1026675 123.266002,10.182 122.846,10.182 C122.575332,10.182 122.307001,10.1470004 122.041,10.077 C121.774999,10.0069997 121.532334,9.89033415 121.313,9.727 C121.093666,9.56366585 120.916334,9.35366795 120.781,9.097 C120.645666,8.84033205 120.578,8.5253352 120.578,8.152 C120.578,7.4519965 120.822998,6.8920021 121.313,6.472 C121.803002,6.0519979 122.509995,5.842 123.434,5.842 C123.583334,5.842 123.741999,5.84666662 123.91,5.856 C124.078001,5.86533338 124.236666,5.87466662 124.386,5.884 C124.535334,5.89333338 124.665999,5.90266662 124.778,5.912 C124.890001,5.92133338 124.969333,5.93066662 125.016,5.94 L125.016,5.702 C125.016,5.21666424 124.869001,4.86900105 124.575,4.659 C124.280999,4.44899895 123.882003,4.344 123.378,4.344 C122.883331,4.344 122.491335,4.41166599 122.202,4.547 C121.912665,4.68233401 121.670001,4.8199993 121.474,4.96 L120.886,4.106 C120.998001,4.0126662 121.133333,3.9193338 121.292,3.826 C121.450667,3.7326662 121.637332,3.64633373 121.852,3.567 C122.066668,3.48766627 122.309332,3.42233359 122.58,3.371 C122.850668,3.31966641 123.163332,3.294 123.518,3.294 C124.358004,3.294 125.018331,3.49699797 125.499,3.903 C125.979669,4.30900203 126.22,4.8853296 126.22,5.632 L126.22,9.426 C126.22,9.65000112 126.224667,9.84133254 126.234,10 L125.058,10 L125.03,9.216 Z M125.016,6.92 C124.978666,6.91066662 124.906334,6.89900007 124.799,6.885 C124.691666,6.87099993 124.568001,6.85933338 124.428,6.85 C124.287999,6.84066662 124.138667,6.83133338 123.98,6.822 C123.821333,6.81266662 123.667334,6.808 123.518,6.808 C123.163332,6.808 122.876334,6.84999958 122.657,6.934 C122.437666,7.01800042 122.265001,7.12299937 122.139,7.249 C122.012999,7.37500063 121.926667,7.51499923 121.88,7.669 C121.833333,7.82300077 121.81,7.9699993 121.81,8.11 C121.81,8.46466844 121.931332,8.73299909 122.174,8.915 C122.416668,9.09700091 122.752665,9.188 123.182,9.188 C123.424668,9.188 123.655666,9.14600042 123.875,9.062 C124.094334,8.97799958 124.287999,8.8660007 124.456,8.726 C124.624001,8.5859993 124.759333,8.4226676 124.862,8.236 C124.964667,8.0493324 125.016,7.85800098 125.016,7.662 L125.016,6.92 Z M133.598,9.104 C133.308665,9.4306683 132.951669,9.69433233 132.527,9.895 C132.102331,10.0956677 131.610003,10.196 131.05,10.196 C130.527331,10.196 130.053669,10.1096675 129.629,9.937 C129.204331,9.76433247 128.845001,9.52633485 128.551,9.223 C128.256999,8.91966515 128.030667,8.55566879 127.872,8.131 C127.713333,7.70633121 127.634,7.24200252 127.634,6.738 C127.634,6.26199762 127.717999,5.8140021 127.886,5.394 C128.054001,4.9739979 128.289665,4.60766823 128.593,4.295 C128.896335,3.98233177 129.255665,3.73500091 129.671,3.553 C130.086335,3.37099909 130.545997,3.28 131.05,3.28 C131.600669,3.28 132.085998,3.37799902 132.506,3.574 C132.926002,3.77000098 133.285332,4.03599832 133.584,4.372 L132.758,5.17 C132.561999,4.92733212 132.324001,4.7360007 132.044,4.596 C131.763999,4.4559993 131.432669,4.386 131.05,4.386 C130.713998,4.386 130.413001,4.44899937 130.147,4.575 C129.880999,4.70100063 129.657001,4.87366557 129.475,5.093 C129.292999,5.31233443 129.153,5.56433191 129.055,5.849 C128.957,6.13366809 128.908,6.42999846 128.908,6.738 C128.908,7.03666816 128.957,7.32833191 129.055,7.613 C129.153,7.89766809 129.292999,8.14966557 129.475,8.369 C129.657001,8.58833443 129.880999,8.76333268 130.147,8.894 C130.413001,9.02466732 130.713998,9.09 131.05,9.09 C131.432669,9.09 131.775665,9.01766739 132.079,8.873 C132.382335,8.72833261 132.631999,8.53466788 132.828,8.292 L133.598,9.104 Z M135.404,4.54 L134.228,4.54 L134.228,3.49 L135.404,3.49 L135.404,1.362 L136.664,1.362 L136.664,3.49 L138.568,3.49 L138.568,4.54 L136.664,4.54 L136.664,7.746 C136.664,8.26866928 136.745666,8.62799902 136.909,8.824 C137.072334,9.02000098 137.303332,9.118 137.602,9.118 C137.844668,9.118 138.045333,9.08066704 138.204,9.006 C138.362667,8.93133296 138.521333,8.81933408 138.68,8.67 L139.254,9.44 C138.983332,9.70133464 138.705668,9.89033275 138.421,10.007 C138.136332,10.1236673 137.798002,10.182 137.406,10.182 C136.71533,10.182 136.209002,9.9953352 135.887,9.622 C135.564998,9.2486648 135.404,8.6653373 135.404,7.872 L135.404,4.54 Z M140.192,0.914 L141.606,0.914 L141.606,2.328 L140.192,2.328 L140.192,0.914 Z M140.276,3.49 L141.536,3.49 L141.536,10 L140.276,10 L140.276,3.49 Z M142.264,3.49 L143.706,3.49 L145.736,8.572 L147.752,3.49 L149.11,3.49 L146.324,10 L145.064,10 L142.264,3.49 Z M155.732,9.048 C155.657333,9.13200042 155.545334,9.23933268 155.396,9.37 C155.246666,9.50066732 155.053001,9.62666606 154.815,9.748 C154.576999,9.86933394 154.297002,9.97433289 153.975,10.063 C153.652998,10.1516671 153.286669,10.196 152.876,10.196 C152.371997,10.196 151.910002,10.1120008 151.49,9.944 C151.069998,9.77599916 150.710668,9.53800154 150.412,9.23 C150.113332,8.92199846 149.882334,8.55333548 149.719,8.124 C149.555666,7.69466452 149.474,7.21866928 149.474,6.696 C149.474,6.21999762 149.553333,5.77433541 149.712,5.359 C149.870667,4.94366459 150.094665,4.58433485 150.384,4.281 C150.673335,3.97766515 151.016331,3.73733422 151.413,3.56 C151.809669,3.38266578 152.245998,3.294 152.722,3.294 C153.282003,3.294 153.762665,3.40133226 154.164,3.616 C154.565335,3.83066774 154.894332,4.11533156 155.151,4.47 C155.407668,4.82466844 155.596666,5.23066438 155.718,5.688 C155.839334,6.14533562 155.9,6.62133086 155.9,7.116 L150.762,7.116 C150.771333,7.40533478 150.834333,7.67133212 150.951,7.914 C151.067667,8.15666788 151.223999,8.36666578 151.42,8.544 C151.616001,8.72133422 151.839999,8.86133282 152.092,8.964 C152.344001,9.06666718 152.609999,9.118 152.89,9.118 C153.440669,9.118 153.893332,9.0246676 154.248,8.838 C154.602668,8.6513324 154.859333,8.46933422 155.018,8.292 L155.732,9.048 Z M154.598,6.178 C154.560666,5.67399748 154.383335,5.24466844 154.066,4.89 C153.748665,4.53533156 153.30067,4.358 152.722,4.358 C152.423332,4.358 152.155001,4.40933282 151.917,4.512 C151.678999,4.61466718 151.476001,4.74999916 151.308,4.918 C151.139999,5.08600084 151.009334,5.27966557 150.916,5.499 C150.822666,5.71833443 150.771333,5.9446655 150.762,6.178 L154.598,6.178 Z" id="Inactive" fill="#9B9B9B"></path>
                    <path d="M185.064,0.662 L186.408,0.662 L186.408,4.568 L191.518,4.568 L191.518,0.662 L192.862,0.662 L192.862,10 L191.518,10 L191.518,5.772 L186.408,5.772 L186.408,10 L185.064,10 L185.064,0.662 Z M197.93,10.196 C197.425997,10.196 196.964002,10.1050009 196.544,9.923 C196.123998,9.74099909 195.762335,9.49133492 195.459,9.174 C195.155665,8.85666508 194.917668,8.49033541 194.745,8.075 C194.572332,7.65966459 194.486,7.21400238 194.486,6.738 C194.486,6.26199762 194.572332,5.81633541 194.745,5.401 C194.917668,4.98566459 195.155665,4.61933492 195.459,4.302 C195.762335,3.98466508 196.123998,3.73500091 196.544,3.553 C196.964002,3.37099909 197.425997,3.28 197.93,3.28 C198.424669,3.28 198.881998,3.37099909 199.302,3.553 C199.722002,3.73500091 200.085998,3.98466508 200.394,4.302 C200.702002,4.61933492 200.942332,4.98566459 201.115,5.401 C201.287668,5.81633541 201.374,6.26199762 201.374,6.738 C201.374,7.21400238 201.287668,7.65966459 201.115,8.075 C200.942332,8.49033541 200.702002,8.85666508 200.394,9.174 C200.085998,9.49133492 199.722002,9.74099909 199.302,9.923 C198.881998,10.1050009 198.424669,10.196 197.93,10.196 L197.93,10.196 Z M197.93,9.104 C198.266002,9.104 198.569332,9.03633401 198.84,8.901 C199.110668,8.76566599 199.339332,8.58833443 199.526,8.369 C199.712668,8.14966557 199.855,7.89766809 199.953,7.613 C200.051,7.32833191 200.1,7.03666816 200.1,6.738 C200.1,6.44866522 200.051,6.16166809 199.953,5.877 C199.855,5.59233191 199.710334,5.33800112 199.519,5.114 C199.327666,4.88999888 199.099001,4.71033401 198.833,4.575 C198.566999,4.43966599 198.266002,4.372 197.93,4.372 C197.593998,4.372 197.290668,4.43966599 197.02,4.575 C196.749332,4.71033401 196.520668,4.88766557 196.334,5.107 C196.147332,5.32633443 196.005,5.57833191 195.907,5.863 C195.809,6.14766809 195.76,6.43933184 195.76,6.738 C195.76,7.03666816 195.809,7.3259986 195.907,7.606 C196.005,7.8860014 196.149666,8.13799888 196.341,8.362 C196.532334,8.58600112 196.760999,8.76566599 197.027,8.901 C197.293001,9.03633401 197.593998,9.104 197.93,9.104 L197.93,9.104 Z M201.668,3.49 L203.11,3.49 L205.14,8.572 L207.156,3.49 L208.514,3.49 L205.728,10 L204.468,10 L201.668,3.49 Z M215.136,9.048 C215.061333,9.13200042 214.949334,9.23933268 214.8,9.37 C214.650666,9.50066732 214.457001,9.62666606 214.219,9.748 C213.980999,9.86933394 213.701002,9.97433289 213.379,10.063 C213.056998,10.1516671 212.690669,10.196 212.28,10.196 C211.775997,10.196 211.314002,10.1120008 210.894,9.944 C210.473998,9.77599916 210.114668,9.53800154 209.816,9.23 C209.517332,8.92199846 209.286334,8.55333548 209.123,8.124 C208.959666,7.69466452 208.878,7.21866928 208.878,6.696 C208.878,6.21999762 208.957333,5.77433541 209.116,5.359 C209.274667,4.94366459 209.498665,4.58433485 209.788,4.281 C210.077335,3.97766515 210.420331,3.73733422 210.817,3.56 C211.213669,3.38266578 211.649998,3.294 212.126,3.294 C212.686003,3.294 213.166665,3.40133226 213.568,3.616 C213.969335,3.83066774 214.298332,4.11533156 214.555,4.47 C214.811668,4.82466844 215.000666,5.23066438 215.122,5.688 C215.243334,6.14533562 215.304,6.62133086 215.304,7.116 L210.166,7.116 C210.175333,7.40533478 210.238333,7.67133212 210.355,7.914 C210.471667,8.15666788 210.627999,8.36666578 210.824,8.544 C211.020001,8.72133422 211.243999,8.86133282 211.496,8.964 C211.748001,9.06666718 212.013999,9.118 212.294,9.118 C212.844669,9.118 213.297332,9.0246676 213.652,8.838 C214.006668,8.6513324 214.263333,8.46933422 214.422,8.292 L215.136,9.048 Z M214.002,6.178 C213.964666,5.67399748 213.787335,5.24466844 213.47,4.89 C213.152665,4.53533156 212.70467,4.358 212.126,4.358 C211.827332,4.358 211.559001,4.40933282 211.321,4.512 C211.082999,4.61466718 210.880001,4.74999916 210.712,4.918 C210.543999,5.08600084 210.413334,5.27966557 210.32,5.499 C210.226666,5.71833443 210.175333,5.9446655 210.166,6.178 L214.002,6.178 Z M216.704,10 L216.704,4.12 C216.704,3.91466564 216.699333,3.70466774 216.69,3.49 L217.894,3.49 L217.936,4.54 C218.010667,4.42799944 218.108666,4.30433401 218.23,4.169 C218.351334,4.03366599 218.498332,3.91000056 218.671,3.798 C218.843668,3.68599944 219.044332,3.59033373 219.273,3.511 C219.501668,3.43166627 219.765332,3.392 220.064,3.392 C220.204001,3.392 220.332333,3.40133324 220.449,3.42 C220.565667,3.43866676 220.675333,3.46666648 220.778,3.504 L220.498,4.68 C220.329999,4.61466634 220.115335,4.582 219.854,4.582 C219.583332,4.582 219.333668,4.63333282 219.105,4.736 C218.876332,4.83866718 218.678001,4.98099909 218.51,5.163 C218.341999,5.34500091 218.209,5.55733212 218.111,5.8 C218.013,6.04266788 217.964,6.29933198 217.964,6.57 L217.964,10 L216.704,10 Z" id="Hover" fill="#9B9B9B"></path>
                </g>
                <path d="M366.5,50.5 L366.5,89.5" id="Line" stroke="#919191" stroke-linecap="square"></path>
                <path id="Line-decoration-1" d="M369.5,50.5 L363.5,50.5" stroke="#919191" stroke-linecap="square"></path>
                <path id="Line-decoration-2" d="M369.5,89.5 L363.5,89.5" stroke="#919191" stroke-linecap="square"></path>
                <path d="M377.868,71.34 L382.124,65.152 L382.824,65.152 L382.824,71.34 L383.846,71.34 L383.846,71.956 L382.824,71.956 L382.824,74 L382.166,74 L382.166,71.956 L377.868,71.956 L377.868,71.34 Z M382.166,71.34 L382.166,66.118 L378.568,71.34 L382.166,71.34 Z M388.424,73.524 C389.245337,73.524 389.872998,73.1740035 390.307,72.474 C390.741002,71.7739965 390.958,70.7893397 390.958,69.52 C390.958,68.2506603 390.741002,67.2730034 390.307,66.587 C389.872998,65.9009966 389.245337,65.558 388.424,65.558 C387.621329,65.558 387.003002,65.9009966 386.569,66.587 C386.134998,67.2730034 385.918,68.2506603 385.918,69.52 C385.918,70.7893397 386.134998,71.7739965 386.569,72.474 C387.003002,73.1740035 387.621329,73.524 388.424,73.524 L388.424,73.524 Z M388.438,74.168 C387.933997,74.168 387.481335,74.0606677 387.08,73.846 C386.678665,73.6313323 386.340335,73.3233353 386.065,72.922 C385.789665,72.5206647 385.577334,72.0330029 385.428,71.459 C385.278666,70.8849971 385.204,70.2386703 385.204,69.52 C385.204,68.8013297 385.278666,68.1573362 385.428,67.588 C385.577334,67.0186638 385.789665,66.538002 386.065,66.146 C386.340335,65.753998 386.678665,65.453001 387.08,65.243 C387.481335,65.032999 387.933997,64.928 388.438,64.928 C388.942003,64.928 389.394665,65.032999 389.796,65.243 C390.197335,65.453001 390.535665,65.753998 390.811,66.146 C391.086335,66.538002 391.298666,67.0186638 391.448,67.588 C391.597334,68.1573362 391.672,68.8013297 391.672,69.52 C391.672,70.2386703 391.597334,70.8849971 391.448,71.459 C391.298666,72.0330029 391.086335,72.5206647 390.811,72.922 C390.535665,73.3233353 390.197335,73.6313323 389.796,73.846 C389.394665,74.0606677 388.942003,74.168 388.438,74.168 L388.438,74.168 Z M395.788,68.918 L395.788,68.463 L395.788,68.127 C395.788,68.0289995 395.785667,67.9356671 395.781,67.847 C395.776333,67.7583329 395.769333,67.6626672 395.76,67.56 L396.348,67.56 C396.357333,67.6626672 396.364333,67.7536663 396.369,67.833 C396.373667,67.9123337 396.378333,67.9939996 396.383,68.078 C396.387667,68.1620004 396.392333,68.2576661 396.397,68.365 C396.401667,68.4723339 396.404,68.6006659 396.404,68.75 C396.450667,68.6659996 396.525333,68.5493341 396.628,68.4 C396.730667,68.2506659 396.877666,68.1013341 397.069,67.952 C397.260334,67.8026659 397.495999,67.6720006 397.776,67.56 C398.056001,67.4479994 398.391998,67.392 398.784,67.392 C399.278669,67.392 399.707998,67.4806658 400.072,67.658 C400.436002,67.8353342 400.736999,68.0779985 400.975,68.386 C401.213001,68.6940015 401.390333,69.0556646 401.507,69.471 C401.623667,69.8863354 401.682,70.3366642 401.682,70.822 C401.682,71.3260025 401.600334,71.7833313 401.437,72.194 C401.273666,72.6046687 401.045001,72.9569985 400.751,73.251 C400.456999,73.5450015 400.111669,73.7713325 399.715,73.93 C399.318331,74.0886675 398.886669,74.168 398.42,74.168 C397.962664,74.168 397.570668,74.1050006 397.244,73.979 C396.917332,73.8529994 396.637335,73.7246673 396.404,73.594 L396.404,76.8 L395.788,76.8 L395.788,68.918 Z M396.404,72.88 C396.469334,72.9266669 396.557999,72.9896663 396.67,73.069 C396.782001,73.1483337 396.921999,73.225333 397.09,73.3 C397.258001,73.374667 397.451666,73.4399997 397.671,73.496 C397.890334,73.5520003 398.139999,73.58 398.42,73.58 C398.774668,73.58 399.110665,73.5193339 399.428,73.398 C399.745335,73.2766661 400.020666,73.0993345 400.254,72.866 C400.487335,72.6326655 400.671666,72.3456684 400.807,72.005 C400.942334,71.6643316 401.01,71.2700022 401.01,70.822 C401.01,70.4486648 400.968,70.0893351 400.884,69.744 C400.8,69.3986649 400.667001,69.0953346 400.485,68.834 C400.302999,68.5726654 400.067335,68.3650008 399.778,68.211 C399.488665,68.0569992 399.134002,67.98 398.714,67.98 C398.433999,67.98 398.179668,68.0219996 397.951,68.106 C397.722332,68.1900004 397.519334,68.3043326 397.342,68.449 C397.164666,68.5936674 397.010667,68.7616657 396.88,68.953 C396.749333,69.1443343 396.646667,69.3426656 396.572,69.548 C396.506666,69.7160008 396.462333,69.9166655 396.439,70.15 C396.415667,70.3833345 396.404,70.6213321 396.404,70.864 L396.404,72.88 Z M404.664,70.556 L402.382,67.56 L403.166,67.56 L405.098,70.094 L406.974,67.56 L407.674,67.56 L405.448,70.556 L408.08,74 L407.296,74 L405.014,71.018 L402.816,74 L402.116,74 L404.664,70.556 Z" id="40-px" fill="#000000"></path>
                <path d="M246.5,19.5 L246.5,50.5" id="Line" stroke="#919191" stroke-linecap="square"></path>
                <path id="Line-decoration-1" d="M249.5,19.5 L243.5,19.5" stroke="#919191" stroke-linecap="square"></path>
                <path id="Line-decoration-2" d="M249.5,50.5 L243.5,50.5" stroke="#919191" stroke-linecap="square"></path>
                <path d="M255.204,37.768 C255.297334,37.842667 255.406999,37.9266662 255.533,38.02 C255.659001,38.1133338 255.812999,38.2019996 255.995,38.286 C256.177001,38.3700004 256.386999,38.442333 256.625,38.503 C256.863001,38.563667 257.145332,38.594 257.472,38.594 C258.19067,38.594 258.755331,38.4026686 259.166,38.02 C259.576669,37.6373314 259.782,37.11467 259.782,36.452 C259.782,36.0973316 259.728334,35.7940013 259.621,35.542 C259.513666,35.2899987 259.366668,35.0846675 259.18,34.926 C258.993332,34.7673325 258.776335,34.650667 258.529,34.576 C258.281665,34.501333 258.013335,34.464 257.724,34.464 C257.499999,34.464 257.315667,34.4803332 257.171,34.513 C257.026333,34.5456668 256.874667,34.5853331 256.716,34.632 L256.45,34.17 L259.292,30.768 L255.414,30.768 L255.414,30.152 L260.146,30.152 L260.146,30.754 L257.402,33.932 C257.476667,33.9133332 257.553666,33.8993334 257.633,33.89 C257.712334,33.8806666 257.789333,33.876 257.864,33.876 C258.237335,33.876 258.584998,33.9343328 258.907,34.051 C259.229002,34.1676673 259.504332,34.3356656 259.733,34.555 C259.961668,34.7743344 260.141333,35.0426651 260.272,35.36 C260.402667,35.6773349 260.468,36.0413313 260.468,36.452 C260.468,36.918669 260.388667,37.3246649 260.23,37.67 C260.071333,38.0153351 259.852001,38.3046655 259.572,38.538 C259.291999,38.7713345 258.967669,38.9439994 258.599,39.056 C258.230331,39.1680006 257.836002,39.224 257.416,39.224 C257.033331,39.224 256.699668,39.1890004 256.415,39.119 C256.130332,39.0489996 255.883001,38.9650005 255.673,38.867 C255.462999,38.7689995 255.285667,38.6686672 255.141,38.566 C254.996333,38.4633328 254.877334,38.374667 254.784,38.3 L255.204,37.768 Z M262.722,38.384 C262.722,37.8893309 262.864332,37.4483353 263.149,37.061 C263.433668,36.6736647 263.781331,36.3073351 264.192,35.962 C264.350667,35.8219993 264.516332,35.684334 264.689,35.549 C264.861668,35.413666 265.031999,35.2760007 265.2,35.136 C265.489335,34.9026655 265.762332,34.6693345 266.019,34.436 C266.275668,34.2026655 266.499666,33.9670012 266.691,33.729 C266.882334,33.4909988 267.033999,33.2460013 267.146,32.994 C267.258001,32.7419987 267.314,32.4760014 267.314,32.196 C267.314,31.9719989 267.276667,31.762001 267.202,31.566 C267.127333,31.369999 267.013001,31.1973341 266.859,31.048 C266.704999,30.8986659 266.511334,30.7796671 266.278,30.691 C266.044665,30.6023329 265.769335,30.558 265.452,30.558 C265.134665,30.558 264.861668,30.595333 264.633,30.67 C264.404332,30.744667 264.206001,30.8379994 264.038,30.95 C263.869999,31.0620006 263.725334,31.185666 263.604,31.321 C263.482666,31.456334 263.375334,31.5846661 263.282,31.706 L262.778,31.356 C262.862,31.2159993 262.976333,31.0643342 263.121,30.901 C263.265667,30.7376658 263.445332,30.5836674 263.66,30.439 C263.874668,30.2943326 264.128999,30.1730005 264.423,30.075 C264.717001,29.9769995 265.055331,29.928 265.438,29.928 C265.867335,29.928 266.245332,29.9886661 266.572,30.11 C266.898668,30.2313339 267.171666,30.3946656 267.391,30.6 C267.610334,30.8053344 267.773666,31.0456653 267.881,31.321 C267.988334,31.5963347 268.042,31.8926651 268.042,32.21 C268.042,32.5740018 267.979001,32.9053318 267.853,33.204 C267.726999,33.5026682 267.559001,33.780332 267.349,34.037 C267.138999,34.2936679 266.901001,34.5386655 266.635,34.772 C266.368999,35.0053345 266.091335,35.2386655 265.802,35.472 C265.559332,35.668001 265.335334,35.8476658 265.13,36.011 C264.924666,36.1743341 264.733334,36.3353325 264.556,36.494 C264.201332,36.8020015 263.930668,37.0983319 263.744,37.383 C263.557332,37.6676681 263.464,37.9966648 263.464,38.37 L268.182,38.37 L268.182,39 L262.722,39 L262.722,38.384 Z M272.788,33.918 L272.788,33.463 L272.788,33.127 C272.788,33.0289995 272.785667,32.9356671 272.781,32.847 C272.776333,32.7583329 272.769333,32.6626672 272.76,32.56 L273.348,32.56 C273.357333,32.6626672 273.364333,32.7536663 273.369,32.833 C273.373667,32.9123337 273.378333,32.9939996 273.383,33.078 C273.387667,33.1620004 273.392333,33.2576661 273.397,33.365 C273.401667,33.4723339 273.404,33.6006659 273.404,33.75 C273.450667,33.6659996 273.525333,33.5493341 273.628,33.4 C273.730667,33.2506659 273.877666,33.1013341 274.069,32.952 C274.260334,32.8026659 274.495999,32.6720006 274.776,32.56 C275.056001,32.4479994 275.391998,32.392 275.784,32.392 C276.278669,32.392 276.707998,32.4806658 277.072,32.658 C277.436002,32.8353342 277.736999,33.0779985 277.975,33.386 C278.213001,33.6940015 278.390333,34.0556646 278.507,34.471 C278.623667,34.8863354 278.682,35.3366642 278.682,35.822 C278.682,36.3260025 278.600334,36.7833313 278.437,37.194 C278.273666,37.6046687 278.045001,37.9569985 277.751,38.251 C277.456999,38.5450015 277.111669,38.7713325 276.715,38.93 C276.318331,39.0886675 275.886669,39.168 275.42,39.168 C274.962664,39.168 274.570668,39.1050006 274.244,38.979 C273.917332,38.8529994 273.637334,38.7246673 273.404,38.594 L273.404,41.8 L272.788,41.8 L272.788,33.918 Z M273.404,37.88 C273.469334,37.9266669 273.557999,37.9896663 273.67,38.069 C273.782001,38.1483337 273.921999,38.225333 274.09,38.3 C274.258001,38.374667 274.451666,38.4399997 274.671,38.496 C274.890334,38.5520003 275.139999,38.58 275.42,38.58 C275.774668,38.58 276.110665,38.5193339 276.428,38.398 C276.745335,38.2766661 277.020665,38.0993345 277.254,37.866 C277.487334,37.6326655 277.671666,37.3456684 277.807,37.005 C277.942334,36.6643316 278.01,36.2700022 278.01,35.822 C278.01,35.4486648 277.968,35.0893351 277.884,34.744 C277.8,34.3986649 277.667001,34.0953346 277.485,33.834 C277.302999,33.5726654 277.067335,33.3650008 276.778,33.211 C276.488665,33.0569992 276.134002,32.98 275.714,32.98 C275.433999,32.98 275.179668,33.0219996 274.951,33.106 C274.722332,33.1900004 274.519334,33.3043326 274.342,33.449 C274.164666,33.5936674 274.010667,33.7616657 273.88,33.953 C273.749333,34.1443343 273.646667,34.3426656 273.572,34.548 C273.506666,34.7160008 273.462333,34.9166655 273.439,35.15 C273.415667,35.3833345 273.404,35.6213321 273.404,35.864 L273.404,37.88 Z M281.664,35.556 L279.382,32.56 L280.166,32.56 L282.098,35.094 L283.974,32.56 L284.674,32.56 L282.448,35.556 L285.08,39 L284.296,39 L282.014,36.018 L279.816,39 L279.116,39 L281.664,35.556 Z" id="32-px" fill="#000000"></path>
            </g>
        </g>
    </g>
</svg>