<?xml version="1.0" encoding="UTF-8" standalone="no"?>
<svg width="55px" height="16px" viewBox="0 0 55 16" version="1.1" xmlns="http://www.w3.org/2000/svg" xmlns:xlink="http://www.w3.org/1999/xlink">
    <!-- Generator: Sketch 40.2 (33826) - http://www.bohemiancoding.com/sketch -->
    <title>chk-bx</title>
    <desc>Created with Sketch.</desc>
    <defs></defs>
    <g id="Components" stroke="none" stroke-width="1" fill="none" fill-rule="evenodd">
        <g id="Forms" transform="translate(-329.000000, -1026.000000)" fill="#4A4A4A">
            <g id="chk-bx" transform="translate(329.000000, 1026.000000)">
                <path d="M51.7142857,8.95089286 L51.7142857,12.5 C51.7142857,13.3854211 51.3999287,14.142482 50.7712054,14.7712054 C50.142482,15.3999287 49.3854211,15.7142857 48.5,15.7142857 L39.2142857,15.7142857 C38.3288646,15.7142857 37.5718037,15.3999287 36.9430804,14.7712054 C36.314357,14.142482 36,13.3854211 36,12.5 L36,3.21428571 C36,2.32886462 36.314357,1.57180374 36.9430804,0.943080357 C37.5718037,0.314356975 38.3288646,0 39.2142857,0 L48.5,0 C48.9687523,0 49.4040158,0.0930050223 49.8058036,0.279017857 C49.9174113,0.331101451 49.9843749,0.416666071 50.0066964,0.535714286 C50.029018,0.662203013 49.9955362,0.770088839 49.90625,0.859375 L49.359375,1.40625 C49.2849699,1.48065513 49.1994052,1.51785714 49.1026786,1.51785714 C49.080357,1.51785714 49.0468752,1.51041674 49.0022321,1.49553571 C48.8311003,1.45089263 48.6636913,1.42857143 48.5,1.42857143 L39.2142857,1.42857143 C38.7232118,1.42857143 38.3028291,1.60342087 37.953125,1.953125 C37.6034209,2.30282913 37.4285714,2.72321183 37.4285714,3.21428571 L37.4285714,12.5 C37.4285714,12.9910739 37.6034209,13.4114566 37.953125,13.7611607 C38.3028291,14.1108648 38.7232118,14.2857143 39.2142857,14.2857143 L48.5,14.2857143 C48.9910739,14.2857143 49.4114566,14.1108648 49.7611607,13.7611607 C50.1108648,13.4114566 50.2857143,12.9910739 50.2857143,12.5 L50.2857143,9.66517857 C50.2857143,9.5684519 50.3191961,9.48660748 50.3861607,9.41964286 L51.1004464,8.70535714 C51.1748516,8.63095201 51.2604162,8.59375 51.3571429,8.59375 C51.4017859,8.59375 51.4464283,8.6049106 51.4910714,8.62723214 C51.6398817,8.68675625 51.7142857,8.79464208 51.7142857,8.95089286 L51.7142857,8.95089286 Z M54.2924107,3.49330357 L45.2075893,12.578125 C45.029017,12.7566973 44.8169655,12.8459821 44.5714286,12.8459821 C44.3258916,12.8459821 44.1138402,12.7566973 43.9352679,12.578125 L39.1361607,7.77901786 C38.9575884,7.60044554 38.8683036,7.38839408 38.8683036,7.14285714 C38.8683036,6.8973202 38.9575884,6.68526875 39.1361607,6.50669643 L40.3638393,5.27901786 C40.5424116,5.10044554 40.7544631,5.01116071 41,5.01116071 C41.2455369,5.01116071 41.4575884,5.10044554 41.6361607,5.27901786 L44.5714286,8.21428571 L51.7924107,0.993303571 C51.970983,0.81473125 52.1830345,0.725446429 52.4285714,0.725446429 C52.6741084,0.725446429 52.8861598,0.81473125 53.0647321,0.993303571 L54.2924107,2.22098214 C54.470983,2.39955446 54.5602679,2.61160592 54.5602679,2.85714286 C54.5602679,3.1026798 54.470983,3.31473125 54.2924107,3.49330357 L54.2924107,3.49330357 Z" id=""></path>
                <path d="M12.5,1.42857143 L3.21428571,1.42857143 C2.72321183,1.42857143 2.30282913,1.60342087 1.953125,1.953125 C1.60342087,2.30282913 1.42857143,2.72321183 1.42857143,3.21428571 L1.42857143,12.5 C1.42857143,12.9910739 1.60342087,13.4114566 1.953125,13.7611607 C2.30282913,14.1108648 2.72321183,14.2857143 3.21428571,14.2857143 L12.5,14.2857143 C12.9910739,14.2857143 13.4114566,14.1108648 13.7611607,13.7611607 C14.1108648,13.4114566 14.2857143,12.9910739 14.2857143,12.5 L14.2857143,3.21428571 C14.2857143,2.72321183 14.1108648,2.30282913 13.7611607,1.953125 C13.4114566,1.60342087 12.9910739,1.42857143 12.5,1.42857143 L12.5,1.42857143 Z M15.7142857,3.21428571 L15.7142857,12.5 C15.7142857,13.3854211 15.3999287,14.142482 14.7712054,14.7712054 C14.142482,15.3999287 13.3854211,15.7142857 12.5,15.7142857 L3.21428571,15.7142857 C2.32886462,15.7142857 1.57180374,15.3999287 0.943080357,14.7712054 C0.314356975,14.142482 0,13.3854211 0,12.5 L0,3.21428571 C0,2.32886462 0.314356975,1.57180374 0.943080357,0.943080357 C1.57180374,0.314356975 2.32886462,0 3.21428571,0 L12.5,0 C13.3854211,0 14.142482,0.314356975 14.7712054,0.943080357 C15.3999287,1.57180374 15.7142857,2.32886462 15.7142857,3.21428571 L15.7142857,3.21428571 Z" id=""></path>
            </g>
        </g>
    </g>
</svg>