<?xml version="1.0" encoding="UTF-8" standalone="no"?>
<svg width="315px" height="485px" viewBox="0 0 315 485" version="1.1" xmlns="http://www.w3.org/2000/svg" xmlns:xlink="http://www.w3.org/1999/xlink">
    <!-- Generator: Sketch 40.2 (33826) - http://www.bohemiancoding.com/sketch -->
    <title>clr-pckr</title>
    <desc>Created with Sketch.</desc>
    <defs>
        <rect id="path-1" x="0" y="0" width="315" height="485"></rect>
        <mask id="mask-2" maskContentUnits="userSpaceOnUse" maskUnits="objectBoundingBox" x="0" y="0" width="315" height="485" fill="white">
            <use xlink:href="#path-1"></use>
        </mask>
        <rect id="path-3" x="35" y="426" width="103" height="36"></rect>
        <mask id="mask-4" maskContentUnits="userSpaceOnUse" maskUnits="objectBoundingBox" x="0" y="0" width="103" height="36" fill="white">
            <use xlink:href="#path-3"></use>
        </mask>
        <rect id="path-5" x="147" y="426" width="60" height="36"></rect>
        <mask id="mask-6" maskContentUnits="userSpaceOnUse" maskUnits="objectBoundingBox" x="0" y="0" width="60" height="36" fill="white">
            <use xlink:href="#path-5"></use>
        </mask>
        <rect id="path-7" x="217" y="426" width="62" height="36"></rect>
        <mask id="mask-8" maskContentUnits="userSpaceOnUse" maskUnits="objectBoundingBox" x="0" y="0" width="62" height="36" fill="white">
            <use xlink:href="#path-7"></use>
        </mask>
        <linearGradient x1="97.7871746%" y1="0%" x2="0%" y2="103.124044%" id="linearGradient-9">
            <stop stop-color="#FFFFFF" stop-opacity="0.127122962" offset="0%"></stop>
            <stop stop-color="#000000" stop-opacity="0.746291893" offset="100%"></stop>
        </linearGradient>
        <linearGradient x1="0%" y1="0%" x2="81.9423555%" y2="80.6309266%" id="linearGradient-10">
            <stop stop-color="#FFFFFF" stop-opacity="0.639407835" offset="0%"></stop>
            <stop stop-color="#FFFFFF" stop-opacity="0" offset="100%"></stop>
        </linearGradient>
        <polygon id="path-11" points="36 89 279 89 279 274 36 274"></polygon>
        <linearGradient x1="50%" y1="100%" x2="50%" y2="0%" id="linearGradient-12">
            <stop stop-color="#50AFED" offset="0%"></stop>
            <stop stop-color="#0900FF" offset="16.0128554%"></stop>
            <stop stop-color="#FF00B3" offset="40.1703309%"></stop>
            <stop stop-color="#FF0000" offset="62.0483946%"></stop>
            <stop stop-color="#FFFB00" offset="81.6899387%"></stop>
            <stop stop-color="#429321" offset="100%"></stop>
        </linearGradient>
        <linearGradient x1="50%" y1="0%" x2="50%" y2="48.2506269%" id="linearGradient-13">
            <stop stop-color="#02A186" stop-opacity="0.1" offset="0%"></stop>
            <stop stop-color="#02A186" offset="100%"></stop>
        </linearGradient>
        <rect id="path-14" x="35" y="372" width="36" height="24"></rect>
        <mask id="mask-15" maskContentUnits="userSpaceOnUse" maskUnits="objectBoundingBox" x="0" y="0" width="36" height="24" fill="white">
            <use xlink:href="#path-14"></use>
        </mask>
        <rect id="path-16" x="81" y="372" width="36" height="24"></rect>
        <mask id="mask-17" maskContentUnits="userSpaceOnUse" maskUnits="objectBoundingBox" x="0" y="0" width="36" height="24" fill="white">
            <use xlink:href="#path-16"></use>
        </mask>
        <rect id="path-18" x="127" y="372" width="36" height="24"></rect>
        <mask id="mask-19" maskContentUnits="userSpaceOnUse" maskUnits="objectBoundingBox" x="0" y="0" width="36" height="24" fill="white">
            <use xlink:href="#path-18"></use>
        </mask>
        <rect id="path-20" x="173" y="372" width="36" height="24"></rect>
        <mask id="mask-21" maskContentUnits="userSpaceOnUse" maskUnits="objectBoundingBox" x="0" y="0" width="36" height="24" fill="white">
            <use xlink:href="#path-20"></use>
        </mask>
        <rect id="path-22" x="218" y="372" width="61" height="24"></rect>
        <mask id="mask-23" maskContentUnits="userSpaceOnUse" maskUnits="objectBoundingBox" x="0" y="0" width="61" height="24" fill="white">
            <use xlink:href="#path-22"></use>
        </mask>
    </defs>
    <g id="Components" stroke="none" stroke-width="1" fill="none" fill-rule="evenodd">
        <g id="Pickers" transform="translate(-325.000000, -1659.000000)">
            <g id="clr-pckr" transform="translate(325.000000, 1659.000000)">
                <use id="Rectangle-180" stroke="#025B80" mask="url(#mask-2)" stroke-width="4" fill="#FFFFFF" xlink:href="#path-1"></use>
                <path d="M244.654297,412 L243.950195,412 L243.950195,407.084961 L238.112305,407.084961 L238.112305,412 L237.415039,412 L237.415039,402.005859 L238.112305,402.005859 L238.112305,406.442383 L243.950195,406.442383 L243.950195,402.005859 L244.654297,402.005859 L244.654297,412 Z M250.314453,412.136719 C249.23437,412.136719 248.392418,411.80404 247.788574,411.138672 C247.18473,410.473304 246.882812,409.541347 246.882812,408.342773 C246.882812,407.157872 247.174476,406.208825 247.757812,405.495605 C248.341149,404.782386 249.127274,404.425781 250.116211,404.425781 C250.991215,404.425781 251.681638,404.731117 252.1875,405.341797 C252.693362,405.952477 252.946289,406.781896 252.946289,407.830078 L252.946289,408.376953 L247.59375,408.376953 C247.602865,409.397792 247.840981,410.177081 248.308105,410.714844 C248.77523,411.252607 249.444006,411.521484 250.314453,411.521484 C250.738283,411.521484 251.110838,411.491862 251.432129,411.432617 C251.75342,411.373372 252.160154,411.245769 252.652344,411.049805 L252.652344,411.665039 C252.233071,411.847332 251.845705,411.971517 251.490234,412.037598 C251.134764,412.103679 250.742841,412.136719 250.314453,412.136719 L250.314453,412.136719 Z M250.116211,405.027344 C249.400713,405.027344 248.8265,405.263181 248.393555,405.734863 C247.96061,406.206545 247.707683,406.886714 247.634766,407.775391 L252.228516,407.775391 C252.228516,406.914058 252.041669,406.240725 251.667969,405.755371 C251.294269,405.270017 250.777022,405.027344 250.116211,405.027344 L250.116211,405.027344 Z M256.541992,408.178711 L253.951172,404.569336 L254.730469,404.569336 L256.945312,407.700195 L259.139648,404.569336 L259.884766,404.569336 L257.334961,408.178711 L260.069336,412 L259.283203,412 L256.945312,408.68457 L254.59375,412 L253.848633,412 L256.541992,408.178711 Z" id="Hex" fill="#4A4A4A"></path>
                <path d="M193.227539,408.472656 L189.166992,408.472656 L187.772461,412 L187,412 L191.019531,401.964844 L191.463867,401.964844 L195.401367,412 L194.615234,412 L193.227539,408.472656 Z M189.419922,407.84375 L192.995117,407.84375 L191.634766,404.241211 C191.520833,403.958657 191.384115,403.566734 191.224609,403.06543 C191.101562,403.502932 190.967123,403.899412 190.821289,404.254883 L189.419922,407.84375 Z" id="A" fill="#4A4A4A"></path>
                <path d="M142.415039,402.005859 L145.15625,402.005859 C146.391282,402.005859 147.298174,402.215493 147.876953,402.634766 C148.455732,403.054039 148.745117,403.687496 148.745117,404.535156 C148.745117,405.113935 148.568524,405.595864 148.215332,405.980957 C147.86214,406.36605 147.346032,406.613281 146.666992,406.722656 L146.666992,406.763672 C147.464522,406.882162 148.051268,407.13395 148.427246,407.519043 C148.803225,407.904136 148.991211,408.440752 148.991211,409.128906 C148.991211,410.049484 148.685875,410.758136 148.075195,411.254883 C147.464515,411.75163 146.598638,412 145.477539,412 L142.415039,412 L142.415039,402.005859 Z M143.112305,406.456055 L145.313477,406.456055 C146.252283,406.456055 146.934731,406.299969 147.36084,405.987793 C147.786949,405.675617 148,405.186852 148,404.521484 C148,403.856116 147.759605,403.373048 147.278809,403.072266 C146.798012,402.771483 146.081385,402.621094 145.128906,402.621094 L143.112305,402.621094 L143.112305,406.456055 Z M143.112305,407.071289 L143.112305,411.384766 L145.463867,411.384766 C147.314137,411.384766 148.239258,410.63282 148.239258,409.128906 C148.239258,407.757155 147.264007,407.071289 145.313477,407.071289 L143.112305,407.071289 Z" id="B" fill="#4A4A4A"></path>
                <use id="Rectangle-9" stroke="#BCBCBC" mask="url(#mask-4)" stroke-width="2" fill="#F6F6F6" xlink:href="#path-3"></use>
                <path d="M52.5625,449 L51.4960938,446.275391 L48.0625,446.275391 L47.0078125,449 L46,449 L49.3867188,440.398438 L50.2246094,440.398438 L53.59375,449 L52.5625,449 Z M51.1855469,445.378906 L50.1894531,442.724609 C50.0605462,442.38867 49.9277351,441.976565 49.7910156,441.488281 C49.7050777,441.863283 49.5820321,442.275388 49.421875,442.724609 L48.4140625,445.378906 L51.1855469,445.378906 Z M58.9960938,448.138672 L58.9433594,448.138672 C58.4941384,448.791019 57.8222701,449.117188 56.9277344,449.117188 C56.0878864,449.117188 55.4345726,448.830081 54.9677734,448.255859 C54.5009742,447.681638 54.2675781,446.86524 54.2675781,445.806641 C54.2675781,444.748042 54.5019508,443.925784 54.9707031,443.339844 C55.4394555,442.753903 56.0917927,442.460938 56.9277344,442.460938 C57.7988325,442.460938 58.4667946,442.777341 58.9316406,443.410156 L59.0078125,443.410156 L58.9667969,442.947266 L58.9433594,442.496094 L58.9433594,439.882812 L59.9160156,439.882812 L59.9160156,449 L59.125,449 L58.9960938,448.138672 Z M57.0507812,448.302734 C57.7148471,448.302734 58.1962876,448.122072 58.4951172,447.760742 C58.7939468,447.399412 58.9433594,446.81641 58.9433594,446.011719 L58.9433594,445.806641 C58.9433594,444.89648 58.7919937,444.247072 58.4892578,443.858398 C58.1865219,443.469725 57.7031283,443.275391 57.0390625,443.275391 C56.4687471,443.275391 56.0322281,443.497068 55.7294922,443.94043 C55.4267563,444.383791 55.2753906,445.009762 55.2753906,445.818359 C55.2753906,446.638676 55.4257797,447.25781 55.7265625,447.675781 C56.0273453,448.093752 56.4687471,448.302734 57.0507812,448.302734 L57.0507812,448.302734 Z M66.3496094,448.138672 L66.296875,448.138672 C65.847654,448.791019 65.1757857,449.117188 64.28125,449.117188 C63.4414021,449.117188 62.7880883,448.830081 62.3212891,448.255859 C61.8544899,447.681638 61.6210938,446.86524 61.6210938,445.806641 C61.6210938,444.748042 61.8554664,443.925784 62.3242188,443.339844 C62.7929711,442.753903 63.4453083,442.460938 64.28125,442.460938 C65.1523481,442.460938 65.8203102,442.777341 66.2851562,443.410156 L66.3613281,443.410156 L66.3203125,442.947266 L66.296875,442.496094 L66.296875,439.882812 L67.2695312,439.882812 L67.2695312,449 L66.4785156,449 L66.3496094,448.138672 Z M64.4042969,448.302734 C65.0683627,448.302734 65.5498032,448.122072 65.8486328,447.760742 C66.1474624,447.399412 66.296875,446.81641 66.296875,446.011719 L66.296875,445.806641 C66.296875,444.89648 66.1455093,444.247072 65.8427734,443.858398 C65.5400375,443.469725 65.0566439,443.275391 64.3925781,443.275391 C63.8222628,443.275391 63.3857437,443.497068 63.0830078,443.94043 C62.7802719,444.383791 62.6289062,445.009762 62.6289062,445.818359 C62.6289062,446.638676 62.7792954,447.25781 63.0800781,447.675781 C63.3808609,448.093752 63.8222627,448.302734 64.4042969,448.302734 L64.4042969,448.302734 Z M74.5234375,448.314453 C74.6953134,448.314453 74.8613273,448.301758 75.0214844,448.276367 C75.1816414,448.250976 75.3085933,448.22461 75.4023438,448.197266 L75.4023438,448.941406 C75.2968745,448.992188 75.1416026,449.03418 74.9365234,449.067383 C74.7314443,449.100586 74.5468758,449.117188 74.3828125,449.117188 C73.1406188,449.117188 72.5195312,448.462897 72.5195312,447.154297 L72.5195312,443.333984 L71.5996094,443.333984 L71.5996094,442.865234 L72.5195312,442.460938 L72.9296875,441.089844 L73.4921875,441.089844 L73.4921875,442.578125 L75.3554688,442.578125 L75.3554688,443.333984 L73.4921875,443.333984 L73.4921875,447.113281 C73.4921875,447.500002 73.5839835,447.796874 73.7675781,448.003906 C73.9511728,448.210939 74.2031234,448.314453 74.5234375,448.314453 L74.5234375,448.314453 Z M82.2285156,445.783203 C82.2285156,446.830083 81.9648464,447.647458 81.4375,448.235352 C80.9101536,448.823245 80.1816453,449.117188 79.2519531,449.117188 C78.6777315,449.117188 78.167971,448.982423 77.7226562,448.712891 C77.2773415,448.443358 76.933595,448.056643 76.6914062,447.552734 C76.4492175,447.048826 76.328125,446.458988 76.328125,445.783203 C76.328125,444.736323 76.5898411,443.920901 77.1132812,443.336914 C77.6367214,442.752927 78.3632766,442.460938 79.2929688,442.460938 C80.1914107,442.460938 80.9052708,442.759763 81.4345703,443.357422 C81.9638698,443.955081 82.2285156,444.763667 82.2285156,445.783203 L82.2285156,445.783203 Z M77.3359375,445.783203 C77.3359375,446.60352 77.4999984,447.228513 77.828125,447.658203 C78.1562516,448.087893 78.6386687,448.302734 79.2753906,448.302734 C79.9121126,448.302734 80.3955062,448.088869 80.7255859,447.661133 C81.0556657,447.233396 81.2207031,446.607426 81.2207031,445.783203 C81.2207031,444.966793 81.0556657,444.346682 80.7255859,443.922852 C80.3955062,443.499021 79.9082063,443.287109 79.2636719,443.287109 C78.6269499,443.287109 78.146486,443.496092 77.8222656,443.914062 C77.4980453,444.332033 77.3359375,444.955074 77.3359375,445.783203 L77.3359375,445.783203 Z M92.6289062,442.929688 C92.6289062,443.796879 92.3330108,444.463865 91.7412109,444.930664 C91.1494111,445.397463 90.3027399,445.630859 89.2011719,445.630859 L88.1933594,445.630859 L88.1933594,449 L87.1972656,449 L87.1972656,440.433594 L89.4179688,440.433594 C91.5586045,440.433594 92.6289062,441.265617 92.6289062,442.929688 L92.6289062,442.929688 Z M88.1933594,444.775391 L89.0898438,444.775391 C89.9726607,444.775391 90.6113262,444.632814 91.0058594,444.347656 C91.4003926,444.062499 91.5976562,443.605472 91.5976562,442.976562 C91.5976562,442.410153 91.4121112,441.988283 91.0410156,441.710938 C90.66992,441.433592 90.0918008,441.294922 89.3066406,441.294922 L88.1933594,441.294922 L88.1933594,444.775391 Z M98.2246094,449 L98.03125,448.085938 L97.984375,448.085938 C97.6640609,448.488283 97.3447282,448.760741 97.0263672,448.90332 C96.7080062,449.045899 96.3105493,449.117188 95.8339844,449.117188 C95.1972624,449.117188 94.698244,448.953127 94.3369141,448.625 C93.9755841,448.296873 93.7949219,447.830081 93.7949219,447.224609 C93.7949219,445.927728 94.8320209,445.248047 96.90625,445.185547 L97.9960938,445.150391 L97.9960938,444.751953 C97.9960938,444.248044 97.8876964,443.875978 97.6708984,443.635742 C97.4541005,443.395507 97.1074243,443.275391 96.6308594,443.275391 C96.0957004,443.275391 95.4902378,443.439451 94.8144531,443.767578 L94.515625,443.023438 C94.8320328,442.851562 95.1787091,442.716797 95.5556641,442.619141 C95.9326191,442.521484 96.310545,442.472656 96.6894531,442.472656 C97.455082,442.472656 98.0224591,442.642576 98.3916016,442.982422 C98.760744,443.322267 98.9453125,443.867184 98.9453125,444.617188 L98.9453125,449 L98.2246094,449 Z M96.0273438,448.314453 C96.6328155,448.314453 97.1083967,448.148439 97.4541016,447.816406 C97.7998064,447.484373 97.9726562,447.019534 97.9726562,446.421875 L97.9726562,445.841797 L97,445.882812 C96.2265586,445.910156 95.668947,446.030272 95.3271484,446.243164 C94.9853499,446.456056 94.8144531,446.787107 94.8144531,447.236328 C94.8144531,447.587892 94.9208974,447.855468 95.1337891,448.039062 C95.3466808,448.222657 95.6445293,448.314453 96.0273438,448.314453 L96.0273438,448.314453 Z M101.921875,449 L100.949219,449 L100.949219,439.882812 L101.921875,439.882812 L101.921875,449 Z M106.697266,449.117188 C105.748042,449.117188 104.999026,448.828128 104.450195,448.25 C103.901364,447.671872 103.626953,446.869146 103.626953,445.841797 C103.626953,444.806635 103.881833,443.984378 104.391602,443.375 C104.90137,442.765622 105.585933,442.460938 106.445312,442.460938 C107.250004,442.460938 107.886716,442.725583 108.355469,443.254883 C108.824221,443.784182 109.058594,444.482418 109.058594,445.349609 L109.058594,445.964844 L104.634766,445.964844 C104.654297,446.718754 104.844725,447.291014 105.206055,447.681641 C105.567385,448.072268 106.076169,448.267578 106.732422,448.267578 C107.423832,448.267578 108.107418,448.123048 108.783203,447.833984 L108.783203,448.701172 C108.439451,448.84961 108.114259,448.956054 107.807617,449.020508 C107.500975,449.084961 107.130862,449.117188 106.697266,449.117188 L106.697266,449.117188 Z M106.433594,443.275391 C105.917966,443.275391 105.506837,443.443358 105.200195,443.779297 C104.893553,444.115236 104.712891,444.580075 104.658203,445.173828 L108.015625,445.173828 C108.015625,444.560544 107.878908,444.090822 107.605469,443.764648 C107.33203,443.438475 106.941409,443.275391 106.433594,443.275391 L106.433594,443.275391 Z M112.791016,448.314453 C112.962891,448.314453 113.128905,448.301758 113.289062,448.276367 C113.44922,448.250976 113.576171,448.22461 113.669922,448.197266 L113.669922,448.941406 C113.564453,448.992188 113.409181,449.03418 113.204102,449.067383 C112.999022,449.100586 112.814454,449.117188 112.650391,449.117188 C111.408197,449.117188 110.787109,448.462897 110.787109,447.154297 L110.787109,443.333984 L109.867188,443.333984 L109.867188,442.865234 L110.787109,442.460938 L111.197266,441.089844 L111.759766,441.089844 L111.759766,442.578125 L113.623047,442.578125 L113.623047,443.333984 L111.759766,443.333984 L111.759766,447.113281 C111.759766,447.500002 111.851562,447.796874 112.035156,448.003906 C112.218751,448.210939 112.470702,448.314453 112.791016,448.314453 L112.791016,448.314453 Z M117.027344,448.314453 C117.19922,448.314453 117.365234,448.301758 117.525391,448.276367 C117.685548,448.250976 117.8125,448.22461 117.90625,448.197266 L117.90625,448.941406 C117.800781,448.992188 117.645509,449.03418 117.44043,449.067383 C117.235351,449.100586 117.050782,449.117188 116.886719,449.117188 C115.644525,449.117188 115.023438,448.462897 115.023438,447.154297 L115.023438,443.333984 L114.103516,443.333984 L114.103516,442.865234 L115.023438,442.460938 L115.433594,441.089844 L115.996094,441.089844 L115.996094,442.578125 L117.859375,442.578125 L117.859375,443.333984 L115.996094,443.333984 L115.996094,447.113281 C115.996094,447.500002 116.08789,447.796874 116.271484,448.003906 C116.455079,448.210939 116.70703,448.314453 117.027344,448.314453 L117.027344,448.314453 Z M121.902344,449.117188 C120.95312,449.117188 120.204104,448.828128 119.655273,448.25 C119.106443,447.671872 118.832031,446.869146 118.832031,445.841797 C118.832031,444.806635 119.086912,443.984378 119.59668,443.375 C120.106448,442.765622 120.791011,442.460938 121.650391,442.460938 C122.455082,442.460938 123.091795,442.725583 123.560547,443.254883 C124.029299,443.784182 124.263672,444.482418 124.263672,445.349609 L124.263672,445.964844 L119.839844,445.964844 C119.859375,446.718754 120.049803,447.291014 120.411133,447.681641 C120.772463,448.072268 121.281247,448.267578 121.9375,448.267578 C122.62891,448.267578 123.312497,448.123048 123.988281,447.833984 L123.988281,448.701172 C123.64453,448.84961 123.319337,448.956054 123.012695,449.020508 C122.706053,449.084961 122.33594,449.117188 121.902344,449.117188 L121.902344,449.117188 Z M121.638672,443.275391 C121.123044,443.275391 120.711916,443.443358 120.405273,443.779297 C120.098631,444.115236 119.917969,444.580075 119.863281,445.173828 L123.220703,445.173828 C123.220703,444.560544 123.083986,444.090822 122.810547,443.764648 C122.537108,443.438475 122.146487,443.275391 121.638672,443.275391 L121.638672,443.275391 Z" id="Add-to-Palette" fill="#4A4A4A"></path>
                <use id="Rectangle-9" stroke="#BCBCBC" mask="url(#mask-6)" stroke-width="2" fill="#F6F6F6" xlink:href="#path-5"></use>
                <path d="M162.845703,441.201172 C161.904292,441.201172 161.161136,441.514645 160.616211,442.141602 C160.071286,442.768558 159.798828,443.626948 159.798828,444.716797 C159.798828,445.837896 160.061521,446.704099 160.586914,447.31543 C161.112307,447.926761 161.861323,448.232422 162.833984,448.232422 C163.431644,448.232422 164.113277,448.125001 164.878906,447.910156 L164.878906,448.783203 C164.285153,449.00586 163.552739,449.117188 162.681641,449.117188 C161.419916,449.117188 160.446292,448.734379 159.760742,447.96875 C159.075192,447.203121 158.732422,446.115241 158.732422,444.705078 C158.732422,443.822261 158.897459,443.048831 159.227539,442.384766 C159.557619,441.7207 160.034177,441.208986 160.657227,440.849609 C161.280277,440.490233 162.013668,440.310547 162.857422,440.310547 C163.755864,440.310547 164.541012,440.474608 165.212891,440.802734 L164.791016,441.658203 C164.142575,441.353514 163.494144,441.201172 162.845703,441.201172 L162.845703,441.201172 Z M170.550781,449 L170.357422,448.085938 L170.310547,448.085938 C169.990233,448.488283 169.6709,448.760741 169.352539,448.90332 C169.034178,449.045899 168.636721,449.117188 168.160156,449.117188 C167.523434,449.117188 167.024416,448.953127 166.663086,448.625 C166.301756,448.296873 166.121094,447.830081 166.121094,447.224609 C166.121094,445.927728 167.158193,445.248047 169.232422,445.185547 L170.322266,445.150391 L170.322266,444.751953 C170.322266,444.248044 170.213868,443.875978 169.99707,443.635742 C169.780272,443.395507 169.433596,443.275391 168.957031,443.275391 C168.421872,443.275391 167.81641,443.439451 167.140625,443.767578 L166.841797,443.023438 C167.158205,442.851562 167.504881,442.716797 167.881836,442.619141 C168.258791,442.521484 168.636717,442.472656 169.015625,442.472656 C169.781254,442.472656 170.348631,442.642576 170.717773,442.982422 C171.086916,443.322267 171.271484,443.867184 171.271484,444.617188 L171.271484,449 L170.550781,449 Z M168.353516,448.314453 C168.958987,448.314453 169.434569,448.148439 169.780273,447.816406 C170.125978,447.484373 170.298828,447.019534 170.298828,446.421875 L170.298828,445.841797 L169.326172,445.882812 C168.552731,445.910156 167.995119,446.030272 167.65332,446.243164 C167.311522,446.456056 167.140625,446.787107 167.140625,447.236328 C167.140625,447.587892 167.247069,447.855468 167.459961,448.039062 C167.672853,448.222657 167.970701,448.314453 168.353516,448.314453 L168.353516,448.314453 Z M177.669922,449 L177.669922,444.845703 C177.669922,444.322263 177.550782,443.931642 177.3125,443.673828 C177.074218,443.416014 176.701174,443.287109 176.193359,443.287109 C175.521481,443.287109 175.029298,443.468748 174.716797,443.832031 C174.404295,444.195314 174.248047,444.794918 174.248047,445.630859 L174.248047,449 L173.275391,449 L173.275391,442.578125 L174.066406,442.578125 L174.224609,443.457031 L174.271484,443.457031 C174.470704,443.140623 174.749998,442.895509 175.109375,442.72168 C175.468752,442.547851 175.869138,442.460938 176.310547,442.460938 C177.083988,442.460938 177.666014,442.647459 178.056641,443.020508 C178.447268,443.393557 178.642578,443.99023 178.642578,444.810547 L178.642578,449 L177.669922,449 Z M183.207031,449.117188 C182.277339,449.117188 181.55762,448.831058 181.047852,448.258789 C180.538083,447.686521 180.283203,446.876958 180.283203,445.830078 C180.283203,444.755854 180.54199,443.925784 181.05957,443.339844 C181.577151,442.753903 182.314448,442.460938 183.271484,442.460938 C183.58008,442.460938 183.88867,442.49414 184.197266,442.560547 C184.505861,442.626953 184.748046,442.705078 184.923828,442.794922 L184.625,443.621094 C184.410155,443.535156 184.175783,443.463867 183.921875,443.407227 C183.667967,443.350586 183.44336,443.322266 183.248047,443.322266 C181.943353,443.322266 181.291016,444.154289 181.291016,445.818359 C181.291016,446.607426 181.450194,447.212889 181.768555,447.634766 C182.086916,448.056643 182.558591,448.267578 183.183594,448.267578 C183.718753,448.267578 184.267575,448.152345 184.830078,447.921875 L184.830078,448.783203 C184.400388,449.00586 183.859378,449.117188 183.207031,449.117188 L183.207031,449.117188 Z M189.066406,449.117188 C188.117183,449.117188 187.368167,448.828128 186.819336,448.25 C186.270505,447.671872 185.996094,446.869146 185.996094,445.841797 C185.996094,444.806635 186.250974,443.984378 186.760742,443.375 C187.27051,442.765622 187.955074,442.460938 188.814453,442.460938 C189.619145,442.460938 190.255857,442.725583 190.724609,443.254883 C191.193362,443.784182 191.427734,444.482418 191.427734,445.349609 L191.427734,445.964844 L187.003906,445.964844 C187.023438,446.718754 187.213865,447.291014 187.575195,447.681641 C187.936525,448.072268 188.445309,448.267578 189.101562,448.267578 C189.792972,448.267578 190.476559,448.123048 191.152344,447.833984 L191.152344,448.701172 C190.808592,448.84961 190.4834,448.956054 190.176758,449.020508 C189.870116,449.084961 189.500002,449.117188 189.066406,449.117188 L189.066406,449.117188 Z M188.802734,443.275391 C188.287107,443.275391 187.875978,443.443358 187.569336,443.779297 C187.262694,444.115236 187.082032,444.580075 187.027344,445.173828 L190.384766,445.173828 C190.384766,444.560544 190.248048,444.090822 189.974609,443.764648 C189.701171,443.438475 189.310549,443.275391 188.802734,443.275391 L188.802734,443.275391 Z M194.058594,449 L193.085938,449 L193.085938,439.882812 L194.058594,439.882812 L194.058594,449 Z" id="Cancel" fill="#4A4A4A"></path>
                <use id="Rectangle-9" stroke="#024059" mask="url(#mask-8)" stroke-width="2" fill="#025B80" xlink:href="#path-7"></use>
                <path d="M247.613281,444.705078 C247.613281,446.076179 247.266605,447.154293 246.573242,447.939453 C245.879879,448.724613 244.916022,449.117188 243.681641,449.117188 C242.419916,449.117188 241.446292,448.731449 240.760742,447.959961 C240.075192,447.188473 239.732422,446.099616 239.732422,444.693359 C239.732422,443.298821 240.076168,442.217777 240.763672,441.450195 C241.451175,440.682613 242.427728,440.298828 243.693359,440.298828 C244.923834,440.298828 245.884762,440.689449 246.576172,441.470703 C247.267582,442.251957 247.613281,443.330071 247.613281,444.705078 L247.613281,444.705078 Z M240.787109,444.705078 C240.787109,445.86524 241.034177,446.745114 241.52832,447.344727 C242.022463,447.944339 242.74023,448.244141 243.681641,448.244141 C244.630864,448.244141 245.347654,447.945315 245.832031,447.347656 C246.316409,446.749997 246.558594,445.869146 246.558594,444.705078 C246.558594,443.552729 246.317385,442.678714 245.834961,442.083008 C245.352537,441.487302 244.638677,441.189453 243.693359,441.189453 C242.744136,441.189453 242.022463,441.489255 241.52832,442.088867 C241.034177,442.68848 240.787109,443.560541 240.787109,444.705078 L240.787109,444.705078 Z M255.710938,449 L254.539062,449 L251.416016,444.845703 L250.519531,445.642578 L250.519531,449 L249.523438,449 L249.523438,440.433594 L250.519531,440.433594 L250.519531,444.681641 L254.404297,440.433594 L255.582031,440.433594 L252.136719,444.154297 L255.710938,449 Z" id="OK" fill="#FFFFFF"></path>
                <g id="Fill-9">
                    <use fill="#00A186" xlink:href="#path-11"></use>
                    <use fill="url(#linearGradient-9)" xlink:href="#path-11"></use>
                    <use fill="url(#linearGradient-10)" xlink:href="#path-11"></use>
                </g>
                <polygon id="Fill-5" fill="url(#linearGradient-12)" transform="translate(157.500000, 304.000000) rotate(-270.000000) translate(-157.500000, -304.000000) " points="147.5 182.5 167.5 182.5 167.5 425.5 147.5 425.5"></polygon>
                <path d="M276.00001,290.499992 C276.00001,290.226554 275.773447,289.999992 275.500009,289.999992 L268.500001,289.999992 C268.226563,289.999992 268,290.226554 268,290.499992 C268,290.632805 268.054688,290.757805 268.148438,290.851555 L271.648442,294.351559 C271.742192,294.445309 271.867192,294.499997 272.000005,294.499997 C272.132817,294.499997 272.257818,294.445309 272.351568,294.351559 L275.851572,290.851555 C275.945322,290.757805 276.00001,290.632805 276.00001,290.499992 L276.00001,290.499992 Z" id="" fill="#000000"></path>
                <path d="M276.00001,313.999995 C276.00001,313.726557 275.773447,313.499995 275.500009,313.499995 L268.500001,313.499995 C268.226563,313.499995 268,313.726557 268,313.999995 C268,314.132808 268.054688,314.257808 268.148438,314.351558 L271.648442,317.851562 C271.742192,317.945312 271.867192,318 272.000005,318 C272.132817,318 272.257818,317.945312 272.351568,317.851562 L275.851572,314.351558 C275.945322,314.257808 276.00001,314.132808 276.00001,313.999995 L276.00001,313.999995 Z" id="" fill="#000000" transform="translate(272.000005, 315.749997) scale(1, -1) translate(-272.000005, -315.749997) "></path>
                <path d="M236.00001,328.499992 C236.00001,328.226554 235.773447,327.999992 235.500009,327.999992 L228.500001,327.999992 C228.226563,327.999992 228,328.226554 228,328.499992 C228,328.632805 228.054688,328.757805 228.148438,328.851555 L231.648442,332.351559 C231.742192,332.445309 231.867192,332.499997 232.000005,332.499997 C232.132817,332.499997 232.257818,332.445309 232.351568,332.351559 L235.851572,328.851555 C235.945322,328.757805 236.00001,328.632805 236.00001,328.499992 L236.00001,328.499992 Z" id="" fill="#000000"></path>
                <path d="M236.00001,351.999995 C236.00001,351.726557 235.773447,351.499995 235.500009,351.499995 L228.500001,351.499995 C228.226563,351.499995 228,351.726557 228,351.999995 C228,352.132808 228.054688,352.257808 228.148438,352.351558 L231.648442,355.851562 C231.742192,355.945312 231.867192,356 232.000005,356 C232.132817,356 232.257818,355.945312 232.351568,355.851562 L235.851572,352.351558 C235.945322,352.257808 236.00001,352.132808 236.00001,351.999995 L236.00001,351.999995 Z" id="" fill="#000000" transform="translate(232.000005, 353.749997) scale(1, -1) translate(-232.000005, -353.749997) "></path>
                <g id="Group-3" transform="translate(36.000000, 332.000000)">
                    <g id="Group-2">
                        <g id="Group">
                            <rect id="Rectangle-184" fill="#D8D8D8" x="0" y="0" width="10" height="10"></rect>
                            <rect id="Rectangle-184" fill="#FFFFFF" x="0" y="10" width="10" height="10"></rect>
                        </g>
                        <g id="Group" transform="translate(15.000000, 10.000000) scale(1, -1) translate(-15.000000, -10.000000) translate(10.000000, 0.000000)">
                            <rect id="Rectangle-184" fill="#D8D8D8" x="0" y="0" width="10" height="10"></rect>
                            <rect id="Rectangle-184" fill="#FFFFFF" x="0" y="10" width="10" height="10"></rect>
                        </g>
                    </g>
                    <g id="Group-2-Copy" transform="translate(20.000000, 0.000000)">
                        <g id="Group">
                            <rect id="Rectangle-184" fill="#D8D8D8" x="0" y="0" width="10" height="10"></rect>
                            <rect id="Rectangle-184" fill="#FFFFFF" x="0" y="10" width="10" height="10"></rect>
                        </g>
                        <g id="Group" transform="translate(15.000000, 10.000000) scale(1, -1) translate(-15.000000, -10.000000) translate(10.000000, 0.000000)">
                            <rect id="Rectangle-184" fill="#D8D8D8" x="0" y="0" width="10" height="10"></rect>
                            <rect id="Rectangle-184" fill="#FFFFFF" x="0" y="10" width="10" height="10"></rect>
                        </g>
                    </g>
                    <g id="Group-2-Copy-2" transform="translate(40.000000, 0.000000)">
                        <g id="Group">
                            <rect id="Rectangle-184" fill="#D8D8D8" x="0" y="0" width="10" height="10"></rect>
                            <rect id="Rectangle-184" fill="#FFFFFF" x="0" y="10" width="10" height="10"></rect>
                        </g>
                        <g id="Group" transform="translate(15.000000, 10.000000) scale(1, -1) translate(-15.000000, -10.000000) translate(10.000000, 0.000000)">
                            <rect id="Rectangle-184" fill="#D8D8D8" x="0" y="0" width="10" height="10"></rect>
                            <rect id="Rectangle-184" fill="#FFFFFF" x="0" y="10" width="10" height="10"></rect>
                        </g>
                    </g>
                    <g id="Group-2-Copy-3" transform="translate(60.000000, 0.000000)">
                        <g id="Group">
                            <rect id="Rectangle-184" fill="#D8D8D8" x="0" y="0" width="10" height="10"></rect>
                            <rect id="Rectangle-184" fill="#FFFFFF" x="0" y="10" width="10" height="10"></rect>
                        </g>
                        <g id="Group" transform="translate(15.000000, 10.000000) scale(1, -1) translate(-15.000000, -10.000000) translate(10.000000, 0.000000)">
                            <rect id="Rectangle-184" fill="#D8D8D8" x="0" y="0" width="10" height="10"></rect>
                            <rect id="Rectangle-184" fill="#FFFFFF" x="0" y="10" width="10" height="10"></rect>
                        </g>
                    </g>
                    <g id="Group-2-Copy-4" transform="translate(80.000000, 0.000000)">
                        <g id="Group">
                            <rect id="Rectangle-184" fill="#D8D8D8" x="0" y="0" width="10" height="10"></rect>
                            <rect id="Rectangle-184" fill="#FFFFFF" x="0" y="10" width="10" height="10"></rect>
                        </g>
                        <g id="Group" transform="translate(15.000000, 10.000000) scale(1, -1) translate(-15.000000, -10.000000) translate(10.000000, 0.000000)">
                            <rect id="Rectangle-184" fill="#D8D8D8" x="0" y="0" width="10" height="10"></rect>
                            <rect id="Rectangle-184" fill="#FFFFFF" x="0" y="10" width="10" height="10"></rect>
                        </g>
                    </g>
                    <g id="Group-2-Copy-5" transform="translate(100.000000, 0.000000)">
                        <g id="Group">
                            <rect id="Rectangle-184" fill="#D8D8D8" x="0" y="0" width="10" height="10"></rect>
                            <rect id="Rectangle-184" fill="#FFFFFF" x="0" y="10" width="10" height="10"></rect>
                        </g>
                        <g id="Group" transform="translate(15.000000, 10.000000) scale(1, -1) translate(-15.000000, -10.000000) translate(10.000000, 0.000000)">
                            <rect id="Rectangle-184" fill="#D8D8D8" x="0" y="0" width="10" height="10"></rect>
                            <rect id="Rectangle-184" fill="#FFFFFF" x="0" y="10" width="10" height="10"></rect>
                        </g>
                    </g>
                    <g id="Group-2-Copy-6" transform="translate(120.000000, 0.000000)">
                        <g id="Group">
                            <rect id="Rectangle-184" fill="#D8D8D8" x="0" y="0" width="10" height="10"></rect>
                            <rect id="Rectangle-184" fill="#FFFFFF" x="0" y="10" width="10" height="10"></rect>
                        </g>
                        <g id="Group" transform="translate(15.000000, 10.000000) scale(1, -1) translate(-15.000000, -10.000000) translate(10.000000, 0.000000)">
                            <rect id="Rectangle-184" fill="#D8D8D8" x="0" y="0" width="10" height="10"></rect>
                            <rect id="Rectangle-184" fill="#FFFFFF" x="0" y="10" width="10" height="10"></rect>
                        </g>
                    </g>
                    <g id="Group-2-Copy-7" transform="translate(140.000000, 0.000000)">
                        <g id="Group">
                            <rect id="Rectangle-184" fill="#D8D8D8" x="0" y="0" width="10" height="10"></rect>
                            <rect id="Rectangle-184" fill="#FFFFFF" x="0" y="10" width="10" height="10"></rect>
                        </g>
                        <g id="Group" transform="translate(15.000000, 10.000000) scale(1, -1) translate(-15.000000, -10.000000) translate(10.000000, 0.000000)">
                            <rect id="Rectangle-184" fill="#D8D8D8" x="0" y="0" width="10" height="10"></rect>
                            <rect id="Rectangle-184" fill="#FFFFFF" x="0" y="10" width="10" height="10"></rect>
                        </g>
                    </g>
                    <g id="Group-2-Copy-8" transform="translate(160.000000, 0.000000)">
                        <g id="Group">
                            <rect id="Rectangle-184" fill="#D8D8D8" x="0" y="0" width="10" height="10"></rect>
                            <rect id="Rectangle-184" fill="#FFFFFF" x="0" y="10" width="10" height="10"></rect>
                        </g>
                        <g id="Group" transform="translate(15.000000, 10.000000) scale(1, -1) translate(-15.000000, -10.000000) translate(10.000000, 0.000000)">
                            <rect id="Rectangle-184" fill="#D8D8D8" x="0" y="0" width="10" height="10"></rect>
                            <rect id="Rectangle-184" fill="#FFFFFF" x="0" y="10" width="10" height="10"></rect>
                        </g>
                    </g>
                    <g id="Group-2-Copy-9" transform="translate(180.000000, 0.000000)">
                        <g id="Group">
                            <rect id="Rectangle-184" fill="#D8D8D8" x="0" y="0" width="10" height="10"></rect>
                            <rect id="Rectangle-184" fill="#FFFFFF" x="0" y="10" width="10" height="10"></rect>
                        </g>
                        <g id="Group" transform="translate(15.000000, 10.000000) scale(1, -1) translate(-15.000000, -10.000000) translate(10.000000, 0.000000)">
                            <rect id="Rectangle-184" fill="#D8D8D8" x="0" y="0" width="10" height="10"></rect>
                            <rect id="Rectangle-184" fill="#FFFFFF" x="0" y="10" width="10" height="10"></rect>
                        </g>
                    </g>
                    <g id="Group-2-Copy-10" transform="translate(200.000000, 0.000000)">
                        <g id="Group">
                            <rect id="Rectangle-184" fill="#D8D8D8" x="0" y="0" width="10" height="10"></rect>
                            <rect id="Rectangle-184" fill="#FFFFFF" x="0" y="10" width="10" height="10"></rect>
                        </g>
                        <g id="Group" transform="translate(15.000000, 10.000000) scale(1, -1) translate(-15.000000, -10.000000) translate(10.000000, 0.000000)">
                            <rect id="Rectangle-184" fill="#D8D8D8" x="0" y="0" width="10" height="10"></rect>
                            <rect id="Rectangle-184" fill="#FFFFFF" x="0" y="10" width="10" height="10"></rect>
                        </g>
                    </g>
                </g>
                <polygon id="Fill-10" fill="url(#linearGradient-13)" transform="translate(157.500000, 342.000000) scale(-1, 1) rotate(-270.000000) translate(-157.500000, -342.000000) " points="147.5 220.5 167.5 220.5 167.5 463.5 147.5 463.5"></polygon>
                <use id="Rectangle-228" stroke="#979797" mask="url(#mask-15)" stroke-width="2" fill="#FFFFFF" xlink:href="#path-14"></use>
                <use id="Rectangle-228" stroke="#979797" mask="url(#mask-17)" stroke-width="2" fill="#FFFFFF" xlink:href="#path-16"></use>
                <use id="Rectangle-228" stroke="#979797" mask="url(#mask-19)" stroke-width="2" fill="#FFFFFF" xlink:href="#path-18"></use>
                <use id="Rectangle-228" stroke="#979797" mask="url(#mask-21)" stroke-width="2" fill="#FFFFFF" xlink:href="#path-20"></use>
                <use id="Rectangle-228" stroke="#979797" mask="url(#mask-23)" stroke-width="2" fill="#FFFFFF" xlink:href="#path-22"></use>
                <path d="M55.7856445,384.347168 C55.7856445,385.951017 55.5327988,387.148596 55.0270996,387.939941 C54.5214005,388.731287 53.7480521,389.126953 52.7070312,389.126953 C51.7083283,389.126953 50.9487331,388.721765 50.4282227,387.911377 C49.9077122,387.100989 49.6474609,385.912931 49.6474609,384.347168 C49.6474609,382.730623 49.8992488,381.530928 50.402832,380.748047 C50.9064153,379.965165 51.674474,379.57373 52.7070312,379.57373 C53.7141977,379.57373 54.4790827,379.982092 55.001709,380.798828 C55.5243353,381.615564 55.7856445,382.798332 55.7856445,384.347168 L55.7856445,384.347168 Z M50.7138672,384.347168 C50.7138672,385.69711 50.872557,386.679929 51.1899414,387.295654 C51.5073258,387.91138 52.0130174,388.219238 52.7070312,388.219238 C53.4095087,388.219238 53.9183741,387.907148 54.2336426,387.282959 C54.5489111,386.65877 54.706543,385.680182 54.706543,384.347168 C54.706543,383.014153 54.5489111,382.037682 54.2336426,381.417725 C53.9183741,380.797767 53.4095087,380.487793 52.7070312,380.487793 C52.0130174,380.487793 51.5073258,380.793535 51.1899414,381.405029 C50.872557,382.016523 50.7138672,382.997226 50.7138672,384.347168 L50.7138672,384.347168 Z" id="0" fill="#4A4A4A"></path>
                <path d="M94.7348633,389 L88.6347656,389 L88.6347656,388.092285 L91.0786133,385.635742 C91.8234087,384.882483 92.3142892,384.345054 92.5512695,384.023438 C92.7882499,383.701821 92.9659825,383.388673 93.0844727,383.083984 C93.2029628,382.779295 93.262207,382.451336 93.262207,382.100098 C93.262207,381.604978 93.1119807,381.212485 92.8115234,380.922607 C92.5110662,380.63273 92.0942409,380.487793 91.5610352,380.487793 C91.1759421,380.487793 90.8109555,380.551269 90.4660645,380.678223 C90.1211734,380.805176 89.737144,381.035806 89.3139648,381.370117 L88.7553711,380.652832 C89.6101931,379.941891 90.5411733,379.586426 91.5483398,379.586426 C92.420089,379.586426 93.1035131,379.809649 93.5986328,380.256104 C94.0937525,380.702558 94.3413086,381.302405 94.3413086,382.055664 C94.3413086,382.643883 94.1762712,383.225746 93.8461914,383.80127 C93.5161116,384.376793 92.8982793,385.104651 91.9926758,385.984863 L89.9614258,387.97168 L89.9614258,388.022461 L94.7348633,388.022461 L94.7348633,389 Z M98.96875,383.331543 C99.946294,383.331543 100.715411,383.573809 101.276123,384.05835 C101.836835,384.54289 102.117188,385.206213 102.117188,386.04834 C102.117188,387.008957 101.811445,387.762204 101.199951,388.308105 C100.588457,388.854007 99.7452853,389.126953 98.6704102,389.126953 C97.6251575,389.126953 96.8274767,388.9598 96.2773438,388.625488 L96.2773438,387.609863 C96.5735692,387.800294 96.9417296,387.949462 97.3818359,388.057373 C97.8219423,388.165284 98.2556945,388.219238 98.6831055,388.219238 C99.4279009,388.219238 100.00659,388.043622 100.419189,387.692383 C100.831789,387.341144 101.038086,386.833337 101.038086,386.168945 C101.038086,384.874017 100.244637,384.226562 98.6577148,384.226562 C98.2556946,384.226562 97.7182651,384.287923 97.0454102,384.410645 L96.4995117,384.061523 L96.8486328,379.719727 L101.463379,379.719727 L101.463379,380.690918 L97.75,380.690918 L97.5151367,383.477539 C98.0017928,383.380208 98.4863257,383.331543 98.96875,383.331543 L98.96875,383.331543 Z M106.401855,383.331543 C107.379399,383.331543 108.148516,383.573809 108.709229,384.05835 C109.269941,384.54289 109.550293,385.206213 109.550293,386.04834 C109.550293,387.008957 109.244551,387.762204 108.633057,388.308105 C108.021563,388.854007 107.178391,389.126953 106.103516,389.126953 C105.058263,389.126953 104.260582,388.9598 103.710449,388.625488 L103.710449,387.609863 C104.006675,387.800294 104.374835,387.949462 104.814941,388.057373 C105.255048,388.165284 105.6888,388.219238 106.116211,388.219238 C106.861006,388.219238 107.439695,388.043622 107.852295,387.692383 C108.264895,387.341144 108.471191,386.833337 108.471191,386.168945 C108.471191,384.874017 107.677742,384.226562 106.09082,384.226562 C105.6888,384.226562 105.151371,384.287923 104.478516,384.410645 L103.932617,384.061523 L104.281738,379.719727 L108.896484,379.719727 L108.896484,380.690918 L105.183105,380.690918 L104.948242,383.477539 C105.434898,383.380208 105.919431,383.331543 106.401855,383.331543 L106.401855,383.331543 Z" id="255" fill="#4A4A4A"></path>
                <path d="M140.734863,389 L134.634766,389 L134.634766,388.092285 L137.078613,385.635742 C137.823409,384.882483 138.314289,384.345054 138.55127,384.023438 C138.78825,383.701821 138.965982,383.388673 139.084473,383.083984 C139.202963,382.779295 139.262207,382.451336 139.262207,382.100098 C139.262207,381.604978 139.111981,381.212485 138.811523,380.922607 C138.511066,380.63273 138.094241,380.487793 137.561035,380.487793 C137.175942,380.487793 136.810956,380.551269 136.466064,380.678223 C136.121173,380.805176 135.737144,381.035806 135.313965,381.370117 L134.755371,380.652832 C135.610193,379.941891 136.541173,379.586426 137.54834,379.586426 C138.420089,379.586426 139.103513,379.809649 139.598633,380.256104 C140.093752,380.702558 140.341309,381.302405 140.341309,382.055664 C140.341309,382.643883 140.176271,383.225746 139.846191,383.80127 C139.516112,384.376793 138.898279,385.104651 137.992676,385.984863 L135.961426,387.97168 L135.961426,388.022461 L140.734863,388.022461 L140.734863,389 Z M144.96875,383.331543 C145.946294,383.331543 146.715411,383.573809 147.276123,384.05835 C147.836835,384.54289 148.117188,385.206213 148.117188,386.04834 C148.117188,387.008957 147.811445,387.762204 147.199951,388.308105 C146.588457,388.854007 145.745285,389.126953 144.67041,389.126953 C143.625158,389.126953 142.827477,388.9598 142.277344,388.625488 L142.277344,387.609863 C142.573569,387.800294 142.94173,387.949462 143.381836,388.057373 C143.821942,388.165284 144.255694,388.219238 144.683105,388.219238 C145.427901,388.219238 146.00659,388.043622 146.419189,387.692383 C146.831789,387.341144 147.038086,386.833337 147.038086,386.168945 C147.038086,384.874017 146.244637,384.226562 144.657715,384.226562 C144.255695,384.226562 143.718265,384.287923 143.04541,384.410645 L142.499512,384.061523 L142.848633,379.719727 L147.463379,379.719727 L147.463379,380.690918 L143.75,380.690918 L143.515137,383.477539 C144.001793,383.380208 144.486326,383.331543 144.96875,383.331543 L144.96875,383.331543 Z M152.401855,383.331543 C153.379399,383.331543 154.148516,383.573809 154.709229,384.05835 C155.269941,384.54289 155.550293,385.206213 155.550293,386.04834 C155.550293,387.008957 155.244551,387.762204 154.633057,388.308105 C154.021563,388.854007 153.178391,389.126953 152.103516,389.126953 C151.058263,389.126953 150.260582,388.9598 149.710449,388.625488 L149.710449,387.609863 C150.006675,387.800294 150.374835,387.949462 150.814941,388.057373 C151.255048,388.165284 151.6888,388.219238 152.116211,388.219238 C152.861006,388.219238 153.439695,388.043622 153.852295,387.692383 C154.264895,387.341144 154.471191,386.833337 154.471191,386.168945 C154.471191,384.874017 153.677742,384.226562 152.09082,384.226562 C151.6888,384.226562 151.151371,384.287923 150.478516,384.410645 L149.932617,384.061523 L150.281738,379.719727 L154.896484,379.719727 L154.896484,380.690918 L151.183105,380.690918 L150.948242,383.477539 C151.434898,383.380208 151.919431,383.331543 152.401855,383.331543 L152.401855,383.331543 Z" id="255" fill="#4A4A4A"></path>
                <path d="M187.707031,379.586426 C188.55339,379.586426 189.224119,379.783201 189.719238,380.176758 C190.214358,380.570314 190.461914,381.114092 190.461914,381.808105 C190.461914,382.265139 190.320151,382.681964 190.036621,383.058594 C189.753091,383.435223 189.300296,383.777993 188.678223,384.086914 C189.431482,384.446616 189.966795,384.824298 190.28418,385.219971 C190.601564,385.615643 190.760254,386.073728 190.760254,386.594238 C190.760254,387.364424 190.491539,387.979083 189.954102,388.438232 C189.416664,388.897382 188.680343,389.126953 187.745117,389.126953 C186.754878,389.126953 185.993167,388.910077 185.459961,388.476318 C184.926755,388.04256 184.660156,387.427901 184.660156,386.632324 C184.660156,385.570144 185.307611,384.742842 186.602539,384.150391 C186.018552,383.820311 185.599611,383.463788 185.345703,383.080811 C185.091796,382.697833 184.964844,382.269371 184.964844,381.79541 C184.964844,381.122555 185.213458,380.586184 185.710693,380.186279 C186.207929,379.786375 186.873368,379.586426 187.707031,379.586426 L187.707031,379.586426 Z M185.701172,386.657715 C185.701172,387.16553 185.877847,387.561196 186.231201,387.844727 C186.584556,388.128257 187.080726,388.27002 187.719727,388.27002 C188.350264,388.27002 188.841144,388.121909 189.192383,387.825684 C189.543622,387.529458 189.719238,387.123212 189.719238,386.606934 C189.719238,386.19645 189.554201,385.831463 189.224121,385.511963 C188.894041,385.192463 188.318526,384.882488 187.497559,384.582031 C186.867022,384.852866 186.409995,385.152261 186.126465,385.480225 C185.842935,385.808188 185.701172,386.200681 185.701172,386.657715 L185.701172,386.657715 Z M187.694336,380.443359 C187.165362,380.443359 186.750653,380.570311 186.450195,380.824219 C186.149738,381.078126 185.999512,381.416665 185.999512,381.839844 C185.999512,382.229169 186.124348,382.563475 186.374023,382.842773 C186.623699,383.122072 187.084958,383.401366 187.757812,383.680664 C188.362959,383.426757 188.791421,383.15381 189.043213,382.861816 C189.295005,382.569823 189.420898,382.229169 189.420898,381.839844 C189.420898,381.412433 189.267498,381.072837 188.960693,380.821045 C188.653888,380.569253 188.231774,380.443359 187.694336,380.443359 L187.694336,380.443359 Z M198.21875,384.347168 C198.21875,385.951017 197.965904,387.148596 197.460205,387.939941 C196.954506,388.731287 196.181158,389.126953 195.140137,389.126953 C194.141434,389.126953 193.381839,388.721765 192.861328,387.911377 C192.340818,387.100989 192.080566,385.912931 192.080566,384.347168 C192.080566,382.730623 192.332354,381.530928 192.835938,380.748047 C193.339521,379.965165 194.107579,379.57373 195.140137,379.57373 C196.147303,379.57373 196.912188,379.982092 197.434814,380.798828 C197.957441,381.615564 198.21875,382.798332 198.21875,384.347168 L198.21875,384.347168 Z M193.146973,384.347168 C193.146973,385.69711 193.305662,386.679929 193.623047,387.295654 C193.940431,387.91138 194.446123,388.219238 195.140137,388.219238 C195.842614,388.219238 196.35148,387.907148 196.666748,387.282959 C196.982017,386.65877 197.139648,385.680182 197.139648,384.347168 C197.139648,383.014153 196.982017,382.037682 196.666748,381.417725 C196.35148,380.797767 195.842614,380.487793 195.140137,380.487793 C194.446123,380.487793 193.940431,380.793535 193.623047,381.405029 C193.305662,382.016523 193.146973,382.997226 193.146973,384.347168 L193.146973,384.347168 Z" id="80" fill="#4A4A4A"></path>
                <path d="M227.227051,383.293457 L226.808105,385.45166 L228.604492,385.45166 L228.604492,386.270508 L226.655762,386.270508 L226.122559,389 L225.25293,389 L225.786133,386.270508 L223.862793,386.270508 L223.342285,389 L222.479004,389 L222.986816,386.270508 L221.32373,386.270508 L221.32373,385.45166 L223.145508,385.45166 L223.577148,383.293457 L221.818848,383.293457 L221.818848,382.487305 L223.716797,382.487305 L224.237305,379.719727 L225.119629,379.719727 L224.599121,382.487305 L226.535156,382.487305 L227.068359,379.719727 L227.918945,379.719727 L227.385742,382.487305 L229.061523,382.487305 L229.061523,383.293457 L227.227051,383.293457 Z M224.015137,385.45166 L225.938477,385.45166 L226.357422,383.293457 L224.434082,383.293457 L224.015137,385.45166 Z M236.183594,384.347168 C236.183594,385.951017 235.930748,387.148596 235.425049,387.939941 C234.91935,388.731287 234.146001,389.126953 233.10498,389.126953 C232.106278,389.126953 231.346682,388.721765 230.826172,387.911377 C230.305661,387.100989 230.04541,385.912931 230.04541,384.347168 C230.04541,382.730623 230.297198,381.530928 230.800781,380.748047 C231.304364,379.965165 232.072423,379.57373 233.10498,379.57373 C234.112147,379.57373 234.877032,379.982092 235.399658,380.798828 C235.922285,381.615564 236.183594,382.798332 236.183594,384.347168 L236.183594,384.347168 Z M231.111816,384.347168 C231.111816,385.69711 231.270506,386.679929 231.587891,387.295654 C231.905275,387.91138 232.410967,388.219238 233.10498,388.219238 C233.807458,388.219238 234.316323,387.907148 234.631592,387.282959 C234.94686,386.65877 235.104492,385.680182 235.104492,384.347168 C235.104492,383.014153 234.94686,382.037682 234.631592,381.417725 C234.316323,380.797767 233.807458,380.487793 233.10498,380.487793 C232.410967,380.487793 231.905275,380.793535 231.587891,381.405029 C231.270506,382.016523 231.111816,382.997226 231.111816,384.347168 L231.111816,384.347168 Z M243.565918,389 L237.46582,389 L237.46582,388.092285 L239.909668,385.635742 C240.654463,384.882483 241.145344,384.345054 241.382324,384.023438 C241.619305,383.701821 241.797037,383.388673 241.915527,383.083984 C242.034018,382.779295 242.093262,382.451336 242.093262,382.100098 C242.093262,381.604978 241.943035,381.212485 241.642578,380.922607 C241.342121,380.63273 240.925296,380.487793 240.39209,380.487793 C240.006997,380.487793 239.64201,380.551269 239.297119,380.678223 C238.952228,380.805176 238.568199,381.035806 238.14502,381.370117 L237.586426,380.652832 C238.441248,379.941891 239.372228,379.586426 240.379395,379.586426 C241.251144,379.586426 241.934568,379.809649 242.429688,380.256104 C242.924807,380.702558 243.172363,381.302405 243.172363,382.055664 C243.172363,382.643883 243.007326,383.225746 242.677246,383.80127 C242.347166,384.376793 241.729334,385.104651 240.82373,385.984863 L238.79248,387.97168 L238.79248,388.022461 L243.565918,388.022461 L243.565918,389 Z M251.373535,389 L250.218262,386.04834 L246.498535,386.04834 L245.355957,389 L244.26416,389 L247.933105,379.681641 L248.84082,379.681641 L252.490723,389 L251.373535,389 Z M249.881836,385.077148 L248.802734,382.20166 C248.663085,381.837726 248.519206,381.391279 248.371094,380.862305 C248.277994,381.268557 248.144695,381.715004 247.971191,382.20166 L246.879395,385.077148 L249.881836,385.077148 Z M257.029297,389 L256.000977,389 L256.000977,382.385742 C256.000977,381.835609 256.017903,381.315107 256.051758,380.824219 C255.96289,380.913086 255.863445,381.006184 255.753418,381.103516 C255.643391,381.200847 255.139816,381.61344 254.242676,382.341309 L253.684082,381.617676 L256.140625,379.719727 L257.029297,379.719727 L257.029297,389 Z M263.630859,379.586426 C264.477218,379.586426 265.147947,379.783201 265.643066,380.176758 C266.138186,380.570314 266.385742,381.114092 266.385742,381.808105 C266.385742,382.265139 266.243979,382.681964 265.960449,383.058594 C265.676919,383.435223 265.224124,383.777993 264.602051,384.086914 C265.35531,384.446616 265.890623,384.824298 266.208008,385.219971 C266.525392,385.615643 266.684082,386.073728 266.684082,386.594238 C266.684082,387.364424 266.415367,387.979083 265.87793,388.438232 C265.340492,388.897382 264.604171,389.126953 263.668945,389.126953 C262.678706,389.126953 261.916995,388.910077 261.383789,388.476318 C260.850583,388.04256 260.583984,387.427901 260.583984,386.632324 C260.583984,385.570144 261.231439,384.742842 262.526367,384.150391 C261.94238,383.820311 261.523439,383.463788 261.269531,383.080811 C261.015624,382.697833 260.888672,382.269371 260.888672,381.79541 C260.888672,381.122555 261.137286,380.586184 261.634521,380.186279 C262.131757,379.786375 262.797196,379.586426 263.630859,379.586426 L263.630859,379.586426 Z M261.625,386.657715 C261.625,387.16553 261.801675,387.561196 262.155029,387.844727 C262.508384,388.128257 263.004554,388.27002 263.643555,388.27002 C264.274092,388.27002 264.764972,388.121909 265.116211,387.825684 C265.46745,387.529458 265.643066,387.123212 265.643066,386.606934 C265.643066,386.19645 265.478029,385.831463 265.147949,385.511963 C264.817869,385.192463 264.242354,384.882488 263.421387,384.582031 C262.79085,384.852866 262.333823,385.152261 262.050293,385.480225 C261.766763,385.808188 261.625,386.200681 261.625,386.657715 L261.625,386.657715 Z M263.618164,380.443359 C263.08919,380.443359 262.674481,380.570311 262.374023,380.824219 C262.073566,381.078126 261.92334,381.416665 261.92334,381.839844 C261.92334,382.229169 262.048176,382.563475 262.297852,382.842773 C262.547527,383.122072 263.008786,383.401366 263.681641,383.680664 C264.286787,383.426757 264.715249,383.15381 264.967041,382.861816 C265.218833,382.569823 265.344727,382.229169 265.344727,381.839844 C265.344727,381.412433 265.191326,381.072837 264.884521,380.821045 C264.577717,380.569253 264.155602,380.443359 263.618164,380.443359 L263.618164,380.443359 Z M268.099609,385.032715 C268.099609,383.208812 268.454017,381.845138 269.162842,380.94165 C269.871667,380.038163 270.920078,379.586426 272.308105,379.586426 C272.786298,379.586426 273.162922,379.626627 273.437988,379.707031 L273.437988,380.614746 C273.11214,380.508951 272.739748,380.456055 272.320801,380.456055 C271.32633,380.456055 270.566734,380.766029 270.041992,381.385986 C269.51725,382.005944 269.229492,382.980299 269.178711,384.309082 L269.254883,384.309082 C269.72038,383.581214 270.456701,383.217285 271.463867,383.217285 C272.29753,383.217285 272.954506,383.469073 273.434814,383.972656 C273.915123,384.476239 274.155273,385.159664 274.155273,386.022949 C274.155273,386.987798 273.891848,387.746335 273.36499,388.298584 C272.838132,388.850833 272.126144,389.126953 271.229004,389.126953 C270.268387,389.126953 269.506676,388.766198 268.943848,388.044678 C268.381019,387.323157 268.099609,386.31918 268.099609,385.032715 L268.099609,385.032715 Z M271.216309,388.231934 C271.817223,388.231934 272.283771,388.042564 272.615967,387.663818 C272.948162,387.285073 273.114258,386.738122 273.114258,386.022949 C273.114258,385.409339 272.9598,384.926922 272.650879,384.575684 C272.341958,384.224445 271.8807,384.048828 271.26709,384.048828 C270.886229,384.048828 270.537111,384.127115 270.219727,384.283691 C269.902342,384.440268 269.649496,384.656086 269.461182,384.931152 C269.272867,385.206219 269.178711,385.49186 269.178711,385.788086 C269.178711,386.223961 269.263346,386.630206 269.432617,387.006836 C269.601889,387.383465 269.842039,387.681802 270.153076,387.901855 C270.464113,388.121909 270.81852,388.231934 271.216309,388.231934 L271.216309,388.231934 Z" id="#02A186" fill="#4A4A4A"></path>
                <path d="M51.1123047,407.645508 L51.1123047,412 L50.4150391,412 L50.4150391,402.005859 L52.7939453,402.005859 C54.0335348,402.005859 54.9495413,402.234861 55.5419922,402.692871 C56.1344431,403.150881 56.4306641,403.840165 56.4306641,404.760742 C56.4306641,405.430667 56.2540708,405.995766 55.9008789,406.456055 C55.547687,406.916343 55.0110713,407.246744 54.2910156,407.447266 L57.0048828,412 L56.1708984,412 L53.59375,407.645508 L51.1123047,407.645508 Z M51.1123047,407.043945 L53.0195312,407.043945 C53.8626344,407.043945 54.5165992,406.855959 54.9814453,406.47998 C55.4462914,406.104002 55.6787109,405.549157 55.6787109,404.81543 C55.6787109,404.054358 55.4508486,403.500653 54.9951172,403.154297 C54.5393857,402.807941 53.7965546,402.634766 52.7666016,402.634766 L51.1123047,402.634766 L51.1123047,407.043945 Z" id="R" fill="#4A4A4A"></path>
                <path d="M99.3457031,406.961914 L103.030273,406.961914 L103.030273,411.521484 C102.064123,411.931643 100.97722,412.136719 99.7695312,412.136719 C98.1927004,412.136719 96.9838909,411.691248 96.1430664,410.800293 C95.3022419,409.909338 94.8818359,408.64812 94.8818359,407.016602 C94.8818359,406.00032 95.0903299,405.099125 95.5073242,404.312988 C95.9243185,403.526852 96.5213177,402.919598 97.2983398,402.491211 C98.075362,402.062823 98.9674429,401.848633 99.9746094,401.848633 C101.063808,401.848633 102.041337,402.049152 102.907227,402.450195 L102.626953,403.079102 C101.761063,402.678058 100.863286,402.477539 99.9335938,402.477539 C98.6165299,402.477539 97.5717812,402.884273 96.7993164,403.697754 C96.0268516,404.511235 95.640625,405.608392 95.640625,406.989258 C95.640625,408.493172 96.0074833,409.624508 96.7412109,410.383301 C97.4749386,411.142094 98.5527273,411.521484 99.9746094,411.521484 C100.895187,411.521484 101.676755,411.391603 102.319336,411.131836 L102.319336,407.618164 L99.3457031,407.618164 L99.3457031,406.961914 Z" id="G" fill="#4A4A4A"></path>
                <g id="Group-4" transform="translate(218.000000, 115.000000)" stroke-width="3">
                    <circle id="Oval-39" stroke="#FFFFFF" cx="9" cy="9" r="6"></circle>
                    <circle id="Oval-38" stroke="#000000" cx="9" cy="9" r="9"></circle>
                </g>
                <rect id="Rectangle-236" fill="#2BB099" x="36" y="20" width="243" height="50"></rect>
                <rect id="Rectangle-236" fill="#02A186" x="36" y="20" width="123" height="50"></rect>
            </g>
        </g>
    </g>
</svg>