<?xml version="1.0" encoding="UTF-8" standalone="no"?>
<svg width="196px" height="150px" viewBox="0 0 196 150" version="1.1" xmlns="http://www.w3.org/2000/svg" xmlns:xlink="http://www.w3.org/1999/xlink">
    <!-- Generator: Sketch 40.2 (33826) - http://www.bohemiancoding.com/sketch -->
    <title>Group</title>
    <desc>Created with Sketch.</desc>
    <defs></defs>
    <g id="Product-Style" stroke="none" stroke-width="1" fill="none" fill-rule="evenodd">
        <g id="Product-Style---Logo" transform="translate(-352.000000, -2263.000000)">
            <g id="Group" transform="translate(352.000000, 2263.000000)">
                <g id="Fill-1-+-Fill-2-Copy" transform="translate(50.000000, 0.000000)" fill="#50E3C2">
                    <path d="M74.3035046,149.579713 C77.1546055,141.97414 80.0057064,140.034172 80.0057064,134.368567 C80.0057064,125.323662 74.5452661,116.925573 66.0945138,112.97207 L29.8342569,95.4478662 C11.6397248,86.3408599 0.330440367,68.4000955 0.330440367,48.633535 C0.330440367,28.5096497 11.9379633,10.4236624 30.6219633,1.43226115 L33.4151009,0.0564649682 C29.7886789,4.25264331 27.7168624,9.59818471 27.7168624,15.2609236 C27.7168624,24.3125159 33.1773028,32.7115605 41.628055,36.6593312 L77.8873211,54.1854459 C96.0808624,63.2943631 107.392128,81.234172 107.392128,100.996911 C107.392128,121.118885 95.7846055,139.206783 77.0996147,148.202962 L74.3035046,149.579713" id="Fill-1"></path>
                </g>
                <rect id="Rectangle-9-Copy-3" fill="#D0011B" transform="translate(97.757268, 75.228571) rotate(-75.000000) translate(-97.757268, -75.228571) " x="93.2572683" y="-24.7714293" width="9" height="200"></rect>
            </g>
        </g>
    </g>
</svg>