<?xml version="1.0" encoding="UTF-8" standalone="no"?>
<svg width="327px" height="173px" viewBox="0 0 327 173" version="1.1" xmlns="http://www.w3.org/2000/svg" xmlns:xlink="http://www.w3.org/1999/xlink">
    <!-- Generator: Sketch 40.2 (33826) - http://www.bohemiancoding.com/sketch -->
    <title>confirm</title>
    <desc>Created with Sketch.</desc>
    <defs>
        <filter x="-50%" y="-50%" width="200%" height="200%" filterUnits="objectBoundingBox" id="filter-1">
            <feOffset dx="0" dy="2" in="SourceAlpha" result="shadowOffsetOuter1"></feOffset>
            <feGaussianBlur stdDeviation="2" in="shadowOffsetOuter1" result="shadowBlurOuter1"></feGaussianBlur>
            <feColorMatrix values="0 0 0 0 0   0 0 0 0 0   0 0 0 0 0  0 0 0 0.5 0" type="matrix" in="shadowBlurOuter1" result="shadowMatrixOuter1"></feColorMatrix>
            <feMerge>
                <feMergeNode in="shadowMatrixOuter1"></feMergeNode>
                <feMergeNode in="SourceGraphic"></feMergeNode>
            </feMerge>
        </filter>
        <polygon id="path-2" points="0 0 319 0 319 165 0 165"></polygon>
        <mask id="mask-3" maskContentUnits="userSpaceOnUse" maskUnits="objectBoundingBox" x="0" y="0" width="319" height="165" fill="white">
            <use xlink:href="#path-2"></use>
        </mask>
        <rect id="path-4" x="253" y="125" width="56" height="32"></rect>
        <mask id="mask-5" maskContentUnits="userSpaceOnUse" maskUnits="objectBoundingBox" x="0" y="0" width="56" height="32" fill="white">
            <use xlink:href="#path-4"></use>
        </mask>
        <rect id="path-6" x="185" y="125" width="60" height="32"></rect>
        <mask id="mask-7" maskContentUnits="userSpaceOnUse" maskUnits="objectBoundingBox" x="0" y="0" width="60" height="32" fill="white">
            <use xlink:href="#path-6"></use>
        </mask>
    </defs>
    <g id="Components" stroke="none" stroke-width="1" fill="none" fill-rule="evenodd">
        <g id="Dialogs" transform="translate(-320.000000, -1128.000000)">
            <g id="confirm" transform="translate(324.000000, 1130.000000)">
                <g id="Message-Box" filter="url(#filter-1)">
                    <use id="Fill-20" stroke="#025B80" mask="url(#mask-3)" stroke-width="4" fill="#FFFFFF" xlink:href="#path-2"></use>
                    <polygon id="Fill-22" fill="#025B80" points="0 0 319 0 319 44 0 44"></polygon>
                    <polygon id="Fill-23" fill="#ECECEC" points="2 119 317 119 317 163 2 163"></polygon>
                </g>
                <path d="M19.4609375,15.6015625 C18.2057229,15.6015625 17.2148474,16.0195271 16.4882812,16.8554688 C15.7617151,17.6914104 15.3984375,18.8359302 15.3984375,20.2890625 C15.3984375,21.7838616 15.7486944,22.938798 16.4492188,23.7539062 C17.1497431,24.5690145 18.148431,24.9765625 19.4453125,24.9765625 C20.2421915,24.9765625 21.1510366,24.8333348 22.171875,24.546875 L22.171875,25.7109375 C21.3802044,26.007814 20.4036516,26.15625 19.2421875,26.15625 C17.5598874,26.15625 16.2617233,25.6458384 15.3476562,24.625 C14.4335892,23.6041616 13.9765625,22.1536552 13.9765625,20.2734375 C13.9765625,19.0963483 14.1966124,18.0651086 14.6367188,17.1796875 C15.0768251,16.2942664 15.7122354,15.6119816 16.5429688,15.1328125 C17.3737021,14.6536434 18.3515569,14.4140625 19.4765625,14.4140625 C20.6744852,14.4140625 21.7213497,14.6328103 22.6171875,15.0703125 L22.0546875,16.2109375 C21.1900998,15.8046855 20.3255252,15.6015625 19.4609375,15.6015625 L19.4609375,15.6015625 Z M31.859375,21.7109375 C31.859375,23.1067778 31.507816,24.1966107 30.8046875,24.9804688 C30.101559,25.7643268 29.1302145,26.15625 27.890625,26.15625 C27.1249962,26.15625 26.4453155,25.9765643 25.8515625,25.6171875 C25.2578095,25.2578107 24.7994808,24.7421909 24.4765625,24.0703125 C24.1536442,23.3984341 23.9921875,22.6119837 23.9921875,21.7109375 C23.9921875,20.3150972 24.3411423,19.2278685 25.0390625,18.4492188 C25.7369827,17.670569 26.705723,17.28125 27.9453125,17.28125 C29.1432352,17.28125 30.0950486,17.6796835 30.8007812,18.4765625 C31.5065139,19.2734415 31.859375,20.3515557 31.859375,21.7109375 L31.859375,21.7109375 Z M25.3359375,21.7109375 C25.3359375,22.804693 25.5546853,23.638018 25.9921875,24.2109375 C26.4296897,24.783857 27.0729124,25.0703125 27.921875,25.0703125 C28.7708376,25.0703125 29.4153624,24.7851591 29.8554688,24.2148438 C30.2955751,23.6445284 30.515625,22.8099013 30.515625,21.7109375 C30.515625,20.6223904 30.2955751,19.7955757 29.8554688,19.2304688 C29.4153624,18.6653618 28.7656293,18.3828125 27.90625,18.3828125 C27.0572874,18.3828125 26.4166688,18.6614555 25.984375,19.21875 C25.5520812,19.7760445 25.3359375,20.6067653 25.3359375,21.7109375 L25.3359375,21.7109375 Z M39.9921875,26 L39.9921875,20.4609375 C39.9921875,19.7630173 39.8333349,19.2421892 39.515625,18.8984375 C39.1979151,18.5546858 38.7005242,18.3828125 38.0234375,18.3828125 C37.1275997,18.3828125 36.4713562,18.6249976 36.0546875,19.109375 C35.6380188,19.5937524 35.4296875,20.3932236 35.4296875,21.5078125 L35.4296875,26 L34.1328125,26 L34.1328125,17.4375 L35.1875,17.4375 L35.3984375,18.609375 L35.4609375,18.609375 C35.7265638,18.1874979 36.0989559,17.8606782 36.578125,17.6289062 C37.0572941,17.3971343 37.5911429,17.28125 38.1796875,17.28125 C39.2109427,17.28125 39.9869766,17.5299454 40.5078125,18.0273438 C41.0286484,18.5247421 41.2890625,19.320307 41.2890625,20.4140625 L41.2890625,26 L39.9921875,26 Z M47.8125,18.4453125 L45.6328125,18.4453125 L45.6328125,26 L44.3359375,26 L44.3359375,18.4453125 L42.8046875,18.4453125 L42.8046875,17.859375 L44.3359375,17.390625 L44.3359375,16.9140625 C44.3359375,14.8098853 45.2551991,13.7578125 47.09375,13.7578125 C47.5468773,13.7578125 48.078122,13.8489574 48.6875,14.03125 L48.3515625,15.0703125 C47.85156,14.9088534 47.4244809,14.828125 47.0703125,14.828125 C46.5807267,14.828125 46.2187512,14.9908838 45.984375,15.3164062 C45.7499988,15.6419287 45.6328125,16.1640589 45.6328125,16.8828125 L45.6328125,17.4375 L47.8125,17.4375 L47.8125,18.4453125 Z M50.671875,26 L49.375,26 L49.375,17.4375 L50.671875,17.4375 L50.671875,26 Z M49.265625,15.1171875 C49.265625,14.820311 49.3385409,14.6028653 49.484375,14.4648438 C49.6302091,14.3268222 49.8124989,14.2578125 50.03125,14.2578125 C50.2395844,14.2578125 50.4192701,14.3281243 50.5703125,14.46875 C50.7213549,14.6093757 50.796875,14.8255194 50.796875,15.1171875 C50.796875,15.4088556 50.7213549,15.6263014 50.5703125,15.7695312 C50.4192701,15.9127611 50.2395844,15.984375 50.03125,15.984375 C49.8124989,15.984375 49.6302091,15.9127611 49.484375,15.7695312 C49.3385409,15.6263014 49.265625,15.4088556 49.265625,15.1171875 L49.265625,15.1171875 Z M57.328125,17.28125 C57.7083352,17.28125 58.0494777,17.3124997 58.3515625,17.375 L58.171875,18.578125 C57.8177066,18.4999996 57.5052097,18.4609375 57.234375,18.4609375 C56.5416632,18.4609375 55.9492212,18.7421847 55.4570312,19.3046875 C54.9648413,19.8671903 54.71875,20.5677041 54.71875,21.40625 L54.71875,26 L53.421875,26 L53.421875,17.4375 L54.4921875,17.4375 L54.640625,19.0234375 L54.703125,19.0234375 C55.0208349,18.466143 55.4036436,18.0364598 55.8515625,17.734375 C56.2994814,17.4322902 56.791664,17.28125 57.328125,17.28125 L57.328125,17.28125 Z M70.8671875,26 L70.8671875,20.4296875 C70.8671875,19.7473924 70.7213556,19.2356788 70.4296875,18.8945312 C70.1380194,18.5533837 69.6848989,18.3828125 69.0703125,18.3828125 C68.2630168,18.3828125 67.6666686,18.614581 67.28125,19.078125 C66.8958314,19.541669 66.703125,20.2552035 66.703125,21.21875 L66.703125,26 L65.40625,26 L65.40625,20.4296875 C65.40625,19.7473924 65.2604181,19.2356788 64.96875,18.8945312 C64.6770819,18.5533837 64.2213573,18.3828125 63.6015625,18.3828125 C62.7890584,18.3828125 62.1940123,18.6262996 61.8164062,19.1132812 C61.4388002,19.6002629 61.25,20.398432 61.25,21.5078125 L61.25,26 L59.953125,26 L59.953125,17.4375 L61.0078125,17.4375 L61.21875,18.609375 L61.28125,18.609375 C61.5260429,18.1927063 61.8710915,17.8671887 62.3164062,17.6328125 C62.761721,17.3984363 63.2604139,17.28125 63.8125,17.28125 C65.1510484,17.28125 66.0260396,17.7656202 66.4375,18.734375 L66.5,18.734375 C66.7552096,18.2864561 67.1249976,17.932293 67.609375,17.671875 C68.0937524,17.411457 68.6458302,17.28125 69.265625,17.28125 C70.2343798,17.28125 70.959633,17.5299454 71.4414062,18.0273438 C71.9231795,18.5247421 72.1640625,19.320307 72.1640625,20.4140625 L72.1640625,26 L70.8671875,26 Z M80.1015625,26 L79.84375,24.78125 L79.78125,24.78125 C79.3541645,25.317711 78.9283875,25.6809886 78.5039062,25.8710938 C78.079425,26.0611989 77.5494823,26.15625 76.9140625,26.15625 C76.0650999,26.15625 75.399742,25.9375022 74.9179688,25.5 C74.4361955,25.0624978 74.1953125,24.4401082 74.1953125,23.6328125 C74.1953125,21.9036372 75.5781112,20.9973963 78.34375,20.9140625 L79.796875,20.8671875 L79.796875,20.3359375 C79.796875,19.6640591 79.6523452,19.1679704 79.3632812,18.8476562 C79.0742173,18.5273421 78.6119823,18.3671875 77.9765625,18.3671875 C77.2630173,18.3671875 76.4557337,18.5859353 75.5546875,19.0234375 L75.15625,18.03125 C75.5781271,17.8020822 76.0403621,17.6223965 76.5429688,17.4921875 C77.0455754,17.3619785 77.5494766,17.296875 78.0546875,17.296875 C79.0755259,17.296875 79.8320288,17.5234352 80.3242188,17.9765625 C80.8164087,18.4296898 81.0625,19.156245 81.0625,20.15625 L81.0625,26 L80.1015625,26 Z M77.171875,25.0859375 C77.9791707,25.0859375 78.6132789,24.8645855 79.0742188,24.421875 C79.5351586,23.9791645 79.765625,23.359379 79.765625,22.5625 L79.765625,21.7890625 L78.46875,21.84375 C77.4374948,21.8802085 76.6940127,22.0403632 76.2382812,22.3242188 C75.7825498,22.6080743 75.5546875,23.0494762 75.5546875,23.6484375 C75.5546875,24.1171898 75.6966132,24.4739571 75.9804688,24.71875 C76.2643243,24.9635429 76.6614558,25.0859375 77.171875,25.0859375 L77.171875,25.0859375 Z M86.5,25.0859375 C86.7291678,25.0859375 86.9505198,25.0690106 87.1640625,25.0351562 C87.3776052,25.0013019 87.5468744,24.966146 87.671875,24.9296875 L87.671875,25.921875 C87.5312493,25.9895837 87.3242201,26.0455727 87.0507812,26.0898438 C86.7773424,26.1341148 86.5312511,26.15625 86.3125,26.15625 C84.6562417,26.15625 83.828125,25.2838629 83.828125,23.5390625 L83.828125,18.4453125 L82.6015625,18.4453125 L82.6015625,17.8203125 L83.828125,17.28125 L84.375,15.453125 L85.125,15.453125 L85.125,17.4375 L87.609375,17.4375 L87.609375,18.4453125 L85.125,18.4453125 L85.125,23.484375 C85.125,24.0000026 85.2473946,24.395832 85.4921875,24.671875 C85.7369804,24.947918 86.0729145,25.0859375 86.5,25.0859375 L86.5,25.0859375 Z M90.6796875,26 L89.3828125,26 L89.3828125,17.4375 L90.6796875,17.4375 L90.6796875,26 Z M89.2734375,15.1171875 C89.2734375,14.820311 89.3463534,14.6028653 89.4921875,14.4648438 C89.6380216,14.3268222 89.8203114,14.2578125 90.0390625,14.2578125 C90.2473969,14.2578125 90.4270826,14.3281243 90.578125,14.46875 C90.7291674,14.6093757 90.8046875,14.8255194 90.8046875,15.1171875 C90.8046875,15.4088556 90.7291674,15.6263014 90.578125,15.7695312 C90.4270826,15.9127611 90.2473969,15.984375 90.0390625,15.984375 C89.8203114,15.984375 89.6380216,15.9127611 89.4921875,15.7695312 C89.3463534,15.6263014 89.2734375,15.4088556 89.2734375,15.1171875 L89.2734375,15.1171875 Z M100.820312,21.7109375 C100.820312,23.1067778 100.468754,24.1966107 99.765625,24.9804688 C99.0624965,25.7643268 98.091152,26.15625 96.8515625,26.15625 C96.0859337,26.15625 95.406253,25.9765643 94.8125,25.6171875 C94.218747,25.2578107 93.7604183,24.7421909 93.4375,24.0703125 C93.1145817,23.3984341 92.953125,22.6119837 92.953125,21.7109375 C92.953125,20.3150972 93.3020798,19.2278685 94,18.4492188 C94.6979202,17.670569 95.6666605,17.28125 96.90625,17.28125 C98.1041727,17.28125 99.0559861,17.6796835 99.7617188,18.4765625 C100.467451,19.2734415 100.820312,20.3515557 100.820312,21.7109375 L100.820312,21.7109375 Z M94.296875,21.7109375 C94.296875,22.804693 94.5156228,23.638018 94.953125,24.2109375 C95.3906272,24.783857 96.0338499,25.0703125 96.8828125,25.0703125 C97.7317751,25.0703125 98.3762999,24.7851591 98.8164062,24.2148438 C99.2565126,23.6445284 99.4765625,22.8099013 99.4765625,21.7109375 C99.4765625,20.6223904 99.2565126,19.7955757 98.8164062,19.2304688 C98.3762999,18.6653618 97.7265668,18.3828125 96.8671875,18.3828125 C96.0182249,18.3828125 95.3776063,18.6614555 94.9453125,19.21875 C94.5130187,19.7760445 94.296875,20.6067653 94.296875,21.7109375 L94.296875,21.7109375 Z M108.953125,26 L108.953125,20.4609375 C108.953125,19.7630173 108.794272,19.2421892 108.476562,18.8984375 C108.158853,18.5546858 107.661462,18.3828125 106.984375,18.3828125 C106.088537,18.3828125 105.432294,18.6249976 105.015625,19.109375 C104.598956,19.5937524 104.390625,20.3932236 104.390625,21.5078125 L104.390625,26 L103.09375,26 L103.09375,17.4375 L104.148438,17.4375 L104.359375,18.609375 L104.421875,18.609375 C104.687501,18.1874979 105.059893,17.8606782 105.539062,17.6289062 C106.018232,17.3971343 106.55208,17.28125 107.140625,17.28125 C108.17188,17.28125 108.947914,17.5299454 109.46875,18.0273438 C109.989586,18.5247421 110.25,19.320307 110.25,20.4140625 L110.25,26 L108.953125,26 Z" id="Confirmation" fill="#FFFFFF"></path>
                <path d="M28.7089844,85 L28.1757812,85 L26.1381836,77.8398438 C25.9689119,77.2516247 25.8419601,76.7692076 25.7573242,76.3925781 C25.6896155,76.760744 25.5933437,77.1839169 25.4685059,77.6621094 C25.343668,78.1403019 24.6613018,80.586241 23.4213867,85 L22.8754883,85 L20.3237305,75.7197266 L21.0029297,75.7197266 L22.6279297,81.6992188 C22.6914066,81.9404309 22.7506508,82.1636546 22.8056641,82.3688965 C22.8606774,82.5741384 22.9104002,82.766682 22.954834,82.9465332 C22.9992678,83.1263844 23.0394692,83.2998852 23.0754395,83.467041 C23.1114097,83.6341968 23.1442056,83.802408 23.1738281,83.9716797 C23.2753911,83.396156 23.4912093,82.522304 23.8212891,81.3500977 L25.4082031,75.7197266 L26.1254883,75.7197266 L27.9853516,82.1816406 C28.201173,82.926436 28.355631,83.5273415 28.4487305,83.984375 C28.5037438,83.679686 28.5746252,83.3559587 28.661377,83.0131836 C28.7481287,82.6704084 29.4008728,80.2392804 30.6196289,75.7197266 L31.2734375,75.7197266 L28.7089844,85 Z M38.1987305,81.5405273 C38.1987305,82.666184 37.925784,83.5453256 37.3798828,84.1779785 C36.8339816,84.8106314 36.080734,85.1269531 35.1201172,85.1269531 C34.5149709,85.1269531 33.9817731,84.9809585 33.5205078,84.6889648 C33.0592425,84.3969712 32.7058932,83.9780301 32.4604492,83.4321289 C32.2150053,82.8862277 32.0922852,82.2557002 32.0922852,81.5405273 C32.0922852,80.4148707 32.3652316,79.5378449 32.9111328,78.9094238 C33.457034,78.2810027 34.2060499,77.9667969 35.1582031,77.9667969 C36.1061245,77.9667969 36.8498508,78.2852344 37.3894043,78.9221191 C37.9289578,79.5590038 38.1987305,80.4317978 38.1987305,81.5405273 L38.1987305,81.5405273 Z M32.7524414,81.5405273 C32.7524414,82.4884488 32.960854,83.2279433 33.3776855,83.7590332 C33.7945171,84.2901231 34.3837853,84.5556641 35.1455078,84.5556641 C35.9072304,84.5556641 36.4964986,84.2901231 36.9133301,83.7590332 C37.3301616,83.2279433 37.5385742,82.4884488 37.5385742,81.5405273 C37.5385742,80.5883741 37.3280457,79.8499375 36.9069824,79.3251953 C36.4859191,78.8004531 35.8945351,78.5380859 35.1328125,78.5380859 C34.3710899,78.5380859 33.7839376,78.7993952 33.3713379,79.3220215 C32.9587382,79.8446478 32.7524414,80.5841424 32.7524414,81.5405273 L32.7524414,81.5405273 Z M40.6552734,78.1000977 L40.6552734,82.5688477 C40.6552734,83.2628615 40.8012681,83.7674952 41.0932617,84.0827637 C41.3852554,84.3980322 41.8380503,84.5556641 42.4516602,84.5556641 C43.2726278,84.5556641 43.876707,84.3483094 44.263916,83.9335938 C44.651125,83.5188781 44.8447266,82.8439174 44.8447266,81.9086914 L44.8447266,78.1000977 L45.4667969,78.1000977 L45.4667969,85 L44.9335938,85 L44.8193359,84.0478516 L44.78125,84.0478516 C44.33268,84.7672562 43.5349992,85.1269531 42.3881836,85.1269531 C40.8181888,85.1269531 40.0332031,84.286955 40.0332031,82.6069336 L40.0332031,78.1000977 L40.6552734,78.1000977 Z M48.4057617,85 L47.7773438,85 L47.7773438,75.1230469 L48.4057617,75.1230469 L48.4057617,85 Z M53.2426758,77.9667969 C53.7420272,77.9667969 54.1736635,78.057779 54.5375977,78.2397461 C54.9015318,78.4217131 55.2273749,78.7327452 55.5151367,79.1728516 L55.5532227,79.1728516 C55.5278319,78.6396458 55.5151367,78.1170273 55.5151367,77.6049805 L55.5151367,75.1230469 L56.137207,75.1230469 L56.137207,85 L55.7246094,85 L55.565918,83.9462891 L55.5151367,83.9462891 C54.9903945,84.7334024 54.2371468,85.1269531 53.2553711,85.1269531 C52.3032179,85.1269531 51.5753606,84.8307321 51.0717773,84.2382812 C50.5681941,83.6458304 50.3164062,82.7825578 50.3164062,81.6484375 C50.3164062,80.4550722 50.5660782,79.5431347 51.0654297,78.9125977 C51.5647811,78.2820606 52.2905226,77.9667969 53.2426758,77.9667969 L53.2426758,77.9667969 Z M53.2426758,78.5380859 C52.4894168,78.5380859 51.9234231,78.802569 51.5446777,79.331543 C51.1659324,79.860517 50.9765625,80.6285757 50.9765625,81.6357422 C50.9765625,83.5908301 51.7361578,84.5683594 53.2553711,84.5683594 C54.0340208,84.5683594 54.6053042,84.3419619 54.9692383,83.8891602 C55.3331724,83.4363584 55.5151367,82.6894583 55.5151367,81.6484375 L55.5151367,81.5405273 C55.5151367,80.4741158 55.3363462,79.707115 54.9787598,79.239502 C54.6211733,78.7718889 54.0424845,78.5380859 53.2426758,78.5380859 L53.2426758,78.5380859 Z M60.6757812,78.1000977 L61.3232422,78.1000977 L62.7832031,81.972168 C63.2275413,83.1613015 63.5089512,83.9632141 63.6274414,84.3779297 L63.6655273,84.3779297 C63.8432626,83.8320285 64.133136,83.0174208 64.5351562,81.934082 L65.9951172,78.1000977 L66.6425781,78.1000977 L63.5512695,86.1171875 C63.3015938,86.7688835 63.0921232,87.2089832 62.9228516,87.4375 C62.7535799,87.6660168 62.5557466,87.8374018 62.3293457,87.9516602 C62.1029448,88.0659185 61.8289404,88.1230469 61.5073242,88.1230469 C61.2661121,88.1230469 60.9973973,88.0786137 60.7011719,87.9897461 L60.7011719,87.4438477 C60.9466158,87.5115563 61.2110988,87.5454102 61.4946289,87.5454102 C61.7104503,87.5454102 61.9008781,87.4946294 62.065918,87.3930664 C62.2309579,87.2915034 62.3801263,87.1338715 62.5134277,86.920166 C62.6467292,86.7064605 62.8011873,86.3679222 62.9768066,85.904541 C63.152426,85.4411598 63.2656247,85.1396491 63.3164062,85 L60.6757812,78.1000977 Z M73.5043945,81.5405273 C73.5043945,82.666184 73.231448,83.5453256 72.6855469,84.1779785 C72.1396457,84.8106314 71.386398,85.1269531 70.4257812,85.1269531 C69.820635,85.1269531 69.2874372,84.9809585 68.8261719,84.6889648 C68.3649065,84.3969712 68.0115572,83.9780301 67.7661133,83.4321289 C67.5206693,82.8862277 67.3979492,82.2557002 67.3979492,81.5405273 C67.3979492,80.4148707 67.6708957,79.5378449 68.2167969,78.9094238 C68.762698,78.2810027 69.511714,77.9667969 70.4638672,77.9667969 C71.4117886,77.9667969 72.1555149,78.2852344 72.6950684,78.9221191 C73.2346218,79.5590038 73.5043945,80.4317978 73.5043945,81.5405273 L73.5043945,81.5405273 Z M68.0581055,81.5405273 C68.0581055,82.4884488 68.2665181,83.2279433 68.6833496,83.7590332 C69.1001811,84.2901231 69.6894493,84.5556641 70.4511719,84.5556641 C71.2128944,84.5556641 71.8021626,84.2901231 72.2189941,83.7590332 C72.6358257,83.2279433 72.8442383,82.4884488 72.8442383,81.5405273 C72.8442383,80.5883741 72.6337098,79.8499375 72.2126465,79.3251953 C71.7915832,78.8004531 71.2001991,78.5380859 70.4384766,78.5380859 C69.676754,78.5380859 69.0896017,78.7993952 68.677002,79.3220215 C68.2644022,79.8446478 68.0581055,80.5841424 68.0581055,81.5405273 L68.0581055,81.5405273 Z M75.9609375,78.1000977 L75.9609375,82.5688477 C75.9609375,83.2628615 76.1069321,83.7674952 76.3989258,84.0827637 C76.6909194,84.3980322 77.1437144,84.5556641 77.7573242,84.5556641 C78.5782919,84.5556641 79.1823711,84.3483094 79.5695801,83.9335938 C79.956789,83.5188781 80.1503906,82.8439174 80.1503906,81.9086914 L80.1503906,78.1000977 L80.7724609,78.1000977 L80.7724609,85 L80.2392578,85 L80.125,84.0478516 L80.0869141,84.0478516 C79.6383441,84.7672562 78.8406633,85.1269531 77.6938477,85.1269531 C76.1238528,85.1269531 75.3388672,84.286955 75.3388672,82.6069336 L75.3388672,78.1000977 L75.9609375,78.1000977 Z M87.0883789,85 L86.4599609,85 L86.4599609,75.1230469 L87.0883789,75.1230469 L87.0883789,85 Z M90.0273438,85 L89.3989258,85 L89.3989258,78.1000977 L90.0273438,78.1000977 L90.0273438,85 Z M89.3100586,76.1831055 C89.3100586,75.7768534 89.443358,75.5737305 89.7099609,75.5737305 C89.8411465,75.5737305 89.9437659,75.6266271 90.0178223,75.7324219 C90.0918786,75.8382167 90.1289062,75.988443 90.1289062,76.1831055 C90.1289062,76.3735361 90.0918786,76.5237625 90.0178223,76.6337891 C89.9437659,76.7438157 89.8411465,76.7988281 89.7099609,76.7988281 C89.443358,76.7988281 89.3100586,76.5935893 89.3100586,76.1831055 L89.3100586,76.1831055 Z M92.9536133,81.972168 L96.4765625,78.1000977 L97.2382812,78.1000977 L94.5214844,81.0454102 L97.4731445,85 L96.7177734,85 L94.0961914,81.5151367 L92.9663086,82.543457 L92.9663086,85 L92.3378906,85 L92.3378906,75.1230469 L92.9663086,75.1230469 L92.9663086,80.0742188 L92.921875,81.972168 L92.9536133,81.972168 Z M101.154785,85.1269531 C100.15185,85.1269531 99.3700386,84.8180369 98.8093262,84.2001953 C98.2486137,83.5823537 97.9682617,82.7169652 97.9682617,81.6040039 C97.9682617,80.503738 98.2390923,79.6224805 98.7807617,78.9602051 C99.3224311,78.2979296 100.052404,77.9667969 100.970703,77.9667969 C101.783207,77.9667969 102.424314,78.2503227 102.894043,78.8173828 C103.363772,79.3844429 103.598633,80.1546175 103.598633,81.1279297 L103.598633,81.6357422 L98.628418,81.6357422 C98.6368816,82.5836636 98.8579894,83.3072892 99.291748,83.8066406 C99.7255067,84.3059921 100.346513,84.5556641 101.154785,84.5556641 C101.548342,84.5556641 101.894286,84.5281578 102.192627,84.4731445 C102.490968,84.4181312 102.86865,84.2996428 103.325684,84.1176758 L103.325684,84.6889648 C102.936359,84.8582365 102.576662,84.9735511 102.246582,85.0349121 C101.916502,85.0962731 101.552574,85.1269531 101.154785,85.1269531 L101.154785,85.1269531 Z M100.970703,78.5253906 C100.306312,78.5253906 99.773114,78.7443826 99.3710938,79.182373 C98.9690735,79.6203635 98.7342126,80.251949 98.6665039,81.0771484 L102.932129,81.0771484 C102.932129,80.2773398 102.758628,79.6521019 102.411621,79.201416 C102.064614,78.7507302 101.584313,78.5253906 100.970703,78.5253906 L100.970703,78.5253906 Z M110.70166,84.5683594 C111.099449,84.5683594 111.44645,84.5345055 111.742676,84.4667969 L111.742676,84.9746094 C111.437987,85.0761724 111.086753,85.1269531 110.688965,85.1269531 C110.079587,85.1269531 109.629966,84.9640316 109.340088,84.6381836 C109.05021,84.3123356 108.905273,83.8002965 108.905273,83.1020508 L108.905273,78.6459961 L107.883301,78.6459961 L107.883301,78.277832 L108.905273,77.9921875 L109.222656,76.4306641 L109.546387,76.4306641 L109.546387,78.1000977 L111.571289,78.1000977 L111.571289,78.6459961 L109.546387,78.6459961 L109.546387,83.0131836 C109.546387,83.5421576 109.639485,83.9335925 109.825684,84.1875 C110.011882,84.4414075 110.303872,84.5683594 110.70166,84.5683594 L110.70166,84.5683594 Z M118.940918,81.5405273 C118.940918,82.666184 118.667971,83.5453256 118.12207,84.1779785 C117.576169,84.8106314 116.822921,85.1269531 115.862305,85.1269531 C115.257158,85.1269531 114.723961,84.9809585 114.262695,84.6889648 C113.80143,84.3969712 113.448081,83.9780301 113.202637,83.4321289 C112.957193,82.8862277 112.834473,82.2557002 112.834473,81.5405273 C112.834473,80.4148707 113.107419,79.5378449 113.65332,78.9094238 C114.199221,78.2810027 114.948237,77.9667969 115.900391,77.9667969 C116.848312,77.9667969 117.592038,78.2852344 118.131592,78.9221191 C118.671145,79.5590038 118.940918,80.4317978 118.940918,81.5405273 L118.940918,81.5405273 Z M113.494629,81.5405273 C113.494629,82.4884488 113.703042,83.2279433 114.119873,83.7590332 C114.536705,84.2901231 115.125973,84.5556641 115.887695,84.5556641 C116.649418,84.5556641 117.238686,84.2901231 117.655518,83.7590332 C118.072349,83.2279433 118.280762,82.4884488 118.280762,81.5405273 C118.280762,80.5883741 118.070233,79.8499375 117.64917,79.3251953 C117.228107,78.8004531 116.636723,78.5380859 115.875,78.5380859 C115.113277,78.5380859 114.526125,78.7993952 114.113525,79.3220215 C113.700926,79.8446478 113.494629,80.5841424 113.494629,81.5405273 L113.494629,81.5405273 Z M128.506836,83.2036133 C128.506836,83.8214549 128.271975,84.2964664 127.802246,84.6286621 C127.332517,84.9608578 126.66602,85.1269531 125.802734,85.1269531 C124.880204,85.1269531 124.148115,84.9851902 123.606445,84.7016602 L123.606445,84.0224609 C124.300459,84.3694679 125.032548,84.5429688 125.802734,84.5429688 C126.484053,84.5429688 127.001382,84.42977 127.354736,84.2033691 C127.708091,83.9769683 127.884766,83.6754576 127.884766,83.2988281 C127.884766,82.9518212 127.744061,82.6598319 127.462646,82.4228516 C127.181232,82.1858712 126.718916,81.9531261 126.075684,81.7246094 C125.385901,81.4749336 124.901369,81.2601734 124.62207,81.0803223 C124.342772,80.9004711 124.132244,80.6973481 123.990479,80.4709473 C123.848713,80.2445464 123.777832,79.9684261 123.777832,79.6425781 C123.777832,79.1262995 123.994708,78.7179377 124.428467,78.4174805 C124.862225,78.1170232 125.468421,77.9667969 126.24707,77.9667969 C126.991866,77.9667969 127.698564,78.1064439 128.367188,78.3857422 L128.132324,78.9570312 C127.455237,78.677733 126.826826,78.5380859 126.24707,78.5380859 C125.684242,78.5380859 125.237795,78.631184 124.907715,78.8173828 C124.577635,79.0035817 124.412598,79.2617171 124.412598,79.5917969 C124.412598,79.9514992 124.540607,80.2392567 124.796631,80.4550781 C125.052654,80.6708995 125.553056,80.912108 126.297852,81.1787109 C126.919925,81.4029959 127.37272,81.6050609 127.65625,81.7849121 C127.93978,81.9647633 128.152424,82.1689442 128.294189,82.3974609 C128.435954,82.6259777 128.506836,82.8946925 128.506836,83.2036133 L128.506836,83.2036133 Z M134.473633,85 L134.314941,83.9082031 L134.26416,83.9082031 C133.917153,84.3525413 133.56063,84.6667471 133.19458,84.8508301 C132.82853,85.034913 132.395836,85.1269531 131.896484,85.1269531 C131.219398,85.1269531 130.692547,84.9534523 130.315918,84.6064453 C129.939288,84.2594384 129.750977,83.7791372 129.750977,83.1655273 C129.750977,82.4926724 130.031329,81.9700539 130.592041,81.5976562 C131.152753,81.2252586 131.964187,81.0284832 133.026367,81.0073242 L134.340332,80.9692383 L134.340332,80.512207 C134.340332,79.8562793 134.207033,79.361167 133.94043,79.0268555 C133.673827,78.6925439 133.244306,78.5253906 132.651855,78.5253906 C132.012855,78.5253906 131.350589,78.7031232 130.665039,79.0585938 L130.430176,78.5126953 C131.187667,78.1572248 131.936682,77.9794922 132.677246,77.9794922 C133.434737,77.9794922 134.000731,78.1762676 134.375244,78.5698242 C134.749758,78.9633809 134.937012,79.5769815 134.937012,80.4106445 L134.937012,85 L134.473633,85 Z M131.93457,84.5556641 C132.670902,84.5556641 133.251707,84.3451356 133.677002,83.9240723 C134.102297,83.503009 134.314941,82.9179725 134.314941,82.1689453 L134.314941,81.4897461 L133.108887,81.5405273 C132.139806,81.5870771 131.448977,81.7383614 131.036377,81.9943848 C130.623777,82.2504082 130.41748,82.6492486 130.41748,83.190918 C130.41748,83.6225608 130.549722,83.9579252 130.814209,84.1970215 C131.078696,84.4361177 131.452146,84.5556641 131.93457,84.5556641 L131.93457,84.5556641 Z M138.682129,85 L136.016113,78.1000977 L136.663574,78.1000977 L138.447266,82.7910156 C138.684246,83.3919301 138.861979,83.9166644 138.980469,84.3652344 L139.018555,84.3652344 C139.192058,83.7897107 139.369791,83.2607446 139.551758,82.7783203 L141.335449,78.1000977 L141.98291,78.1000977 L139.316895,85 L138.682129,85 Z M145.924805,85.1269531 C144.92187,85.1269531 144.140058,84.8180369 143.579346,84.2001953 C143.018633,83.5823537 142.738281,82.7169652 142.738281,81.6040039 C142.738281,80.503738 143.009112,79.6224805 143.550781,78.9602051 C144.092451,78.2979296 144.822424,77.9667969 145.740723,77.9667969 C146.553227,77.9667969 147.194334,78.2503227 147.664062,78.8173828 C148.133791,79.3844429 148.368652,80.1546175 148.368652,81.1279297 L148.368652,81.6357422 L143.398438,81.6357422 C143.406901,82.5836636 143.628009,83.3072892 144.061768,83.8066406 C144.495526,84.3059921 145.116532,84.5556641 145.924805,84.5556641 C146.318361,84.5556641 146.664305,84.5281578 146.962646,84.4731445 C147.260988,84.4181312 147.63867,84.2996428 148.095703,84.1176758 L148.095703,84.6889648 C147.706378,84.8582365 147.346681,84.9735511 147.016602,85.0349121 C146.686522,85.0962731 146.322593,85.1269531 145.924805,85.1269531 L145.924805,85.1269531 Z M145.740723,78.5253906 C145.076331,78.5253906 144.543134,78.7443826 144.141113,79.182373 C143.739093,79.6203635 143.504232,80.251949 143.436523,81.0771484 L147.702148,81.0771484 C147.702148,80.2773398 147.528648,79.6521019 147.181641,79.201416 C146.834634,78.7507302 146.354332,78.5253906 145.740723,78.5253906 L145.740723,78.5253906 Z M152.494629,78.1000977 L153.14209,78.1000977 L154.602051,81.972168 C155.046389,83.1613015 155.327799,83.9632141 155.446289,84.3779297 L155.484375,84.3779297 C155.66211,83.8320285 155.951984,83.0174208 156.354004,81.934082 L157.813965,78.1000977 L158.461426,78.1000977 L155.370117,86.1171875 C155.120441,86.7688835 154.910971,87.2089832 154.741699,87.4375 C154.572428,87.6660168 154.374594,87.8374018 154.148193,87.9516602 C153.921792,88.0659185 153.647788,88.1230469 153.326172,88.1230469 C153.08496,88.1230469 152.816245,88.0786137 152.52002,87.9897461 L152.52002,87.4438477 C152.765463,87.5115563 153.029946,87.5454102 153.313477,87.5454102 C153.529298,87.5454102 153.719726,87.4946294 153.884766,87.3930664 C154.049806,87.2915034 154.198974,87.1338715 154.332275,86.920166 C154.465577,86.7064605 154.620035,86.3679222 154.795654,85.904541 C154.971274,85.4411598 155.084472,85.1396491 155.135254,85 L152.494629,78.1000977 Z M165.323242,81.5405273 C165.323242,82.666184 165.050296,83.5453256 164.504395,84.1779785 C163.958493,84.8106314 163.205246,85.1269531 162.244629,85.1269531 C161.639483,85.1269531 161.106285,84.9809585 160.64502,84.6889648 C160.183754,84.3969712 159.830405,83.9780301 159.584961,83.4321289 C159.339517,82.8862277 159.216797,82.2557002 159.216797,81.5405273 C159.216797,80.4148707 159.489743,79.5378449 160.035645,78.9094238 C160.581546,78.2810027 161.330562,77.9667969 162.282715,77.9667969 C163.230636,77.9667969 163.974363,78.2852344 164.513916,78.9221191 C165.053469,79.5590038 165.323242,80.4317978 165.323242,81.5405273 L165.323242,81.5405273 Z M159.876953,81.5405273 C159.876953,82.4884488 160.085366,83.2279433 160.502197,83.7590332 C160.919029,84.2901231 161.508297,84.5556641 162.27002,84.5556641 C163.031742,84.5556641 163.62101,84.2901231 164.037842,83.7590332 C164.454673,83.2279433 164.663086,82.4884488 164.663086,81.5405273 C164.663086,80.5883741 164.452557,79.8499375 164.031494,79.3251953 C163.610431,78.8004531 163.019047,78.5380859 162.257324,78.5380859 C161.495602,78.5380859 160.908449,78.7993952 160.49585,79.3220215 C160.08325,79.8446478 159.876953,80.5841424 159.876953,81.5405273 L159.876953,81.5405273 Z M167.779785,78.1000977 L167.779785,82.5688477 C167.779785,83.2628615 167.92578,83.7674952 168.217773,84.0827637 C168.509767,84.3980322 168.962562,84.5556641 169.576172,84.5556641 C170.39714,84.5556641 171.001219,84.3483094 171.388428,83.9335938 C171.775637,83.5188781 171.969238,82.8439174 171.969238,81.9086914 L171.969238,78.1000977 L172.591309,78.1000977 L172.591309,85 L172.058105,85 L171.943848,84.0478516 L171.905762,84.0478516 C171.457192,84.7672562 170.659511,85.1269531 169.512695,85.1269531 C167.9427,85.1269531 167.157715,84.286955 167.157715,82.6069336 L167.157715,78.1000977 L167.779785,78.1000977 Z M177.618652,77.9667969 C177.910646,77.9667969 178.223794,77.996419 178.558105,78.0556641 L178.4375,78.6586914 C178.149738,78.5867509 177.851401,78.5507812 177.54248,78.5507812 C176.954261,78.5507812 176.471844,78.8004532 176.095215,79.2998047 C175.718585,79.7991561 175.530273,80.4296837 175.530273,81.1914062 L175.530273,85 L174.901855,85 L174.901855,78.1000977 L175.435059,78.1000977 L175.498535,79.3442383 L175.542969,79.3442383 C175.826499,78.8364232 176.129067,78.4799001 176.450684,78.2746582 C176.7723,78.0694163 177.161619,77.9667969 177.618652,77.9667969 L177.618652,77.9667969 Z M188.854004,85 L187.343262,80.3852539 C187.245931,80.0721013 187.121095,79.6129588 186.96875,79.0078125 L186.930664,79.0078125 L186.797363,79.4775391 L186.511719,80.3979492 L184.975586,85 L184.353516,85 L182.379395,78.1000977 L183.052246,78.1000977 L184.156738,82.0991211 C184.414878,83.0893604 184.584147,83.8172177 184.664551,84.2827148 L184.702637,84.2827148 C184.952312,83.2924755 185.134277,82.6344417 185.248535,82.3085938 L186.67041,78.1000977 L187.241699,78.1000977 L188.59375,82.2958984 C188.898439,83.2903696 189.084635,83.9484033 189.152344,84.2700195 L189.19043,84.2700195 C189.224284,83.9949531 189.393553,83.2586323 189.698242,82.0610352 L190.751953,78.1000977 L191.386719,78.1000977 L189.51416,85 L188.854004,85 Z M198.445312,81.5405273 C198.445312,82.666184 198.172366,83.5453256 197.626465,84.1779785 C197.080564,84.8106314 196.327316,85.1269531 195.366699,85.1269531 C194.761553,85.1269531 194.228355,84.9809585 193.76709,84.6889648 C193.305825,84.3969712 192.952475,83.9780301 192.707031,83.4321289 C192.461587,82.8862277 192.338867,82.2557002 192.338867,81.5405273 C192.338867,80.4148707 192.611814,79.5378449 193.157715,78.9094238 C193.703616,78.2810027 194.452632,77.9667969 195.404785,77.9667969 C196.352707,77.9667969 197.096433,78.2852344 197.635986,78.9221191 C198.17554,79.5590038 198.445312,80.4317978 198.445312,81.5405273 L198.445312,81.5405273 Z M192.999023,81.5405273 C192.999023,82.4884488 193.207436,83.2279433 193.624268,83.7590332 C194.041099,84.2901231 194.630367,84.5556641 195.39209,84.5556641 C196.153812,84.5556641 196.743081,84.2901231 197.159912,83.7590332 C197.576744,83.2279433 197.785156,82.4884488 197.785156,81.5405273 C197.785156,80.5883741 197.574628,79.8499375 197.153564,79.3251953 C196.732501,78.8004531 196.141117,78.5380859 195.379395,78.5380859 C194.617672,78.5380859 194.03052,78.7993952 193.61792,79.3220215 C193.20532,79.8446478 192.999023,80.5841424 192.999023,81.5405273 L192.999023,81.5405273 Z M203.072754,77.9667969 C203.364748,77.9667969 203.677895,77.996419 204.012207,78.0556641 L203.891602,78.6586914 C203.60384,78.5867509 203.305503,78.5507812 202.996582,78.5507812 C202.408363,78.5507812 201.925946,78.8004532 201.549316,79.2998047 C201.172687,79.7991561 200.984375,80.4296837 200.984375,81.1914062 L200.984375,85 L200.355957,85 L200.355957,78.1000977 L200.88916,78.1000977 L200.952637,79.3442383 L200.99707,79.3442383 C201.2806,78.8364232 201.583169,78.4799001 201.904785,78.2746582 C202.226401,78.0694163 202.61572,77.9667969 203.072754,77.9667969 L203.072754,77.9667969 Z M206.030762,81.972168 L209.553711,78.1000977 L210.31543,78.1000977 L207.598633,81.0454102 L210.550293,85 L209.794922,85 L207.17334,81.5151367 L206.043457,82.543457 L206.043457,85 L205.415039,85 L205.415039,75.1230469 L206.043457,75.1230469 L206.043457,80.0742188 L205.999023,81.972168 L206.030762,81.972168 Z M212.410156,82.6069336 L212.410156,82.3720703 C212.410156,81.8515599 212.489501,81.4262712 212.648193,81.0961914 C212.806886,80.7661116 213.099933,80.4127623 213.527344,80.0361328 L214.10498,79.534668 C214.409669,79.2765287 214.627604,79.0205091 214.758789,78.7666016 C214.889975,78.512694 214.955566,78.2207048 214.955566,77.890625 C214.955566,77.3531874 214.778892,76.9257828 214.425537,76.6083984 C214.072182,76.291014 213.60775,76.1323242 213.032227,76.1323242 C212.697915,76.1323242 212.384767,76.1693518 212.092773,76.2434082 C211.80078,76.3174646 211.485516,76.4370109 211.146973,76.6020508 L210.912109,76.0942383 C211.377606,75.8911123 211.767983,75.755697 212.083252,75.6879883 C212.39852,75.6202796 212.723306,75.5864258 213.057617,75.5864258 C213.832035,75.5864258 214.441404,75.7948384 214.885742,76.2116699 C215.33008,76.6285014 215.552246,77.2008427 215.552246,77.9287109 C215.552246,78.2164728 215.514161,78.4682606 215.437988,78.684082 C215.361816,78.8999034 215.254965,79.0998526 215.117432,79.2839355 C214.979898,79.4680185 214.813803,79.6457511 214.619141,79.8171387 C214.424478,79.9885262 214.20866,80.1736644 213.97168,80.3725586 C213.700845,80.6010754 213.492432,80.809488 213.346436,80.9978027 C213.200439,81.1861175 213.094646,81.3839508 213.029053,81.5913086 C212.96346,81.7986664 212.930664,82.1075826 212.930664,82.5180664 L212.930664,82.6069336 L212.410156,82.6069336 Z M212.200684,84.5048828 C212.200684,84.0901672 212.369953,83.8828125 212.708496,83.8828125 C213.055503,83.8828125 213.229004,84.0901672 213.229004,84.5048828 C213.229004,84.9195984 213.055503,85.1269531 212.708496,85.1269531 C212.369953,85.1269531 212.200684,84.9195984 212.200684,84.5048828 L212.200684,84.5048828 Z" id="Would-you-like-to-sa" fill="#4A4A4A"></path>
                <use id="Rectangle-2" stroke="#024059" mask="url(#mask-5)" stroke-width="2" fill="#025B80" xlink:href="#path-4"></use>
                <path d="M274.011719,142.720703 C274.011719,143.474613 273.738284,144.062498 273.191406,144.484375 C272.644529,144.906252 271.902348,145.117188 270.964844,145.117188 C269.949214,145.117188 269.167971,144.986329 268.621094,144.724609 L268.621094,143.763672 C268.972658,143.91211 269.355467,144.029296 269.769531,144.115234 C270.183596,144.201172 270.593748,144.244141 271,144.244141 C271.664066,144.244141 272.164061,144.118165 272.5,143.866211 C272.835939,143.614257 273.003906,143.263674 273.003906,142.814453 C273.003906,142.517577 272.944337,142.274415 272.825195,142.084961 C272.706054,141.895507 272.506837,141.720704 272.227539,141.560547 C271.948241,141.40039 271.52344,141.218751 270.953125,141.015625 C270.156246,140.730467 269.586916,140.39258 269.245117,140.001953 C268.903319,139.611326 268.732422,139.101566 268.732422,138.472656 C268.732422,137.812497 268.980466,137.287111 269.476562,136.896484 C269.972659,136.505857 270.628902,136.310547 271.445312,136.310547 C272.296879,136.310547 273.080075,136.466795 273.794922,136.779297 L273.484375,137.646484 C272.77734,137.349608 272.089847,137.201172 271.421875,137.201172 C270.894529,137.201172 270.482423,137.314452 270.185547,137.541016 C269.88867,137.767579 269.740234,138.082029 269.740234,138.484375 C269.740234,138.781251 269.794921,139.024413 269.904297,139.213867 C270.013672,139.403321 270.198241,139.577148 270.458008,139.735352 C270.717775,139.893555 271.115232,140.068358 271.650391,140.259766 C272.548833,140.58008 273.16699,140.923826 273.504883,141.291016 C273.842775,141.658205 274.011719,142.134763 274.011719,142.720703 L274.011719,142.720703 Z M279.566406,145 L279.373047,144.085938 L279.326172,144.085938 C279.005858,144.488283 278.686525,144.760741 278.368164,144.90332 C278.049803,145.045899 277.652346,145.117188 277.175781,145.117188 C276.539059,145.117188 276.040041,144.953127 275.678711,144.625 C275.317381,144.296873 275.136719,143.830081 275.136719,143.224609 C275.136719,141.927728 276.173818,141.248047 278.248047,141.185547 L279.337891,141.150391 L279.337891,140.751953 C279.337891,140.248044 279.229493,139.875978 279.012695,139.635742 C278.795897,139.395507 278.449221,139.275391 277.972656,139.275391 C277.437497,139.275391 276.832035,139.439451 276.15625,139.767578 L275.857422,139.023438 C276.17383,138.851562 276.520506,138.716797 276.897461,138.619141 C277.274416,138.521484 277.652342,138.472656 278.03125,138.472656 C278.796879,138.472656 279.364256,138.642576 279.733398,138.982422 C280.102541,139.322267 280.287109,139.867184 280.287109,140.617188 L280.287109,145 L279.566406,145 Z M277.369141,144.314453 C277.974612,144.314453 278.450194,144.148439 278.795898,143.816406 C279.141603,143.484373 279.314453,143.019534 279.314453,142.421875 L279.314453,141.841797 L278.341797,141.882812 C277.568356,141.910156 277.010744,142.030272 276.668945,142.243164 C276.327147,142.456056 276.15625,142.787107 276.15625,143.236328 C276.15625,143.587892 276.262694,143.855468 276.475586,144.039062 C276.688478,144.222657 276.986326,144.314453 277.369141,144.314453 L277.369141,144.314453 Z M283.697266,145 L281.259766,138.578125 L282.302734,138.578125 L283.685547,142.386719 C283.998048,143.277348 284.18164,143.855467 284.236328,144.121094 L284.283203,144.121094 C284.326172,143.914061 284.461913,143.485355 284.69043,142.834961 C284.918946,142.184567 285.431637,140.765636 286.228516,138.578125 L287.271484,138.578125 L284.833984,145 L283.697266,145 Z M291.015625,145.117188 C290.066402,145.117188 289.317386,144.828128 288.768555,144.25 C288.219724,143.671872 287.945312,142.869146 287.945312,141.841797 C287.945312,140.806635 288.200193,139.984378 288.709961,139.375 C289.219729,138.765622 289.904293,138.460938 290.763672,138.460938 C291.568363,138.460938 292.205076,138.725583 292.673828,139.254883 C293.14258,139.784182 293.376953,140.482418 293.376953,141.349609 L293.376953,141.964844 L288.953125,141.964844 C288.972656,142.718754 289.163084,143.291014 289.524414,143.681641 C289.885744,144.072268 290.394528,144.267578 291.050781,144.267578 C291.742191,144.267578 292.425778,144.123048 293.101562,143.833984 L293.101562,144.701172 C292.757811,144.84961 292.432619,144.956054 292.125977,145.020508 C291.819334,145.084961 291.449221,145.117188 291.015625,145.117188 L291.015625,145.117188 Z M290.751953,139.275391 C290.236326,139.275391 289.825197,139.443358 289.518555,139.779297 C289.211913,140.115236 289.03125,140.580075 288.976562,141.173828 L292.333984,141.173828 C292.333984,140.560544 292.197267,140.090822 291.923828,139.764648 C291.650389,139.438475 291.259768,139.275391 290.751953,139.275391 L290.751953,139.275391 Z" id="Save" fill="#FFFFFF"></path>
                <use id="Rectangle-2" stroke="#BCBCBC" mask="url(#mask-7)" stroke-width="2" fill="#F5F5F5" xlink:href="#path-6"></use>
                <path d="M200.845703,137.201172 C199.904292,137.201172 199.161136,137.514645 198.616211,138.141602 C198.071286,138.768558 197.798828,139.626948 197.798828,140.716797 C197.798828,141.837896 198.061521,142.704099 198.586914,143.31543 C199.112307,143.926761 199.861323,144.232422 200.833984,144.232422 C201.431644,144.232422 202.113277,144.125001 202.878906,143.910156 L202.878906,144.783203 C202.285153,145.00586 201.552739,145.117188 200.681641,145.117188 C199.419916,145.117188 198.446292,144.734379 197.760742,143.96875 C197.075192,143.203121 196.732422,142.115241 196.732422,140.705078 C196.732422,139.822261 196.897459,139.048831 197.227539,138.384766 C197.557619,137.7207 198.034177,137.208986 198.657227,136.849609 C199.280277,136.490233 200.013668,136.310547 200.857422,136.310547 C201.755864,136.310547 202.541012,136.474608 203.212891,136.802734 L202.791016,137.658203 C202.142575,137.353514 201.494144,137.201172 200.845703,137.201172 L200.845703,137.201172 Z M208.550781,145 L208.357422,144.085938 L208.310547,144.085938 C207.990233,144.488283 207.6709,144.760741 207.352539,144.90332 C207.034178,145.045899 206.636721,145.117188 206.160156,145.117188 C205.523434,145.117188 205.024416,144.953127 204.663086,144.625 C204.301756,144.296873 204.121094,143.830081 204.121094,143.224609 C204.121094,141.927728 205.158193,141.248047 207.232422,141.185547 L208.322266,141.150391 L208.322266,140.751953 C208.322266,140.248044 208.213868,139.875978 207.99707,139.635742 C207.780272,139.395507 207.433596,139.275391 206.957031,139.275391 C206.421872,139.275391 205.81641,139.439451 205.140625,139.767578 L204.841797,139.023438 C205.158205,138.851562 205.504881,138.716797 205.881836,138.619141 C206.258791,138.521484 206.636717,138.472656 207.015625,138.472656 C207.781254,138.472656 208.348631,138.642576 208.717773,138.982422 C209.086916,139.322267 209.271484,139.867184 209.271484,140.617188 L209.271484,145 L208.550781,145 Z M206.353516,144.314453 C206.958987,144.314453 207.434569,144.148439 207.780273,143.816406 C208.125978,143.484373 208.298828,143.019534 208.298828,142.421875 L208.298828,141.841797 L207.326172,141.882812 C206.552731,141.910156 205.995119,142.030272 205.65332,142.243164 C205.311522,142.456056 205.140625,142.787107 205.140625,143.236328 C205.140625,143.587892 205.247069,143.855468 205.459961,144.039062 C205.672853,144.222657 205.970701,144.314453 206.353516,144.314453 L206.353516,144.314453 Z M215.669922,145 L215.669922,140.845703 C215.669922,140.322263 215.550782,139.931642 215.3125,139.673828 C215.074218,139.416014 214.701174,139.287109 214.193359,139.287109 C213.521481,139.287109 213.029298,139.468748 212.716797,139.832031 C212.404295,140.195314 212.248047,140.794918 212.248047,141.630859 L212.248047,145 L211.275391,145 L211.275391,138.578125 L212.066406,138.578125 L212.224609,139.457031 L212.271484,139.457031 C212.470704,139.140623 212.749998,138.895509 213.109375,138.72168 C213.468752,138.547851 213.869138,138.460938 214.310547,138.460938 C215.083988,138.460938 215.666014,138.647459 216.056641,139.020508 C216.447268,139.393557 216.642578,139.99023 216.642578,140.810547 L216.642578,145 L215.669922,145 Z M221.207031,145.117188 C220.277339,145.117188 219.55762,144.831058 219.047852,144.258789 C218.538083,143.686521 218.283203,142.876958 218.283203,141.830078 C218.283203,140.755854 218.54199,139.925784 219.05957,139.339844 C219.577151,138.753903 220.314448,138.460938 221.271484,138.460938 C221.58008,138.460938 221.88867,138.49414 222.197266,138.560547 C222.505861,138.626953 222.748046,138.705078 222.923828,138.794922 L222.625,139.621094 C222.410155,139.535156 222.175783,139.463867 221.921875,139.407227 C221.667967,139.350586 221.44336,139.322266 221.248047,139.322266 C219.943353,139.322266 219.291016,140.154289 219.291016,141.818359 C219.291016,142.607426 219.450194,143.212889 219.768555,143.634766 C220.086916,144.056643 220.558591,144.267578 221.183594,144.267578 C221.718753,144.267578 222.267575,144.152345 222.830078,143.921875 L222.830078,144.783203 C222.400388,145.00586 221.859378,145.117188 221.207031,145.117188 L221.207031,145.117188 Z M227.066406,145.117188 C226.117183,145.117188 225.368167,144.828128 224.819336,144.25 C224.270505,143.671872 223.996094,142.869146 223.996094,141.841797 C223.996094,140.806635 224.250974,139.984378 224.760742,139.375 C225.27051,138.765622 225.955074,138.460938 226.814453,138.460938 C227.619145,138.460938 228.255857,138.725583 228.724609,139.254883 C229.193362,139.784182 229.427734,140.482418 229.427734,141.349609 L229.427734,141.964844 L225.003906,141.964844 C225.023438,142.718754 225.213865,143.291014 225.575195,143.681641 C225.936525,144.072268 226.445309,144.267578 227.101562,144.267578 C227.792972,144.267578 228.476559,144.123048 229.152344,143.833984 L229.152344,144.701172 C228.808592,144.84961 228.4834,144.956054 228.176758,145.020508 C227.870116,145.084961 227.500002,145.117188 227.066406,145.117188 L227.066406,145.117188 Z M226.802734,139.275391 C226.287107,139.275391 225.875978,139.443358 225.569336,139.779297 C225.262694,140.115236 225.082032,140.580075 225.027344,141.173828 L228.384766,141.173828 C228.384766,140.560544 228.248048,140.090822 227.974609,139.764648 C227.701171,139.438475 227.310549,139.275391 226.802734,139.275391 L226.802734,139.275391 Z M232.058594,145 L231.085938,145 L231.085938,135.882812 L232.058594,135.882812 L232.058594,145 Z" id="Cancel" fill="#4A4A4A"></path>
            </g>
        </g>
    </g>
</svg>