<?xml version="1.0" encoding="UTF-8" standalone="no"?>
<svg width="354px" height="67px" viewBox="0 0 354 67" version="1.1" xmlns="http://www.w3.org/2000/svg" xmlns:xlink="http://www.w3.org/1999/xlink">
    <!-- Generator: Sketch 40.2 (33826) - http://www.bohemiancoding.com/sketch -->
    <title>dark-tabs</title>
    <desc>Created with Sketch.</desc>
    <defs></defs>
    <g id="Components" stroke="none" stroke-width="1" fill="none" fill-rule="evenodd">
        <g id="Tabs" transform="translate(-325.000000, -968.000000)">
            <g id="dark-tabs" transform="translate(325.000000, 968.000000)">
                <rect id="Rectangle-28-Copy-3" fill="#025B80" transform="translate(177.000000, 45.000000) scale(1, -1) translate(-177.000000, -45.000000) " x="0" y="23" width="354" height="44"></rect>
                <rect id="Rectangle-6-Copy-6" fill="#014D6C" x="167" y="35" width="69" height="32" rx="2"></rect>
                <rect id="Rectangle-6-Copy-7" fill="#FFFFFF" x="26" y="35" width="69" height="32" rx="2"></rect>
                <path d="M48.8144531,57.5180723 L47.8183594,57.5180723 L47.8183594,49.8364317 L45.1054688,49.8364317 L45.1054688,48.951666 L51.5273438,48.951666 L51.5273438,49.8364317 L48.8144531,49.8364317 L48.8144531,57.5180723 Z M55.6582031,57.5180723 L55.4648438,56.6040098 L55.4179688,56.6040098 C55.0976546,57.0063556 54.7783219,57.2788138 54.4599609,57.4213926 C54.1416,57.5639714 53.744143,57.6352598 53.2675781,57.6352598 C52.6308562,57.6352598 52.1318377,57.4711989 51.7705078,57.1430723 C51.4091779,56.8149456 51.2285156,56.3481534 51.2285156,55.7426817 C51.2285156,54.4458002 52.2656146,53.7661195 54.3398438,53.7036192 L55.4296875,53.6684629 L55.4296875,53.2700254 C55.4296875,52.7661166 55.3212901,52.3940501 55.1044922,52.1538145 C54.8876942,51.9135789 54.541018,51.7934629 54.0644531,51.7934629 C53.5292942,51.7934629 52.9238315,51.9575238 52.2480469,52.2856504 L51.9492188,51.5415098 C52.2656266,51.3696339 52.6123028,51.2348697 52.9892578,51.1372129 C53.3662128,51.0395562 53.7441387,50.9907285 54.1230469,50.9907285 C54.8886757,50.9907285 55.4560528,51.1606487 55.8251953,51.5004942 C56.1943378,51.8403396 56.3789062,52.385256 56.3789062,53.1352598 L56.3789062,57.5180723 L55.6582031,57.5180723 Z M53.4609375,56.8325254 C54.0664093,56.8325254 54.5419905,56.6665114 54.8876953,56.3344785 C55.2334002,56.0024456 55.40625,55.5376065 55.40625,54.9399473 L55.40625,54.3598692 L54.4335938,54.4008848 C53.6601524,54.4282287 53.1025408,54.5483447 52.7607422,54.7612364 C52.4189436,54.974128 52.2480469,55.3051794 52.2480469,55.7544004 C52.2480469,56.1059647 52.3544911,56.3735401 52.5673828,56.5571348 C52.7802745,56.7407295 53.0781231,56.8325254 53.4609375,56.8325254 L53.4609375,56.8325254 Z M61.3710938,50.9907285 C62.214848,50.9907285 62.8701149,51.2788116 63.3369141,51.8549864 C63.8037133,52.4311611 64.0371094,53.2465826 64.0371094,54.3012754 C64.0371094,55.3559682 63.8017602,56.1752959 63.3310547,56.7592832 C62.8603492,57.3432705 62.2070354,57.6352598 61.3710938,57.6352598 C60.9531229,57.6352598 60.5712908,57.5581121 60.2255859,57.4038145 C59.8798811,57.2495168 59.5898449,57.0122145 59.3554688,56.6919004 L59.2851562,56.6919004 L59.0800781,57.5180723 L58.3828125,57.5180723 L58.3828125,48.4008848 L59.3554688,48.4008848 L59.3554688,50.6157285 C59.3554688,51.1118248 59.3398439,51.5571328 59.3085938,51.951666 L59.3554688,51.951666 C59.808596,51.3110378 60.4804643,50.9907285 61.3710938,50.9907285 L61.3710938,50.9907285 Z M61.2304688,51.8051817 C60.5664029,51.8051817 60.0878921,51.9956094 59.7949219,52.3764707 C59.5019517,52.757332 59.3554688,53.3989272 59.3554688,54.3012754 C59.3554688,55.2036237 59.5058579,55.849125 59.8066406,56.2377989 C60.1074234,56.6264727 60.5898404,56.8208067 61.2539062,56.8208067 C61.8515655,56.8208067 62.2968735,56.6030354 62.5898438,56.1674864 C62.882814,55.7319373 63.0292969,55.105967 63.0292969,54.2895567 C63.0292969,53.453615 62.882814,52.8305743 62.5898438,52.420416 C62.2968735,52.0102577 61.8437531,51.8051817 61.2304688,51.8051817 L61.2304688,51.8051817 Z M72.0117188,57.5180723 L71.0625,57.5180723 L71.0625,51.4126035 C71.0625,50.9047885 71.0781248,50.4243246 71.109375,49.9711973 C71.0273433,50.0532289 70.9355474,50.1391656 70.8339844,50.2290098 C70.7324214,50.318854 70.2675823,50.6997096 69.4394531,51.3715879 L68.9238281,50.7036192 L71.1914062,48.951666 L72.0117188,48.951666 L72.0117188,57.5180723 Z" id="Tab-1" fill="#4A4A4A"></path>
                <path d="M118.814453,55.5180723 L117.818359,55.5180723 L117.818359,47.8364317 L115.105469,47.8364317 L115.105469,46.951666 L121.527344,46.951666 L121.527344,47.8364317 L118.814453,47.8364317 L118.814453,55.5180723 Z M125.658203,55.5180723 L125.464844,54.6040098 L125.417969,54.6040098 C125.097655,55.0063556 124.778322,55.2788138 124.459961,55.4213926 C124.1416,55.5639714 123.744143,55.6352598 123.267578,55.6352598 C122.630856,55.6352598 122.131838,55.4711989 121.770508,55.1430723 C121.409178,54.8149456 121.228516,54.3481534 121.228516,53.7426817 C121.228516,52.4458002 122.265615,51.7661195 124.339844,51.7036192 L125.429688,51.6684629 L125.429688,51.2700254 C125.429688,50.7661166 125.32129,50.3940501 125.104492,50.1538145 C124.887694,49.9135789 124.541018,49.7934629 124.064453,49.7934629 C123.529294,49.7934629 122.923832,49.9575238 122.248047,50.2856504 L121.949219,49.5415098 C122.265627,49.3696339 122.612303,49.2348697 122.989258,49.1372129 C123.366213,49.0395562 123.744139,48.9907285 124.123047,48.9907285 C124.888676,48.9907285 125.456053,49.1606487 125.825195,49.5004942 C126.194338,49.8403396 126.378906,50.385256 126.378906,51.1352598 L126.378906,55.5180723 L125.658203,55.5180723 Z M123.460938,54.8325254 C124.066409,54.8325254 124.54199,54.6665114 124.887695,54.3344785 C125.2334,54.0024456 125.40625,53.5376065 125.40625,52.9399473 L125.40625,52.3598692 L124.433594,52.4008848 C123.660152,52.4282287 123.102541,52.5483447 122.760742,52.7612364 C122.418944,52.974128 122.248047,53.3051794 122.248047,53.7544004 C122.248047,54.1059647 122.354491,54.3735401 122.567383,54.5571348 C122.780275,54.7407295 123.078123,54.8325254 123.460938,54.8325254 L123.460938,54.8325254 Z M131.371094,48.9907285 C132.214848,48.9907285 132.870115,49.2788116 133.336914,49.8549864 C133.803713,50.4311611 134.037109,51.2465826 134.037109,52.3012754 C134.037109,53.3559682 133.80176,54.1752959 133.331055,54.7592832 C132.860349,55.3432705 132.207035,55.6352598 131.371094,55.6352598 C130.953123,55.6352598 130.571291,55.5581121 130.225586,55.4038145 C129.879881,55.2495168 129.589845,55.0122145 129.355469,54.6919004 L129.285156,54.6919004 L129.080078,55.5180723 L128.382812,55.5180723 L128.382812,46.4008848 L129.355469,46.4008848 L129.355469,48.6157285 C129.355469,49.1118248 129.339844,49.5571328 129.308594,49.951666 L129.355469,49.951666 C129.808596,49.3110378 130.480464,48.9907285 131.371094,48.9907285 L131.371094,48.9907285 Z M131.230469,49.8051817 C130.566403,49.8051817 130.087892,49.9956094 129.794922,50.3764707 C129.501952,50.757332 129.355469,51.3989272 129.355469,52.3012754 C129.355469,53.2036237 129.505858,53.849125 129.806641,54.2377989 C130.107423,54.6264727 130.58984,54.8208067 131.253906,54.8208067 C131.851565,54.8208067 132.296874,54.6030354 132.589844,54.1674864 C132.882814,53.7319373 133.029297,53.105967 133.029297,52.2895567 C133.029297,51.453615 132.882814,50.8305743 132.589844,50.420416 C132.296874,50.0102577 131.843753,49.8051817 131.230469,49.8051817 L131.230469,49.8051817 Z M144.039062,55.5180723 L138.408203,55.5180723 L138.408203,54.6801817 L140.664062,52.4126035 C141.351566,51.7172876 141.804686,51.2211988 142.023438,50.9243223 C142.242189,50.6274458 142.406249,50.3383862 142.515625,50.0571348 C142.625001,49.7758834 142.679688,49.473152 142.679688,49.1489317 C142.679688,48.6918981 142.541017,48.3295971 142.263672,48.0620176 C141.986327,47.7944381 141.601565,47.6606504 141.109375,47.6606504 C140.753904,47.6606504 140.416994,47.7192436 140.098633,47.8364317 C139.780272,47.9536198 139.425783,48.1665082 139.035156,48.4751035 L138.519531,47.8129942 C139.308598,47.1567409 140.167964,46.8286192 141.097656,46.8286192 C141.902348,46.8286192 142.533201,47.0346718 142.990234,47.4467832 C143.447268,47.8588947 143.675781,48.4126001 143.675781,49.107916 C143.675781,49.6508875 143.523439,50.1879915 143.21875,50.7192442 C142.914061,51.2504968 142.343754,51.9223651 141.507812,52.7348692 L139.632812,54.5688535 L139.632812,54.6157285 L144.039062,54.6157285 L144.039062,55.5180723 Z" id="Tab-2" fill="#FFFFFF"></path>
                <path d="M190.814453,55.5180723 L189.818359,55.5180723 L189.818359,47.8364317 L187.105469,47.8364317 L187.105469,46.951666 L193.527344,46.951666 L193.527344,47.8364317 L190.814453,47.8364317 L190.814453,55.5180723 Z M197.658203,55.5180723 L197.464844,54.6040098 L197.417969,54.6040098 C197.097655,55.0063556 196.778322,55.2788138 196.459961,55.4213926 C196.1416,55.5639714 195.744143,55.6352598 195.267578,55.6352598 C194.630856,55.6352598 194.131838,55.4711989 193.770508,55.1430723 C193.409178,54.8149456 193.228516,54.3481534 193.228516,53.7426817 C193.228516,52.4458002 194.265615,51.7661195 196.339844,51.7036192 L197.429688,51.6684629 L197.429688,51.2700254 C197.429688,50.7661166 197.32129,50.3940501 197.104492,50.1538145 C196.887694,49.9135789 196.541018,49.7934629 196.064453,49.7934629 C195.529294,49.7934629 194.923832,49.9575238 194.248047,50.2856504 L193.949219,49.5415098 C194.265627,49.3696339 194.612303,49.2348697 194.989258,49.1372129 C195.366213,49.0395562 195.744139,48.9907285 196.123047,48.9907285 C196.888676,48.9907285 197.456053,49.1606487 197.825195,49.5004942 C198.194338,49.8403396 198.378906,50.385256 198.378906,51.1352598 L198.378906,55.5180723 L197.658203,55.5180723 Z M195.460938,54.8325254 C196.066409,54.8325254 196.54199,54.6665114 196.887695,54.3344785 C197.2334,54.0024456 197.40625,53.5376065 197.40625,52.9399473 L197.40625,52.3598692 L196.433594,52.4008848 C195.660152,52.4282287 195.102541,52.5483447 194.760742,52.7612364 C194.418944,52.974128 194.248047,53.3051794 194.248047,53.7544004 C194.248047,54.1059647 194.354491,54.3735401 194.567383,54.5571348 C194.780275,54.7407295 195.078123,54.8325254 195.460938,54.8325254 L195.460938,54.8325254 Z M203.371094,48.9907285 C204.214848,48.9907285 204.870115,49.2788116 205.336914,49.8549864 C205.803713,50.4311611 206.037109,51.2465826 206.037109,52.3012754 C206.037109,53.3559682 205.80176,54.1752959 205.331055,54.7592832 C204.860349,55.3432705 204.207035,55.6352598 203.371094,55.6352598 C202.953123,55.6352598 202.571291,55.5581121 202.225586,55.4038145 C201.879881,55.2495168 201.589845,55.0122145 201.355469,54.6919004 L201.285156,54.6919004 L201.080078,55.5180723 L200.382812,55.5180723 L200.382812,46.4008848 L201.355469,46.4008848 L201.355469,48.6157285 C201.355469,49.1118248 201.339844,49.5571328 201.308594,49.951666 L201.355469,49.951666 C201.808596,49.3110378 202.480464,48.9907285 203.371094,48.9907285 L203.371094,48.9907285 Z M203.230469,49.8051817 C202.566403,49.8051817 202.087892,49.9956094 201.794922,50.3764707 C201.501952,50.757332 201.355469,51.3989272 201.355469,52.3012754 C201.355469,53.2036237 201.505858,53.849125 201.806641,54.2377989 C202.107423,54.6264727 202.58984,54.8208067 203.253906,54.8208067 C203.851565,54.8208067 204.296874,54.6030354 204.589844,54.1674864 C204.882814,53.7319373 205.029297,53.105967 205.029297,52.2895567 C205.029297,51.453615 204.882814,50.8305743 204.589844,50.420416 C204.296874,50.0102577 203.843753,49.8051817 203.230469,49.8051817 L203.230469,49.8051817 Z M215.716797,48.967291 C215.716797,49.5141688 215.563478,49.9614299 215.256836,50.3090879 C214.950194,50.6567459 214.515628,50.8891655 213.953125,51.0063535 L213.953125,51.0532285 C214.640628,51.1391665 215.150389,51.3579143 215.482422,51.7094785 C215.814455,52.0610428 215.980469,52.5219757 215.980469,53.092291 C215.980469,53.9087014 215.697268,54.5366248 215.130859,54.9760801 C214.56445,55.4155354 213.759771,55.6352598 212.716797,55.6352598 C212.26367,55.6352598 211.848635,55.6010804 211.47168,55.5327207 C211.094725,55.464361 210.728517,55.344245 210.373047,55.1723692 L210.373047,54.2465879 C210.744142,54.4301826 211.139646,54.5698296 211.55957,54.6655332 C211.979494,54.7612368 212.376951,54.8090879 212.751953,54.8090879 C214.232429,54.8090879 214.972656,54.2290156 214.972656,53.0688535 C214.972656,52.0297858 214.156258,51.5102598 212.523438,51.5102598 L211.679688,51.5102598 L211.679688,50.6723692 L212.535156,50.6723692 C213.203128,50.6723692 213.73242,50.5249097 214.123047,50.2299864 C214.513674,49.935063 214.708984,49.5258874 214.708984,49.0024473 C214.708984,48.5844764 214.565431,48.2563547 214.27832,48.0180723 C213.99121,47.7797898 213.601565,47.6606504 213.109375,47.6606504 C212.734373,47.6606504 212.380861,47.7114312 212.048828,47.8129942 C211.716795,47.9145572 211.337893,48.1020553 210.912109,48.3754942 L210.419922,47.7192442 C210.771486,47.441899 211.176756,47.2241278 211.635742,47.0659239 C212.094729,46.9077199 212.578122,46.8286192 213.085938,46.8286192 C213.917973,46.8286192 214.564451,47.0190469 215.025391,47.3999082 C215.48633,47.7807695 215.716797,48.3032252 215.716797,48.967291 L215.716797,48.967291 Z" id="Tab-3" fill="#FFFFFF"></path>
                <path d="M44.794,0.662 L46.166,0.662 L49.82,10 L48.322,10 L47.356,7.396 L43.52,7.396 L42.554,10 L41.14,10 L44.794,0.662 Z M46.95,6.262 L45.438,2.16 L43.912,6.262 L46.95,6.262 Z M56.498,9.104 C56.2086652,9.4306683 55.8516688,9.69433233 55.427,9.895 C55.0023312,10.0956677 54.5100028,10.196 53.95,10.196 C53.4273307,10.196 52.9536688,10.1096675 52.529,9.937 C52.1043312,9.76433247 51.7450015,9.52633485 51.451,9.223 C51.1569985,8.91966515 50.9306675,8.55566879 50.772,8.131 C50.6133325,7.70633121 50.534,7.24200252 50.534,6.738 C50.534,6.26199762 50.6179992,5.8140021 50.786,5.394 C50.9540008,4.9739979 51.1896651,4.60766823 51.493,4.295 C51.7963348,3.98233177 52.1556646,3.73500091 52.571,3.553 C52.9863354,3.37099909 53.4459975,3.28 53.95,3.28 C54.5006694,3.28 54.9859979,3.37799902 55.406,3.574 C55.8260021,3.77000098 56.1853318,4.03599832 56.484,4.372 L55.658,5.17 C55.461999,4.92733212 55.2240014,4.7360007 54.944,4.596 C54.6639986,4.4559993 54.3326686,4.386 53.95,4.386 C53.6139983,4.386 53.3130013,4.44899937 53.047,4.575 C52.7809987,4.70100063 52.5570009,4.87366557 52.375,5.093 C52.1929991,5.31233443 52.0530005,5.56433191 51.955,5.849 C51.8569995,6.13366809 51.808,6.42999846 51.808,6.738 C51.808,7.03666816 51.8569995,7.32833191 51.955,7.613 C52.0530005,7.89766809 52.1929991,8.14966557 52.375,8.369 C52.5570009,8.58833443 52.7809987,8.76333268 53.047,8.894 C53.3130013,9.02466732 53.6139983,9.09 53.95,9.09 C54.3326686,9.09 54.6756651,9.01766739 54.979,8.873 C55.2823348,8.72833261 55.531999,8.53466788 55.728,8.292 L56.498,9.104 Z M58.304,4.54 L57.128,4.54 L57.128,3.49 L58.304,3.49 L58.304,1.362 L59.564,1.362 L59.564,3.49 L61.468,3.49 L61.468,4.54 L59.564,4.54 L59.564,7.746 C59.564,8.26866928 59.6456658,8.62799902 59.809,8.824 C59.9723341,9.02000098 60.2033318,9.118 60.502,9.118 C60.7446679,9.118 60.9453325,9.08066704 61.104,9.006 C61.2626675,8.93133296 61.4213325,8.81933408 61.58,8.67 L62.154,9.44 C61.883332,9.70133464 61.6056681,9.89033275 61.321,10.007 C61.0363319,10.1236673 60.698002,10.182 60.306,10.182 C59.6153299,10.182 59.1090016,9.9953352 58.787,9.622 C58.4649984,9.2486648 58.304,8.6653373 58.304,7.872 L58.304,4.54 Z M63.092,0.914 L64.506,0.914 L64.506,2.328 L63.092,2.328 L63.092,0.914 Z M63.176,3.49 L64.436,3.49 L64.436,10 L63.176,10 L63.176,3.49 Z M65.164,3.49 L66.606,3.49 L68.636,8.572 L70.652,3.49 L72.01,3.49 L69.224,10 L67.964,10 L65.164,3.49 Z M78.632,9.048 C78.557333,9.13200042 78.4453341,9.23933268 78.296,9.37 C78.1466659,9.50066732 77.9530012,9.62666606 77.715,9.748 C77.4769988,9.86933394 77.1970016,9.97433289 76.875,10.063 C76.5529984,10.1516671 76.1866687,10.196 75.776,10.196 C75.2719975,10.196 74.8100021,10.1120008 74.39,9.944 C73.9699979,9.77599916 73.6106682,9.53800154 73.312,9.23 C73.0133318,8.92199846 72.7823341,8.55333548 72.619,8.124 C72.4556658,7.69466452 72.374,7.21866928 72.374,6.696 C72.374,6.21999762 72.4533325,5.77433541 72.612,5.359 C72.7706675,4.94366459 72.9946652,4.58433485 73.284,4.281 C73.5733348,3.97766515 73.9163313,3.73733422 74.313,3.56 C74.7096686,3.38266578 75.1459976,3.294 75.622,3.294 C76.1820028,3.294 76.6626647,3.40133226 77.064,3.616 C77.4653353,3.83066774 77.794332,4.11533156 78.051,4.47 C78.3076679,4.82466844 78.4966661,5.23066438 78.618,5.688 C78.7393339,6.14533562 78.8,6.62133086 78.8,7.116 L73.662,7.116 C73.6713334,7.40533478 73.7343327,7.67133212 73.851,7.914 C73.9676672,8.15666788 74.123999,8.36666578 74.32,8.544 C74.516001,8.72133422 74.7399987,8.86133282 74.992,8.964 C75.2440013,9.06666718 75.5099986,9.118 75.79,9.118 C76.3406694,9.118 76.7933316,9.0246676 77.148,8.838 C77.5026684,8.6513324 77.7593325,8.46933422 77.918,8.292 L78.632,9.048 Z M77.498,6.178 C77.4606665,5.67399748 77.2833349,5.24466844 76.966,4.89 C76.6486651,4.53533156 76.2006696,4.358 75.622,4.358 C75.3233318,4.358 75.0550012,4.40933282 74.817,4.512 C74.5789988,4.61466718 74.3760008,4.74999916 74.208,4.918 C74.0399992,5.08600084 73.9093338,5.27966557 73.816,5.499 C73.7226662,5.71833443 73.6713334,5.9446655 73.662,6.178 L77.498,6.178 Z" id="Active" fill="#9B9B9B"></path>
                <path d="M110.064,0.662 L111.408,0.662 L111.408,10 L110.064,10 L110.064,0.662 Z M113.34,10 L113.34,4.162 C113.34,3.94733226 113.335333,3.7233345 113.326,3.49 L114.53,3.49 L114.572,4.47 C114.656,4.35799944 114.758666,4.23433401 114.88,4.099 C115.001334,3.96366599 115.150666,3.84000056 115.328,3.728 C115.505334,3.61599944 115.712999,3.52266704 115.951,3.448 C116.189001,3.37333296 116.457332,3.336 116.756,3.336 C117.605338,3.336 118.235331,3.58333086 118.646,4.078 C119.056669,4.57266914 119.262,5.24466242 119.262,6.094 L119.262,10 L118.002,10 L118.002,6.192 C118.002,5.5853303 117.871335,5.13966809 117.61,4.855 C117.348665,4.57033191 116.980002,4.428 116.504,4.428 C116.139998,4.428 115.836668,4.50266592 115.594,4.652 C115.351332,4.80133408 115.157667,4.99499881 115.013,5.233 C114.868333,5.47100119 114.763334,5.74166515 114.698,6.045 C114.632666,6.34833485 114.6,6.65866508 114.6,6.976 L114.6,10 L113.34,10 Z M125.03,9.216 C124.787332,9.5426683 124.467669,9.78533254 124.071,9.944 C123.674331,10.1026675 123.266002,10.182 122.846,10.182 C122.575332,10.182 122.307001,10.1470004 122.041,10.077 C121.774999,10.0069997 121.532334,9.89033415 121.313,9.727 C121.093666,9.56366585 120.916334,9.35366795 120.781,9.097 C120.645666,8.84033205 120.578,8.5253352 120.578,8.152 C120.578,7.4519965 120.822998,6.8920021 121.313,6.472 C121.803002,6.0519979 122.509995,5.842 123.434,5.842 C123.583334,5.842 123.741999,5.84666662 123.91,5.856 C124.078001,5.86533338 124.236666,5.87466662 124.386,5.884 C124.535334,5.89333338 124.665999,5.90266662 124.778,5.912 C124.890001,5.92133338 124.969333,5.93066662 125.016,5.94 L125.016,5.702 C125.016,5.21666424 124.869001,4.86900105 124.575,4.659 C124.280999,4.44899895 123.882003,4.344 123.378,4.344 C122.883331,4.344 122.491335,4.41166599 122.202,4.547 C121.912665,4.68233401 121.670001,4.8199993 121.474,4.96 L120.886,4.106 C120.998001,4.0126662 121.133333,3.9193338 121.292,3.826 C121.450667,3.7326662 121.637332,3.64633373 121.852,3.567 C122.066668,3.48766627 122.309332,3.42233359 122.58,3.371 C122.850668,3.31966641 123.163332,3.294 123.518,3.294 C124.358004,3.294 125.018331,3.49699797 125.499,3.903 C125.979669,4.30900203 126.22,4.8853296 126.22,5.632 L126.22,9.426 C126.22,9.65000112 126.224667,9.84133254 126.234,10 L125.058,10 L125.03,9.216 Z M125.016,6.92 C124.978666,6.91066662 124.906334,6.89900007 124.799,6.885 C124.691666,6.87099993 124.568001,6.85933338 124.428,6.85 C124.287999,6.84066662 124.138667,6.83133338 123.98,6.822 C123.821333,6.81266662 123.667334,6.808 123.518,6.808 C123.163332,6.808 122.876334,6.84999958 122.657,6.934 C122.437666,7.01800042 122.265001,7.12299937 122.139,7.249 C122.012999,7.37500063 121.926667,7.51499923 121.88,7.669 C121.833333,7.82300077 121.81,7.9699993 121.81,8.11 C121.81,8.46466844 121.931332,8.73299909 122.174,8.915 C122.416668,9.09700091 122.752665,9.188 123.182,9.188 C123.424668,9.188 123.655666,9.14600042 123.875,9.062 C124.094334,8.97799958 124.287999,8.8660007 124.456,8.726 C124.624001,8.5859993 124.759333,8.4226676 124.862,8.236 C124.964667,8.0493324 125.016,7.85800098 125.016,7.662 L125.016,6.92 Z M133.598,9.104 C133.308665,9.4306683 132.951669,9.69433233 132.527,9.895 C132.102331,10.0956677 131.610003,10.196 131.05,10.196 C130.527331,10.196 130.053669,10.1096675 129.629,9.937 C129.204331,9.76433247 128.845001,9.52633485 128.551,9.223 C128.256999,8.91966515 128.030667,8.55566879 127.872,8.131 C127.713333,7.70633121 127.634,7.24200252 127.634,6.738 C127.634,6.26199762 127.717999,5.8140021 127.886,5.394 C128.054001,4.9739979 128.289665,4.60766823 128.593,4.295 C128.896335,3.98233177 129.255665,3.73500091 129.671,3.553 C130.086335,3.37099909 130.545997,3.28 131.05,3.28 C131.600669,3.28 132.085998,3.37799902 132.506,3.574 C132.926002,3.77000098 133.285332,4.03599832 133.584,4.372 L132.758,5.17 C132.561999,4.92733212 132.324001,4.7360007 132.044,4.596 C131.763999,4.4559993 131.432669,4.386 131.05,4.386 C130.713998,4.386 130.413001,4.44899937 130.147,4.575 C129.880999,4.70100063 129.657001,4.87366557 129.475,5.093 C129.292999,5.31233443 129.153,5.56433191 129.055,5.849 C128.957,6.13366809 128.908,6.42999846 128.908,6.738 C128.908,7.03666816 128.957,7.32833191 129.055,7.613 C129.153,7.89766809 129.292999,8.14966557 129.475,8.369 C129.657001,8.58833443 129.880999,8.76333268 130.147,8.894 C130.413001,9.02466732 130.713998,9.09 131.05,9.09 C131.432669,9.09 131.775665,9.01766739 132.079,8.873 C132.382335,8.72833261 132.631999,8.53466788 132.828,8.292 L133.598,9.104 Z M135.404,4.54 L134.228,4.54 L134.228,3.49 L135.404,3.49 L135.404,1.362 L136.664,1.362 L136.664,3.49 L138.568,3.49 L138.568,4.54 L136.664,4.54 L136.664,7.746 C136.664,8.26866928 136.745666,8.62799902 136.909,8.824 C137.072334,9.02000098 137.303332,9.118 137.602,9.118 C137.844668,9.118 138.045333,9.08066704 138.204,9.006 C138.362667,8.93133296 138.521333,8.81933408 138.68,8.67 L139.254,9.44 C138.983332,9.70133464 138.705668,9.89033275 138.421,10.007 C138.136332,10.1236673 137.798002,10.182 137.406,10.182 C136.71533,10.182 136.209002,9.9953352 135.887,9.622 C135.564998,9.2486648 135.404,8.6653373 135.404,7.872 L135.404,4.54 Z M140.192,0.914 L141.606,0.914 L141.606,2.328 L140.192,2.328 L140.192,0.914 Z M140.276,3.49 L141.536,3.49 L141.536,10 L140.276,10 L140.276,3.49 Z M142.264,3.49 L143.706,3.49 L145.736,8.572 L147.752,3.49 L149.11,3.49 L146.324,10 L145.064,10 L142.264,3.49 Z M155.732,9.048 C155.657333,9.13200042 155.545334,9.23933268 155.396,9.37 C155.246666,9.50066732 155.053001,9.62666606 154.815,9.748 C154.576999,9.86933394 154.297002,9.97433289 153.975,10.063 C153.652998,10.1516671 153.286669,10.196 152.876,10.196 C152.371997,10.196 151.910002,10.1120008 151.49,9.944 C151.069998,9.77599916 150.710668,9.53800154 150.412,9.23 C150.113332,8.92199846 149.882334,8.55333548 149.719,8.124 C149.555666,7.69466452 149.474,7.21866928 149.474,6.696 C149.474,6.21999762 149.553333,5.77433541 149.712,5.359 C149.870667,4.94366459 150.094665,4.58433485 150.384,4.281 C150.673335,3.97766515 151.016331,3.73733422 151.413,3.56 C151.809669,3.38266578 152.245998,3.294 152.722,3.294 C153.282003,3.294 153.762665,3.40133226 154.164,3.616 C154.565335,3.83066774 154.894332,4.11533156 155.151,4.47 C155.407668,4.82466844 155.596666,5.23066438 155.718,5.688 C155.839334,6.14533562 155.9,6.62133086 155.9,7.116 L150.762,7.116 C150.771333,7.40533478 150.834333,7.67133212 150.951,7.914 C151.067667,8.15666788 151.223999,8.36666578 151.42,8.544 C151.616001,8.72133422 151.839999,8.86133282 152.092,8.964 C152.344001,9.06666718 152.609999,9.118 152.89,9.118 C153.440669,9.118 153.893332,9.0246676 154.248,8.838 C154.602668,8.6513324 154.859333,8.46933422 155.018,8.292 L155.732,9.048 Z M154.598,6.178 C154.560666,5.67399748 154.383335,5.24466844 154.066,4.89 C153.748665,4.53533156 153.30067,4.358 152.722,4.358 C152.423332,4.358 152.155001,4.40933282 151.917,4.512 C151.678999,4.61466718 151.476001,4.74999916 151.308,4.918 C151.139999,5.08600084 151.009334,5.27966557 150.916,5.499 C150.822666,5.71833443 150.771333,5.9446655 150.762,6.178 L154.598,6.178 Z" id="Inactive" fill="#9B9B9B"></path>
                <path d="M186.064,0.662 L187.408,0.662 L187.408,4.568 L192.518,4.568 L192.518,0.662 L193.862,0.662 L193.862,10 L192.518,10 L192.518,5.772 L187.408,5.772 L187.408,10 L186.064,10 L186.064,0.662 Z M198.93,10.196 C198.425997,10.196 197.964002,10.1050009 197.544,9.923 C197.123998,9.74099909 196.762335,9.49133492 196.459,9.174 C196.155665,8.85666508 195.917668,8.49033541 195.745,8.075 C195.572332,7.65966459 195.486,7.21400238 195.486,6.738 C195.486,6.26199762 195.572332,5.81633541 195.745,5.401 C195.917668,4.98566459 196.155665,4.61933492 196.459,4.302 C196.762335,3.98466508 197.123998,3.73500091 197.544,3.553 C197.964002,3.37099909 198.425997,3.28 198.93,3.28 C199.424669,3.28 199.881998,3.37099909 200.302,3.553 C200.722002,3.73500091 201.085998,3.98466508 201.394,4.302 C201.702002,4.61933492 201.942332,4.98566459 202.115,5.401 C202.287668,5.81633541 202.374,6.26199762 202.374,6.738 C202.374,7.21400238 202.287668,7.65966459 202.115,8.075 C201.942332,8.49033541 201.702002,8.85666508 201.394,9.174 C201.085998,9.49133492 200.722002,9.74099909 200.302,9.923 C199.881998,10.1050009 199.424669,10.196 198.93,10.196 L198.93,10.196 Z M198.93,9.104 C199.266002,9.104 199.569332,9.03633401 199.84,8.901 C200.110668,8.76566599 200.339332,8.58833443 200.526,8.369 C200.712668,8.14966557 200.855,7.89766809 200.953,7.613 C201.051,7.32833191 201.1,7.03666816 201.1,6.738 C201.1,6.44866522 201.051,6.16166809 200.953,5.877 C200.855,5.59233191 200.710334,5.33800112 200.519,5.114 C200.327666,4.88999888 200.099001,4.71033401 199.833,4.575 C199.566999,4.43966599 199.266002,4.372 198.93,4.372 C198.593998,4.372 198.290668,4.43966599 198.02,4.575 C197.749332,4.71033401 197.520668,4.88766557 197.334,5.107 C197.147332,5.32633443 197.005,5.57833191 196.907,5.863 C196.809,6.14766809 196.76,6.43933184 196.76,6.738 C196.76,7.03666816 196.809,7.3259986 196.907,7.606 C197.005,7.8860014 197.149666,8.13799888 197.341,8.362 C197.532334,8.58600112 197.760999,8.76566599 198.027,8.901 C198.293001,9.03633401 198.593998,9.104 198.93,9.104 L198.93,9.104 Z M202.668,3.49 L204.11,3.49 L206.14,8.572 L208.156,3.49 L209.514,3.49 L206.728,10 L205.468,10 L202.668,3.49 Z M216.136,9.048 C216.061333,9.13200042 215.949334,9.23933268 215.8,9.37 C215.650666,9.50066732 215.457001,9.62666606 215.219,9.748 C214.980999,9.86933394 214.701002,9.97433289 214.379,10.063 C214.056998,10.1516671 213.690669,10.196 213.28,10.196 C212.775997,10.196 212.314002,10.1120008 211.894,9.944 C211.473998,9.77599916 211.114668,9.53800154 210.816,9.23 C210.517332,8.92199846 210.286334,8.55333548 210.123,8.124 C209.959666,7.69466452 209.878,7.21866928 209.878,6.696 C209.878,6.21999762 209.957333,5.77433541 210.116,5.359 C210.274667,4.94366459 210.498665,4.58433485 210.788,4.281 C211.077335,3.97766515 211.420331,3.73733422 211.817,3.56 C212.213669,3.38266578 212.649998,3.294 213.126,3.294 C213.686003,3.294 214.166665,3.40133226 214.568,3.616 C214.969335,3.83066774 215.298332,4.11533156 215.555,4.47 C215.811668,4.82466844 216.000666,5.23066438 216.122,5.688 C216.243334,6.14533562 216.304,6.62133086 216.304,7.116 L211.166,7.116 C211.175333,7.40533478 211.238333,7.67133212 211.355,7.914 C211.471667,8.15666788 211.627999,8.36666578 211.824,8.544 C212.020001,8.72133422 212.243999,8.86133282 212.496,8.964 C212.748001,9.06666718 213.013999,9.118 213.294,9.118 C213.844669,9.118 214.297332,9.0246676 214.652,8.838 C215.006668,8.6513324 215.263333,8.46933422 215.422,8.292 L216.136,9.048 Z M215.002,6.178 C214.964666,5.67399748 214.787335,5.24466844 214.47,4.89 C214.152665,4.53533156 213.70467,4.358 213.126,4.358 C212.827332,4.358 212.559001,4.40933282 212.321,4.512 C212.082999,4.61466718 211.880001,4.74999916 211.712,4.918 C211.543999,5.08600084 211.413334,5.27966557 211.32,5.499 C211.226666,5.71833443 211.175333,5.9446655 211.166,6.178 L215.002,6.178 Z M217.704,10 L217.704,4.12 C217.704,3.91466564 217.699333,3.70466774 217.69,3.49 L218.894,3.49 L218.936,4.54 C219.010667,4.42799944 219.108666,4.30433401 219.23,4.169 C219.351334,4.03366599 219.498332,3.91000056 219.671,3.798 C219.843668,3.68599944 220.044332,3.59033373 220.273,3.511 C220.501668,3.43166627 220.765332,3.392 221.064,3.392 C221.204001,3.392 221.332333,3.40133324 221.449,3.42 C221.565667,3.43866676 221.675333,3.46666648 221.778,3.504 L221.498,4.68 C221.329999,4.61466634 221.115335,4.582 220.854,4.582 C220.583332,4.582 220.333668,4.63333282 220.105,4.736 C219.876332,4.83866718 219.678001,4.98099909 219.51,5.163 C219.341999,5.34500091 219.209,5.55733212 219.111,5.8 C219.013,6.04266788 218.964,6.29933198 218.964,6.57 L218.964,10 L217.704,10 Z" id="Hover" fill="#9B9B9B"></path>
            </g>
        </g>
    </g>
</svg>