<?xml version="1.0" encoding="UTF-8" standalone="no"?>
<svg width="541px" height="32px" viewBox="0 0 541 32" version="1.1" xmlns="http://www.w3.org/2000/svg" xmlns:xlink="http://www.w3.org/1999/xlink">
    <!-- Generator: Sketch 40.2 (33826) - http://www.bohemiancoding.com/sketch -->
    <title>dt-fld</title>
    <desc>Created with Sketch.</desc>
    <defs>
        <rect id="path-1" x="0" y="0" width="541" height="32"></rect>
        <mask id="mask-2" maskContentUnits="userSpaceOnUse" maskUnits="objectBoundingBox" x="0" y="0" width="541" height="32" fill="white">
            <use xlink:href="#path-1"></use>
        </mask>
    </defs>
    <g id="Components" stroke="none" stroke-width="1" fill="none" fill-rule="evenodd">
        <g id="Forms" transform="translate(-325.000000, -841.000000)">
            <g id="dt-fld" transform="translate(325.000000, 841.000000)">
                <use id="Rectangle-6" stroke="#D0D0D0" mask="url(#mask-2)" stroke-width="2" fill="#FFFFFF" xlink:href="#path-1"></use>
                <path d="M517.142857,22.8571429 L519.714286,22.8571429 L519.714286,20.2857143 L517.142857,20.2857143 L517.142857,22.8571429 Z M520.285714,22.8571429 L523.142857,22.8571429 L523.142857,20.2857143 L520.285714,20.2857143 L520.285714,22.8571429 Z M517.142857,19.7142857 L519.714286,19.7142857 L519.714286,16.8571429 L517.142857,16.8571429 L517.142857,19.7142857 Z M520.285714,19.7142857 L523.142857,19.7142857 L523.142857,16.8571429 L520.285714,16.8571429 L520.285714,19.7142857 Z M517.142857,16.2857143 L519.714286,16.2857143 L519.714286,13.7142857 L517.142857,13.7142857 L517.142857,16.2857143 Z M523.714286,22.8571429 L526.571429,22.8571429 L526.571429,20.2857143 L523.714286,20.2857143 L523.714286,22.8571429 Z M520.285714,16.2857143 L523.142857,16.2857143 L523.142857,13.7142857 L520.285714,13.7142857 L520.285714,16.2857143 Z M527.142857,22.8571429 L529.714286,22.8571429 L529.714286,20.2857143 L527.142857,20.2857143 L527.142857,22.8571429 Z M523.714286,19.7142857 L526.571429,19.7142857 L526.571429,16.8571429 L523.714286,16.8571429 L523.714286,19.7142857 Z M520.571429,12 L520.571429,9.42857143 C520.571429,9.35119009 520.543155,9.28422647 520.486607,9.22767857 C520.430059,9.17113067 520.363096,9.14285714 520.285714,9.14285714 L519.714286,9.14285714 C519.636904,9.14285714 519.569941,9.17113067 519.513393,9.22767857 C519.456845,9.28422647 519.428571,9.35119009 519.428571,9.42857143 L519.428571,12 C519.428571,12.0773813 519.456845,12.144345 519.513393,12.2008929 C519.569941,12.2574408 519.636904,12.2857143 519.714286,12.2857143 L520.285714,12.2857143 C520.363096,12.2857143 520.430059,12.2574408 520.486607,12.2008929 C520.543155,12.144345 520.571429,12.0773813 520.571429,12 L520.571429,12 Z M527.142857,19.7142857 L529.714286,19.7142857 L529.714286,16.8571429 L527.142857,16.8571429 L527.142857,19.7142857 Z M523.714286,16.2857143 L526.571429,16.2857143 L526.571429,13.7142857 L523.714286,13.7142857 L523.714286,16.2857143 Z M527.142857,16.2857143 L529.714286,16.2857143 L529.714286,13.7142857 L527.142857,13.7142857 L527.142857,16.2857143 Z M527.428571,12 L527.428571,9.42857143 C527.428571,9.35119009 527.400298,9.28422647 527.34375,9.22767857 C527.287202,9.17113067 527.220238,9.14285714 527.142857,9.14285714 L526.571429,9.14285714 C526.494047,9.14285714 526.427084,9.17113067 526.370536,9.22767857 C526.313988,9.28422647 526.285714,9.35119009 526.285714,9.42857143 L526.285714,12 C526.285714,12.0773813 526.313988,12.144345 526.370536,12.2008929 C526.427084,12.2574408 526.494047,12.2857143 526.571429,12.2857143 L527.142857,12.2857143 C527.220238,12.2857143 527.287202,12.2574408 527.34375,12.2008929 C527.400298,12.144345 527.428571,12.0773813 527.428571,12 L527.428571,12 Z M530.857143,11.4285714 L530.857143,22.8571429 C530.857143,23.1666682 530.744049,23.4345227 530.517857,23.6607143 C530.291666,23.8869059 530.023811,24 529.714286,24 L517.142857,24 C516.833332,24 516.565477,23.8869059 516.339286,23.6607143 C516.113094,23.4345227 516,23.1666682 516,22.8571429 L516,11.4285714 C516,11.1190461 516.113094,10.8511916 516.339286,10.625 C516.565477,10.3988084 516.833332,10.2857143 517.142857,10.2857143 L518.285714,10.2857143 L518.285714,9.42857143 C518.285714,9.03571232 518.425594,8.69940616 518.705357,8.41964286 C518.98512,8.13987955 519.321427,8 519.714286,8 L520.285714,8 C520.678573,8 521.01488,8.13987955 521.294643,8.41964286 C521.574406,8.69940616 521.714286,9.03571232 521.714286,9.42857143 L521.714286,10.2857143 L525.142857,10.2857143 L525.142857,9.42857143 C525.142857,9.03571232 525.282737,8.69940616 525.5625,8.41964286 C525.842263,8.13987955 526.178569,8 526.571429,8 L527.142857,8 C527.535716,8 527.872022,8.13987955 528.151786,8.41964286 C528.431549,8.69940616 528.571429,9.03571232 528.571429,9.42857143 L528.571429,10.2857143 L529.714286,10.2857143 C530.023811,10.2857143 530.291666,10.3988084 530.517857,10.625 C530.744049,10.8511916 530.857143,11.1190461 530.857143,11.4285714 L530.857143,11.4285714 Z" id="ï³" fill="#4A4A4A"></path>
            </g>
        </g>
    </g>
</svg>