<?xml version="1.0" encoding="UTF-8" standalone="no"?>
<svg width="371px" height="379px" viewBox="0 0 371 379" version="1.1" xmlns="http://www.w3.org/2000/svg" xmlns:xlink="http://www.w3.org/1999/xlink">
    <!-- Generator: Sketch 40.2 (33826) - http://www.bohemiancoding.com/sketch -->
    <title>dt-pckr</title>
    <desc>Created with Sketch.</desc>
    <defs>
        <rect id="path-1" x="0" y="0" width="371" height="379"></rect>
        <mask id="mask-2" maskContentUnits="userSpaceOnUse" maskUnits="objectBoundingBox" x="0" y="0" width="371" height="379" fill="white">
            <use xlink:href="#path-1"></use>
        </mask>
        <rect id="path-3" x="158" y="326" width="56" height="32"></rect>
        <mask id="mask-4" maskContentUnits="userSpaceOnUse" maskUnits="objectBoundingBox" x="0" y="0" width="56" height="32" fill="white">
            <use xlink:href="#path-3"></use>
        </mask>
    </defs>
    <g id="Components" stroke="none" stroke-width="1" fill="none" fill-rule="evenodd">
        <g id="Pickers" transform="translate(-325.000000, -651.000000)">
            <g id="dt-pckr" transform="translate(325.000000, 651.000000)">
                <use id="Rectangle-14" stroke="#025B80" mask="url(#mask-2)" stroke-width="4" fill="#FFFFFF" xlink:href="#path-1"></use>
                <rect id="Rectangle-2" fill="#F0F0F0" x="2" y="44" width="367" height="32"></rect>
                <rect id="Rectangle-15" fill="#025B80" x="0" y="0" width="371" height="44"></rect>
                <rect id="Rectangle-17" fill="#025B80" x="62" y="244" width="38" height="32"></rect>
                <path d="M147.484375,20.2734375 C147.484375,22.1015716 147.02214,23.5390573 146.097656,24.5859375 C145.173172,25.6328177 143.888029,26.15625 142.242188,26.15625 C140.559887,26.15625 139.261723,25.6419322 138.347656,24.6132812 C137.433589,23.5846303 136.976562,22.1328219 136.976562,20.2578125 C136.976562,18.3984282 137.434891,16.9570364 138.351562,15.9335938 C139.268234,14.9101511 140.570304,14.3984375 142.257812,14.3984375 C143.898446,14.3984375 145.179683,14.9192656 146.101562,15.9609375 C147.023442,17.0026094 147.484375,18.440095 147.484375,20.2734375 L147.484375,20.2734375 Z M138.382812,20.2734375 C138.382812,21.8203202 138.712236,22.9934856 139.371094,23.7929688 C140.029951,24.5924519 140.986973,24.9921875 142.242188,24.9921875 C143.507819,24.9921875 144.463538,24.593754 145.109375,23.796875 C145.755212,22.999996 146.078125,21.8255286 146.078125,20.2734375 C146.078125,18.7369715 145.756514,17.5716186 145.113281,16.7773438 C144.470049,15.9830689 143.518235,15.5859375 142.257812,15.5859375 C140.992181,15.5859375 140.029951,15.9856731 139.371094,16.7851562 C138.712236,17.5846394 138.382812,18.7473882 138.382812,20.2734375 L138.382812,20.2734375 Z M153.257812,26.15625 C152.018223,26.15625 151.058597,25.7747434 150.378906,25.0117188 C149.699215,24.2486941 149.359375,23.1692778 149.359375,21.7734375 C149.359375,20.3411387 149.704424,19.2343789 150.394531,18.453125 C151.084639,17.6718711 152.067702,17.28125 153.34375,17.28125 C153.75521,17.28125 154.166665,17.3255204 154.578125,17.4140625 C154.989585,17.5026046 155.312499,17.6067702 155.546875,17.7265625 L155.148438,18.828125 C154.861978,18.7135411 154.549481,18.61849 154.210938,18.5429688 C153.872394,18.4674475 153.572918,18.4296875 153.3125,18.4296875 C151.572908,18.4296875 150.703125,19.5390514 150.703125,21.7578125 C150.703125,22.8099011 150.915362,23.6171847 151.339844,24.1796875 C151.764325,24.7421903 152.393225,25.0234375 153.226562,25.0234375 C153.940108,25.0234375 154.671871,24.8697932 155.421875,24.5625 L155.421875,25.7109375 C154.848955,26.007814 154.127609,26.15625 153.257812,26.15625 L153.257812,26.15625 Z M160.21875,25.0859375 C160.447918,25.0859375 160.66927,25.0690106 160.882812,25.0351562 C161.096355,25.0013019 161.265624,24.966146 161.390625,24.9296875 L161.390625,25.921875 C161.249999,25.9895837 161.04297,26.0455727 160.769531,26.0898438 C160.496092,26.1341148 160.250001,26.15625 160.03125,26.15625 C158.374992,26.15625 157.546875,25.2838629 157.546875,23.5390625 L157.546875,18.4453125 L156.320312,18.4453125 L156.320312,17.8203125 L157.546875,17.28125 L158.09375,15.453125 L158.84375,15.453125 L158.84375,17.4375 L161.328125,17.4375 L161.328125,18.4453125 L158.84375,18.4453125 L158.84375,23.484375 C158.84375,24.0000026 158.966145,24.395832 159.210938,24.671875 C159.45573,24.947918 159.791665,25.0859375 160.21875,25.0859375 L160.21875,25.0859375 Z M170.492188,21.7109375 C170.492188,23.1067778 170.140629,24.1966107 169.4375,24.9804688 C168.734371,25.7643268 167.763027,26.15625 166.523438,26.15625 C165.757809,26.15625 165.078128,25.9765643 164.484375,25.6171875 C163.890622,25.2578107 163.432293,24.7421909 163.109375,24.0703125 C162.786457,23.3984341 162.625,22.6119837 162.625,21.7109375 C162.625,20.3150972 162.973955,19.2278685 163.671875,18.4492188 C164.369795,17.670569 165.338535,17.28125 166.578125,17.28125 C167.776048,17.28125 168.727861,17.6796835 169.433594,18.4765625 C170.139326,19.2734415 170.492188,20.3515557 170.492188,21.7109375 L170.492188,21.7109375 Z M163.96875,21.7109375 C163.96875,22.804693 164.187498,23.638018 164.625,24.2109375 C165.062502,24.783857 165.705725,25.0703125 166.554688,25.0703125 C167.40365,25.0703125 168.048175,24.7851591 168.488281,24.2148438 C168.928388,23.6445284 169.148438,22.8099013 169.148438,21.7109375 C169.148438,20.6223904 168.928388,19.7955757 168.488281,19.2304688 C168.048175,18.6653618 167.398442,18.3828125 166.539062,18.3828125 C165.6901,18.3828125 165.049481,18.6614555 164.617188,19.21875 C164.184894,19.7760445 163.96875,20.6067653 163.96875,21.7109375 L163.96875,21.7109375 Z M176.75,17.296875 C177.875006,17.296875 178.748695,17.6809857 179.371094,18.4492188 C179.993493,19.2174518 180.304688,20.3046805 180.304688,21.7109375 C180.304688,23.1171945 179.990889,24.2096315 179.363281,24.9882812 C178.735674,25.766931 177.864589,26.15625 176.75,26.15625 C176.192706,26.15625 175.683596,26.0533864 175.222656,25.8476562 C174.761716,25.6419261 174.375002,25.325523 174.0625,24.8984375 L173.96875,24.8984375 L173.695312,26 L172.765625,26 L172.765625,13.84375 L174.0625,13.84375 L174.0625,16.796875 C174.0625,17.4583366 174.041667,18.0520807 174,18.578125 L174.0625,18.578125 C174.66667,17.7239541 175.562494,17.296875 176.75,17.296875 L176.75,17.296875 Z M176.5625,18.3828125 C175.677079,18.3828125 175.039064,18.6367162 174.648438,19.1445312 C174.257811,19.6523463 174.0625,20.5078065 174.0625,21.7109375 C174.0625,22.9140685 174.263019,23.774737 174.664062,24.2929688 C175.065106,24.8112005 175.708329,25.0703125 176.59375,25.0703125 C177.390629,25.0703125 177.984373,24.7799508 178.375,24.1992188 C178.765627,23.6184867 178.960938,22.7838596 178.960938,21.6953125 C178.960938,20.5807236 178.765627,19.7500027 178.375,19.203125 C177.984373,18.6562473 177.380212,18.3828125 176.5625,18.3828125 L176.5625,18.3828125 Z M186.1875,26.15625 C184.921869,26.15625 183.923181,25.7708372 183.191406,25 C182.459632,24.2291628 182.09375,23.158861 182.09375,21.7890625 C182.09375,20.4088473 182.43359,19.3125041 183.113281,18.5 C183.792972,17.6874959 184.705723,17.28125 185.851562,17.28125 C186.924485,17.28125 187.773434,17.6341111 188.398438,18.3398438 C189.023441,19.0455764 189.335938,19.9765567 189.335938,21.1328125 L189.335938,21.953125 L183.4375,21.953125 C183.463542,22.9583384 183.717446,23.7213516 184.199219,24.2421875 C184.680992,24.7630234 185.359371,25.0234375 186.234375,25.0234375 C187.156255,25.0234375 188.067704,24.8307311 188.96875,24.4453125 L188.96875,25.6015625 C188.510414,25.7994802 188.076825,25.9414058 187.667969,26.0273438 C187.259113,26.1132817 186.765628,26.15625 186.1875,26.15625 L186.1875,26.15625 Z M185.835938,18.3671875 C185.148434,18.3671875 184.600262,18.5911436 184.191406,19.0390625 C183.78255,19.4869814 183.541667,20.1067669 183.46875,20.8984375 L187.945312,20.8984375 C187.945312,20.0807251 187.763023,19.4544293 187.398438,19.0195312 C187.033852,18.5846332 186.513024,18.3671875 185.835938,18.3671875 L185.835938,18.3671875 Z M195.453125,17.28125 C195.833335,17.28125 196.174478,17.3124997 196.476562,17.375 L196.296875,18.578125 C195.942707,18.4999996 195.63021,18.4609375 195.359375,18.4609375 C194.666663,18.4609375 194.074221,18.7421847 193.582031,19.3046875 C193.089841,19.8671903 192.84375,20.5677041 192.84375,21.40625 L192.84375,26 L191.546875,26 L191.546875,17.4375 L192.617188,17.4375 L192.765625,19.0234375 L192.828125,19.0234375 C193.145835,18.466143 193.528644,18.0364598 193.976562,17.734375 C194.424481,17.4322902 194.916664,17.28125 195.453125,17.28125 L195.453125,17.28125 Z M209.148438,26 L201.640625,26 L201.640625,24.8828125 L204.648438,21.859375 C205.565109,20.932287 206.169269,20.2708353 206.460938,19.875 C206.752606,19.4791647 206.971353,19.0937519 207.117188,18.71875 C207.263022,18.3437481 207.335938,17.9401063 207.335938,17.5078125 C207.335938,16.8984345 207.151044,16.4153664 206.78125,16.0585938 C206.411456,15.7018211 205.898441,15.5234375 205.242188,15.5234375 C204.768227,15.5234375 204.319013,15.6015617 203.894531,15.7578125 C203.47005,15.9140633 202.997398,16.1979146 202.476562,16.609375 L201.789062,15.7265625 C202.841151,14.8515581 203.986973,14.4140625 205.226562,14.4140625 C206.299485,14.4140625 207.140622,14.6887993 207.75,15.2382812 C208.359378,15.7877632 208.664062,16.526037 208.664062,17.453125 C208.664062,18.177087 208.46094,18.8932256 208.054688,19.6015625 C207.648435,20.3098994 206.888026,21.2057237 205.773438,22.2890625 L203.273438,24.734375 L203.273438,24.796875 L209.148438,24.796875 L209.148438,26 Z M218.359375,20.2734375 C218.359375,22.2474057 218.04818,23.7213493 217.425781,24.6953125 C216.803382,25.6692757 215.851569,26.15625 214.570312,26.15625 C213.34114,26.15625 212.406253,25.6575571 211.765625,24.6601562 C211.124997,23.6627554 210.804688,22.2005305 210.804688,20.2734375 C210.804688,18.2838442 211.11458,16.8072965 211.734375,15.84375 C212.35417,14.8802035 213.299473,14.3984375 214.570312,14.3984375 C215.809902,14.3984375 216.751299,14.9010366 217.394531,15.90625 C218.037764,16.9114634 218.359375,18.367178 218.359375,20.2734375 L218.359375,20.2734375 Z M212.117188,20.2734375 C212.117188,21.9349041 212.312498,23.1445275 212.703125,23.9023438 C213.093752,24.66016 213.716142,25.0390625 214.570312,25.0390625 C215.4349,25.0390625 216.061196,24.6549518 216.449219,23.8867188 C216.837242,23.1184857 217.03125,21.9140707 217.03125,20.2734375 C217.03125,18.6328043 216.837242,17.4309934 216.449219,16.6679688 C216.061196,15.9049441 215.4349,15.5234375 214.570312,15.5234375 C213.716142,15.5234375 213.093752,15.8997358 212.703125,16.6523438 C212.312498,17.4049517 212.117188,18.6119709 212.117188,20.2734375 L212.117188,20.2734375 Z M224.742188,26 L223.476562,26 L223.476562,17.859375 C223.476562,17.1822883 223.497396,16.5416697 223.539062,15.9375 C223.429687,16.0468755 223.307292,16.1614577 223.171875,16.28125 C223.036458,16.4010423 222.416672,16.9088497 221.3125,17.8046875 L220.625,16.9140625 L223.648438,14.578125 L224.742188,14.578125 L224.742188,26 Z M229.21875,21.1171875 C229.21875,18.8723846 229.654944,17.194016 230.527344,16.0820312 C231.399744,14.9700465 232.690096,14.4140625 234.398438,14.4140625 C234.986982,14.4140625 235.450519,14.4635412 235.789062,14.5625 L235.789062,15.6796875 C235.388019,15.5494785 234.92969,15.484375 234.414062,15.484375 C233.190098,15.484375 232.255212,15.8658816 231.609375,16.6289062 C230.963538,17.3919309 230.609375,18.5911377 230.546875,20.2265625 L230.640625,20.2265625 C231.213545,19.3307247 232.119785,18.8828125 233.359375,18.8828125 C234.385422,18.8828125 235.194007,19.1927052 235.785156,19.8125 C236.376305,20.4322948 236.671875,21.2734322 236.671875,22.3359375 C236.671875,23.5234434 236.347659,24.4570279 235.699219,25.1367188 C235.050778,25.8164096 234.174485,26.15625 233.070312,26.15625 C231.888015,26.15625 230.950524,25.712244 230.257812,24.8242188 C229.565101,23.9361935 229.21875,22.7005287 229.21875,21.1171875 L229.21875,21.1171875 Z M233.054688,25.0546875 C233.794275,25.0546875 234.368488,24.8216169 234.777344,24.3554688 C235.1862,23.8893206 235.390625,23.2161502 235.390625,22.3359375 C235.390625,21.5807254 235.200523,20.9869813 234.820312,20.5546875 C234.440102,20.1223937 233.8724,19.90625 233.117188,19.90625 C232.648435,19.90625 232.218752,20.0026032 231.828125,20.1953125 C231.437498,20.3880218 231.126303,20.6536441 230.894531,20.9921875 C230.662759,21.3307309 230.546875,21.6822898 230.546875,22.046875 C230.546875,22.583336 230.651041,23.083331 230.859375,23.546875 C231.067709,24.010419 231.363279,24.3776028 231.746094,24.6484375 C232.128908,24.9192722 232.565102,25.0546875 233.054688,25.0546875 L233.054688,25.0546875 Z" id="October-2016" fill="#FFFFFF"></path>
                <path d="M30.015625,63.9609375 C30.015625,64.9661509 29.6510453,65.7499972 28.921875,66.3125 C28.1927047,66.8750028 27.2031313,67.15625 25.953125,67.15625 C24.5989516,67.15625 23.5572953,66.9817726 22.828125,66.6328125 L22.828125,65.3515625 C23.2968773,65.5494802 23.8072889,65.7057286 24.359375,65.8203125 C24.9114611,65.9348964 25.4583306,65.9921875 26,65.9921875 C26.8854211,65.9921875 27.5520811,65.8242204 28,65.4882812 C28.4479189,65.1523421 28.671875,64.6848988 28.671875,64.0859375 C28.671875,63.6901022 28.5924487,63.3658867 28.4335938,63.1132812 C28.2747388,62.8606758 28.0091164,62.6276052 27.6367188,62.4140625 C27.2643211,62.2005198 26.6979205,61.9583347 25.9375,61.6875 C24.8749947,61.3072898 24.1158877,60.8567734 23.6601562,60.3359375 C23.2044248,59.8151016 22.9765625,59.1354209 22.9765625,58.296875 C22.9765625,57.4166623 23.3072884,56.7161484 23.96875,56.1953125 C24.6302116,55.6744766 25.5052029,55.4140625 26.59375,55.4140625 C27.7291723,55.4140625 28.7734327,55.6223938 29.7265625,56.0390625 L29.3125,57.1953125 C28.369787,56.7994772 27.4531295,56.6015625 26.5625,56.6015625 C25.8593715,56.6015625 25.3098978,56.7526027 24.9140625,57.0546875 C24.5182272,57.3567723 24.3203125,57.776039 24.3203125,58.3125 C24.3203125,58.7083353 24.3932284,59.0325508 24.5390625,59.2851562 C24.6848966,59.5377617 24.9309879,59.7695302 25.2773438,59.9804688 C25.6236996,60.1914073 26.1536423,60.4244779 26.8671875,60.6796875 C28.0651102,61.106773 28.8893207,61.5651017 29.3398438,62.0546875 C29.7903668,62.5442733 30.015625,63.1796836 30.015625,63.9609375 L30.015625,63.9609375 Z" id="S" fill="#4A4A4A"></path>
                <path d="M79.625,67 L75.75,56.875 L75.6875,56.875 C75.760417,57.6770873 75.796875,58.6302028 75.796875,59.734375 L75.796875,67 L74.5703125,67 L74.5703125,55.578125 L76.5703125,55.578125 L80.1875,65 L80.25,65 L83.8984375,55.578125 L85.8828125,55.578125 L85.8828125,67 L84.5546875,67 L84.5546875,59.640625 C84.5546875,58.7968708 84.5911455,57.8802133 84.6640625,56.890625 L84.6015625,56.890625 L80.6953125,67 L79.625,67 Z" id="M" fill="#4A4A4A"></path>
                <polygon id="T" fill="#4A4A4A" points="135.085938 67 133.757812 67 133.757812 56.7578125 130.140625 56.7578125 130.140625 55.578125 138.703125 55.578125 138.703125 56.7578125 135.085938 56.7578125"></polygon>
                <path d="M192.539062,67 L191.226562,67 L188.921875,59.3515625 C188.812499,59.0130191 188.690105,58.5859401 188.554688,58.0703125 C188.41927,57.5546849 188.348958,57.2447922 188.34375,57.140625 C188.229166,57.8281284 188.046876,58.5807251 187.796875,59.3984375 L185.5625,67 L184.25,67 L181.210938,55.578125 L182.617188,55.578125 L184.421875,62.6328125 C184.671876,63.6224008 184.854166,64.5182252 184.96875,65.3203125 C185.109376,64.3671827 185.317707,63.4349004 185.59375,62.5234375 L187.640625,55.578125 L189.046875,55.578125 L191.195312,62.5859375 C191.445314,63.3932332 191.656249,64.3046824 191.828125,65.3203125 C191.927084,64.5807255 192.114582,63.6796928 192.390625,62.6171875 L194.1875,55.578125 L195.59375,55.578125 L192.539062,67 Z" id="W" fill="#4A4A4A"></path>
                <polygon id="T" fill="#4A4A4A" points="243.085938 67 241.757812 67 241.757812 56.7578125 238.140625 56.7578125 238.140625 55.578125 246.703125 55.578125 246.703125 56.7578125 243.085938 56.7578125"></polygon>
                <polygon id="F" fill="#4A4A4A" points="291.898438 67 290.570312 67 290.570312 55.578125 296.9375 55.578125 296.9375 56.7578125 291.898438 56.7578125 291.898438 60.9375 296.632812 60.9375 296.632812 62.1171875 291.898438 62.1171875"></polygon>
                <path d="M348.015625,63.9609375 C348.015625,64.9661509 347.651045,65.7499972 346.921875,66.3125 C346.192705,66.8750028 345.203131,67.15625 343.953125,67.15625 C342.598952,67.15625 341.557295,66.9817726 340.828125,66.6328125 L340.828125,65.3515625 C341.296877,65.5494802 341.807289,65.7057286 342.359375,65.8203125 C342.911461,65.9348964 343.458331,65.9921875 344,65.9921875 C344.885421,65.9921875 345.552081,65.8242204 346,65.4882812 C346.447919,65.1523421 346.671875,64.6848988 346.671875,64.0859375 C346.671875,63.6901022 346.592449,63.3658867 346.433594,63.1132812 C346.274739,62.8606758 346.009116,62.6276052 345.636719,62.4140625 C345.264321,62.2005198 344.69792,61.9583347 343.9375,61.6875 C342.874995,61.3072898 342.115888,60.8567734 341.660156,60.3359375 C341.204425,59.8151016 340.976562,59.1354209 340.976562,58.296875 C340.976562,57.4166623 341.307288,56.7161484 341.96875,56.1953125 C342.630212,55.6744766 343.505203,55.4140625 344.59375,55.4140625 C345.729172,55.4140625 346.773433,55.6223938 347.726562,56.0390625 L347.3125,57.1953125 C346.369787,56.7994772 345.453129,56.6015625 344.5625,56.6015625 C343.859371,56.6015625 343.309898,56.7526027 342.914062,57.0546875 C342.518227,57.3567723 342.320312,57.776039 342.320312,58.3125 C342.320312,58.7083353 342.393228,59.0325508 342.539062,59.2851562 C342.684897,59.5377617 342.930988,59.7695302 343.277344,59.9804688 C343.6237,60.1914073 344.153642,60.4244779 344.867188,60.6796875 C346.06511,61.106773 346.889321,61.5651017 347.339844,62.0546875 C347.790367,62.5442733 348.015625,63.1796836 348.015625,63.9609375 L348.015625,63.9609375 Z" id="S" fill="#4A4A4A"></path>
                <path d="M25.2890625,105 L17.78125,105 L17.78125,103.882812 L20.7890625,100.859375 C21.7057337,99.932287 22.3098944,99.2708353 22.6015625,98.875 C22.8932306,98.4791647 23.1119784,98.0937519 23.2578125,97.71875 C23.4036466,97.3437481 23.4765625,96.9401063 23.4765625,96.5078125 C23.4765625,95.8984345 23.2916685,95.4153664 22.921875,95.0585938 C22.5520815,94.7018211 22.0390658,94.5234375 21.3828125,94.5234375 C20.9088518,94.5234375 20.4596375,94.6015617 20.0351562,94.7578125 C19.610675,94.9140633 19.1380234,95.1979146 18.6171875,95.609375 L17.9296875,94.7265625 C18.9817761,93.8515581 20.127598,93.4140625 21.3671875,93.4140625 C22.4401095,93.4140625 23.281247,93.6887993 23.890625,94.2382812 C24.500003,94.7877632 24.8046875,95.526037 24.8046875,96.453125 C24.8046875,97.177087 24.6015645,97.8932256 24.1953125,98.6015625 C23.7890605,99.3098994 23.0286514,100.205724 21.9140625,101.289062 L19.4140625,103.734375 L19.4140625,103.796875 L25.2890625,103.796875 L25.2890625,105 Z M30.5,98.0234375 C31.703131,98.0234375 32.6497361,98.3216116 33.3398438,98.9179688 C34.0299514,99.5143259 34.375,100.330724 34.375,101.367188 C34.375,102.549485 33.9987017,103.476559 33.2460938,104.148438 C32.4934858,104.820316 31.4557358,105.15625 30.1328125,105.15625 C28.8463477,105.15625 27.8645867,104.950523 27.1875,104.539062 L27.1875,103.289062 C27.5520852,103.523439 28.0052056,103.707031 28.546875,103.839844 C29.0885444,103.972657 29.6223932,104.039062 30.1484375,104.039062 C31.0651087,104.039062 31.7773412,103.822919 32.2851562,103.390625 C32.7929713,102.958331 33.046875,102.333337 33.046875,101.515625 C33.046875,99.921867 32.0703223,99.125 30.1171875,99.125 C29.6223934,99.125 28.9609416,99.2005201 28.1328125,99.3515625 L27.4609375,98.921875 L27.890625,93.578125 L33.5703125,93.578125 L33.5703125,94.7734375 L29,94.7734375 L28.7109375,98.203125 C29.3098988,98.0833327 29.906247,98.0234375 30.5,98.0234375 L30.5,98.0234375 Z" id="25" fill="#D0D0D0"></path>
                <path d="M79.2890625,105 L71.78125,105 L71.78125,103.882812 L74.7890625,100.859375 C75.7057337,99.932287 76.3098944,99.2708353 76.6015625,98.875 C76.8932306,98.4791647 77.1119784,98.0937519 77.2578125,97.71875 C77.4036466,97.3437481 77.4765625,96.9401063 77.4765625,96.5078125 C77.4765625,95.8984345 77.2916685,95.4153664 76.921875,95.0585938 C76.5520815,94.7018211 76.0390658,94.5234375 75.3828125,94.5234375 C74.9088518,94.5234375 74.4596375,94.6015617 74.0351562,94.7578125 C73.610675,94.9140633 73.1380234,95.1979146 72.6171875,95.609375 L71.9296875,94.7265625 C72.9817761,93.8515581 74.127598,93.4140625 75.3671875,93.4140625 C76.4401095,93.4140625 77.281247,93.6887993 77.890625,94.2382812 C78.500003,94.7877632 78.8046875,95.526037 78.8046875,96.453125 C78.8046875,97.177087 78.6015645,97.8932256 78.1953125,98.6015625 C77.7890605,99.3098994 77.0286514,100.205724 75.9140625,101.289062 L73.4140625,103.734375 L73.4140625,103.796875 L79.2890625,103.796875 L79.2890625,105 Z M81.0625,100.117188 C81.0625,97.8723846 81.4986936,96.194016 82.3710938,95.0820312 C83.2434939,93.9700465 84.5338456,93.4140625 86.2421875,93.4140625 C86.8307321,93.4140625 87.2942691,93.4635412 87.6328125,93.5625 L87.6328125,94.6796875 C87.2317688,94.5494785 86.7734401,94.484375 86.2578125,94.484375 C85.033848,94.484375 84.0989616,94.8658816 83.453125,95.6289062 C82.8072884,96.3919309 82.4531253,97.5911377 82.390625,99.2265625 L82.484375,99.2265625 C83.0572945,98.3307247 83.9635355,97.8828125 85.203125,97.8828125 C86.2291718,97.8828125 87.0377575,98.1927052 87.6289062,98.8125 C88.220055,99.4322948 88.515625,100.273432 88.515625,101.335938 C88.515625,102.523443 88.1914095,103.457028 87.5429688,104.136719 C86.894528,104.81641 86.0182347,105.15625 84.9140625,105.15625 C83.7317649,105.15625 82.7942743,104.712244 82.1015625,103.824219 C81.4088507,102.936193 81.0625,101.700529 81.0625,100.117188 L81.0625,100.117188 Z M84.8984375,104.054688 C85.6380245,104.054688 86.2122375,103.821617 86.6210938,103.355469 C87.02995,102.889321 87.234375,102.21615 87.234375,101.335938 C87.234375,100.580725 87.0442727,99.9869813 86.6640625,99.5546875 C86.2838523,99.1223937 85.7161496,98.90625 84.9609375,98.90625 C84.4921852,98.90625 84.062502,99.0026032 83.671875,99.1953125 C83.281248,99.3880218 82.9700532,99.6536441 82.7382812,99.9921875 C82.5065093,100.330731 82.390625,100.68229 82.390625,101.046875 C82.390625,101.583336 82.4947906,102.083331 82.703125,102.546875 C82.9114594,103.010419 83.2070293,103.377603 83.5898438,103.648438 C83.9726582,103.919272 84.4088517,104.054688 84.8984375,104.054688 L84.8984375,104.054688 Z" id="26" fill="#D0D0D0"></path>
                <path d="M133.289062,105 L125.78125,105 L125.78125,103.882812 L128.789062,100.859375 C129.705734,99.932287 130.309894,99.2708353 130.601562,98.875 C130.893231,98.4791647 131.111978,98.0937519 131.257812,97.71875 C131.403647,97.3437481 131.476562,96.9401063 131.476562,96.5078125 C131.476562,95.8984345 131.291669,95.4153664 130.921875,95.0585938 C130.552081,94.7018211 130.039066,94.5234375 129.382812,94.5234375 C128.908852,94.5234375 128.459638,94.6015617 128.035156,94.7578125 C127.610675,94.9140633 127.138023,95.1979146 126.617188,95.609375 L125.929688,94.7265625 C126.981776,93.8515581 128.127598,93.4140625 129.367188,93.4140625 C130.44011,93.4140625 131.281247,93.6887993 131.890625,94.2382812 C132.500003,94.7877632 132.804688,95.526037 132.804688,96.453125 C132.804688,97.177087 132.601565,97.8932256 132.195312,98.6015625 C131.78906,99.3098994 131.028651,100.205724 129.914062,101.289062 L127.414062,103.734375 L127.414062,103.796875 L133.289062,103.796875 L133.289062,105 Z M136.375,105 L141.109375,94.7734375 L134.882812,94.7734375 L134.882812,93.578125 L142.484375,93.578125 L142.484375,94.6171875 L137.8125,105 L136.375,105 Z" id="27" fill="#D0D0D0"></path>
                <path d="M185.289062,105 L177.78125,105 L177.78125,103.882812 L180.789062,100.859375 C181.705734,99.932287 182.309894,99.2708353 182.601562,98.875 C182.893231,98.4791647 183.111978,98.0937519 183.257812,97.71875 C183.403647,97.3437481 183.476562,96.9401063 183.476562,96.5078125 C183.476562,95.8984345 183.291669,95.4153664 182.921875,95.0585938 C182.552081,94.7018211 182.039066,94.5234375 181.382812,94.5234375 C180.908852,94.5234375 180.459638,94.6015617 180.035156,94.7578125 C179.610675,94.9140633 179.138023,95.1979146 178.617188,95.609375 L177.929688,94.7265625 C178.981776,93.8515581 180.127598,93.4140625 181.367188,93.4140625 C182.44011,93.4140625 183.281247,93.6887993 183.890625,94.2382812 C184.500003,94.7877632 184.804688,95.526037 184.804688,96.453125 C184.804688,97.177087 184.601565,97.8932256 184.195312,98.6015625 C183.78906,99.3098994 183.028651,100.205724 181.914062,101.289062 L179.414062,103.734375 L179.414062,103.796875 L185.289062,103.796875 L185.289062,105 Z M190.710938,93.4140625 C191.752609,93.4140625 192.578122,93.6562476 193.1875,94.140625 C193.796878,94.6250024 194.101562,95.2942666 194.101562,96.1484375 C194.101562,96.7109403 193.927085,97.223956 193.578125,97.6875 C193.229165,98.151044 192.671879,98.5729148 191.90625,98.953125 C192.833338,99.3958355 193.492186,99.8606746 193.882812,100.347656 C194.273439,100.834638 194.46875,101.398434 194.46875,102.039062 C194.46875,102.986984 194.138024,103.743487 193.476562,104.308594 C192.815101,104.873701 191.90886,105.15625 190.757812,105.15625 C189.539056,105.15625 188.601566,104.889326 187.945312,104.355469 C187.289059,103.821612 186.960938,103.065109 186.960938,102.085938 C186.960938,100.778639 187.757805,99.7604203 189.351562,99.03125 C188.632809,98.624998 188.117189,98.1862003 187.804688,97.7148438 C187.492186,97.2434872 187.335938,96.7161488 187.335938,96.1328125 C187.335938,95.3046834 187.641924,94.6445337 188.253906,94.1523438 C188.865888,93.6601538 189.684891,93.4140625 190.710938,93.4140625 L190.710938,93.4140625 Z M188.242188,102.117188 C188.242188,102.742191 188.459633,103.229165 188.894531,103.578125 C189.329429,103.927085 189.9401,104.101562 190.726562,104.101562 C191.502608,104.101562 192.106769,103.919273 192.539062,103.554688 C192.971356,103.190102 193.1875,102.690107 193.1875,102.054688 C193.1875,101.549477 192.984377,101.100262 192.578125,100.707031 C192.171873,100.3138 191.463547,99.9322935 190.453125,99.5625 C189.677079,99.895835 189.114585,100.264321 188.765625,100.667969 C188.416665,101.071617 188.242188,101.554685 188.242188,102.117188 L188.242188,102.117188 Z M190.695312,94.46875 C190.044268,94.46875 189.533856,94.6249984 189.164062,94.9375 C188.794269,95.2500016 188.609375,95.6666641 188.609375,96.1875 C188.609375,96.6666691 188.763019,97.0781233 189.070312,97.421875 C189.377606,97.7656267 189.945308,98.1093733 190.773438,98.453125 C191.518233,98.1406234 192.045571,97.8046893 192.355469,97.4453125 C192.665366,97.0859357 192.820312,96.6666691 192.820312,96.1875 C192.820312,95.6614557 192.631512,95.2434911 192.253906,94.9335938 C191.8763,94.6236964 191.356774,94.46875 190.695312,94.46875 L190.695312,94.46875 Z" id="28" fill="#D0D0D0"></path>
                <path d="M241.289062,105 L233.78125,105 L233.78125,103.882812 L236.789062,100.859375 C237.705734,99.932287 238.309894,99.2708353 238.601562,98.875 C238.893231,98.4791647 239.111978,98.0937519 239.257812,97.71875 C239.403647,97.3437481 239.476562,96.9401063 239.476562,96.5078125 C239.476562,95.8984345 239.291669,95.4153664 238.921875,95.0585938 C238.552081,94.7018211 238.039066,94.5234375 237.382812,94.5234375 C236.908852,94.5234375 236.459638,94.6015617 236.035156,94.7578125 C235.610675,94.9140633 235.138023,95.1979146 234.617188,95.609375 L233.929688,94.7265625 C234.981776,93.8515581 236.127598,93.4140625 237.367188,93.4140625 C238.44011,93.4140625 239.281247,93.6887993 239.890625,94.2382812 C240.500003,94.7877632 240.804688,95.526037 240.804688,96.453125 C240.804688,97.177087 240.601565,97.8932256 240.195312,98.6015625 C239.78906,99.3098994 239.028651,100.205724 237.914062,101.289062 L235.414062,103.734375 L235.414062,103.796875 L241.289062,103.796875 L241.289062,105 Z M250.4375,98.453125 C250.4375,102.921897 248.708351,105.15625 245.25,105.15625 C244.64583,105.15625 244.166668,105.104167 243.8125,105 L243.8125,103.882812 C244.229169,104.01823 244.703122,104.085938 245.234375,104.085938 C246.484381,104.085938 247.428382,103.699223 248.066406,102.925781 C248.70443,102.15234 249.052083,100.966154 249.109375,99.3671875 L249.015625,99.3671875 C248.729165,99.7994813 248.348961,100.128905 247.875,100.355469 C247.401039,100.582032 246.86719,100.695312 246.273438,100.695312 C245.263016,100.695312 244.46094,100.393232 243.867188,99.7890625 C243.273435,99.1848928 242.976562,98.3411513 242.976562,97.2578125 C242.976562,96.0703066 243.30859,95.1328159 243.972656,94.4453125 C244.636722,93.7578091 245.510411,93.4140625 246.59375,93.4140625 C247.369796,93.4140625 248.048174,93.6132793 248.628906,94.0117188 C249.209638,94.4101582 249.656248,94.9908816 249.96875,95.7539062 C250.281252,96.5169309 250.4375,97.4166615 250.4375,98.453125 L250.4375,98.453125 Z M246.59375,94.5234375 C245.848955,94.5234375 245.27344,94.7630184 244.867188,95.2421875 C244.460935,95.7213566 244.257812,96.3880166 244.257812,97.2421875 C244.257812,97.9921913 244.445311,98.5820291 244.820312,99.0117188 C245.195314,99.4414084 245.765621,99.65625 246.53125,99.65625 C247.005211,99.65625 247.441404,99.5598968 247.839844,99.3671875 C248.238283,99.1744782 248.552082,98.91146 248.78125,98.578125 C249.010418,98.24479 249.125,97.8958352 249.125,97.53125 C249.125,96.9843723 249.01823,96.479169 248.804688,96.015625 C248.591145,95.552081 248.292971,95.1875013 247.910156,94.921875 C247.527342,94.6562487 247.088544,94.5234375 246.59375,94.5234375 L246.59375,94.5234375 Z" id="29" fill="#D0D0D0"></path>
                <path d="M291.859375,96.265625 C291.859375,96.9947953 291.65495,97.5911435 291.246094,98.0546875 C290.837238,98.5182315 290.257816,98.8281242 289.507812,98.984375 L289.507812,99.046875 C290.424484,99.1614589 291.104164,99.4531227 291.546875,99.921875 C291.989586,100.390627 292.210938,101.005205 292.210938,101.765625 C292.210938,102.854172 291.833337,103.691403 291.078125,104.277344 C290.322913,104.863284 289.250007,105.15625 287.859375,105.15625 C287.255205,105.15625 286.701825,105.110678 286.199219,105.019531 C285.696612,104.928385 285.208336,104.76823 284.734375,104.539062 L284.734375,103.304688 C285.229169,103.54948 285.756508,103.735676 286.316406,103.863281 C286.876305,103.990886 287.406247,104.054688 287.90625,104.054688 C289.880218,104.054688 290.867188,103.281258 290.867188,101.734375 C290.867188,100.348951 289.778657,99.65625 287.601562,99.65625 L286.476562,99.65625 L286.476562,98.5390625 L287.617188,98.5390625 C288.507817,98.5390625 289.213539,98.3424499 289.734375,97.9492188 C290.255211,97.5559876 290.515625,97.0104202 290.515625,96.3125 C290.515625,95.7552055 290.324221,95.3177099 289.941406,95 C289.558592,94.6822901 289.039066,94.5234375 288.382812,94.5234375 C287.88281,94.5234375 287.411461,94.5911452 286.96875,94.7265625 C286.526039,94.8619798 286.020836,95.1119773 285.453125,95.4765625 L284.796875,94.6015625 C285.265627,94.231769 285.805987,93.9414073 286.417969,93.7304688 C287.029951,93.5195302 287.674476,93.4140625 288.351562,93.4140625 C289.460943,93.4140625 290.322914,93.6679662 290.9375,94.1757812 C291.552086,94.6835963 291.859375,95.3802039 291.859375,96.265625 L291.859375,96.265625 Z M301.5,99.2734375 C301.5,101.247406 301.188805,102.721349 300.566406,103.695312 C299.944007,104.669276 298.992194,105.15625 297.710938,105.15625 C296.481765,105.15625 295.546878,104.657557 294.90625,103.660156 C294.265622,102.662755 293.945312,101.20053 293.945312,99.2734375 C293.945312,97.2838442 294.255205,95.8072965 294.875,94.84375 C295.494795,93.8802035 296.440098,93.3984375 297.710938,93.3984375 C298.950527,93.3984375 299.891924,93.9010366 300.535156,94.90625 C301.178389,95.9114634 301.5,97.367178 301.5,99.2734375 L301.5,99.2734375 Z M295.257812,99.2734375 C295.257812,100.934904 295.453123,102.144527 295.84375,102.902344 C296.234377,103.66016 296.856767,104.039062 297.710938,104.039062 C298.575525,104.039062 299.201821,103.654952 299.589844,102.886719 C299.977867,102.118486 300.171875,100.914071 300.171875,99.2734375 C300.171875,97.6328043 299.977867,96.4309934 299.589844,95.6679688 C299.201821,94.9049441 298.575525,94.5234375 297.710938,94.5234375 C296.856767,94.5234375 296.234377,94.8997358 295.84375,95.6523438 C295.453123,96.4049517 295.257812,97.6119709 295.257812,99.2734375 L295.257812,99.2734375 Z" id="30" fill="#D0D0D0"></path>
                <path d="M344.585938,105 L343.320312,105 L343.320312,96.859375 C343.320312,96.1822883 343.341146,95.5416697 343.382812,94.9375 C343.273437,95.0468755 343.151042,95.1614577 343.015625,95.28125 C342.880208,95.4010423 342.260422,95.9088497 341.15625,96.8046875 L340.46875,95.9140625 L343.492188,93.578125 L344.585938,93.578125 L344.585938,105 Z" id="1" fill="#4A4A4A"></path>
                <path d="M33.2890625,145 L25.78125,145 L25.78125,143.882812 L28.7890625,140.859375 C29.7057337,139.932287 30.3098944,139.270835 30.6015625,138.875 C30.8932306,138.479165 31.1119784,138.093752 31.2578125,137.71875 C31.4036466,137.343748 31.4765625,136.940106 31.4765625,136.507812 C31.4765625,135.898434 31.2916685,135.415366 30.921875,135.058594 C30.5520815,134.701821 30.0390658,134.523438 29.3828125,134.523438 C28.9088518,134.523438 28.4596375,134.601562 28.0351562,134.757812 C27.610675,134.914063 27.1380234,135.197915 26.6171875,135.609375 L25.9296875,134.726562 C26.9817761,133.851558 28.127598,133.414062 29.3671875,133.414062 C30.4401095,133.414062 31.281247,133.688799 31.890625,134.238281 C32.500003,134.787763 32.8046875,135.526037 32.8046875,136.453125 C32.8046875,137.177087 32.6015645,137.893226 32.1953125,138.601562 C31.7890605,139.309899 31.0286514,140.205724 29.9140625,141.289062 L27.4140625,143.734375 L27.4140625,143.796875 L33.2890625,143.796875 L33.2890625,145 Z" id="2" fill="#4A4A4A"></path>
                <path d="M87.859375,136.265625 C87.859375,136.994795 87.65495,137.591144 87.2460938,138.054688 C86.8372375,138.518231 86.2578163,138.828124 85.5078125,138.984375 L85.5078125,139.046875 C86.4244837,139.161459 87.1041645,139.453123 87.546875,139.921875 C87.9895855,140.390627 88.2109375,141.005205 88.2109375,141.765625 C88.2109375,142.854172 87.8333371,143.691403 87.078125,144.277344 C86.3229129,144.863284 85.250007,145.15625 83.859375,145.15625 C83.2552053,145.15625 82.7018254,145.110678 82.1992188,145.019531 C81.6966121,144.928385 81.2083357,144.76823 80.734375,144.539062 L80.734375,143.304688 C81.2291691,143.54948 81.7565076,143.735676 82.3164062,143.863281 C82.8763049,143.990886 83.4062475,144.054688 83.90625,144.054688 C85.8802182,144.054688 86.8671875,143.281258 86.8671875,141.734375 C86.8671875,140.348951 85.7786567,139.65625 83.6015625,139.65625 L82.4765625,139.65625 L82.4765625,138.539062 L83.6171875,138.539062 C84.507817,138.539062 85.2135391,138.34245 85.734375,137.949219 C86.2552109,137.555988 86.515625,137.01042 86.515625,136.3125 C86.515625,135.755206 86.3242207,135.31771 85.9414062,135 C85.5585918,134.68229 85.0390658,134.523438 84.3828125,134.523438 C83.88281,134.523438 83.4114605,134.591145 82.96875,134.726562 C82.5260395,134.86198 82.0208362,135.111977 81.453125,135.476562 L80.796875,134.601562 C81.2656273,134.231769 81.8059865,133.941407 82.4179688,133.730469 C83.029951,133.51953 83.6744758,133.414062 84.3515625,133.414062 C85.460943,133.414062 86.3229136,133.667966 86.9375,134.175781 C87.5520864,134.683596 87.859375,135.380204 87.859375,136.265625 L87.859375,136.265625 Z" id="3" fill="#4A4A4A"></path>
                <path d="M140.828125,142.375 L139.132812,142.375 L139.132812,145 L137.890625,145 L137.890625,142.375 L132.335938,142.375 L132.335938,141.242188 L137.757812,133.515625 L139.132812,133.515625 L139.132812,141.195312 L140.828125,141.195312 L140.828125,142.375 Z M137.890625,141.195312 L137.890625,137.398438 C137.890625,136.653642 137.916666,135.812505 137.96875,134.875 L137.90625,134.875 C137.656249,135.375003 137.421876,135.789061 137.203125,136.117188 L133.632812,141.195312 L137.890625,141.195312 Z" id="4" fill="#4A4A4A"></path>
                <path d="M190.351562,138.023438 C191.554694,138.023438 192.501299,138.321612 193.191406,138.917969 C193.881514,139.514326 194.226562,140.330724 194.226562,141.367188 C194.226562,142.549485 193.850264,143.476559 193.097656,144.148438 C192.345048,144.820316 191.307298,145.15625 189.984375,145.15625 C188.69791,145.15625 187.716149,144.950523 187.039062,144.539062 L187.039062,143.289062 C187.403648,143.523439 187.856768,143.707031 188.398438,143.839844 C188.940107,143.972657 189.473956,144.039062 190,144.039062 C190.916671,144.039062 191.628904,143.822919 192.136719,143.390625 C192.644534,142.958331 192.898438,142.333337 192.898438,141.515625 C192.898438,139.921867 191.921885,139.125 189.96875,139.125 C189.473956,139.125 188.812504,139.20052 187.984375,139.351562 L187.3125,138.921875 L187.742188,133.578125 L193.421875,133.578125 L193.421875,134.773438 L188.851562,134.773438 L188.5625,138.203125 C189.161461,138.083333 189.75781,138.023438 190.351562,138.023438 L190.351562,138.023438 Z" id="5" fill="#4A4A4A"></path>
                <path d="M242.914062,140.117188 C242.914062,137.872385 243.350256,136.194016 244.222656,135.082031 C245.095056,133.970047 246.385408,133.414062 248.09375,133.414062 C248.682295,133.414062 249.145832,133.463541 249.484375,133.5625 L249.484375,134.679688 C249.083331,134.549479 248.625003,134.484375 248.109375,134.484375 C246.885411,134.484375 245.950524,134.865882 245.304688,135.628906 C244.658851,136.391931 244.304688,137.591138 244.242188,139.226562 L244.335938,139.226562 C244.908857,138.330725 245.815098,137.882812 247.054688,137.882812 C248.080734,137.882812 248.88932,138.192705 249.480469,138.8125 C250.071618,139.432295 250.367188,140.273432 250.367188,141.335938 C250.367188,142.523443 250.042972,143.457028 249.394531,144.136719 C248.746091,144.81641 247.869797,145.15625 246.765625,145.15625 C245.583327,145.15625 244.645837,144.712244 243.953125,143.824219 C243.260413,142.936193 242.914062,141.700529 242.914062,140.117188 L242.914062,140.117188 Z M246.75,144.054688 C247.489587,144.054688 248.0638,143.821617 248.472656,143.355469 C248.881512,142.889321 249.085938,142.21615 249.085938,141.335938 C249.085938,140.580725 248.895835,139.986981 248.515625,139.554688 C248.135415,139.122394 247.567712,138.90625 246.8125,138.90625 C246.343748,138.90625 245.914064,139.002603 245.523438,139.195312 C245.132811,139.388022 244.821616,139.653644 244.589844,139.992188 C244.358072,140.330731 244.242188,140.68229 244.242188,141.046875 C244.242188,141.583336 244.346353,142.083331 244.554688,142.546875 C244.763022,143.010419 245.058592,143.377603 245.441406,143.648438 C245.824221,143.919272 246.260414,144.054688 246.75,144.054688 L246.75,144.054688 Z" id="6" fill="#4A4A4A"></path>
                <polygon id="7" fill="#4A4A4A" points="295.226562 145 299.960938 134.773438 293.734375 134.773438 293.734375 133.578125 301.335938 133.578125 301.335938 134.617188 296.664062 145"></polygon>
                <path d="M343.5625,133.414062 C344.604172,133.414062 345.429684,133.656248 346.039062,134.140625 C346.648441,134.625002 346.953125,135.294267 346.953125,136.148438 C346.953125,136.71094 346.778648,137.223956 346.429688,137.6875 C346.080727,138.151044 345.523441,138.572915 344.757812,138.953125 C345.6849,139.395836 346.343748,139.860675 346.734375,140.347656 C347.125002,140.834638 347.320312,141.398434 347.320312,142.039062 C347.320312,142.986984 346.989587,143.743487 346.328125,144.308594 C345.666663,144.873701 344.760422,145.15625 343.609375,145.15625 C342.390619,145.15625 341.453128,144.889326 340.796875,144.355469 C340.140622,143.821612 339.8125,143.065109 339.8125,142.085938 C339.8125,140.778639 340.609367,139.76042 342.203125,139.03125 C341.484371,138.624998 340.968752,138.1862 340.65625,137.714844 C340.343748,137.243487 340.1875,136.716149 340.1875,136.132812 C340.1875,135.304683 340.493487,134.644534 341.105469,134.152344 C341.717451,133.660154 342.536453,133.414062 343.5625,133.414062 L343.5625,133.414062 Z M341.09375,142.117188 C341.09375,142.742191 341.311196,143.229165 341.746094,143.578125 C342.180992,143.927085 342.791663,144.101562 343.578125,144.101562 C344.354171,144.101562 344.958331,143.919273 345.390625,143.554688 C345.822919,143.190102 346.039062,142.690107 346.039062,142.054688 C346.039062,141.549477 345.83594,141.100262 345.429688,140.707031 C345.023435,140.3138 344.315109,139.932294 343.304688,139.5625 C342.528642,139.895835 341.966148,140.264321 341.617188,140.667969 C341.268227,141.071617 341.09375,141.554685 341.09375,142.117188 L341.09375,142.117188 Z M343.546875,134.46875 C342.89583,134.46875 342.385419,134.624998 342.015625,134.9375 C341.645831,135.250002 341.460938,135.666664 341.460938,136.1875 C341.460938,136.666669 341.614582,137.078123 341.921875,137.421875 C342.229168,137.765627 342.796871,138.109373 343.625,138.453125 C344.369795,138.140623 344.897134,137.804689 345.207031,137.445312 C345.516929,137.085936 345.671875,136.666669 345.671875,136.1875 C345.671875,135.661456 345.483075,135.243491 345.105469,134.933594 C344.727863,134.623696 344.208337,134.46875 343.546875,134.46875 L343.546875,134.46875 Z" id="8" fill="#4A4A4A"></path>
                <path d="M137.585938,305 L136.320312,305 L136.320312,296.859375 C136.320312,296.182288 136.341146,295.54167 136.382812,294.9375 C136.273437,295.046876 136.151042,295.161458 136.015625,295.28125 C135.880208,295.401042 135.260422,295.90885 134.15625,296.804688 L133.46875,295.914062 L136.492188,293.578125 L137.585938,293.578125 L137.585938,305 Z" id="1" fill="#D0D0D0"></path>
                <path d="M194.289062,305 L186.78125,305 L186.78125,303.882812 L189.789062,300.859375 C190.705734,299.932287 191.309894,299.270835 191.601562,298.875 C191.893231,298.479165 192.111978,298.093752 192.257812,297.71875 C192.403647,297.343748 192.476562,296.940106 192.476562,296.507812 C192.476562,295.898434 192.291669,295.415366 191.921875,295.058594 C191.552081,294.701821 191.039066,294.523438 190.382812,294.523438 C189.908852,294.523438 189.459638,294.601562 189.035156,294.757812 C188.610675,294.914063 188.138023,295.197915 187.617188,295.609375 L186.929688,294.726562 C187.981776,293.851558 189.127598,293.414062 190.367188,293.414062 C191.44011,293.414062 192.281247,293.688799 192.890625,294.238281 C193.500003,294.787763 193.804688,295.526037 193.804688,296.453125 C193.804688,297.177087 193.601565,297.893226 193.195312,298.601562 C192.78906,299.309899 192.028651,300.205724 190.914062,301.289062 L188.414062,303.734375 L188.414062,303.796875 L194.289062,303.796875 L194.289062,305 Z" id="2" fill="#D0D0D0"></path>
                <path d="M249.859375,296.265625 C249.859375,296.994795 249.65495,297.591144 249.246094,298.054688 C248.837238,298.518231 248.257816,298.828124 247.507812,298.984375 L247.507812,299.046875 C248.424484,299.161459 249.104164,299.453123 249.546875,299.921875 C249.989586,300.390627 250.210938,301.005205 250.210938,301.765625 C250.210938,302.854172 249.833337,303.691403 249.078125,304.277344 C248.322913,304.863284 247.250007,305.15625 245.859375,305.15625 C245.255205,305.15625 244.701825,305.110678 244.199219,305.019531 C243.696612,304.928385 243.208336,304.76823 242.734375,304.539062 L242.734375,303.304688 C243.229169,303.54948 243.756508,303.735676 244.316406,303.863281 C244.876305,303.990886 245.406247,304.054688 245.90625,304.054688 C247.880218,304.054688 248.867188,303.281258 248.867188,301.734375 C248.867188,300.348951 247.778657,299.65625 245.601562,299.65625 L244.476562,299.65625 L244.476562,298.539062 L245.617188,298.539062 C246.507817,298.539062 247.213539,298.34245 247.734375,297.949219 C248.255211,297.555988 248.515625,297.01042 248.515625,296.3125 C248.515625,295.755206 248.324221,295.31771 247.941406,295 C247.558592,294.68229 247.039066,294.523438 246.382812,294.523438 C245.88281,294.523438 245.411461,294.591145 244.96875,294.726562 C244.526039,294.86198 244.020836,295.111977 243.453125,295.476562 L242.796875,294.601562 C243.265627,294.231769 243.805987,293.941407 244.417969,293.730469 C245.029951,293.51953 245.674476,293.414062 246.351562,293.414062 C247.460943,293.414062 248.322914,293.667966 248.9375,294.175781 C249.552086,294.683596 249.859375,295.380204 249.859375,296.265625 L249.859375,296.265625 Z" id="3" fill="#D0D0D0"></path>
                <path d="M301.828125,302.375 L300.132812,302.375 L300.132812,305 L298.890625,305 L298.890625,302.375 L293.335938,302.375 L293.335938,301.242188 L298.757812,293.515625 L300.132812,293.515625 L300.132812,301.195312 L301.828125,301.195312 L301.828125,302.375 Z M298.890625,301.195312 L298.890625,297.398438 C298.890625,296.653642 298.916666,295.812505 298.96875,294.875 L298.90625,294.875 C298.656249,295.375003 298.421876,295.789061 298.203125,296.117188 L294.632812,301.195312 L298.890625,301.195312 Z" id="4" fill="#D0D0D0"></path>
                <path d="M343.351562,298.023438 C344.554694,298.023438 345.501299,298.321612 346.191406,298.917969 C346.881514,299.514326 347.226562,300.330724 347.226562,301.367188 C347.226562,302.549485 346.850264,303.476559 346.097656,304.148438 C345.345048,304.820316 344.307298,305.15625 342.984375,305.15625 C341.69791,305.15625 340.716149,304.950523 340.039062,304.539062 L340.039062,303.289062 C340.403648,303.523439 340.856768,303.707031 341.398438,303.839844 C341.940107,303.972657 342.473956,304.039062 343,304.039062 C343.916671,304.039062 344.628904,303.822919 345.136719,303.390625 C345.644534,302.958331 345.898438,302.333337 345.898438,301.515625 C345.898438,299.921867 344.921885,299.125 342.96875,299.125 C342.473956,299.125 341.812504,299.20052 340.984375,299.351562 L340.3125,298.921875 L340.742188,293.578125 L346.421875,293.578125 L346.421875,294.773438 L341.851562,294.773438 L341.5625,298.203125 C342.161461,298.083333 342.75781,298.023438 343.351562,298.023438 L343.351562,298.023438 Z" id="5" fill="#D0D0D0"></path>
                <path d="M33.2890625,178.453125 C33.2890625,182.921897 31.5599131,185.15625 28.1015625,185.15625 C27.4973928,185.15625 27.0182309,185.104167 26.6640625,185 L26.6640625,183.882812 C27.0807312,184.01823 27.5546848,184.085938 28.0859375,184.085938 C29.3359438,184.085938 30.2799447,183.699223 30.9179688,182.925781 C31.5559928,182.15234 31.9036455,180.966154 31.9609375,179.367188 L31.8671875,179.367188 C31.5807277,179.799481 31.2005232,180.128905 30.7265625,180.355469 C30.2526018,180.582032 29.718753,180.695312 29.125,180.695312 C28.1145783,180.695312 27.312503,180.393232 26.71875,179.789062 C26.124997,179.184893 25.828125,178.341151 25.828125,177.257812 C25.828125,176.070307 26.1601529,175.132816 26.8242188,174.445312 C27.4882846,173.757809 28.3619738,173.414062 29.4453125,173.414062 C30.221358,173.414062 30.8997367,173.613279 31.4804688,174.011719 C32.0612008,174.410158 32.5078109,174.990882 32.8203125,175.753906 C33.1328141,176.516931 33.2890625,177.416661 33.2890625,178.453125 L33.2890625,178.453125 Z M29.4453125,174.523438 C28.7005171,174.523438 28.125002,174.763018 27.71875,175.242188 C27.312498,175.721357 27.109375,176.388017 27.109375,177.242188 C27.109375,177.992191 27.2968731,178.582029 27.671875,179.011719 C28.0468769,179.441408 28.6171837,179.65625 29.3828125,179.65625 C29.8567732,179.65625 30.2929668,179.559897 30.6914062,179.367188 C31.0898457,179.174478 31.4036447,178.91146 31.6328125,178.578125 C31.8619803,178.24479 31.9765625,177.895835 31.9765625,177.53125 C31.9765625,176.984372 31.8697927,176.479169 31.65625,176.015625 C31.4427073,175.552081 31.1445332,175.187501 30.7617188,174.921875 C30.3789043,174.656249 29.9401066,174.523438 29.4453125,174.523438 L29.4453125,174.523438 Z" id="9" fill="#4A4A4A"></path>
                <path d="M76.5859375,185 L75.3203125,185 L75.3203125,176.859375 C75.3203125,176.182288 75.3411456,175.54167 75.3828125,174.9375 C75.273437,175.046876 75.1510423,175.161458 75.015625,175.28125 C74.8802077,175.401042 74.2604222,175.90885 73.15625,176.804688 L72.46875,175.914062 L75.4921875,173.578125 L76.5859375,173.578125 L76.5859375,185 Z M88.5,179.273438 C88.5,181.247406 88.1888052,182.721349 87.5664062,183.695312 C86.9440073,184.669276 85.9921939,185.15625 84.7109375,185.15625 C83.4817647,185.15625 82.5468782,184.657557 81.90625,183.660156 C81.2656218,182.662755 80.9453125,181.20053 80.9453125,179.273438 C80.9453125,177.283844 81.2552052,175.807296 81.875,174.84375 C82.4947948,173.880204 83.4400978,173.398438 84.7109375,173.398438 C85.950527,173.398438 86.8919239,173.901037 87.5351562,174.90625 C88.1783886,175.911463 88.5,177.367178 88.5,179.273438 L88.5,179.273438 Z M82.2578125,179.273438 C82.2578125,180.934904 82.453123,182.144527 82.84375,182.902344 C83.234377,183.66016 83.8567666,184.039062 84.7109375,184.039062 C85.5755252,184.039062 86.201821,183.654952 86.5898438,182.886719 C86.9778665,182.118486 87.171875,180.914071 87.171875,179.273438 C87.171875,177.632804 86.9778665,176.430993 86.5898438,175.667969 C86.201821,174.904944 85.5755252,174.523438 84.7109375,174.523438 C83.8567666,174.523438 83.234377,174.899736 82.84375,175.652344 C82.453123,176.404952 82.2578125,177.611971 82.2578125,179.273438 L82.2578125,179.273438 Z" id="10" fill="#4A4A4A"></path>
                <path d="M130.585938,185 L129.320312,185 L129.320312,176.859375 C129.320312,176.182288 129.341146,175.54167 129.382812,174.9375 C129.273437,175.046876 129.151042,175.161458 129.015625,175.28125 C128.880208,175.401042 128.260422,175.90885 127.15625,176.804688 L126.46875,175.914062 L129.492188,173.578125 L130.585938,173.578125 L130.585938,185 Z M139.734375,185 L138.46875,185 L138.46875,176.859375 C138.46875,176.182288 138.489583,175.54167 138.53125,174.9375 C138.421874,175.046876 138.29948,175.161458 138.164062,175.28125 C138.028645,175.401042 137.40886,175.90885 136.304688,176.804688 L135.617188,175.914062 L138.640625,173.578125 L139.734375,173.578125 L139.734375,185 Z" id="11" fill="#4A4A4A"></path>
                <path d="M182.585938,185 L181.320312,185 L181.320312,176.859375 C181.320312,176.182288 181.341146,175.54167 181.382812,174.9375 C181.273437,175.046876 181.151042,175.161458 181.015625,175.28125 C180.880208,175.401042 180.260422,175.90885 179.15625,176.804688 L178.46875,175.914062 L181.492188,173.578125 L182.585938,173.578125 L182.585938,185 Z M194.4375,185 L186.929688,185 L186.929688,183.882812 L189.9375,180.859375 C190.854171,179.932287 191.458332,179.270835 191.75,178.875 C192.041668,178.479165 192.260416,178.093752 192.40625,177.71875 C192.552084,177.343748 192.625,176.940106 192.625,176.507812 C192.625,175.898434 192.440106,175.415366 192.070312,175.058594 C191.700519,174.701821 191.187503,174.523438 190.53125,174.523438 C190.057289,174.523438 189.608075,174.601562 189.183594,174.757812 C188.759112,174.914063 188.286461,175.197915 187.765625,175.609375 L187.078125,174.726562 C188.130214,173.851558 189.276035,173.414062 190.515625,173.414062 C191.588547,173.414062 192.429684,173.688799 193.039062,174.238281 C193.648441,174.787763 193.953125,175.526037 193.953125,176.453125 C193.953125,177.177087 193.750002,177.893226 193.34375,178.601562 C192.937498,179.309899 192.177089,180.205724 191.0625,181.289062 L188.5625,183.734375 L188.5625,183.796875 L194.4375,183.796875 L194.4375,185 Z" id="12" fill="#4A4A4A"></path>
                <path d="M238.585938,185 L237.320312,185 L237.320312,176.859375 C237.320312,176.182288 237.341146,175.54167 237.382812,174.9375 C237.273437,175.046876 237.151042,175.161458 237.015625,175.28125 C236.880208,175.401042 236.260422,175.90885 235.15625,176.804688 L234.46875,175.914062 L237.492188,173.578125 L238.585938,173.578125 L238.585938,185 Z M250.007812,176.265625 C250.007812,176.994795 249.803387,177.591144 249.394531,178.054688 C248.985675,178.518231 248.406254,178.828124 247.65625,178.984375 L247.65625,179.046875 C248.572921,179.161459 249.252602,179.453123 249.695312,179.921875 C250.138023,180.390627 250.359375,181.005205 250.359375,181.765625 C250.359375,182.854172 249.981775,183.691403 249.226562,184.277344 C248.47135,184.863284 247.398444,185.15625 246.007812,185.15625 C245.403643,185.15625 244.850263,185.110678 244.347656,185.019531 C243.84505,184.928385 243.356773,184.76823 242.882812,184.539062 L242.882812,183.304688 C243.377607,183.54948 243.904945,183.735676 244.464844,183.863281 C245.024742,183.990886 245.554685,184.054688 246.054688,184.054688 C248.028656,184.054688 249.015625,183.281258 249.015625,181.734375 C249.015625,180.348951 247.927094,179.65625 245.75,179.65625 L244.625,179.65625 L244.625,178.539062 L245.765625,178.539062 C246.656254,178.539062 247.361977,178.34245 247.882812,177.949219 C248.403648,177.555988 248.664062,177.01042 248.664062,176.3125 C248.664062,175.755206 248.472658,175.31771 248.089844,175 C247.707029,174.68229 247.187503,174.523438 246.53125,174.523438 C246.031247,174.523438 245.559898,174.591145 245.117188,174.726562 C244.674477,174.86198 244.169274,175.111977 243.601562,175.476562 L242.945312,174.601562 C243.414065,174.231769 243.954424,173.941407 244.566406,173.730469 C245.178388,173.51953 245.822913,173.414062 246.5,173.414062 C247.609381,173.414062 248.471351,173.667966 249.085938,174.175781 C249.700524,174.683596 250.007812,175.380204 250.007812,176.265625 L250.007812,176.265625 Z" id="13" fill="#4A4A4A"></path>
                <path d="M289.585938,185 L288.320312,185 L288.320312,176.859375 C288.320312,176.182288 288.341146,175.54167 288.382812,174.9375 C288.273437,175.046876 288.151042,175.161458 288.015625,175.28125 C287.880208,175.401042 287.260422,175.90885 286.15625,176.804688 L285.46875,175.914062 L288.492188,173.578125 L289.585938,173.578125 L289.585938,185 Z M301.976562,182.375 L300.28125,182.375 L300.28125,185 L299.039062,185 L299.039062,182.375 L293.484375,182.375 L293.484375,181.242188 L298.90625,173.515625 L300.28125,173.515625 L300.28125,181.195312 L301.976562,181.195312 L301.976562,182.375 Z M299.039062,181.195312 L299.039062,177.398438 C299.039062,176.653642 299.065104,175.812505 299.117188,174.875 L299.054688,174.875 C298.804686,175.375003 298.570314,175.789061 298.351562,176.117188 L294.78125,181.195312 L299.039062,181.195312 Z" id="14" fill="#4A4A4A"></path>
                <path d="M335.585938,185 L334.320312,185 L334.320312,176.859375 C334.320312,176.182288 334.341146,175.54167 334.382812,174.9375 C334.273437,175.046876 334.151042,175.161458 334.015625,175.28125 C333.880208,175.401042 333.260422,175.90885 332.15625,176.804688 L331.46875,175.914062 L334.492188,173.578125 L335.585938,173.578125 L335.585938,185 Z M343.5,178.023438 C344.703131,178.023438 345.649736,178.321612 346.339844,178.917969 C347.029951,179.514326 347.375,180.330724 347.375,181.367188 C347.375,182.549485 346.998702,183.476559 346.246094,184.148438 C345.493486,184.820316 344.455736,185.15625 343.132812,185.15625 C341.846348,185.15625 340.864587,184.950523 340.1875,184.539062 L340.1875,183.289062 C340.552085,183.523439 341.005206,183.707031 341.546875,183.839844 C342.088544,183.972657 342.622393,184.039062 343.148438,184.039062 C344.065109,184.039062 344.777341,183.822919 345.285156,183.390625 C345.792971,182.958331 346.046875,182.333337 346.046875,181.515625 C346.046875,179.921867 345.070322,179.125 343.117188,179.125 C342.622393,179.125 341.960942,179.20052 341.132812,179.351562 L340.460938,178.921875 L340.890625,173.578125 L346.570312,173.578125 L346.570312,174.773438 L342,174.773438 L341.710938,178.203125 C342.309899,178.083333 342.906247,178.023438 343.5,178.023438 L343.5,178.023438 Z" id="15" fill="#4A4A4A"></path>
                <path d="M21.5859375,225 L20.3203125,225 L20.3203125,216.859375 C20.3203125,216.182288 20.3411456,215.54167 20.3828125,214.9375 C20.273437,215.046876 20.1510423,215.161458 20.015625,215.28125 C19.8802077,215.401042 19.2604222,215.90885 18.15625,216.804688 L17.46875,215.914062 L20.4921875,213.578125 L21.5859375,213.578125 L21.5859375,225 Z M26.0625,220.117188 C26.0625,217.872385 26.4986936,216.194016 27.3710938,215.082031 C28.2434939,213.970047 29.5338456,213.414062 31.2421875,213.414062 C31.8307321,213.414062 32.2942691,213.463541 32.6328125,213.5625 L32.6328125,214.679688 C32.2317688,214.549479 31.7734401,214.484375 31.2578125,214.484375 C30.033848,214.484375 29.0989616,214.865882 28.453125,215.628906 C27.8072884,216.391931 27.4531253,217.591138 27.390625,219.226562 L27.484375,219.226562 C28.0572945,218.330725 28.9635355,217.882812 30.203125,217.882812 C31.2291718,217.882812 32.0377575,218.192705 32.6289062,218.8125 C33.220055,219.432295 33.515625,220.273432 33.515625,221.335938 C33.515625,222.523443 33.1914095,223.457028 32.5429688,224.136719 C31.894528,224.81641 31.0182347,225.15625 29.9140625,225.15625 C28.7317649,225.15625 27.7942743,224.712244 27.1015625,223.824219 C26.4088507,222.936193 26.0625,221.700529 26.0625,220.117188 L26.0625,220.117188 Z M29.8984375,224.054688 C30.6380245,224.054688 31.2122375,223.821617 31.6210938,223.355469 C32.02995,222.889321 32.234375,222.21615 32.234375,221.335938 C32.234375,220.580725 32.0442727,219.986981 31.6640625,219.554688 C31.2838523,219.122394 30.7161496,218.90625 29.9609375,218.90625 C29.4921852,218.90625 29.062502,219.002603 28.671875,219.195312 C28.281248,219.388022 27.9700532,219.653644 27.7382812,219.992188 C27.5065093,220.330731 27.390625,220.68229 27.390625,221.046875 C27.390625,221.583336 27.4947906,222.083331 27.703125,222.546875 C27.9114594,223.010419 28.2070293,223.377603 28.5898438,223.648438 C28.9726582,223.919272 29.4088517,224.054688 29.8984375,224.054688 L29.8984375,224.054688 Z" id="16" fill="#4A4A4A"></path>
                <path d="M76.5859375,225 L75.3203125,225 L75.3203125,216.859375 C75.3203125,216.182288 75.3411456,215.54167 75.3828125,214.9375 C75.273437,215.046876 75.1510423,215.161458 75.015625,215.28125 C74.8802077,215.401042 74.2604222,215.90885 73.15625,216.804688 L72.46875,215.914062 L75.4921875,213.578125 L76.5859375,213.578125 L76.5859375,225 Z M82.375,225 L87.109375,214.773438 L80.8828125,214.773438 L80.8828125,213.578125 L88.484375,213.578125 L88.484375,214.617188 L83.8125,225 L82.375,225 Z" id="17" fill="#4A4A4A"></path>
                <path d="M130.585938,225 L129.320312,225 L129.320312,216.859375 C129.320312,216.182288 129.341146,215.54167 129.382812,214.9375 C129.273437,215.046876 129.151042,215.161458 129.015625,215.28125 C128.880208,215.401042 128.260422,215.90885 127.15625,216.804688 L126.46875,215.914062 L129.492188,213.578125 L130.585938,213.578125 L130.585938,225 Z M138.710938,213.414062 C139.752609,213.414062 140.578122,213.656248 141.1875,214.140625 C141.796878,214.625002 142.101562,215.294267 142.101562,216.148438 C142.101562,216.71094 141.927085,217.223956 141.578125,217.6875 C141.229165,218.151044 140.671879,218.572915 139.90625,218.953125 C140.833338,219.395836 141.492186,219.860675 141.882812,220.347656 C142.273439,220.834638 142.46875,221.398434 142.46875,222.039062 C142.46875,222.986984 142.138024,223.743487 141.476562,224.308594 C140.815101,224.873701 139.90886,225.15625 138.757812,225.15625 C137.539056,225.15625 136.601566,224.889326 135.945312,224.355469 C135.289059,223.821612 134.960938,223.065109 134.960938,222.085938 C134.960938,220.778639 135.757805,219.76042 137.351562,219.03125 C136.632809,218.624998 136.117189,218.1862 135.804688,217.714844 C135.492186,217.243487 135.335938,216.716149 135.335938,216.132812 C135.335938,215.304683 135.641924,214.644534 136.253906,214.152344 C136.865888,213.660154 137.684891,213.414062 138.710938,213.414062 L138.710938,213.414062 Z M136.242188,222.117188 C136.242188,222.742191 136.459633,223.229165 136.894531,223.578125 C137.329429,223.927085 137.9401,224.101562 138.726562,224.101562 C139.502608,224.101562 140.106769,223.919273 140.539062,223.554688 C140.971356,223.190102 141.1875,222.690107 141.1875,222.054688 C141.1875,221.549477 140.984377,221.100262 140.578125,220.707031 C140.171873,220.3138 139.463547,219.932294 138.453125,219.5625 C137.677079,219.895835 137.114585,220.264321 136.765625,220.667969 C136.416665,221.071617 136.242188,221.554685 136.242188,222.117188 L136.242188,222.117188 Z M138.695312,214.46875 C138.044268,214.46875 137.533856,214.624998 137.164062,214.9375 C136.794269,215.250002 136.609375,215.666664 136.609375,216.1875 C136.609375,216.666669 136.763019,217.078123 137.070312,217.421875 C137.377606,217.765627 137.945308,218.109373 138.773438,218.453125 C139.518233,218.140623 140.045571,217.804689 140.355469,217.445312 C140.665366,217.085936 140.820312,216.666669 140.820312,216.1875 C140.820312,215.661456 140.631512,215.243491 140.253906,214.933594 C139.8763,214.623696 139.356774,214.46875 138.695312,214.46875 L138.695312,214.46875 Z" id="18" fill="#4A4A4A"></path>
                <path d="M182.585938,225 L181.320312,225 L181.320312,216.859375 C181.320312,216.182288 181.341146,215.54167 181.382812,214.9375 C181.273437,215.046876 181.151042,215.161458 181.015625,215.28125 C180.880208,215.401042 180.260422,215.90885 179.15625,216.804688 L178.46875,215.914062 L181.492188,213.578125 L182.585938,213.578125 L182.585938,225 Z M194.4375,218.453125 C194.4375,222.921897 192.708351,225.15625 189.25,225.15625 C188.64583,225.15625 188.166668,225.104167 187.8125,225 L187.8125,223.882812 C188.229169,224.01823 188.703122,224.085938 189.234375,224.085938 C190.484381,224.085938 191.428382,223.699223 192.066406,222.925781 C192.70443,222.15234 193.052083,220.966154 193.109375,219.367188 L193.015625,219.367188 C192.729165,219.799481 192.348961,220.128905 191.875,220.355469 C191.401039,220.582032 190.86719,220.695312 190.273438,220.695312 C189.263016,220.695312 188.46094,220.393232 187.867188,219.789062 C187.273435,219.184893 186.976562,218.341151 186.976562,217.257812 C186.976562,216.070307 187.30859,215.132816 187.972656,214.445312 C188.636722,213.757809 189.510411,213.414062 190.59375,213.414062 C191.369796,213.414062 192.048174,213.613279 192.628906,214.011719 C193.209638,214.410158 193.656248,214.990882 193.96875,215.753906 C194.281252,216.516931 194.4375,217.416661 194.4375,218.453125 L194.4375,218.453125 Z M190.59375,214.523438 C189.848955,214.523438 189.27344,214.763018 188.867188,215.242188 C188.460935,215.721357 188.257812,216.388017 188.257812,217.242188 C188.257812,217.992191 188.445311,218.582029 188.820312,219.011719 C189.195314,219.441408 189.765621,219.65625 190.53125,219.65625 C191.005211,219.65625 191.441404,219.559897 191.839844,219.367188 C192.238283,219.174478 192.552082,218.91146 192.78125,218.578125 C193.010418,218.24479 193.125,217.895835 193.125,217.53125 C193.125,216.984372 193.01823,216.479169 192.804688,216.015625 C192.591145,215.552081 192.292971,215.187501 191.910156,214.921875 C191.527342,214.656249 191.088544,214.523438 190.59375,214.523438 L190.59375,214.523438 Z" id="19" fill="#4A4A4A"></path>
                <path d="M241.289062,225 L233.78125,225 L233.78125,223.882812 L236.789062,220.859375 C237.705734,219.932287 238.309894,219.270835 238.601562,218.875 C238.893231,218.479165 239.111978,218.093752 239.257812,217.71875 C239.403647,217.343748 239.476562,216.940106 239.476562,216.507812 C239.476562,215.898434 239.291669,215.415366 238.921875,215.058594 C238.552081,214.701821 238.039066,214.523438 237.382812,214.523438 C236.908852,214.523438 236.459638,214.601562 236.035156,214.757812 C235.610675,214.914063 235.138023,215.197915 234.617188,215.609375 L233.929688,214.726562 C234.981776,213.851558 236.127598,213.414062 237.367188,213.414062 C238.44011,213.414062 239.281247,213.688799 239.890625,214.238281 C240.500003,214.787763 240.804688,215.526037 240.804688,216.453125 C240.804688,217.177087 240.601565,217.893226 240.195312,218.601562 C239.78906,219.309899 239.028651,220.205724 237.914062,221.289062 L235.414062,223.734375 L235.414062,223.796875 L241.289062,223.796875 L241.289062,225 Z M250.5,219.273438 C250.5,221.247406 250.188805,222.721349 249.566406,223.695312 C248.944007,224.669276 247.992194,225.15625 246.710938,225.15625 C245.481765,225.15625 244.546878,224.657557 243.90625,223.660156 C243.265622,222.662755 242.945312,221.20053 242.945312,219.273438 C242.945312,217.283844 243.255205,215.807296 243.875,214.84375 C244.494795,213.880204 245.440098,213.398438 246.710938,213.398438 C247.950527,213.398438 248.891924,213.901037 249.535156,214.90625 C250.178389,215.911463 250.5,217.367178 250.5,219.273438 L250.5,219.273438 Z M244.257812,219.273438 C244.257812,220.934904 244.453123,222.144527 244.84375,222.902344 C245.234377,223.66016 245.856767,224.039062 246.710938,224.039062 C247.575525,224.039062 248.201821,223.654952 248.589844,222.886719 C248.977867,222.118486 249.171875,220.914071 249.171875,219.273438 C249.171875,217.632804 248.977867,216.430993 248.589844,215.667969 C248.201821,214.904944 247.575525,214.523438 246.710938,214.523438 C245.856767,214.523438 245.234377,214.899736 244.84375,215.652344 C244.453123,216.404952 244.257812,217.611971 244.257812,219.273438 L244.257812,219.273438 Z" id="20" fill="#4A4A4A"></path>
                <path d="M292.289062,225 L284.78125,225 L284.78125,223.882812 L287.789062,220.859375 C288.705734,219.932287 289.309894,219.270835 289.601562,218.875 C289.893231,218.479165 290.111978,218.093752 290.257812,217.71875 C290.403647,217.343748 290.476562,216.940106 290.476562,216.507812 C290.476562,215.898434 290.291669,215.415366 289.921875,215.058594 C289.552081,214.701821 289.039066,214.523438 288.382812,214.523438 C287.908852,214.523438 287.459638,214.601562 287.035156,214.757812 C286.610675,214.914063 286.138023,215.197915 285.617188,215.609375 L284.929688,214.726562 C285.981776,213.851558 287.127598,213.414062 288.367188,213.414062 C289.44011,213.414062 290.281247,213.688799 290.890625,214.238281 C291.500003,214.787763 291.804688,215.526037 291.804688,216.453125 C291.804688,217.177087 291.601565,217.893226 291.195312,218.601562 C290.78906,219.309899 290.028651,220.205724 288.914062,221.289062 L286.414062,223.734375 L286.414062,223.796875 L292.289062,223.796875 L292.289062,225 Z M298.734375,225 L297.46875,225 L297.46875,216.859375 C297.46875,216.182288 297.489583,215.54167 297.53125,214.9375 C297.421874,215.046876 297.29948,215.161458 297.164062,215.28125 C297.028645,215.401042 296.40886,215.90885 295.304688,216.804688 L294.617188,215.914062 L297.640625,213.578125 L298.734375,213.578125 L298.734375,225 Z" id="21" fill="#4A4A4A"></path>
                <path d="M338.289062,225 L330.78125,225 L330.78125,223.882812 L333.789062,220.859375 C334.705734,219.932287 335.309894,219.270835 335.601562,218.875 C335.893231,218.479165 336.111978,218.093752 336.257812,217.71875 C336.403647,217.343748 336.476562,216.940106 336.476562,216.507812 C336.476562,215.898434 336.291669,215.415366 335.921875,215.058594 C335.552081,214.701821 335.039066,214.523438 334.382812,214.523438 C333.908852,214.523438 333.459638,214.601562 333.035156,214.757812 C332.610675,214.914063 332.138023,215.197915 331.617188,215.609375 L330.929688,214.726562 C331.981776,213.851558 333.127598,213.414062 334.367188,213.414062 C335.44011,213.414062 336.281247,213.688799 336.890625,214.238281 C337.500003,214.787763 337.804688,215.526037 337.804688,216.453125 C337.804688,217.177087 337.601565,217.893226 337.195312,218.601562 C336.78906,219.309899 336.028651,220.205724 334.914062,221.289062 L332.414062,223.734375 L332.414062,223.796875 L338.289062,223.796875 L338.289062,225 Z M347.4375,225 L339.929688,225 L339.929688,223.882812 L342.9375,220.859375 C343.854171,219.932287 344.458332,219.270835 344.75,218.875 C345.041668,218.479165 345.260416,218.093752 345.40625,217.71875 C345.552084,217.343748 345.625,216.940106 345.625,216.507812 C345.625,215.898434 345.440106,215.415366 345.070312,215.058594 C344.700519,214.701821 344.187503,214.523438 343.53125,214.523438 C343.057289,214.523438 342.608075,214.601562 342.183594,214.757812 C341.759112,214.914063 341.286461,215.197915 340.765625,215.609375 L340.078125,214.726562 C341.130214,213.851558 342.276035,213.414062 343.515625,213.414062 C344.588547,213.414062 345.429684,213.688799 346.039062,214.238281 C346.648441,214.787763 346.953125,215.526037 346.953125,216.453125 C346.953125,217.177087 346.750002,217.893226 346.34375,218.601562 C345.937498,219.309899 345.177089,220.205724 344.0625,221.289062 L341.5625,223.734375 L341.5625,223.796875 L347.4375,223.796875 L347.4375,225 Z" id="22" fill="#4A4A4A"></path>
                <path d="M24.2890625,265 L16.78125,265 L16.78125,263.882812 L19.7890625,260.859375 C20.7057337,259.932287 21.3098944,259.270835 21.6015625,258.875 C21.8932306,258.479165 22.1119784,258.093752 22.2578125,257.71875 C22.4036466,257.343748 22.4765625,256.940106 22.4765625,256.507812 C22.4765625,255.898434 22.2916685,255.415366 21.921875,255.058594 C21.5520815,254.701821 21.0390658,254.523438 20.3828125,254.523438 C19.9088518,254.523438 19.4596375,254.601562 19.0351562,254.757812 C18.610675,254.914063 18.1380234,255.197915 17.6171875,255.609375 L16.9296875,254.726562 C17.9817761,253.851558 19.127598,253.414062 20.3671875,253.414062 C21.4401095,253.414062 22.281247,253.688799 22.890625,254.238281 C23.500003,254.787763 23.8046875,255.526037 23.8046875,256.453125 C23.8046875,257.177087 23.6015645,257.893226 23.1953125,258.601562 C22.7890605,259.309899 22.0286514,260.205724 20.9140625,261.289062 L18.4140625,263.734375 L18.4140625,263.796875 L24.2890625,263.796875 L24.2890625,265 Z M33.0078125,256.265625 C33.0078125,256.994795 32.8033875,257.591144 32.3945312,258.054688 C31.985675,258.518231 31.4062538,258.828124 30.65625,258.984375 L30.65625,259.046875 C31.5729212,259.161459 32.252602,259.453123 32.6953125,259.921875 C33.138023,260.390627 33.359375,261.005205 33.359375,261.765625 C33.359375,262.854172 32.9817746,263.691403 32.2265625,264.277344 C31.4713504,264.863284 30.3984445,265.15625 29.0078125,265.15625 C28.4036428,265.15625 27.8502629,265.110678 27.3476562,265.019531 C26.8450496,264.928385 26.3567732,264.76823 25.8828125,264.539062 L25.8828125,263.304688 C26.3776066,263.54948 26.9049451,263.735676 27.4648438,263.863281 C28.0247424,263.990886 28.554685,264.054688 29.0546875,264.054688 C31.0286557,264.054688 32.015625,263.281258 32.015625,261.734375 C32.015625,260.348951 30.9270942,259.65625 28.75,259.65625 L27.625,259.65625 L27.625,258.539062 L28.765625,258.539062 C29.6562545,258.539062 30.3619766,258.34245 30.8828125,257.949219 C31.4036484,257.555988 31.6640625,257.01042 31.6640625,256.3125 C31.6640625,255.755206 31.4726582,255.31771 31.0898438,255 C30.7070293,254.68229 30.1875033,254.523438 29.53125,254.523438 C29.0312475,254.523438 28.559898,254.591145 28.1171875,254.726562 C27.674477,254.86198 27.1692737,255.111977 26.6015625,255.476562 L25.9453125,254.601562 C26.4140648,254.231769 26.954424,253.941407 27.5664062,253.730469 C28.1783885,253.51953 28.8229133,253.414062 29.5,253.414062 C30.6093805,253.414062 31.4713511,253.667966 32.0859375,254.175781 C32.7005239,254.683596 33.0078125,255.380204 33.0078125,256.265625 L33.0078125,256.265625 Z" id="23" fill="#4A4A4A"></path>
                <path d="M79.2890625,265 L71.78125,265 L71.78125,263.882812 L74.7890625,260.859375 C75.7057337,259.932287 76.3098944,259.270835 76.6015625,258.875 C76.8932306,258.479165 77.1119784,258.093752 77.2578125,257.71875 C77.4036466,257.343748 77.4765625,256.940106 77.4765625,256.507812 C77.4765625,255.898434 77.2916685,255.415366 76.921875,255.058594 C76.5520815,254.701821 76.0390658,254.523438 75.3828125,254.523438 C74.9088518,254.523438 74.4596375,254.601562 74.0351562,254.757812 C73.610675,254.914063 73.1380234,255.197915 72.6171875,255.609375 L71.9296875,254.726562 C72.9817761,253.851558 74.127598,253.414062 75.3671875,253.414062 C76.4401095,253.414062 77.281247,253.688799 77.890625,254.238281 C78.500003,254.787763 78.8046875,255.526037 78.8046875,256.453125 C78.8046875,257.177087 78.6015645,257.893226 78.1953125,258.601562 C77.7890605,259.309899 77.0286514,260.205724 75.9140625,261.289062 L73.4140625,263.734375 L73.4140625,263.796875 L79.2890625,263.796875 L79.2890625,265 Z M88.9765625,262.375 L87.28125,262.375 L87.28125,265 L86.0390625,265 L86.0390625,262.375 L80.484375,262.375 L80.484375,261.242188 L85.90625,253.515625 L87.28125,253.515625 L87.28125,261.195312 L88.9765625,261.195312 L88.9765625,262.375 Z M86.0390625,261.195312 L86.0390625,257.398438 C86.0390625,256.653642 86.0651039,255.812505 86.1171875,254.875 L86.0546875,254.875 C85.8046862,255.375003 85.5703136,255.789061 85.3515625,256.117188 L81.78125,261.195312 L86.0390625,261.195312 Z" id="24" fill="#FFFFFF"></path>
                <path d="M23.859375,296.265625 C23.859375,296.994795 23.65495,297.591144 23.2460938,298.054688 C22.8372375,298.518231 22.2578163,298.828124 21.5078125,298.984375 L21.5078125,299.046875 C22.4244837,299.161459 23.1041645,299.453123 23.546875,299.921875 C23.9895855,300.390627 24.2109375,301.005205 24.2109375,301.765625 C24.2109375,302.854172 23.8333371,303.691403 23.078125,304.277344 C22.3229129,304.863284 21.250007,305.15625 19.859375,305.15625 C19.2552053,305.15625 18.7018254,305.110678 18.1992188,305.019531 C17.6966121,304.928385 17.2083357,304.76823 16.734375,304.539062 L16.734375,303.304688 C17.2291691,303.54948 17.7565076,303.735676 18.3164062,303.863281 C18.8763049,303.990886 19.4062475,304.054688 19.90625,304.054688 C21.8802182,304.054688 22.8671875,303.281258 22.8671875,301.734375 C22.8671875,300.348951 21.7786567,299.65625 19.6015625,299.65625 L18.4765625,299.65625 L18.4765625,298.539062 L19.6171875,298.539062 C20.507817,298.539062 21.2135391,298.34245 21.734375,297.949219 C22.2552109,297.555988 22.515625,297.01042 22.515625,296.3125 C22.515625,295.755206 22.3242207,295.31771 21.9414062,295 C21.5585918,294.68229 21.0390658,294.523438 20.3828125,294.523438 C19.88281,294.523438 19.4114605,294.591145 18.96875,294.726562 C18.5260395,294.86198 18.0208362,295.111977 17.453125,295.476562 L16.796875,294.601562 C17.2656273,294.231769 17.8059865,293.941407 18.4179688,293.730469 C19.029951,293.51953 19.6744758,293.414062 20.3515625,293.414062 C21.460943,293.414062 22.3229136,293.667966 22.9375,294.175781 C23.5520864,294.683596 23.859375,295.380204 23.859375,296.265625 L23.859375,296.265625 Z M33.5,299.273438 C33.5,301.247406 33.1888052,302.721349 32.5664062,303.695312 C31.9440073,304.669276 30.9921939,305.15625 29.7109375,305.15625 C28.4817647,305.15625 27.5468782,304.657557 26.90625,303.660156 C26.2656218,302.662755 25.9453125,301.20053 25.9453125,299.273438 C25.9453125,297.283844 26.2552052,295.807296 26.875,294.84375 C27.4947948,293.880204 28.4400978,293.398438 29.7109375,293.398438 C30.950527,293.398438 31.8919239,293.901037 32.5351562,294.90625 C33.1783886,295.911463 33.5,297.367178 33.5,299.273438 L33.5,299.273438 Z M27.2578125,299.273438 C27.2578125,300.934904 27.453123,302.144527 27.84375,302.902344 C28.234377,303.66016 28.8567666,304.039062 29.7109375,304.039062 C30.5755252,304.039062 31.201821,303.654952 31.5898438,302.886719 C31.9778665,302.118486 32.171875,300.914071 32.171875,299.273438 C32.171875,297.632804 31.9778665,296.430993 31.5898438,295.667969 C31.201821,294.904944 30.5755252,294.523438 29.7109375,294.523438 C28.8567666,294.523438 28.234377,294.899736 27.84375,295.652344 C27.453123,296.404952 27.2578125,297.611971 27.2578125,299.273438 L27.2578125,299.273438 Z" id="30" fill="#4A4A4A"></path>
                <path d="M78.859375,296.265625 C78.859375,296.994795 78.65495,297.591144 78.2460938,298.054688 C77.8372375,298.518231 77.2578163,298.828124 76.5078125,298.984375 L76.5078125,299.046875 C77.4244837,299.161459 78.1041645,299.453123 78.546875,299.921875 C78.9895855,300.390627 79.2109375,301.005205 79.2109375,301.765625 C79.2109375,302.854172 78.8333371,303.691403 78.078125,304.277344 C77.3229129,304.863284 76.250007,305.15625 74.859375,305.15625 C74.2552053,305.15625 73.7018254,305.110678 73.1992188,305.019531 C72.6966121,304.928385 72.2083357,304.76823 71.734375,304.539062 L71.734375,303.304688 C72.2291691,303.54948 72.7565076,303.735676 73.3164062,303.863281 C73.8763049,303.990886 74.4062475,304.054688 74.90625,304.054688 C76.8802182,304.054688 77.8671875,303.281258 77.8671875,301.734375 C77.8671875,300.348951 76.7786567,299.65625 74.6015625,299.65625 L73.4765625,299.65625 L73.4765625,298.539062 L74.6171875,298.539062 C75.507817,298.539062 76.2135391,298.34245 76.734375,297.949219 C77.2552109,297.555988 77.515625,297.01042 77.515625,296.3125 C77.515625,295.755206 77.3242207,295.31771 76.9414062,295 C76.5585918,294.68229 76.0390658,294.523438 75.3828125,294.523438 C74.88281,294.523438 74.4114605,294.591145 73.96875,294.726562 C73.5260395,294.86198 73.0208362,295.111977 72.453125,295.476562 L71.796875,294.601562 C72.2656273,294.231769 72.8059865,293.941407 73.4179688,293.730469 C74.029951,293.51953 74.6744758,293.414062 75.3515625,293.414062 C76.460943,293.414062 77.3229136,293.667966 77.9375,294.175781 C78.5520864,294.683596 78.859375,295.380204 78.859375,296.265625 L78.859375,296.265625 Z M85.734375,305 L84.46875,305 L84.46875,296.859375 C84.46875,296.182288 84.4895831,295.54167 84.53125,294.9375 C84.4218745,295.046876 84.2994798,295.161458 84.1640625,295.28125 C84.0286452,295.401042 83.4088597,295.90885 82.3046875,296.804688 L81.6171875,295.914062 L84.640625,293.578125 L85.734375,293.578125 L85.734375,305 Z" id="31" fill="#4A4A4A"></path>
                <path d="M133.289062,265 L125.78125,265 L125.78125,263.882812 L128.789062,260.859375 C129.705734,259.932287 130.309894,259.270835 130.601562,258.875 C130.893231,258.479165 131.111978,258.093752 131.257812,257.71875 C131.403647,257.343748 131.476562,256.940106 131.476562,256.507812 C131.476562,255.898434 131.291669,255.415366 130.921875,255.058594 C130.552081,254.701821 130.039066,254.523438 129.382812,254.523438 C128.908852,254.523438 128.459638,254.601562 128.035156,254.757812 C127.610675,254.914063 127.138023,255.197915 126.617188,255.609375 L125.929688,254.726562 C126.981776,253.851558 128.127598,253.414062 129.367188,253.414062 C130.44011,253.414062 131.281247,253.688799 131.890625,254.238281 C132.500003,254.787763 132.804688,255.526037 132.804688,256.453125 C132.804688,257.177087 132.601565,257.893226 132.195312,258.601562 C131.78906,259.309899 131.028651,260.205724 129.914062,261.289062 L127.414062,263.734375 L127.414062,263.796875 L133.289062,263.796875 L133.289062,265 Z M138.5,258.023438 C139.703131,258.023438 140.649736,258.321612 141.339844,258.917969 C142.029951,259.514326 142.375,260.330724 142.375,261.367188 C142.375,262.549485 141.998702,263.476559 141.246094,264.148438 C140.493486,264.820316 139.455736,265.15625 138.132812,265.15625 C136.846348,265.15625 135.864587,264.950523 135.1875,264.539062 L135.1875,263.289062 C135.552085,263.523439 136.005206,263.707031 136.546875,263.839844 C137.088544,263.972657 137.622393,264.039062 138.148438,264.039062 C139.065109,264.039062 139.777341,263.822919 140.285156,263.390625 C140.792971,262.958331 141.046875,262.333337 141.046875,261.515625 C141.046875,259.921867 140.070322,259.125 138.117188,259.125 C137.622393,259.125 136.960942,259.20052 136.132812,259.351562 L135.460938,258.921875 L135.890625,253.578125 L141.570312,253.578125 L141.570312,254.773438 L137,254.773438 L136.710938,258.203125 C137.309899,258.083333 137.906247,258.023438 138.5,258.023438 L138.5,258.023438 Z" id="25" fill="#4A4A4A"></path>
                <path d="M185.289062,265 L177.78125,265 L177.78125,263.882812 L180.789062,260.859375 C181.705734,259.932287 182.309894,259.270835 182.601562,258.875 C182.893231,258.479165 183.111978,258.093752 183.257812,257.71875 C183.403647,257.343748 183.476562,256.940106 183.476562,256.507812 C183.476562,255.898434 183.291669,255.415366 182.921875,255.058594 C182.552081,254.701821 182.039066,254.523438 181.382812,254.523438 C180.908852,254.523438 180.459638,254.601562 180.035156,254.757812 C179.610675,254.914063 179.138023,255.197915 178.617188,255.609375 L177.929688,254.726562 C178.981776,253.851558 180.127598,253.414062 181.367188,253.414062 C182.44011,253.414062 183.281247,253.688799 183.890625,254.238281 C184.500003,254.787763 184.804688,255.526037 184.804688,256.453125 C184.804688,257.177087 184.601565,257.893226 184.195312,258.601562 C183.78906,259.309899 183.028651,260.205724 181.914062,261.289062 L179.414062,263.734375 L179.414062,263.796875 L185.289062,263.796875 L185.289062,265 Z M187.0625,260.117188 C187.0625,257.872385 187.498694,256.194016 188.371094,255.082031 C189.243494,253.970047 190.533846,253.414062 192.242188,253.414062 C192.830732,253.414062 193.294269,253.463541 193.632812,253.5625 L193.632812,254.679688 C193.231769,254.549479 192.77344,254.484375 192.257812,254.484375 C191.033848,254.484375 190.098962,254.865882 189.453125,255.628906 C188.807288,256.391931 188.453125,257.591138 188.390625,259.226562 L188.484375,259.226562 C189.057295,258.330725 189.963535,257.882812 191.203125,257.882812 C192.229172,257.882812 193.037757,258.192705 193.628906,258.8125 C194.220055,259.432295 194.515625,260.273432 194.515625,261.335938 C194.515625,262.523443 194.191409,263.457028 193.542969,264.136719 C192.894528,264.81641 192.018235,265.15625 190.914062,265.15625 C189.731765,265.15625 188.794274,264.712244 188.101562,263.824219 C187.408851,262.936193 187.0625,261.700529 187.0625,260.117188 L187.0625,260.117188 Z M190.898438,264.054688 C191.638025,264.054688 192.212238,263.821617 192.621094,263.355469 C193.02995,262.889321 193.234375,262.21615 193.234375,261.335938 C193.234375,260.580725 193.044273,259.986981 192.664062,259.554688 C192.283852,259.122394 191.71615,258.90625 190.960938,258.90625 C190.492185,258.90625 190.062502,259.002603 189.671875,259.195312 C189.281248,259.388022 188.970053,259.653644 188.738281,259.992188 C188.506509,260.330731 188.390625,260.68229 188.390625,261.046875 C188.390625,261.583336 188.494791,262.083331 188.703125,262.546875 C188.911459,263.010419 189.207029,263.377603 189.589844,263.648438 C189.972658,263.919272 190.408852,264.054688 190.898438,264.054688 L190.898438,264.054688 Z" id="26" fill="#4A4A4A"></path>
                <path d="M241.289062,265 L233.78125,265 L233.78125,263.882812 L236.789062,260.859375 C237.705734,259.932287 238.309894,259.270835 238.601562,258.875 C238.893231,258.479165 239.111978,258.093752 239.257812,257.71875 C239.403647,257.343748 239.476562,256.940106 239.476562,256.507812 C239.476562,255.898434 239.291669,255.415366 238.921875,255.058594 C238.552081,254.701821 238.039066,254.523438 237.382812,254.523438 C236.908852,254.523438 236.459638,254.601562 236.035156,254.757812 C235.610675,254.914063 235.138023,255.197915 234.617188,255.609375 L233.929688,254.726562 C234.981776,253.851558 236.127598,253.414062 237.367188,253.414062 C238.44011,253.414062 239.281247,253.688799 239.890625,254.238281 C240.500003,254.787763 240.804688,255.526037 240.804688,256.453125 C240.804688,257.177087 240.601565,257.893226 240.195312,258.601562 C239.78906,259.309899 239.028651,260.205724 237.914062,261.289062 L235.414062,263.734375 L235.414062,263.796875 L241.289062,263.796875 L241.289062,265 Z M244.375,265 L249.109375,254.773438 L242.882812,254.773438 L242.882812,253.578125 L250.484375,253.578125 L250.484375,254.617188 L245.8125,265 L244.375,265 Z" id="27" fill="#4A4A4A"></path>
                <path d="M292.289062,265 L284.78125,265 L284.78125,263.882812 L287.789062,260.859375 C288.705734,259.932287 289.309894,259.270835 289.601562,258.875 C289.893231,258.479165 290.111978,258.093752 290.257812,257.71875 C290.403647,257.343748 290.476562,256.940106 290.476562,256.507812 C290.476562,255.898434 290.291669,255.415366 289.921875,255.058594 C289.552081,254.701821 289.039066,254.523438 288.382812,254.523438 C287.908852,254.523438 287.459638,254.601562 287.035156,254.757812 C286.610675,254.914063 286.138023,255.197915 285.617188,255.609375 L284.929688,254.726562 C285.981776,253.851558 287.127598,253.414062 288.367188,253.414062 C289.44011,253.414062 290.281247,253.688799 290.890625,254.238281 C291.500003,254.787763 291.804688,255.526037 291.804688,256.453125 C291.804688,257.177087 291.601565,257.893226 291.195312,258.601562 C290.78906,259.309899 290.028651,260.205724 288.914062,261.289062 L286.414062,263.734375 L286.414062,263.796875 L292.289062,263.796875 L292.289062,265 Z M297.710938,253.414062 C298.752609,253.414062 299.578122,253.656248 300.1875,254.140625 C300.796878,254.625002 301.101562,255.294267 301.101562,256.148438 C301.101562,256.71094 300.927085,257.223956 300.578125,257.6875 C300.229165,258.151044 299.671879,258.572915 298.90625,258.953125 C299.833338,259.395836 300.492186,259.860675 300.882812,260.347656 C301.273439,260.834638 301.46875,261.398434 301.46875,262.039062 C301.46875,262.986984 301.138024,263.743487 300.476562,264.308594 C299.815101,264.873701 298.90886,265.15625 297.757812,265.15625 C296.539056,265.15625 295.601566,264.889326 294.945312,264.355469 C294.289059,263.821612 293.960938,263.065109 293.960938,262.085938 C293.960938,260.778639 294.757805,259.76042 296.351562,259.03125 C295.632809,258.624998 295.117189,258.1862 294.804688,257.714844 C294.492186,257.243487 294.335938,256.716149 294.335938,256.132812 C294.335938,255.304683 294.641924,254.644534 295.253906,254.152344 C295.865888,253.660154 296.684891,253.414062 297.710938,253.414062 L297.710938,253.414062 Z M295.242188,262.117188 C295.242188,262.742191 295.459633,263.229165 295.894531,263.578125 C296.329429,263.927085 296.9401,264.101562 297.726562,264.101562 C298.502608,264.101562 299.106769,263.919273 299.539062,263.554688 C299.971356,263.190102 300.1875,262.690107 300.1875,262.054688 C300.1875,261.549477 299.984377,261.100262 299.578125,260.707031 C299.171873,260.3138 298.463547,259.932294 297.453125,259.5625 C296.677079,259.895835 296.114585,260.264321 295.765625,260.667969 C295.416665,261.071617 295.242188,261.554685 295.242188,262.117188 L295.242188,262.117188 Z M297.695312,254.46875 C297.044268,254.46875 296.533856,254.624998 296.164062,254.9375 C295.794269,255.250002 295.609375,255.666664 295.609375,256.1875 C295.609375,256.666669 295.763019,257.078123 296.070312,257.421875 C296.377606,257.765627 296.945308,258.109373 297.773438,258.453125 C298.518233,258.140623 299.045571,257.804689 299.355469,257.445312 C299.665366,257.085936 299.820312,256.666669 299.820312,256.1875 C299.820312,255.661456 299.631512,255.243491 299.253906,254.933594 C298.8763,254.623696 298.356774,254.46875 297.695312,254.46875 L297.695312,254.46875 Z" id="28" fill="#4A4A4A"></path>
                <path d="M338.289062,265 L330.78125,265 L330.78125,263.882812 L333.789062,260.859375 C334.705734,259.932287 335.309894,259.270835 335.601562,258.875 C335.893231,258.479165 336.111978,258.093752 336.257812,257.71875 C336.403647,257.343748 336.476562,256.940106 336.476562,256.507812 C336.476562,255.898434 336.291669,255.415366 335.921875,255.058594 C335.552081,254.701821 335.039066,254.523438 334.382812,254.523438 C333.908852,254.523438 333.459638,254.601562 333.035156,254.757812 C332.610675,254.914063 332.138023,255.197915 331.617188,255.609375 L330.929688,254.726562 C331.981776,253.851558 333.127598,253.414062 334.367188,253.414062 C335.44011,253.414062 336.281247,253.688799 336.890625,254.238281 C337.500003,254.787763 337.804688,255.526037 337.804688,256.453125 C337.804688,257.177087 337.601565,257.893226 337.195312,258.601562 C336.78906,259.309899 336.028651,260.205724 334.914062,261.289062 L332.414062,263.734375 L332.414062,263.796875 L338.289062,263.796875 L338.289062,265 Z M347.4375,258.453125 C347.4375,262.921897 345.708351,265.15625 342.25,265.15625 C341.64583,265.15625 341.166668,265.104167 340.8125,265 L340.8125,263.882812 C341.229169,264.01823 341.703122,264.085938 342.234375,264.085938 C343.484381,264.085938 344.428382,263.699223 345.066406,262.925781 C345.70443,262.15234 346.052083,260.966154 346.109375,259.367188 L346.015625,259.367188 C345.729165,259.799481 345.348961,260.128905 344.875,260.355469 C344.401039,260.582032 343.86719,260.695312 343.273438,260.695312 C342.263016,260.695312 341.46094,260.393232 340.867188,259.789062 C340.273435,259.184893 339.976562,258.341151 339.976562,257.257812 C339.976562,256.070307 340.30859,255.132816 340.972656,254.445312 C341.636722,253.757809 342.510411,253.414062 343.59375,253.414062 C344.369796,253.414062 345.048174,253.613279 345.628906,254.011719 C346.209638,254.410158 346.656248,254.990882 346.96875,255.753906 C347.281252,256.516931 347.4375,257.416661 347.4375,258.453125 L347.4375,258.453125 Z M343.59375,254.523438 C342.848955,254.523438 342.27344,254.763018 341.867188,255.242188 C341.460935,255.721357 341.257812,256.388017 341.257812,257.242188 C341.257812,257.992191 341.445311,258.582029 341.820312,259.011719 C342.195314,259.441408 342.765621,259.65625 343.53125,259.65625 C344.005211,259.65625 344.441404,259.559897 344.839844,259.367188 C345.238283,259.174478 345.552082,258.91146 345.78125,258.578125 C346.010418,258.24479 346.125,257.895835 346.125,257.53125 C346.125,256.984372 346.01823,256.479169 345.804688,256.015625 C345.591145,255.552081 345.292971,255.187501 344.910156,254.921875 C344.527342,254.656249 344.088544,254.523438 343.59375,254.523438 L343.59375,254.523438 Z" id="29" fill="#4A4A4A"></path>
                <use id="Rectangle-16" stroke="#024059" mask="url(#mask-4)" stroke-width="2" fill="#025B80" xlink:href="#path-3"></use>
                <path d="M173.814453,346 L172.818359,346 L172.818359,338.318359 L170.105469,338.318359 L170.105469,337.433594 L176.527344,337.433594 L176.527344,338.318359 L173.814453,338.318359 L173.814453,346 Z M182.375,342.783203 C182.375,343.830083 182.111331,344.647458 181.583984,345.235352 C181.056638,345.823245 180.32813,346.117188 179.398438,346.117188 C178.824216,346.117188 178.314455,345.982423 177.869141,345.712891 C177.423826,345.443358 177.080079,345.056643 176.837891,344.552734 C176.595702,344.048826 176.474609,343.458988 176.474609,342.783203 C176.474609,341.736323 176.736326,340.920901 177.259766,340.336914 C177.783206,339.752927 178.509761,339.460938 179.439453,339.460938 C180.337895,339.460938 181.051755,339.759763 181.581055,340.357422 C182.110354,340.955081 182.375,341.763667 182.375,342.783203 L182.375,342.783203 Z M177.482422,342.783203 C177.482422,343.60352 177.646483,344.228513 177.974609,344.658203 C178.302736,345.087893 178.785153,345.302734 179.421875,345.302734 C180.058597,345.302734 180.541991,345.088869 180.87207,344.661133 C181.20215,344.233396 181.367188,343.607426 181.367188,342.783203 C181.367188,341.966793 181.20215,341.346682 180.87207,340.922852 C180.541991,340.499021 180.054691,340.287109 179.410156,340.287109 C178.773434,340.287109 178.29297,340.496092 177.96875,340.914062 C177.64453,341.332033 177.482422,341.955074 177.482422,342.783203 L177.482422,342.783203 Z M188.451172,345.138672 L188.398438,345.138672 C187.949217,345.791019 187.277348,346.117188 186.382812,346.117188 C185.542965,346.117188 184.889651,345.830081 184.422852,345.255859 C183.956052,344.681638 183.722656,343.86524 183.722656,342.806641 C183.722656,341.748042 183.957029,340.925784 184.425781,340.339844 C184.894534,339.753903 185.546871,339.460938 186.382812,339.460938 C187.253911,339.460938 187.921873,339.777341 188.386719,340.410156 L188.462891,340.410156 L188.421875,339.947266 L188.398438,339.496094 L188.398438,336.882812 L189.371094,336.882812 L189.371094,346 L188.580078,346 L188.451172,345.138672 Z M186.505859,345.302734 C187.169925,345.302734 187.651366,345.122072 187.950195,344.760742 C188.249025,344.399412 188.398438,343.81641 188.398438,343.011719 L188.398438,342.806641 C188.398438,341.89648 188.247072,341.247072 187.944336,340.858398 C187.6416,340.469725 187.158206,340.275391 186.494141,340.275391 C185.923825,340.275391 185.487306,340.497068 185.18457,340.94043 C184.881834,341.383791 184.730469,342.009762 184.730469,342.818359 C184.730469,343.638676 184.880858,344.25781 185.181641,344.675781 C185.482423,345.093752 185.923825,345.302734 186.505859,345.302734 L186.505859,345.302734 Z M195.382812,346 L195.189453,345.085938 L195.142578,345.085938 C194.822264,345.488283 194.502931,345.760741 194.18457,345.90332 C193.866209,346.045899 193.468752,346.117188 192.992188,346.117188 C192.355466,346.117188 191.856447,345.953127 191.495117,345.625 C191.133787,345.296873 190.953125,344.830081 190.953125,344.224609 C190.953125,342.927728 191.990224,342.248047 194.064453,342.185547 L195.154297,342.150391 L195.154297,341.751953 C195.154297,341.248044 195.0459,340.875978 194.829102,340.635742 C194.612304,340.395507 194.265627,340.275391 193.789062,340.275391 C193.253904,340.275391 192.648441,340.439451 191.972656,340.767578 L191.673828,340.023438 C191.990236,339.851562 192.336912,339.716797 192.713867,339.619141 C193.090822,339.521484 193.468748,339.472656 193.847656,339.472656 C194.613285,339.472656 195.180662,339.642576 195.549805,339.982422 C195.918947,340.322267 196.103516,340.867184 196.103516,341.617188 L196.103516,346 L195.382812,346 Z M193.185547,345.314453 C193.791019,345.314453 194.2666,345.148439 194.612305,344.816406 C194.95801,344.484373 195.130859,344.019534 195.130859,343.421875 L195.130859,342.841797 L194.158203,342.882812 C193.384762,342.910156 192.82715,343.030272 192.485352,343.243164 C192.143553,343.456056 191.972656,343.787107 191.972656,344.236328 C191.972656,344.587892 192.0791,344.855468 192.291992,345.039062 C192.504884,345.222657 192.802732,345.314453 193.185547,345.314453 L193.185547,345.314453 Z M197.087891,339.578125 L198.130859,339.578125 L199.537109,343.240234 C199.845705,344.076176 200.037109,344.679686 200.111328,345.050781 L200.158203,345.050781 C200.208985,344.851562 200.315429,344.510745 200.477539,344.02832 C200.639649,343.545896 201.169917,342.062512 202.068359,339.578125 L203.111328,339.578125 L200.351562,346.890625 C200.078124,347.613285 199.758791,348.125975 199.393555,348.428711 C199.028318,348.731447 198.580081,348.882812 198.048828,348.882812 C197.751952,348.882812 197.458986,348.84961 197.169922,348.783203 L197.169922,348.003906 C197.384767,348.050781 197.624999,348.074219 197.890625,348.074219 C198.558597,348.074219 199.035155,347.699223 199.320312,346.949219 L199.677734,346.035156 L197.087891,339.578125 Z" id="Today" fill="#FFFFFF"></path>
            </g>
        </g>
    </g>
</svg>