<?xml version="1.0" encoding="UTF-8" standalone="no"?>
<svg width="250px" height="250px" viewBox="0 0 250 250" version="1.1" xmlns="http://www.w3.org/2000/svg" xmlns:xlink="http://www.w3.org/1999/xlink">
    <!-- Generator: Sketch 40.2 (33826) - http://www.bohemiancoding.com/sketch -->
    <title>Group 3</title>
    <desc>Created with Sketch.</desc>
    <defs></defs>
    <g id="Introduction" stroke="none" stroke-width="1" fill="none" fill-rule="evenodd">
        <g id="Style-Guide---Introduction---Hero-Image-Copy-13" transform="translate(-866.000000, -784.000000)">
            <g id="Group-3" transform="translate(866.000000, 784.000000)">
                <rect id="Rectangle-6-Copy-2" fill="#86BC40" x="0" y="0" width="250" height="250"></rect>
                <path d="M162.992109,108.360767 C162.992109,114.94172 160.766928,121.025459 156.3165,126.612168 C151.866071,132.198876 145.794168,136.613729 138.100607,139.856861 C130.407047,143.099992 122.038947,144.721534 112.996055,144.721534 C108.924386,144.721534 104.75809,144.34278 100.497041,143.58526 C94.6262627,147.751619 88.0454085,150.781652 80.7542807,152.675452 C79.0498613,153.101557 77.0140574,153.480311 74.6468082,153.811726 L74.4337568,153.811726 C73.912962,153.811726 73.4276831,153.622349 72.9779058,153.243589 C72.5281284,152.864829 72.2558988,152.367714 72.1612089,151.752229 C72.1138639,151.610194 72.0901917,151.456325 72.0901917,151.290618 C72.0901917,151.12491 72.1020278,150.971041 72.1257003,150.829006 C72.1493728,150.686971 72.1967171,150.544939 72.2677345,150.402904 L72.4452773,150.047818 C72.4926223,149.953128 72.5754748,149.822931 72.6938373,149.657224 C72.8121997,149.491516 72.9068883,149.373156 72.9779058,149.302138 C73.0489232,149.231121 73.1554479,149.11276 73.2974828,148.947053 C73.4395178,148.781345 73.5342063,148.674821 73.5815513,148.627476 C73.8182762,148.343406 74.3627354,147.751602 75.2149451,146.852048 C76.0671549,145.952493 76.6826305,145.254165 77.0613903,144.757042 C77.4401502,144.25992 77.9727733,143.573428 78.6592756,142.697546 C79.3457779,141.821664 79.9375813,140.910286 80.4347037,139.963387 C80.931826,139.016487 81.4171048,137.974913 81.8905547,136.838633 C76.0197765,133.429794 71.4037097,129.239826 68.0422157,124.268602 C64.6807218,119.297379 63,113.99482 63,108.360767 C63,101.779814 65.2251809,95.6960746 69.6756096,90.1093663 C74.1260382,84.5226581 80.1979415,80.1078044 87.8915016,76.8646729 C95.5850617,73.6215414 103.953162,72 112.996055,72 C122.038947,72 130.407047,73.6215414 138.100607,76.8646729 C145.794168,80.1078044 151.866071,84.5226581 156.3165,90.1093663 C160.766928,95.6960746 162.992109,101.779814 162.992109,108.360767 Z M190.262684,126.54115 C190.262684,132.222549 188.581963,137.536944 185.220469,142.484495 C181.858975,147.432045 177.242908,151.610178 171.37213,155.019017 C171.845579,156.155296 172.330858,157.19687 172.827981,158.14377 C173.325103,159.09067 173.916906,160.002047 174.603409,160.877929 C175.289911,161.753812 175.822534,162.440304 176.201294,162.937426 C176.580054,163.434548 177.195529,164.132876 178.047739,165.032431 C178.899949,165.931986 179.444408,166.523789 179.681133,166.807859 C179.728478,166.855204 179.823167,166.961729 179.965201,167.127436 C180.107236,167.293144 180.213761,167.411504 180.284779,167.482522 C180.355796,167.553539 180.450485,167.6719 180.568847,167.837607 C180.687209,168.003315 180.770062,168.133512 180.817407,168.228202 L180.99495,168.583287 C181.065967,168.725322 181.113311,168.867355 181.136984,169.00939 C181.160656,169.151425 181.172493,169.305294 181.172493,169.471001 C181.172493,169.636709 181.14882,169.790578 181.101475,169.932613 C180.95944,170.595442 180.651703,171.116229 180.178253,171.494989 C179.704803,171.873749 179.184016,172.039454 178.615876,171.992109 C176.248627,171.660694 174.212823,171.28194 172.508404,170.855835 C165.217276,168.962036 158.636422,165.932002 152.765643,161.765643 C148.504595,162.523163 144.338298,162.901917 140.26663,162.901917 C127.436139,162.901917 116.26289,159.777195 106.746548,153.527657 C109.492557,153.717037 111.575705,153.811726 112.996055,153.811726 C120.618597,153.811726 127.933288,152.746479 134.940346,150.615955 C141.947403,148.485431 148.196848,145.431725 153.688866,141.454746 C159.606989,137.099008 164.15204,132.080514 167.324154,126.399116 C170.496268,120.717718 172.082301,114.704995 172.082301,108.360767 C172.082301,104.715203 171.537842,101.117038 170.448907,97.5661643 C176.55641,100.927658 181.385526,105.141299 184.9364,110.207212 C188.487274,115.273126 190.262684,120.717717 190.262684,126.54115 Z" id="" fill="#FFFFFF"></path>
            </g>
        </g>
    </g>
</svg>