<?xml version="1.0" encoding="UTF-8" standalone="no"?>
<svg width="308px" height="32px" viewBox="0 0 308 32" version="1.1" xmlns="http://www.w3.org/2000/svg" xmlns:xlink="http://www.w3.org/1999/xlink">
    <!-- Generator: Sketch 40.2 (33826) - http://www.bohemiancoding.com/sketch -->
    <title>frm-icn1</title>
    <desc>Created with Sketch.</desc>
    <defs>
        <rect id="path-1" x="0" y="0" width="308" height="32"></rect>
        <mask id="mask-2" maskContentUnits="userSpaceOnUse" maskUnits="objectBoundingBox" x="0" y="0" width="308" height="32" fill="white">
            <use xlink:href="#path-1"></use>
        </mask>
    </defs>
    <g id="Components" stroke="none" stroke-width="1" fill="none" fill-rule="evenodd">
        <g id="Icons" transform="translate(-327.000000, -1934.000000)">
            <g id="frm-icn1" transform="translate(327.000000, 1934.000000)">
                <use id="Rectangle-6" stroke="#D0D0D0" mask="url(#mask-2)" stroke-width="2" fill="#FFFFFF" xlink:href="#path-1"></use>
                <path d="M284.142857,22.8571429 L286.714286,22.8571429 L286.714286,20.2857143 L284.142857,20.2857143 L284.142857,22.8571429 Z M287.285714,22.8571429 L290.142857,22.8571429 L290.142857,20.2857143 L287.285714,20.2857143 L287.285714,22.8571429 Z M284.142857,19.7142857 L286.714286,19.7142857 L286.714286,16.8571429 L284.142857,16.8571429 L284.142857,19.7142857 Z M287.285714,19.7142857 L290.142857,19.7142857 L290.142857,16.8571429 L287.285714,16.8571429 L287.285714,19.7142857 Z M284.142857,16.2857143 L286.714286,16.2857143 L286.714286,13.7142857 L284.142857,13.7142857 L284.142857,16.2857143 Z M290.714286,22.8571429 L293.571429,22.8571429 L293.571429,20.2857143 L290.714286,20.2857143 L290.714286,22.8571429 Z M287.285714,16.2857143 L290.142857,16.2857143 L290.142857,13.7142857 L287.285714,13.7142857 L287.285714,16.2857143 Z M294.142857,22.8571429 L296.714286,22.8571429 L296.714286,20.2857143 L294.142857,20.2857143 L294.142857,22.8571429 Z M290.714286,19.7142857 L293.571429,19.7142857 L293.571429,16.8571429 L290.714286,16.8571429 L290.714286,19.7142857 Z M287.571429,12 L287.571429,9.42857143 C287.571429,9.35119009 287.543155,9.28422647 287.486607,9.22767857 C287.430059,9.17113067 287.363096,9.14285714 287.285714,9.14285714 L286.714286,9.14285714 C286.636904,9.14285714 286.569941,9.17113067 286.513393,9.22767857 C286.456845,9.28422647 286.428571,9.35119009 286.428571,9.42857143 L286.428571,12 C286.428571,12.0773813 286.456845,12.144345 286.513393,12.2008929 C286.569941,12.2574408 286.636904,12.2857143 286.714286,12.2857143 L287.285714,12.2857143 C287.363096,12.2857143 287.430059,12.2574408 287.486607,12.2008929 C287.543155,12.144345 287.571429,12.0773813 287.571429,12 L287.571429,12 Z M294.142857,19.7142857 L296.714286,19.7142857 L296.714286,16.8571429 L294.142857,16.8571429 L294.142857,19.7142857 Z M290.714286,16.2857143 L293.571429,16.2857143 L293.571429,13.7142857 L290.714286,13.7142857 L290.714286,16.2857143 Z M294.142857,16.2857143 L296.714286,16.2857143 L296.714286,13.7142857 L294.142857,13.7142857 L294.142857,16.2857143 Z M294.428571,12 L294.428571,9.42857143 C294.428571,9.35119009 294.400298,9.28422647 294.34375,9.22767857 C294.287202,9.17113067 294.220238,9.14285714 294.142857,9.14285714 L293.571429,9.14285714 C293.494047,9.14285714 293.427084,9.17113067 293.370536,9.22767857 C293.313988,9.28422647 293.285714,9.35119009 293.285714,9.42857143 L293.285714,12 C293.285714,12.0773813 293.313988,12.144345 293.370536,12.2008929 C293.427084,12.2574408 293.494047,12.2857143 293.571429,12.2857143 L294.142857,12.2857143 C294.220238,12.2857143 294.287202,12.2574408 294.34375,12.2008929 C294.400298,12.144345 294.428571,12.0773813 294.428571,12 L294.428571,12 Z M297.857143,11.4285714 L297.857143,22.8571429 C297.857143,23.1666682 297.744049,23.4345227 297.517857,23.6607143 C297.291666,23.8869059 297.023811,24 296.714286,24 L284.142857,24 C283.833332,24 283.565477,23.8869059 283.339286,23.6607143 C283.113094,23.4345227 283,23.1666682 283,22.8571429 L283,11.4285714 C283,11.1190461 283.113094,10.8511916 283.339286,10.625 C283.565477,10.3988084 283.833332,10.2857143 284.142857,10.2857143 L285.285714,10.2857143 L285.285714,9.42857143 C285.285714,9.03571232 285.425594,8.69940616 285.705357,8.41964286 C285.98512,8.13987955 286.321427,8 286.714286,8 L287.285714,8 C287.678573,8 288.01488,8.13987955 288.294643,8.41964286 C288.574406,8.69940616 288.714286,9.03571232 288.714286,9.42857143 L288.714286,10.2857143 L292.142857,10.2857143 L292.142857,9.42857143 C292.142857,9.03571232 292.282737,8.69940616 292.5625,8.41964286 C292.842263,8.13987955 293.178569,8 293.571429,8 L294.142857,8 C294.535716,8 294.872022,8.13987955 295.151786,8.41964286 C295.431549,8.69940616 295.571429,9.03571232 295.571429,9.42857143 L295.571429,10.2857143 L296.714286,10.2857143 C297.023811,10.2857143 297.291666,10.3988084 297.517857,10.625 C297.744049,10.8511916 297.857143,11.1190461 297.857143,11.4285714 L297.857143,11.4285714 Z" id="ï³" fill="#4A4A4A"></path>
            </g>
        </g>
    </g>
</svg>