<?xml version="1.0" encoding="UTF-8" standalone="no"?>
<svg width="250px" height="250px" viewBox="0 0 250 250" version="1.1" xmlns="http://www.w3.org/2000/svg" xmlns:xlink="http://www.w3.org/1999/xlink">
    <!-- Generator: Sketch 40.2 (33826) - http://www.bohemiancoding.com/sketch -->
    <title>Group</title>
    <desc>Created with Sketch.</desc>
    <defs></defs>
    <g id="Introduction" stroke="none" stroke-width="1" fill="none" fill-rule="evenodd">
        <g id="Style-Guide---Introduction---Hero-Image-Copy-13" transform="translate(-324.000000, -784.000000)">
            <g id="Group" transform="translate(324.000000, 784.000000)">
                <rect id="Rectangle-6" fill="#025B80" x="0" y="0" width="250" height="250"></rect>
                <path d="M99.8910891,163.67802 L106.29813,157.33505 L89.7524752,140.954851 L83.3454345,147.297822 L83.3454345,154.75604 L92.3575358,154.75604 L92.3575358,163.67802 L99.8910891,163.67802 Z M136.713971,98.9936634 C136.713971,97.971348 136.197658,97.460198 135.165017,97.460198 C134.695634,97.460198 134.296665,97.6228367 133.968097,97.9481188 L95.8074807,135.727129 C95.4789129,136.052411 95.3146315,136.44739 95.3146315,136.912079 C95.3146315,137.934395 95.8309446,138.445545 96.8635864,138.445545 C97.332969,138.445545 97.7319382,138.282906 98.0605061,137.957624 L136.221122,100.178614 C136.54969,99.8533317 136.713971,99.4583522 136.713971,98.9936634 L136.713971,98.9936634 Z M132.911991,85.6106931 L162.20132,114.607129 L103.622662,172.6 L74.3333333,172.6 L74.3333333,143.603564 L132.911991,85.6106931 Z M181,92.3021782 C181,94.7650288 180.131655,96.856097 178.394939,98.5754455 L166.707371,110.146139 L137.418042,81.149703 L149.105611,69.6487129 C150.795388,67.8828955 152.907578,67 155.442244,67 C157.929972,67 160.065631,67.8828955 161.849285,69.6487129 L178.394939,85.9592079 C180.131655,87.7714942 181,89.8857965 181,92.3021782 L181,92.3021782 Z" id="ï€-copy-2" fill="#FFFFFF"></path>
            </g>
        </g>
    </g>
</svg>