<?xml version="1.0" encoding="UTF-8" standalone="no"?>
<svg width="248px" height="288px" viewBox="0 0 248 288" version="1.1" xmlns="http://www.w3.org/2000/svg" xmlns:xlink="http://www.w3.org/1999/xlink">
    <!-- Generator: Sketch 40.2 (33826) - http://www.bohemiancoding.com/sketch -->
    <title>list-wht</title>
    <desc>Created with Sketch.</desc>
    <defs></defs>
    <g id="Components" stroke="none" stroke-width="1" fill="none" fill-rule="evenodd">
        <g id="Icons" transform="translate(-620.000000, -1012.000000)">
            <g id="list-wht" transform="translate(620.000000, 1012.000000)">
                <rect id="Rectangle-13-Copy-10" fill="#FFFFFF" x="0" y="0" width="248" height="288"></rect>
                <rect id="Rectangle-13-Copy-10" fill-opacity="0.2" fill="#0A8CC6" x="0" y="138" width="248" height="32"></rect>
                <path d="M56.4545455,38.4545455 L56.4545455,30.4545455 C56.4545455,30.1515136 56.3484859,29.8939405 56.1363636,29.6818182 C55.9242414,29.4696959 55.6666682,29.3636364 55.3636364,29.3636364 L47.3636364,29.3636364 C47.0606045,29.3636364 46.8030314,29.2575768 46.5909091,29.0454545 C46.3787868,28.8333323 46.2727273,28.5757591 46.2727273,28.2727273 L46.2727273,27.5454545 C46.2727273,27.2424227 46.1666677,26.9848495 45.9545455,26.7727273 C45.7424232,26.560605 45.48485,26.4545455 45.1818182,26.4545455 L41.5454545,26.4545455 C41.2424227,26.4545455 40.9848495,26.560605 40.7727273,26.7727273 C40.560605,26.9848495 40.4545455,27.2424227 40.4545455,27.5454545 L40.4545455,38.4545455 C40.4545455,38.7575773 40.560605,39.0151505 40.7727273,39.2272727 C40.9848495,39.439395 41.2424227,39.5454545 41.5454545,39.5454545 L55.3636364,39.5454545 C55.6666682,39.5454545 55.9242414,39.439395 56.1363636,39.2272727 C56.3484859,39.0151505 56.4545455,38.7575773 56.4545455,38.4545455 L56.4545455,38.4545455 Z M57.9090909,30.4545455 L57.9090909,38.4545455 C57.9090909,39.1515186 57.6590934,39.7499975 57.1590909,40.25 C56.6590884,40.7500025 56.0606095,41 55.3636364,41 L41.5454545,41 C40.8484814,41 40.2500025,40.7500025 39.75,40.25 C39.2499975,39.7499975 39,39.1515186 39,38.4545455 L39,27.5454545 C39,26.8484814 39.2499975,26.2500025 39.75,25.75 C40.2500025,25.2499975 40.8484814,25 41.5454545,25 L45.1818182,25 C45.8787914,25 46.4772702,25.2499975 46.9772727,25.75 C47.4772752,26.2500025 47.7272727,26.8484814 47.7272727,27.5454545 L47.7272727,27.9090909 L55.3636364,27.9090909 C56.0606095,27.9090909 56.6590884,28.1590884 57.1590909,28.6590909 C57.6590934,29.1590934 57.9090909,29.7575723 57.9090909,30.4545455 L57.9090909,30.4545455 Z" id="-copy-5" fill="#4A4A4A"></path>
                <path d="M103.107143,149.392857 C103.27381,149.559525 103.416666,149.785713 103.535714,150.071429 C103.654762,150.357144 103.714286,150.619046 103.714286,150.857143 L103.714286,161.142857 C103.714286,161.380954 103.630953,161.583333 103.464286,161.75 C103.297618,161.916667 103.095239,162 102.857143,162 L90.8571429,162 C90.6190464,162 90.4166675,161.916667 90.25,161.75 C90.0833325,161.583333 90,161.380954 90,161.142857 L90,146.857143 C90,146.619046 90.0833325,146.416667 90.25,146.25 C90.4166675,146.083333 90.6190464,146 90.8571429,146 L98.8571429,146 C99.0952393,146 99.3571414,146.059523 99.6428571,146.178571 C99.9285729,146.29762 100.154761,146.440475 100.321429,146.607143 L103.107143,149.392857 Z M99.1428571,147.214286 L99.1428571,150.571429 L102.5,150.571429 C102.440476,150.398809 102.375,150.276786 102.303571,150.205357 L99.5089286,147.410714 C99.4374996,147.339285 99.3154771,147.27381 99.1428571,147.214286 L99.1428571,147.214286 Z M102.571429,160.857143 L102.571429,151.714286 L98.8571429,151.714286 C98.6190464,151.714286 98.4166675,151.630953 98.25,151.464286 C98.0833325,151.297618 98,151.095239 98,150.857143 L98,147.142857 L91.1428571,147.142857 L91.1428571,160.857143 L102.571429,160.857143 Z" id="-copy-7" fill="#4A4A4A"></path>
                <path d="M28.5,33 C28.5,33.1354173 28.4505213,33.2526037 28.3515625,33.3515625 L24.8515625,36.8515625 C24.7526037,36.9505213 24.6354173,37 24.5,37 C24.3645827,37 24.2473963,36.9505213 24.1484375,36.8515625 C24.0494787,36.7526037 24,36.6354173 24,36.5 L24,29.5 C24,29.3645827 24.0494787,29.2473963 24.1484375,29.1484375 C24.2473963,29.0494787 24.3645827,29 24.5,29 C24.6354173,29 24.7526037,29.0494787 24.8515625,29.1484375 L28.3515625,32.6484375 C28.4505213,32.7473963 28.5,32.8645827 28.5,33 L28.5,33 Z" id="-copy-14" fill="#4A4A4A"></path>
                <path d="M56.4545455,68.4545455 L56.4545455,60.4545455 C56.4545455,60.1515136 56.3484859,59.8939405 56.1363636,59.6818182 C55.9242414,59.4696959 55.6666682,59.3636364 55.3636364,59.3636364 L47.3636364,59.3636364 C47.0606045,59.3636364 46.8030314,59.2575768 46.5909091,59.0454545 C46.3787868,58.8333323 46.2727273,58.5757591 46.2727273,58.2727273 L46.2727273,57.5454545 C46.2727273,57.2424227 46.1666677,56.9848495 45.9545455,56.7727273 C45.7424232,56.560605 45.48485,56.4545455 45.1818182,56.4545455 L41.5454545,56.4545455 C41.2424227,56.4545455 40.9848495,56.560605 40.7727273,56.7727273 C40.560605,56.9848495 40.4545455,57.2424227 40.4545455,57.5454545 L40.4545455,68.4545455 C40.4545455,68.7575773 40.560605,69.0151505 40.7727273,69.2272727 C40.9848495,69.439395 41.2424227,69.5454545 41.5454545,69.5454545 L55.3636364,69.5454545 C55.6666682,69.5454545 55.9242414,69.439395 56.1363636,69.2272727 C56.3484859,69.0151505 56.4545455,68.7575773 56.4545455,68.4545455 L56.4545455,68.4545455 Z M57.9090909,60.4545455 L57.9090909,68.4545455 C57.9090909,69.1515186 57.6590934,69.7499975 57.1590909,70.25 C56.6590884,70.7500025 56.0606095,71 55.3636364,71 L41.5454545,71 C40.8484814,71 40.2500025,70.7500025 39.75,70.25 C39.2499975,69.7499975 39,69.1515186 39,68.4545455 L39,57.5454545 C39,56.8484814 39.2499975,56.2500025 39.75,55.75 C40.2500025,55.2499975 40.8484814,55 41.5454545,55 L45.1818182,55 C45.8787914,55 46.4772702,55.2499975 46.9772727,55.75 C47.4772752,56.2500025 47.7272727,56.8484814 47.7272727,57.5454545 L47.7272727,57.9090909 L55.3636364,57.9090909 C56.0606095,57.9090909 56.6590884,58.1590884 57.1590909,58.6590909 C57.6590934,59.1590934 57.9090909,59.7575723 57.9090909,60.4545455 L57.9090909,60.4545455 Z" id="-copy-6" fill="#4A4A4A"></path>
                <path d="M28.5,63 C28.5,63.1354173 28.4505213,63.2526037 28.3515625,63.3515625 L24.8515625,66.8515625 C24.7526037,66.9505213 24.6354173,67 24.5,67 C24.3645827,67 24.2473963,66.9505213 24.1484375,66.8515625 C24.0494787,66.7526037 24,66.6354173 24,66.5 L24,59.5 C24,59.3645827 24.0494787,59.2473963 24.1484375,59.1484375 C24.2473963,59.0494787 24.3645827,59 24.5,59 C24.6354173,59 24.7526037,59.0494787 24.8515625,59.1484375 L28.3515625,62.6484375 C28.4505213,62.7473963 28.5,62.8645827 28.5,63 L28.5,63 Z" id="-copy-15" fill="#4A4A4A"></path>
                <path d="M29.25,93.25 C29.25,93.3854173 29.2005213,93.5026037 29.1015625,93.6015625 L25.6015625,97.1015625 C25.5026037,97.2005213 25.3854173,97.25 25.25,97.25 C25.1145827,97.25 24.9973963,97.2005213 24.8984375,97.1015625 C24.7994787,97.0026037 24.75,96.8854173 24.75,96.75 L24.75,89.75 C24.75,89.6145827 24.7994787,89.4973963 24.8984375,89.3984375 C24.9973963,89.2994787 25.1145827,89.25 25.25,89.25 C25.3854173,89.25 25.5026037,89.2994787 25.6015625,89.3984375 L29.1015625,92.8984375 C29.2005213,92.9973963 29.25,93.1145827 29.25,93.25 L29.25,93.25 Z" id="-copy-16" fill="#4A4A4A" transform="translate(27.000000, 93.250000) rotate(-270.000000) translate(-27.000000, -93.250000) "></path>
                <path d="M75.2495117,29.5512695 C74.2296498,29.5512695 73.4245635,29.8908657 72.8342285,30.5700684 C72.2438935,31.249271 71.9487305,32.1791933 71.9487305,33.3598633 C71.9487305,34.5743876 72.2333142,35.5127734 72.8024902,36.1750488 C73.3716663,36.8373243 74.1831002,37.168457 75.2368164,37.168457 C75.8842806,37.168457 76.6227172,37.0520845 77.4521484,36.8193359 L77.4521484,37.7651367 C76.8089161,38.0063489 76.015467,38.1269531 75.0717773,38.1269531 C73.7049085,38.1269531 72.6501502,37.7122437 71.9074707,36.8828125 C71.1647912,36.0533813 70.793457,34.8748449 70.793457,33.347168 C70.793457,32.390783 70.9722476,31.5529007 71.329834,30.8334961 C71.6874204,30.1140915 72.2036913,29.559735 72.8786621,29.1704102 C73.5536329,28.7810853 74.34814,28.5864258 75.262207,28.5864258 C76.2355192,28.5864258 77.0860966,28.7641584 77.8139648,29.1196289 L77.3569336,30.0463867 C76.6544561,29.7163069 75.9519892,29.5512695 75.2495117,29.5512695 L75.2495117,29.5512695 Z M83.5966797,38 L83.387207,37.0097656 L83.3364258,37.0097656 C82.9894188,37.4456402 82.643475,37.7408033 82.298584,37.8952637 C81.9536929,38.0497241 81.5231146,38.1269531 81.0068359,38.1269531 C80.3170538,38.1269531 79.7764505,37.9492205 79.3850098,37.59375 C78.993569,37.2382795 78.7978516,36.7325879 78.7978516,36.0766602 C78.7978516,34.6717052 79.9213755,33.9353845 82.168457,33.8676758 L83.3491211,33.8295898 L83.3491211,33.3979492 C83.3491211,32.8520481 83.2316906,32.4489759 82.9968262,32.1887207 C82.7619617,31.9284655 82.3863958,31.7983398 81.8701172,31.7983398 C81.2903617,31.7983398 80.6344438,31.9760724 79.9023438,32.331543 L79.5786133,31.5253906 C79.9213884,31.3391918 80.2969543,31.1931971 80.7053223,31.0874023 C81.1136902,30.9816075 81.5231099,30.9287109 81.9335938,30.9287109 C82.763025,30.9287109 83.3776835,31.1127911 83.7775879,31.480957 C84.1774922,31.8491229 84.3774414,32.4394491 84.3774414,33.2519531 L84.3774414,38 L83.5966797,38 Z M81.2163086,37.2573242 C81.8722364,37.2573242 82.3874493,37.0774758 82.7619629,36.7177734 C83.1364765,36.3580711 83.3237305,35.8544954 83.3237305,35.2070312 L83.3237305,34.5786133 L82.2700195,34.6230469 C81.4321247,34.6526694 80.8280455,34.7827951 80.4577637,35.0134277 C80.0874819,35.2440604 79.9023438,35.6026994 79.9023438,36.0893555 C79.9023438,36.4702167 80.0176584,36.7600902 80.248291,36.9589844 C80.4789237,37.1578786 80.801593,37.2573242 81.2163086,37.2573242 L81.2163086,37.2573242 Z M88.7954102,37.2573242 C88.981609,37.2573242 89.1614575,37.2435711 89.3349609,37.2160645 C89.5084644,37.1885578 89.6459956,37.1599936 89.7475586,37.1303711 L89.7475586,37.9365234 C89.6333002,37.9915367 89.465089,38.0370278 89.2429199,38.072998 C89.0207508,38.1089683 88.8208017,38.1269531 88.6430664,38.1269531 C87.2973566,38.1269531 86.6245117,37.4181386 86.6245117,36.0004883 L86.6245117,31.8618164 L85.6279297,31.8618164 L85.6279297,31.3540039 L86.6245117,30.9160156 L87.0688477,29.4306641 L87.6782227,29.4306641 L87.6782227,31.0429688 L89.6967773,31.0429688 L89.6967773,31.8618164 L87.6782227,31.8618164 L87.6782227,35.9560547 C87.6782227,36.3750021 87.7776683,36.6966135 87.9765625,36.9208984 C88.1754567,37.1451834 88.4484032,37.2573242 88.7954102,37.2573242 L88.7954102,37.2573242 Z M94.0766602,38.1269531 C93.0483347,38.1269531 92.2369008,37.8138052 91.642334,37.1875 C91.0477672,36.5611948 90.7504883,35.6915746 90.7504883,34.5786133 C90.7504883,33.4571884 91.0266086,32.5664096 91.5788574,31.90625 C92.1311063,31.2460904 92.8727167,30.9160156 93.8037109,30.9160156 C94.6754601,30.9160156 95.3652318,31.2027152 95.8730469,31.776123 C96.3808619,32.3495309 96.6347656,33.1059523 96.6347656,34.0454102 L96.6347656,34.7119141 L91.8422852,34.7119141 C91.8634441,35.5286499 92.0697409,36.1485981 92.4611816,36.5717773 C92.8526224,36.9949565 93.403805,37.206543 94.1147461,37.206543 C94.8637733,37.206543 95.6043258,37.049969 96.3364258,36.7368164 L96.3364258,37.6762695 C95.9640281,37.8370776 95.6117367,37.9523922 95.279541,38.0222168 C94.9473453,38.0920414 94.5463891,38.1269531 94.0766602,38.1269531 L94.0766602,38.1269531 Z M93.7910156,31.7983398 C93.2324191,31.7983398 92.7870297,31.9803042 92.454834,32.3442383 C92.1226383,32.7081724 91.9269209,33.2117481 91.8676758,33.8549805 L95.5048828,33.8549805 C95.5048828,33.1905891 95.3567723,32.6817238 95.0605469,32.3283691 C94.7643214,31.9750145 94.3411486,31.7983398 93.7910156,31.7983398 L93.7910156,31.7983398 Z M104.125,31.0429688 L104.125,31.7094727 L102.836426,31.8618164 C102.954916,32.0099291 103.060709,32.2035307 103.153809,32.442627 C103.246908,32.6817232 103.293457,32.9514959 103.293457,33.2519531 C103.293457,33.9332716 103.060712,34.4770488 102.595215,34.8833008 C102.129718,35.2895528 101.490727,35.4926758 100.678223,35.4926758 C100.470865,35.4926758 100.276205,35.4757489 100.094238,35.4418945 C99.6456683,35.6788749 99.4213867,35.9772117 99.4213867,36.3369141 C99.4213867,36.5273447 99.4996737,36.6680497 99.65625,36.7590332 C99.8128263,36.8500167 100.081541,36.8955078 100.462402,36.8955078 L101.693848,36.8955078 C102.447107,36.8955078 103.025796,37.0541976 103.429932,37.371582 C103.834068,37.6889664 104.036133,38.1502248 104.036133,38.7553711 C104.036133,39.5255572 103.727217,40.1127096 103.109375,40.5168457 C102.491533,40.9209818 101.590175,41.1230469 100.405273,41.1230469 C99.4954382,41.1230469 98.7940292,40.9537777 98.3010254,40.6152344 C97.8080216,40.276691 97.5615234,39.7985057 97.5615234,39.1806641 C97.5615234,38.7574849 97.6969388,38.3914403 97.9677734,38.0825195 C98.2386081,37.7735987 98.6194637,37.5641282 99.1103516,37.4541016 C98.9326163,37.3736975 98.7834479,37.2488615 98.6628418,37.0795898 C98.5422357,36.9103182 98.4819336,36.7135428 98.4819336,36.4892578 C98.4819336,36.2353503 98.5496413,36.0131845 98.6850586,35.8227539 C98.8204759,35.6323233 99.0341782,35.4482431 99.3261719,35.2705078 C98.9664696,35.1223951 98.6734224,34.8706072 98.4470215,34.5151367 C98.2206206,34.1596662 98.1074219,33.7534203 98.1074219,33.2963867 C98.1074219,32.5346642 98.3359352,31.9475118 98.7929688,31.5349121 C99.2500023,31.1223124 99.8974567,30.9160156 100.735352,30.9160156 C101.099286,30.9160156 101.427245,30.9583329 101.719238,31.0429688 L104.125,31.0429688 Z M98.5771484,39.1679688 C98.5771484,39.5445982 98.7358383,39.8302399 99.0532227,40.0249023 C99.3706071,40.2195648 99.8255179,40.3168945 100.417969,40.3168945 C101.302413,40.3168945 101.957273,40.184653 102.382568,39.920166 C102.807863,39.655679 103.020508,39.29704 103.020508,38.8442383 C103.020508,38.4676088 102.904135,38.2062996 102.671387,38.0603027 C102.438638,37.9143059 102.000654,37.8413086 101.357422,37.8413086 L100.094238,37.8413086 C99.6160458,37.8413086 99.2436537,37.9555653 98.9770508,38.184082 C98.7104479,38.4125988 98.5771484,38.7405578 98.5771484,39.1679688 L98.5771484,39.1679688 Z M99.1484375,33.2709961 C99.1484375,33.7576522 99.2859687,34.1258126 99.5610352,34.3754883 C99.8361016,34.625164 100.219073,34.75 100.709961,34.75 C101.738286,34.75 102.252441,34.250656 102.252441,33.2519531 C102.252441,32.2067005 101.731939,31.684082 100.690918,31.684082 C100.195798,31.684082 99.8149427,31.8173815 99.5483398,32.0839844 C99.2817369,32.3505873 99.1484375,32.7462539 99.1484375,33.2709961 L99.1484375,33.2709961 Z M111.558105,34.5151367 C111.558105,35.649257 111.272464,36.5347462 110.701172,37.1716309 C110.12988,37.8085156 109.340663,38.1269531 108.333496,38.1269531 C107.711423,38.1269531 107.159182,37.9809585 106.676758,37.6889648 C106.194334,37.3969712 105.821941,36.9780301 105.55957,36.4321289 C105.297199,35.8862277 105.166016,35.2472367 105.166016,34.5151367 C105.166016,33.3810165 105.449541,32.4976431 106.016602,31.8649902 C106.583662,31.2323373 107.370763,30.9160156 108.37793,30.9160156 C109.351242,30.9160156 110.12459,31.2397429 110.697998,31.887207 C111.271406,32.5346712 111.558105,33.410639 111.558105,34.5151367 L111.558105,34.5151367 Z M106.257812,34.5151367 C106.257812,35.403813 106.435545,36.0808896 106.791016,36.5463867 C107.146486,37.0118838 107.669105,37.2446289 108.358887,37.2446289 C109.048669,37.2446289 109.572345,37.0129418 109.929932,36.5495605 C110.287518,36.0861793 110.466309,35.4080448 110.466309,34.5151367 C110.466309,33.6306922 110.287518,32.9589053 109.929932,32.4997559 C109.572345,32.0406064 109.044437,31.8110352 108.346191,31.8110352 C107.656409,31.8110352 107.135907,32.0374326 106.784668,32.4902344 C106.433429,32.9430361 106.257812,33.6179968 106.257812,34.5151367 L106.257812,34.5151367 Z M116.579102,30.9160156 C116.888022,30.9160156 117.165201,30.941406 117.410645,30.9921875 L117.264648,31.9697266 C116.976887,31.9062497 116.722983,31.8745117 116.50293,31.8745117 C115.940101,31.8745117 115.458742,32.1030251 115.058838,32.5600586 C114.658934,33.0170921 114.458984,33.5862596 114.458984,34.2675781 L114.458984,38 L113.405273,38 L113.405273,31.0429688 L114.274902,31.0429688 L114.395508,32.331543 L114.446289,32.331543 C114.704428,31.8787412 115.01546,31.5296236 115.379395,31.2841797 C115.743329,31.0387358 116.143227,30.9160156 116.579102,30.9160156 L116.579102,30.9160156 Z M117.607422,31.0429688 L118.737305,31.0429688 L120.260742,35.0102539 C120.595054,35.9158574 120.802408,36.5696594 120.882812,36.9716797 L120.933594,36.9716797 C120.988607,36.7558583 121.103922,36.38664 121.279541,35.8640137 C121.45516,35.3413874 122.029618,33.7343885 123.00293,31.0429688 L124.132812,31.0429688 L121.143066,38.9648438 C120.846841,39.7477253 120.500897,40.3031396 120.105225,40.6311035 C119.709552,40.9590674 119.223961,41.1230469 118.648438,41.1230469 C118.326821,41.1230469 118.009442,41.0870772 117.696289,41.0151367 L117.696289,40.1708984 C117.929038,40.2216799 118.189289,40.2470703 118.477051,40.2470703 C119.200687,40.2470703 119.716958,39.8408244 120.025879,39.0283203 L120.413086,38.0380859 L117.607422,31.0429688 Z M132.061035,38 L131.032715,38 L131.032715,31.3857422 C131.032715,30.8356092 131.049642,30.3151066 131.083496,29.8242188 C130.994628,29.9130864 130.895183,30.0061844 130.785156,30.1035156 C130.67513,30.2008468 130.171554,30.6134404 129.274414,31.3413086 L128.71582,30.6176758 L131.172363,28.7197266 L132.061035,28.7197266 L132.061035,38 Z" id="Category-1-Copy-3" fill="#4A4A4A"></path>
                <path d="M75.2495117,59.5512695 C74.2296498,59.5512695 73.4245635,59.8908657 72.8342285,60.5700684 C72.2438935,61.249271 71.9487305,62.1791933 71.9487305,63.3598633 C71.9487305,64.5743876 72.2333142,65.5127734 72.8024902,66.1750488 C73.3716663,66.8373243 74.1831002,67.168457 75.2368164,67.168457 C75.8842806,67.168457 76.6227172,67.0520845 77.4521484,66.8193359 L77.4521484,67.7651367 C76.8089161,68.0063489 76.015467,68.1269531 75.0717773,68.1269531 C73.7049085,68.1269531 72.6501502,67.7122437 71.9074707,66.8828125 C71.1647912,66.0533813 70.793457,64.8748449 70.793457,63.347168 C70.793457,62.390783 70.9722476,61.5529007 71.329834,60.8334961 C71.6874204,60.1140915 72.2036913,59.559735 72.8786621,59.1704102 C73.5536329,58.7810853 74.34814,58.5864258 75.262207,58.5864258 C76.2355192,58.5864258 77.0860966,58.7641584 77.8139648,59.1196289 L77.3569336,60.0463867 C76.6544561,59.7163069 75.9519892,59.5512695 75.2495117,59.5512695 L75.2495117,59.5512695 Z M83.5966797,68 L83.387207,67.0097656 L83.3364258,67.0097656 C82.9894188,67.4456402 82.643475,67.7408033 82.298584,67.8952637 C81.9536929,68.0497241 81.5231146,68.1269531 81.0068359,68.1269531 C80.3170538,68.1269531 79.7764505,67.9492205 79.3850098,67.59375 C78.993569,67.2382795 78.7978516,66.7325879 78.7978516,66.0766602 C78.7978516,64.6717052 79.9213755,63.9353845 82.168457,63.8676758 L83.3491211,63.8295898 L83.3491211,63.3979492 C83.3491211,62.8520481 83.2316906,62.4489759 82.9968262,62.1887207 C82.7619617,61.9284655 82.3863958,61.7983398 81.8701172,61.7983398 C81.2903617,61.7983398 80.6344438,61.9760724 79.9023438,62.331543 L79.5786133,61.5253906 C79.9213884,61.3391918 80.2969543,61.1931971 80.7053223,61.0874023 C81.1136902,60.9816075 81.5231099,60.9287109 81.9335938,60.9287109 C82.763025,60.9287109 83.3776835,61.1127911 83.7775879,61.480957 C84.1774922,61.8491229 84.3774414,62.4394491 84.3774414,63.2519531 L84.3774414,68 L83.5966797,68 Z M81.2163086,67.2573242 C81.8722364,67.2573242 82.3874493,67.0774758 82.7619629,66.7177734 C83.1364765,66.3580711 83.3237305,65.8544954 83.3237305,65.2070312 L83.3237305,64.5786133 L82.2700195,64.6230469 C81.4321247,64.6526694 80.8280455,64.7827951 80.4577637,65.0134277 C80.0874819,65.2440604 79.9023438,65.6026994 79.9023438,66.0893555 C79.9023438,66.4702167 80.0176584,66.7600902 80.248291,66.9589844 C80.4789237,67.1578786 80.801593,67.2573242 81.2163086,67.2573242 L81.2163086,67.2573242 Z M88.7954102,67.2573242 C88.981609,67.2573242 89.1614575,67.2435711 89.3349609,67.2160645 C89.5084644,67.1885578 89.6459956,67.1599936 89.7475586,67.1303711 L89.7475586,67.9365234 C89.6333002,67.9915367 89.465089,68.0370278 89.2429199,68.072998 C89.0207508,68.1089683 88.8208017,68.1269531 88.6430664,68.1269531 C87.2973566,68.1269531 86.6245117,67.4181386 86.6245117,66.0004883 L86.6245117,61.8618164 L85.6279297,61.8618164 L85.6279297,61.3540039 L86.6245117,60.9160156 L87.0688477,59.4306641 L87.6782227,59.4306641 L87.6782227,61.0429688 L89.6967773,61.0429688 L89.6967773,61.8618164 L87.6782227,61.8618164 L87.6782227,65.9560547 C87.6782227,66.3750021 87.7776683,66.6966135 87.9765625,66.9208984 C88.1754567,67.1451834 88.4484032,67.2573242 88.7954102,67.2573242 L88.7954102,67.2573242 Z M94.0766602,68.1269531 C93.0483347,68.1269531 92.2369008,67.8138052 91.642334,67.1875 C91.0477672,66.5611948 90.7504883,65.6915746 90.7504883,64.5786133 C90.7504883,63.4571884 91.0266086,62.5664096 91.5788574,61.90625 C92.1311063,61.2460904 92.8727167,60.9160156 93.8037109,60.9160156 C94.6754601,60.9160156 95.3652318,61.2027152 95.8730469,61.776123 C96.3808619,62.3495309 96.6347656,63.1059523 96.6347656,64.0454102 L96.6347656,64.7119141 L91.8422852,64.7119141 C91.8634441,65.5286499 92.0697409,66.1485981 92.4611816,66.5717773 C92.8526224,66.9949565 93.403805,67.206543 94.1147461,67.206543 C94.8637733,67.206543 95.6043258,67.049969 96.3364258,66.7368164 L96.3364258,67.6762695 C95.9640281,67.8370776 95.6117367,67.9523922 95.279541,68.0222168 C94.9473453,68.0920414 94.5463891,68.1269531 94.0766602,68.1269531 L94.0766602,68.1269531 Z M93.7910156,61.7983398 C93.2324191,61.7983398 92.7870297,61.9803042 92.454834,62.3442383 C92.1226383,62.7081724 91.9269209,63.2117481 91.8676758,63.8549805 L95.5048828,63.8549805 C95.5048828,63.1905891 95.3567723,62.6817238 95.0605469,62.3283691 C94.7643214,61.9750145 94.3411486,61.7983398 93.7910156,61.7983398 L93.7910156,61.7983398 Z M104.125,61.0429688 L104.125,61.7094727 L102.836426,61.8618164 C102.954916,62.0099291 103.060709,62.2035307 103.153809,62.442627 C103.246908,62.6817232 103.293457,62.9514959 103.293457,63.2519531 C103.293457,63.9332716 103.060712,64.4770487 102.595215,64.8833008 C102.129718,65.2895528 101.490727,65.4926758 100.678223,65.4926758 C100.470865,65.4926758 100.276205,65.4757489 100.094238,65.4418945 C99.6456683,65.6788749 99.4213867,65.9772117 99.4213867,66.3369141 C99.4213867,66.5273447 99.4996737,66.6680497 99.65625,66.7590332 C99.8128263,66.8500167 100.081541,66.8955078 100.462402,66.8955078 L101.693848,66.8955078 C102.447107,66.8955078 103.025796,67.0541976 103.429932,67.371582 C103.834068,67.6889664 104.036133,68.1502248 104.036133,68.7553711 C104.036133,69.5255572 103.727217,70.1127096 103.109375,70.5168457 C102.491533,70.9209818 101.590175,71.1230469 100.405273,71.1230469 C99.4954382,71.1230469 98.7940292,70.9537777 98.3010254,70.6152344 C97.8080216,70.276691 97.5615234,69.7985057 97.5615234,69.1806641 C97.5615234,68.7574849 97.6969388,68.3914403 97.9677734,68.0825195 C98.2386081,67.7735987 98.6194637,67.5641282 99.1103516,67.4541016 C98.9326163,67.3736975 98.7834479,67.2488615 98.6628418,67.0795898 C98.5422357,66.9103182 98.4819336,66.7135428 98.4819336,66.4892578 C98.4819336,66.2353503 98.5496413,66.0131845 98.6850586,65.8227539 C98.8204759,65.6323233 99.0341782,65.4482431 99.3261719,65.2705078 C98.9664696,65.1223951 98.6734224,64.8706072 98.4470215,64.5151367 C98.2206206,64.1596662 98.1074219,63.7534203 98.1074219,63.2963867 C98.1074219,62.5346642 98.3359352,61.9475118 98.7929688,61.5349121 C99.2500023,61.1223124 99.8974567,60.9160156 100.735352,60.9160156 C101.099286,60.9160156 101.427245,60.9583329 101.719238,61.0429688 L104.125,61.0429688 Z M98.5771484,69.1679688 C98.5771484,69.5445982 98.7358383,69.8302399 99.0532227,70.0249023 C99.3706071,70.2195648 99.8255179,70.3168945 100.417969,70.3168945 C101.302413,70.3168945 101.957273,70.184653 102.382568,69.920166 C102.807863,69.655679 103.020508,69.29704 103.020508,68.8442383 C103.020508,68.4676088 102.904135,68.2062996 102.671387,68.0603027 C102.438638,67.9143059 102.000654,67.8413086 101.357422,67.8413086 L100.094238,67.8413086 C99.6160458,67.8413086 99.2436537,67.9555653 98.9770508,68.184082 C98.7104479,68.4125988 98.5771484,68.7405578 98.5771484,69.1679688 L98.5771484,69.1679688 Z M99.1484375,63.2709961 C99.1484375,63.7576522 99.2859687,64.1258126 99.5610352,64.3754883 C99.8361016,64.625164 100.219073,64.75 100.709961,64.75 C101.738286,64.75 102.252441,64.250656 102.252441,63.2519531 C102.252441,62.2067005 101.731939,61.684082 100.690918,61.684082 C100.195798,61.684082 99.8149427,61.8173815 99.5483398,62.0839844 C99.2817369,62.3505873 99.1484375,62.7462539 99.1484375,63.2709961 L99.1484375,63.2709961 Z M111.558105,64.5151367 C111.558105,65.649257 111.272464,66.5347462 110.701172,67.1716309 C110.12988,67.8085156 109.340663,68.1269531 108.333496,68.1269531 C107.711423,68.1269531 107.159182,67.9809585 106.676758,67.6889648 C106.194334,67.3969712 105.821941,66.9780301 105.55957,66.4321289 C105.297199,65.8862277 105.166016,65.2472367 105.166016,64.5151367 C105.166016,63.3810165 105.449541,62.4976431 106.016602,61.8649902 C106.583662,61.2323373 107.370763,60.9160156 108.37793,60.9160156 C109.351242,60.9160156 110.12459,61.2397429 110.697998,61.887207 C111.271406,62.5346712 111.558105,63.410639 111.558105,64.5151367 L111.558105,64.5151367 Z M106.257812,64.5151367 C106.257812,65.403813 106.435545,66.0808896 106.791016,66.5463867 C107.146486,67.0118838 107.669105,67.2446289 108.358887,67.2446289 C109.048669,67.2446289 109.572345,67.0129418 109.929932,66.5495605 C110.287518,66.0861793 110.466309,65.4080448 110.466309,64.5151367 C110.466309,63.6306922 110.287518,62.9589053 109.929932,62.4997559 C109.572345,62.0406064 109.044437,61.8110352 108.346191,61.8110352 C107.656409,61.8110352 107.135907,62.0374326 106.784668,62.4902344 C106.433429,62.9430361 106.257812,63.6179968 106.257812,64.5151367 L106.257812,64.5151367 Z M116.579102,60.9160156 C116.888022,60.9160156 117.165201,60.941406 117.410645,60.9921875 L117.264648,61.9697266 C116.976887,61.9062497 116.722983,61.8745117 116.50293,61.8745117 C115.940101,61.8745117 115.458742,62.1030251 115.058838,62.5600586 C114.658934,63.0170921 114.458984,63.5862596 114.458984,64.2675781 L114.458984,68 L113.405273,68 L113.405273,61.0429688 L114.274902,61.0429688 L114.395508,62.331543 L114.446289,62.331543 C114.704428,61.8787412 115.01546,61.5296236 115.379395,61.2841797 C115.743329,61.0387358 116.143227,60.9160156 116.579102,60.9160156 L116.579102,60.9160156 Z M117.607422,61.0429688 L118.737305,61.0429688 L120.260742,65.0102539 C120.595054,65.9158574 120.802408,66.5696594 120.882812,66.9716797 L120.933594,66.9716797 C120.988607,66.7558583 121.103922,66.38664 121.279541,65.8640137 C121.45516,65.3413874 122.029618,63.7343885 123.00293,61.0429688 L124.132812,61.0429688 L121.143066,68.9648438 C120.846841,69.7477253 120.500897,70.3031396 120.105225,70.6311035 C119.709552,70.9590674 119.223961,71.1230469 118.648438,71.1230469 C118.326821,71.1230469 118.009442,71.0870772 117.696289,71.0151367 L117.696289,70.1708984 C117.929038,70.2216799 118.189289,70.2470703 118.477051,70.2470703 C119.200687,70.2470703 119.716958,69.8408244 120.025879,69.0283203 L120.413086,68.0380859 L117.607422,61.0429688 Z M134.257324,68 L128.157227,68 L128.157227,67.0922852 L130.601074,64.6357422 C131.34587,63.8824832 131.83675,63.3450537 132.07373,63.0234375 C132.310711,62.7018213 132.488443,62.3886734 132.606934,62.0839844 C132.725424,61.7792954 132.784668,61.4513364 132.784668,61.1000977 C132.784668,60.604978 132.634442,60.2124852 132.333984,59.9226074 C132.033527,59.6327297 131.616702,59.487793 131.083496,59.487793 C130.698403,59.487793 130.333416,59.5512689 129.988525,59.6782227 C129.643634,59.8051764 129.259605,60.0358056 128.836426,60.3701172 L128.277832,59.652832 C129.132654,58.941891 130.063634,58.5864258 131.070801,58.5864258 C131.94255,58.5864258 132.625974,58.8096495 133.121094,59.2561035 C133.616213,59.7025576 133.86377,60.3024051 133.86377,61.0556641 C133.86377,61.6438831 133.698732,62.2257458 133.368652,62.8012695 C133.038573,63.3767932 132.42074,64.1046505 131.515137,64.9848633 L129.483887,66.9716797 L129.483887,67.0224609 L134.257324,67.0224609 L134.257324,68 Z" id="Category-2-Copy-3" fill="#4A4A4A"></path>
                <path d="M75.2495117,89.5512695 C74.2296498,89.5512695 73.4245635,89.8908657 72.8342285,90.5700684 C72.2438935,91.249271 71.9487305,92.1791933 71.9487305,93.3598633 C71.9487305,94.5743876 72.2333142,95.5127734 72.8024902,96.1750488 C73.3716663,96.8373243 74.1831002,97.168457 75.2368164,97.168457 C75.8842806,97.168457 76.6227172,97.0520845 77.4521484,96.8193359 L77.4521484,97.7651367 C76.8089161,98.0063489 76.015467,98.1269531 75.0717773,98.1269531 C73.7049085,98.1269531 72.6501502,97.7122437 71.9074707,96.8828125 C71.1647912,96.0533813 70.793457,94.8748449 70.793457,93.347168 C70.793457,92.390783 70.9722476,91.5529007 71.329834,90.8334961 C71.6874204,90.1140915 72.2036913,89.559735 72.8786621,89.1704102 C73.5536329,88.7810853 74.34814,88.5864258 75.262207,88.5864258 C76.2355192,88.5864258 77.0860966,88.7641584 77.8139648,89.1196289 L77.3569336,90.0463867 C76.6544561,89.7163069 75.9519892,89.5512695 75.2495117,89.5512695 L75.2495117,89.5512695 Z M83.5966797,98 L83.387207,97.0097656 L83.3364258,97.0097656 C82.9894188,97.4456402 82.643475,97.7408033 82.298584,97.8952637 C81.9536929,98.0497241 81.5231146,98.1269531 81.0068359,98.1269531 C80.3170538,98.1269531 79.7764505,97.9492205 79.3850098,97.59375 C78.993569,97.2382795 78.7978516,96.7325879 78.7978516,96.0766602 C78.7978516,94.6717052 79.9213755,93.9353845 82.168457,93.8676758 L83.3491211,93.8295898 L83.3491211,93.3979492 C83.3491211,92.8520481 83.2316906,92.4489759 82.9968262,92.1887207 C82.7619617,91.9284655 82.3863958,91.7983398 81.8701172,91.7983398 C81.2903617,91.7983398 80.6344438,91.9760724 79.9023438,92.331543 L79.5786133,91.5253906 C79.9213884,91.3391918 80.2969543,91.1931971 80.7053223,91.0874023 C81.1136902,90.9816075 81.5231099,90.9287109 81.9335938,90.9287109 C82.763025,90.9287109 83.3776835,91.1127911 83.7775879,91.480957 C84.1774922,91.8491229 84.3774414,92.4394491 84.3774414,93.2519531 L84.3774414,98 L83.5966797,98 Z M81.2163086,97.2573242 C81.8722364,97.2573242 82.3874493,97.0774758 82.7619629,96.7177734 C83.1364765,96.3580711 83.3237305,95.8544954 83.3237305,95.2070312 L83.3237305,94.5786133 L82.2700195,94.6230469 C81.4321247,94.6526694 80.8280455,94.7827951 80.4577637,95.0134277 C80.0874819,95.2440604 79.9023438,95.6026994 79.9023438,96.0893555 C79.9023438,96.4702167 80.0176584,96.7600902 80.248291,96.9589844 C80.4789237,97.1578786 80.801593,97.2573242 81.2163086,97.2573242 L81.2163086,97.2573242 Z M88.7954102,97.2573242 C88.981609,97.2573242 89.1614575,97.2435711 89.3349609,97.2160645 C89.5084644,97.1885578 89.6459956,97.1599936 89.7475586,97.1303711 L89.7475586,97.9365234 C89.6333002,97.9915367 89.465089,98.0370278 89.2429199,98.072998 C89.0207508,98.1089683 88.8208017,98.1269531 88.6430664,98.1269531 C87.2973566,98.1269531 86.6245117,97.4181386 86.6245117,96.0004883 L86.6245117,91.8618164 L85.6279297,91.8618164 L85.6279297,91.3540039 L86.6245117,90.9160156 L87.0688477,89.4306641 L87.6782227,89.4306641 L87.6782227,91.0429688 L89.6967773,91.0429688 L89.6967773,91.8618164 L87.6782227,91.8618164 L87.6782227,95.9560547 C87.6782227,96.3750021 87.7776683,96.6966135 87.9765625,96.9208984 C88.1754567,97.1451834 88.4484032,97.2573242 88.7954102,97.2573242 L88.7954102,97.2573242 Z M94.0766602,98.1269531 C93.0483347,98.1269531 92.2369008,97.8138052 91.642334,97.1875 C91.0477672,96.5611948 90.7504883,95.6915746 90.7504883,94.5786133 C90.7504883,93.4571884 91.0266086,92.5664096 91.5788574,91.90625 C92.1311063,91.2460904 92.8727167,90.9160156 93.8037109,90.9160156 C94.6754601,90.9160156 95.3652318,91.2027152 95.8730469,91.776123 C96.3808619,92.3495309 96.6347656,93.1059523 96.6347656,94.0454102 L96.6347656,94.7119141 L91.8422852,94.7119141 C91.8634441,95.5286499 92.0697409,96.1485981 92.4611816,96.5717773 C92.8526224,96.9949565 93.403805,97.206543 94.1147461,97.206543 C94.8637733,97.206543 95.6043258,97.049969 96.3364258,96.7368164 L96.3364258,97.6762695 C95.9640281,97.8370776 95.6117367,97.9523922 95.279541,98.0222168 C94.9473453,98.0920414 94.5463891,98.1269531 94.0766602,98.1269531 L94.0766602,98.1269531 Z M93.7910156,91.7983398 C93.2324191,91.7983398 92.7870297,91.9803042 92.454834,92.3442383 C92.1226383,92.7081724 91.9269209,93.2117481 91.8676758,93.8549805 L95.5048828,93.8549805 C95.5048828,93.1905891 95.3567723,92.6817238 95.0605469,92.3283691 C94.7643214,91.9750145 94.3411486,91.7983398 93.7910156,91.7983398 L93.7910156,91.7983398 Z M104.125,91.0429688 L104.125,91.7094727 L102.836426,91.8618164 C102.954916,92.0099291 103.060709,92.2035307 103.153809,92.442627 C103.246908,92.6817232 103.293457,92.9514959 103.293457,93.2519531 C103.293457,93.9332716 103.060712,94.4770487 102.595215,94.8833008 C102.129718,95.2895528 101.490727,95.4926758 100.678223,95.4926758 C100.470865,95.4926758 100.276205,95.4757489 100.094238,95.4418945 C99.6456683,95.6788749 99.4213867,95.9772117 99.4213867,96.3369141 C99.4213867,96.5273447 99.4996737,96.6680497 99.65625,96.7590332 C99.8128263,96.8500167 100.081541,96.8955078 100.462402,96.8955078 L101.693848,96.8955078 C102.447107,96.8955078 103.025796,97.0541976 103.429932,97.371582 C103.834068,97.6889664 104.036133,98.1502248 104.036133,98.7553711 C104.036133,99.5255572 103.727217,100.11271 103.109375,100.516846 C102.491533,100.920982 101.590175,101.123047 100.405273,101.123047 C99.4954382,101.123047 98.7940292,100.953778 98.3010254,100.615234 C97.8080216,100.276691 97.5615234,99.7985057 97.5615234,99.1806641 C97.5615234,98.7574849 97.6969388,98.3914403 97.9677734,98.0825195 C98.2386081,97.7735987 98.6194637,97.5641282 99.1103516,97.4541016 C98.9326163,97.3736975 98.7834479,97.2488615 98.6628418,97.0795898 C98.5422357,96.9103182 98.4819336,96.7135428 98.4819336,96.4892578 C98.4819336,96.2353503 98.5496413,96.0131845 98.6850586,95.8227539 C98.8204759,95.6323233 99.0341782,95.4482431 99.3261719,95.2705078 C98.9664696,95.1223951 98.6734224,94.8706072 98.4470215,94.5151367 C98.2206206,94.1596662 98.1074219,93.7534203 98.1074219,93.2963867 C98.1074219,92.5346642 98.3359352,91.9475118 98.7929688,91.5349121 C99.2500023,91.1223124 99.8974567,90.9160156 100.735352,90.9160156 C101.099286,90.9160156 101.427245,90.9583329 101.719238,91.0429688 L104.125,91.0429688 Z M98.5771484,99.1679688 C98.5771484,99.5445982 98.7358383,99.8302399 99.0532227,100.024902 C99.3706071,100.219565 99.8255179,100.316895 100.417969,100.316895 C101.302413,100.316895 101.957273,100.184653 102.382568,99.920166 C102.807863,99.655679 103.020508,99.29704 103.020508,98.8442383 C103.020508,98.4676088 102.904135,98.2062996 102.671387,98.0603027 C102.438638,97.9143059 102.000654,97.8413086 101.357422,97.8413086 L100.094238,97.8413086 C99.6160458,97.8413086 99.2436537,97.9555653 98.9770508,98.184082 C98.7104479,98.4125988 98.5771484,98.7405578 98.5771484,99.1679688 L98.5771484,99.1679688 Z M99.1484375,93.2709961 C99.1484375,93.7576522 99.2859687,94.1258126 99.5610352,94.3754883 C99.8361016,94.625164 100.219073,94.75 100.709961,94.75 C101.738286,94.75 102.252441,94.250656 102.252441,93.2519531 C102.252441,92.2067005 101.731939,91.684082 100.690918,91.684082 C100.195798,91.684082 99.8149427,91.8173815 99.5483398,92.0839844 C99.2817369,92.3505873 99.1484375,92.7462539 99.1484375,93.2709961 L99.1484375,93.2709961 Z M111.558105,94.5151367 C111.558105,95.649257 111.272464,96.5347462 110.701172,97.1716309 C110.12988,97.8085156 109.340663,98.1269531 108.333496,98.1269531 C107.711423,98.1269531 107.159182,97.9809585 106.676758,97.6889648 C106.194334,97.3969712 105.821941,96.9780301 105.55957,96.4321289 C105.297199,95.8862277 105.166016,95.2472367 105.166016,94.5151367 C105.166016,93.3810165 105.449541,92.4976431 106.016602,91.8649902 C106.583662,91.2323373 107.370763,90.9160156 108.37793,90.9160156 C109.351242,90.9160156 110.12459,91.2397429 110.697998,91.887207 C111.271406,92.5346712 111.558105,93.410639 111.558105,94.5151367 L111.558105,94.5151367 Z M106.257812,94.5151367 C106.257812,95.403813 106.435545,96.0808896 106.791016,96.5463867 C107.146486,97.0118838 107.669105,97.2446289 108.358887,97.2446289 C109.048669,97.2446289 109.572345,97.0129418 109.929932,96.5495605 C110.287518,96.0861793 110.466309,95.4080448 110.466309,94.5151367 C110.466309,93.6306922 110.287518,92.9589053 109.929932,92.4997559 C109.572345,92.0406064 109.044437,91.8110352 108.346191,91.8110352 C107.656409,91.8110352 107.135907,92.0374326 106.784668,92.4902344 C106.433429,92.9430361 106.257812,93.6179968 106.257812,94.5151367 L106.257812,94.5151367 Z M116.579102,90.9160156 C116.888022,90.9160156 117.165201,90.941406 117.410645,90.9921875 L117.264648,91.9697266 C116.976887,91.9062497 116.722983,91.8745117 116.50293,91.8745117 C115.940101,91.8745117 115.458742,92.1030251 115.058838,92.5600586 C114.658934,93.0170921 114.458984,93.5862596 114.458984,94.2675781 L114.458984,98 L113.405273,98 L113.405273,91.0429688 L114.274902,91.0429688 L114.395508,92.331543 L114.446289,92.331543 C114.704428,91.8787412 115.01546,91.5296236 115.379395,91.2841797 C115.743329,91.0387358 116.143227,90.9160156 116.579102,90.9160156 L116.579102,90.9160156 Z M117.607422,91.0429688 L118.737305,91.0429688 L120.260742,95.0102539 C120.595054,95.9158574 120.802408,96.5696594 120.882812,96.9716797 L120.933594,96.9716797 C120.988607,96.7558583 121.103922,96.38664 121.279541,95.8640137 C121.45516,95.3413874 122.029618,93.7343885 123.00293,91.0429688 L124.132812,91.0429688 L121.143066,98.9648438 C120.846841,99.7477253 120.500897,100.30314 120.105225,100.631104 C119.709552,100.959067 119.223961,101.123047 118.648438,101.123047 C118.326821,101.123047 118.009442,101.087077 117.696289,101.015137 L117.696289,100.170898 C117.929038,100.22168 118.189289,100.24707 118.477051,100.24707 C119.200687,100.24707 119.716958,99.8408244 120.025879,99.0283203 L120.413086,98.0380859 L117.607422,91.0429688 Z M133.908203,90.9033203 C133.908203,91.4957712 133.742108,91.9803041 133.409912,92.3569336 C133.077716,92.7335631 132.606937,92.9853509 131.997559,93.1123047 L131.997559,93.1630859 C132.742354,93.2561854 133.294595,93.4931622 133.654297,93.8740234 C134.013999,94.2548847 134.193848,94.7542287 134.193848,95.3720703 C134.193848,96.2565148 133.887047,96.9367652 133.273438,97.4128418 C132.659828,97.8889184 131.788092,98.1269531 130.658203,98.1269531 C130.167315,98.1269531 129.717694,98.0899255 129.309326,98.0158691 C128.900958,97.9418128 128.504234,97.8116871 128.119141,97.6254883 L128.119141,96.6225586 C128.521161,96.8214528 128.949623,96.9727371 129.404541,97.076416 C129.859459,97.1800949 130.290037,97.2319336 130.696289,97.2319336 C132.300138,97.2319336 133.102051,96.6035219 133.102051,95.3466797 C133.102051,94.221023 132.21762,93.6582031 130.44873,93.6582031 L129.534668,93.6582031 L129.534668,92.7504883 L130.461426,92.7504883 C131.185062,92.7504883 131.758461,92.5907405 132.181641,92.2712402 C132.60482,91.9517399 132.816406,91.5084664 132.816406,90.9414062 C132.816406,90.4886045 132.66089,90.1331393 132.349854,89.875 C132.038817,89.6168607 131.616702,89.487793 131.083496,89.487793 C130.677244,89.487793 130.294273,89.5428054 129.93457,89.652832 C129.574868,89.7628586 129.16439,89.9659816 128.703125,90.262207 L128.169922,89.5512695 C128.550783,89.2508123 128.989825,89.0148934 129.487061,88.8435059 C129.984296,88.6721183 130.507973,88.5864258 131.058105,88.5864258 C131.959477,88.5864258 132.659828,88.7927225 133.15918,89.2053223 C133.658531,89.617922 133.908203,90.1839157 133.908203,90.9033203 L133.908203,90.9033203 Z" id="Category-3-Copy-3" fill="#4A4A4A"></path>
                <path d="M117.275879,160 L117.275879,150.719727 L118.35498,150.719727 L118.35498,160 L117.275879,160 Z M122.98877,159.257324 C123.174968,159.257324 123.354817,159.243571 123.52832,159.216064 C123.701824,159.188558 123.839355,159.159994 123.940918,159.130371 L123.940918,159.936523 C123.82666,159.991537 123.658448,160.037028 123.436279,160.072998 C123.21411,160.108968 123.014161,160.126953 122.836426,160.126953 C121.490716,160.126953 120.817871,159.418139 120.817871,158.000488 L120.817871,153.861816 L119.821289,153.861816 L119.821289,153.354004 L120.817871,152.916016 L121.262207,151.430664 L121.871582,151.430664 L121.871582,153.042969 L123.890137,153.042969 L123.890137,153.861816 L121.871582,153.861816 L121.871582,157.956055 C121.871582,158.375002 121.971028,158.696613 122.169922,158.920898 C122.368816,159.145183 122.641763,159.257324 122.98877,159.257324 L122.98877,159.257324 Z M128.27002,160.126953 C127.241694,160.126953 126.43026,159.813805 125.835693,159.1875 C125.241127,158.561195 124.943848,157.691575 124.943848,156.578613 C124.943848,155.457188 125.219968,154.56641 125.772217,153.90625 C126.324466,153.24609 127.066076,152.916016 127.99707,152.916016 C128.868819,152.916016 129.558591,153.202715 130.066406,153.776123 C130.574221,154.349531 130.828125,155.105952 130.828125,156.04541 L130.828125,156.711914 L126.035645,156.711914 C126.056803,157.52865 126.2631,158.148598 126.654541,158.571777 C127.045982,158.994957 127.597164,159.206543 128.308105,159.206543 C129.057133,159.206543 129.797685,159.049969 130.529785,158.736816 L130.529785,159.67627 C130.157387,159.837078 129.805096,159.952392 129.4729,160.022217 C129.140705,160.092041 128.739748,160.126953 128.27002,160.126953 L128.27002,160.126953 Z M127.984375,153.79834 C127.425778,153.79834 126.980389,153.980304 126.648193,154.344238 C126.315998,154.708172 126.12028,155.211748 126.061035,155.85498 L129.698242,155.85498 C129.698242,155.190589 129.550132,154.681724 129.253906,154.328369 C128.957681,153.975015 128.534508,153.79834 127.984375,153.79834 L127.984375,153.79834 Z M141.492188,160 L141.492188,155.474121 C141.492188,154.919756 141.373699,154.503989 141.136719,154.226807 C140.899738,153.949624 140.531578,153.811035 140.032227,153.811035 C139.376299,153.811035 138.891766,153.999347 138.578613,154.375977 C138.265461,154.752606 138.108887,155.332353 138.108887,156.115234 L138.108887,160 L137.055176,160 L137.055176,155.474121 C137.055176,154.919756 136.936687,154.503989 136.699707,154.226807 C136.462727,153.949624 136.09245,153.811035 135.588867,153.811035 C134.928708,153.811035 134.445233,154.008868 134.138428,154.404541 C133.831623,154.800214 133.678223,155.448726 133.678223,156.350098 L133.678223,160 L132.624512,160 L132.624512,153.042969 L133.481445,153.042969 L133.652832,153.995117 L133.703613,153.995117 C133.902508,153.656574 134.18286,153.392091 134.544678,153.20166 C134.906496,153.01123 135.311684,152.916016 135.760254,152.916016 C136.847824,152.916016 137.558755,153.309566 137.893066,154.09668 L137.943848,154.09668 C138.151205,153.732746 138.451658,153.444988 138.845215,153.233398 C139.238771,153.021809 139.687335,152.916016 140.190918,152.916016 C140.978031,152.916016 141.567299,153.118081 141.95874,153.522217 C142.350181,153.926353 142.545898,154.572749 142.545898,155.461426 L142.545898,160 L141.492188,160 Z M151.515137,160 L150.486816,160 L150.486816,153.385742 C150.486816,152.835609 150.503743,152.315107 150.537598,151.824219 C150.44873,151.913086 150.349284,152.006184 150.239258,152.103516 C150.129231,152.200847 149.625656,152.61344 148.728516,153.341309 L148.169922,152.617676 L150.626465,150.719727 L151.515137,150.719727 L151.515137,160 Z" id="Item-1-Copy-4" fill="#4A4A4A"></path>
                <path d="M103.107143,179.392857 C103.27381,179.559525 103.416666,179.785713 103.535714,180.071429 C103.654762,180.357144 103.714286,180.619046 103.714286,180.857143 L103.714286,191.142857 C103.714286,191.380954 103.630953,191.583333 103.464286,191.75 C103.297618,191.916667 103.095239,192 102.857143,192 L90.8571429,192 C90.6190464,192 90.4166675,191.916667 90.25,191.75 C90.0833325,191.583333 90,191.380954 90,191.142857 L90,176.857143 C90,176.619046 90.0833325,176.416667 90.25,176.25 C90.4166675,176.083333 90.6190464,176 90.8571429,176 L98.8571429,176 C99.0952393,176 99.3571414,176.059523 99.6428571,176.178571 C99.9285729,176.29762 100.154761,176.440475 100.321429,176.607143 L103.107143,179.392857 Z M99.1428571,177.214286 L99.1428571,180.571429 L102.5,180.571429 C102.440476,180.398809 102.375,180.276786 102.303571,180.205357 L99.5089286,177.410714 C99.4374996,177.339285 99.3154771,177.27381 99.1428571,177.214286 L99.1428571,177.214286 Z M102.571429,190.857143 L102.571429,181.714286 L98.8571429,181.714286 C98.6190464,181.714286 98.4166675,181.630953 98.25,181.464286 C98.0833325,181.297618 98,181.095239 98,180.857143 L98,177.142857 L91.1428571,177.142857 L91.1428571,190.857143 L102.571429,190.857143 Z" id="-copy-8" fill="#4A4A4A"></path>
                <path d="M117.275879,190 L117.275879,180.719727 L118.35498,180.719727 L118.35498,190 L117.275879,190 Z M122.98877,189.257324 C123.174968,189.257324 123.354817,189.243571 123.52832,189.216064 C123.701824,189.188558 123.839355,189.159994 123.940918,189.130371 L123.940918,189.936523 C123.82666,189.991537 123.658448,190.037028 123.436279,190.072998 C123.21411,190.108968 123.014161,190.126953 122.836426,190.126953 C121.490716,190.126953 120.817871,189.418139 120.817871,188.000488 L120.817871,183.861816 L119.821289,183.861816 L119.821289,183.354004 L120.817871,182.916016 L121.262207,181.430664 L121.871582,181.430664 L121.871582,183.042969 L123.890137,183.042969 L123.890137,183.861816 L121.871582,183.861816 L121.871582,187.956055 C121.871582,188.375002 121.971028,188.696613 122.169922,188.920898 C122.368816,189.145183 122.641763,189.257324 122.98877,189.257324 L122.98877,189.257324 Z M128.27002,190.126953 C127.241694,190.126953 126.43026,189.813805 125.835693,189.1875 C125.241127,188.561195 124.943848,187.691575 124.943848,186.578613 C124.943848,185.457188 125.219968,184.56641 125.772217,183.90625 C126.324466,183.24609 127.066076,182.916016 127.99707,182.916016 C128.868819,182.916016 129.558591,183.202715 130.066406,183.776123 C130.574221,184.349531 130.828125,185.105952 130.828125,186.04541 L130.828125,186.711914 L126.035645,186.711914 C126.056803,187.52865 126.2631,188.148598 126.654541,188.571777 C127.045982,188.994957 127.597164,189.206543 128.308105,189.206543 C129.057133,189.206543 129.797685,189.049969 130.529785,188.736816 L130.529785,189.67627 C130.157387,189.837078 129.805096,189.952392 129.4729,190.022217 C129.140705,190.092041 128.739748,190.126953 128.27002,190.126953 L128.27002,190.126953 Z M127.984375,183.79834 C127.425778,183.79834 126.980389,183.980304 126.648193,184.344238 C126.315998,184.708172 126.12028,185.211748 126.061035,185.85498 L129.698242,185.85498 C129.698242,185.190589 129.550132,184.681724 129.253906,184.328369 C128.957681,183.975015 128.534508,183.79834 127.984375,183.79834 L127.984375,183.79834 Z M141.492188,190 L141.492188,185.474121 C141.492188,184.919756 141.373699,184.503989 141.136719,184.226807 C140.899738,183.949624 140.531578,183.811035 140.032227,183.811035 C139.376299,183.811035 138.891766,183.999347 138.578613,184.375977 C138.265461,184.752606 138.108887,185.332353 138.108887,186.115234 L138.108887,190 L137.055176,190 L137.055176,185.474121 C137.055176,184.919756 136.936687,184.503989 136.699707,184.226807 C136.462727,183.949624 136.09245,183.811035 135.588867,183.811035 C134.928708,183.811035 134.445233,184.008868 134.138428,184.404541 C133.831623,184.800214 133.678223,185.448726 133.678223,186.350098 L133.678223,190 L132.624512,190 L132.624512,183.042969 L133.481445,183.042969 L133.652832,183.995117 L133.703613,183.995117 C133.902508,183.656574 134.18286,183.392091 134.544678,183.20166 C134.906496,183.01123 135.311684,182.916016 135.760254,182.916016 C136.847824,182.916016 137.558755,183.309566 137.893066,184.09668 L137.943848,184.09668 C138.151205,183.732746 138.451658,183.444988 138.845215,183.233398 C139.238771,183.021809 139.687335,182.916016 140.190918,182.916016 C140.978031,182.916016 141.567299,183.118081 141.95874,183.522217 C142.350181,183.926353 142.545898,184.572749 142.545898,185.461426 L142.545898,190 L141.492188,190 Z M153.711426,190 L147.611328,190 L147.611328,189.092285 L150.055176,186.635742 C150.799971,185.882483 151.290852,185.345054 151.527832,185.023438 C151.764812,184.701821 151.942545,184.388673 152.061035,184.083984 C152.179525,183.779295 152.23877,183.451336 152.23877,183.100098 C152.23877,182.604978 152.088543,182.212485 151.788086,181.922607 C151.487629,181.63273 151.070803,181.487793 150.537598,181.487793 C150.152505,181.487793 149.787518,181.551269 149.442627,181.678223 C149.097736,181.805176 148.713707,182.035806 148.290527,182.370117 L147.731934,181.652832 C148.586756,180.941891 149.517736,180.586426 150.524902,180.586426 C151.396651,180.586426 152.080076,180.809649 152.575195,181.256104 C153.070315,181.702558 153.317871,182.302405 153.317871,183.055664 C153.317871,183.643883 153.152834,184.225746 152.822754,184.80127 C152.492674,185.376793 151.874842,186.104651 150.969238,186.984863 L148.937988,188.97168 L148.937988,189.022461 L153.711426,189.022461 L153.711426,190 Z" id="Item-2-Copy-5" fill="#4A4A4A"></path>
                <path d="M103.107143,209.392857 C103.27381,209.559525 103.416666,209.785713 103.535714,210.071429 C103.654762,210.357144 103.714286,210.619046 103.714286,210.857143 L103.714286,221.142857 C103.714286,221.380954 103.630953,221.583333 103.464286,221.75 C103.297618,221.916667 103.095239,222 102.857143,222 L90.8571429,222 C90.6190464,222 90.4166675,221.916667 90.25,221.75 C90.0833325,221.583333 90,221.380954 90,221.142857 L90,206.857143 C90,206.619046 90.0833325,206.416667 90.25,206.25 C90.4166675,206.083333 90.6190464,206 90.8571429,206 L98.8571429,206 C99.0952393,206 99.3571414,206.059523 99.6428571,206.178571 C99.9285729,206.29762 100.154761,206.440475 100.321429,206.607143 L103.107143,209.392857 Z M99.1428571,207.214286 L99.1428571,210.571429 L102.5,210.571429 C102.440476,210.398809 102.375,210.276786 102.303571,210.205357 L99.5089286,207.410714 C99.4374996,207.339285 99.3154771,207.27381 99.1428571,207.214286 L99.1428571,207.214286 Z M102.571429,220.857143 L102.571429,211.714286 L98.8571429,211.714286 C98.6190464,211.714286 98.4166675,211.630953 98.25,211.464286 C98.0833325,211.297618 98,211.095239 98,210.857143 L98,207.142857 L91.1428571,207.142857 L91.1428571,220.857143 L102.571429,220.857143 Z" id="-copy-9" fill="#4A4A4A"></path>
                <path d="M117.275879,220 L117.275879,210.719727 L118.35498,210.719727 L118.35498,220 L117.275879,220 Z M122.98877,219.257324 C123.174968,219.257324 123.354817,219.243571 123.52832,219.216064 C123.701824,219.188558 123.839355,219.159994 123.940918,219.130371 L123.940918,219.936523 C123.82666,219.991537 123.658448,220.037028 123.436279,220.072998 C123.21411,220.108968 123.014161,220.126953 122.836426,220.126953 C121.490716,220.126953 120.817871,219.418139 120.817871,218.000488 L120.817871,213.861816 L119.821289,213.861816 L119.821289,213.354004 L120.817871,212.916016 L121.262207,211.430664 L121.871582,211.430664 L121.871582,213.042969 L123.890137,213.042969 L123.890137,213.861816 L121.871582,213.861816 L121.871582,217.956055 C121.871582,218.375002 121.971028,218.696613 122.169922,218.920898 C122.368816,219.145183 122.641763,219.257324 122.98877,219.257324 L122.98877,219.257324 Z M128.27002,220.126953 C127.241694,220.126953 126.43026,219.813805 125.835693,219.1875 C125.241127,218.561195 124.943848,217.691575 124.943848,216.578613 C124.943848,215.457188 125.219968,214.56641 125.772217,213.90625 C126.324466,213.24609 127.066076,212.916016 127.99707,212.916016 C128.868819,212.916016 129.558591,213.202715 130.066406,213.776123 C130.574221,214.349531 130.828125,215.105952 130.828125,216.04541 L130.828125,216.711914 L126.035645,216.711914 C126.056803,217.52865 126.2631,218.148598 126.654541,218.571777 C127.045982,218.994957 127.597164,219.206543 128.308105,219.206543 C129.057133,219.206543 129.797685,219.049969 130.529785,218.736816 L130.529785,219.67627 C130.157387,219.837078 129.805096,219.952392 129.4729,220.022217 C129.140705,220.092041 128.739748,220.126953 128.27002,220.126953 L128.27002,220.126953 Z M127.984375,213.79834 C127.425778,213.79834 126.980389,213.980304 126.648193,214.344238 C126.315998,214.708172 126.12028,215.211748 126.061035,215.85498 L129.698242,215.85498 C129.698242,215.190589 129.550132,214.681724 129.253906,214.328369 C128.957681,213.975015 128.534508,213.79834 127.984375,213.79834 L127.984375,213.79834 Z M141.492188,220 L141.492188,215.474121 C141.492188,214.919756 141.373699,214.503989 141.136719,214.226807 C140.899738,213.949624 140.531578,213.811035 140.032227,213.811035 C139.376299,213.811035 138.891766,213.999347 138.578613,214.375977 C138.265461,214.752606 138.108887,215.332353 138.108887,216.115234 L138.108887,220 L137.055176,220 L137.055176,215.474121 C137.055176,214.919756 136.936687,214.503989 136.699707,214.226807 C136.462727,213.949624 136.09245,213.811035 135.588867,213.811035 C134.928708,213.811035 134.445233,214.008868 134.138428,214.404541 C133.831623,214.800214 133.678223,215.448726 133.678223,216.350098 L133.678223,220 L132.624512,220 L132.624512,213.042969 L133.481445,213.042969 L133.652832,213.995117 L133.703613,213.995117 C133.902508,213.656574 134.18286,213.392091 134.544678,213.20166 C134.906496,213.01123 135.311684,212.916016 135.760254,212.916016 C136.847824,212.916016 137.558755,213.309566 137.893066,214.09668 L137.943848,214.09668 C138.151205,213.732746 138.451658,213.444988 138.845215,213.233398 C139.238771,213.021809 139.687335,212.916016 140.190918,212.916016 C140.978031,212.916016 141.567299,213.118081 141.95874,213.522217 C142.350181,213.926353 142.545898,214.572749 142.545898,215.461426 L142.545898,220 L141.492188,220 Z M153.362305,212.90332 C153.362305,213.495771 153.196209,213.980304 152.864014,214.356934 C152.531818,214.733563 152.061038,214.985351 151.45166,215.112305 L151.45166,215.163086 C152.196456,215.256185 152.748696,215.493162 153.108398,215.874023 C153.468101,216.254885 153.647949,216.754229 153.647949,217.37207 C153.647949,218.256515 153.341149,218.936765 152.727539,219.412842 C152.113929,219.888918 151.242193,220.126953 150.112305,220.126953 C149.621417,220.126953 149.171796,220.089926 148.763428,220.015869 C148.35506,219.941813 147.958335,219.811687 147.573242,219.625488 L147.573242,218.622559 C147.975262,218.821453 148.403725,218.972737 148.858643,219.076416 C149.31356,219.180095 149.744139,219.231934 150.150391,219.231934 C151.75424,219.231934 152.556152,218.603522 152.556152,217.34668 C152.556152,216.221023 151.671721,215.658203 149.902832,215.658203 L148.98877,215.658203 L148.98877,214.750488 L149.915527,214.750488 C150.639164,214.750488 151.212563,214.590741 151.635742,214.27124 C152.058921,213.95174 152.270508,213.508466 152.270508,212.941406 C152.270508,212.488605 152.114992,212.133139 151.803955,211.875 C151.492918,211.616861 151.070803,211.487793 150.537598,211.487793 C150.131346,211.487793 149.748374,211.542805 149.388672,211.652832 C149.02897,211.762859 148.618492,211.965982 148.157227,212.262207 L147.624023,211.55127 C148.004885,211.250812 148.443927,211.014893 148.941162,210.843506 C149.438398,210.672118 149.962074,210.586426 150.512207,210.586426 C151.413579,210.586426 152.11393,210.792723 152.613281,211.205322 C153.112633,211.617922 153.362305,212.183916 153.362305,212.90332 L153.362305,212.90332 Z" id="Item-3-Copy-5" fill="#4A4A4A"></path>
                <path d="M59.2386364,94.125 C59.2386364,93.8598472 59.0378808,93.7272727 58.6363636,93.7272727 L46.2727273,93.7272727 C45.9696955,93.7272727 45.6458351,93.8087113 45.3011364,93.9715909 C44.9564377,94.1344705 44.685607,94.3333322 44.4886364,94.5681818 L41.1477273,98.6931818 C41.011363,98.8750009 40.9431818,99.0265145 40.9431818,99.1477273 C40.9431818,99.4128801 41.1439374,99.5454545 41.5454545,99.5454545 L53.9090909,99.5454545 C54.2121227,99.5454545 54.537877,99.462122 54.8863636,99.2954545 C55.2348502,99.128787 55.5037869,98.9280315 55.6931818,98.6931818 L59.0340909,94.5681818 C59.1704552,94.4015143 59.2386364,94.2537885 59.2386364,94.125 L59.2386364,94.125 Z M46.2727273,92.2727273 L55,92.2727273 L55,90.4545455 C55,90.1515136 54.8939405,89.8939405 54.6818182,89.6818182 C54.4696959,89.4696959 54.2121227,89.3636364 53.9090909,89.3636364 L47.3636364,89.3636364 C47.0606045,89.3636364 46.8030314,89.2575768 46.5909091,89.0454545 C46.3787868,88.8333323 46.2727273,88.5757591 46.2727273,88.2727273 L46.2727273,87.5454545 C46.2727273,87.2424227 46.1666677,86.9848495 45.9545455,86.7727273 C45.7424232,86.560605 45.48485,86.4545455 45.1818182,86.4545455 L41.5454545,86.4545455 C41.2424227,86.4545455 40.9848495,86.560605 40.7727273,86.7727273 C40.560605,86.9848495 40.4545455,87.2424227 40.4545455,87.5454545 L40.4545455,97.2386364 L43.3636364,93.6590909 C43.6969714,93.2575737 44.1363609,92.9261377 44.6818182,92.6647727 C45.2272755,92.4034078 45.7575732,92.2727273 46.2727273,92.2727273 L46.2727273,92.2727273 Z M60.6931818,94.125 C60.6931818,94.5946993 60.5189411,95.0492402 60.1704545,95.4886364 L56.8181818,99.6136364 C56.4924226,100.015154 56.0530331,100.34659 55.5,100.607955 C54.9469669,100.869319 54.4166692,101 53.9090909,101 L41.5454545,101 C40.8484814,101 40.2500025,100.750003 39.75,100.25 C39.2499975,99.7499975 39,99.1515186 39,98.4545455 L39,87.5454545 C39,86.8484814 39.2499975,86.2500025 39.75,85.75 C40.2500025,85.2499975 40.8484814,85 41.5454545,85 L45.1818182,85 C45.8787914,85 46.4772702,85.2499975 46.9772727,85.75 C47.4772752,86.2500025 47.7272727,86.8484814 47.7272727,87.5454545 L47.7272727,87.9090909 L53.9090909,87.9090909 C54.6060641,87.9090909 55.204543,88.1590884 55.7045455,88.6590909 C56.204548,89.1590934 56.4545455,89.7575723 56.4545455,90.4545455 L56.4545455,92.2727273 L58.6363636,92.2727273 C59.0454566,92.2727273 59.4204528,92.3655294 59.7613636,92.5511364 C60.1022744,92.7367434 60.3560598,93.0037861 60.5227273,93.3522727 C60.6363642,93.5946982 60.6931818,93.8522714 60.6931818,94.125 L60.6931818,94.125 Z" id="-copy-5" fill="#4A4A4A"></path>
                <path d="M52.25,123.25 C52.25,123.385417 52.2005213,123.502604 52.1015625,123.601563 L48.6015625,127.101563 C48.5026037,127.200521 48.3854173,127.25 48.25,127.25 C48.1145827,127.25 47.9973963,127.200521 47.8984375,127.101563 C47.7994787,127.002604 47.75,126.885417 47.75,126.75 L47.75,119.75 C47.75,119.614583 47.7994787,119.497396 47.8984375,119.398438 C47.9973963,119.299479 48.1145827,119.25 48.25,119.25 C48.3854173,119.25 48.5026037,119.299479 48.6015625,119.398438 L52.1015625,122.898438 C52.2005213,122.997396 52.25,123.114583 52.25,123.25 L52.25,123.25 Z" id="-copy-17" fill="#4A4A4A" transform="translate(50.000000, 123.250000) rotate(-270.000000) translate(-50.000000, -123.250000) "></path>
                <path d="M98.2495117,119.55127 C97.2296498,119.55127 96.4245635,119.890866 95.8342285,120.570068 C95.2438935,121.249271 94.9487305,122.179193 94.9487305,123.359863 C94.9487305,124.574388 95.2333142,125.512773 95.8024902,126.175049 C96.3716663,126.837324 97.1831002,127.168457 98.2368164,127.168457 C98.8842806,127.168457 99.6227172,127.052084 100.452148,126.819336 L100.452148,127.765137 C99.8089161,128.006349 99.015467,128.126953 98.0717773,128.126953 C96.7049085,128.126953 95.6501502,127.712244 94.9074707,126.882812 C94.1647912,126.053381 93.793457,124.874845 93.793457,123.347168 C93.793457,122.390783 93.9722476,121.552901 94.329834,120.833496 C94.6874204,120.114091 95.2036913,119.559735 95.8786621,119.17041 C96.5536329,118.781085 97.34814,118.586426 98.262207,118.586426 C99.2355192,118.586426 100.086097,118.764158 100.813965,119.119629 L100.356934,120.046387 C99.6544561,119.716307 98.9519892,119.55127 98.2495117,119.55127 L98.2495117,119.55127 Z M106.59668,128 L106.387207,127.009766 L106.336426,127.009766 C105.989419,127.44564 105.643475,127.740803 105.298584,127.895264 C104.953693,128.049724 104.523115,128.126953 104.006836,128.126953 C103.317054,128.126953 102.776451,127.949221 102.38501,127.59375 C101.993569,127.238279 101.797852,126.732588 101.797852,126.07666 C101.797852,124.671705 102.921375,123.935384 105.168457,123.867676 L106.349121,123.82959 L106.349121,123.397949 C106.349121,122.852048 106.231691,122.448976 105.996826,122.188721 C105.761962,121.928465 105.386396,121.79834 104.870117,121.79834 C104.290362,121.79834 103.634444,121.976072 102.902344,122.331543 L102.578613,121.525391 C102.921388,121.339192 103.296954,121.193197 103.705322,121.087402 C104.11369,120.981608 104.52311,120.928711 104.933594,120.928711 C105.763025,120.928711 106.377684,121.112791 106.777588,121.480957 C107.177492,121.849123 107.377441,122.439449 107.377441,123.251953 L107.377441,128 L106.59668,128 Z M104.216309,127.257324 C104.872236,127.257324 105.387449,127.077476 105.761963,126.717773 C106.136476,126.358071 106.32373,125.854495 106.32373,125.207031 L106.32373,124.578613 L105.27002,124.623047 C104.432125,124.652669 103.828045,124.782795 103.457764,125.013428 C103.087482,125.24406 102.902344,125.602699 102.902344,126.089355 C102.902344,126.470217 103.017658,126.76009 103.248291,126.958984 C103.478924,127.157879 103.801593,127.257324 104.216309,127.257324 L104.216309,127.257324 Z M111.79541,127.257324 C111.981609,127.257324 112.161457,127.243571 112.334961,127.216064 C112.508464,127.188558 112.645996,127.159994 112.747559,127.130371 L112.747559,127.936523 C112.6333,127.991537 112.465089,128.037028 112.24292,128.072998 C112.020751,128.108968 111.820802,128.126953 111.643066,128.126953 C110.297357,128.126953 109.624512,127.418139 109.624512,126.000488 L109.624512,121.861816 L108.62793,121.861816 L108.62793,121.354004 L109.624512,120.916016 L110.068848,119.430664 L110.678223,119.430664 L110.678223,121.042969 L112.696777,121.042969 L112.696777,121.861816 L110.678223,121.861816 L110.678223,125.956055 C110.678223,126.375002 110.777668,126.696613 110.976562,126.920898 C111.175457,127.145183 111.448403,127.257324 111.79541,127.257324 L111.79541,127.257324 Z M117.07666,128.126953 C116.048335,128.126953 115.236901,127.813805 114.642334,127.1875 C114.047767,126.561195 113.750488,125.691575 113.750488,124.578613 C113.750488,123.457188 114.026609,122.56641 114.578857,121.90625 C115.131106,121.24609 115.872717,120.916016 116.803711,120.916016 C117.67546,120.916016 118.365232,121.202715 118.873047,121.776123 C119.380862,122.349531 119.634766,123.105952 119.634766,124.04541 L119.634766,124.711914 L114.842285,124.711914 C114.863444,125.52865 115.069741,126.148598 115.461182,126.571777 C115.852622,126.994957 116.403805,127.206543 117.114746,127.206543 C117.863773,127.206543 118.604326,127.049969 119.336426,126.736816 L119.336426,127.67627 C118.964028,127.837078 118.611737,127.952392 118.279541,128.022217 C117.947345,128.092041 117.546389,128.126953 117.07666,128.126953 L117.07666,128.126953 Z M116.791016,121.79834 C116.232419,121.79834 115.78703,121.980304 115.454834,122.344238 C115.122638,122.708172 114.926921,123.211748 114.867676,123.85498 L118.504883,123.85498 C118.504883,123.190589 118.356772,122.681724 118.060547,122.328369 C117.764321,121.975015 117.341149,121.79834 116.791016,121.79834 L116.791016,121.79834 Z M127.125,121.042969 L127.125,121.709473 L125.836426,121.861816 C125.954916,122.009929 126.060709,122.203531 126.153809,122.442627 C126.246908,122.681723 126.293457,122.951496 126.293457,123.251953 C126.293457,123.933272 126.060712,124.477049 125.595215,124.883301 C125.129718,125.289553 124.490727,125.492676 123.678223,125.492676 C123.470865,125.492676 123.276205,125.475749 123.094238,125.441895 C122.645668,125.678875 122.421387,125.977212 122.421387,126.336914 C122.421387,126.527345 122.499674,126.66805 122.65625,126.759033 C122.812826,126.850017 123.081541,126.895508 123.462402,126.895508 L124.693848,126.895508 C125.447107,126.895508 126.025796,127.054198 126.429932,127.371582 C126.834068,127.688966 127.036133,128.150225 127.036133,128.755371 C127.036133,129.525557 126.727217,130.11271 126.109375,130.516846 C125.491533,130.920982 124.590175,131.123047 123.405273,131.123047 C122.495438,131.123047 121.794029,130.953778 121.301025,130.615234 C120.808022,130.276691 120.561523,129.798506 120.561523,129.180664 C120.561523,128.757485 120.696939,128.39144 120.967773,128.08252 C121.238608,127.773599 121.619464,127.564128 122.110352,127.454102 C121.932616,127.373698 121.783448,127.248862 121.662842,127.07959 C121.542236,126.910318 121.481934,126.713543 121.481934,126.489258 C121.481934,126.23535 121.549641,126.013185 121.685059,125.822754 C121.820476,125.632323 122.034178,125.448243 122.326172,125.270508 C121.96647,125.122395 121.673422,124.870607 121.447021,124.515137 C121.220621,124.159666 121.107422,123.75342 121.107422,123.296387 C121.107422,122.534664 121.335935,121.947512 121.792969,121.534912 C122.250002,121.122312 122.897457,120.916016 123.735352,120.916016 C124.099286,120.916016 124.427245,120.958333 124.719238,121.042969 L127.125,121.042969 Z M121.577148,129.167969 C121.577148,129.544598 121.735838,129.83024 122.053223,130.024902 C122.370607,130.219565 122.825518,130.316895 123.417969,130.316895 C124.302413,130.316895 124.957273,130.184653 125.382568,129.920166 C125.807863,129.655679 126.020508,129.29704 126.020508,128.844238 C126.020508,128.467609 125.904135,128.2063 125.671387,128.060303 C125.438638,127.914306 125.000654,127.841309 124.357422,127.841309 L123.094238,127.841309 C122.616046,127.841309 122.243654,127.955565 121.977051,128.184082 C121.710448,128.412599 121.577148,128.740558 121.577148,129.167969 L121.577148,129.167969 Z M122.148438,123.270996 C122.148438,123.757652 122.285969,124.125813 122.561035,124.375488 C122.836102,124.625164 123.219073,124.75 123.709961,124.75 C124.738286,124.75 125.252441,124.250656 125.252441,123.251953 C125.252441,122.206701 124.731939,121.684082 123.690918,121.684082 C123.195798,121.684082 122.814943,121.817381 122.54834,122.083984 C122.281737,122.350587 122.148438,122.746254 122.148438,123.270996 L122.148438,123.270996 Z M134.558105,124.515137 C134.558105,125.649257 134.272464,126.534746 133.701172,127.171631 C133.12988,127.808516 132.340663,128.126953 131.333496,128.126953 C130.711423,128.126953 130.159182,127.980958 129.676758,127.688965 C129.194334,127.396971 128.821941,126.97803 128.55957,126.432129 C128.297199,125.886228 128.166016,125.247237 128.166016,124.515137 C128.166016,123.381016 128.449541,122.497643 129.016602,121.86499 C129.583662,121.232337 130.370763,120.916016 131.37793,120.916016 C132.351242,120.916016 133.12459,121.239743 133.697998,121.887207 C134.271406,122.534671 134.558105,123.410639 134.558105,124.515137 L134.558105,124.515137 Z M129.257812,124.515137 C129.257812,125.403813 129.435545,126.08089 129.791016,126.546387 C130.146486,127.011884 130.669105,127.244629 131.358887,127.244629 C132.048669,127.244629 132.572345,127.012942 132.929932,126.549561 C133.287518,126.086179 133.466309,125.408045 133.466309,124.515137 C133.466309,123.630692 133.287518,122.958905 132.929932,122.499756 C132.572345,122.040606 132.044437,121.811035 131.346191,121.811035 C130.656409,121.811035 130.135907,122.037433 129.784668,122.490234 C129.433429,122.943036 129.257812,123.617997 129.257812,124.515137 L129.257812,124.515137 Z M139.579102,120.916016 C139.888022,120.916016 140.165201,120.941406 140.410645,120.992188 L140.264648,121.969727 C139.976887,121.90625 139.722983,121.874512 139.50293,121.874512 C138.940101,121.874512 138.458742,122.103025 138.058838,122.560059 C137.658934,123.017092 137.458984,123.58626 137.458984,124.267578 L137.458984,128 L136.405273,128 L136.405273,121.042969 L137.274902,121.042969 L137.395508,122.331543 L137.446289,122.331543 C137.704428,121.878741 138.01546,121.529624 138.379395,121.28418 C138.743329,121.038736 139.143227,120.916016 139.579102,120.916016 L139.579102,120.916016 Z M140.607422,121.042969 L141.737305,121.042969 L143.260742,125.010254 C143.595054,125.915857 143.802408,126.569659 143.882812,126.97168 L143.933594,126.97168 C143.988607,126.755858 144.103922,126.38664 144.279541,125.864014 C144.45516,125.341387 145.029618,123.734388 146.00293,121.042969 L147.132812,121.042969 L144.143066,128.964844 C143.846841,129.747725 143.500897,130.30314 143.105225,130.631104 C142.709552,130.959067 142.223961,131.123047 141.648438,131.123047 C141.326821,131.123047 141.009442,131.087077 140.696289,131.015137 L140.696289,130.170898 C140.929038,130.22168 141.189289,130.24707 141.477051,130.24707 C142.200687,130.24707 142.716958,129.840824 143.025879,129.02832 L143.413086,128.038086 L140.607422,121.042969 Z M157.695312,125.867188 L156.317871,125.867188 L156.317871,128 L155.308594,128 L155.308594,125.867188 L150.79541,125.867188 L150.79541,124.946777 L155.200684,118.668945 L156.317871,118.668945 L156.317871,124.908691 L157.695312,124.908691 L157.695312,125.867188 Z M155.308594,124.908691 L155.308594,121.82373 C155.308594,121.218584 155.329752,120.53516 155.37207,119.773438 L155.321289,119.773438 C155.118163,120.17969 154.927735,120.516112 154.75,120.782715 L151.849121,124.908691 L155.308594,124.908691 Z" id="Category-4-Copy-3" fill="#4A4A4A"></path>
                <path d="M82.2386364,124.125 C82.2386364,123.859847 82.0378808,123.727273 81.6363636,123.727273 L69.2727273,123.727273 C68.9696955,123.727273 68.6458351,123.808711 68.3011364,123.971591 C67.9564377,124.134471 67.685607,124.333332 67.4886364,124.568182 L64.1477273,128.693182 C64.011363,128.875001 63.9431818,129.026515 63.9431818,129.147727 C63.9431818,129.41288 64.1439374,129.545455 64.5454545,129.545455 L76.9090909,129.545455 C77.2121227,129.545455 77.537877,129.462122 77.8863636,129.295455 C78.2348502,129.128787 78.5037869,128.928031 78.6931818,128.693182 L82.0340909,124.568182 C82.1704552,124.401514 82.2386364,124.253789 82.2386364,124.125 L82.2386364,124.125 Z M69.2727273,122.272727 L78,122.272727 L78,120.454545 C78,120.151514 77.8939405,119.89394 77.6818182,119.681818 C77.4696959,119.469696 77.2121227,119.363636 76.9090909,119.363636 L70.3636364,119.363636 C70.0606045,119.363636 69.8030314,119.257577 69.5909091,119.045455 C69.3787868,118.833332 69.2727273,118.575759 69.2727273,118.272727 L69.2727273,117.545455 C69.2727273,117.242423 69.1666677,116.98485 68.9545455,116.772727 C68.7424232,116.560605 68.48485,116.454545 68.1818182,116.454545 L64.5454545,116.454545 C64.2424227,116.454545 63.9848495,116.560605 63.7727273,116.772727 C63.560605,116.98485 63.4545455,117.242423 63.4545455,117.545455 L63.4545455,127.238636 L66.3636364,123.659091 C66.6969714,123.257574 67.1363609,122.926138 67.6818182,122.664773 C68.2272755,122.403408 68.7575732,122.272727 69.2727273,122.272727 L69.2727273,122.272727 Z M83.6931818,124.125 C83.6931818,124.594699 83.5189411,125.04924 83.1704545,125.488636 L79.8181818,129.613636 C79.4924226,130.015154 79.0530331,130.34659 78.5,130.607955 C77.9469669,130.869319 77.4166692,131 76.9090909,131 L64.5454545,131 C63.8484814,131 63.2500025,130.750002 62.75,130.25 C62.2499975,129.749997 62,129.151519 62,128.454545 L62,117.545455 C62,116.848481 62.2499975,116.250002 62.75,115.75 C63.2500025,115.249997 63.8484814,115 64.5454545,115 L68.1818182,115 C68.8787914,115 69.4772702,115.249997 69.9772727,115.75 C70.4772752,116.250002 70.7272727,116.848481 70.7272727,117.545455 L70.7272727,117.909091 L76.9090909,117.909091 C77.6060641,117.909091 78.204543,118.159088 78.7045455,118.659091 C79.204548,119.159093 79.4545455,119.757572 79.4545455,120.454545 L79.4545455,122.272727 L81.6363636,122.272727 C82.0454566,122.272727 82.4204528,122.365529 82.7613636,122.551136 C83.1022744,122.736743 83.3560598,123.003786 83.5227273,123.352273 C83.6363642,123.594698 83.6931818,123.852271 83.6931818,124.125 L83.6931818,124.125 Z" id="-copy-6" fill="#4A4A4A"></path>
            </g>
        </g>
    </g>
</svg>