<?xml version="1.0" encoding="UTF-8" standalone="no"?>
<svg width="248px" height="288px" viewBox="0 0 248 288" version="1.1" xmlns="http://www.w3.org/2000/svg" xmlns:xlink="http://www.w3.org/1999/xlink">
    <!-- Generator: Sketch 40.2 (33826) - http://www.bohemiancoding.com/sketch -->
    <title>list-gry</title>
    <desc>Created with Sketch.</desc>
    <defs></defs>
    <g id="Components" stroke="none" stroke-width="1" fill="none" fill-rule="evenodd">
        <g id="Icons" transform="translate(-915.000000, -1013.000000)">
            <g id="list-gry" transform="translate(915.000000, 1013.000000)">
                <rect id="Rectangle-13-Copy-10" fill="#F5F5F5" x="0" y="0" width="248" height="288"></rect>
                <rect id="Rectangle-13-Copy-11" fill="#E0E0E0" x="0" y="137" width="248" height="32"></rect>
                <path d="M65.4545455,37.4545455 L65.4545455,29.4545455 C65.4545455,29.1515136 65.3484859,28.8939405 65.1363636,28.6818182 C64.9242414,28.4696959 64.6666682,28.3636364 64.3636364,28.3636364 L56.3636364,28.3636364 C56.0606045,28.3636364 55.8030314,28.2575768 55.5909091,28.0454545 C55.3787868,27.8333323 55.2727273,27.5757591 55.2727273,27.2727273 L55.2727273,26.5454545 C55.2727273,26.2424227 55.1666677,25.9848495 54.9545455,25.7727273 C54.7424232,25.560605 54.48485,25.4545455 54.1818182,25.4545455 L50.5454545,25.4545455 C50.2424227,25.4545455 49.9848495,25.560605 49.7727273,25.7727273 C49.560605,25.9848495 49.4545455,26.2424227 49.4545455,26.5454545 L49.4545455,37.4545455 C49.4545455,37.7575773 49.560605,38.0151505 49.7727273,38.2272727 C49.9848495,38.439395 50.2424227,38.5454545 50.5454545,38.5454545 L64.3636364,38.5454545 C64.6666682,38.5454545 64.9242414,38.439395 65.1363636,38.2272727 C65.3484859,38.0151505 65.4545455,37.7575773 65.4545455,37.4545455 L65.4545455,37.4545455 Z M66.9090909,29.4545455 L66.9090909,37.4545455 C66.9090909,38.1515186 66.6590934,38.7499975 66.1590909,39.25 C65.6590884,39.7500025 65.0606095,40 64.3636364,40 L50.5454545,40 C49.8484814,40 49.2500025,39.7500025 48.75,39.25 C48.2499975,38.7499975 48,38.1515186 48,37.4545455 L48,26.5454545 C48,25.8484814 48.2499975,25.2500025 48.75,24.75 C49.2500025,24.2499975 49.8484814,24 50.5454545,24 L54.1818182,24 C54.8787914,24 55.4772702,24.2499975 55.9772727,24.75 C56.4772752,25.2500025 56.7272727,25.8484814 56.7272727,26.5454545 L56.7272727,26.9090909 L64.3636364,26.9090909 C65.0606095,26.9090909 65.6590884,27.1590884 66.1590909,27.6590909 C66.6590934,28.1590934 66.9090909,28.7575723 66.9090909,29.4545455 L66.9090909,29.4545455 Z" id="-copy-5" fill="#4A4A4A"></path>
                <path d="M112.107143,148.392857 C112.27381,148.559525 112.416666,148.785713 112.535714,149.071429 C112.654762,149.357144 112.714286,149.619046 112.714286,149.857143 L112.714286,160.142857 C112.714286,160.380954 112.630953,160.583333 112.464286,160.75 C112.297618,160.916667 112.095239,161 111.857143,161 L99.8571429,161 C99.6190464,161 99.4166675,160.916667 99.25,160.75 C99.0833325,160.583333 99,160.380954 99,160.142857 L99,145.857143 C99,145.619046 99.0833325,145.416667 99.25,145.25 C99.4166675,145.083333 99.6190464,145 99.8571429,145 L107.857143,145 C108.095239,145 108.357141,145.059523 108.642857,145.178571 C108.928573,145.29762 109.154761,145.440475 109.321429,145.607143 L112.107143,148.392857 Z M108.142857,146.214286 L108.142857,149.571429 L111.5,149.571429 C111.440476,149.398809 111.375,149.276786 111.303571,149.205357 L108.508929,146.410714 C108.4375,146.339285 108.315477,146.27381 108.142857,146.214286 L108.142857,146.214286 Z M111.571429,159.857143 L111.571429,150.714286 L107.857143,150.714286 C107.619046,150.714286 107.416667,150.630953 107.25,150.464286 C107.083332,150.297618 107,150.095239 107,149.857143 L107,146.142857 L100.142857,146.142857 L100.142857,159.857143 L111.571429,159.857143 Z" id="-copy-7" fill="#4A4A4A"></path>
                <path d="M65.4545455,67.4545455 L65.4545455,59.4545455 C65.4545455,59.1515136 65.3484859,58.8939405 65.1363636,58.6818182 C64.9242414,58.4696959 64.6666682,58.3636364 64.3636364,58.3636364 L56.3636364,58.3636364 C56.0606045,58.3636364 55.8030314,58.2575768 55.5909091,58.0454545 C55.3787868,57.8333323 55.2727273,57.5757591 55.2727273,57.2727273 L55.2727273,56.5454545 C55.2727273,56.2424227 55.1666677,55.9848495 54.9545455,55.7727273 C54.7424232,55.560605 54.48485,55.4545455 54.1818182,55.4545455 L50.5454545,55.4545455 C50.2424227,55.4545455 49.9848495,55.560605 49.7727273,55.7727273 C49.560605,55.9848495 49.4545455,56.2424227 49.4545455,56.5454545 L49.4545455,67.4545455 C49.4545455,67.7575773 49.560605,68.0151505 49.7727273,68.2272727 C49.9848495,68.439395 50.2424227,68.5454545 50.5454545,68.5454545 L64.3636364,68.5454545 C64.6666682,68.5454545 64.9242414,68.439395 65.1363636,68.2272727 C65.3484859,68.0151505 65.4545455,67.7575773 65.4545455,67.4545455 L65.4545455,67.4545455 Z M66.9090909,59.4545455 L66.9090909,67.4545455 C66.9090909,68.1515186 66.6590934,68.7499975 66.1590909,69.25 C65.6590884,69.7500025 65.0606095,70 64.3636364,70 L50.5454545,70 C49.8484814,70 49.2500025,69.7500025 48.75,69.25 C48.2499975,68.7499975 48,68.1515186 48,67.4545455 L48,56.5454545 C48,55.8484814 48.2499975,55.2500025 48.75,54.75 C49.2500025,54.2499975 49.8484814,54 50.5454545,54 L54.1818182,54 C54.8787914,54 55.4772702,54.2499975 55.9772727,54.75 C56.4772752,55.2500025 56.7272727,55.8484814 56.7272727,56.5454545 L56.7272727,56.9090909 L64.3636364,56.9090909 C65.0606095,56.9090909 65.6590884,57.1590884 66.1590909,57.6590909 C66.6590934,58.1590934 66.9090909,58.7575723 66.9090909,59.4545455 L66.9090909,59.4545455 Z" id="-copy-6" fill="#4A4A4A"></path>
                <text id="Category-1-Copy-3" font-family="OpenSans, Open Sans" font-size="13" font-weight="normal" fill="#1A1A1A">
                    <tspan x="79" y="37">Category 1</tspan>
                </text>
                <text id="Category-2-Copy-3" font-family="OpenSans, Open Sans" font-size="13" font-weight="normal" fill="#1A1A1A">
                    <tspan x="79" y="67">Category 2</tspan>
                </text>
                <text id="Category-3-Copy-3" font-family="OpenSans, Open Sans" font-size="13" font-weight="normal" fill="#1A1A1A">
                    <tspan x="79" y="97">Category 3</tspan>
                </text>
                <text id="Item-1-Copy-4" font-family="OpenSans, Open Sans" font-size="13" font-weight="normal" fill="#1A1A1A">
                    <tspan x="125" y="159">Item 1</tspan>
                </text>
                <path d="M112.107143,178.392857 C112.27381,178.559525 112.416666,178.785713 112.535714,179.071429 C112.654762,179.357144 112.714286,179.619046 112.714286,179.857143 L112.714286,190.142857 C112.714286,190.380954 112.630953,190.583333 112.464286,190.75 C112.297618,190.916667 112.095239,191 111.857143,191 L99.8571429,191 C99.6190464,191 99.4166675,190.916667 99.25,190.75 C99.0833325,190.583333 99,190.380954 99,190.142857 L99,175.857143 C99,175.619046 99.0833325,175.416667 99.25,175.25 C99.4166675,175.083333 99.6190464,175 99.8571429,175 L107.857143,175 C108.095239,175 108.357141,175.059523 108.642857,175.178571 C108.928573,175.29762 109.154761,175.440475 109.321429,175.607143 L112.107143,178.392857 Z M108.142857,176.214286 L108.142857,179.571429 L111.5,179.571429 C111.440476,179.398809 111.375,179.276786 111.303571,179.205357 L108.508929,176.410714 C108.4375,176.339285 108.315477,176.27381 108.142857,176.214286 L108.142857,176.214286 Z M111.571429,189.857143 L111.571429,180.714286 L107.857143,180.714286 C107.619046,180.714286 107.416667,180.630953 107.25,180.464286 C107.083332,180.297618 107,180.095239 107,179.857143 L107,176.142857 L100.142857,176.142857 L100.142857,189.857143 L111.571429,189.857143 Z" id="-copy-8" fill="#4A4A4A"></path>
                <text id="Item-2-Copy-5" font-family="OpenSans, Open Sans" font-size="13" font-weight="normal" fill="#1A1A1A">
                    <tspan x="125" y="189">Item 2</tspan>
                </text>
                <path d="M112.107143,208.392857 C112.27381,208.559525 112.416666,208.785713 112.535714,209.071429 C112.654762,209.357144 112.714286,209.619046 112.714286,209.857143 L112.714286,220.142857 C112.714286,220.380954 112.630953,220.583333 112.464286,220.75 C112.297618,220.916667 112.095239,221 111.857143,221 L99.8571429,221 C99.6190464,221 99.4166675,220.916667 99.25,220.75 C99.0833325,220.583333 99,220.380954 99,220.142857 L99,205.857143 C99,205.619046 99.0833325,205.416667 99.25,205.25 C99.4166675,205.083333 99.6190464,205 99.8571429,205 L107.857143,205 C108.095239,205 108.357141,205.059523 108.642857,205.178571 C108.928573,205.29762 109.154761,205.440475 109.321429,205.607143 L112.107143,208.392857 Z M108.142857,206.214286 L108.142857,209.571429 L111.5,209.571429 C111.440476,209.398809 111.375,209.276786 111.303571,209.205357 L108.508929,206.410714 C108.4375,206.339285 108.315477,206.27381 108.142857,206.214286 L108.142857,206.214286 Z M111.571429,219.857143 L111.571429,210.714286 L107.857143,210.714286 C107.619046,210.714286 107.416667,210.630953 107.25,210.464286 C107.083332,210.297618 107,210.095239 107,209.857143 L107,206.142857 L100.142857,206.142857 L100.142857,219.857143 L111.571429,219.857143 Z" id="-copy-9" fill="#4A4A4A"></path>
                <text id="Item-3-Copy-5" font-family="OpenSans, Open Sans" font-size="13" font-weight="normal" fill="#1A1A1A">
                    <tspan x="125" y="219">Item 3</tspan>
                </text>
                <path d="M68.2386364,93.125 C68.2386364,92.8598472 68.0378808,92.7272727 67.6363636,92.7272727 L55.2727273,92.7272727 C54.9696955,92.7272727 54.6458351,92.8087113 54.3011364,92.9715909 C53.9564377,93.1344705 53.685607,93.3333322 53.4886364,93.5681818 L50.1477273,97.6931818 C50.011363,97.8750009 49.9431818,98.0265145 49.9431818,98.1477273 C49.9431818,98.4128801 50.1439374,98.5454545 50.5454545,98.5454545 L62.9090909,98.5454545 C63.2121227,98.5454545 63.537877,98.462122 63.8863636,98.2954545 C64.2348502,98.128787 64.5037869,97.9280315 64.6931818,97.6931818 L68.0340909,93.5681818 C68.1704552,93.4015143 68.2386364,93.2537885 68.2386364,93.125 L68.2386364,93.125 Z M55.2727273,91.2727273 L64,91.2727273 L64,89.4545455 C64,89.1515136 63.8939405,88.8939405 63.6818182,88.6818182 C63.4696959,88.4696959 63.2121227,88.3636364 62.9090909,88.3636364 L56.3636364,88.3636364 C56.0606045,88.3636364 55.8030314,88.2575768 55.5909091,88.0454545 C55.3787868,87.8333323 55.2727273,87.5757591 55.2727273,87.2727273 L55.2727273,86.5454545 C55.2727273,86.2424227 55.1666677,85.9848495 54.9545455,85.7727273 C54.7424232,85.560605 54.48485,85.4545455 54.1818182,85.4545455 L50.5454545,85.4545455 C50.2424227,85.4545455 49.9848495,85.560605 49.7727273,85.7727273 C49.560605,85.9848495 49.4545455,86.2424227 49.4545455,86.5454545 L49.4545455,96.2386364 L52.3636364,92.6590909 C52.6969714,92.2575737 53.1363609,91.9261377 53.6818182,91.6647727 C54.2272755,91.4034078 54.7575732,91.2727273 55.2727273,91.2727273 L55.2727273,91.2727273 Z M69.6931818,93.125 C69.6931818,93.5946993 69.5189411,94.0492402 69.1704545,94.4886364 L65.8181818,98.6136364 C65.4924226,99.0151535 65.0530331,99.3465896 64.5,99.6079545 C63.9469669,99.8693195 63.4166692,100 62.9090909,100 L50.5454545,100 C49.8484814,100 49.2500025,99.7500025 48.75,99.25 C48.2499975,98.7499975 48,98.1515186 48,97.4545455 L48,86.5454545 C48,85.8484814 48.2499975,85.2500025 48.75,84.75 C49.2500025,84.2499975 49.8484814,84 50.5454545,84 L54.1818182,84 C54.8787914,84 55.4772702,84.2499975 55.9772727,84.75 C56.4772752,85.2500025 56.7272727,85.8484814 56.7272727,86.5454545 L56.7272727,86.9090909 L62.9090909,86.9090909 C63.6060641,86.9090909 64.204543,87.1590884 64.7045455,87.6590909 C65.204548,88.1590934 65.4545455,88.7575723 65.4545455,89.4545455 L65.4545455,91.2727273 L67.6363636,91.2727273 C68.0454566,91.2727273 68.4204528,91.3655294 68.7613636,91.5511364 C69.1022744,91.7367434 69.3560598,92.0037861 69.5227273,92.3522727 C69.6363642,92.5946982 69.6931818,92.8522714 69.6931818,93.125 L69.6931818,93.125 Z" id="-copy-5" fill="#4A4A4A"></path>
                <text id="Category-4-Copy-3" font-family="OpenSans, Open Sans" font-size="13" font-weight="normal" fill="#1A1A1A">
                    <tspan x="102" y="127">Category 4</tspan>
                </text>
                <path d="M91.2386364,123.125 C91.2386364,122.859847 91.0378808,122.727273 90.6363636,122.727273 L78.2727273,122.727273 C77.9696955,122.727273 77.6458351,122.808711 77.3011364,122.971591 C76.9564377,123.134471 76.685607,123.333332 76.4886364,123.568182 L73.1477273,127.693182 C73.011363,127.875001 72.9431818,128.026515 72.9431818,128.147727 C72.9431818,128.41288 73.1439374,128.545455 73.5454545,128.545455 L85.9090909,128.545455 C86.2121227,128.545455 86.537877,128.462122 86.8863636,128.295455 C87.2348502,128.128787 87.5037869,127.928031 87.6931818,127.693182 L91.0340909,123.568182 C91.1704552,123.401514 91.2386364,123.253789 91.2386364,123.125 L91.2386364,123.125 Z M78.2727273,121.272727 L87,121.272727 L87,119.454545 C87,119.151514 86.8939405,118.89394 86.6818182,118.681818 C86.4696959,118.469696 86.2121227,118.363636 85.9090909,118.363636 L79.3636364,118.363636 C79.0606045,118.363636 78.8030314,118.257577 78.5909091,118.045455 C78.3787868,117.833332 78.2727273,117.575759 78.2727273,117.272727 L78.2727273,116.545455 C78.2727273,116.242423 78.1666677,115.98485 77.9545455,115.772727 C77.7424232,115.560605 77.48485,115.454545 77.1818182,115.454545 L73.5454545,115.454545 C73.2424227,115.454545 72.9848495,115.560605 72.7727273,115.772727 C72.560605,115.98485 72.4545455,116.242423 72.4545455,116.545455 L72.4545455,126.238636 L75.3636364,122.659091 C75.6969714,122.257574 76.1363609,121.926138 76.6818182,121.664773 C77.2272755,121.403408 77.7575732,121.272727 78.2727273,121.272727 L78.2727273,121.272727 Z M92.6931818,123.125 C92.6931818,123.594699 92.5189411,124.04924 92.1704545,124.488636 L88.8181818,128.613636 C88.4924226,129.015154 88.0530331,129.34659 87.5,129.607955 C86.9469669,129.869319 86.4166692,130 85.9090909,130 L73.5454545,130 C72.8484814,130 72.2500025,129.750002 71.75,129.25 C71.2499975,128.749997 71,128.151519 71,127.454545 L71,116.545455 C71,115.848481 71.2499975,115.250002 71.75,114.75 C72.2500025,114.249997 72.8484814,114 73.5454545,114 L77.1818182,114 C77.8787914,114 78.4772702,114.249997 78.9772727,114.75 C79.4772752,115.250002 79.7272727,115.848481 79.7272727,116.545455 L79.7272727,116.909091 L85.9090909,116.909091 C86.6060641,116.909091 87.204543,117.159088 87.7045455,117.659091 C88.204548,118.159093 88.4545455,118.757572 88.4545455,119.454545 L88.4545455,121.272727 L90.6363636,121.272727 C91.0454566,121.272727 91.4204528,121.365529 91.7613636,121.551136 C92.1022744,121.736743 92.3560598,122.003786 92.5227273,122.352273 C92.6363642,122.594698 92.6931818,122.852271 92.6931818,123.125 L92.6931818,123.125 Z" id="-copy-6" fill="#4A4A4A"></path>
                <path d="M35.6666667,32.5833333 L35.6666667,31.4166667 C35.6666667,31.2586798 35.6089415,31.1219624 35.4934896,31.0065104 C35.3780376,30.8910585 35.2413202,30.8333333 35.0833333,30.8333333 L32.1666667,30.8333333 L32.1666667,27.9166667 C32.1666667,27.7586798 32.1089415,27.6219624 31.9934896,27.5065104 C31.8780376,27.3910585 31.7413202,27.3333333 31.5833333,27.3333333 L30.4166667,27.3333333 C30.2586798,27.3333333 30.1219624,27.3910585 30.0065104,27.5065104 C29.8910585,27.6219624 29.8333333,27.7586798 29.8333333,27.9166667 L29.8333333,30.8333333 L26.9166667,30.8333333 C26.7586798,30.8333333 26.6219624,30.8910585 26.5065104,31.0065104 C26.3910585,31.1219624 26.3333333,31.2586798 26.3333333,31.4166667 L26.3333333,32.5833333 C26.3333333,32.7413202 26.3910585,32.8780376 26.5065104,32.9934896 C26.6219624,33.1089415 26.7586798,33.1666667 26.9166667,33.1666667 L29.8333333,33.1666667 L29.8333333,36.0833333 C29.8333333,36.2413202 29.8910585,36.3780376 30.0065104,36.4934896 C30.1219624,36.6089415 30.2586798,36.6666667 30.4166667,36.6666667 L31.5833333,36.6666667 C31.7413202,36.6666667 31.8780376,36.6089415 31.9934896,36.4934896 C32.1089415,36.3780376 32.1666667,36.2413202 32.1666667,36.0833333 L32.1666667,33.1666667 L35.0833333,33.1666667 C35.2413202,33.1666667 35.3780376,33.1089415 35.4934896,32.9934896 C35.6089415,32.8780376 35.6666667,32.7413202 35.6666667,32.5833333 L35.6666667,32.5833333 Z M38,27.625 L38,36.375 C38,37.0980939 37.7432751,37.7163603 37.2298177,38.2298177 C36.7163603,38.7432751 36.0980939,39 35.375,39 L26.625,39 C25.9019061,39 25.2836397,38.7432751 24.7701823,38.2298177 C24.2567249,37.7163603 24,37.0980939 24,36.375 L24,27.625 C24,26.9019061 24.2567249,26.2836397 24.7701823,25.7701823 C25.2836397,25.2567249 25.9019061,25 26.625,25 L35.375,25 C36.0980939,25 36.7163603,25.2567249 37.2298177,25.7701823 C37.7432751,26.2836397 38,26.9019061 38,27.625 L38,27.625 Z" id="-copy" fill="#4A4A4A"></path>
                <path d="M35.6666667,62.5833333 L35.6666667,61.4166667 C35.6666667,61.2586798 35.6089415,61.1219624 35.4934896,61.0065104 C35.3780376,60.8910585 35.2413202,60.8333333 35.0833333,60.8333333 L32.1666667,60.8333333 L32.1666667,57.9166667 C32.1666667,57.7586798 32.1089415,57.6219624 31.9934896,57.5065104 C31.8780376,57.3910585 31.7413202,57.3333333 31.5833333,57.3333333 L30.4166667,57.3333333 C30.2586798,57.3333333 30.1219624,57.3910585 30.0065104,57.5065104 C29.8910585,57.6219624 29.8333333,57.7586798 29.8333333,57.9166667 L29.8333333,60.8333333 L26.9166667,60.8333333 C26.7586798,60.8333333 26.6219624,60.8910585 26.5065104,61.0065104 C26.3910585,61.1219624 26.3333333,61.2586798 26.3333333,61.4166667 L26.3333333,62.5833333 C26.3333333,62.7413202 26.3910585,62.8780376 26.5065104,62.9934896 C26.6219624,63.1089415 26.7586798,63.1666667 26.9166667,63.1666667 L29.8333333,63.1666667 L29.8333333,66.0833333 C29.8333333,66.2413202 29.8910585,66.3780376 30.0065104,66.4934896 C30.1219624,66.6089415 30.2586798,66.6666667 30.4166667,66.6666667 L31.5833333,66.6666667 C31.7413202,66.6666667 31.8780376,66.6089415 31.9934896,66.4934896 C32.1089415,66.3780376 32.1666667,66.2413202 32.1666667,66.0833333 L32.1666667,63.1666667 L35.0833333,63.1666667 C35.2413202,63.1666667 35.3780376,63.1089415 35.4934896,62.9934896 C35.6089415,62.8780376 35.6666667,62.7413202 35.6666667,62.5833333 L35.6666667,62.5833333 Z M38,57.625 L38,66.375 C38,67.0980939 37.7432751,67.7163603 37.2298177,68.2298177 C36.7163603,68.7432751 36.0980939,69 35.375,69 L26.625,69 C25.9019061,69 25.2836397,68.7432751 24.7701823,68.2298177 C24.2567249,67.7163603 24,67.0980939 24,66.375 L24,57.625 C24,56.9019061 24.2567249,56.2836397 24.7701823,55.7701823 C25.2836397,55.2567249 25.9019061,55 26.625,55 L35.375,55 C36.0980939,55 36.7163603,55.2567249 37.2298177,55.7701823 C37.7432751,56.2836397 38,56.9019061 38,57.625 L38,57.625 Z" id="-copy-2" fill="#4A4A4A"></path>
                <path d="M58.6666667,122.583333 L58.6666667,121.416667 C58.6666667,121.25868 58.6089415,121.121962 58.4934896,121.00651 C58.3780376,120.891058 58.2413202,120.833333 58.0833333,120.833333 L49.9166667,120.833333 C49.7586798,120.833333 49.6219624,120.891058 49.5065104,121.00651 C49.3910585,121.121962 49.3333333,121.25868 49.3333333,121.416667 L49.3333333,122.583333 C49.3333333,122.74132 49.3910585,122.878038 49.5065104,122.99349 C49.6219624,123.108942 49.7586798,123.166667 49.9166667,123.166667 L58.0833333,123.166667 C58.2413202,123.166667 58.3780376,123.108942 58.4934896,122.99349 C58.6089415,122.878038 58.6666667,122.74132 58.6666667,122.583333 L58.6666667,122.583333 Z M61,117.625 L61,126.375 C61,127.098094 60.7432751,127.71636 60.2298177,128.229818 C59.7163603,128.743275 59.0980939,129 58.375,129 L49.625,129 C48.9019061,129 48.2836397,128.743275 47.7701823,128.229818 C47.2567249,127.71636 47,127.098094 47,126.375 L47,117.625 C47,116.901906 47.2567249,116.28364 47.7701823,115.770182 C48.2836397,115.256725 48.9019061,115 49.625,115 L58.375,115 C59.0980939,115 59.7163603,115.256725 60.2298177,115.770182 C60.7432751,116.28364 61,116.901906 61,117.625 L61,117.625 Z" id="-copy-4" fill="#4A4A4A"></path>
                <path d="M35.6666667,92.5833333 L35.6666667,91.4166667 C35.6666667,91.2586798 35.6089415,91.1219624 35.4934896,91.0065104 C35.3780376,90.8910585 35.2413202,90.8333333 35.0833333,90.8333333 L26.9166667,90.8333333 C26.7586798,90.8333333 26.6219624,90.8910585 26.5065104,91.0065104 C26.3910585,91.1219624 26.3333333,91.2586798 26.3333333,91.4166667 L26.3333333,92.5833333 C26.3333333,92.7413202 26.3910585,92.8780376 26.5065104,92.9934896 C26.6219624,93.1089415 26.7586798,93.1666667 26.9166667,93.1666667 L35.0833333,93.1666667 C35.2413202,93.1666667 35.3780376,93.1089415 35.4934896,92.9934896 C35.6089415,92.8780376 35.6666667,92.7413202 35.6666667,92.5833333 L35.6666667,92.5833333 Z M38,87.625 L38,96.375 C38,97.0980939 37.7432751,97.7163603 37.2298177,98.2298177 C36.7163603,98.7432751 36.0980939,99 35.375,99 L26.625,99 C25.9019061,99 25.2836397,98.7432751 24.7701823,98.2298177 C24.2567249,97.7163603 24,97.0980939 24,96.375 L24,87.625 C24,86.9019061 24.2567249,86.2836397 24.7701823,85.7701823 C25.2836397,85.2567249 25.9019061,85 26.625,85 L35.375,85 C36.0980939,85 36.7163603,85.2567249 37.2298177,85.7701823 C37.7432751,86.2836397 38,86.9019061 38,87.625 L38,87.625 Z" id="-copy-5" fill="#4A4A4A"></path>
            </g>
        </g>
    </g>
</svg>