<?xml version="1.0" encoding="UTF-8" standalone="no"?>
<svg width="248px" height="288px" viewBox="0 0 248 288" version="1.1" xmlns="http://www.w3.org/2000/svg" xmlns:xlink="http://www.w3.org/1999/xlink">
    <!-- Generator: Sketch 40.2 (33826) - http://www.bohemiancoding.com/sketch -->
    <title>list-drk</title>
    <desc>Created with Sketch.</desc>
    <defs></defs>
    <g id="Components" stroke="none" stroke-width="1" fill="none" fill-rule="evenodd">
        <g id="Icons" transform="translate(-325.000000, -1013.000000)">
            <g id="list-drk" transform="translate(325.000000, 1013.000000)">
                <rect id="Rectangle-13-Copy-10" fill="#333333" x="0" y="0" width="248" height="288"></rect>
                <rect id="Rectangle-13-Copy-11" fill="#3F3F3F" x="0" y="36" width="248" height="36"></rect>
                <rect id="Rectangle-13-Copy-12" fill="#262626" x="0" y="72" width="248" height="108"></rect>
                <text id="Home-Copy-2" font-family="OpenSans, Open Sans" font-size="13" font-weight="normal" fill="#B2B2B2">
                    <tspan x="51" y="22">Home</tspan>
                </text>
                <text id="Friends-Copy-2" font-family="OpenSans, Open Sans" font-size="13" font-weight="normal" fill="#B2B2B2">
                    <tspan x="51" y="57">Friends</tspan>
                </text>
                <text id="Messages-Copy-2" font-family="OpenSans, Open Sans" font-size="13" font-weight="normal" fill="#B2B2B2">
                    <tspan x="51" y="201">Messages</tspan>
                </text>
                <text id="Favorites-Copy-2" font-family="OpenSans, Open Sans" font-size="13" font-weight="normal" fill="#B2B2B2">
                    <tspan x="51" y="237">Favorites</tspan>
                </text>
                <text id="Settings-Copy-2" font-family="OpenSans, Open Sans" font-size="13" font-weight="normal" fill="#B2B2B2">
                    <tspan x="51" y="273">Settings</tspan>
                </text>
                <text id="Item-1-Copy-4" font-family="OpenSans, Open Sans" font-size="13" font-weight="normal" fill="#B2B2B2">
                    <tspan x="78" y="94">Item 1</tspan>
                </text>
                <text id="Item-2-Copy-5" font-family="OpenSans, Open Sans" font-size="13" font-weight="normal" fill="#B2B2B2">
                    <tspan x="78" y="130">Item 2</tspan>
                </text>
                <text id="Item-3-Copy-5" font-family="OpenSans, Open Sans" font-size="13" font-weight="normal" fill="#B2B2B2">
                    <tspan x="79" y="166">Item 3</tspan>
                </text>
                <rect id="Rectangle-231-Copy-2" fill="#0A8CC6" x="0" y="36" width="6" height="36"></rect>
                <path d="M234.5,19 C234.5,19.1354173 234.450521,19.2526037 234.351563,19.3515625 L230.851562,22.8515625 C230.752604,22.9505213 230.635417,23 230.5,23 C230.364583,23 230.247396,22.9505213 230.148438,22.8515625 C230.049479,22.7526037 230,22.6354173 230,22.5 L230,15.5 C230,15.3645827 230.049479,15.2473963 230.148438,15.1484375 C230.247396,15.0494787 230.364583,15 230.5,15 C230.635417,15 230.752604,15.0494787 230.851562,15.1484375 L234.351563,18.6484375 C234.450521,18.7473963 234.5,18.8645827 234.5,19 L234.5,19 Z" id="-copy-14" fill="#B2B2B2"></path>
                <path d="M234.5,197 C234.5,197.135417 234.450521,197.252604 234.351563,197.351563 L230.851562,200.851563 C230.752604,200.950521 230.635417,201 230.5,201 C230.364583,201 230.247396,200.950521 230.148438,200.851563 C230.049479,200.752604 230,200.635417 230,200.5 L230,193.5 C230,193.364583 230.049479,193.247396 230.148438,193.148438 C230.247396,193.049479 230.364583,193 230.5,193 C230.635417,193 230.752604,193.049479 230.851562,193.148438 L234.351563,196.648438 C234.450521,196.747396 234.5,196.864583 234.5,197 L234.5,197 Z" id="-copy-15" fill="#B2B2B2"></path>
                <path d="M234.5,233 C234.5,233.135417 234.450521,233.252604 234.351563,233.351563 L230.851562,236.851563 C230.752604,236.950521 230.635417,237 230.5,237 C230.364583,237 230.247396,236.950521 230.148438,236.851563 C230.049479,236.752604 230,236.635417 230,236.5 L230,229.5 C230,229.364583 230.049479,229.247396 230.148438,229.148438 C230.247396,229.049479 230.364583,229 230.5,229 C230.635417,229 230.752604,229.049479 230.851562,229.148438 L234.351563,232.648438 C234.450521,232.747396 234.5,232.864583 234.5,233 L234.5,233 Z" id="-copy-16" fill="#B2B2B2"></path>
                <path d="M234.5,269 C234.5,269.135417 234.450521,269.252604 234.351563,269.351562 L230.851562,272.851562 C230.752604,272.950521 230.635417,273 230.5,273 C230.364583,273 230.247396,272.950521 230.148438,272.851562 C230.049479,272.752604 230,272.635417 230,272.5 L230,265.5 C230,265.364583 230.049479,265.247396 230.148438,265.148438 C230.247396,265.049479 230.364583,265 230.5,265 C230.635417,265 230.752604,265.049479 230.851562,265.148438 L234.351563,268.648438 C234.450521,268.747396 234.5,268.864583 234.5,269 L234.5,269 Z" id="-copy-17" fill="#B2B2B2"></path>
                <path d="M234.25,53.25 C234.25,53.3854173 234.200521,53.5026037 234.101562,53.6015625 L230.601562,57.1015625 C230.502604,57.2005213 230.385417,57.25 230.25,57.25 C230.114583,57.25 229.997396,57.2005213 229.898437,57.1015625 C229.799479,57.0026037 229.75,56.8854173 229.75,56.75 L229.75,49.75 C229.75,49.6145827 229.799479,49.4973963 229.898437,49.3984375 C229.997396,49.2994787 230.114583,49.25 230.25,49.25 C230.385417,49.25 230.502604,49.2994787 230.601562,49.3984375 L234.101562,52.8984375 C234.200521,52.9973963 234.25,53.1145827 234.25,53.25 L234.25,53.25 Z" id="-copy-18" fill="#B2B2B2" transform="translate(232.000000, 53.250000) rotate(-270.000000) translate(-232.000000, -53.250000) "></path>
                <path d="M37.2359921,18.2159002 L37.2359921,24.2018706 C37.2359921,24.4180317 37.1570113,24.6050914 36.9990474,24.7630553 C36.8410835,24.9210192 36.6540238,25 36.4378627,25 L31.6490864,25 L31.6490864,20.2112237 L28.4565688,20.2112237 L28.4565688,25 L23.6677925,25 C23.4516314,25 23.2645717,24.9210192 23.1066078,24.7630553 C22.9486439,24.6050914 22.8696631,24.4180317 22.8696631,24.2018706 L22.8696631,18.2159002 C22.8696631,18.2075863 22.8717416,18.1951157 22.8758985,18.1784879 C22.8800555,18.1618601 22.8821339,18.1493895 22.8821339,18.1410756 L30.0528276,12.2299299 L37.2235213,18.1410756 C37.2318352,18.1577034 37.2359921,18.1826447 37.2359921,18.2159002 L37.2359921,18.2159002 Z M40.0169741,17.355417 L39.2437863,18.2782541 C39.1772752,18.3530791 39.0899806,18.3988048 38.9819001,18.4154326 L38.9444878,18.4154326 C38.8364072,18.4154326 38.7491127,18.3863344 38.6826016,18.3281372 L30.0528276,11.1325019 L21.4230536,18.3281372 C21.323287,18.3946483 21.2235218,18.4237465 21.1237551,18.4154326 C21.0156745,18.3988048 20.92838,18.3530791 20.8618689,18.2782541 L20.0886811,17.355417 C20.02217,17.2722781 19.9930718,17.1745914 20.0013857,17.0623539 C20.0096996,16.9501164 20.0554253,16.8607434 20.1385642,16.7942323 L29.105049,9.32424006 C29.3710934,9.10807894 29.6870165,9 30.0528276,9 C30.4186387,9 30.7345618,9.10807894 31.0006062,9.32424006 L34.0434745,11.8682775 L34.0434745,9.43647701 C34.0434745,9.32008256 34.0808865,9.22447426 34.1557115,9.14964926 C34.2305365,9.07482426 34.3261448,9.03741231 34.4425392,9.03741231 L36.8369274,9.03741231 C36.9533218,9.03741231 37.0489301,9.07482426 37.1237551,9.14964926 C37.1985801,9.22447426 37.2359921,9.32008256 37.2359921,9.43647701 L37.2359921,14.5245518 L39.967091,16.7942323 C40.0502299,16.8607434 40.0959556,16.9501164 40.1042695,17.0623539 C40.1125834,17.1745914 40.0834852,17.2722781 40.0169741,17.355417 L40.0169741,17.355417 Z" id="-copy-2" fill="#B2B2B2"></path>
                <path d="M26.2946429,52 C25.3303523,52.0297621 24.5416697,52.4107106 23.9285714,53.1428571 L22.7321429,53.1428571 C22.2440452,53.1428571 21.833335,53.0223226 21.5,52.78125 C21.166665,52.5401774 21,52.1875023 21,51.7232143 C21,49.6220133 21.3690439,48.5714286 22.1071429,48.5714286 C22.1428573,48.5714286 22.2723203,48.6339279 22.4955357,48.7589286 C22.7187511,48.8839292 23.0089268,49.010416 23.3660714,49.1383929 C23.7232161,49.2663697 24.0773792,49.3303571 24.4285714,49.3303571 C24.8273829,49.3303571 25.2232123,49.2619054 25.6160714,49.125 C25.5863094,49.3452392 25.5714286,49.5416658 25.5714286,49.7142857 C25.5714286,50.5416708 25.8124976,51.3035679 26.2946429,52 L26.2946429,52 Z M35.8571429,57.6875 C35.8571429,58.4017893 35.6398831,58.9657717 35.2053571,59.3794643 C34.7708312,59.7931568 34.193456,60 33.4732143,60 L25.6696429,60 C24.9494012,60 24.372026,59.7931568 23.9375,59.3794643 C23.502974,58.9657717 23.2857143,58.4017893 23.2857143,57.6875 C23.2857143,57.3720222 23.2961308,57.0639896 23.3169643,56.7633929 C23.3377977,56.4627961 23.379464,56.1383946 23.4419643,55.7901786 C23.5044646,55.4419625 23.5833329,55.1190491 23.6785714,54.8214286 C23.77381,54.523808 23.9017849,54.2336324 24.0625,53.9508929 C24.2232151,53.6681533 24.4077371,53.4270843 24.6160714,53.2276786 C24.8244058,53.0282728 25.0788675,52.8690482 25.3794643,52.75 C25.680061,52.6309518 26.0119029,52.5714286 26.375,52.5714286 C26.4345241,52.5714286 26.562499,52.635416 26.7589286,52.7633929 C26.9553581,52.8913697 27.1726179,53.0342254 27.4107143,53.1919643 C27.6488107,53.3497032 27.9672599,53.4925589 28.3660714,53.6205357 C28.7648829,53.7485125 29.1666646,53.8125 29.5714286,53.8125 C29.9761925,53.8125 30.3779742,53.7485125 30.7767857,53.6205357 C31.1755972,53.4925589 31.4940464,53.3497032 31.7321429,53.1919643 C31.9702393,53.0342254 32.187499,52.8913697 32.3839286,52.7633929 C32.5803581,52.635416 32.708333,52.5714286 32.7678571,52.5714286 C33.1309542,52.5714286 33.4627961,52.6309518 33.7633929,52.75 C34.0639896,52.8690482 34.3184513,53.0282728 34.5267857,53.2276786 C34.7351201,53.4270843 34.9196421,53.6681533 35.0803571,53.9508929 C35.2410722,54.2336324 35.3690471,54.523808 35.4642857,54.8214286 C35.5595243,55.1190491 35.6383925,55.4419625 35.7008929,55.7901786 C35.7633932,56.1383946 35.8050594,56.4627961 35.8258929,56.7633929 C35.8467263,57.0639896 35.8571429,57.3720222 35.8571429,57.6875 L35.8571429,57.6875 Z M26.7142857,46.2857143 C26.7142857,46.9166698 26.4910737,47.4553549 26.0446429,47.9017857 C25.5982121,48.3482165 25.059527,48.5714286 24.4285714,48.5714286 C23.7976159,48.5714286 23.2589308,48.3482165 22.8125,47.9017857 C22.3660692,47.4553549 22.1428571,46.9166698 22.1428571,46.2857143 C22.1428571,45.6547587 22.3660692,45.1160737 22.8125,44.6696429 C23.2589308,44.2232121 23.7976159,44 24.4285714,44 C25.059527,44 25.5982121,44.2232121 26.0446429,44.6696429 C26.4910737,45.1160737 26.7142857,45.6547587 26.7142857,46.2857143 L26.7142857,46.2857143 Z M33,49.7142857 C33,50.660719 32.6651819,51.4687467 31.9955357,52.1383929 C31.3258895,52.8080391 30.5178619,53.1428571 29.5714286,53.1428571 C28.6249953,53.1428571 27.8169676,52.8080391 27.1473214,52.1383929 C26.4776752,51.4687467 26.1428571,50.660719 26.1428571,49.7142857 C26.1428571,48.7678524 26.4776752,47.9598248 27.1473214,47.2901786 C27.8169676,46.6205324 28.6249953,46.2857143 29.5714286,46.2857143 C30.5178619,46.2857143 31.3258895,46.6205324 31.9955357,47.2901786 C32.6651819,47.9598248 33,48.7678524 33,49.7142857 L33,49.7142857 Z M38.1428571,51.7232143 C38.1428571,52.1875023 37.9761921,52.5401774 37.6428571,52.78125 C37.3095221,53.0223226 36.898812,53.1428571 36.4107143,53.1428571 L35.2142857,53.1428571 C34.6011874,52.4107106 33.8125048,52.0297621 32.8482143,52 C33.3303596,51.3035679 33.5714286,50.5416708 33.5714286,49.7142857 C33.5714286,49.5416658 33.5565478,49.3452392 33.5267857,49.125 C33.9196448,49.2619054 34.3154742,49.3303571 34.7142857,49.3303571 C35.0654779,49.3303571 35.4196411,49.2663697 35.7767857,49.1383929 C36.1339304,49.010416 36.424106,48.8839292 36.6473214,48.7589286 C36.8705368,48.6339279 36.9999998,48.5714286 37.0357143,48.5714286 C37.7738132,48.5714286 38.1428571,49.6220133 38.1428571,51.7232143 L38.1428571,51.7232143 Z M37,46.2857143 C37,46.9166698 36.7767879,47.4553549 36.3303571,47.9017857 C35.8839263,48.3482165 35.3452413,48.5714286 34.7142857,48.5714286 C34.0833302,48.5714286 33.5446451,48.3482165 33.0982143,47.9017857 C32.6517835,47.4553549 32.4285714,46.9166698 32.4285714,46.2857143 C32.4285714,45.6547587 32.6517835,45.1160737 33.0982143,44.6696429 C33.5446451,44.2232121 34.0833302,44 34.7142857,44 C35.3452413,44 35.8839263,44.2232121 36.3303571,44.6696429 C36.7767879,45.1160737 37,45.6547587 37,46.2857143 L37,46.2857143 Z" id="-copy-2" fill="#B2B2B2"></path>
                <path d="M67.6666667,93.3020833 C67.6666667,94.1354208 67.413197,94.7934004 66.90625,95.2760417 C66.399303,95.758683 65.7256986,96 64.8854167,96 L55.78125,96 C54.940968,96 54.2673636,95.758683 53.7604167,95.2760417 C53.2534697,94.7934004 53,94.1354208 53,93.3020833 C53,92.9340259 53.0121527,92.5746545 53.0364583,92.2239583 C53.060764,91.8732621 53.1093746,91.4947937 53.1822917,91.0885417 C53.2552087,90.6822896 53.3472217,90.3055573 53.4583333,89.9583333 C53.569445,89.6111094 53.7187491,89.2725711 53.90625,88.9427083 C54.0937509,88.6128456 54.3090266,88.3315984 54.5520833,88.0989583 C54.7951401,87.8663183 55.0920121,87.6805563 55.4427083,87.5416667 C55.7934045,87.4027771 56.1805534,87.3333333 56.6041667,87.3333333 C56.666667,87.3333333 56.8124989,87.4079854 57.0416667,87.5572917 C57.2708345,87.706598 57.5295124,87.873263 57.8177083,88.0572917 C58.1059042,88.2413204 58.4809005,88.4079854 58.9427083,88.5572917 C59.4045162,88.706598 59.8680532,88.78125 60.3333333,88.78125 C60.7986134,88.78125 61.2621505,88.706598 61.7239583,88.5572917 C62.1857662,88.4079854 62.5607624,88.2413204 62.8489583,88.0572917 C63.1371542,87.873263 63.3958322,87.706598 63.625,87.5572917 C63.8541678,87.4079854 63.9999997,87.3333333 64.0625,87.3333333 C64.4861132,87.3333333 64.8732621,87.4027771 65.2239583,87.5416667 C65.5746545,87.6805563 65.8715266,87.8663183 66.1145833,88.0989583 C66.3576401,88.3315984 66.5729157,88.6128456 66.7604167,88.9427083 C66.9479176,89.2725711 67.0972217,89.6111094 67.2083333,89.9583333 C67.319445,90.3055573 67.411458,90.6822896 67.484375,91.0885417 C67.557292,91.4947937 67.6059027,91.8732621 67.6302083,92.2239583 C67.654514,92.5746545 67.6666667,92.9340259 67.6666667,93.3020833 L67.6666667,93.3020833 Z M64.3333333,84 C64.3333333,85.1041722 63.9427122,86.0468711 63.1614583,86.828125 C62.3802044,87.6093789 61.4375055,88 60.3333333,88 C59.2291611,88 58.2864622,87.6093789 57.5052083,86.828125 C56.7239544,86.0468711 56.3333333,85.1041722 56.3333333,84 C56.3333333,82.8958278 56.7239544,81.9531289 57.5052083,81.171875 C58.2864622,80.3906211 59.2291611,80 60.3333333,80 C61.4375055,80 62.3802044,80.3906211 63.1614583,81.171875 C63.9427122,81.9531289 64.3333333,82.8958278 64.3333333,84 L64.3333333,84 Z" id="-copy-4" fill="#B2B2B2"></path>
                <path d="M67.6666667,129.302083 C67.6666667,130.135421 67.413197,130.7934 66.90625,131.276042 C66.399303,131.758683 65.7256986,132 64.8854167,132 L55.78125,132 C54.940968,132 54.2673636,131.758683 53.7604167,131.276042 C53.2534697,130.7934 53,130.135421 53,129.302083 C53,128.934026 53.0121527,128.574655 53.0364583,128.223958 C53.060764,127.873262 53.1093746,127.494794 53.1822917,127.088542 C53.2552087,126.68229 53.3472217,126.305557 53.4583333,125.958333 C53.569445,125.611109 53.7187491,125.272571 53.90625,124.942708 C54.0937509,124.612846 54.3090266,124.331598 54.5520833,124.098958 C54.7951401,123.866318 55.0920121,123.680556 55.4427083,123.541667 C55.7934045,123.402777 56.1805534,123.333333 56.6041667,123.333333 C56.666667,123.333333 56.8124989,123.407985 57.0416667,123.557292 C57.2708345,123.706598 57.5295124,123.873263 57.8177083,124.057292 C58.1059042,124.24132 58.4809005,124.407985 58.9427083,124.557292 C59.4045162,124.706598 59.8680532,124.78125 60.3333333,124.78125 C60.7986134,124.78125 61.2621505,124.706598 61.7239583,124.557292 C62.1857662,124.407985 62.5607624,124.24132 62.8489583,124.057292 C63.1371542,123.873263 63.3958322,123.706598 63.625,123.557292 C63.8541678,123.407985 63.9999997,123.333333 64.0625,123.333333 C64.4861132,123.333333 64.8732621,123.402777 65.2239583,123.541667 C65.5746545,123.680556 65.8715266,123.866318 66.1145833,124.098958 C66.3576401,124.331598 66.5729157,124.612846 66.7604167,124.942708 C66.9479176,125.272571 67.0972217,125.611109 67.2083333,125.958333 C67.319445,126.305557 67.411458,126.68229 67.484375,127.088542 C67.557292,127.494794 67.6059027,127.873262 67.6302083,128.223958 C67.654514,128.574655 67.6666667,128.934026 67.6666667,129.302083 L67.6666667,129.302083 Z M64.3333333,120 C64.3333333,121.104172 63.9427122,122.046871 63.1614583,122.828125 C62.3802044,123.609379 61.4375055,124 60.3333333,124 C59.2291611,124 58.2864622,123.609379 57.5052083,122.828125 C56.7239544,122.046871 56.3333333,121.104172 56.3333333,120 C56.3333333,118.895828 56.7239544,117.953129 57.5052083,117.171875 C58.2864622,116.390621 59.2291611,116 60.3333333,116 C61.4375055,116 62.3802044,116.390621 63.1614583,117.171875 C63.9427122,117.953129 64.3333333,118.895828 64.3333333,120 L64.3333333,120 Z" id="-copy-5" fill="#B2B2B2"></path>
                <path d="M67.6666667,165.302083 C67.6666667,166.135421 67.413197,166.7934 66.90625,167.276042 C66.399303,167.758683 65.7256986,168 64.8854167,168 L55.78125,168 C54.940968,168 54.2673636,167.758683 53.7604167,167.276042 C53.2534697,166.7934 53,166.135421 53,165.302083 C53,164.934026 53.0121527,164.574655 53.0364583,164.223958 C53.060764,163.873262 53.1093746,163.494794 53.1822917,163.088542 C53.2552087,162.68229 53.3472217,162.305557 53.4583333,161.958333 C53.569445,161.611109 53.7187491,161.272571 53.90625,160.942708 C54.0937509,160.612846 54.3090266,160.331598 54.5520833,160.098958 C54.7951401,159.866318 55.0920121,159.680556 55.4427083,159.541667 C55.7934045,159.402777 56.1805534,159.333333 56.6041667,159.333333 C56.666667,159.333333 56.8124989,159.407985 57.0416667,159.557292 C57.2708345,159.706598 57.5295124,159.873263 57.8177083,160.057292 C58.1059042,160.24132 58.4809005,160.407985 58.9427083,160.557292 C59.4045162,160.706598 59.8680532,160.78125 60.3333333,160.78125 C60.7986134,160.78125 61.2621505,160.706598 61.7239583,160.557292 C62.1857662,160.407985 62.5607624,160.24132 62.8489583,160.057292 C63.1371542,159.873263 63.3958322,159.706598 63.625,159.557292 C63.8541678,159.407985 63.9999997,159.333333 64.0625,159.333333 C64.4861132,159.333333 64.8732621,159.402777 65.2239583,159.541667 C65.5746545,159.680556 65.8715266,159.866318 66.1145833,160.098958 C66.3576401,160.331598 66.5729157,160.612846 66.7604167,160.942708 C66.9479176,161.272571 67.0972217,161.611109 67.2083333,161.958333 C67.319445,162.305557 67.411458,162.68229 67.484375,163.088542 C67.557292,163.494794 67.6059027,163.873262 67.6302083,164.223958 C67.654514,164.574655 67.6666667,164.934026 67.6666667,165.302083 L67.6666667,165.302083 Z M64.3333333,156 C64.3333333,157.104172 63.9427122,158.046871 63.1614583,158.828125 C62.3802044,159.609379 61.4375055,160 60.3333333,160 C59.2291611,160 58.2864622,159.609379 57.5052083,158.828125 C56.7239544,158.046871 56.3333333,157.104172 56.3333333,156 C56.3333333,154.895828 56.7239544,153.953129 57.5052083,153.171875 C58.2864622,152.390621 59.2291611,152 60.3333333,152 C61.4375055,152 62.3802044,152.390621 63.1614583,153.171875 C63.9427122,153.953129 64.3333333,154.895828 64.3333333,156 L64.3333333,156 Z" id="-copy-6" fill="#B2B2B2"></path>
                <path d="M36.7763075,229.200378 C36.7763075,229.348247 36.6889318,229.509556 36.5141777,229.68431 L32.8544423,233.253308 L33.7214871,238.294266 C33.7282084,238.341315 33.731569,238.408527 33.731569,238.495904 C33.731569,238.637052 33.6962826,238.756353 33.6257089,238.853812 C33.5551351,238.951271 33.4526367,239 33.3182105,239 C33.1905056,239 33.0560814,238.959673 32.9149338,238.879017 L28.3881537,236.499685 L23.8613737,238.879017 C23.7135048,238.959673 23.5790806,239 23.458097,239 C23.3169495,239 23.2110905,238.951271 23.1405167,238.853812 C23.0699429,238.756353 23.0346566,238.637052 23.0346566,238.495904 C23.0346566,238.455576 23.0413778,238.388364 23.0548204,238.294266 L23.9218652,233.253308 L20.2520479,229.68431 C20.0840151,229.502835 20,229.341526 20,229.200378 C20,228.95169 20.1881939,228.797102 20.5645873,228.73661 L25.6257089,228.00063 L27.8941399,223.413359 C28.0218448,223.137785 28.1865144,223 28.3881537,223 C28.5897931,223 28.7544627,223.137785 28.8821676,223.413359 L31.1505986,228.00063 L36.2117202,228.73661 C36.5881136,228.797102 36.7763075,228.95169 36.7763075,229.200378 L36.7763075,229.200378 Z" id="-copy-2" fill="#B2B2B2"></path>
                <path d="M31.6666667,268 C31.6666667,267.263885 31.4062526,266.635419 30.8854167,266.114583 C30.3645807,265.593747 29.7361148,265.333333 29,265.333333 C28.2638852,265.333333 27.6354193,265.593747 27.1145833,266.114583 C26.5937474,266.635419 26.3333333,267.263885 26.3333333,268 C26.3333333,268.736115 26.5937474,269.364581 27.1145833,269.885417 C27.6354193,270.406253 28.2638852,270.666667 29,270.666667 C29.7361148,270.666667 30.3645807,270.406253 30.8854167,269.885417 C31.4062526,269.364581 31.6666667,268.736115 31.6666667,268 L31.6666667,268 Z M37,266.864583 L37,269.177083 C37,269.260417 36.9722225,269.340277 36.9166667,269.416667 C36.8611108,269.493056 36.7916671,269.538194 36.7083333,269.552083 L34.78125,269.84375 C34.6493049,270.218752 34.5138896,270.534721 34.375,270.791667 C34.6180568,271.138891 34.9895808,271.618053 35.4895833,272.229167 C35.5590281,272.3125 35.59375,272.399305 35.59375,272.489583 C35.59375,272.579862 35.5625003,272.659722 35.5,272.729167 C35.3124991,272.986112 34.9687525,273.361109 34.46875,273.854167 C33.9687475,274.347225 33.6423619,274.59375 33.4895833,274.59375 C33.4062496,274.59375 33.3159727,274.5625 33.21875,274.5 L31.78125,273.375 C31.4756929,273.534723 31.1597239,273.666666 30.8333333,273.770833 C30.7222217,274.715283 30.6215282,275.361109 30.53125,275.708333 C30.4826386,275.902779 30.3576399,276 30.15625,276 L27.84375,276 C27.7465273,276 27.6614587,275.970486 27.5885417,275.911458 C27.5156246,275.85243 27.4756945,275.777778 27.46875,275.6875 L27.1770833,273.770833 C26.8368039,273.659722 26.524307,273.531251 26.2395833,273.385417 L24.7708333,274.5 C24.7013885,274.5625 24.6145839,274.59375 24.5104167,274.59375 C24.413194,274.59375 24.3263893,274.555556 24.25,274.479167 C23.3749956,273.687496 22.8020847,273.104169 22.53125,272.729167 C22.4826386,272.659722 22.4583333,272.579862 22.4583333,272.489583 C22.4583333,272.40625 22.4861108,272.326389 22.5416667,272.25 C22.6458339,272.104166 22.8229154,271.873265 23.0729167,271.557292 C23.3229179,271.241318 23.510416,270.996529 23.6354167,270.822917 C23.4479157,270.475693 23.305556,270.131946 23.2083333,269.791667 L21.3020833,269.510417 C21.2118051,269.496528 21.1388892,269.453125 21.0833333,269.380208 C21.0277775,269.307291 21,269.225695 21,269.135417 L21,266.822917 C21,266.739583 21.0277775,266.659723 21.0833333,266.583333 C21.1388892,266.506944 21.2048607,266.461806 21.28125,266.447917 L23.21875,266.15625 C23.3159727,265.836804 23.451388,265.517363 23.625,265.197917 C23.3472208,264.802081 22.9756968,264.322919 22.5104167,263.760417 C22.4409719,263.677083 22.40625,263.59375 22.40625,263.510417 C22.40625,263.440972 22.4374997,263.361112 22.5,263.270833 C22.6805565,263.020832 23.0225669,262.647572 23.5260417,262.151042 C24.0295164,261.654511 24.3576381,261.40625 24.5104167,261.40625 C24.6006949,261.40625 24.6909718,261.440972 24.78125,261.510417 L26.21875,262.625 C26.5243071,262.465277 26.8402761,262.333334 27.1666667,262.229167 C27.2777783,261.284717 27.3784718,260.638891 27.46875,260.291667 C27.5173614,260.097221 27.6423601,260 27.84375,260 L30.15625,260 C30.2534727,260 30.3385413,260.029514 30.4114583,260.088542 C30.4843754,260.14757 30.5243055,260.222222 30.53125,260.3125 L30.8229167,262.229167 C31.1631961,262.340278 31.475693,262.468749 31.7604167,262.614583 L33.2395833,261.5 C33.3020836,261.4375 33.3854161,261.40625 33.4895833,261.40625 C33.5798616,261.40625 33.6666663,261.440972 33.75,261.510417 C34.6458378,262.33681 35.2187488,262.927082 35.46875,263.28125 C35.5173614,263.336806 35.5416667,263.413194 35.5416667,263.510417 C35.5416667,263.59375 35.5138892,263.673611 35.4583333,263.75 C35.3541661,263.895834 35.1770846,264.126735 34.9270833,264.442708 C34.6770821,264.758682 34.489584,265.003471 34.3645833,265.177083 C34.5451398,265.524307 34.6874995,265.864582 34.7916667,266.197917 L36.6979167,266.489583 C36.7881949,266.503472 36.8611108,266.546875 36.9166667,266.619792 C36.9722225,266.692709 37,266.774305 37,266.864583 L37,266.864583 Z" id="-copy-2" fill="#B2B2B2"></path>
                <path d="M37.662928,195.665331 C37.662928,196.873429 37.246349,197.989514 36.4131784,199.013619 C35.5800078,200.037725 34.4483014,200.846582 33.0180252,201.440216 C31.587749,202.03385 30.0255776,202.330663 28.331464,202.330663 C27.8454478,202.330663 27.3420815,202.302891 26.8213499,202.247346 C25.4466184,203.462387 23.849732,204.302488 22.0306429,204.767675 C21.6904316,204.864878 21.2946815,204.941251 20.8433807,204.996795 C20.7253482,205.010682 20.6194677,204.979438 20.525736,204.903064 C20.4320043,204.82669 20.3712532,204.726017 20.3434809,204.601041 L20.3434809,204.590627 C20.3226516,204.562854 20.3209159,204.521197 20.3382736,204.465652 C20.3556313,204.410107 20.3625743,204.375392 20.3591027,204.361506 C20.3556312,204.34762 20.3712529,204.314641 20.4059684,204.262568 C20.4406838,204.210494 20.4615127,204.179251 20.4684558,204.168836 C20.4753989,204.158422 20.4996994,204.128914 20.5413579,204.080312 C20.5830164,204.031711 20.6107884,204.000467 20.6246745,203.986581 C20.6732762,203.931036 20.7808924,203.81127 20.9475265,203.627278 C21.1141607,203.443286 21.2339271,203.31137 21.3068296,203.231524 C21.379732,203.151679 21.4873482,203.014555 21.6296815,202.820148 C21.7720149,202.625742 21.8848383,202.448696 21.9681554,202.289005 C22.0514725,202.129314 22.1452028,201.924496 22.2493491,201.674544 C22.3534954,201.424593 22.4437542,201.16076 22.5201282,200.883036 C21.4300633,200.265101 20.570869,199.501373 19.9425195,198.591829 C19.31417,197.682284 19,196.706795 19,195.665331 C19,194.76273 19.2464759,193.900064 19.7394352,193.077308 C20.2323945,192.254552 20.8954495,191.544632 21.7286201,190.947527 C22.5617907,190.350421 23.5546374,189.876562 24.70719,189.525936 C25.8597427,189.17531 27.067822,189 28.331464,189 C30.0255776,189 31.587749,189.296813 33.0180252,189.890447 C34.4483014,190.484081 35.5800078,191.292938 36.4131784,192.317044 C37.246349,193.341149 37.662928,194.457234 37.662928,195.665331 L37.662928,195.665331 Z" id="-copy-2" fill="#B2B2B2"></path>
            </g>
        </g>
    </g>
</svg>