<?xml version="1.0" encoding="UTF-8" standalone="no"?>
<svg width="248px" height="288px" viewBox="0 0 248 288" version="1.1" xmlns="http://www.w3.org/2000/svg" xmlns:xlink="http://www.w3.org/1999/xlink">
    <!-- Generator: Sketch 40.2 (33826) - http://www.bohemiancoding.com/sketch -->
    <title>list-gry</title>
    <desc>Created with Sketch.</desc>
    <defs></defs>
    <g id="Components" stroke="none" stroke-width="1" fill="none" fill-rule="evenodd">
        <g id="Icons" transform="translate(-915.000000, -1013.000000)">
            <g id="list-gry" transform="translate(915.000000, 1013.000000)">
                <rect id="Rectangle-13-Copy-10" fill="#F5F5F5" x="0" y="0" width="248" height="288"></rect>
                <rect id="Rectangle-13-Copy-11" fill="#E0E0E0" x="0" y="137" width="248" height="32"></rect>
                <path d="M65.4545455,37.4545455 L65.4545455,29.4545455 C65.4545455,29.1515136 65.3484859,28.8939405 65.1363636,28.6818182 C64.9242414,28.4696959 64.6666682,28.3636364 64.3636364,28.3636364 L56.3636364,28.3636364 C56.0606045,28.3636364 55.8030314,28.2575768 55.5909091,28.0454545 C55.3787868,27.8333323 55.2727273,27.5757591 55.2727273,27.2727273 L55.2727273,26.5454545 C55.2727273,26.2424227 55.1666677,25.9848495 54.9545455,25.7727273 C54.7424232,25.560605 54.48485,25.4545455 54.1818182,25.4545455 L50.5454545,25.4545455 C50.2424227,25.4545455 49.9848495,25.560605 49.7727273,25.7727273 C49.560605,25.9848495 49.4545455,26.2424227 49.4545455,26.5454545 L49.4545455,37.4545455 C49.4545455,37.7575773 49.560605,38.0151505 49.7727273,38.2272727 C49.9848495,38.439395 50.2424227,38.5454545 50.5454545,38.5454545 L64.3636364,38.5454545 C64.6666682,38.5454545 64.9242414,38.439395 65.1363636,38.2272727 C65.3484859,38.0151505 65.4545455,37.7575773 65.4545455,37.4545455 L65.4545455,37.4545455 Z M66.9090909,29.4545455 L66.9090909,37.4545455 C66.9090909,38.1515186 66.6590934,38.7499975 66.1590909,39.25 C65.6590884,39.7500025 65.0606095,40 64.3636364,40 L50.5454545,40 C49.8484814,40 49.2500025,39.7500025 48.75,39.25 C48.2499975,38.7499975 48,38.1515186 48,37.4545455 L48,26.5454545 C48,25.8484814 48.2499975,25.2500025 48.75,24.75 C49.2500025,24.2499975 49.8484814,24 50.5454545,24 L54.1818182,24 C54.8787914,24 55.4772702,24.2499975 55.9772727,24.75 C56.4772752,25.2500025 56.7272727,25.8484814 56.7272727,26.5454545 L56.7272727,26.9090909 L64.3636364,26.9090909 C65.0606095,26.9090909 65.6590884,27.1590884 66.1590909,27.6590909 C66.6590934,28.1590934 66.9090909,28.7575723 66.9090909,29.4545455 L66.9090909,29.4545455 Z" id="-copy-5" fill="#4A4A4A"></path>
                <path d="M112.107143,148.392857 C112.27381,148.559525 112.416666,148.785713 112.535714,149.071429 C112.654762,149.357144 112.714286,149.619046 112.714286,149.857143 L112.714286,160.142857 C112.714286,160.380954 112.630953,160.583333 112.464286,160.75 C112.297618,160.916667 112.095239,161 111.857143,161 L99.8571429,161 C99.6190464,161 99.4166675,160.916667 99.25,160.75 C99.0833325,160.583333 99,160.380954 99,160.142857 L99,145.857143 C99,145.619046 99.0833325,145.416667 99.25,145.25 C99.4166675,145.083333 99.6190464,145 99.8571429,145 L107.857143,145 C108.095239,145 108.357141,145.059523 108.642857,145.178571 C108.928573,145.29762 109.154761,145.440475 109.321429,145.607143 L112.107143,148.392857 Z M108.142857,146.214286 L108.142857,149.571429 L111.5,149.571429 C111.440476,149.398809 111.375,149.276786 111.303571,149.205357 L108.508929,146.410714 C108.4375,146.339285 108.315477,146.27381 108.142857,146.214286 L108.142857,146.214286 Z M111.571429,159.857143 L111.571429,150.714286 L107.857143,150.714286 C107.619046,150.714286 107.416667,150.630953 107.25,150.464286 C107.083332,150.297618 107,150.095239 107,149.857143 L107,146.142857 L100.142857,146.142857 L100.142857,159.857143 L111.571429,159.857143 Z" id="-copy-7" fill="#4A4A4A"></path>
                <path d="M65.4545455,67.4545455 L65.4545455,59.4545455 C65.4545455,59.1515136 65.3484859,58.8939405 65.1363636,58.6818182 C64.9242414,58.4696959 64.6666682,58.3636364 64.3636364,58.3636364 L56.3636364,58.3636364 C56.0606045,58.3636364 55.8030314,58.2575768 55.5909091,58.0454545 C55.3787868,57.8333323 55.2727273,57.5757591 55.2727273,57.2727273 L55.2727273,56.5454545 C55.2727273,56.2424227 55.1666677,55.9848495 54.9545455,55.7727273 C54.7424232,55.560605 54.48485,55.4545455 54.1818182,55.4545455 L50.5454545,55.4545455 C50.2424227,55.4545455 49.9848495,55.560605 49.7727273,55.7727273 C49.560605,55.9848495 49.4545455,56.2424227 49.4545455,56.5454545 L49.4545455,67.4545455 C49.4545455,67.7575773 49.560605,68.0151505 49.7727273,68.2272727 C49.9848495,68.439395 50.2424227,68.5454545 50.5454545,68.5454545 L64.3636364,68.5454545 C64.6666682,68.5454545 64.9242414,68.439395 65.1363636,68.2272727 C65.3484859,68.0151505 65.4545455,67.7575773 65.4545455,67.4545455 L65.4545455,67.4545455 Z M66.9090909,59.4545455 L66.9090909,67.4545455 C66.9090909,68.1515186 66.6590934,68.7499975 66.1590909,69.25 C65.6590884,69.7500025 65.0606095,70 64.3636364,70 L50.5454545,70 C49.8484814,70 49.2500025,69.7500025 48.75,69.25 C48.2499975,68.7499975 48,68.1515186 48,67.4545455 L48,56.5454545 C48,55.8484814 48.2499975,55.2500025 48.75,54.75 C49.2500025,54.2499975 49.8484814,54 50.5454545,54 L54.1818182,54 C54.8787914,54 55.4772702,54.2499975 55.9772727,54.75 C56.4772752,55.2500025 56.7272727,55.8484814 56.7272727,56.5454545 L56.7272727,56.9090909 L64.3636364,56.9090909 C65.0606095,56.9090909 65.6590884,57.1590884 66.1590909,57.6590909 C66.6590934,58.1590934 66.9090909,58.7575723 66.9090909,59.4545455 L66.9090909,59.4545455 Z" id="-copy-6" fill="#4A4A4A"></path>
                <path d="M84.2495117,28.5512695 C83.2296498,28.5512695 82.4245635,28.8908657 81.8342285,29.5700684 C81.2438935,30.249271 80.9487305,31.1791933 80.9487305,32.3598633 C80.9487305,33.5743876 81.2333142,34.5127734 81.8024902,35.1750488 C82.3716663,35.8373243 83.1831002,36.168457 84.2368164,36.168457 C84.8842806,36.168457 85.6227172,36.0520845 86.4521484,35.8193359 L86.4521484,36.7651367 C85.8089161,37.0063489 85.015467,37.1269531 84.0717773,37.1269531 C82.7049085,37.1269531 81.6501502,36.7122437 80.9074707,35.8828125 C80.1647912,35.0533813 79.793457,33.8748449 79.793457,32.347168 C79.793457,31.390783 79.9722476,30.5529007 80.329834,29.8334961 C80.6874204,29.1140915 81.2036913,28.559735 81.8786621,28.1704102 C82.5536329,27.7810853 83.34814,27.5864258 84.262207,27.5864258 C85.2355192,27.5864258 86.0860966,27.7641584 86.8139648,28.1196289 L86.3569336,29.0463867 C85.6544561,28.7163069 84.9519892,28.5512695 84.2495117,28.5512695 L84.2495117,28.5512695 Z M92.5966797,37 L92.387207,36.0097656 L92.3364258,36.0097656 C91.9894188,36.4456402 91.643475,36.7408033 91.298584,36.8952637 C90.9536929,37.0497241 90.5231146,37.1269531 90.0068359,37.1269531 C89.3170538,37.1269531 88.7764505,36.9492205 88.3850098,36.59375 C87.993569,36.2382795 87.7978516,35.7325879 87.7978516,35.0766602 C87.7978516,33.6717052 88.9213755,32.9353845 91.168457,32.8676758 L92.3491211,32.8295898 L92.3491211,32.3979492 C92.3491211,31.8520481 92.2316906,31.4489759 91.9968262,31.1887207 C91.7619617,30.9284655 91.3863958,30.7983398 90.8701172,30.7983398 C90.2903617,30.7983398 89.6344438,30.9760724 88.9023438,31.331543 L88.5786133,30.5253906 C88.9213884,30.3391918 89.2969543,30.1931971 89.7053223,30.0874023 C90.1136902,29.9816075 90.5231099,29.9287109 90.9335938,29.9287109 C91.763025,29.9287109 92.3776835,30.1127911 92.7775879,30.480957 C93.1774922,30.8491229 93.3774414,31.4394491 93.3774414,32.2519531 L93.3774414,37 L92.5966797,37 Z M90.2163086,36.2573242 C90.8722364,36.2573242 91.3874493,36.0774758 91.7619629,35.7177734 C92.1364765,35.3580711 92.3237305,34.8544954 92.3237305,34.2070312 L92.3237305,33.5786133 L91.2700195,33.6230469 C90.4321247,33.6526694 89.8280455,33.7827951 89.4577637,34.0134277 C89.0874819,34.2440604 88.9023438,34.6026994 88.9023438,35.0893555 C88.9023438,35.4702167 89.0176584,35.7600902 89.248291,35.9589844 C89.4789237,36.1578786 89.801593,36.2573242 90.2163086,36.2573242 L90.2163086,36.2573242 Z M97.7954102,36.2573242 C97.981609,36.2573242 98.1614575,36.2435711 98.3349609,36.2160645 C98.5084644,36.1885578 98.6459956,36.1599936 98.7475586,36.1303711 L98.7475586,36.9365234 C98.6333002,36.9915367 98.465089,37.0370278 98.2429199,37.072998 C98.0207508,37.1089683 97.8208017,37.1269531 97.6430664,37.1269531 C96.2973566,37.1269531 95.6245117,36.4181386 95.6245117,35.0004883 L95.6245117,30.8618164 L94.6279297,30.8618164 L94.6279297,30.3540039 L95.6245117,29.9160156 L96.0688477,28.4306641 L96.6782227,28.4306641 L96.6782227,30.0429688 L98.6967773,30.0429688 L98.6967773,30.8618164 L96.6782227,30.8618164 L96.6782227,34.9560547 C96.6782227,35.3750021 96.7776683,35.6966135 96.9765625,35.9208984 C97.1754567,36.1451834 97.4484032,36.2573242 97.7954102,36.2573242 L97.7954102,36.2573242 Z M103.07666,37.1269531 C102.048335,37.1269531 101.236901,36.8138052 100.642334,36.1875 C100.047767,35.5611948 99.7504883,34.6915746 99.7504883,33.5786133 C99.7504883,32.4571884 100.026609,31.5664096 100.578857,30.90625 C101.131106,30.2460904 101.872717,29.9160156 102.803711,29.9160156 C103.67546,29.9160156 104.365232,30.2027152 104.873047,30.776123 C105.380862,31.3495309 105.634766,32.1059523 105.634766,33.0454102 L105.634766,33.7119141 L100.842285,33.7119141 C100.863444,34.5286499 101.069741,35.1485981 101.461182,35.5717773 C101.852622,35.9949565 102.403805,36.206543 103.114746,36.206543 C103.863773,36.206543 104.604326,36.049969 105.336426,35.7368164 L105.336426,36.6762695 C104.964028,36.8370776 104.611737,36.9523922 104.279541,37.0222168 C103.947345,37.0920414 103.546389,37.1269531 103.07666,37.1269531 L103.07666,37.1269531 Z M102.791016,30.7983398 C102.232419,30.7983398 101.78703,30.9803042 101.454834,31.3442383 C101.122638,31.7081724 100.926921,32.2117481 100.867676,32.8549805 L104.504883,32.8549805 C104.504883,32.1905891 104.356772,31.6817238 104.060547,31.3283691 C103.764321,30.9750145 103.341149,30.7983398 102.791016,30.7983398 L102.791016,30.7983398 Z M113.125,30.0429688 L113.125,30.7094727 L111.836426,30.8618164 C111.954916,31.0099291 112.060709,31.2035307 112.153809,31.442627 C112.246908,31.6817232 112.293457,31.9514959 112.293457,32.2519531 C112.293457,32.9332716 112.060712,33.4770488 111.595215,33.8833008 C111.129718,34.2895528 110.490727,34.4926758 109.678223,34.4926758 C109.470865,34.4926758 109.276205,34.4757489 109.094238,34.4418945 C108.645668,34.6788749 108.421387,34.9772117 108.421387,35.3369141 C108.421387,35.5273447 108.499674,35.6680497 108.65625,35.7590332 C108.812826,35.8500167 109.081541,35.8955078 109.462402,35.8955078 L110.693848,35.8955078 C111.447107,35.8955078 112.025796,36.0541976 112.429932,36.371582 C112.834068,36.6889664 113.036133,37.1502248 113.036133,37.7553711 C113.036133,38.5255572 112.727217,39.1127096 112.109375,39.5168457 C111.491533,39.9209818 110.590175,40.1230469 109.405273,40.1230469 C108.495438,40.1230469 107.794029,39.9537777 107.301025,39.6152344 C106.808022,39.276691 106.561523,38.7985057 106.561523,38.1806641 C106.561523,37.7574849 106.696939,37.3914403 106.967773,37.0825195 C107.238608,36.7735987 107.619464,36.5641282 108.110352,36.4541016 C107.932616,36.3736975 107.783448,36.2488615 107.662842,36.0795898 C107.542236,35.9103182 107.481934,35.7135428 107.481934,35.4892578 C107.481934,35.2353503 107.549641,35.0131845 107.685059,34.8227539 C107.820476,34.6323233 108.034178,34.4482431 108.326172,34.2705078 C107.96647,34.1223951 107.673422,33.8706072 107.447021,33.5151367 C107.220621,33.1596662 107.107422,32.7534203 107.107422,32.2963867 C107.107422,31.5346642 107.335935,30.9475118 107.792969,30.5349121 C108.250002,30.1223124 108.897457,29.9160156 109.735352,29.9160156 C110.099286,29.9160156 110.427245,29.9583329 110.719238,30.0429688 L113.125,30.0429688 Z M107.577148,38.1679688 C107.577148,38.5445982 107.735838,38.8302399 108.053223,39.0249023 C108.370607,39.2195648 108.825518,39.3168945 109.417969,39.3168945 C110.302413,39.3168945 110.957273,39.184653 111.382568,38.920166 C111.807863,38.655679 112.020508,38.29704 112.020508,37.8442383 C112.020508,37.4676088 111.904135,37.2062996 111.671387,37.0603027 C111.438638,36.9143059 111.000654,36.8413086 110.357422,36.8413086 L109.094238,36.8413086 C108.616046,36.8413086 108.243654,36.9555653 107.977051,37.184082 C107.710448,37.4125988 107.577148,37.7405578 107.577148,38.1679688 L107.577148,38.1679688 Z M108.148438,32.2709961 C108.148438,32.7576522 108.285969,33.1258126 108.561035,33.3754883 C108.836102,33.625164 109.219073,33.75 109.709961,33.75 C110.738286,33.75 111.252441,33.250656 111.252441,32.2519531 C111.252441,31.2067005 110.731939,30.684082 109.690918,30.684082 C109.195798,30.684082 108.814943,30.8173815 108.54834,31.0839844 C108.281737,31.3505873 108.148438,31.7462539 108.148438,32.2709961 L108.148438,32.2709961 Z M120.558105,33.5151367 C120.558105,34.649257 120.272464,35.5347462 119.701172,36.1716309 C119.12988,36.8085156 118.340663,37.1269531 117.333496,37.1269531 C116.711423,37.1269531 116.159182,36.9809585 115.676758,36.6889648 C115.194334,36.3969712 114.821941,35.9780301 114.55957,35.4321289 C114.297199,34.8862277 114.166016,34.2472367 114.166016,33.5151367 C114.166016,32.3810165 114.449541,31.4976431 115.016602,30.8649902 C115.583662,30.2323373 116.370763,29.9160156 117.37793,29.9160156 C118.351242,29.9160156 119.12459,30.2397429 119.697998,30.887207 C120.271406,31.5346712 120.558105,32.410639 120.558105,33.5151367 L120.558105,33.5151367 Z M115.257812,33.5151367 C115.257812,34.403813 115.435545,35.0808896 115.791016,35.5463867 C116.146486,36.0118838 116.669105,36.2446289 117.358887,36.2446289 C118.048669,36.2446289 118.572345,36.0129418 118.929932,35.5495605 C119.287518,35.0861793 119.466309,34.4080448 119.466309,33.5151367 C119.466309,32.6306922 119.287518,31.9589053 118.929932,31.4997559 C118.572345,31.0406064 118.044437,30.8110352 117.346191,30.8110352 C116.656409,30.8110352 116.135907,31.0374326 115.784668,31.4902344 C115.433429,31.9430361 115.257812,32.6179968 115.257812,33.5151367 L115.257812,33.5151367 Z M125.579102,29.9160156 C125.888022,29.9160156 126.165201,29.941406 126.410645,29.9921875 L126.264648,30.9697266 C125.976887,30.9062497 125.722983,30.8745117 125.50293,30.8745117 C124.940101,30.8745117 124.458742,31.1030251 124.058838,31.5600586 C123.658934,32.0170921 123.458984,32.5862596 123.458984,33.2675781 L123.458984,37 L122.405273,37 L122.405273,30.0429688 L123.274902,30.0429688 L123.395508,31.331543 L123.446289,31.331543 C123.704428,30.8787412 124.01546,30.5296236 124.379395,30.2841797 C124.743329,30.0387358 125.143227,29.9160156 125.579102,29.9160156 L125.579102,29.9160156 Z M126.607422,30.0429688 L127.737305,30.0429688 L129.260742,34.0102539 C129.595054,34.9158574 129.802408,35.5696594 129.882812,35.9716797 L129.933594,35.9716797 C129.988607,35.7558583 130.103922,35.38664 130.279541,34.8640137 C130.45516,34.3413874 131.029618,32.7343885 132.00293,30.0429688 L133.132812,30.0429688 L130.143066,37.9648438 C129.846841,38.7477253 129.500897,39.3031396 129.105225,39.6311035 C128.709552,39.9590674 128.223961,40.1230469 127.648438,40.1230469 C127.326821,40.1230469 127.009442,40.0870772 126.696289,40.0151367 L126.696289,39.1708984 C126.929038,39.2216799 127.189289,39.2470703 127.477051,39.2470703 C128.200687,39.2470703 128.716958,38.8408244 129.025879,38.0283203 L129.413086,37.0380859 L126.607422,30.0429688 Z M141.061035,37 L140.032715,37 L140.032715,30.3857422 C140.032715,29.8356092 140.049642,29.3151066 140.083496,28.8242188 C139.994628,28.9130864 139.895183,29.0061844 139.785156,29.1035156 C139.67513,29.2008468 139.171554,29.6134404 138.274414,30.3413086 L137.71582,29.6176758 L140.172363,27.7197266 L141.061035,27.7197266 L141.061035,37 Z" id="Category-1-Copy-3" fill="#1A1A1A"></path>
                <path d="M84.2495117,58.5512695 C83.2296498,58.5512695 82.4245635,58.8908657 81.8342285,59.5700684 C81.2438935,60.249271 80.9487305,61.1791933 80.9487305,62.3598633 C80.9487305,63.5743876 81.2333142,64.5127734 81.8024902,65.1750488 C82.3716663,65.8373243 83.1831002,66.168457 84.2368164,66.168457 C84.8842806,66.168457 85.6227172,66.0520845 86.4521484,65.8193359 L86.4521484,66.7651367 C85.8089161,67.0063489 85.015467,67.1269531 84.0717773,67.1269531 C82.7049085,67.1269531 81.6501502,66.7122437 80.9074707,65.8828125 C80.1647912,65.0533813 79.793457,63.8748449 79.793457,62.347168 C79.793457,61.390783 79.9722476,60.5529007 80.329834,59.8334961 C80.6874204,59.1140915 81.2036913,58.559735 81.8786621,58.1704102 C82.5536329,57.7810853 83.34814,57.5864258 84.262207,57.5864258 C85.2355192,57.5864258 86.0860966,57.7641584 86.8139648,58.1196289 L86.3569336,59.0463867 C85.6544561,58.7163069 84.9519892,58.5512695 84.2495117,58.5512695 L84.2495117,58.5512695 Z M92.5966797,67 L92.387207,66.0097656 L92.3364258,66.0097656 C91.9894188,66.4456402 91.643475,66.7408033 91.298584,66.8952637 C90.9536929,67.0497241 90.5231146,67.1269531 90.0068359,67.1269531 C89.3170538,67.1269531 88.7764505,66.9492205 88.3850098,66.59375 C87.993569,66.2382795 87.7978516,65.7325879 87.7978516,65.0766602 C87.7978516,63.6717052 88.9213755,62.9353845 91.168457,62.8676758 L92.3491211,62.8295898 L92.3491211,62.3979492 C92.3491211,61.8520481 92.2316906,61.4489759 91.9968262,61.1887207 C91.7619617,60.9284655 91.3863958,60.7983398 90.8701172,60.7983398 C90.2903617,60.7983398 89.6344438,60.9760724 88.9023438,61.331543 L88.5786133,60.5253906 C88.9213884,60.3391918 89.2969543,60.1931971 89.7053223,60.0874023 C90.1136902,59.9816075 90.5231099,59.9287109 90.9335938,59.9287109 C91.763025,59.9287109 92.3776835,60.1127911 92.7775879,60.480957 C93.1774922,60.8491229 93.3774414,61.4394491 93.3774414,62.2519531 L93.3774414,67 L92.5966797,67 Z M90.2163086,66.2573242 C90.8722364,66.2573242 91.3874493,66.0774758 91.7619629,65.7177734 C92.1364765,65.3580711 92.3237305,64.8544954 92.3237305,64.2070312 L92.3237305,63.5786133 L91.2700195,63.6230469 C90.4321247,63.6526694 89.8280455,63.7827951 89.4577637,64.0134277 C89.0874819,64.2440604 88.9023438,64.6026994 88.9023438,65.0893555 C88.9023438,65.4702167 89.0176584,65.7600902 89.248291,65.9589844 C89.4789237,66.1578786 89.801593,66.2573242 90.2163086,66.2573242 L90.2163086,66.2573242 Z M97.7954102,66.2573242 C97.981609,66.2573242 98.1614575,66.2435711 98.3349609,66.2160645 C98.5084644,66.1885578 98.6459956,66.1599936 98.7475586,66.1303711 L98.7475586,66.9365234 C98.6333002,66.9915367 98.465089,67.0370278 98.2429199,67.072998 C98.0207508,67.1089683 97.8208017,67.1269531 97.6430664,67.1269531 C96.2973566,67.1269531 95.6245117,66.4181386 95.6245117,65.0004883 L95.6245117,60.8618164 L94.6279297,60.8618164 L94.6279297,60.3540039 L95.6245117,59.9160156 L96.0688477,58.4306641 L96.6782227,58.4306641 L96.6782227,60.0429688 L98.6967773,60.0429688 L98.6967773,60.8618164 L96.6782227,60.8618164 L96.6782227,64.9560547 C96.6782227,65.3750021 96.7776683,65.6966135 96.9765625,65.9208984 C97.1754567,66.1451834 97.4484032,66.2573242 97.7954102,66.2573242 L97.7954102,66.2573242 Z M103.07666,67.1269531 C102.048335,67.1269531 101.236901,66.8138052 100.642334,66.1875 C100.047767,65.5611948 99.7504883,64.6915746 99.7504883,63.5786133 C99.7504883,62.4571884 100.026609,61.5664096 100.578857,60.90625 C101.131106,60.2460904 101.872717,59.9160156 102.803711,59.9160156 C103.67546,59.9160156 104.365232,60.2027152 104.873047,60.776123 C105.380862,61.3495309 105.634766,62.1059523 105.634766,63.0454102 L105.634766,63.7119141 L100.842285,63.7119141 C100.863444,64.5286499 101.069741,65.1485981 101.461182,65.5717773 C101.852622,65.9949565 102.403805,66.206543 103.114746,66.206543 C103.863773,66.206543 104.604326,66.049969 105.336426,65.7368164 L105.336426,66.6762695 C104.964028,66.8370776 104.611737,66.9523922 104.279541,67.0222168 C103.947345,67.0920414 103.546389,67.1269531 103.07666,67.1269531 L103.07666,67.1269531 Z M102.791016,60.7983398 C102.232419,60.7983398 101.78703,60.9803042 101.454834,61.3442383 C101.122638,61.7081724 100.926921,62.2117481 100.867676,62.8549805 L104.504883,62.8549805 C104.504883,62.1905891 104.356772,61.6817238 104.060547,61.3283691 C103.764321,60.9750145 103.341149,60.7983398 102.791016,60.7983398 L102.791016,60.7983398 Z M113.125,60.0429688 L113.125,60.7094727 L111.836426,60.8618164 C111.954916,61.0099291 112.060709,61.2035307 112.153809,61.442627 C112.246908,61.6817232 112.293457,61.9514959 112.293457,62.2519531 C112.293457,62.9332716 112.060712,63.4770488 111.595215,63.8833008 C111.129718,64.2895528 110.490727,64.4926758 109.678223,64.4926758 C109.470865,64.4926758 109.276205,64.4757489 109.094238,64.4418945 C108.645668,64.6788749 108.421387,64.9772117 108.421387,65.3369141 C108.421387,65.5273447 108.499674,65.6680497 108.65625,65.7590332 C108.812826,65.8500167 109.081541,65.8955078 109.462402,65.8955078 L110.693848,65.8955078 C111.447107,65.8955078 112.025796,66.0541976 112.429932,66.371582 C112.834068,66.6889664 113.036133,67.1502248 113.036133,67.7553711 C113.036133,68.5255572 112.727217,69.1127096 112.109375,69.5168457 C111.491533,69.9209818 110.590175,70.1230469 109.405273,70.1230469 C108.495438,70.1230469 107.794029,69.9537777 107.301025,69.6152344 C106.808022,69.276691 106.561523,68.7985057 106.561523,68.1806641 C106.561523,67.7574849 106.696939,67.3914403 106.967773,67.0825195 C107.238608,66.7735987 107.619464,66.5641282 108.110352,66.4541016 C107.932616,66.3736975 107.783448,66.2488615 107.662842,66.0795898 C107.542236,65.9103182 107.481934,65.7135428 107.481934,65.4892578 C107.481934,65.2353503 107.549641,65.0131845 107.685059,64.8227539 C107.820476,64.6323233 108.034178,64.4482431 108.326172,64.2705078 C107.96647,64.1223951 107.673422,63.8706072 107.447021,63.5151367 C107.220621,63.1596662 107.107422,62.7534203 107.107422,62.2963867 C107.107422,61.5346642 107.335935,60.9475118 107.792969,60.5349121 C108.250002,60.1223124 108.897457,59.9160156 109.735352,59.9160156 C110.099286,59.9160156 110.427245,59.9583329 110.719238,60.0429688 L113.125,60.0429688 Z M107.577148,68.1679688 C107.577148,68.5445982 107.735838,68.8302399 108.053223,69.0249023 C108.370607,69.2195648 108.825518,69.3168945 109.417969,69.3168945 C110.302413,69.3168945 110.957273,69.184653 111.382568,68.920166 C111.807863,68.655679 112.020508,68.29704 112.020508,67.8442383 C112.020508,67.4676088 111.904135,67.2062996 111.671387,67.0603027 C111.438638,66.9143059 111.000654,66.8413086 110.357422,66.8413086 L109.094238,66.8413086 C108.616046,66.8413086 108.243654,66.9555653 107.977051,67.184082 C107.710448,67.4125988 107.577148,67.7405578 107.577148,68.1679688 L107.577148,68.1679688 Z M108.148438,62.2709961 C108.148438,62.7576522 108.285969,63.1258126 108.561035,63.3754883 C108.836102,63.625164 109.219073,63.75 109.709961,63.75 C110.738286,63.75 111.252441,63.250656 111.252441,62.2519531 C111.252441,61.2067005 110.731939,60.684082 109.690918,60.684082 C109.195798,60.684082 108.814943,60.8173815 108.54834,61.0839844 C108.281737,61.3505873 108.148438,61.7462539 108.148438,62.2709961 L108.148438,62.2709961 Z M120.558105,63.5151367 C120.558105,64.649257 120.272464,65.5347462 119.701172,66.1716309 C119.12988,66.8085156 118.340663,67.1269531 117.333496,67.1269531 C116.711423,67.1269531 116.159182,66.9809585 115.676758,66.6889648 C115.194334,66.3969712 114.821941,65.9780301 114.55957,65.4321289 C114.297199,64.8862277 114.166016,64.2472367 114.166016,63.5151367 C114.166016,62.3810165 114.449541,61.4976431 115.016602,60.8649902 C115.583662,60.2323373 116.370763,59.9160156 117.37793,59.9160156 C118.351242,59.9160156 119.12459,60.2397429 119.697998,60.887207 C120.271406,61.5346712 120.558105,62.410639 120.558105,63.5151367 L120.558105,63.5151367 Z M115.257812,63.5151367 C115.257812,64.403813 115.435545,65.0808896 115.791016,65.5463867 C116.146486,66.0118838 116.669105,66.2446289 117.358887,66.2446289 C118.048669,66.2446289 118.572345,66.0129418 118.929932,65.5495605 C119.287518,65.0861793 119.466309,64.4080448 119.466309,63.5151367 C119.466309,62.6306922 119.287518,61.9589053 118.929932,61.4997559 C118.572345,61.0406064 118.044437,60.8110352 117.346191,60.8110352 C116.656409,60.8110352 116.135907,61.0374326 115.784668,61.4902344 C115.433429,61.9430361 115.257812,62.6179968 115.257812,63.5151367 L115.257812,63.5151367 Z M125.579102,59.9160156 C125.888022,59.9160156 126.165201,59.941406 126.410645,59.9921875 L126.264648,60.9697266 C125.976887,60.9062497 125.722983,60.8745117 125.50293,60.8745117 C124.940101,60.8745117 124.458742,61.1030251 124.058838,61.5600586 C123.658934,62.0170921 123.458984,62.5862596 123.458984,63.2675781 L123.458984,67 L122.405273,67 L122.405273,60.0429688 L123.274902,60.0429688 L123.395508,61.331543 L123.446289,61.331543 C123.704428,60.8787412 124.01546,60.5296236 124.379395,60.2841797 C124.743329,60.0387358 125.143227,59.9160156 125.579102,59.9160156 L125.579102,59.9160156 Z M126.607422,60.0429688 L127.737305,60.0429688 L129.260742,64.0102539 C129.595054,64.9158574 129.802408,65.5696594 129.882812,65.9716797 L129.933594,65.9716797 C129.988607,65.7558583 130.103922,65.38664 130.279541,64.8640137 C130.45516,64.3413874 131.029618,62.7343885 132.00293,60.0429688 L133.132812,60.0429688 L130.143066,67.9648438 C129.846841,68.7477253 129.500897,69.3031396 129.105225,69.6311035 C128.709552,69.9590674 128.223961,70.1230469 127.648438,70.1230469 C127.326821,70.1230469 127.009442,70.0870772 126.696289,70.0151367 L126.696289,69.1708984 C126.929038,69.2216799 127.189289,69.2470703 127.477051,69.2470703 C128.200687,69.2470703 128.716958,68.8408244 129.025879,68.0283203 L129.413086,67.0380859 L126.607422,60.0429688 Z M143.257324,67 L137.157227,67 L137.157227,66.0922852 L139.601074,63.6357422 C140.34587,62.8824832 140.83675,62.3450537 141.07373,62.0234375 C141.310711,61.7018213 141.488443,61.3886734 141.606934,61.0839844 C141.725424,60.7792954 141.784668,60.4513364 141.784668,60.1000977 C141.784668,59.604978 141.634442,59.2124852 141.333984,58.9226074 C141.033527,58.6327297 140.616702,58.487793 140.083496,58.487793 C139.698403,58.487793 139.333416,58.5512689 138.988525,58.6782227 C138.643634,58.8051764 138.259605,59.0358056 137.836426,59.3701172 L137.277832,58.652832 C138.132654,57.941891 139.063634,57.5864258 140.070801,57.5864258 C140.94255,57.5864258 141.625974,57.8096495 142.121094,58.2561035 C142.616213,58.7025576 142.86377,59.3024051 142.86377,60.0556641 C142.86377,60.6438831 142.698732,61.2257458 142.368652,61.8012695 C142.038573,62.3767932 141.42074,63.1046505 140.515137,63.9848633 L138.483887,65.9716797 L138.483887,66.0224609 L143.257324,66.0224609 L143.257324,67 Z" id="Category-2-Copy-3" fill="#1A1A1A"></path>
                <path d="M84.2495117,88.5512695 C83.2296498,88.5512695 82.4245635,88.8908657 81.8342285,89.5700684 C81.2438935,90.249271 80.9487305,91.1791933 80.9487305,92.3598633 C80.9487305,93.5743876 81.2333142,94.5127734 81.8024902,95.1750488 C82.3716663,95.8373243 83.1831002,96.168457 84.2368164,96.168457 C84.8842806,96.168457 85.6227172,96.0520845 86.4521484,95.8193359 L86.4521484,96.7651367 C85.8089161,97.0063489 85.015467,97.1269531 84.0717773,97.1269531 C82.7049085,97.1269531 81.6501502,96.7122437 80.9074707,95.8828125 C80.1647912,95.0533813 79.793457,93.8748449 79.793457,92.347168 C79.793457,91.390783 79.9722476,90.5529007 80.329834,89.8334961 C80.6874204,89.1140915 81.2036913,88.559735 81.8786621,88.1704102 C82.5536329,87.7810853 83.34814,87.5864258 84.262207,87.5864258 C85.2355192,87.5864258 86.0860966,87.7641584 86.8139648,88.1196289 L86.3569336,89.0463867 C85.6544561,88.7163069 84.9519892,88.5512695 84.2495117,88.5512695 L84.2495117,88.5512695 Z M92.5966797,97 L92.387207,96.0097656 L92.3364258,96.0097656 C91.9894188,96.4456402 91.643475,96.7408033 91.298584,96.8952637 C90.9536929,97.0497241 90.5231146,97.1269531 90.0068359,97.1269531 C89.3170538,97.1269531 88.7764505,96.9492205 88.3850098,96.59375 C87.993569,96.2382795 87.7978516,95.7325879 87.7978516,95.0766602 C87.7978516,93.6717052 88.9213755,92.9353845 91.168457,92.8676758 L92.3491211,92.8295898 L92.3491211,92.3979492 C92.3491211,91.8520481 92.2316906,91.4489759 91.9968262,91.1887207 C91.7619617,90.9284655 91.3863958,90.7983398 90.8701172,90.7983398 C90.2903617,90.7983398 89.6344438,90.9760724 88.9023438,91.331543 L88.5786133,90.5253906 C88.9213884,90.3391918 89.2969543,90.1931971 89.7053223,90.0874023 C90.1136902,89.9816075 90.5231099,89.9287109 90.9335938,89.9287109 C91.763025,89.9287109 92.3776835,90.1127911 92.7775879,90.480957 C93.1774922,90.8491229 93.3774414,91.4394491 93.3774414,92.2519531 L93.3774414,97 L92.5966797,97 Z M90.2163086,96.2573242 C90.8722364,96.2573242 91.3874493,96.0774758 91.7619629,95.7177734 C92.1364765,95.3580711 92.3237305,94.8544954 92.3237305,94.2070312 L92.3237305,93.5786133 L91.2700195,93.6230469 C90.4321247,93.6526694 89.8280455,93.7827951 89.4577637,94.0134277 C89.0874819,94.2440604 88.9023438,94.6026994 88.9023438,95.0893555 C88.9023438,95.4702167 89.0176584,95.7600902 89.248291,95.9589844 C89.4789237,96.1578786 89.801593,96.2573242 90.2163086,96.2573242 L90.2163086,96.2573242 Z M97.7954102,96.2573242 C97.981609,96.2573242 98.1614575,96.2435711 98.3349609,96.2160645 C98.5084644,96.1885578 98.6459956,96.1599936 98.7475586,96.1303711 L98.7475586,96.9365234 C98.6333002,96.9915367 98.465089,97.0370278 98.2429199,97.072998 C98.0207508,97.1089683 97.8208017,97.1269531 97.6430664,97.1269531 C96.2973566,97.1269531 95.6245117,96.4181386 95.6245117,95.0004883 L95.6245117,90.8618164 L94.6279297,90.8618164 L94.6279297,90.3540039 L95.6245117,89.9160156 L96.0688477,88.4306641 L96.6782227,88.4306641 L96.6782227,90.0429688 L98.6967773,90.0429688 L98.6967773,90.8618164 L96.6782227,90.8618164 L96.6782227,94.9560547 C96.6782227,95.3750021 96.7776683,95.6966135 96.9765625,95.9208984 C97.1754567,96.1451834 97.4484032,96.2573242 97.7954102,96.2573242 L97.7954102,96.2573242 Z M103.07666,97.1269531 C102.048335,97.1269531 101.236901,96.8138052 100.642334,96.1875 C100.047767,95.5611948 99.7504883,94.6915746 99.7504883,93.5786133 C99.7504883,92.4571884 100.026609,91.5664096 100.578857,90.90625 C101.131106,90.2460904 101.872717,89.9160156 102.803711,89.9160156 C103.67546,89.9160156 104.365232,90.2027152 104.873047,90.776123 C105.380862,91.3495309 105.634766,92.1059523 105.634766,93.0454102 L105.634766,93.7119141 L100.842285,93.7119141 C100.863444,94.5286499 101.069741,95.1485981 101.461182,95.5717773 C101.852622,95.9949565 102.403805,96.206543 103.114746,96.206543 C103.863773,96.206543 104.604326,96.049969 105.336426,95.7368164 L105.336426,96.6762695 C104.964028,96.8370776 104.611737,96.9523922 104.279541,97.0222168 C103.947345,97.0920414 103.546389,97.1269531 103.07666,97.1269531 L103.07666,97.1269531 Z M102.791016,90.7983398 C102.232419,90.7983398 101.78703,90.9803042 101.454834,91.3442383 C101.122638,91.7081724 100.926921,92.2117481 100.867676,92.8549805 L104.504883,92.8549805 C104.504883,92.1905891 104.356772,91.6817238 104.060547,91.3283691 C103.764321,90.9750145 103.341149,90.7983398 102.791016,90.7983398 L102.791016,90.7983398 Z M113.125,90.0429688 L113.125,90.7094727 L111.836426,90.8618164 C111.954916,91.0099291 112.060709,91.2035307 112.153809,91.442627 C112.246908,91.6817232 112.293457,91.9514959 112.293457,92.2519531 C112.293457,92.9332716 112.060712,93.4770487 111.595215,93.8833008 C111.129718,94.2895528 110.490727,94.4926758 109.678223,94.4926758 C109.470865,94.4926758 109.276205,94.4757489 109.094238,94.4418945 C108.645668,94.6788749 108.421387,94.9772117 108.421387,95.3369141 C108.421387,95.5273447 108.499674,95.6680497 108.65625,95.7590332 C108.812826,95.8500167 109.081541,95.8955078 109.462402,95.8955078 L110.693848,95.8955078 C111.447107,95.8955078 112.025796,96.0541976 112.429932,96.371582 C112.834068,96.6889664 113.036133,97.1502248 113.036133,97.7553711 C113.036133,98.5255572 112.727217,99.1127096 112.109375,99.5168457 C111.491533,99.9209818 110.590175,100.123047 109.405273,100.123047 C108.495438,100.123047 107.794029,99.9537777 107.301025,99.6152344 C106.808022,99.276691 106.561523,98.7985057 106.561523,98.1806641 C106.561523,97.7574849 106.696939,97.3914403 106.967773,97.0825195 C107.238608,96.7735987 107.619464,96.5641282 108.110352,96.4541016 C107.932616,96.3736975 107.783448,96.2488615 107.662842,96.0795898 C107.542236,95.9103182 107.481934,95.7135428 107.481934,95.4892578 C107.481934,95.2353503 107.549641,95.0131845 107.685059,94.8227539 C107.820476,94.6323233 108.034178,94.4482431 108.326172,94.2705078 C107.96647,94.1223951 107.673422,93.8706072 107.447021,93.5151367 C107.220621,93.1596662 107.107422,92.7534203 107.107422,92.2963867 C107.107422,91.5346642 107.335935,90.9475118 107.792969,90.5349121 C108.250002,90.1223124 108.897457,89.9160156 109.735352,89.9160156 C110.099286,89.9160156 110.427245,89.9583329 110.719238,90.0429688 L113.125,90.0429688 Z M107.577148,98.1679688 C107.577148,98.5445982 107.735838,98.8302399 108.053223,99.0249023 C108.370607,99.2195648 108.825518,99.3168945 109.417969,99.3168945 C110.302413,99.3168945 110.957273,99.184653 111.382568,98.920166 C111.807863,98.655679 112.020508,98.29704 112.020508,97.8442383 C112.020508,97.4676088 111.904135,97.2062996 111.671387,97.0603027 C111.438638,96.9143059 111.000654,96.8413086 110.357422,96.8413086 L109.094238,96.8413086 C108.616046,96.8413086 108.243654,96.9555653 107.977051,97.184082 C107.710448,97.4125988 107.577148,97.7405578 107.577148,98.1679688 L107.577148,98.1679688 Z M108.148438,92.2709961 C108.148438,92.7576522 108.285969,93.1258126 108.561035,93.3754883 C108.836102,93.625164 109.219073,93.75 109.709961,93.75 C110.738286,93.75 111.252441,93.250656 111.252441,92.2519531 C111.252441,91.2067005 110.731939,90.684082 109.690918,90.684082 C109.195798,90.684082 108.814943,90.8173815 108.54834,91.0839844 C108.281737,91.3505873 108.148438,91.7462539 108.148438,92.2709961 L108.148438,92.2709961 Z M120.558105,93.5151367 C120.558105,94.649257 120.272464,95.5347462 119.701172,96.1716309 C119.12988,96.8085156 118.340663,97.1269531 117.333496,97.1269531 C116.711423,97.1269531 116.159182,96.9809585 115.676758,96.6889648 C115.194334,96.3969712 114.821941,95.9780301 114.55957,95.4321289 C114.297199,94.8862277 114.166016,94.2472367 114.166016,93.5151367 C114.166016,92.3810165 114.449541,91.4976431 115.016602,90.8649902 C115.583662,90.2323373 116.370763,89.9160156 117.37793,89.9160156 C118.351242,89.9160156 119.12459,90.2397429 119.697998,90.887207 C120.271406,91.5346712 120.558105,92.410639 120.558105,93.5151367 L120.558105,93.5151367 Z M115.257812,93.5151367 C115.257812,94.403813 115.435545,95.0808896 115.791016,95.5463867 C116.146486,96.0118838 116.669105,96.2446289 117.358887,96.2446289 C118.048669,96.2446289 118.572345,96.0129418 118.929932,95.5495605 C119.287518,95.0861793 119.466309,94.4080448 119.466309,93.5151367 C119.466309,92.6306922 119.287518,91.9589053 118.929932,91.4997559 C118.572345,91.0406064 118.044437,90.8110352 117.346191,90.8110352 C116.656409,90.8110352 116.135907,91.0374326 115.784668,91.4902344 C115.433429,91.9430361 115.257812,92.6179968 115.257812,93.5151367 L115.257812,93.5151367 Z M125.579102,89.9160156 C125.888022,89.9160156 126.165201,89.941406 126.410645,89.9921875 L126.264648,90.9697266 C125.976887,90.9062497 125.722983,90.8745117 125.50293,90.8745117 C124.940101,90.8745117 124.458742,91.1030251 124.058838,91.5600586 C123.658934,92.0170921 123.458984,92.5862596 123.458984,93.2675781 L123.458984,97 L122.405273,97 L122.405273,90.0429688 L123.274902,90.0429688 L123.395508,91.331543 L123.446289,91.331543 C123.704428,90.8787412 124.01546,90.5296236 124.379395,90.2841797 C124.743329,90.0387358 125.143227,89.9160156 125.579102,89.9160156 L125.579102,89.9160156 Z M126.607422,90.0429688 L127.737305,90.0429688 L129.260742,94.0102539 C129.595054,94.9158574 129.802408,95.5696594 129.882812,95.9716797 L129.933594,95.9716797 C129.988607,95.7558583 130.103922,95.38664 130.279541,94.8640137 C130.45516,94.3413874 131.029618,92.7343885 132.00293,90.0429688 L133.132812,90.0429688 L130.143066,97.9648438 C129.846841,98.7477253 129.500897,99.3031396 129.105225,99.6311035 C128.709552,99.9590674 128.223961,100.123047 127.648438,100.123047 C127.326821,100.123047 127.009442,100.087077 126.696289,100.015137 L126.696289,99.1708984 C126.929038,99.2216799 127.189289,99.2470703 127.477051,99.2470703 C128.200687,99.2470703 128.716958,98.8408244 129.025879,98.0283203 L129.413086,97.0380859 L126.607422,90.0429688 Z M142.908203,89.9033203 C142.908203,90.4957712 142.742108,90.9803041 142.409912,91.3569336 C142.077716,91.7335631 141.606937,91.9853509 140.997559,92.1123047 L140.997559,92.1630859 C141.742354,92.2561854 142.294595,92.4931622 142.654297,92.8740234 C143.013999,93.2548847 143.193848,93.7542287 143.193848,94.3720703 C143.193848,95.2565148 142.887047,95.9367652 142.273438,96.4128418 C141.659828,96.8889184 140.788092,97.1269531 139.658203,97.1269531 C139.167315,97.1269531 138.717694,97.0899255 138.309326,97.0158691 C137.900958,96.9418128 137.504234,96.8116871 137.119141,96.6254883 L137.119141,95.6225586 C137.521161,95.8214528 137.949623,95.9727371 138.404541,96.076416 C138.859459,96.1800949 139.290037,96.2319336 139.696289,96.2319336 C141.300138,96.2319336 142.102051,95.6035219 142.102051,94.3466797 C142.102051,93.221023 141.21762,92.6582031 139.44873,92.6582031 L138.534668,92.6582031 L138.534668,91.7504883 L139.461426,91.7504883 C140.185062,91.7504883 140.758461,91.5907405 141.181641,91.2712402 C141.60482,90.9517399 141.816406,90.5084664 141.816406,89.9414062 C141.816406,89.4886045 141.66089,89.1331393 141.349854,88.875 C141.038817,88.6168607 140.616702,88.487793 140.083496,88.487793 C139.677244,88.487793 139.294273,88.5428054 138.93457,88.652832 C138.574868,88.7628586 138.16439,88.9659816 137.703125,89.262207 L137.169922,88.5512695 C137.550783,88.2508123 137.989825,88.0148934 138.487061,87.8435059 C138.984296,87.6721183 139.507973,87.5864258 140.058105,87.5864258 C140.959477,87.5864258 141.659828,87.7927225 142.15918,88.2053223 C142.658531,88.617922 142.908203,89.1839157 142.908203,89.9033203 L142.908203,89.9033203 Z" id="Category-3-Copy-3" fill="#1A1A1A"></path>
                <path d="M126.275879,159 L126.275879,149.719727 L127.35498,149.719727 L127.35498,159 L126.275879,159 Z M131.98877,158.257324 C132.174968,158.257324 132.354817,158.243571 132.52832,158.216064 C132.701824,158.188558 132.839355,158.159994 132.940918,158.130371 L132.940918,158.936523 C132.82666,158.991537 132.658448,159.037028 132.436279,159.072998 C132.21411,159.108968 132.014161,159.126953 131.836426,159.126953 C130.490716,159.126953 129.817871,158.418139 129.817871,157.000488 L129.817871,152.861816 L128.821289,152.861816 L128.821289,152.354004 L129.817871,151.916016 L130.262207,150.430664 L130.871582,150.430664 L130.871582,152.042969 L132.890137,152.042969 L132.890137,152.861816 L130.871582,152.861816 L130.871582,156.956055 C130.871582,157.375002 130.971028,157.696613 131.169922,157.920898 C131.368816,158.145183 131.641763,158.257324 131.98877,158.257324 L131.98877,158.257324 Z M137.27002,159.126953 C136.241694,159.126953 135.43026,158.813805 134.835693,158.1875 C134.241127,157.561195 133.943848,156.691575 133.943848,155.578613 C133.943848,154.457188 134.219968,153.56641 134.772217,152.90625 C135.324466,152.24609 136.066076,151.916016 136.99707,151.916016 C137.868819,151.916016 138.558591,152.202715 139.066406,152.776123 C139.574221,153.349531 139.828125,154.105952 139.828125,155.04541 L139.828125,155.711914 L135.035645,155.711914 C135.056803,156.52865 135.2631,157.148598 135.654541,157.571777 C136.045982,157.994957 136.597164,158.206543 137.308105,158.206543 C138.057133,158.206543 138.797685,158.049969 139.529785,157.736816 L139.529785,158.67627 C139.157387,158.837078 138.805096,158.952392 138.4729,159.022217 C138.140705,159.092041 137.739748,159.126953 137.27002,159.126953 L137.27002,159.126953 Z M136.984375,152.79834 C136.425778,152.79834 135.980389,152.980304 135.648193,153.344238 C135.315998,153.708172 135.12028,154.211748 135.061035,154.85498 L138.698242,154.85498 C138.698242,154.190589 138.550132,153.681724 138.253906,153.328369 C137.957681,152.975015 137.534508,152.79834 136.984375,152.79834 L136.984375,152.79834 Z M150.492188,159 L150.492188,154.474121 C150.492188,153.919756 150.373699,153.503989 150.136719,153.226807 C149.899738,152.949624 149.531578,152.811035 149.032227,152.811035 C148.376299,152.811035 147.891766,152.999347 147.578613,153.375977 C147.265461,153.752606 147.108887,154.332353 147.108887,155.115234 L147.108887,159 L146.055176,159 L146.055176,154.474121 C146.055176,153.919756 145.936687,153.503989 145.699707,153.226807 C145.462727,152.949624 145.09245,152.811035 144.588867,152.811035 C143.928708,152.811035 143.445233,153.008868 143.138428,153.404541 C142.831623,153.800214 142.678223,154.448726 142.678223,155.350098 L142.678223,159 L141.624512,159 L141.624512,152.042969 L142.481445,152.042969 L142.652832,152.995117 L142.703613,152.995117 C142.902508,152.656574 143.18286,152.392091 143.544678,152.20166 C143.906496,152.01123 144.311684,151.916016 144.760254,151.916016 C145.847824,151.916016 146.558755,152.309566 146.893066,153.09668 L146.943848,153.09668 C147.151205,152.732746 147.451658,152.444988 147.845215,152.233398 C148.238771,152.021809 148.687335,151.916016 149.190918,151.916016 C149.978031,151.916016 150.567299,152.118081 150.95874,152.522217 C151.350181,152.926353 151.545898,153.572749 151.545898,154.461426 L151.545898,159 L150.492188,159 Z M160.515137,159 L159.486816,159 L159.486816,152.385742 C159.486816,151.835609 159.503743,151.315107 159.537598,150.824219 C159.44873,150.913086 159.349284,151.006184 159.239258,151.103516 C159.129231,151.200847 158.625656,151.61344 157.728516,152.341309 L157.169922,151.617676 L159.626465,149.719727 L160.515137,149.719727 L160.515137,159 Z" id="Item-1-Copy-4" fill="#1A1A1A"></path>
                <path d="M112.107143,178.392857 C112.27381,178.559525 112.416666,178.785713 112.535714,179.071429 C112.654762,179.357144 112.714286,179.619046 112.714286,179.857143 L112.714286,190.142857 C112.714286,190.380954 112.630953,190.583333 112.464286,190.75 C112.297618,190.916667 112.095239,191 111.857143,191 L99.8571429,191 C99.6190464,191 99.4166675,190.916667 99.25,190.75 C99.0833325,190.583333 99,190.380954 99,190.142857 L99,175.857143 C99,175.619046 99.0833325,175.416667 99.25,175.25 C99.4166675,175.083333 99.6190464,175 99.8571429,175 L107.857143,175 C108.095239,175 108.357141,175.059523 108.642857,175.178571 C108.928573,175.29762 109.154761,175.440475 109.321429,175.607143 L112.107143,178.392857 Z M108.142857,176.214286 L108.142857,179.571429 L111.5,179.571429 C111.440476,179.398809 111.375,179.276786 111.303571,179.205357 L108.508929,176.410714 C108.4375,176.339285 108.315477,176.27381 108.142857,176.214286 L108.142857,176.214286 Z M111.571429,189.857143 L111.571429,180.714286 L107.857143,180.714286 C107.619046,180.714286 107.416667,180.630953 107.25,180.464286 C107.083332,180.297618 107,180.095239 107,179.857143 L107,176.142857 L100.142857,176.142857 L100.142857,189.857143 L111.571429,189.857143 Z" id="-copy-8" fill="#4A4A4A"></path>
                <path d="M126.275879,189 L126.275879,179.719727 L127.35498,179.719727 L127.35498,189 L126.275879,189 Z M131.98877,188.257324 C132.174968,188.257324 132.354817,188.243571 132.52832,188.216064 C132.701824,188.188558 132.839355,188.159994 132.940918,188.130371 L132.940918,188.936523 C132.82666,188.991537 132.658448,189.037028 132.436279,189.072998 C132.21411,189.108968 132.014161,189.126953 131.836426,189.126953 C130.490716,189.126953 129.817871,188.418139 129.817871,187.000488 L129.817871,182.861816 L128.821289,182.861816 L128.821289,182.354004 L129.817871,181.916016 L130.262207,180.430664 L130.871582,180.430664 L130.871582,182.042969 L132.890137,182.042969 L132.890137,182.861816 L130.871582,182.861816 L130.871582,186.956055 C130.871582,187.375002 130.971028,187.696613 131.169922,187.920898 C131.368816,188.145183 131.641763,188.257324 131.98877,188.257324 L131.98877,188.257324 Z M137.27002,189.126953 C136.241694,189.126953 135.43026,188.813805 134.835693,188.1875 C134.241127,187.561195 133.943848,186.691575 133.943848,185.578613 C133.943848,184.457188 134.219968,183.56641 134.772217,182.90625 C135.324466,182.24609 136.066076,181.916016 136.99707,181.916016 C137.868819,181.916016 138.558591,182.202715 139.066406,182.776123 C139.574221,183.349531 139.828125,184.105952 139.828125,185.04541 L139.828125,185.711914 L135.035645,185.711914 C135.056803,186.52865 135.2631,187.148598 135.654541,187.571777 C136.045982,187.994957 136.597164,188.206543 137.308105,188.206543 C138.057133,188.206543 138.797685,188.049969 139.529785,187.736816 L139.529785,188.67627 C139.157387,188.837078 138.805096,188.952392 138.4729,189.022217 C138.140705,189.092041 137.739748,189.126953 137.27002,189.126953 L137.27002,189.126953 Z M136.984375,182.79834 C136.425778,182.79834 135.980389,182.980304 135.648193,183.344238 C135.315998,183.708172 135.12028,184.211748 135.061035,184.85498 L138.698242,184.85498 C138.698242,184.190589 138.550132,183.681724 138.253906,183.328369 C137.957681,182.975015 137.534508,182.79834 136.984375,182.79834 L136.984375,182.79834 Z M150.492188,189 L150.492188,184.474121 C150.492188,183.919756 150.373699,183.503989 150.136719,183.226807 C149.899738,182.949624 149.531578,182.811035 149.032227,182.811035 C148.376299,182.811035 147.891766,182.999347 147.578613,183.375977 C147.265461,183.752606 147.108887,184.332353 147.108887,185.115234 L147.108887,189 L146.055176,189 L146.055176,184.474121 C146.055176,183.919756 145.936687,183.503989 145.699707,183.226807 C145.462727,182.949624 145.09245,182.811035 144.588867,182.811035 C143.928708,182.811035 143.445233,183.008868 143.138428,183.404541 C142.831623,183.800214 142.678223,184.448726 142.678223,185.350098 L142.678223,189 L141.624512,189 L141.624512,182.042969 L142.481445,182.042969 L142.652832,182.995117 L142.703613,182.995117 C142.902508,182.656574 143.18286,182.392091 143.544678,182.20166 C143.906496,182.01123 144.311684,181.916016 144.760254,181.916016 C145.847824,181.916016 146.558755,182.309566 146.893066,183.09668 L146.943848,183.09668 C147.151205,182.732746 147.451658,182.444988 147.845215,182.233398 C148.238771,182.021809 148.687335,181.916016 149.190918,181.916016 C149.978031,181.916016 150.567299,182.118081 150.95874,182.522217 C151.350181,182.926353 151.545898,183.572749 151.545898,184.461426 L151.545898,189 L150.492188,189 Z M162.711426,189 L156.611328,189 L156.611328,188.092285 L159.055176,185.635742 C159.799971,184.882483 160.290852,184.345054 160.527832,184.023438 C160.764812,183.701821 160.942545,183.388673 161.061035,183.083984 C161.179525,182.779295 161.23877,182.451336 161.23877,182.100098 C161.23877,181.604978 161.088543,181.212485 160.788086,180.922607 C160.487629,180.63273 160.070803,180.487793 159.537598,180.487793 C159.152505,180.487793 158.787518,180.551269 158.442627,180.678223 C158.097736,180.805176 157.713707,181.035806 157.290527,181.370117 L156.731934,180.652832 C157.586756,179.941891 158.517736,179.586426 159.524902,179.586426 C160.396651,179.586426 161.080076,179.809649 161.575195,180.256104 C162.070315,180.702558 162.317871,181.302405 162.317871,182.055664 C162.317871,182.643883 162.152834,183.225746 161.822754,183.80127 C161.492674,184.376793 160.874842,185.104651 159.969238,185.984863 L157.937988,187.97168 L157.937988,188.022461 L162.711426,188.022461 L162.711426,189 Z" id="Item-2-Copy-5" fill="#1A1A1A"></path>
                <path d="M112.107143,208.392857 C112.27381,208.559525 112.416666,208.785713 112.535714,209.071429 C112.654762,209.357144 112.714286,209.619046 112.714286,209.857143 L112.714286,220.142857 C112.714286,220.380954 112.630953,220.583333 112.464286,220.75 C112.297618,220.916667 112.095239,221 111.857143,221 L99.8571429,221 C99.6190464,221 99.4166675,220.916667 99.25,220.75 C99.0833325,220.583333 99,220.380954 99,220.142857 L99,205.857143 C99,205.619046 99.0833325,205.416667 99.25,205.25 C99.4166675,205.083333 99.6190464,205 99.8571429,205 L107.857143,205 C108.095239,205 108.357141,205.059523 108.642857,205.178571 C108.928573,205.29762 109.154761,205.440475 109.321429,205.607143 L112.107143,208.392857 Z M108.142857,206.214286 L108.142857,209.571429 L111.5,209.571429 C111.440476,209.398809 111.375,209.276786 111.303571,209.205357 L108.508929,206.410714 C108.4375,206.339285 108.315477,206.27381 108.142857,206.214286 L108.142857,206.214286 Z M111.571429,219.857143 L111.571429,210.714286 L107.857143,210.714286 C107.619046,210.714286 107.416667,210.630953 107.25,210.464286 C107.083332,210.297618 107,210.095239 107,209.857143 L107,206.142857 L100.142857,206.142857 L100.142857,219.857143 L111.571429,219.857143 Z" id="-copy-9" fill="#4A4A4A"></path>
                <path d="M126.275879,219 L126.275879,209.719727 L127.35498,209.719727 L127.35498,219 L126.275879,219 Z M131.98877,218.257324 C132.174968,218.257324 132.354817,218.243571 132.52832,218.216064 C132.701824,218.188558 132.839355,218.159994 132.940918,218.130371 L132.940918,218.936523 C132.82666,218.991537 132.658448,219.037028 132.436279,219.072998 C132.21411,219.108968 132.014161,219.126953 131.836426,219.126953 C130.490716,219.126953 129.817871,218.418139 129.817871,217.000488 L129.817871,212.861816 L128.821289,212.861816 L128.821289,212.354004 L129.817871,211.916016 L130.262207,210.430664 L130.871582,210.430664 L130.871582,212.042969 L132.890137,212.042969 L132.890137,212.861816 L130.871582,212.861816 L130.871582,216.956055 C130.871582,217.375002 130.971028,217.696613 131.169922,217.920898 C131.368816,218.145183 131.641763,218.257324 131.98877,218.257324 L131.98877,218.257324 Z M137.27002,219.126953 C136.241694,219.126953 135.43026,218.813805 134.835693,218.1875 C134.241127,217.561195 133.943848,216.691575 133.943848,215.578613 C133.943848,214.457188 134.219968,213.56641 134.772217,212.90625 C135.324466,212.24609 136.066076,211.916016 136.99707,211.916016 C137.868819,211.916016 138.558591,212.202715 139.066406,212.776123 C139.574221,213.349531 139.828125,214.105952 139.828125,215.04541 L139.828125,215.711914 L135.035645,215.711914 C135.056803,216.52865 135.2631,217.148598 135.654541,217.571777 C136.045982,217.994957 136.597164,218.206543 137.308105,218.206543 C138.057133,218.206543 138.797685,218.049969 139.529785,217.736816 L139.529785,218.67627 C139.157387,218.837078 138.805096,218.952392 138.4729,219.022217 C138.140705,219.092041 137.739748,219.126953 137.27002,219.126953 L137.27002,219.126953 Z M136.984375,212.79834 C136.425778,212.79834 135.980389,212.980304 135.648193,213.344238 C135.315998,213.708172 135.12028,214.211748 135.061035,214.85498 L138.698242,214.85498 C138.698242,214.190589 138.550132,213.681724 138.253906,213.328369 C137.957681,212.975015 137.534508,212.79834 136.984375,212.79834 L136.984375,212.79834 Z M150.492188,219 L150.492188,214.474121 C150.492188,213.919756 150.373699,213.503989 150.136719,213.226807 C149.899738,212.949624 149.531578,212.811035 149.032227,212.811035 C148.376299,212.811035 147.891766,212.999347 147.578613,213.375977 C147.265461,213.752606 147.108887,214.332353 147.108887,215.115234 L147.108887,219 L146.055176,219 L146.055176,214.474121 C146.055176,213.919756 145.936687,213.503989 145.699707,213.226807 C145.462727,212.949624 145.09245,212.811035 144.588867,212.811035 C143.928708,212.811035 143.445233,213.008868 143.138428,213.404541 C142.831623,213.800214 142.678223,214.448726 142.678223,215.350098 L142.678223,219 L141.624512,219 L141.624512,212.042969 L142.481445,212.042969 L142.652832,212.995117 L142.703613,212.995117 C142.902508,212.656574 143.18286,212.392091 143.544678,212.20166 C143.906496,212.01123 144.311684,211.916016 144.760254,211.916016 C145.847824,211.916016 146.558755,212.309566 146.893066,213.09668 L146.943848,213.09668 C147.151205,212.732746 147.451658,212.444988 147.845215,212.233398 C148.238771,212.021809 148.687335,211.916016 149.190918,211.916016 C149.978031,211.916016 150.567299,212.118081 150.95874,212.522217 C151.350181,212.926353 151.545898,213.572749 151.545898,214.461426 L151.545898,219 L150.492188,219 Z M162.362305,211.90332 C162.362305,212.495771 162.196209,212.980304 161.864014,213.356934 C161.531818,213.733563 161.061038,213.985351 160.45166,214.112305 L160.45166,214.163086 C161.196456,214.256185 161.748696,214.493162 162.108398,214.874023 C162.468101,215.254885 162.647949,215.754229 162.647949,216.37207 C162.647949,217.256515 162.341149,217.936765 161.727539,218.412842 C161.113929,218.888918 160.242193,219.126953 159.112305,219.126953 C158.621417,219.126953 158.171796,219.089926 157.763428,219.015869 C157.35506,218.941813 156.958335,218.811687 156.573242,218.625488 L156.573242,217.622559 C156.975262,217.821453 157.403725,217.972737 157.858643,218.076416 C158.31356,218.180095 158.744139,218.231934 159.150391,218.231934 C160.75424,218.231934 161.556152,217.603522 161.556152,216.34668 C161.556152,215.221023 160.671721,214.658203 158.902832,214.658203 L157.98877,214.658203 L157.98877,213.750488 L158.915527,213.750488 C159.639164,213.750488 160.212563,213.590741 160.635742,213.27124 C161.058921,212.95174 161.270508,212.508466 161.270508,211.941406 C161.270508,211.488605 161.114992,211.133139 160.803955,210.875 C160.492918,210.616861 160.070803,210.487793 159.537598,210.487793 C159.131346,210.487793 158.748374,210.542805 158.388672,210.652832 C158.02897,210.762859 157.618492,210.965982 157.157227,211.262207 L156.624023,210.55127 C157.004885,210.250812 157.443927,210.014893 157.941162,209.843506 C158.438398,209.672118 158.962074,209.586426 159.512207,209.586426 C160.413579,209.586426 161.11393,209.792723 161.613281,210.205322 C162.112633,210.617922 162.362305,211.183916 162.362305,211.90332 L162.362305,211.90332 Z" id="Item-3-Copy-5" fill="#1A1A1A"></path>
                <path d="M68.2386364,93.125 C68.2386364,92.8598472 68.0378808,92.7272727 67.6363636,92.7272727 L55.2727273,92.7272727 C54.9696955,92.7272727 54.6458351,92.8087113 54.3011364,92.9715909 C53.9564377,93.1344705 53.685607,93.3333322 53.4886364,93.5681818 L50.1477273,97.6931818 C50.011363,97.8750009 49.9431818,98.0265145 49.9431818,98.1477273 C49.9431818,98.4128801 50.1439374,98.5454545 50.5454545,98.5454545 L62.9090909,98.5454545 C63.2121227,98.5454545 63.537877,98.462122 63.8863636,98.2954545 C64.2348502,98.128787 64.5037869,97.9280315 64.6931818,97.6931818 L68.0340909,93.5681818 C68.1704552,93.4015143 68.2386364,93.2537885 68.2386364,93.125 L68.2386364,93.125 Z M55.2727273,91.2727273 L64,91.2727273 L64,89.4545455 C64,89.1515136 63.8939405,88.8939405 63.6818182,88.6818182 C63.4696959,88.4696959 63.2121227,88.3636364 62.9090909,88.3636364 L56.3636364,88.3636364 C56.0606045,88.3636364 55.8030314,88.2575768 55.5909091,88.0454545 C55.3787868,87.8333323 55.2727273,87.5757591 55.2727273,87.2727273 L55.2727273,86.5454545 C55.2727273,86.2424227 55.1666677,85.9848495 54.9545455,85.7727273 C54.7424232,85.560605 54.48485,85.4545455 54.1818182,85.4545455 L50.5454545,85.4545455 C50.2424227,85.4545455 49.9848495,85.560605 49.7727273,85.7727273 C49.560605,85.9848495 49.4545455,86.2424227 49.4545455,86.5454545 L49.4545455,96.2386364 L52.3636364,92.6590909 C52.6969714,92.2575737 53.1363609,91.9261377 53.6818182,91.6647727 C54.2272755,91.4034078 54.7575732,91.2727273 55.2727273,91.2727273 L55.2727273,91.2727273 Z M69.6931818,93.125 C69.6931818,93.5946993 69.5189411,94.0492402 69.1704545,94.4886364 L65.8181818,98.6136364 C65.4924226,99.0151535 65.0530331,99.3465896 64.5,99.6079545 C63.9469669,99.8693195 63.4166692,100 62.9090909,100 L50.5454545,100 C49.8484814,100 49.2500025,99.7500025 48.75,99.25 C48.2499975,98.7499975 48,98.1515186 48,97.4545455 L48,86.5454545 C48,85.8484814 48.2499975,85.2500025 48.75,84.75 C49.2500025,84.2499975 49.8484814,84 50.5454545,84 L54.1818182,84 C54.8787914,84 55.4772702,84.2499975 55.9772727,84.75 C56.4772752,85.2500025 56.7272727,85.8484814 56.7272727,86.5454545 L56.7272727,86.9090909 L62.9090909,86.9090909 C63.6060641,86.9090909 64.204543,87.1590884 64.7045455,87.6590909 C65.204548,88.1590934 65.4545455,88.7575723 65.4545455,89.4545455 L65.4545455,91.2727273 L67.6363636,91.2727273 C68.0454566,91.2727273 68.4204528,91.3655294 68.7613636,91.5511364 C69.1022744,91.7367434 69.3560598,92.0037861 69.5227273,92.3522727 C69.6363642,92.5946982 69.6931818,92.8522714 69.6931818,93.125 L69.6931818,93.125 Z" id="-copy-5" fill="#4A4A4A"></path>
                <path d="M107.249512,118.55127 C106.22965,118.55127 105.424563,118.890866 104.834229,119.570068 C104.243894,120.249271 103.94873,121.179193 103.94873,122.359863 C103.94873,123.574388 104.233314,124.512773 104.80249,125.175049 C105.371666,125.837324 106.1831,126.168457 107.236816,126.168457 C107.884281,126.168457 108.622717,126.052084 109.452148,125.819336 L109.452148,126.765137 C108.808916,127.006349 108.015467,127.126953 107.071777,127.126953 C105.704909,127.126953 104.65015,126.712244 103.907471,125.882812 C103.164791,125.053381 102.793457,123.874845 102.793457,122.347168 C102.793457,121.390783 102.972248,120.552901 103.329834,119.833496 C103.68742,119.114091 104.203691,118.559735 104.878662,118.17041 C105.553633,117.781085 106.34814,117.586426 107.262207,117.586426 C108.235519,117.586426 109.086097,117.764158 109.813965,118.119629 L109.356934,119.046387 C108.654456,118.716307 107.951989,118.55127 107.249512,118.55127 L107.249512,118.55127 Z M115.59668,127 L115.387207,126.009766 L115.336426,126.009766 C114.989419,126.44564 114.643475,126.740803 114.298584,126.895264 C113.953693,127.049724 113.523115,127.126953 113.006836,127.126953 C112.317054,127.126953 111.776451,126.949221 111.38501,126.59375 C110.993569,126.238279 110.797852,125.732588 110.797852,125.07666 C110.797852,123.671705 111.921375,122.935384 114.168457,122.867676 L115.349121,122.82959 L115.349121,122.397949 C115.349121,121.852048 115.231691,121.448976 114.996826,121.188721 C114.761962,120.928465 114.386396,120.79834 113.870117,120.79834 C113.290362,120.79834 112.634444,120.976072 111.902344,121.331543 L111.578613,120.525391 C111.921388,120.339192 112.296954,120.193197 112.705322,120.087402 C113.11369,119.981608 113.52311,119.928711 113.933594,119.928711 C114.763025,119.928711 115.377684,120.112791 115.777588,120.480957 C116.177492,120.849123 116.377441,121.439449 116.377441,122.251953 L116.377441,127 L115.59668,127 Z M113.216309,126.257324 C113.872236,126.257324 114.387449,126.077476 114.761963,125.717773 C115.136476,125.358071 115.32373,124.854495 115.32373,124.207031 L115.32373,123.578613 L114.27002,123.623047 C113.432125,123.652669 112.828045,123.782795 112.457764,124.013428 C112.087482,124.24406 111.902344,124.602699 111.902344,125.089355 C111.902344,125.470217 112.017658,125.76009 112.248291,125.958984 C112.478924,126.157879 112.801593,126.257324 113.216309,126.257324 L113.216309,126.257324 Z M120.79541,126.257324 C120.981609,126.257324 121.161457,126.243571 121.334961,126.216064 C121.508464,126.188558 121.645996,126.159994 121.747559,126.130371 L121.747559,126.936523 C121.6333,126.991537 121.465089,127.037028 121.24292,127.072998 C121.020751,127.108968 120.820802,127.126953 120.643066,127.126953 C119.297357,127.126953 118.624512,126.418139 118.624512,125.000488 L118.624512,120.861816 L117.62793,120.861816 L117.62793,120.354004 L118.624512,119.916016 L119.068848,118.430664 L119.678223,118.430664 L119.678223,120.042969 L121.696777,120.042969 L121.696777,120.861816 L119.678223,120.861816 L119.678223,124.956055 C119.678223,125.375002 119.777668,125.696613 119.976562,125.920898 C120.175457,126.145183 120.448403,126.257324 120.79541,126.257324 L120.79541,126.257324 Z M126.07666,127.126953 C125.048335,127.126953 124.236901,126.813805 123.642334,126.1875 C123.047767,125.561195 122.750488,124.691575 122.750488,123.578613 C122.750488,122.457188 123.026609,121.56641 123.578857,120.90625 C124.131106,120.24609 124.872717,119.916016 125.803711,119.916016 C126.67546,119.916016 127.365232,120.202715 127.873047,120.776123 C128.380862,121.349531 128.634766,122.105952 128.634766,123.04541 L128.634766,123.711914 L123.842285,123.711914 C123.863444,124.52865 124.069741,125.148598 124.461182,125.571777 C124.852622,125.994957 125.403805,126.206543 126.114746,126.206543 C126.863773,126.206543 127.604326,126.049969 128.336426,125.736816 L128.336426,126.67627 C127.964028,126.837078 127.611737,126.952392 127.279541,127.022217 C126.947345,127.092041 126.546389,127.126953 126.07666,127.126953 L126.07666,127.126953 Z M125.791016,120.79834 C125.232419,120.79834 124.78703,120.980304 124.454834,121.344238 C124.122638,121.708172 123.926921,122.211748 123.867676,122.85498 L127.504883,122.85498 C127.504883,122.190589 127.356772,121.681724 127.060547,121.328369 C126.764321,120.975015 126.341149,120.79834 125.791016,120.79834 L125.791016,120.79834 Z M136.125,120.042969 L136.125,120.709473 L134.836426,120.861816 C134.954916,121.009929 135.060709,121.203531 135.153809,121.442627 C135.246908,121.681723 135.293457,121.951496 135.293457,122.251953 C135.293457,122.933272 135.060712,123.477049 134.595215,123.883301 C134.129718,124.289553 133.490727,124.492676 132.678223,124.492676 C132.470865,124.492676 132.276205,124.475749 132.094238,124.441895 C131.645668,124.678875 131.421387,124.977212 131.421387,125.336914 C131.421387,125.527345 131.499674,125.66805 131.65625,125.759033 C131.812826,125.850017 132.081541,125.895508 132.462402,125.895508 L133.693848,125.895508 C134.447107,125.895508 135.025796,126.054198 135.429932,126.371582 C135.834068,126.688966 136.036133,127.150225 136.036133,127.755371 C136.036133,128.525557 135.727217,129.11271 135.109375,129.516846 C134.491533,129.920982 133.590175,130.123047 132.405273,130.123047 C131.495438,130.123047 130.794029,129.953778 130.301025,129.615234 C129.808022,129.276691 129.561523,128.798506 129.561523,128.180664 C129.561523,127.757485 129.696939,127.39144 129.967773,127.08252 C130.238608,126.773599 130.619464,126.564128 131.110352,126.454102 C130.932616,126.373698 130.783448,126.248862 130.662842,126.07959 C130.542236,125.910318 130.481934,125.713543 130.481934,125.489258 C130.481934,125.23535 130.549641,125.013185 130.685059,124.822754 C130.820476,124.632323 131.034178,124.448243 131.326172,124.270508 C130.96647,124.122395 130.673422,123.870607 130.447021,123.515137 C130.220621,123.159666 130.107422,122.75342 130.107422,122.296387 C130.107422,121.534664 130.335935,120.947512 130.792969,120.534912 C131.250002,120.122312 131.897457,119.916016 132.735352,119.916016 C133.099286,119.916016 133.427245,119.958333 133.719238,120.042969 L136.125,120.042969 Z M130.577148,128.167969 C130.577148,128.544598 130.735838,128.83024 131.053223,129.024902 C131.370607,129.219565 131.825518,129.316895 132.417969,129.316895 C133.302413,129.316895 133.957273,129.184653 134.382568,128.920166 C134.807863,128.655679 135.020508,128.29704 135.020508,127.844238 C135.020508,127.467609 134.904135,127.2063 134.671387,127.060303 C134.438638,126.914306 134.000654,126.841309 133.357422,126.841309 L132.094238,126.841309 C131.616046,126.841309 131.243654,126.955565 130.977051,127.184082 C130.710448,127.412599 130.577148,127.740558 130.577148,128.167969 L130.577148,128.167969 Z M131.148438,122.270996 C131.148438,122.757652 131.285969,123.125813 131.561035,123.375488 C131.836102,123.625164 132.219073,123.75 132.709961,123.75 C133.738286,123.75 134.252441,123.250656 134.252441,122.251953 C134.252441,121.206701 133.731939,120.684082 132.690918,120.684082 C132.195798,120.684082 131.814943,120.817381 131.54834,121.083984 C131.281737,121.350587 131.148438,121.746254 131.148438,122.270996 L131.148438,122.270996 Z M143.558105,123.515137 C143.558105,124.649257 143.272464,125.534746 142.701172,126.171631 C142.12988,126.808516 141.340663,127.126953 140.333496,127.126953 C139.711423,127.126953 139.159182,126.980958 138.676758,126.688965 C138.194334,126.396971 137.821941,125.97803 137.55957,125.432129 C137.297199,124.886228 137.166016,124.247237 137.166016,123.515137 C137.166016,122.381016 137.449541,121.497643 138.016602,120.86499 C138.583662,120.232337 139.370763,119.916016 140.37793,119.916016 C141.351242,119.916016 142.12459,120.239743 142.697998,120.887207 C143.271406,121.534671 143.558105,122.410639 143.558105,123.515137 L143.558105,123.515137 Z M138.257812,123.515137 C138.257812,124.403813 138.435545,125.08089 138.791016,125.546387 C139.146486,126.011884 139.669105,126.244629 140.358887,126.244629 C141.048669,126.244629 141.572345,126.012942 141.929932,125.549561 C142.287518,125.086179 142.466309,124.408045 142.466309,123.515137 C142.466309,122.630692 142.287518,121.958905 141.929932,121.499756 C141.572345,121.040606 141.044437,120.811035 140.346191,120.811035 C139.656409,120.811035 139.135907,121.037433 138.784668,121.490234 C138.433429,121.943036 138.257812,122.617997 138.257812,123.515137 L138.257812,123.515137 Z M148.579102,119.916016 C148.888022,119.916016 149.165201,119.941406 149.410645,119.992188 L149.264648,120.969727 C148.976887,120.90625 148.722983,120.874512 148.50293,120.874512 C147.940101,120.874512 147.458742,121.103025 147.058838,121.560059 C146.658934,122.017092 146.458984,122.58626 146.458984,123.267578 L146.458984,127 L145.405273,127 L145.405273,120.042969 L146.274902,120.042969 L146.395508,121.331543 L146.446289,121.331543 C146.704428,120.878741 147.01546,120.529624 147.379395,120.28418 C147.743329,120.038736 148.143227,119.916016 148.579102,119.916016 L148.579102,119.916016 Z M149.607422,120.042969 L150.737305,120.042969 L152.260742,124.010254 C152.595054,124.915857 152.802408,125.569659 152.882812,125.97168 L152.933594,125.97168 C152.988607,125.755858 153.103922,125.38664 153.279541,124.864014 C153.45516,124.341387 154.029618,122.734388 155.00293,120.042969 L156.132812,120.042969 L153.143066,127.964844 C152.846841,128.747725 152.500897,129.30314 152.105225,129.631104 C151.709552,129.959067 151.223961,130.123047 150.648438,130.123047 C150.326821,130.123047 150.009442,130.087077 149.696289,130.015137 L149.696289,129.170898 C149.929038,129.22168 150.189289,129.24707 150.477051,129.24707 C151.200687,129.24707 151.716958,128.840824 152.025879,128.02832 L152.413086,127.038086 L149.607422,120.042969 Z M166.695312,124.867188 L165.317871,124.867188 L165.317871,127 L164.308594,127 L164.308594,124.867188 L159.79541,124.867188 L159.79541,123.946777 L164.200684,117.668945 L165.317871,117.668945 L165.317871,123.908691 L166.695312,123.908691 L166.695312,124.867188 Z M164.308594,123.908691 L164.308594,120.82373 C164.308594,120.218584 164.329752,119.53516 164.37207,118.773438 L164.321289,118.773438 C164.118163,119.17969 163.927735,119.516112 163.75,119.782715 L160.849121,123.908691 L164.308594,123.908691 Z" id="Category-4-Copy-3" fill="#1A1A1A"></path>
                <path d="M91.2386364,123.125 C91.2386364,122.859847 91.0378808,122.727273 90.6363636,122.727273 L78.2727273,122.727273 C77.9696955,122.727273 77.6458351,122.808711 77.3011364,122.971591 C76.9564377,123.134471 76.685607,123.333332 76.4886364,123.568182 L73.1477273,127.693182 C73.011363,127.875001 72.9431818,128.026515 72.9431818,128.147727 C72.9431818,128.41288 73.1439374,128.545455 73.5454545,128.545455 L85.9090909,128.545455 C86.2121227,128.545455 86.537877,128.462122 86.8863636,128.295455 C87.2348502,128.128787 87.5037869,127.928031 87.6931818,127.693182 L91.0340909,123.568182 C91.1704552,123.401514 91.2386364,123.253789 91.2386364,123.125 L91.2386364,123.125 Z M78.2727273,121.272727 L87,121.272727 L87,119.454545 C87,119.151514 86.8939405,118.89394 86.6818182,118.681818 C86.4696959,118.469696 86.2121227,118.363636 85.9090909,118.363636 L79.3636364,118.363636 C79.0606045,118.363636 78.8030314,118.257577 78.5909091,118.045455 C78.3787868,117.833332 78.2727273,117.575759 78.2727273,117.272727 L78.2727273,116.545455 C78.2727273,116.242423 78.1666677,115.98485 77.9545455,115.772727 C77.7424232,115.560605 77.48485,115.454545 77.1818182,115.454545 L73.5454545,115.454545 C73.2424227,115.454545 72.9848495,115.560605 72.7727273,115.772727 C72.560605,115.98485 72.4545455,116.242423 72.4545455,116.545455 L72.4545455,126.238636 L75.3636364,122.659091 C75.6969714,122.257574 76.1363609,121.926138 76.6818182,121.664773 C77.2272755,121.403408 77.7575732,121.272727 78.2727273,121.272727 L78.2727273,121.272727 Z M92.6931818,123.125 C92.6931818,123.594699 92.5189411,124.04924 92.1704545,124.488636 L88.8181818,128.613636 C88.4924226,129.015154 88.0530331,129.34659 87.5,129.607955 C86.9469669,129.869319 86.4166692,130 85.9090909,130 L73.5454545,130 C72.8484814,130 72.2500025,129.750002 71.75,129.25 C71.2499975,128.749997 71,128.151519 71,127.454545 L71,116.545455 C71,115.848481 71.2499975,115.250002 71.75,114.75 C72.2500025,114.249997 72.8484814,114 73.5454545,114 L77.1818182,114 C77.8787914,114 78.4772702,114.249997 78.9772727,114.75 C79.4772752,115.250002 79.7272727,115.848481 79.7272727,116.545455 L79.7272727,116.909091 L85.9090909,116.909091 C86.6060641,116.909091 87.204543,117.159088 87.7045455,117.659091 C88.204548,118.159093 88.4545455,118.757572 88.4545455,119.454545 L88.4545455,121.272727 L90.6363636,121.272727 C91.0454566,121.272727 91.4204528,121.365529 91.7613636,121.551136 C92.1022744,121.736743 92.3560598,122.003786 92.5227273,122.352273 C92.6363642,122.594698 92.6931818,122.852271 92.6931818,123.125 L92.6931818,123.125 Z" id="-copy-6" fill="#4A4A4A"></path>
                <path d="M35.6666667,32.5833333 L35.6666667,31.4166667 C35.6666667,31.2586798 35.6089415,31.1219624 35.4934896,31.0065104 C35.3780376,30.8910585 35.2413202,30.8333333 35.0833333,30.8333333 L32.1666667,30.8333333 L32.1666667,27.9166667 C32.1666667,27.7586798 32.1089415,27.6219624 31.9934896,27.5065104 C31.8780376,27.3910585 31.7413202,27.3333333 31.5833333,27.3333333 L30.4166667,27.3333333 C30.2586798,27.3333333 30.1219624,27.3910585 30.0065104,27.5065104 C29.8910585,27.6219624 29.8333333,27.7586798 29.8333333,27.9166667 L29.8333333,30.8333333 L26.9166667,30.8333333 C26.7586798,30.8333333 26.6219624,30.8910585 26.5065104,31.0065104 C26.3910585,31.1219624 26.3333333,31.2586798 26.3333333,31.4166667 L26.3333333,32.5833333 C26.3333333,32.7413202 26.3910585,32.8780376 26.5065104,32.9934896 C26.6219624,33.1089415 26.7586798,33.1666667 26.9166667,33.1666667 L29.8333333,33.1666667 L29.8333333,36.0833333 C29.8333333,36.2413202 29.8910585,36.3780376 30.0065104,36.4934896 C30.1219624,36.6089415 30.2586798,36.6666667 30.4166667,36.6666667 L31.5833333,36.6666667 C31.7413202,36.6666667 31.8780376,36.6089415 31.9934896,36.4934896 C32.1089415,36.3780376 32.1666667,36.2413202 32.1666667,36.0833333 L32.1666667,33.1666667 L35.0833333,33.1666667 C35.2413202,33.1666667 35.3780376,33.1089415 35.4934896,32.9934896 C35.6089415,32.8780376 35.6666667,32.7413202 35.6666667,32.5833333 L35.6666667,32.5833333 Z M38,27.625 L38,36.375 C38,37.0980939 37.7432751,37.7163603 37.2298177,38.2298177 C36.7163603,38.7432751 36.0980939,39 35.375,39 L26.625,39 C25.9019061,39 25.2836397,38.7432751 24.7701823,38.2298177 C24.2567249,37.7163603 24,37.0980939 24,36.375 L24,27.625 C24,26.9019061 24.2567249,26.2836397 24.7701823,25.7701823 C25.2836397,25.2567249 25.9019061,25 26.625,25 L35.375,25 C36.0980939,25 36.7163603,25.2567249 37.2298177,25.7701823 C37.7432751,26.2836397 38,26.9019061 38,27.625 L38,27.625 Z" id="-copy" fill="#4A4A4A"></path>
                <path d="M35.6666667,62.5833333 L35.6666667,61.4166667 C35.6666667,61.2586798 35.6089415,61.1219624 35.4934896,61.0065104 C35.3780376,60.8910585 35.2413202,60.8333333 35.0833333,60.8333333 L32.1666667,60.8333333 L32.1666667,57.9166667 C32.1666667,57.7586798 32.1089415,57.6219624 31.9934896,57.5065104 C31.8780376,57.3910585 31.7413202,57.3333333 31.5833333,57.3333333 L30.4166667,57.3333333 C30.2586798,57.3333333 30.1219624,57.3910585 30.0065104,57.5065104 C29.8910585,57.6219624 29.8333333,57.7586798 29.8333333,57.9166667 L29.8333333,60.8333333 L26.9166667,60.8333333 C26.7586798,60.8333333 26.6219624,60.8910585 26.5065104,61.0065104 C26.3910585,61.1219624 26.3333333,61.2586798 26.3333333,61.4166667 L26.3333333,62.5833333 C26.3333333,62.7413202 26.3910585,62.8780376 26.5065104,62.9934896 C26.6219624,63.1089415 26.7586798,63.1666667 26.9166667,63.1666667 L29.8333333,63.1666667 L29.8333333,66.0833333 C29.8333333,66.2413202 29.8910585,66.3780376 30.0065104,66.4934896 C30.1219624,66.6089415 30.2586798,66.6666667 30.4166667,66.6666667 L31.5833333,66.6666667 C31.7413202,66.6666667 31.8780376,66.6089415 31.9934896,66.4934896 C32.1089415,66.3780376 32.1666667,66.2413202 32.1666667,66.0833333 L32.1666667,63.1666667 L35.0833333,63.1666667 C35.2413202,63.1666667 35.3780376,63.1089415 35.4934896,62.9934896 C35.6089415,62.8780376 35.6666667,62.7413202 35.6666667,62.5833333 L35.6666667,62.5833333 Z M38,57.625 L38,66.375 C38,67.0980939 37.7432751,67.7163603 37.2298177,68.2298177 C36.7163603,68.7432751 36.0980939,69 35.375,69 L26.625,69 C25.9019061,69 25.2836397,68.7432751 24.7701823,68.2298177 C24.2567249,67.7163603 24,67.0980939 24,66.375 L24,57.625 C24,56.9019061 24.2567249,56.2836397 24.7701823,55.7701823 C25.2836397,55.2567249 25.9019061,55 26.625,55 L35.375,55 C36.0980939,55 36.7163603,55.2567249 37.2298177,55.7701823 C37.7432751,56.2836397 38,56.9019061 38,57.625 L38,57.625 Z" id="-copy-2" fill="#4A4A4A"></path>
                <path d="M58.6666667,122.583333 L58.6666667,121.416667 C58.6666667,121.25868 58.6089415,121.121962 58.4934896,121.00651 C58.3780376,120.891058 58.2413202,120.833333 58.0833333,120.833333 L49.9166667,120.833333 C49.7586798,120.833333 49.6219624,120.891058 49.5065104,121.00651 C49.3910585,121.121962 49.3333333,121.25868 49.3333333,121.416667 L49.3333333,122.583333 C49.3333333,122.74132 49.3910585,122.878038 49.5065104,122.99349 C49.6219624,123.108942 49.7586798,123.166667 49.9166667,123.166667 L58.0833333,123.166667 C58.2413202,123.166667 58.3780376,123.108942 58.4934896,122.99349 C58.6089415,122.878038 58.6666667,122.74132 58.6666667,122.583333 L58.6666667,122.583333 Z M61,117.625 L61,126.375 C61,127.098094 60.7432751,127.71636 60.2298177,128.229818 C59.7163603,128.743275 59.0980939,129 58.375,129 L49.625,129 C48.9019061,129 48.2836397,128.743275 47.7701823,128.229818 C47.2567249,127.71636 47,127.098094 47,126.375 L47,117.625 C47,116.901906 47.2567249,116.28364 47.7701823,115.770182 C48.2836397,115.256725 48.9019061,115 49.625,115 L58.375,115 C59.0980939,115 59.7163603,115.256725 60.2298177,115.770182 C60.7432751,116.28364 61,116.901906 61,117.625 L61,117.625 Z" id="-copy-4" fill="#4A4A4A"></path>
                <path d="M35.6666667,92.5833333 L35.6666667,91.4166667 C35.6666667,91.2586798 35.6089415,91.1219624 35.4934896,91.0065104 C35.3780376,90.8910585 35.2413202,90.8333333 35.0833333,90.8333333 L26.9166667,90.8333333 C26.7586798,90.8333333 26.6219624,90.8910585 26.5065104,91.0065104 C26.3910585,91.1219624 26.3333333,91.2586798 26.3333333,91.4166667 L26.3333333,92.5833333 C26.3333333,92.7413202 26.3910585,92.8780376 26.5065104,92.9934896 C26.6219624,93.1089415 26.7586798,93.1666667 26.9166667,93.1666667 L35.0833333,93.1666667 C35.2413202,93.1666667 35.3780376,93.1089415 35.4934896,92.9934896 C35.6089415,92.8780376 35.6666667,92.7413202 35.6666667,92.5833333 L35.6666667,92.5833333 Z M38,87.625 L38,96.375 C38,97.0980939 37.7432751,97.7163603 37.2298177,98.2298177 C36.7163603,98.7432751 36.0980939,99 35.375,99 L26.625,99 C25.9019061,99 25.2836397,98.7432751 24.7701823,98.2298177 C24.2567249,97.7163603 24,97.0980939 24,96.375 L24,87.625 C24,86.9019061 24.2567249,86.2836397 24.7701823,85.7701823 C25.2836397,85.2567249 25.9019061,85 26.625,85 L35.375,85 C36.0980939,85 36.7163603,85.2567249 37.2298177,85.7701823 C37.7432751,86.2836397 38,86.9019061 38,87.625 L38,87.625 Z" id="-copy-5" fill="#4A4A4A"></path>
            </g>
        </g>
    </g>
</svg>