<?xml version="1.0" encoding="UTF-8" standalone="no"?>
<svg width="248px" height="288px" viewBox="0 0 248 288" version="1.1" xmlns="http://www.w3.org/2000/svg" xmlns:xlink="http://www.w3.org/1999/xlink">
    <!-- Generator: Sketch 40.2 (33826) - http://www.bohemiancoding.com/sketch -->
    <title>list-wht</title>
    <desc>Created with Sketch.</desc>
    <defs></defs>
    <g id="Components" stroke="none" stroke-width="1" fill="none" fill-rule="evenodd">
        <g id="Icons" transform="translate(-620.000000, -1012.000000)">
            <g id="list-wht" transform="translate(620.000000, 1012.000000)">
                <rect id="Rectangle-13-Copy-10" fill="#FFFFFF" x="0" y="0" width="248" height="288"></rect>
                <rect id="Rectangle-13-Copy-10" fill-opacity="0.2" fill="#0A8CC6" x="0" y="138" width="248" height="32"></rect>
                <path d="M56.4545455,38.4545455 L56.4545455,30.4545455 C56.4545455,30.1515136 56.3484859,29.8939405 56.1363636,29.6818182 C55.9242414,29.4696959 55.6666682,29.3636364 55.3636364,29.3636364 L47.3636364,29.3636364 C47.0606045,29.3636364 46.8030314,29.2575768 46.5909091,29.0454545 C46.3787868,28.8333323 46.2727273,28.5757591 46.2727273,28.2727273 L46.2727273,27.5454545 C46.2727273,27.2424227 46.1666677,26.9848495 45.9545455,26.7727273 C45.7424232,26.560605 45.48485,26.4545455 45.1818182,26.4545455 L41.5454545,26.4545455 C41.2424227,26.4545455 40.9848495,26.560605 40.7727273,26.7727273 C40.560605,26.9848495 40.4545455,27.2424227 40.4545455,27.5454545 L40.4545455,38.4545455 C40.4545455,38.7575773 40.560605,39.0151505 40.7727273,39.2272727 C40.9848495,39.439395 41.2424227,39.5454545 41.5454545,39.5454545 L55.3636364,39.5454545 C55.6666682,39.5454545 55.9242414,39.439395 56.1363636,39.2272727 C56.3484859,39.0151505 56.4545455,38.7575773 56.4545455,38.4545455 L56.4545455,38.4545455 Z M57.9090909,30.4545455 L57.9090909,38.4545455 C57.9090909,39.1515186 57.6590934,39.7499975 57.1590909,40.25 C56.6590884,40.7500025 56.0606095,41 55.3636364,41 L41.5454545,41 C40.8484814,41 40.2500025,40.7500025 39.75,40.25 C39.2499975,39.7499975 39,39.1515186 39,38.4545455 L39,27.5454545 C39,26.8484814 39.2499975,26.2500025 39.75,25.75 C40.2500025,25.2499975 40.8484814,25 41.5454545,25 L45.1818182,25 C45.8787914,25 46.4772702,25.2499975 46.9772727,25.75 C47.4772752,26.2500025 47.7272727,26.8484814 47.7272727,27.5454545 L47.7272727,27.9090909 L55.3636364,27.9090909 C56.0606095,27.9090909 56.6590884,28.1590884 57.1590909,28.6590909 C57.6590934,29.1590934 57.9090909,29.7575723 57.9090909,30.4545455 L57.9090909,30.4545455 Z" id="-copy-5" fill="#4A4A4A"></path>
                <path d="M103.107143,149.392857 C103.27381,149.559525 103.416666,149.785713 103.535714,150.071429 C103.654762,150.357144 103.714286,150.619046 103.714286,150.857143 L103.714286,161.142857 C103.714286,161.380954 103.630953,161.583333 103.464286,161.75 C103.297618,161.916667 103.095239,162 102.857143,162 L90.8571429,162 C90.6190464,162 90.4166675,161.916667 90.25,161.75 C90.0833325,161.583333 90,161.380954 90,161.142857 L90,146.857143 C90,146.619046 90.0833325,146.416667 90.25,146.25 C90.4166675,146.083333 90.6190464,146 90.8571429,146 L98.8571429,146 C99.0952393,146 99.3571414,146.059523 99.6428571,146.178571 C99.9285729,146.29762 100.154761,146.440475 100.321429,146.607143 L103.107143,149.392857 Z M99.1428571,147.214286 L99.1428571,150.571429 L102.5,150.571429 C102.440476,150.398809 102.375,150.276786 102.303571,150.205357 L99.5089286,147.410714 C99.4374996,147.339285 99.3154771,147.27381 99.1428571,147.214286 L99.1428571,147.214286 Z M102.571429,160.857143 L102.571429,151.714286 L98.8571429,151.714286 C98.6190464,151.714286 98.4166675,151.630953 98.25,151.464286 C98.0833325,151.297618 98,151.095239 98,150.857143 L98,147.142857 L91.1428571,147.142857 L91.1428571,160.857143 L102.571429,160.857143 Z" id="-copy-7" fill="#4A4A4A"></path>
                <path d="M28.5,33 C28.5,33.1354173 28.4505213,33.2526037 28.3515625,33.3515625 L24.8515625,36.8515625 C24.7526037,36.9505213 24.6354173,37 24.5,37 C24.3645827,37 24.2473963,36.9505213 24.1484375,36.8515625 C24.0494787,36.7526037 24,36.6354173 24,36.5 L24,29.5 C24,29.3645827 24.0494787,29.2473963 24.1484375,29.1484375 C24.2473963,29.0494787 24.3645827,29 24.5,29 C24.6354173,29 24.7526037,29.0494787 24.8515625,29.1484375 L28.3515625,32.6484375 C28.4505213,32.7473963 28.5,32.8645827 28.5,33 L28.5,33 Z" id="-copy-14" fill="#4A4A4A"></path>
                <path d="M56.4545455,68.4545455 L56.4545455,60.4545455 C56.4545455,60.1515136 56.3484859,59.8939405 56.1363636,59.6818182 C55.9242414,59.4696959 55.6666682,59.3636364 55.3636364,59.3636364 L47.3636364,59.3636364 C47.0606045,59.3636364 46.8030314,59.2575768 46.5909091,59.0454545 C46.3787868,58.8333323 46.2727273,58.5757591 46.2727273,58.2727273 L46.2727273,57.5454545 C46.2727273,57.2424227 46.1666677,56.9848495 45.9545455,56.7727273 C45.7424232,56.560605 45.48485,56.4545455 45.1818182,56.4545455 L41.5454545,56.4545455 C41.2424227,56.4545455 40.9848495,56.560605 40.7727273,56.7727273 C40.560605,56.9848495 40.4545455,57.2424227 40.4545455,57.5454545 L40.4545455,68.4545455 C40.4545455,68.7575773 40.560605,69.0151505 40.7727273,69.2272727 C40.9848495,69.439395 41.2424227,69.5454545 41.5454545,69.5454545 L55.3636364,69.5454545 C55.6666682,69.5454545 55.9242414,69.439395 56.1363636,69.2272727 C56.3484859,69.0151505 56.4545455,68.7575773 56.4545455,68.4545455 L56.4545455,68.4545455 Z M57.9090909,60.4545455 L57.9090909,68.4545455 C57.9090909,69.1515186 57.6590934,69.7499975 57.1590909,70.25 C56.6590884,70.7500025 56.0606095,71 55.3636364,71 L41.5454545,71 C40.8484814,71 40.2500025,70.7500025 39.75,70.25 C39.2499975,69.7499975 39,69.1515186 39,68.4545455 L39,57.5454545 C39,56.8484814 39.2499975,56.2500025 39.75,55.75 C40.2500025,55.2499975 40.8484814,55 41.5454545,55 L45.1818182,55 C45.8787914,55 46.4772702,55.2499975 46.9772727,55.75 C47.4772752,56.2500025 47.7272727,56.8484814 47.7272727,57.5454545 L47.7272727,57.9090909 L55.3636364,57.9090909 C56.0606095,57.9090909 56.6590884,58.1590884 57.1590909,58.6590909 C57.6590934,59.1590934 57.9090909,59.7575723 57.9090909,60.4545455 L57.9090909,60.4545455 Z" id="-copy-6" fill="#4A4A4A"></path>
                <path d="M28.5,63 C28.5,63.1354173 28.4505213,63.2526037 28.3515625,63.3515625 L24.8515625,66.8515625 C24.7526037,66.9505213 24.6354173,67 24.5,67 C24.3645827,67 24.2473963,66.9505213 24.1484375,66.8515625 C24.0494787,66.7526037 24,66.6354173 24,66.5 L24,59.5 C24,59.3645827 24.0494787,59.2473963 24.1484375,59.1484375 C24.2473963,59.0494787 24.3645827,59 24.5,59 C24.6354173,59 24.7526037,59.0494787 24.8515625,59.1484375 L28.3515625,62.6484375 C28.4505213,62.7473963 28.5,62.8645827 28.5,63 L28.5,63 Z" id="-copy-15" fill="#4A4A4A"></path>
                <path d="M29.25,93.25 C29.25,93.3854173 29.2005213,93.5026037 29.1015625,93.6015625 L25.6015625,97.1015625 C25.5026037,97.2005213 25.3854173,97.25 25.25,97.25 C25.1145827,97.25 24.9973963,97.2005213 24.8984375,97.1015625 C24.7994787,97.0026037 24.75,96.8854173 24.75,96.75 L24.75,89.75 C24.75,89.6145827 24.7994787,89.4973963 24.8984375,89.3984375 C24.9973963,89.2994787 25.1145827,89.25 25.25,89.25 C25.3854173,89.25 25.5026037,89.2994787 25.6015625,89.3984375 L29.1015625,92.8984375 C29.2005213,92.9973963 29.25,93.1145827 29.25,93.25 L29.25,93.25 Z" id="-copy-16" fill="#4A4A4A" transform="translate(27.000000, 93.250000) rotate(-270.000000) translate(-27.000000, -93.250000) "></path>
                <text id="Category-1-Copy-3" font-family="OpenSans, Open Sans" font-size="13" font-weight="normal" fill="#4A4A4A">
                    <tspan x="70" y="38">Category 1</tspan>
                </text>
                <text id="Category-2-Copy-3" font-family="OpenSans, Open Sans" font-size="13" font-weight="normal" fill="#4A4A4A">
                    <tspan x="70" y="68">Category 2</tspan>
                </text>
                <text id="Category-3-Copy-3" font-family="OpenSans, Open Sans" font-size="13" font-weight="normal" fill="#4A4A4A">
                    <tspan x="70" y="98">Category 3</tspan>
                </text>
                <text id="Item-1-Copy-4" font-family="OpenSans, Open Sans" font-size="13" font-weight="normal" fill="#4A4A4A">
                    <tspan x="116" y="160">Item 1</tspan>
                </text>
                <path d="M103.107143,179.392857 C103.27381,179.559525 103.416666,179.785713 103.535714,180.071429 C103.654762,180.357144 103.714286,180.619046 103.714286,180.857143 L103.714286,191.142857 C103.714286,191.380954 103.630953,191.583333 103.464286,191.75 C103.297618,191.916667 103.095239,192 102.857143,192 L90.8571429,192 C90.6190464,192 90.4166675,191.916667 90.25,191.75 C90.0833325,191.583333 90,191.380954 90,191.142857 L90,176.857143 C90,176.619046 90.0833325,176.416667 90.25,176.25 C90.4166675,176.083333 90.6190464,176 90.8571429,176 L98.8571429,176 C99.0952393,176 99.3571414,176.059523 99.6428571,176.178571 C99.9285729,176.29762 100.154761,176.440475 100.321429,176.607143 L103.107143,179.392857 Z M99.1428571,177.214286 L99.1428571,180.571429 L102.5,180.571429 C102.440476,180.398809 102.375,180.276786 102.303571,180.205357 L99.5089286,177.410714 C99.4374996,177.339285 99.3154771,177.27381 99.1428571,177.214286 L99.1428571,177.214286 Z M102.571429,190.857143 L102.571429,181.714286 L98.8571429,181.714286 C98.6190464,181.714286 98.4166675,181.630953 98.25,181.464286 C98.0833325,181.297618 98,181.095239 98,180.857143 L98,177.142857 L91.1428571,177.142857 L91.1428571,190.857143 L102.571429,190.857143 Z" id="-copy-8" fill="#4A4A4A"></path>
                <text id="Item-2-Copy-5" font-family="OpenSans, Open Sans" font-size="13" font-weight="normal" fill="#4A4A4A">
                    <tspan x="116" y="190">Item 2</tspan>
                </text>
                <path d="M103.107143,209.392857 C103.27381,209.559525 103.416666,209.785713 103.535714,210.071429 C103.654762,210.357144 103.714286,210.619046 103.714286,210.857143 L103.714286,221.142857 C103.714286,221.380954 103.630953,221.583333 103.464286,221.75 C103.297618,221.916667 103.095239,222 102.857143,222 L90.8571429,222 C90.6190464,222 90.4166675,221.916667 90.25,221.75 C90.0833325,221.583333 90,221.380954 90,221.142857 L90,206.857143 C90,206.619046 90.0833325,206.416667 90.25,206.25 C90.4166675,206.083333 90.6190464,206 90.8571429,206 L98.8571429,206 C99.0952393,206 99.3571414,206.059523 99.6428571,206.178571 C99.9285729,206.29762 100.154761,206.440475 100.321429,206.607143 L103.107143,209.392857 Z M99.1428571,207.214286 L99.1428571,210.571429 L102.5,210.571429 C102.440476,210.398809 102.375,210.276786 102.303571,210.205357 L99.5089286,207.410714 C99.4374996,207.339285 99.3154771,207.27381 99.1428571,207.214286 L99.1428571,207.214286 Z M102.571429,220.857143 L102.571429,211.714286 L98.8571429,211.714286 C98.6190464,211.714286 98.4166675,211.630953 98.25,211.464286 C98.0833325,211.297618 98,211.095239 98,210.857143 L98,207.142857 L91.1428571,207.142857 L91.1428571,220.857143 L102.571429,220.857143 Z" id="-copy-9" fill="#4A4A4A"></path>
                <text id="Item-3-Copy-5" font-family="OpenSans, Open Sans" font-size="13" font-weight="normal" fill="#4A4A4A">
                    <tspan x="116" y="220">Item 3</tspan>
                </text>
                <path d="M59.2386364,94.125 C59.2386364,93.8598472 59.0378808,93.7272727 58.6363636,93.7272727 L46.2727273,93.7272727 C45.9696955,93.7272727 45.6458351,93.8087113 45.3011364,93.9715909 C44.9564377,94.1344705 44.685607,94.3333322 44.4886364,94.5681818 L41.1477273,98.6931818 C41.011363,98.8750009 40.9431818,99.0265145 40.9431818,99.1477273 C40.9431818,99.4128801 41.1439374,99.5454545 41.5454545,99.5454545 L53.9090909,99.5454545 C54.2121227,99.5454545 54.537877,99.462122 54.8863636,99.2954545 C55.2348502,99.128787 55.5037869,98.9280315 55.6931818,98.6931818 L59.0340909,94.5681818 C59.1704552,94.4015143 59.2386364,94.2537885 59.2386364,94.125 L59.2386364,94.125 Z M46.2727273,92.2727273 L55,92.2727273 L55,90.4545455 C55,90.1515136 54.8939405,89.8939405 54.6818182,89.6818182 C54.4696959,89.4696959 54.2121227,89.3636364 53.9090909,89.3636364 L47.3636364,89.3636364 C47.0606045,89.3636364 46.8030314,89.2575768 46.5909091,89.0454545 C46.3787868,88.8333323 46.2727273,88.5757591 46.2727273,88.2727273 L46.2727273,87.5454545 C46.2727273,87.2424227 46.1666677,86.9848495 45.9545455,86.7727273 C45.7424232,86.560605 45.48485,86.4545455 45.1818182,86.4545455 L41.5454545,86.4545455 C41.2424227,86.4545455 40.9848495,86.560605 40.7727273,86.7727273 C40.560605,86.9848495 40.4545455,87.2424227 40.4545455,87.5454545 L40.4545455,97.2386364 L43.3636364,93.6590909 C43.6969714,93.2575737 44.1363609,92.9261377 44.6818182,92.6647727 C45.2272755,92.4034078 45.7575732,92.2727273 46.2727273,92.2727273 L46.2727273,92.2727273 Z M60.6931818,94.125 C60.6931818,94.5946993 60.5189411,95.0492402 60.1704545,95.4886364 L56.8181818,99.6136364 C56.4924226,100.015154 56.0530331,100.34659 55.5,100.607955 C54.9469669,100.869319 54.4166692,101 53.9090909,101 L41.5454545,101 C40.8484814,101 40.2500025,100.750003 39.75,100.25 C39.2499975,99.7499975 39,99.1515186 39,98.4545455 L39,87.5454545 C39,86.8484814 39.2499975,86.2500025 39.75,85.75 C40.2500025,85.2499975 40.8484814,85 41.5454545,85 L45.1818182,85 C45.8787914,85 46.4772702,85.2499975 46.9772727,85.75 C47.4772752,86.2500025 47.7272727,86.8484814 47.7272727,87.5454545 L47.7272727,87.9090909 L53.9090909,87.9090909 C54.6060641,87.9090909 55.204543,88.1590884 55.7045455,88.6590909 C56.204548,89.1590934 56.4545455,89.7575723 56.4545455,90.4545455 L56.4545455,92.2727273 L58.6363636,92.2727273 C59.0454566,92.2727273 59.4204528,92.3655294 59.7613636,92.5511364 C60.1022744,92.7367434 60.3560598,93.0037861 60.5227273,93.3522727 C60.6363642,93.5946982 60.6931818,93.8522714 60.6931818,94.125 L60.6931818,94.125 Z" id="-copy-5" fill="#4A4A4A"></path>
                <path d="M52.25,123.25 C52.25,123.385417 52.2005213,123.502604 52.1015625,123.601563 L48.6015625,127.101563 C48.5026037,127.200521 48.3854173,127.25 48.25,127.25 C48.1145827,127.25 47.9973963,127.200521 47.8984375,127.101563 C47.7994787,127.002604 47.75,126.885417 47.75,126.75 L47.75,119.75 C47.75,119.614583 47.7994787,119.497396 47.8984375,119.398438 C47.9973963,119.299479 48.1145827,119.25 48.25,119.25 C48.3854173,119.25 48.5026037,119.299479 48.6015625,119.398438 L52.1015625,122.898438 C52.2005213,122.997396 52.25,123.114583 52.25,123.25 L52.25,123.25 Z" id="-copy-17" fill="#4A4A4A" transform="translate(50.000000, 123.250000) rotate(-270.000000) translate(-50.000000, -123.250000) "></path>
                <text id="Category-4-Copy-3" font-family="OpenSans, Open Sans" font-size="13" font-weight="normal" fill="#4A4A4A">
                    <tspan x="93" y="128">Category 4</tspan>
                </text>
                <path d="M82.2386364,124.125 C82.2386364,123.859847 82.0378808,123.727273 81.6363636,123.727273 L69.2727273,123.727273 C68.9696955,123.727273 68.6458351,123.808711 68.3011364,123.971591 C67.9564377,124.134471 67.685607,124.333332 67.4886364,124.568182 L64.1477273,128.693182 C64.011363,128.875001 63.9431818,129.026515 63.9431818,129.147727 C63.9431818,129.41288 64.1439374,129.545455 64.5454545,129.545455 L76.9090909,129.545455 C77.2121227,129.545455 77.537877,129.462122 77.8863636,129.295455 C78.2348502,129.128787 78.5037869,128.928031 78.6931818,128.693182 L82.0340909,124.568182 C82.1704552,124.401514 82.2386364,124.253789 82.2386364,124.125 L82.2386364,124.125 Z M69.2727273,122.272727 L78,122.272727 L78,120.454545 C78,120.151514 77.8939405,119.89394 77.6818182,119.681818 C77.4696959,119.469696 77.2121227,119.363636 76.9090909,119.363636 L70.3636364,119.363636 C70.0606045,119.363636 69.8030314,119.257577 69.5909091,119.045455 C69.3787868,118.833332 69.2727273,118.575759 69.2727273,118.272727 L69.2727273,117.545455 C69.2727273,117.242423 69.1666677,116.98485 68.9545455,116.772727 C68.7424232,116.560605 68.48485,116.454545 68.1818182,116.454545 L64.5454545,116.454545 C64.2424227,116.454545 63.9848495,116.560605 63.7727273,116.772727 C63.560605,116.98485 63.4545455,117.242423 63.4545455,117.545455 L63.4545455,127.238636 L66.3636364,123.659091 C66.6969714,123.257574 67.1363609,122.926138 67.6818182,122.664773 C68.2272755,122.403408 68.7575732,122.272727 69.2727273,122.272727 L69.2727273,122.272727 Z M83.6931818,124.125 C83.6931818,124.594699 83.5189411,125.04924 83.1704545,125.488636 L79.8181818,129.613636 C79.4924226,130.015154 79.0530331,130.34659 78.5,130.607955 C77.9469669,130.869319 77.4166692,131 76.9090909,131 L64.5454545,131 C63.8484814,131 63.2500025,130.750002 62.75,130.25 C62.2499975,129.749997 62,129.151519 62,128.454545 L62,117.545455 C62,116.848481 62.2499975,116.250002 62.75,115.75 C63.2500025,115.249997 63.8484814,115 64.5454545,115 L68.1818182,115 C68.8787914,115 69.4772702,115.249997 69.9772727,115.75 C70.4772752,116.250002 70.7272727,116.848481 70.7272727,117.545455 L70.7272727,117.909091 L76.9090909,117.909091 C77.6060641,117.909091 78.204543,118.159088 78.7045455,118.659091 C79.204548,119.159093 79.4545455,119.757572 79.4545455,120.454545 L79.4545455,122.272727 L81.6363636,122.272727 C82.0454566,122.272727 82.4204528,122.365529 82.7613636,122.551136 C83.1022744,122.736743 83.3560598,123.003786 83.5227273,123.352273 C83.6363642,123.594698 83.6931818,123.852271 83.6931818,124.125 L83.6931818,124.125 Z" id="-copy-6" fill="#4A4A4A"></path>
            </g>
        </g>
    </g>
</svg>