<?xml version="1.0" encoding="UTF-8" standalone="no"?>
<svg width="327px" height="128px" viewBox="0 0 327 128" version="1.1" xmlns="http://www.w3.org/2000/svg" xmlns:xlink="http://www.w3.org/1999/xlink">
    <!-- Generator: Sketch 40.2 (33826) - http://www.bohemiancoding.com/sketch -->
    <title>loading</title>
    <desc>Created with Sketch.</desc>
    <defs>
        <filter x="-50%" y="-50%" width="200%" height="200%" filterUnits="objectBoundingBox" id="filter-1">
            <feOffset dx="0" dy="2" in="SourceAlpha" result="shadowOffsetOuter1"></feOffset>
            <feGaussianBlur stdDeviation="2" in="shadowOffsetOuter1" result="shadowBlurOuter1"></feGaussianBlur>
            <feColorMatrix values="0 0 0 0 0   0 0 0 0 0   0 0 0 0 0  0 0 0 0.5 0" type="matrix" in="shadowBlurOuter1" result="shadowMatrixOuter1"></feColorMatrix>
            <feMerge>
                <feMergeNode in="shadowMatrixOuter1"></feMergeNode>
                <feMergeNode in="SourceGraphic"></feMergeNode>
            </feMerge>
        </filter>
        <polygon id="path-2" points="0 0 319 0 319 120 0 120"></polygon>
        <mask id="mask-3" maskContentUnits="userSpaceOnUse" maskUnits="objectBoundingBox" x="0" y="0" width="319" height="120" fill="white">
            <use xlink:href="#path-2"></use>
        </mask>
    </defs>
    <g id="Components" stroke="none" stroke-width="1" fill="none" fill-rule="evenodd">
        <g id="Dialogs" transform="translate(-320.000000, -1490.000000)">
            <g id="loading" transform="translate(324.000000, 1492.000000)">
                <g id="Message-Box" filter="url(#filter-1)">
                    <use id="Fill-20" stroke="#025B80" mask="url(#mask-3)" stroke-width="4" fill="#FFFFFF" xlink:href="#path-2"></use>
                    <polygon id="Fill-22" fill="#025B80" points="0 0 319 0 319 44 0 44"></polygon>
                </g>
                <path d="M23.1953125,14.578125 L23.1953125,21.96875 C23.1953125,23.2708398 22.8020873,24.2942671 22.015625,25.0390625 C21.2291627,25.7838579 20.1484444,26.15625 18.7734375,26.15625 C17.3984306,26.15625 16.3346392,25.7812537 15.5820312,25.03125 C14.8294233,24.2812462 14.453125,23.2500066 14.453125,21.9375 L14.453125,14.578125 L15.78125,14.578125 L15.78125,22.03125 C15.78125,22.9843798 16.0416641,23.7161433 16.5625,24.2265625 C17.0833359,24.7369817 17.8489533,24.9921875 18.859375,24.9921875 C19.8229215,24.9921875 20.5651016,24.7356796 21.0859375,24.2226562 C21.6067734,23.7096329 21.8671875,22.9739631 21.8671875,22.015625 L21.8671875,14.578125 L23.1953125,14.578125 Z M30.0078125,26.15625 C29.450518,26.15625 28.9414086,26.0533864 28.4804688,25.8476562 C28.0195289,25.6419261 27.6328141,25.325523 27.3203125,24.8984375 L27.2265625,24.8984375 C27.2890628,25.39844 27.3203125,25.8723936 27.3203125,26.3203125 L27.3203125,29.84375 L26.0234375,29.84375 L26.0234375,17.4375 L27.078125,17.4375 L27.2578125,18.609375 L27.3203125,18.609375 C27.6536475,18.1406227 28.0416645,17.8020844 28.484375,17.59375 C28.9270855,17.3854156 29.434893,17.28125 30.0078125,17.28125 C31.1432348,17.28125 32.0195282,17.669267 32.6367188,18.4453125 C33.2539093,19.221358 33.5625,20.3098888 33.5625,21.7109375 C33.5625,23.1171945 33.2487011,24.2096315 32.6210938,24.9882812 C31.9934864,25.766931 31.1224014,26.15625 30.0078125,26.15625 L30.0078125,26.15625 Z M29.8203125,18.3828125 C28.9453081,18.3828125 28.312502,18.6249976 27.921875,19.109375 C27.531248,19.5937524 27.3307292,20.364578 27.3203125,21.421875 L27.3203125,21.7109375 C27.3203125,22.9140685 27.5208313,23.774737 27.921875,24.2929688 C28.3229187,24.8112005 28.9661414,25.0703125 29.8515625,25.0703125 C30.5911495,25.0703125 31.1705708,24.7708363 31.5898438,24.171875 C32.0091167,23.5729137 32.21875,22.7474011 32.21875,21.6953125 C32.21875,20.6275988 32.0091167,19.8085966 31.5898438,19.2382812 C31.1705708,18.6679659 30.580733,18.3828125 29.8203125,18.3828125 L29.8203125,18.3828125 Z M37.125,26 L35.828125,26 L35.828125,13.84375 L37.125,13.84375 L37.125,26 Z M47.265625,21.7109375 C47.265625,23.1067778 46.914066,24.1966107 46.2109375,24.9804688 C45.507809,25.7643268 44.5364645,26.15625 43.296875,26.15625 C42.5312462,26.15625 41.8515655,25.9765643 41.2578125,25.6171875 C40.6640595,25.2578107 40.2057308,24.7421909 39.8828125,24.0703125 C39.5598942,23.3984341 39.3984375,22.6119837 39.3984375,21.7109375 C39.3984375,20.3150972 39.7473923,19.2278685 40.4453125,18.4492188 C41.1432327,17.670569 42.111973,17.28125 43.3515625,17.28125 C44.5494852,17.28125 45.5012986,17.6796835 46.2070312,18.4765625 C46.9127639,19.2734415 47.265625,20.3515557 47.265625,21.7109375 L47.265625,21.7109375 Z M40.7421875,21.7109375 C40.7421875,22.804693 40.9609353,23.638018 41.3984375,24.2109375 C41.8359397,24.783857 42.4791624,25.0703125 43.328125,25.0703125 C44.1770876,25.0703125 44.8216124,24.7851591 45.2617188,24.2148438 C45.7018251,23.6445284 45.921875,22.8099013 45.921875,21.7109375 C45.921875,20.6223904 45.7018251,19.7955757 45.2617188,19.2304688 C44.8216124,18.6653618 44.1718793,18.3828125 43.3125,18.3828125 C42.4635374,18.3828125 41.8229188,18.6614555 41.390625,19.21875 C40.9583312,19.7760445 40.7421875,20.6067653 40.7421875,21.7109375 L40.7421875,21.7109375 Z M54.8046875,26 L54.546875,24.78125 L54.484375,24.78125 C54.0572895,25.317711 53.6315125,25.6809886 53.2070312,25.8710938 C52.78255,26.0611989 52.2526073,26.15625 51.6171875,26.15625 C50.7682249,26.15625 50.102867,25.9375022 49.6210938,25.5 C49.1393205,25.0624978 48.8984375,24.4401082 48.8984375,23.6328125 C48.8984375,21.9036372 50.2812362,20.9973963 53.046875,20.9140625 L54.5,20.8671875 L54.5,20.3359375 C54.5,19.6640591 54.3554702,19.1679704 54.0664062,18.8476562 C53.7773423,18.5273421 53.3151073,18.3671875 52.6796875,18.3671875 C51.9661423,18.3671875 51.1588587,18.5859353 50.2578125,19.0234375 L49.859375,18.03125 C50.2812521,17.8020822 50.7434871,17.6223965 51.2460938,17.4921875 C51.7487004,17.3619785 52.2526016,17.296875 52.7578125,17.296875 C53.7786509,17.296875 54.5351538,17.5234352 55.0273438,17.9765625 C55.5195337,18.4296898 55.765625,19.156245 55.765625,20.15625 L55.765625,26 L54.8046875,26 Z M51.875,25.0859375 C52.6822957,25.0859375 53.3164039,24.8645855 53.7773438,24.421875 C54.2382836,23.9791645 54.46875,23.359379 54.46875,22.5625 L54.46875,21.7890625 L53.171875,21.84375 C52.1406198,21.8802085 51.3971377,22.0403632 50.9414062,22.3242188 C50.4856748,22.6080743 50.2578125,23.0494762 50.2578125,23.6484375 C50.2578125,24.1171898 50.3997382,24.4739571 50.6835938,24.71875 C50.9674493,24.9635429 51.3645808,25.0859375 51.875,25.0859375 L51.875,25.0859375 Z M64.265625,24.8515625 L64.1953125,24.8515625 C63.5963512,25.7213585 62.7005268,26.15625 61.5078125,26.15625 C60.3880152,26.15625 59.5169302,25.7734413 58.8945312,25.0078125 C58.2721323,24.2421837 57.9609375,23.1536529 57.9609375,21.7421875 C57.9609375,20.3307221 58.2734344,19.2343789 58.8984375,18.453125 C59.5234406,17.6718711 60.3932236,17.28125 61.5078125,17.28125 C62.6692766,17.28125 63.5598927,17.7031208 64.1796875,18.546875 L64.28125,18.546875 L64.2265625,17.9296875 L64.1953125,17.328125 L64.1953125,13.84375 L65.4921875,13.84375 L65.4921875,26 L64.4375,26 L64.265625,24.8515625 Z M61.671875,25.0703125 C62.5572961,25.0703125 63.1992168,24.8294295 63.5976562,24.3476562 C63.9960957,23.865883 64.1953125,23.088547 64.1953125,22.015625 L64.1953125,21.7421875 C64.1953125,20.5286398 63.9934916,19.662763 63.5898438,19.1445312 C63.1861959,18.6262995 62.5416711,18.3671875 61.65625,18.3671875 C60.8958295,18.3671875 60.3138041,18.6627575 59.9101562,19.2539062 C59.5065084,19.845055 59.3046875,20.6796821 59.3046875,21.7578125 C59.3046875,22.851568 59.5052063,23.6770805 59.90625,24.234375 C60.3072937,24.7916695 60.8958295,25.0703125 61.671875,25.0703125 L61.671875,25.0703125 Z M69.5390625,26 L68.2421875,26 L68.2421875,17.4375 L69.5390625,17.4375 L69.5390625,26 Z M68.1328125,15.1171875 C68.1328125,14.820311 68.2057284,14.6028653 68.3515625,14.4648438 C68.4973966,14.3268222 68.6796864,14.2578125 68.8984375,14.2578125 C69.1067719,14.2578125 69.2864576,14.3281243 69.4375,14.46875 C69.5885424,14.6093757 69.6640625,14.8255194 69.6640625,15.1171875 C69.6640625,15.4088556 69.5885424,15.6263014 69.4375,15.7695312 C69.2864576,15.9127611 69.1067719,15.984375 68.8984375,15.984375 C68.6796864,15.984375 68.4973966,15.9127611 68.3515625,15.7695312 C68.2057284,15.6263014 68.1328125,15.4088556 68.1328125,15.1171875 L68.1328125,15.1171875 Z M78.1484375,26 L78.1484375,20.4609375 C78.1484375,19.7630173 77.9895849,19.2421892 77.671875,18.8984375 C77.3541651,18.5546858 76.8567742,18.3828125 76.1796875,18.3828125 C75.2838497,18.3828125 74.6276062,18.6249976 74.2109375,19.109375 C73.7942688,19.5937524 73.5859375,20.3932236 73.5859375,21.5078125 L73.5859375,26 L72.2890625,26 L72.2890625,17.4375 L73.34375,17.4375 L73.5546875,18.609375 L73.6171875,18.609375 C73.8828138,18.1874979 74.2552059,17.8606782 74.734375,17.6289062 C75.2135441,17.3971343 75.7473929,17.28125 76.3359375,17.28125 C77.3671927,17.28125 78.1432266,17.5299454 78.6640625,18.0273438 C79.1848984,18.5247421 79.4453125,19.320307 79.4453125,20.4140625 L79.4453125,26 L78.1484375,26 Z M89.1171875,17.4375 L89.1171875,18.2578125 L87.53125,18.4453125 C87.6770841,18.6276051 87.8072911,18.8658839 87.921875,19.1601562 C88.0364589,19.4544286 88.09375,19.7864565 88.09375,20.15625 C88.09375,20.9947959 87.8072945,21.66406 87.234375,22.1640625 C86.6614555,22.664065 85.875005,22.9140625 84.875,22.9140625 C84.6197904,22.9140625 84.3802095,22.8932294 84.15625,22.8515625 C83.6041639,23.1432306 83.328125,23.5104145 83.328125,23.953125 C83.328125,24.1875012 83.4244782,24.3606765 83.6171875,24.4726562 C83.8098968,24.584636 84.1406227,24.640625 84.609375,24.640625 L86.125,24.640625 C87.052088,24.640625 87.7643204,24.8359355 88.2617188,25.2265625 C88.7591171,25.6171895 89.0078125,26.1848921 89.0078125,26.9296875 C89.0078125,27.8776089 88.627608,28.6002579 87.8671875,29.0976562 C87.106767,29.5950546 85.9974031,29.84375 84.5390625,29.84375 C83.4192652,29.84375 82.5559926,29.6354187 81.9492188,29.21875 C81.3424449,28.8020813 81.0390625,28.2135455 81.0390625,27.453125 C81.0390625,26.9322891 81.2057275,26.4817727 81.5390625,26.1015625 C81.8723975,25.7213523 82.3411428,25.4635423 82.9453125,25.328125 C82.7265614,25.2291662 82.5429695,25.0755219 82.3945312,24.8671875 C82.246093,24.6588531 82.171875,24.416668 82.171875,24.140625 C82.171875,23.8281234 82.2552075,23.5546887 82.421875,23.3203125 C82.5885425,23.0859363 82.8515607,22.8593761 83.2109375,22.640625 C82.768227,22.4583324 82.4075535,22.1484397 82.1289062,21.7109375 C81.850259,21.2734353 81.7109375,20.7734403 81.7109375,20.2109375 C81.7109375,19.2734328 81.9921847,18.5507838 82.5546875,18.0429688 C83.1171903,17.5351537 83.9140573,17.28125 84.9453125,17.28125 C85.3932314,17.28125 85.7968732,17.3333328 86.15625,17.4375 L89.1171875,17.4375 Z M82.2890625,27.4375 C82.2890625,27.901044 82.484373,28.252603 82.875,28.4921875 C83.265627,28.731772 83.8255172,28.8515625 84.5546875,28.8515625 C85.6432346,28.8515625 86.4492161,28.6888037 86.9726562,28.3632812 C87.4960964,28.0377588 87.7578125,27.596357 87.7578125,27.0390625 C87.7578125,26.5755185 87.6145848,26.2539071 87.328125,26.0742188 C87.0416652,25.8945304 86.5026081,25.8046875 85.7109375,25.8046875 L84.15625,25.8046875 C83.5677054,25.8046875 83.1093766,25.9453111 82.78125,26.2265625 C82.4531234,26.5078139 82.2890625,26.9114557 82.2890625,27.4375 L82.2890625,27.4375 Z M82.9921875,20.1796875 C82.9921875,20.7786488 83.1614566,21.2317693 83.5,21.5390625 C83.8385434,21.8463557 84.3098928,22 84.9140625,22 C86.1796938,22 86.8125,21.3854228 86.8125,20.15625 C86.8125,18.8697852 86.1718814,18.2265625 84.890625,18.2265625 C84.281247,18.2265625 83.8125016,18.3906234 83.484375,18.71875 C83.1562484,19.0468766 82.9921875,19.5338509 82.9921875,20.1796875 L82.9921875,20.1796875 Z" id="Uploading" fill="#FFFFFF"></path>
                <rect id="Rectangle-5" fill="#ECECEC" x="17" y="65" width="285" height="32"></rect>
                <rect id="Rectangle-5-Copy" fill="#025B80" x="17" y="65" width="32" height="32"></rect>
                <path d="M152.189453,86 L151.240234,86 L151.240234,79.8945312 C151.240234,79.3867162 151.255859,78.9062523 151.287109,78.453125 C151.205078,78.5351567 151.113282,78.6210933 151.011719,78.7109375 C150.910156,78.8007817 150.445317,79.1816373 149.617188,79.8535156 L149.101562,79.1855469 L151.369141,77.4335938 L152.189453,77.4335938 L152.189453,86 Z M161.125,81.7050781 C161.125,83.1855543 160.891604,84.291012 160.424805,85.0214844 C159.958005,85.7519568 159.244145,86.1171875 158.283203,86.1171875 C157.361324,86.1171875 156.660159,85.7431678 156.179688,84.9951172 C155.699216,84.2470666 155.458984,83.1503979 155.458984,81.7050781 C155.458984,80.2128832 155.691404,79.1054724 156.15625,78.3828125 C156.621096,77.6601526 157.330073,77.2988281 158.283203,77.2988281 C159.212895,77.2988281 159.918943,77.6757775 160.401367,78.4296875 C160.883791,79.1835975 161.125,80.2753835 161.125,81.7050781 L161.125,81.7050781 Z M156.443359,81.7050781 C156.443359,82.9511781 156.589842,83.8583956 156.882812,84.4267578 C157.175783,84.99512 157.642575,85.2792969 158.283203,85.2792969 C158.931644,85.2792969 159.401366,84.9912138 159.692383,84.4150391 C159.9834,83.8388643 160.128906,82.935553 160.128906,81.7050781 C160.128906,80.4746032 159.9834,79.573245 159.692383,79.0009766 C159.401366,78.4287081 158.931644,78.1425781 158.283203,78.1425781 C157.642575,78.1425781 157.175783,78.4248019 156.882812,78.9892578 C156.589842,79.5537138 156.443359,80.4589781 156.443359,81.7050781 L156.443359,81.7050781 Z M163.140625,79.9882812 C163.140625,80.6523471 163.21289,81.150389 163.357422,81.4824219 C163.501954,81.8144548 163.736327,81.9804688 164.060547,81.9804688 C164.701175,81.9804688 165.021484,81.3164129 165.021484,79.9882812 C165.021484,78.6679621 164.701175,78.0078125 164.060547,78.0078125 C163.736327,78.0078125 163.501954,78.1718734 163.357422,78.5 C163.21289,78.8281266 163.140625,79.3242154 163.140625,79.9882812 L163.140625,79.9882812 Z M165.824219,79.9882812 C165.824219,80.8789107 165.674806,81.5517555 165.375977,82.0068359 C165.077147,82.4619163 164.638675,82.6894531 164.060547,82.6894531 C163.513669,82.6894531 163.088869,82.4570336 162.786133,81.9921875 C162.483397,81.5273414 162.332031,80.8593794 162.332031,79.9882812 C162.332031,79.1015581 162.477538,78.433596 162.768555,77.984375 C163.059572,77.535154 163.490232,77.3105469 164.060547,77.3105469 C164.626956,77.3105469 165.062498,77.5429664 165.367188,78.0078125 C165.671877,78.4726586 165.824219,79.1328082 165.824219,79.9882812 L165.824219,79.9882812 Z M168.296875,83.421875 C168.296875,84.0898471 168.36914,84.5888655 168.513672,84.9189453 C168.658204,85.2490251 168.89453,85.4140625 169.222656,85.4140625 C169.550783,85.4140625 169.792968,85.2509782 169.949219,84.9248047 C170.10547,84.5986312 170.183594,84.0976596 170.183594,83.421875 C170.183594,82.7539029 170.10547,82.2587907 169.949219,81.9365234 C169.792968,81.6142562 169.550783,81.453125 169.222656,81.453125 C168.89453,81.453125 168.658204,81.6142562 168.513672,81.9365234 C168.36914,82.2587907 168.296875,82.7539029 168.296875,83.421875 L168.296875,83.421875 Z M170.986328,83.421875 C170.986328,84.3085982 170.836916,84.9794899 170.538086,85.4345703 C170.239256,85.8896507 169.800784,86.1171875 169.222656,86.1171875 C168.667966,86.1171875 168.241212,85.8847679 167.942383,85.4199219 C167.643553,84.9550758 167.494141,84.2890668 167.494141,83.421875 C167.494141,82.5351518 167.639647,81.8671897 167.930664,81.4179688 C168.221681,80.9687478 168.652341,80.7441406 169.222656,80.7441406 C169.777347,80.7441406 170.209959,80.9736305 170.520508,81.4326172 C170.831056,81.8916039 170.986328,82.5546832 170.986328,83.421875 L170.986328,83.421875 Z M169.474609,77.4335938 L164.722656,86 L163.861328,86 L168.613281,77.4335938 L169.474609,77.4335938 Z" id="10%" fill="#4A4A4A"></path>
            </g>
        </g>
    </g>
</svg>