<?xml version="1.0" encoding="UTF-8" standalone="no"?>
<svg width="371px" height="379px" viewBox="0 0 371 379" version="1.1" xmlns="http://www.w3.org/2000/svg" xmlns:xlink="http://www.w3.org/1999/xlink">
    <!-- Generator: Sketch 40.2 (33826) - http://www.bohemiancoding.com/sketch -->
    <title>mnth-pckr</title>
    <desc>Created with Sketch.</desc>
    <defs>
        <rect id="path-1" x="0" y="0" width="371" height="379"></rect>
        <mask id="mask-2" maskContentUnits="userSpaceOnUse" maskUnits="objectBoundingBox" x="0" y="0" width="371" height="379" fill="white">
            <use xlink:href="#path-1"></use>
        </mask>
        <rect id="path-3" x="198" y="326" width="56" height="32"></rect>
        <mask id="mask-4" maskContentUnits="userSpaceOnUse" maskUnits="objectBoundingBox" x="0" y="0" width="56" height="32" fill="white">
            <use xlink:href="#path-3"></use>
        </mask>
        <rect id="path-5" x="128" y="326" width="56" height="32"></rect>
        <mask id="mask-6" maskContentUnits="userSpaceOnUse" maskUnits="objectBoundingBox" x="0" y="0" width="56" height="32" fill="white">
            <use xlink:href="#path-5"></use>
        </mask>
    </defs>
    <g id="Components" stroke="none" stroke-width="1" fill="none" fill-rule="evenodd">
        <g id="Pickers" transform="translate(-325.000000, -1154.000000)">
            <g id="mnth-pckr" transform="translate(325.000000, 1154.000000)">
                <use id="Rectangle-14" stroke="#025B80" mask="url(#mask-2)" stroke-width="4" fill="#FFFFFF" xlink:href="#path-1"></use>
                <use id="Rectangle-16" stroke="#024059" mask="url(#mask-4)" stroke-width="2" fill="#025B80" xlink:href="#path-3"></use>
                <rect id="Rectangle-16-Copy" fill="#025B80" x="104" y="211" width="56" height="32"></rect>
                <rect id="Rectangle-16-Copy" fill="#025B80" x="215" y="254" width="56" height="32"></rect>
                <path d="M226.613281,340.705078 C226.613281,342.076179 226.266605,343.154293 225.573242,343.939453 C224.879879,344.724613 223.916022,345.117188 222.681641,345.117188 C221.419916,345.117188 220.446292,344.731449 219.760742,343.959961 C219.075192,343.188473 218.732422,342.099616 218.732422,340.693359 C218.732422,339.298821 219.076168,338.217777 219.763672,337.450195 C220.451175,336.682613 221.427728,336.298828 222.693359,336.298828 C223.923834,336.298828 224.884762,336.689449 225.576172,337.470703 C226.267582,338.251957 226.613281,339.330071 226.613281,340.705078 L226.613281,340.705078 Z M219.787109,340.705078 C219.787109,341.86524 220.034177,342.745114 220.52832,343.344727 C221.022463,343.944339 221.74023,344.244141 222.681641,344.244141 C223.630864,344.244141 224.347654,343.945315 224.832031,343.347656 C225.316409,342.749997 225.558594,341.869146 225.558594,340.705078 C225.558594,339.552729 225.317385,338.678714 224.834961,338.083008 C224.352537,337.487302 223.638677,337.189453 222.693359,337.189453 C221.744136,337.189453 221.022463,337.489255 220.52832,338.088867 C220.034177,338.68848 219.787109,339.560541 219.787109,340.705078 L219.787109,340.705078 Z M234.710938,345 L233.539062,345 L230.416016,340.845703 L229.519531,341.642578 L229.519531,345 L228.523438,345 L228.523438,336.433594 L229.519531,336.433594 L229.519531,340.681641 L233.404297,336.433594 L234.582031,336.433594 L231.136719,340.154297 L234.710938,345 Z" id="OK" fill="#FFFFFF"></path>
                <use id="Rectangle-16" stroke="#BCBCBC" mask="url(#mask-6)" stroke-width="2" fill="#F5F5F5" xlink:href="#path-5"></use>
                <path d="M142.845703,337.201172 C141.904292,337.201172 141.161136,337.514645 140.616211,338.141602 C140.071286,338.768558 139.798828,339.626948 139.798828,340.716797 C139.798828,341.837896 140.061521,342.704099 140.586914,343.31543 C141.112307,343.926761 141.861323,344.232422 142.833984,344.232422 C143.431644,344.232422 144.113277,344.125001 144.878906,343.910156 L144.878906,344.783203 C144.285153,345.00586 143.552739,345.117188 142.681641,345.117188 C141.419916,345.117188 140.446292,344.734379 139.760742,343.96875 C139.075192,343.203121 138.732422,342.115241 138.732422,340.705078 C138.732422,339.822261 138.897459,339.048831 139.227539,338.384766 C139.557619,337.7207 140.034177,337.208986 140.657227,336.849609 C141.280277,336.490233 142.013668,336.310547 142.857422,336.310547 C143.755864,336.310547 144.541012,336.474608 145.212891,336.802734 L144.791016,337.658203 C144.142575,337.353514 143.494144,337.201172 142.845703,337.201172 L142.845703,337.201172 Z M150.550781,345 L150.357422,344.085938 L150.310547,344.085938 C149.990233,344.488283 149.6709,344.760741 149.352539,344.90332 C149.034178,345.045899 148.636721,345.117188 148.160156,345.117188 C147.523434,345.117188 147.024416,344.953127 146.663086,344.625 C146.301756,344.296873 146.121094,343.830081 146.121094,343.224609 C146.121094,341.927728 147.158193,341.248047 149.232422,341.185547 L150.322266,341.150391 L150.322266,340.751953 C150.322266,340.248044 150.213868,339.875978 149.99707,339.635742 C149.780272,339.395507 149.433596,339.275391 148.957031,339.275391 C148.421872,339.275391 147.81641,339.439451 147.140625,339.767578 L146.841797,339.023438 C147.158205,338.851562 147.504881,338.716797 147.881836,338.619141 C148.258791,338.521484 148.636717,338.472656 149.015625,338.472656 C149.781254,338.472656 150.348631,338.642576 150.717773,338.982422 C151.086916,339.322267 151.271484,339.867184 151.271484,340.617188 L151.271484,345 L150.550781,345 Z M148.353516,344.314453 C148.958987,344.314453 149.434569,344.148439 149.780273,343.816406 C150.125978,343.484373 150.298828,343.019534 150.298828,342.421875 L150.298828,341.841797 L149.326172,341.882812 C148.552731,341.910156 147.995119,342.030272 147.65332,342.243164 C147.311522,342.456056 147.140625,342.787107 147.140625,343.236328 C147.140625,343.587892 147.247069,343.855468 147.459961,344.039062 C147.672853,344.222657 147.970701,344.314453 148.353516,344.314453 L148.353516,344.314453 Z M157.669922,345 L157.669922,340.845703 C157.669922,340.322263 157.550782,339.931642 157.3125,339.673828 C157.074218,339.416014 156.701174,339.287109 156.193359,339.287109 C155.521481,339.287109 155.029298,339.468748 154.716797,339.832031 C154.404295,340.195314 154.248047,340.794918 154.248047,341.630859 L154.248047,345 L153.275391,345 L153.275391,338.578125 L154.066406,338.578125 L154.224609,339.457031 L154.271484,339.457031 C154.470704,339.140623 154.749998,338.895509 155.109375,338.72168 C155.468752,338.547851 155.869138,338.460938 156.310547,338.460938 C157.083988,338.460938 157.666014,338.647459 158.056641,339.020508 C158.447268,339.393557 158.642578,339.99023 158.642578,340.810547 L158.642578,345 L157.669922,345 Z M163.207031,345.117188 C162.277339,345.117188 161.55762,344.831058 161.047852,344.258789 C160.538083,343.686521 160.283203,342.876958 160.283203,341.830078 C160.283203,340.755854 160.54199,339.925784 161.05957,339.339844 C161.577151,338.753903 162.314448,338.460938 163.271484,338.460938 C163.58008,338.460938 163.88867,338.49414 164.197266,338.560547 C164.505861,338.626953 164.748046,338.705078 164.923828,338.794922 L164.625,339.621094 C164.410155,339.535156 164.175783,339.463867 163.921875,339.407227 C163.667967,339.350586 163.44336,339.322266 163.248047,339.322266 C161.943353,339.322266 161.291016,340.154289 161.291016,341.818359 C161.291016,342.607426 161.450194,343.212889 161.768555,343.634766 C162.086916,344.056643 162.558591,344.267578 163.183594,344.267578 C163.718753,344.267578 164.267575,344.152345 164.830078,343.921875 L164.830078,344.783203 C164.400388,345.00586 163.859378,345.117188 163.207031,345.117188 L163.207031,345.117188 Z M169.066406,345.117188 C168.117183,345.117188 167.368167,344.828128 166.819336,344.25 C166.270505,343.671872 165.996094,342.869146 165.996094,341.841797 C165.996094,340.806635 166.250974,339.984378 166.760742,339.375 C167.27051,338.765622 167.955074,338.460938 168.814453,338.460938 C169.619145,338.460938 170.255857,338.725583 170.724609,339.254883 C171.193362,339.784182 171.427734,340.482418 171.427734,341.349609 L171.427734,341.964844 L167.003906,341.964844 C167.023438,342.718754 167.213865,343.291014 167.575195,343.681641 C167.936525,344.072268 168.445309,344.267578 169.101562,344.267578 C169.792972,344.267578 170.476559,344.123048 171.152344,343.833984 L171.152344,344.701172 C170.808592,344.84961 170.4834,344.956054 170.176758,345.020508 C169.870116,345.084961 169.500002,345.117188 169.066406,345.117188 L169.066406,345.117188 Z M168.802734,339.275391 C168.287107,339.275391 167.875978,339.443358 167.569336,339.779297 C167.262694,340.115236 167.082032,340.580075 167.027344,341.173828 L170.384766,341.173828 C170.384766,340.560544 170.248048,340.090822 169.974609,339.764648 C169.701171,339.438475 169.310549,339.275391 168.802734,339.275391 L168.802734,339.275391 Z M174.058594,345 L173.085938,345 L173.085938,335.882812 L174.058594,335.882812 L174.058594,345 Z" id="Cancel" fill="#4A4A4A"></path>
                <path d="M42.90625,60.0078125 C42.4166642,60.0078125 42.0312514,59.9375007 41.75,59.796875 L41.75,58.6640625 C42.1197935,58.7682297 42.5052063,58.8203125 42.90625,58.8203125 C43.4218776,58.8203125 43.8138007,58.6640641 44.0820312,58.3515625 C44.3502618,58.0390609 44.484375,57.5885446 44.484375,57 L44.484375,45.578125 L45.8125,45.578125 L45.8125,56.890625 C45.8125,57.8802133 45.5625025,58.6471327 45.0625,59.1914062 C44.5624975,59.7356798 43.8437547,60.0078125 42.90625,60.0078125 L42.90625,60.0078125 Z M53.9140625,57 L53.65625,55.78125 L53.59375,55.78125 C53.1666645,56.317711 52.7408875,56.6809886 52.3164062,56.8710938 C51.891925,57.0611989 51.3619823,57.15625 50.7265625,57.15625 C49.8775999,57.15625 49.212242,56.9375022 48.7304688,56.5 C48.2486955,56.0624978 48.0078125,55.4401082 48.0078125,54.6328125 C48.0078125,52.9036372 49.3906112,51.9973963 52.15625,51.9140625 L53.609375,51.8671875 L53.609375,51.3359375 C53.609375,50.6640591 53.4648452,50.1679704 53.1757812,49.8476562 C52.8867173,49.5273421 52.4244823,49.3671875 51.7890625,49.3671875 C51.0755173,49.3671875 50.2682337,49.5859353 49.3671875,50.0234375 L48.96875,49.03125 C49.3906271,48.8020822 49.8528621,48.6223965 50.3554688,48.4921875 C50.8580754,48.3619785 51.3619766,48.296875 51.8671875,48.296875 C52.8880259,48.296875 53.6445288,48.5234352 54.1367188,48.9765625 C54.6289087,49.4296898 54.875,50.156245 54.875,51.15625 L54.875,57 L53.9140625,57 Z M50.984375,56.0859375 C51.7916707,56.0859375 52.4257789,55.8645855 52.8867188,55.421875 C53.3476586,54.9791645 53.578125,54.359379 53.578125,53.5625 L53.578125,52.7890625 L52.28125,52.84375 C51.2499948,52.8802085 50.5065127,53.0403632 50.0507812,53.3242188 C49.5950498,53.6080743 49.3671875,54.0494762 49.3671875,54.6484375 C49.3671875,55.1171898 49.5091132,55.4739571 49.7929688,55.71875 C50.0768243,55.9635429 50.4739558,56.0859375 50.984375,56.0859375 L50.984375,56.0859375 Z M63.40625,57 L63.40625,51.4609375 C63.40625,50.7630173 63.2473974,50.2421892 62.9296875,49.8984375 C62.6119776,49.5546858 62.1145867,49.3828125 61.4375,49.3828125 C60.5416622,49.3828125 59.8854187,49.6249976 59.46875,50.109375 C59.0520813,50.5937524 58.84375,51.3932236 58.84375,52.5078125 L58.84375,57 L57.546875,57 L57.546875,48.4375 L58.6015625,48.4375 L58.8125,49.609375 L58.875,49.609375 C59.1406263,49.1874979 59.5130184,48.8606782 59.9921875,48.6289062 C60.4713566,48.3971343 61.0052054,48.28125 61.59375,48.28125 C62.6250052,48.28125 63.4010391,48.5299454 63.921875,49.0273438 C64.4427109,49.5247421 64.703125,50.320307 64.703125,51.4140625 L64.703125,57 L63.40625,57 Z" id="Jan" fill="#4A4A4A"></path>
                <path d="M42.8984375,99 L41.5703125,99 L41.5703125,87.578125 L47.9375,87.578125 L47.9375,88.7578125 L42.8984375,88.7578125 L42.8984375,92.9375 L47.6328125,92.9375 L47.6328125,94.1171875 L42.8984375,94.1171875 L42.8984375,99 Z M53.25,99.15625 C51.9843687,99.15625 50.9856807,98.7708372 50.2539062,98 C49.5221318,97.2291628 49.15625,96.158861 49.15625,94.7890625 C49.15625,93.4088473 49.4960904,92.3125041 50.1757812,91.5 C50.8554721,90.6874959 51.7682234,90.28125 52.9140625,90.28125 C53.9869845,90.28125 54.8359344,90.6341111 55.4609375,91.3398438 C56.0859406,92.0455764 56.3984375,92.9765567 56.3984375,94.1328125 L56.3984375,94.953125 L50.5,94.953125 C50.5260418,95.9583384 50.7799455,96.7213516 51.2617188,97.2421875 C51.743492,97.7630234 52.4218706,98.0234375 53.296875,98.0234375 C54.2187546,98.0234375 55.1302038,97.8307311 56.03125,97.4453125 L56.03125,98.6015625 C55.5729144,98.7994802 55.139325,98.9414058 54.7304688,99.0273438 C54.3216125,99.1132817 53.8281279,99.15625 53.25,99.15625 L53.25,99.15625 Z M52.8984375,91.3671875 C52.2109341,91.3671875 51.6627625,91.5911436 51.2539062,92.0390625 C50.84505,92.4869814 50.604167,93.1067669 50.53125,93.8984375 L55.0078125,93.8984375 C55.0078125,93.0807251 54.8255227,92.4544293 54.4609375,92.0195312 C54.0963523,91.5846332 53.5755242,91.3671875 52.8984375,91.3671875 L52.8984375,91.3671875 Z M62.59375,90.296875 C63.7187556,90.296875 64.5924448,90.6809857 65.2148438,91.4492188 C65.8372427,92.2174518 66.1484375,93.3046805 66.1484375,94.7109375 C66.1484375,96.1171945 65.8346386,97.2096315 65.2070312,97.9882812 C64.5794239,98.766931 63.7083389,99.15625 62.59375,99.15625 C62.0364555,99.15625 61.5273461,99.0533864 61.0664062,98.8476562 C60.6054664,98.6419261 60.2187516,98.325523 59.90625,97.8984375 L59.8125,97.8984375 L59.5390625,99 L58.609375,99 L58.609375,86.84375 L59.90625,86.84375 L59.90625,89.796875 C59.90625,90.4583366 59.8854169,91.0520807 59.84375,91.578125 L59.90625,91.578125 C60.5104197,90.7239541 61.4062441,90.296875 62.59375,90.296875 L62.59375,90.296875 Z M62.40625,91.3828125 C61.5208289,91.3828125 60.8828145,91.6367162 60.4921875,92.1445312 C60.1015605,92.6523463 59.90625,93.5078065 59.90625,94.7109375 C59.90625,95.9140685 60.1067688,96.774737 60.5078125,97.2929688 C60.9088562,97.8112005 61.5520789,98.0703125 62.4375,98.0703125 C63.234379,98.0703125 63.828123,97.7799508 64.21875,97.1992188 C64.609377,96.6184867 64.8046875,95.7838596 64.8046875,94.6953125 C64.8046875,93.5807236 64.609377,92.7500027 64.21875,92.203125 C63.828123,91.6562473 63.2239624,91.3828125 62.40625,91.3828125 L62.40625,91.3828125 Z" id="Feb" fill="#4A4A4A"></path>
                <path d="M45.625,144 L41.75,133.875 L41.6875,133.875 C41.760417,134.677087 41.796875,135.630203 41.796875,136.734375 L41.796875,144 L40.5703125,144 L40.5703125,132.578125 L42.5703125,132.578125 L46.1875,142 L46.25,142 L49.8984375,132.578125 L51.8828125,132.578125 L51.8828125,144 L50.5546875,144 L50.5546875,136.640625 C50.5546875,135.796871 50.5911455,134.880213 50.6640625,133.890625 L50.6015625,133.890625 L46.6953125,144 L45.625,144 Z M60.0859375,144 L59.828125,142.78125 L59.765625,142.78125 C59.3385395,143.317711 58.9127625,143.680989 58.4882812,143.871094 C58.0638,144.061199 57.5338573,144.15625 56.8984375,144.15625 C56.0494749,144.15625 55.384117,143.937502 54.9023438,143.5 C54.4205705,143.062498 54.1796875,142.440108 54.1796875,141.632812 C54.1796875,139.903637 55.5624862,138.997396 58.328125,138.914062 L59.78125,138.867188 L59.78125,138.335938 C59.78125,137.664059 59.6367202,137.16797 59.3476562,136.847656 C59.0585923,136.527342 58.5963573,136.367188 57.9609375,136.367188 C57.2473923,136.367188 56.4401087,136.585935 55.5390625,137.023438 L55.140625,136.03125 C55.5625021,135.802082 56.0247371,135.622396 56.5273438,135.492188 C57.0299504,135.361979 57.5338516,135.296875 58.0390625,135.296875 C59.0599009,135.296875 59.8164038,135.523435 60.3085938,135.976562 C60.8007837,136.42969 61.046875,137.156245 61.046875,138.15625 L61.046875,144 L60.0859375,144 Z M57.15625,143.085938 C57.9635457,143.085938 58.5976539,142.864586 59.0585938,142.421875 C59.5195336,141.979164 59.75,141.359379 59.75,140.5625 L59.75,139.789062 L58.453125,139.84375 C57.4218698,139.880209 56.6783877,140.040363 56.2226562,140.324219 C55.7669248,140.608074 55.5390625,141.049476 55.5390625,141.648438 C55.5390625,142.11719 55.6809882,142.473957 55.9648438,142.71875 C56.2486993,142.963543 56.6458308,143.085938 57.15625,143.085938 L57.15625,143.085938 Z M67.625,135.28125 C68.0052102,135.28125 68.3463527,135.3125 68.6484375,135.375 L68.46875,136.578125 C68.1145816,136.5 67.8020847,136.460938 67.53125,136.460938 C66.8385382,136.460938 66.2460962,136.742185 65.7539062,137.304688 C65.2617163,137.86719 65.015625,138.567704 65.015625,139.40625 L65.015625,144 L63.71875,144 L63.71875,135.4375 L64.7890625,135.4375 L64.9375,137.023438 L65,137.023438 C65.3177099,136.466143 65.7005186,136.03646 66.1484375,135.734375 C66.5963564,135.43229 67.088539,135.28125 67.625,135.28125 L67.625,135.28125 Z" id="Mar" fill="#4A4A4A"></path>
                <path d="M49.75,187 L48.328125,183.367188 L43.75,183.367188 L42.34375,187 L41,187 L45.515625,175.53125 L46.6328125,175.53125 L51.125,187 L49.75,187 Z M47.9140625,182.171875 L46.5859375,178.632812 C46.4140616,178.184894 46.2369801,177.63542 46.0546875,176.984375 C45.9401036,177.484377 45.7760427,178.033851 45.5625,178.632812 L44.21875,182.171875 L47.9140625,182.171875 Z M56.484375,187.15625 C55.9270805,187.15625 55.4179711,187.053386 54.9570312,186.847656 C54.4960914,186.641926 54.1093766,186.325523 53.796875,185.898438 L53.703125,185.898438 C53.7656253,186.39844 53.796875,186.872394 53.796875,187.320312 L53.796875,190.84375 L52.5,190.84375 L52.5,178.4375 L53.5546875,178.4375 L53.734375,179.609375 L53.796875,179.609375 C54.13021,179.140623 54.518227,178.802084 54.9609375,178.59375 C55.403648,178.385416 55.9114555,178.28125 56.484375,178.28125 C57.6197973,178.28125 58.4960907,178.669267 59.1132812,179.445312 C59.7304718,180.221358 60.0390625,181.309889 60.0390625,182.710938 C60.0390625,184.117195 59.7252636,185.209632 59.0976562,185.988281 C58.4700489,186.766931 57.5989639,187.15625 56.484375,187.15625 L56.484375,187.15625 Z M56.296875,179.382812 C55.4218706,179.382812 54.7890645,179.624998 54.3984375,180.109375 C54.0078105,180.593752 53.8072917,181.364578 53.796875,182.421875 L53.796875,182.710938 C53.796875,183.914069 53.9973938,184.774737 54.3984375,185.292969 C54.7994812,185.811201 55.4427039,186.070312 56.328125,186.070312 C57.067712,186.070312 57.6471333,185.770836 58.0664062,185.171875 C58.4856792,184.572914 58.6953125,183.747401 58.6953125,182.695312 C58.6953125,181.627599 58.4856792,180.808597 58.0664062,180.238281 C57.6471333,179.667966 57.0572955,179.382812 56.296875,179.382812 L56.296875,179.382812 Z M66.2109375,178.28125 C66.5911477,178.28125 66.9322902,178.3125 67.234375,178.375 L67.0546875,179.578125 C66.7005191,179.5 66.3880222,179.460938 66.1171875,179.460938 C65.4244757,179.460938 64.8320337,179.742185 64.3398438,180.304688 C63.8476538,180.86719 63.6015625,181.567704 63.6015625,182.40625 L63.6015625,187 L62.3046875,187 L62.3046875,178.4375 L63.375,178.4375 L63.5234375,180.023438 L63.5859375,180.023438 C63.9036474,179.466143 64.2864561,179.03646 64.734375,178.734375 C65.1822939,178.43229 65.6744765,178.28125 66.2109375,178.28125 L66.2109375,178.28125 Z" id="Apr" fill="#4A4A4A"></path>
                <path d="M44.625,232 L40.75,221.875 L40.6875,221.875 C40.760417,222.677087 40.796875,223.630203 40.796875,224.734375 L40.796875,232 L39.5703125,232 L39.5703125,220.578125 L41.5703125,220.578125 L45.1875,230 L45.25,230 L48.8984375,220.578125 L50.8828125,220.578125 L50.8828125,232 L49.5546875,232 L49.5546875,224.640625 C49.5546875,223.796871 49.5911455,222.880213 49.6640625,221.890625 L49.6015625,221.890625 L45.6953125,232 L44.625,232 Z M59.0859375,232 L58.828125,230.78125 L58.765625,230.78125 C58.3385395,231.317711 57.9127625,231.680989 57.4882812,231.871094 C57.0638,232.061199 56.5338573,232.15625 55.8984375,232.15625 C55.0494749,232.15625 54.384117,231.937502 53.9023438,231.5 C53.4205705,231.062498 53.1796875,230.440108 53.1796875,229.632812 C53.1796875,227.903637 54.5624862,226.997396 57.328125,226.914062 L58.78125,226.867188 L58.78125,226.335938 C58.78125,225.664059 58.6367202,225.16797 58.3476562,224.847656 C58.0585923,224.527342 57.5963573,224.367188 56.9609375,224.367188 C56.2473923,224.367188 55.4401087,224.585935 54.5390625,225.023438 L54.140625,224.03125 C54.5625021,223.802082 55.0247371,223.622396 55.5273438,223.492188 C56.0299504,223.361979 56.5338516,223.296875 57.0390625,223.296875 C58.0599009,223.296875 58.8164038,223.523435 59.3085938,223.976562 C59.8007837,224.42969 60.046875,225.156245 60.046875,226.15625 L60.046875,232 L59.0859375,232 Z M56.15625,231.085938 C56.9635457,231.085938 57.5976539,230.864586 58.0585938,230.421875 C58.5195336,229.979164 58.75,229.359379 58.75,228.5625 L58.75,227.789062 L57.453125,227.84375 C56.4218698,227.880209 55.6783877,228.040363 55.2226562,228.324219 C54.7669248,228.608074 54.5390625,229.049476 54.5390625,229.648438 C54.5390625,230.11719 54.6809882,230.473957 54.9648438,230.71875 C55.2486993,230.963543 55.6458308,231.085938 56.15625,231.085938 L56.15625,231.085938 Z M61.359375,223.4375 L62.75,223.4375 L64.625,228.320312 C65.0364604,229.434901 65.2916662,230.239581 65.390625,230.734375 L65.453125,230.734375 C65.5208337,230.468749 65.6627593,230.014326 65.8789062,229.371094 C66.0950532,228.727861 66.8020773,226.750017 68,223.4375 L69.390625,223.4375 L65.7109375,233.1875 C65.3463523,234.151046 64.9205754,234.834633 64.4335938,235.238281 C63.9466121,235.641929 63.3489619,235.84375 62.640625,235.84375 C62.2447897,235.84375 61.8541686,235.79948 61.46875,235.710938 L61.46875,234.671875 C61.7552098,234.734375 62.0755191,234.765625 62.4296875,234.765625 C63.320317,234.765625 63.9557273,234.26563 64.3359375,233.265625 L64.8125,232.046875 L61.359375,223.4375 Z" id="May" fill="#4A4A4A"></path>
                <path d="M41.90625,279.007812 C41.4166642,279.007812 41.0312514,278.937501 40.75,278.796875 L40.75,277.664062 C41.1197935,277.76823 41.5052063,277.820312 41.90625,277.820312 C42.4218776,277.820312 42.8138007,277.664064 43.0820312,277.351562 C43.3502618,277.039061 43.484375,276.588545 43.484375,276 L43.484375,264.578125 L44.8125,264.578125 L44.8125,275.890625 C44.8125,276.880213 44.5625025,277.647133 44.0625,278.191406 C43.5624975,278.73568 42.8437547,279.007812 41.90625,279.007812 L41.90625,279.007812 Z M48.8671875,267.4375 L48.8671875,272.992188 C48.8671875,273.690108 49.0260401,274.210936 49.34375,274.554688 C49.6614599,274.898439 50.1588508,275.070312 50.8359375,275.070312 C51.7317753,275.070312 52.3867167,274.825523 52.8007812,274.335938 C53.2148458,273.846352 53.421875,273.046881 53.421875,271.9375 L53.421875,267.4375 L54.71875,267.4375 L54.71875,276 L53.6484375,276 L53.4609375,274.851562 L53.390625,274.851562 C53.1249987,275.27344 52.7565128,275.596353 52.2851562,275.820312 C51.8137997,276.044272 51.2760447,276.15625 50.671875,276.15625 C49.6302031,276.15625 48.850263,275.908857 48.3320312,275.414062 C47.8137995,274.919268 47.5546875,274.12761 47.5546875,273.039062 L47.5546875,267.4375 L48.8671875,267.4375 Z M63.328125,276 L63.328125,270.460938 C63.328125,269.763017 63.1692724,269.242189 62.8515625,268.898438 C62.5338526,268.554686 62.0364617,268.382812 61.359375,268.382812 C60.4635372,268.382812 59.8072937,268.624998 59.390625,269.109375 C58.9739563,269.593752 58.765625,270.393224 58.765625,271.507812 L58.765625,276 L57.46875,276 L57.46875,267.4375 L58.5234375,267.4375 L58.734375,268.609375 L58.796875,268.609375 C59.0625013,268.187498 59.4348934,267.860678 59.9140625,267.628906 C60.3932316,267.397134 60.9270804,267.28125 61.515625,267.28125 C62.5468802,267.28125 63.3229141,267.529945 63.84375,268.027344 C64.3645859,268.524742 64.625,269.320307 64.625,270.414062 L64.625,276 L63.328125,276 Z" id="Jun" fill="#4A4A4A"></path>
                <path d="M122.90625,60.0078125 C122.416664,60.0078125 122.031251,59.9375007 121.75,59.796875 L121.75,58.6640625 C122.119794,58.7682297 122.505206,58.8203125 122.90625,58.8203125 C123.421878,58.8203125 123.813801,58.6640641 124.082031,58.3515625 C124.350262,58.0390609 124.484375,57.5885446 124.484375,57 L124.484375,45.578125 L125.8125,45.578125 L125.8125,56.890625 C125.8125,57.8802133 125.562502,58.6471327 125.0625,59.1914062 C124.562498,59.7356798 123.843755,60.0078125 122.90625,60.0078125 L122.90625,60.0078125 Z M129.867188,48.4375 L129.867188,53.9921875 C129.867188,54.6901077 130.02604,55.2109358 130.34375,55.5546875 C130.66146,55.8984392 131.158851,56.0703125 131.835938,56.0703125 C132.731775,56.0703125 133.386717,55.8255233 133.800781,55.3359375 C134.214846,54.8463517 134.421875,54.0468805 134.421875,52.9375 L134.421875,48.4375 L135.71875,48.4375 L135.71875,57 L134.648438,57 L134.460938,55.8515625 L134.390625,55.8515625 C134.124999,56.2734396 133.756513,56.596353 133.285156,56.8203125 C132.8138,57.044272 132.276045,57.15625 131.671875,57.15625 C130.630203,57.15625 129.850263,56.9088566 129.332031,56.4140625 C128.813799,55.9192684 128.554688,55.1276096 128.554688,54.0390625 L128.554688,48.4375 L129.867188,48.4375 Z M139.765625,57 L138.46875,57 L138.46875,44.84375 L139.765625,44.84375 L139.765625,57 Z" id="Jul" fill="#4A4A4A"></path>
                <path d="M126.75,99 L125.328125,95.3671875 L120.75,95.3671875 L119.34375,99 L118,99 L122.515625,87.53125 L123.632812,87.53125 L128.125,99 L126.75,99 Z M124.914062,94.171875 L123.585938,90.6328125 C123.414062,90.1848936 123.23698,89.6354199 123.054688,88.984375 C122.940104,89.4843775 122.776043,90.0338512 122.5625,90.6328125 L121.21875,94.171875 L124.914062,94.171875 Z M130.71875,90.4375 L130.71875,95.9921875 C130.71875,96.6901077 130.877603,97.2109358 131.195312,97.5546875 C131.513022,97.8984392 132.010413,98.0703125 132.6875,98.0703125 C133.583338,98.0703125 134.238279,97.8255233 134.652344,97.3359375 C135.066408,96.8463517 135.273438,96.0468805 135.273438,94.9375 L135.273438,90.4375 L136.570312,90.4375 L136.570312,99 L135.5,99 L135.3125,97.8515625 L135.242188,97.8515625 C134.976561,98.2734396 134.608075,98.596353 134.136719,98.8203125 C133.665362,99.044272 133.127607,99.15625 132.523438,99.15625 C131.481766,99.15625 130.701826,98.9088566 130.183594,98.4140625 C129.665362,97.9192684 129.40625,97.1276096 129.40625,96.0390625 L129.40625,90.4375 L130.71875,90.4375 Z M146.328125,90.4375 L146.328125,91.2578125 L144.742188,91.4453125 C144.888022,91.6276051 145.018229,91.8658839 145.132812,92.1601562 C145.247396,92.4544286 145.304688,92.7864565 145.304688,93.15625 C145.304688,93.9947959 145.018232,94.66406 144.445312,95.1640625 C143.872393,95.664065 143.085942,95.9140625 142.085938,95.9140625 C141.830728,95.9140625 141.591147,95.8932294 141.367188,95.8515625 C140.815101,96.1432306 140.539062,96.5104145 140.539062,96.953125 C140.539062,97.1875012 140.635416,97.3606765 140.828125,97.4726562 C141.020834,97.584636 141.35156,97.640625 141.820312,97.640625 L143.335938,97.640625 C144.263025,97.640625 144.975258,97.8359355 145.472656,98.2265625 C145.970055,98.6171895 146.21875,99.1848921 146.21875,99.9296875 C146.21875,100.877609 145.838545,101.600258 145.078125,102.097656 C144.317705,102.595055 143.208341,102.84375 141.75,102.84375 C140.630203,102.84375 139.76693,102.635419 139.160156,102.21875 C138.553382,101.802081 138.25,101.213545 138.25,100.453125 C138.25,99.9322891 138.416665,99.4817727 138.75,99.1015625 C139.083335,98.7213523 139.55208,98.4635423 140.15625,98.328125 C139.937499,98.2291662 139.753907,98.0755219 139.605469,97.8671875 C139.457031,97.6588531 139.382812,97.416668 139.382812,97.140625 C139.382812,96.8281234 139.466145,96.5546887 139.632812,96.3203125 C139.79948,96.0859363 140.062498,95.8593761 140.421875,95.640625 C139.979164,95.4583324 139.618491,95.1484397 139.339844,94.7109375 C139.061197,94.2734353 138.921875,93.7734403 138.921875,93.2109375 C138.921875,92.2734328 139.203122,91.5507838 139.765625,91.0429688 C140.328128,90.5351537 141.124995,90.28125 142.15625,90.28125 C142.604169,90.28125 143.007811,90.3333328 143.367188,90.4375 L146.328125,90.4375 Z M139.5,100.4375 C139.5,100.901044 139.695311,101.252603 140.085938,101.492188 C140.476564,101.731772 141.036455,101.851562 141.765625,101.851562 C142.854172,101.851562 143.660154,101.688804 144.183594,101.363281 C144.707034,101.037759 144.96875,100.596357 144.96875,100.039062 C144.96875,99.5755185 144.825522,99.2539071 144.539062,99.0742188 C144.252603,98.8945304 143.713546,98.8046875 142.921875,98.8046875 L141.367188,98.8046875 C140.778643,98.8046875 140.320314,98.9453111 139.992188,99.2265625 C139.664061,99.5078139 139.5,99.9114557 139.5,100.4375 L139.5,100.4375 Z M140.203125,93.1796875 C140.203125,93.7786488 140.372394,94.2317693 140.710938,94.5390625 C141.049481,94.8463557 141.52083,95 142.125,95 C143.390631,95 144.023438,94.3854228 144.023438,93.15625 C144.023438,91.8697852 143.382819,91.2265625 142.101562,91.2265625 C141.492184,91.2265625 141.023439,91.3906234 140.695312,91.71875 C140.367186,92.0468766 140.203125,92.5338509 140.203125,93.1796875 L140.203125,93.1796875 Z" id="Aug" fill="#4A4A4A"></path>
                <path d="M123.015625,140.960938 C123.015625,141.966151 122.651045,142.749997 121.921875,143.3125 C121.192705,143.875003 120.203131,144.15625 118.953125,144.15625 C117.598952,144.15625 116.557295,143.981773 115.828125,143.632812 L115.828125,142.351562 C116.296877,142.54948 116.807289,142.705729 117.359375,142.820312 C117.911461,142.934896 118.458331,142.992188 119,142.992188 C119.885421,142.992188 120.552081,142.82422 121,142.488281 C121.447919,142.152342 121.671875,141.684899 121.671875,141.085938 C121.671875,140.690102 121.592449,140.365887 121.433594,140.113281 C121.274739,139.860676 121.009116,139.627605 120.636719,139.414062 C120.264321,139.20052 119.69792,138.958335 118.9375,138.6875 C117.874995,138.30729 117.115888,137.856773 116.660156,137.335938 C116.204425,136.815102 115.976562,136.135421 115.976562,135.296875 C115.976562,134.416662 116.307288,133.716148 116.96875,133.195312 C117.630212,132.674477 118.505203,132.414062 119.59375,132.414062 C120.729172,132.414062 121.773433,132.622394 122.726562,133.039062 L122.3125,134.195312 C121.369787,133.799477 120.453129,133.601562 119.5625,133.601562 C118.859371,133.601562 118.309898,133.752603 117.914062,134.054688 C117.518227,134.356772 117.320312,134.776039 117.320312,135.3125 C117.320312,135.708335 117.393228,136.032551 117.539062,136.285156 C117.684897,136.537762 117.930988,136.76953 118.277344,136.980469 C118.6237,137.191407 119.153642,137.424478 119.867188,137.679688 C121.06511,138.106773 121.889321,138.565102 122.339844,139.054688 C122.790367,139.544273 123.015625,140.179684 123.015625,140.960938 L123.015625,140.960938 Z M128.773438,144.15625 C127.507806,144.15625 126.509118,143.770837 125.777344,143 C125.045569,142.229163 124.679688,141.158861 124.679688,139.789062 C124.679688,138.408847 125.019528,137.312504 125.699219,136.5 C126.37891,135.687496 127.291661,135.28125 128.4375,135.28125 C129.510422,135.28125 130.359372,135.634111 130.984375,136.339844 C131.609378,137.045576 131.921875,137.976557 131.921875,139.132812 L131.921875,139.953125 L126.023438,139.953125 C126.049479,140.958338 126.303383,141.721352 126.785156,142.242188 C127.266929,142.763023 127.945308,143.023438 128.820312,143.023438 C129.742192,143.023438 130.653641,142.830731 131.554688,142.445312 L131.554688,143.601562 C131.096352,143.79948 130.662762,143.941406 130.253906,144.027344 C129.84505,144.113282 129.351565,144.15625 128.773438,144.15625 L128.773438,144.15625 Z M128.421875,136.367188 C127.734372,136.367188 127.1862,136.591144 126.777344,137.039062 C126.368488,137.486981 126.127605,138.106767 126.054688,138.898438 L130.53125,138.898438 C130.53125,138.080725 130.34896,137.454429 129.984375,137.019531 C129.61979,136.584633 129.098962,136.367188 128.421875,136.367188 L128.421875,136.367188 Z M138.117188,144.15625 C137.559893,144.15625 137.050784,144.053386 136.589844,143.847656 C136.128904,143.641926 135.742189,143.325523 135.429688,142.898438 L135.335938,142.898438 C135.398438,143.39844 135.429688,143.872394 135.429688,144.320312 L135.429688,147.84375 L134.132812,147.84375 L134.132812,135.4375 L135.1875,135.4375 L135.367188,136.609375 L135.429688,136.609375 C135.763022,136.140623 136.151039,135.802084 136.59375,135.59375 C137.036461,135.385416 137.544268,135.28125 138.117188,135.28125 C139.25261,135.28125 140.128903,135.669267 140.746094,136.445312 C141.363284,137.221358 141.671875,138.309889 141.671875,139.710938 C141.671875,141.117195 141.358076,142.209632 140.730469,142.988281 C140.102861,143.766931 139.231776,144.15625 138.117188,144.15625 L138.117188,144.15625 Z M137.929688,136.382812 C137.054683,136.382812 136.421877,136.624998 136.03125,137.109375 C135.640623,137.593752 135.440104,138.364578 135.429688,139.421875 L135.429688,139.710938 C135.429688,140.914069 135.630206,141.774737 136.03125,142.292969 C136.432294,142.811201 137.075516,143.070312 137.960938,143.070312 C138.700525,143.070312 139.279946,142.770836 139.699219,142.171875 C140.118492,141.572914 140.328125,140.747401 140.328125,139.695312 C140.328125,138.627599 140.118492,137.808597 139.699219,137.238281 C139.279946,136.667966 138.690108,136.382812 137.929688,136.382812 L137.929688,136.382812 Z M146.703125,143.085938 C146.932293,143.085938 147.153645,143.069011 147.367188,143.035156 C147.58073,143.001302 147.749999,142.966146 147.875,142.929688 L147.875,143.921875 C147.734374,143.989584 147.527345,144.045573 147.253906,144.089844 C146.980467,144.134115 146.734376,144.15625 146.515625,144.15625 C144.859367,144.15625 144.03125,143.283863 144.03125,141.539062 L144.03125,136.445312 L142.804688,136.445312 L142.804688,135.820312 L144.03125,135.28125 L144.578125,133.453125 L145.328125,133.453125 L145.328125,135.4375 L147.8125,135.4375 L147.8125,136.445312 L145.328125,136.445312 L145.328125,141.484375 C145.328125,142.000003 145.45052,142.395832 145.695312,142.671875 C145.940105,142.947918 146.27604,143.085938 146.703125,143.085938 L146.703125,143.085938 Z" id="Sept" fill="#4A4A4A"></path>
                <path d="M130.484375,181.273438 C130.484375,183.101572 130.02214,184.539057 129.097656,185.585938 C128.173172,186.632818 126.888029,187.15625 125.242188,187.15625 C123.559887,187.15625 122.261723,186.641932 121.347656,185.613281 C120.433589,184.58463 119.976562,183.132822 119.976562,181.257812 C119.976562,179.398428 120.434891,177.957036 121.351562,176.933594 C122.268234,175.910151 123.570304,175.398438 125.257812,175.398438 C126.898446,175.398438 128.179683,175.919266 129.101562,176.960938 C130.023442,178.002609 130.484375,179.440095 130.484375,181.273438 L130.484375,181.273438 Z M121.382812,181.273438 C121.382812,182.82032 121.712236,183.993486 122.371094,184.792969 C123.029951,185.592452 123.986973,185.992188 125.242188,185.992188 C126.507819,185.992188 127.463538,185.593754 128.109375,184.796875 C128.755212,183.999996 129.078125,182.825529 129.078125,181.273438 C129.078125,179.736971 128.756514,178.571619 128.113281,177.777344 C127.470049,176.983069 126.518235,176.585938 125.257812,176.585938 C123.992181,176.585938 123.029951,176.985673 122.371094,177.785156 C121.712236,178.584639 121.382812,179.747388 121.382812,181.273438 L121.382812,181.273438 Z M136.257812,187.15625 C135.018223,187.15625 134.058597,186.774743 133.378906,186.011719 C132.699215,185.248694 132.359375,184.169278 132.359375,182.773438 C132.359375,181.341139 132.704424,180.234379 133.394531,179.453125 C134.084639,178.671871 135.067702,178.28125 136.34375,178.28125 C136.75521,178.28125 137.166665,178.32552 137.578125,178.414062 C137.989585,178.502605 138.312499,178.60677 138.546875,178.726562 L138.148438,179.828125 C137.861978,179.713541 137.549481,179.61849 137.210938,179.542969 C136.872394,179.467448 136.572918,179.429688 136.3125,179.429688 C134.572908,179.429688 133.703125,180.539051 133.703125,182.757812 C133.703125,183.809901 133.915362,184.617185 134.339844,185.179688 C134.764325,185.74219 135.393225,186.023438 136.226562,186.023438 C136.940108,186.023438 137.671871,185.869793 138.421875,185.5625 L138.421875,186.710938 C137.848955,187.007814 137.127609,187.15625 136.257812,187.15625 L136.257812,187.15625 Z M143.21875,186.085938 C143.447918,186.085938 143.66927,186.069011 143.882812,186.035156 C144.096355,186.001302 144.265624,185.966146 144.390625,185.929688 L144.390625,186.921875 C144.249999,186.989584 144.04297,187.045573 143.769531,187.089844 C143.496092,187.134115 143.250001,187.15625 143.03125,187.15625 C141.374992,187.15625 140.546875,186.283863 140.546875,184.539062 L140.546875,179.445312 L139.320312,179.445312 L139.320312,178.820312 L140.546875,178.28125 L141.09375,176.453125 L141.84375,176.453125 L141.84375,178.4375 L144.328125,178.4375 L144.328125,179.445312 L141.84375,179.445312 L141.84375,184.484375 C141.84375,185.000003 141.966145,185.395832 142.210938,185.671875 C142.45573,185.947918 142.791665,186.085938 143.21875,186.085938 L143.21875,186.085938 Z" id="Oct" fill="#4A4A4A"></path>
                <path d="M127.492188,232 L125.976562,232 L119.734375,222.414062 L119.671875,222.414062 C119.755209,223.539068 119.796875,224.570308 119.796875,225.507812 L119.796875,232 L118.570312,232 L118.570312,220.578125 L120.070312,220.578125 L126.296875,230.125 L126.359375,230.125 C126.348958,229.984374 126.325521,229.532556 126.289062,228.769531 C126.252604,228.006507 126.239583,227.460939 126.25,227.132812 L126.25,220.578125 L127.492188,220.578125 L127.492188,232 Z M137.828125,227.710938 C137.828125,229.106778 137.476566,230.196611 136.773438,230.980469 C136.070309,231.764327 135.098965,232.15625 133.859375,232.15625 C133.093746,232.15625 132.414065,231.976564 131.820312,231.617188 C131.22656,231.257811 130.768231,230.742191 130.445312,230.070312 C130.122394,229.398434 129.960938,228.611984 129.960938,227.710938 C129.960938,226.315097 130.309892,225.227868 131.007812,224.449219 C131.705733,223.670569 132.674473,223.28125 133.914062,223.28125 C135.111985,223.28125 136.063799,223.679684 136.769531,224.476562 C137.475264,225.273441 137.828125,226.351556 137.828125,227.710938 L137.828125,227.710938 Z M131.304688,227.710938 C131.304688,228.804693 131.523435,229.638018 131.960938,230.210938 C132.39844,230.783857 133.041662,231.070312 133.890625,231.070312 C134.739588,231.070312 135.384112,230.785159 135.824219,230.214844 C136.264325,229.644528 136.484375,228.809901 136.484375,227.710938 C136.484375,226.62239 136.264325,225.795576 135.824219,225.230469 C135.384112,224.665362 134.734379,224.382812 133.875,224.382812 C133.026037,224.382812 132.385419,224.661456 131.953125,225.21875 C131.520831,225.776044 131.304688,226.606765 131.304688,227.710938 L131.304688,227.710938 Z M141.65625,232 L138.40625,223.4375 L139.796875,223.4375 L141.640625,228.515625 C142.057294,229.703131 142.302083,230.473957 142.375,230.828125 L142.4375,230.828125 C142.494792,230.552082 142.67578,229.980473 142.980469,229.113281 C143.285158,228.246089 143.968745,226.354181 145.03125,223.4375 L146.421875,223.4375 L143.171875,232 L141.65625,232 Z" id="Nov" fill="#FFFFFF"></path>
                <path d="M128.6875,270.179688 C128.6875,272.065114 128.175786,273.506505 127.152344,274.503906 C126.128901,275.501307 124.65626,276 122.734375,276 L119.570312,276 L119.570312,264.578125 L123.070312,264.578125 C124.846363,264.578125 126.226558,265.070308 127.210938,266.054688 C128.195317,267.039067 128.6875,268.414054 128.6875,270.179688 L128.6875,270.179688 Z M127.28125,270.226562 C127.28125,268.736972 126.907556,267.614587 126.160156,266.859375 C125.412757,266.104163 124.302091,265.726562 122.828125,265.726562 L120.898438,265.726562 L120.898438,274.851562 L122.515625,274.851562 C124.098966,274.851562 125.289059,274.462243 126.085938,273.683594 C126.882816,272.904944 127.28125,271.752612 127.28125,270.226562 L127.28125,270.226562 Z M134.65625,276.15625 C133.390619,276.15625 132.391931,275.770837 131.660156,275 C130.928382,274.229163 130.5625,273.158861 130.5625,271.789062 C130.5625,270.408847 130.90234,269.312504 131.582031,268.5 C132.261722,267.687496 133.174473,267.28125 134.320312,267.28125 C135.393235,267.28125 136.242184,267.634111 136.867188,268.339844 C137.492191,269.045576 137.804688,269.976557 137.804688,271.132812 L137.804688,271.953125 L131.90625,271.953125 C131.932292,272.958338 132.186196,273.721352 132.667969,274.242188 C133.149742,274.763023 133.828121,275.023438 134.703125,275.023438 C135.625005,275.023438 136.536454,274.830731 137.4375,274.445312 L137.4375,275.601562 C136.979164,275.79948 136.545575,275.941406 136.136719,276.027344 C135.727863,276.113282 135.234378,276.15625 134.65625,276.15625 L134.65625,276.15625 Z M134.304688,268.367188 C133.617184,268.367188 133.069012,268.591144 132.660156,269.039062 C132.2513,269.486981 132.010417,270.106767 131.9375,270.898438 L136.414062,270.898438 C136.414062,270.080725 136.231773,269.454429 135.867188,269.019531 C135.502602,268.584633 134.981774,268.367188 134.304688,268.367188 L134.304688,268.367188 Z M143.4375,276.15625 C142.19791,276.15625 141.238285,275.774743 140.558594,275.011719 C139.878903,274.248694 139.539062,273.169278 139.539062,271.773438 C139.539062,270.341139 139.884111,269.234379 140.574219,268.453125 C141.264326,267.671871 142.247389,267.28125 143.523438,267.28125 C143.934898,267.28125 144.346352,267.32552 144.757812,267.414062 C145.169273,267.502605 145.492186,267.60677 145.726562,267.726562 L145.328125,268.828125 C145.041665,268.713541 144.729168,268.61849 144.390625,268.542969 C144.052082,268.467448 143.752605,268.429688 143.492188,268.429688 C141.752595,268.429688 140.882812,269.539051 140.882812,271.757812 C140.882812,272.809901 141.09505,273.617185 141.519531,274.179688 C141.944013,274.74219 142.572913,275.023438 143.40625,275.023438 C144.119795,275.023438 144.851559,274.869793 145.601562,274.5625 L145.601562,275.710938 C145.028643,276.007814 144.307296,276.15625 143.4375,276.15625 L143.4375,276.15625 Z" id="Dec" fill="#4A4A4A"></path>
                <path d="M233.289062,99 L225.78125,99 L225.78125,97.8828125 L228.789062,94.859375 C229.705734,93.932287 230.309894,93.2708353 230.601562,92.875 C230.893231,92.4791647 231.111978,92.0937519 231.257812,91.71875 C231.403647,91.3437481 231.476562,90.9401063 231.476562,90.5078125 C231.476562,89.8984345 231.291669,89.4153664 230.921875,89.0585938 C230.552081,88.7018211 230.039066,88.5234375 229.382812,88.5234375 C228.908852,88.5234375 228.459638,88.6015617 228.035156,88.7578125 C227.610675,88.9140633 227.138023,89.1979146 226.617188,89.609375 L225.929688,88.7265625 C226.981776,87.8515581 228.127598,87.4140625 229.367188,87.4140625 C230.44011,87.4140625 231.281247,87.6887993 231.890625,88.2382812 C232.500003,88.7877632 232.804688,89.526037 232.804688,90.453125 C232.804688,91.177087 232.601565,91.8932256 232.195312,92.6015625 C231.78906,93.3098994 231.028651,94.2057238 229.914062,95.2890625 L227.414062,97.734375 L227.414062,97.796875 L233.289062,97.796875 L233.289062,99 Z M242.5,93.2734375 C242.5,95.2474057 242.188805,96.7213493 241.566406,97.6953125 C240.944007,98.6692757 239.992194,99.15625 238.710938,99.15625 C237.481765,99.15625 236.546878,98.6575571 235.90625,97.6601562 C235.265622,96.6627554 234.945312,95.2005305 234.945312,93.2734375 C234.945312,91.2838442 235.255205,89.8072965 235.875,88.84375 C236.494795,87.8802035 237.440098,87.3984375 238.710938,87.3984375 C239.950527,87.3984375 240.891924,87.9010366 241.535156,88.90625 C242.178389,89.9114634 242.5,91.367178 242.5,93.2734375 L242.5,93.2734375 Z M236.257812,93.2734375 C236.257812,94.9349041 236.453123,96.1445275 236.84375,96.9023438 C237.234377,97.66016 237.856767,98.0390625 238.710938,98.0390625 C239.575525,98.0390625 240.201821,97.6549518 240.589844,96.8867188 C240.977867,96.1184857 241.171875,94.9140707 241.171875,93.2734375 C241.171875,91.6328043 240.977867,90.4309934 240.589844,89.6679688 C240.201821,88.9049441 239.575525,88.5234375 238.710938,88.5234375 C237.856767,88.5234375 237.234377,88.8997358 236.84375,89.6523438 C236.453123,90.4049517 236.257812,91.6119709 236.257812,93.2734375 L236.257812,93.2734375 Z M248.882812,99 L247.617188,99 L247.617188,90.859375 C247.617188,90.1822883 247.638021,89.5416697 247.679688,88.9375 C247.570312,89.0468755 247.447917,89.1614577 247.3125,89.28125 C247.177083,89.4010423 246.557297,89.9088497 245.453125,90.8046875 L244.765625,89.9140625 L247.789062,87.578125 L248.882812,87.578125 L248.882812,99 Z M260.734375,99 L253.226562,99 L253.226562,97.8828125 L256.234375,94.859375 C257.151046,93.932287 257.755207,93.2708353 258.046875,92.875 C258.338543,92.4791647 258.557291,92.0937519 258.703125,91.71875 C258.848959,91.3437481 258.921875,90.9401063 258.921875,90.5078125 C258.921875,89.8984345 258.736981,89.4153664 258.367188,89.0585938 C257.997394,88.7018211 257.484378,88.5234375 256.828125,88.5234375 C256.354164,88.5234375 255.90495,88.6015617 255.480469,88.7578125 C255.055987,88.9140633 254.583336,89.1979146 254.0625,89.609375 L253.375,88.7265625 C254.427089,87.8515581 255.57291,87.4140625 256.8125,87.4140625 C257.885422,87.4140625 258.726559,87.6887993 259.335938,88.2382812 C259.945316,88.7877632 260.25,89.526037 260.25,90.453125 C260.25,91.177087 260.046877,91.8932256 259.640625,92.6015625 C259.234373,93.3098994 258.473964,94.2057238 257.359375,95.2890625 L254.859375,97.734375 L254.859375,97.796875 L260.734375,97.796875 L260.734375,99 Z" id="2012" fill="#4A4A4A"></path>
                <path d="M233.289062,143 L225.78125,143 L225.78125,141.882812 L228.789062,138.859375 C229.705734,137.932287 230.309894,137.270835 230.601562,136.875 C230.893231,136.479165 231.111978,136.093752 231.257812,135.71875 C231.403647,135.343748 231.476562,134.940106 231.476562,134.507812 C231.476562,133.898434 231.291669,133.415366 230.921875,133.058594 C230.552081,132.701821 230.039066,132.523438 229.382812,132.523438 C228.908852,132.523438 228.459638,132.601562 228.035156,132.757812 C227.610675,132.914063 227.138023,133.197915 226.617188,133.609375 L225.929688,132.726562 C226.981776,131.851558 228.127598,131.414062 229.367188,131.414062 C230.44011,131.414062 231.281247,131.688799 231.890625,132.238281 C232.500003,132.787763 232.804688,133.526037 232.804688,134.453125 C232.804688,135.177087 232.601565,135.893226 232.195312,136.601562 C231.78906,137.309899 231.028651,138.205724 229.914062,139.289062 L227.414062,141.734375 L227.414062,141.796875 L233.289062,141.796875 L233.289062,143 Z M242.5,137.273438 C242.5,139.247406 242.188805,140.721349 241.566406,141.695312 C240.944007,142.669276 239.992194,143.15625 238.710938,143.15625 C237.481765,143.15625 236.546878,142.657557 235.90625,141.660156 C235.265622,140.662755 234.945312,139.20053 234.945312,137.273438 C234.945312,135.283844 235.255205,133.807296 235.875,132.84375 C236.494795,131.880204 237.440098,131.398438 238.710938,131.398438 C239.950527,131.398438 240.891924,131.901037 241.535156,132.90625 C242.178389,133.911463 242.5,135.367178 242.5,137.273438 L242.5,137.273438 Z M236.257812,137.273438 C236.257812,138.934904 236.453123,140.144527 236.84375,140.902344 C237.234377,141.66016 237.856767,142.039062 238.710938,142.039062 C239.575525,142.039062 240.201821,141.654952 240.589844,140.886719 C240.977867,140.118486 241.171875,138.914071 241.171875,137.273438 C241.171875,135.632804 240.977867,134.430993 240.589844,133.667969 C240.201821,132.904944 239.575525,132.523438 238.710938,132.523438 C237.856767,132.523438 237.234377,132.899736 236.84375,133.652344 C236.453123,134.404952 236.257812,135.611971 236.257812,137.273438 L236.257812,137.273438 Z M248.882812,143 L247.617188,143 L247.617188,134.859375 C247.617188,134.182288 247.638021,133.54167 247.679688,132.9375 C247.570312,133.046876 247.447917,133.161458 247.3125,133.28125 C247.177083,133.401042 246.557297,133.90885 245.453125,134.804688 L244.765625,133.914062 L247.789062,131.578125 L248.882812,131.578125 L248.882812,143 Z M260.304688,134.265625 C260.304688,134.994795 260.100262,135.591144 259.691406,136.054688 C259.28255,136.518231 258.703129,136.828124 257.953125,136.984375 L257.953125,137.046875 C258.869796,137.161459 259.549477,137.453123 259.992188,137.921875 C260.434898,138.390627 260.65625,139.005205 260.65625,139.765625 C260.65625,140.854172 260.27865,141.691403 259.523438,142.277344 C258.768225,142.863284 257.695319,143.15625 256.304688,143.15625 C255.700518,143.15625 255.147138,143.110678 254.644531,143.019531 C254.141925,142.928385 253.653648,142.76823 253.179688,142.539062 L253.179688,141.304688 C253.674482,141.54948 254.20182,141.735676 254.761719,141.863281 C255.321617,141.990886 255.85156,142.054688 256.351562,142.054688 C258.325531,142.054688 259.3125,141.281258 259.3125,139.734375 C259.3125,138.348951 258.223969,137.65625 256.046875,137.65625 L254.921875,137.65625 L254.921875,136.539062 L256.0625,136.539062 C256.953129,136.539062 257.658852,136.34245 258.179688,135.949219 C258.700523,135.555988 258.960938,135.01042 258.960938,134.3125 C258.960938,133.755206 258.769533,133.31771 258.386719,133 C258.003904,132.68229 257.484378,132.523438 256.828125,132.523438 C256.328122,132.523438 255.856773,132.591145 255.414062,132.726562 C254.971352,132.86198 254.466149,133.111977 253.898438,133.476562 L253.242188,132.601562 C253.71094,132.231769 254.251299,131.941407 254.863281,131.730469 C255.475263,131.51953 256.119788,131.414062 256.796875,131.414062 C257.906256,131.414062 258.768226,131.667966 259.382812,132.175781 C259.997399,132.683596 260.304688,133.380204 260.304688,134.265625 L260.304688,134.265625 Z" id="2013" fill="#4A4A4A"></path>
                <path d="M233.289062,187 L225.78125,187 L225.78125,185.882812 L228.789062,182.859375 C229.705734,181.932287 230.309894,181.270835 230.601562,180.875 C230.893231,180.479165 231.111978,180.093752 231.257812,179.71875 C231.403647,179.343748 231.476562,178.940106 231.476562,178.507812 C231.476562,177.898434 231.291669,177.415366 230.921875,177.058594 C230.552081,176.701821 230.039066,176.523438 229.382812,176.523438 C228.908852,176.523438 228.459638,176.601562 228.035156,176.757812 C227.610675,176.914063 227.138023,177.197915 226.617188,177.609375 L225.929688,176.726562 C226.981776,175.851558 228.127598,175.414062 229.367188,175.414062 C230.44011,175.414062 231.281247,175.688799 231.890625,176.238281 C232.500003,176.787763 232.804688,177.526037 232.804688,178.453125 C232.804688,179.177087 232.601565,179.893226 232.195312,180.601562 C231.78906,181.309899 231.028651,182.205724 229.914062,183.289062 L227.414062,185.734375 L227.414062,185.796875 L233.289062,185.796875 L233.289062,187 Z M242.5,181.273438 C242.5,183.247406 242.188805,184.721349 241.566406,185.695312 C240.944007,186.669276 239.992194,187.15625 238.710938,187.15625 C237.481765,187.15625 236.546878,186.657557 235.90625,185.660156 C235.265622,184.662755 234.945312,183.20053 234.945312,181.273438 C234.945312,179.283844 235.255205,177.807296 235.875,176.84375 C236.494795,175.880204 237.440098,175.398438 238.710938,175.398438 C239.950527,175.398438 240.891924,175.901037 241.535156,176.90625 C242.178389,177.911463 242.5,179.367178 242.5,181.273438 L242.5,181.273438 Z M236.257812,181.273438 C236.257812,182.934904 236.453123,184.144527 236.84375,184.902344 C237.234377,185.66016 237.856767,186.039062 238.710938,186.039062 C239.575525,186.039062 240.201821,185.654952 240.589844,184.886719 C240.977867,184.118486 241.171875,182.914071 241.171875,181.273438 C241.171875,179.632804 240.977867,178.430993 240.589844,177.667969 C240.201821,176.904944 239.575525,176.523438 238.710938,176.523438 C237.856767,176.523438 237.234377,176.899736 236.84375,177.652344 C236.453123,178.404952 236.257812,179.611971 236.257812,181.273438 L236.257812,181.273438 Z M248.882812,187 L247.617188,187 L247.617188,178.859375 C247.617188,178.182288 247.638021,177.54167 247.679688,176.9375 C247.570312,177.046876 247.447917,177.161458 247.3125,177.28125 C247.177083,177.401042 246.557297,177.90885 245.453125,178.804688 L244.765625,177.914062 L247.789062,175.578125 L248.882812,175.578125 L248.882812,187 Z M261.273438,184.375 L259.578125,184.375 L259.578125,187 L258.335938,187 L258.335938,184.375 L252.78125,184.375 L252.78125,183.242188 L258.203125,175.515625 L259.578125,175.515625 L259.578125,183.195312 L261.273438,183.195312 L261.273438,184.375 Z M258.335938,183.195312 L258.335938,179.398438 C258.335938,178.653642 258.361979,177.812505 258.414062,176.875 L258.351562,176.875 C258.101561,177.375002 257.867189,177.789061 257.648438,178.117188 L254.078125,183.195312 L258.335938,183.195312 Z" id="2014" fill="#4A4A4A"></path>
                <path d="M233.289062,231 L225.78125,231 L225.78125,229.882812 L228.789062,226.859375 C229.705734,225.932287 230.309894,225.270835 230.601562,224.875 C230.893231,224.479165 231.111978,224.093752 231.257812,223.71875 C231.403647,223.343748 231.476562,222.940106 231.476562,222.507812 C231.476562,221.898434 231.291669,221.415366 230.921875,221.058594 C230.552081,220.701821 230.039066,220.523438 229.382812,220.523438 C228.908852,220.523438 228.459638,220.601562 228.035156,220.757812 C227.610675,220.914063 227.138023,221.197915 226.617188,221.609375 L225.929688,220.726562 C226.981776,219.851558 228.127598,219.414062 229.367188,219.414062 C230.44011,219.414062 231.281247,219.688799 231.890625,220.238281 C232.500003,220.787763 232.804688,221.526037 232.804688,222.453125 C232.804688,223.177087 232.601565,223.893226 232.195312,224.601562 C231.78906,225.309899 231.028651,226.205724 229.914062,227.289062 L227.414062,229.734375 L227.414062,229.796875 L233.289062,229.796875 L233.289062,231 Z M242.5,225.273438 C242.5,227.247406 242.188805,228.721349 241.566406,229.695312 C240.944007,230.669276 239.992194,231.15625 238.710938,231.15625 C237.481765,231.15625 236.546878,230.657557 235.90625,229.660156 C235.265622,228.662755 234.945312,227.20053 234.945312,225.273438 C234.945312,223.283844 235.255205,221.807296 235.875,220.84375 C236.494795,219.880204 237.440098,219.398438 238.710938,219.398438 C239.950527,219.398438 240.891924,219.901037 241.535156,220.90625 C242.178389,221.911463 242.5,223.367178 242.5,225.273438 L242.5,225.273438 Z M236.257812,225.273438 C236.257812,226.934904 236.453123,228.144527 236.84375,228.902344 C237.234377,229.66016 237.856767,230.039062 238.710938,230.039062 C239.575525,230.039062 240.201821,229.654952 240.589844,228.886719 C240.977867,228.118486 241.171875,226.914071 241.171875,225.273438 C241.171875,223.632804 240.977867,222.430993 240.589844,221.667969 C240.201821,220.904944 239.575525,220.523438 238.710938,220.523438 C237.856767,220.523438 237.234377,220.899736 236.84375,221.652344 C236.453123,222.404952 236.257812,223.611971 236.257812,225.273438 L236.257812,225.273438 Z M248.882812,231 L247.617188,231 L247.617188,222.859375 C247.617188,222.182288 247.638021,221.54167 247.679688,220.9375 C247.570312,221.046876 247.447917,221.161458 247.3125,221.28125 C247.177083,221.401042 246.557297,221.90885 245.453125,222.804688 L244.765625,221.914062 L247.789062,219.578125 L248.882812,219.578125 L248.882812,231 Z M256.796875,224.023438 C258.000006,224.023438 258.946611,224.321612 259.636719,224.917969 C260.326826,225.514326 260.671875,226.330724 260.671875,227.367188 C260.671875,228.549485 260.295577,229.476559 259.542969,230.148438 C258.790361,230.820316 257.752611,231.15625 256.429688,231.15625 C255.143223,231.15625 254.161462,230.950523 253.484375,230.539062 L253.484375,229.289062 C253.84896,229.523439 254.302081,229.707031 254.84375,229.839844 C255.385419,229.972657 255.919268,230.039062 256.445312,230.039062 C257.361984,230.039062 258.074216,229.822919 258.582031,229.390625 C259.089846,228.958331 259.34375,228.333337 259.34375,227.515625 C259.34375,225.921867 258.367197,225.125 256.414062,225.125 C255.919268,225.125 255.257817,225.20052 254.429688,225.351562 L253.757812,224.921875 L254.1875,219.578125 L259.867188,219.578125 L259.867188,220.773438 L255.296875,220.773438 L255.007812,224.203125 C255.606774,224.083333 256.203122,224.023438 256.796875,224.023438 L256.796875,224.023438 Z" id="2015" fill="#4A4A4A"></path>
                <path d="M233.289062,275 L225.78125,275 L225.78125,273.882812 L228.789062,270.859375 C229.705734,269.932287 230.309894,269.270835 230.601562,268.875 C230.893231,268.479165 231.111978,268.093752 231.257812,267.71875 C231.403647,267.343748 231.476562,266.940106 231.476562,266.507812 C231.476562,265.898434 231.291669,265.415366 230.921875,265.058594 C230.552081,264.701821 230.039066,264.523438 229.382812,264.523438 C228.908852,264.523438 228.459638,264.601562 228.035156,264.757812 C227.610675,264.914063 227.138023,265.197915 226.617188,265.609375 L225.929688,264.726562 C226.981776,263.851558 228.127598,263.414062 229.367188,263.414062 C230.44011,263.414062 231.281247,263.688799 231.890625,264.238281 C232.500003,264.787763 232.804688,265.526037 232.804688,266.453125 C232.804688,267.177087 232.601565,267.893226 232.195312,268.601562 C231.78906,269.309899 231.028651,270.205724 229.914062,271.289062 L227.414062,273.734375 L227.414062,273.796875 L233.289062,273.796875 L233.289062,275 Z M242.5,269.273438 C242.5,271.247406 242.188805,272.721349 241.566406,273.695312 C240.944007,274.669276 239.992194,275.15625 238.710938,275.15625 C237.481765,275.15625 236.546878,274.657557 235.90625,273.660156 C235.265622,272.662755 234.945312,271.20053 234.945312,269.273438 C234.945312,267.283844 235.255205,265.807296 235.875,264.84375 C236.494795,263.880204 237.440098,263.398438 238.710938,263.398438 C239.950527,263.398438 240.891924,263.901037 241.535156,264.90625 C242.178389,265.911463 242.5,267.367178 242.5,269.273438 L242.5,269.273438 Z M236.257812,269.273438 C236.257812,270.934904 236.453123,272.144527 236.84375,272.902344 C237.234377,273.66016 237.856767,274.039062 238.710938,274.039062 C239.575525,274.039062 240.201821,273.654952 240.589844,272.886719 C240.977867,272.118486 241.171875,270.914071 241.171875,269.273438 C241.171875,267.632804 240.977867,266.430993 240.589844,265.667969 C240.201821,264.904944 239.575525,264.523438 238.710938,264.523438 C237.856767,264.523438 237.234377,264.899736 236.84375,265.652344 C236.453123,266.404952 236.257812,267.611971 236.257812,269.273438 L236.257812,269.273438 Z M248.882812,275 L247.617188,275 L247.617188,266.859375 C247.617188,266.182288 247.638021,265.54167 247.679688,264.9375 C247.570312,265.046876 247.447917,265.161458 247.3125,265.28125 C247.177083,265.401042 246.557297,265.90885 245.453125,266.804688 L244.765625,265.914062 L247.789062,263.578125 L248.882812,263.578125 L248.882812,275 Z M253.359375,270.117188 C253.359375,267.872385 253.795569,266.194016 254.667969,265.082031 C255.540369,263.970047 256.830721,263.414062 258.539062,263.414062 C259.127607,263.414062 259.591144,263.463541 259.929688,263.5625 L259.929688,264.679688 C259.528644,264.549479 259.070315,264.484375 258.554688,264.484375 C257.330723,264.484375 256.395837,264.865882 255.75,265.628906 C255.104163,266.391931 254.75,267.591138 254.6875,269.226562 L254.78125,269.226562 C255.35417,268.330725 256.26041,267.882812 257.5,267.882812 C258.526047,267.882812 259.334632,268.192705 259.925781,268.8125 C260.51693,269.432295 260.8125,270.273432 260.8125,271.335938 C260.8125,272.523443 260.488284,273.457028 259.839844,274.136719 C259.191403,274.81641 258.31511,275.15625 257.210938,275.15625 C256.02864,275.15625 255.091149,274.712244 254.398438,273.824219 C253.705726,272.936193 253.359375,271.700529 253.359375,270.117188 L253.359375,270.117188 Z M257.195312,274.054688 C257.9349,274.054688 258.509113,273.821617 258.917969,273.355469 C259.326825,272.889321 259.53125,272.21615 259.53125,271.335938 C259.53125,270.580725 259.341148,269.986981 258.960938,269.554688 C258.580727,269.122394 258.013025,268.90625 257.257812,268.90625 C256.78906,268.90625 256.359377,269.002603 255.96875,269.195312 C255.578123,269.388022 255.266928,269.653644 255.035156,269.992188 C254.803384,270.330731 254.6875,270.68229 254.6875,271.046875 C254.6875,271.583336 254.791666,272.083331 255,272.546875 C255.208334,273.010419 255.503904,273.377603 255.886719,273.648438 C256.269533,273.919272 256.705727,274.054688 257.195312,274.054688 L257.195312,274.054688 Z" id="2016" fill="#FFFFFF"></path>
                <path d="M310.289062,99 L302.78125,99 L302.78125,97.8828125 L305.789062,94.859375 C306.705734,93.932287 307.309894,93.2708353 307.601562,92.875 C307.893231,92.4791647 308.111978,92.0937519 308.257812,91.71875 C308.403647,91.3437481 308.476562,90.9401063 308.476562,90.5078125 C308.476562,89.8984345 308.291669,89.4153664 307.921875,89.0585938 C307.552081,88.7018211 307.039066,88.5234375 306.382812,88.5234375 C305.908852,88.5234375 305.459638,88.6015617 305.035156,88.7578125 C304.610675,88.9140633 304.138023,89.1979146 303.617188,89.609375 L302.929688,88.7265625 C303.981776,87.8515581 305.127598,87.4140625 306.367188,87.4140625 C307.44011,87.4140625 308.281247,87.6887993 308.890625,88.2382812 C309.500003,88.7877632 309.804688,89.526037 309.804688,90.453125 C309.804688,91.177087 309.601565,91.8932256 309.195312,92.6015625 C308.78906,93.3098994 308.028651,94.2057238 306.914062,95.2890625 L304.414062,97.734375 L304.414062,97.796875 L310.289062,97.796875 L310.289062,99 Z M319.5,93.2734375 C319.5,95.2474057 319.188805,96.7213493 318.566406,97.6953125 C317.944007,98.6692757 316.992194,99.15625 315.710938,99.15625 C314.481765,99.15625 313.546878,98.6575571 312.90625,97.6601562 C312.265622,96.6627554 311.945312,95.2005305 311.945312,93.2734375 C311.945312,91.2838442 312.255205,89.8072965 312.875,88.84375 C313.494795,87.8802035 314.440098,87.3984375 315.710938,87.3984375 C316.950527,87.3984375 317.891924,87.9010366 318.535156,88.90625 C319.178389,89.9114634 319.5,91.367178 319.5,93.2734375 L319.5,93.2734375 Z M313.257812,93.2734375 C313.257812,94.9349041 313.453123,96.1445275 313.84375,96.9023438 C314.234377,97.66016 314.856767,98.0390625 315.710938,98.0390625 C316.575525,98.0390625 317.201821,97.6549518 317.589844,96.8867188 C317.977867,96.1184857 318.171875,94.9140707 318.171875,93.2734375 C318.171875,91.6328043 317.977867,90.4309934 317.589844,89.6679688 C317.201821,88.9049441 316.575525,88.5234375 315.710938,88.5234375 C314.856767,88.5234375 314.234377,88.8997358 313.84375,89.6523438 C313.453123,90.4049517 313.257812,91.6119709 313.257812,93.2734375 L313.257812,93.2734375 Z M325.882812,99 L324.617188,99 L324.617188,90.859375 C324.617188,90.1822883 324.638021,89.5416697 324.679688,88.9375 C324.570312,89.0468755 324.447917,89.1614577 324.3125,89.28125 C324.177083,89.4010423 323.557297,89.9088497 322.453125,90.8046875 L321.765625,89.9140625 L324.789062,87.578125 L325.882812,87.578125 L325.882812,99 Z M331.671875,99 L336.40625,88.7734375 L330.179688,88.7734375 L330.179688,87.578125 L337.78125,87.578125 L337.78125,88.6171875 L333.109375,99 L331.671875,99 Z" id="2017" fill="#4A4A4A"></path>
                <path d="M310.289062,143 L302.78125,143 L302.78125,141.882812 L305.789062,138.859375 C306.705734,137.932287 307.309894,137.270835 307.601562,136.875 C307.893231,136.479165 308.111978,136.093752 308.257812,135.71875 C308.403647,135.343748 308.476562,134.940106 308.476562,134.507812 C308.476562,133.898434 308.291669,133.415366 307.921875,133.058594 C307.552081,132.701821 307.039066,132.523438 306.382812,132.523438 C305.908852,132.523438 305.459638,132.601562 305.035156,132.757812 C304.610675,132.914063 304.138023,133.197915 303.617188,133.609375 L302.929688,132.726562 C303.981776,131.851558 305.127598,131.414062 306.367188,131.414062 C307.44011,131.414062 308.281247,131.688799 308.890625,132.238281 C309.500003,132.787763 309.804688,133.526037 309.804688,134.453125 C309.804688,135.177087 309.601565,135.893226 309.195312,136.601562 C308.78906,137.309899 308.028651,138.205724 306.914062,139.289062 L304.414062,141.734375 L304.414062,141.796875 L310.289062,141.796875 L310.289062,143 Z M319.5,137.273438 C319.5,139.247406 319.188805,140.721349 318.566406,141.695312 C317.944007,142.669276 316.992194,143.15625 315.710938,143.15625 C314.481765,143.15625 313.546878,142.657557 312.90625,141.660156 C312.265622,140.662755 311.945312,139.20053 311.945312,137.273438 C311.945312,135.283844 312.255205,133.807296 312.875,132.84375 C313.494795,131.880204 314.440098,131.398438 315.710938,131.398438 C316.950527,131.398438 317.891924,131.901037 318.535156,132.90625 C319.178389,133.911463 319.5,135.367178 319.5,137.273438 L319.5,137.273438 Z M313.257812,137.273438 C313.257812,138.934904 313.453123,140.144527 313.84375,140.902344 C314.234377,141.66016 314.856767,142.039062 315.710938,142.039062 C316.575525,142.039062 317.201821,141.654952 317.589844,140.886719 C317.977867,140.118486 318.171875,138.914071 318.171875,137.273438 C318.171875,135.632804 317.977867,134.430993 317.589844,133.667969 C317.201821,132.904944 316.575525,132.523438 315.710938,132.523438 C314.856767,132.523438 314.234377,132.899736 313.84375,133.652344 C313.453123,134.404952 313.257812,135.611971 313.257812,137.273438 L313.257812,137.273438 Z M325.882812,143 L324.617188,143 L324.617188,134.859375 C324.617188,134.182288 324.638021,133.54167 324.679688,132.9375 C324.570312,133.046876 324.447917,133.161458 324.3125,133.28125 C324.177083,133.401042 323.557297,133.90885 322.453125,134.804688 L321.765625,133.914062 L324.789062,131.578125 L325.882812,131.578125 L325.882812,143 Z M334.007812,131.414062 C335.049484,131.414062 335.874997,131.656248 336.484375,132.140625 C337.093753,132.625002 337.398438,133.294267 337.398438,134.148438 C337.398438,134.71094 337.22396,135.223956 336.875,135.6875 C336.52604,136.151044 335.968754,136.572915 335.203125,136.953125 C336.130213,137.395836 336.789061,137.860675 337.179688,138.347656 C337.570314,138.834638 337.765625,139.398434 337.765625,140.039062 C337.765625,140.986984 337.434899,141.743487 336.773438,142.308594 C336.111976,142.873701 335.205735,143.15625 334.054688,143.15625 C332.835931,143.15625 331.898441,142.889326 331.242188,142.355469 C330.585934,141.821612 330.257812,141.065109 330.257812,140.085938 C330.257812,138.778639 331.05468,137.76042 332.648438,137.03125 C331.929684,136.624998 331.414064,136.1862 331.101562,135.714844 C330.789061,135.243487 330.632812,134.716149 330.632812,134.132812 C330.632812,133.304683 330.938799,132.644534 331.550781,132.152344 C332.162763,131.660154 332.981766,131.414062 334.007812,131.414062 L334.007812,131.414062 Z M331.539062,140.117188 C331.539062,140.742191 331.756508,141.229165 332.191406,141.578125 C332.626304,141.927085 333.236975,142.101562 334.023438,142.101562 C334.799483,142.101562 335.403644,141.919273 335.835938,141.554688 C336.268231,141.190102 336.484375,140.690107 336.484375,140.054688 C336.484375,139.549477 336.281252,139.100262 335.875,138.707031 C335.468748,138.3138 334.760422,137.932294 333.75,137.5625 C332.973954,137.895835 332.41146,138.264321 332.0625,138.667969 C331.71354,139.071617 331.539062,139.554685 331.539062,140.117188 L331.539062,140.117188 Z M333.992188,132.46875 C333.341143,132.46875 332.830731,132.624998 332.460938,132.9375 C332.091144,133.250002 331.90625,133.666664 331.90625,134.1875 C331.90625,134.666669 332.059894,135.078123 332.367188,135.421875 C332.674481,135.765627 333.242183,136.109373 334.070312,136.453125 C334.815108,136.140623 335.342446,135.804689 335.652344,135.445312 C335.962241,135.085936 336.117188,134.666669 336.117188,134.1875 C336.117188,133.661456 335.928387,133.243491 335.550781,132.933594 C335.173175,132.623696 334.653649,132.46875 333.992188,132.46875 L333.992188,132.46875 Z" id="2018" fill="#4A4A4A"></path>
                <path d="M310.289062,187 L302.78125,187 L302.78125,185.882812 L305.789062,182.859375 C306.705734,181.932287 307.309894,181.270835 307.601562,180.875 C307.893231,180.479165 308.111978,180.093752 308.257812,179.71875 C308.403647,179.343748 308.476562,178.940106 308.476562,178.507812 C308.476562,177.898434 308.291669,177.415366 307.921875,177.058594 C307.552081,176.701821 307.039066,176.523438 306.382812,176.523438 C305.908852,176.523438 305.459638,176.601562 305.035156,176.757812 C304.610675,176.914063 304.138023,177.197915 303.617188,177.609375 L302.929688,176.726562 C303.981776,175.851558 305.127598,175.414062 306.367188,175.414062 C307.44011,175.414062 308.281247,175.688799 308.890625,176.238281 C309.500003,176.787763 309.804688,177.526037 309.804688,178.453125 C309.804688,179.177087 309.601565,179.893226 309.195312,180.601562 C308.78906,181.309899 308.028651,182.205724 306.914062,183.289062 L304.414062,185.734375 L304.414062,185.796875 L310.289062,185.796875 L310.289062,187 Z M319.5,181.273438 C319.5,183.247406 319.188805,184.721349 318.566406,185.695312 C317.944007,186.669276 316.992194,187.15625 315.710938,187.15625 C314.481765,187.15625 313.546878,186.657557 312.90625,185.660156 C312.265622,184.662755 311.945312,183.20053 311.945312,181.273438 C311.945312,179.283844 312.255205,177.807296 312.875,176.84375 C313.494795,175.880204 314.440098,175.398438 315.710938,175.398438 C316.950527,175.398438 317.891924,175.901037 318.535156,176.90625 C319.178389,177.911463 319.5,179.367178 319.5,181.273438 L319.5,181.273438 Z M313.257812,181.273438 C313.257812,182.934904 313.453123,184.144527 313.84375,184.902344 C314.234377,185.66016 314.856767,186.039062 315.710938,186.039062 C316.575525,186.039062 317.201821,185.654952 317.589844,184.886719 C317.977867,184.118486 318.171875,182.914071 318.171875,181.273438 C318.171875,179.632804 317.977867,178.430993 317.589844,177.667969 C317.201821,176.904944 316.575525,176.523438 315.710938,176.523438 C314.856767,176.523438 314.234377,176.899736 313.84375,177.652344 C313.453123,178.404952 313.257812,179.611971 313.257812,181.273438 L313.257812,181.273438 Z M325.882812,187 L324.617188,187 L324.617188,178.859375 C324.617188,178.182288 324.638021,177.54167 324.679688,176.9375 C324.570312,177.046876 324.447917,177.161458 324.3125,177.28125 C324.177083,177.401042 323.557297,177.90885 322.453125,178.804688 L321.765625,177.914062 L324.789062,175.578125 L325.882812,175.578125 L325.882812,187 Z M337.734375,180.453125 C337.734375,184.921897 336.005226,187.15625 332.546875,187.15625 C331.942705,187.15625 331.463543,187.104167 331.109375,187 L331.109375,185.882812 C331.526044,186.01823 331.999997,186.085938 332.53125,186.085938 C333.781256,186.085938 334.725257,185.699223 335.363281,184.925781 C336.001305,184.15234 336.348958,182.966154 336.40625,181.367188 L336.3125,181.367188 C336.02604,181.799481 335.645836,182.128905 335.171875,182.355469 C334.697914,182.582032 334.164065,182.695312 333.570312,182.695312 C332.559891,182.695312 331.757815,182.393232 331.164062,181.789062 C330.57031,181.184893 330.273438,180.341151 330.273438,179.257812 C330.273438,178.070307 330.605465,177.132816 331.269531,176.445312 C331.933597,175.757809 332.807286,175.414062 333.890625,175.414062 C334.666671,175.414062 335.345049,175.613279 335.925781,176.011719 C336.506513,176.410158 336.953123,176.990882 337.265625,177.753906 C337.578127,178.516931 337.734375,179.416661 337.734375,180.453125 L337.734375,180.453125 Z M333.890625,176.523438 C333.14583,176.523438 332.570315,176.763018 332.164062,177.242188 C331.75781,177.721357 331.554688,178.388017 331.554688,179.242188 C331.554688,179.992191 331.742186,180.582029 332.117188,181.011719 C332.492189,181.441408 333.062496,181.65625 333.828125,181.65625 C334.302086,181.65625 334.738279,181.559897 335.136719,181.367188 C335.535158,181.174478 335.848957,180.91146 336.078125,180.578125 C336.307293,180.24479 336.421875,179.895835 336.421875,179.53125 C336.421875,178.984372 336.315105,178.479169 336.101562,178.015625 C335.88802,177.552081 335.589846,177.187501 335.207031,176.921875 C334.824217,176.656249 334.385419,176.523438 333.890625,176.523438 L333.890625,176.523438 Z" id="2019" fill="#4A4A4A"></path>
                <path d="M310.289062,231 L302.78125,231 L302.78125,229.882812 L305.789062,226.859375 C306.705734,225.932287 307.309894,225.270835 307.601562,224.875 C307.893231,224.479165 308.111978,224.093752 308.257812,223.71875 C308.403647,223.343748 308.476562,222.940106 308.476562,222.507812 C308.476562,221.898434 308.291669,221.415366 307.921875,221.058594 C307.552081,220.701821 307.039066,220.523438 306.382812,220.523438 C305.908852,220.523438 305.459638,220.601562 305.035156,220.757812 C304.610675,220.914063 304.138023,221.197915 303.617188,221.609375 L302.929688,220.726562 C303.981776,219.851558 305.127598,219.414062 306.367188,219.414062 C307.44011,219.414062 308.281247,219.688799 308.890625,220.238281 C309.500003,220.787763 309.804688,221.526037 309.804688,222.453125 C309.804688,223.177087 309.601565,223.893226 309.195312,224.601562 C308.78906,225.309899 308.028651,226.205724 306.914062,227.289062 L304.414062,229.734375 L304.414062,229.796875 L310.289062,229.796875 L310.289062,231 Z M319.5,225.273438 C319.5,227.247406 319.188805,228.721349 318.566406,229.695312 C317.944007,230.669276 316.992194,231.15625 315.710938,231.15625 C314.481765,231.15625 313.546878,230.657557 312.90625,229.660156 C312.265622,228.662755 311.945312,227.20053 311.945312,225.273438 C311.945312,223.283844 312.255205,221.807296 312.875,220.84375 C313.494795,219.880204 314.440098,219.398438 315.710938,219.398438 C316.950527,219.398438 317.891924,219.901037 318.535156,220.90625 C319.178389,221.911463 319.5,223.367178 319.5,225.273438 L319.5,225.273438 Z M313.257812,225.273438 C313.257812,226.934904 313.453123,228.144527 313.84375,228.902344 C314.234377,229.66016 314.856767,230.039062 315.710938,230.039062 C316.575525,230.039062 317.201821,229.654952 317.589844,228.886719 C317.977867,228.118486 318.171875,226.914071 318.171875,225.273438 C318.171875,223.632804 317.977867,222.430993 317.589844,221.667969 C317.201821,220.904944 316.575525,220.523438 315.710938,220.523438 C314.856767,220.523438 314.234377,220.899736 313.84375,221.652344 C313.453123,222.404952 313.257812,223.611971 313.257812,225.273438 L313.257812,225.273438 Z M328.585938,231 L321.078125,231 L321.078125,229.882812 L324.085938,226.859375 C325.002609,225.932287 325.606769,225.270835 325.898438,224.875 C326.190106,224.479165 326.408853,224.093752 326.554688,223.71875 C326.700522,223.343748 326.773438,222.940106 326.773438,222.507812 C326.773438,221.898434 326.588544,221.415366 326.21875,221.058594 C325.848956,220.701821 325.335941,220.523438 324.679688,220.523438 C324.205727,220.523438 323.756513,220.601562 323.332031,220.757812 C322.90755,220.914063 322.434898,221.197915 321.914062,221.609375 L321.226562,220.726562 C322.278651,219.851558 323.424473,219.414062 324.664062,219.414062 C325.736985,219.414062 326.578122,219.688799 327.1875,220.238281 C327.796878,220.787763 328.101562,221.526037 328.101562,222.453125 C328.101562,223.177087 327.89844,223.893226 327.492188,224.601562 C327.085935,225.309899 326.325526,226.205724 325.210938,227.289062 L322.710938,229.734375 L322.710938,229.796875 L328.585938,229.796875 L328.585938,231 Z M337.796875,225.273438 C337.796875,227.247406 337.48568,228.721349 336.863281,229.695312 C336.240882,230.669276 335.289069,231.15625 334.007812,231.15625 C332.77864,231.15625 331.843753,230.657557 331.203125,229.660156 C330.562497,228.662755 330.242188,227.20053 330.242188,225.273438 C330.242188,223.283844 330.55208,221.807296 331.171875,220.84375 C331.79167,219.880204 332.736973,219.398438 334.007812,219.398438 C335.247402,219.398438 336.188799,219.901037 336.832031,220.90625 C337.475264,221.911463 337.796875,223.367178 337.796875,225.273438 L337.796875,225.273438 Z M331.554688,225.273438 C331.554688,226.934904 331.749998,228.144527 332.140625,228.902344 C332.531252,229.66016 333.153642,230.039062 334.007812,230.039062 C334.8724,230.039062 335.498696,229.654952 335.886719,228.886719 C336.274742,228.118486 336.46875,226.914071 336.46875,225.273438 C336.46875,223.632804 336.274742,222.430993 335.886719,221.667969 C335.498696,220.904944 334.8724,220.523438 334.007812,220.523438 C333.153642,220.523438 332.531252,220.899736 332.140625,221.652344 C331.749998,222.404952 331.554688,223.611971 331.554688,225.273438 L331.554688,225.273438 Z" id="2020" fill="#4A4A4A"></path>
                <path d="M310.289062,275 L302.78125,275 L302.78125,273.882812 L305.789062,270.859375 C306.705734,269.932287 307.309894,269.270835 307.601562,268.875 C307.893231,268.479165 308.111978,268.093752 308.257812,267.71875 C308.403647,267.343748 308.476562,266.940106 308.476562,266.507812 C308.476562,265.898434 308.291669,265.415366 307.921875,265.058594 C307.552081,264.701821 307.039066,264.523438 306.382812,264.523438 C305.908852,264.523438 305.459638,264.601562 305.035156,264.757812 C304.610675,264.914063 304.138023,265.197915 303.617188,265.609375 L302.929688,264.726562 C303.981776,263.851558 305.127598,263.414062 306.367188,263.414062 C307.44011,263.414062 308.281247,263.688799 308.890625,264.238281 C309.500003,264.787763 309.804688,265.526037 309.804688,266.453125 C309.804688,267.177087 309.601565,267.893226 309.195312,268.601562 C308.78906,269.309899 308.028651,270.205724 306.914062,271.289062 L304.414062,273.734375 L304.414062,273.796875 L310.289062,273.796875 L310.289062,275 Z M319.5,269.273438 C319.5,271.247406 319.188805,272.721349 318.566406,273.695312 C317.944007,274.669276 316.992194,275.15625 315.710938,275.15625 C314.481765,275.15625 313.546878,274.657557 312.90625,273.660156 C312.265622,272.662755 311.945312,271.20053 311.945312,269.273438 C311.945312,267.283844 312.255205,265.807296 312.875,264.84375 C313.494795,263.880204 314.440098,263.398438 315.710938,263.398438 C316.950527,263.398438 317.891924,263.901037 318.535156,264.90625 C319.178389,265.911463 319.5,267.367178 319.5,269.273438 L319.5,269.273438 Z M313.257812,269.273438 C313.257812,270.934904 313.453123,272.144527 313.84375,272.902344 C314.234377,273.66016 314.856767,274.039062 315.710938,274.039062 C316.575525,274.039062 317.201821,273.654952 317.589844,272.886719 C317.977867,272.118486 318.171875,270.914071 318.171875,269.273438 C318.171875,267.632804 317.977867,266.430993 317.589844,265.667969 C317.201821,264.904944 316.575525,264.523438 315.710938,264.523438 C314.856767,264.523438 314.234377,264.899736 313.84375,265.652344 C313.453123,266.404952 313.257812,267.611971 313.257812,269.273438 L313.257812,269.273438 Z M328.585938,275 L321.078125,275 L321.078125,273.882812 L324.085938,270.859375 C325.002609,269.932287 325.606769,269.270835 325.898438,268.875 C326.190106,268.479165 326.408853,268.093752 326.554688,267.71875 C326.700522,267.343748 326.773438,266.940106 326.773438,266.507812 C326.773438,265.898434 326.588544,265.415366 326.21875,265.058594 C325.848956,264.701821 325.335941,264.523438 324.679688,264.523438 C324.205727,264.523438 323.756513,264.601562 323.332031,264.757812 C322.90755,264.914063 322.434898,265.197915 321.914062,265.609375 L321.226562,264.726562 C322.278651,263.851558 323.424473,263.414062 324.664062,263.414062 C325.736985,263.414062 326.578122,263.688799 327.1875,264.238281 C327.796878,264.787763 328.101562,265.526037 328.101562,266.453125 C328.101562,267.177087 327.89844,267.893226 327.492188,268.601562 C327.085935,269.309899 326.325526,270.205724 325.210938,271.289062 L322.710938,273.734375 L322.710938,273.796875 L328.585938,273.796875 L328.585938,275 Z M335.03125,275 L333.765625,275 L333.765625,266.859375 C333.765625,266.182288 333.786458,265.54167 333.828125,264.9375 C333.718749,265.046876 333.596355,265.161458 333.460938,265.28125 C333.32552,265.401042 332.705735,265.90885 331.601562,266.804688 L330.914062,265.914062 L333.9375,263.578125 L335.03125,263.578125 L335.03125,275 Z" id="2021" fill="#4A4A4A"></path>
                <path d="M187.5,25.5 L187.5,309.586255" id="Line" stroke="#D0D0D0" stroke-linecap="square"></path>
                <path d="M319.196429,52.4553571 C319.196429,52.5327385 319.166667,52.6011902 319.107143,52.6607143 L314.946429,56.8214286 C314.886904,56.8809527 314.818453,56.9107143 314.741071,56.9107143 C314.66369,56.9107143 314.595238,56.8809527 314.535714,56.8214286 L314.089286,56.375 C314.029762,56.3154759 314,56.2470242 314,56.1696429 C314,56.0922615 314.029762,56.0238098 314.089286,55.9642857 L317.598214,52.4553571 L314.089286,48.9464286 C314.029762,48.8869045 314,48.8184528 314,48.7410714 C314,48.6636901 314.029762,48.5952384 314.089286,48.5357143 L314.535714,48.0892857 C314.595238,48.0297616 314.66369,48 314.741071,48 C314.818453,48 314.886904,48.0297616 314.946429,48.0892857 L319.107143,52.25 C319.166667,52.3095241 319.196429,52.3779758 319.196429,52.4553571 L319.196429,52.4553571 Z M322.625,52.4553571 C322.625,52.5327385 322.595238,52.6011902 322.535714,52.6607143 L318.375,56.8214286 C318.315476,56.8809527 318.247024,56.9107143 318.169643,56.9107143 C318.092262,56.9107143 318.02381,56.8809527 317.964286,56.8214286 L317.517857,56.375 C317.458333,56.3154759 317.428571,56.2470242 317.428571,56.1696429 C317.428571,56.0922615 317.458333,56.0238098 317.517857,55.9642857 L321.026786,52.4553571 L317.517857,48.9464286 C317.458333,48.8869045 317.428571,48.8184528 317.428571,48.7410714 C317.428571,48.6636901 317.458333,48.5952384 317.517857,48.5357143 L317.964286,48.0892857 C318.02381,48.0297616 318.092262,48 318.169643,48 C318.247024,48 318.315476,48.0297616 318.375,48.0892857 L322.535714,52.25 C322.595238,52.3095241 322.625,52.3779758 322.625,52.4553571 L322.625,52.4553571 Z" id="" fill="#4A4A4A"></path>
                <path d="M244.196429,56.1696429 C244.196429,56.2470242 244.166667,56.3154759 244.107143,56.375 L243.660714,56.8214286 C243.60119,56.8809527 243.532738,56.9107143 243.455357,56.9107143 C243.377976,56.9107143 243.309524,56.8809527 243.25,56.8214286 L239.089286,52.6607143 C239.029762,52.6011902 239,52.5327385 239,52.4553571 C239,52.3779758 239.029762,52.3095241 239.089286,52.25 L243.25,48.0892857 C243.309524,48.0297616 243.377976,48 243.455357,48 C243.532738,48 243.60119,48.0297616 243.660714,48.0892857 L244.107143,48.5357143 C244.166667,48.5952384 244.196429,48.6636901 244.196429,48.7410714 C244.196429,48.8184528 244.166667,48.8869045 244.107143,48.9464286 L240.598214,52.4553571 L244.107143,55.9642857 C244.166667,56.0238098 244.196429,56.0922615 244.196429,56.1696429 L244.196429,56.1696429 Z M247.625,56.1696429 C247.625,56.2470242 247.595238,56.3154759 247.535714,56.375 L247.089286,56.8214286 C247.029762,56.8809527 246.96131,56.9107143 246.883929,56.9107143 C246.806547,56.9107143 246.738096,56.8809527 246.678571,56.8214286 L242.517857,52.6607143 C242.458333,52.6011902 242.428571,52.5327385 242.428571,52.4553571 C242.428571,52.3779758 242.458333,52.3095241 242.517857,52.25 L246.678571,48.0892857 C246.738096,48.0297616 246.806547,48 246.883929,48 C246.96131,48 247.029762,48.0297616 247.089286,48.0892857 L247.535714,48.5357143 C247.595238,48.5952384 247.625,48.6636901 247.625,48.7410714 C247.625,48.8184528 247.595238,48.8869045 247.535714,48.9464286 L244.026786,52.4553571 L247.535714,55.9642857 C247.595238,56.0238098 247.625,56.0922615 247.625,56.1696429 L247.625,56.1696429 Z" id="" fill="#4A4A4A"></path>
            </g>
        </g>
    </g>
</svg>