<?xml version="1.0" encoding="UTF-8" standalone="no"?>
<svg width="208px" height="137px" viewBox="0 0 208 137" version="1.1" xmlns="http://www.w3.org/2000/svg" xmlns:xlink="http://www.w3.org/1999/xlink">
    <!-- Generator: Sketch 40.2 (33826) - http://www.bohemiancoding.com/sketch -->
    <title>mnu-3</title>
    <desc>Created with Sketch.</desc>
    <defs>
        <rect id="path-1" x="0" y="0" width="200" height="129"></rect>
        <filter x="-50%" y="-50%" width="200%" height="200%" filterUnits="objectBoundingBox" id="filter-2">
            <feOffset dx="0" dy="1" in="SourceAlpha" result="shadowOffsetOuter1"></feOffset>
            <feGaussianBlur stdDeviation="2" in="shadowOffsetOuter1" result="shadowBlurOuter1"></feGaussianBlur>
            <feColorMatrix values="0 0 0 0 0   0 0 0 0 0   0 0 0 0 0  0 0 0 0.5 0" type="matrix" in="shadowBlurOuter1"></feColorMatrix>
        </filter>
    </defs>
    <g id="Components" stroke="none" stroke-width="1" fill="none" fill-rule="evenodd">
        <g id="Menus" transform="translate(-809.000000, -636.000000)">
            <g id="mnu-3" transform="translate(813.000000, 639.000000)">
                <g id="Rectangle-9-Copy-2">
                    <use fill="black" fill-opacity="1" filter="url(#filter-2)" xlink:href="#path-1"></use>
                    <use fill="#333333" fill-rule="evenodd" xlink:href="#path-1"></use>
                </g>
                <rect id="Rectangle-10-Copy-2" fill="#3F3F3F" x="0" y="32" width="200" height="32"></rect>
                <rect id="Rectangle-10-Copy-9" fill="#474747" x="0" y="97" width="200" height="32"></rect>
                <path d="M27.1152344,16.347168 C27.1152344,17.8198316 26.747074,18.9846149 26.0107422,19.8415527 C25.2744104,20.6984906 24.2587955,21.1269531 22.9638672,21.1269531 C21.6731706,21.1269531 20.6596717,20.6984906 19.9233398,19.8415527 C19.187008,18.9846149 18.8188477,17.8155999 18.8188477,16.3344727 C18.8188477,14.8575773 19.1901818,13.6949098 19.9328613,12.8464355 C20.6755408,11.9979613 21.6900977,11.5737305 22.9765625,11.5737305 C24.2714908,11.5737305 25.2849898,12.0000771 26.0170898,12.8527832 C26.7491899,13.7054893 27.1152344,14.8702726 27.1152344,16.347168 L27.1152344,16.347168 Z M19.5234375,16.347168 C19.5234375,17.6759507 19.8196585,18.7032028 20.4121094,19.4289551 C21.0045603,20.1547074 21.8551377,20.5175781 22.9638672,20.5175781 C24.0810603,20.5175781 24.9348115,20.1578812 25.5251465,19.4384766 C26.1154815,18.7190719 26.4106445,17.688646 26.4106445,16.347168 C26.4106445,15.0099217 26.1154815,13.9847855 25.5251465,13.2717285 C24.9348115,12.5586716 24.085292,12.2021484 22.9765625,12.2021484 C21.8720648,12.2021484 21.0204294,12.5618454 20.4216309,13.28125 C19.8228323,14.0006546 19.5234375,15.0226171 19.5234375,16.347168 L19.5234375,16.347168 Z M32.0410156,21.1269531 C30.9788358,21.1269531 30.2044295,20.7291706 29.7177734,19.9335938 L29.6733398,19.9335938 L29.6923828,20.4667969 C29.70931,20.7799495 29.7177734,21.1227195 29.7177734,21.4951172 L29.7177734,24.1230469 L29.0893555,24.1230469 L29.0893555,14.1000977 L29.6225586,14.1000977 L29.7431641,15.0839844 L29.78125,15.0839844 C30.2552107,14.339189 31.0126901,13.9667969 32.0537109,13.9667969 C32.9847052,13.9667969 33.6945776,14.2725393 34.1833496,14.8840332 C34.6721216,15.4955271 34.9165039,16.3852481 34.9165039,17.5532227 C34.9165039,18.6873429 34.6594264,19.5664845 34.1452637,20.1906738 C33.6311009,20.8148631 32.9296919,21.1269531 32.0410156,21.1269531 L32.0410156,21.1269531 Z M32.0283203,20.5683594 C32.7350296,20.5683594 33.2819805,20.3059922 33.6691895,19.78125 C34.0563984,19.2565078 34.25,18.5223029 34.25,17.5786133 C34.25,15.5515849 33.517911,14.5380859 32.0537109,14.5380859 C31.2496705,14.5380859 30.6593443,14.7591938 30.2827148,15.201416 C29.9060854,15.6436383 29.7177734,16.3640901 29.7177734,17.362793 L29.7177734,17.565918 C29.7177734,18.6450249 29.8986798,19.4151995 30.260498,19.8764648 C30.6223163,20.3377302 31.2115845,20.5683594 32.0283203,20.5683594 L32.0283203,20.5683594 Z M38.6489258,20.5683594 C39.0467142,20.5683594 39.393716,20.5345055 39.6899414,20.4667969 L39.6899414,20.9746094 C39.3852524,21.0761724 39.0340189,21.1269531 38.6362305,21.1269531 C38.0268524,21.1269531 37.5772313,20.9640316 37.2873535,20.6381836 C36.9974758,20.3123356 36.8525391,19.8002965 36.8525391,19.1020508 L36.8525391,14.6459961 L35.8305664,14.6459961 L35.8305664,14.277832 L36.8525391,13.9921875 L37.1699219,12.4306641 L37.4936523,12.4306641 L37.4936523,14.1000977 L39.5185547,14.1000977 L39.5185547,14.6459961 L37.4936523,14.6459961 L37.4936523,19.0131836 C37.4936523,19.5421576 37.5867504,19.9335925 37.7729492,20.1875 C37.9591481,20.4414075 38.2511373,20.5683594 38.6489258,20.5683594 L38.6489258,20.5683594 Z M41.8100586,21 L41.1816406,21 L41.1816406,14.1000977 L41.8100586,14.1000977 L41.8100586,21 Z M41.0927734,12.1831055 C41.0927734,11.7768534 41.2260729,11.5737305 41.4926758,11.5737305 C41.6238613,11.5737305 41.7264807,11.6266271 41.8005371,11.7324219 C41.8745935,11.8382167 41.9116211,11.988443 41.9116211,12.1831055 C41.9116211,12.3735361 41.8745935,12.5237625 41.8005371,12.6337891 C41.7264807,12.7438157 41.6238613,12.7988281 41.4926758,12.7988281 C41.2260729,12.7988281 41.0927734,12.5935893 41.0927734,12.1831055 L41.0927734,12.1831055 Z M49.8271484,17.5405273 C49.8271484,18.666184 49.5542019,19.5453256 49.0083008,20.1779785 C48.4623996,20.8106314 47.7091519,21.1269531 46.7485352,21.1269531 C46.1433889,21.1269531 45.6101911,20.9809585 45.1489258,20.6889648 C44.6876605,20.3969712 44.3343111,19.9780301 44.0888672,19.4321289 C43.8434233,18.8862277 43.7207031,18.2557002 43.7207031,17.5405273 C43.7207031,16.4148707 43.9936496,15.5378449 44.5395508,14.9094238 C45.0854519,14.2810027 45.8344679,13.9667969 46.7866211,13.9667969 C47.7345425,13.9667969 48.4782688,14.2852344 49.0178223,14.9221191 C49.5573757,15.5590038 49.8271484,16.4317978 49.8271484,17.5405273 L49.8271484,17.5405273 Z M44.3808594,17.5405273 C44.3808594,18.4884487 44.589272,19.2279433 45.0061035,19.7590332 C45.422935,20.2901231 46.0122032,20.5556641 46.7739258,20.5556641 C47.5356483,20.5556641 48.1249165,20.2901231 48.541748,19.7590332 C48.9585796,19.2279433 49.1669922,18.4884487 49.1669922,17.5405273 C49.1669922,16.5883741 48.9564637,15.8499375 48.5354004,15.3251953 C48.1143371,14.8004531 47.522953,14.5380859 46.7612305,14.5380859 C45.9995079,14.5380859 45.4123556,14.7993952 44.9997559,15.3220215 C44.5871561,15.8446478 44.3808594,16.5841424 44.3808594,17.5405273 L44.3808594,17.5405273 Z M56.5493164,21 L56.5493164,16.5249023 C56.5493164,15.8308885 56.4033218,15.3262548 56.1113281,15.0109863 C55.8193345,14.6957178 55.3665395,14.5380859 54.7529297,14.5380859 C53.9277302,14.5380859 53.323651,14.7464986 52.9406738,15.1633301 C52.5576967,15.5801616 52.3662109,16.2561802 52.3662109,17.1914062 L52.3662109,21 L51.737793,21 L51.737793,14.1000977 L52.2709961,14.1000977 L52.3916016,15.0458984 L52.4296875,15.0458984 C52.8782575,14.3264938 53.6759383,13.9667969 54.8227539,13.9667969 C56.3885169,13.9667969 57.1713867,14.806795 57.1713867,16.4868164 L57.1713867,21 L56.5493164,21 Z M65.956543,21 L65.3344727,21 L65.3344727,14.2397461 C65.3344727,13.6261363 65.359863,12.9892611 65.4106445,12.3291016 C65.3471677,12.3925784 65.2815759,12.4539385 65.2138672,12.5131836 C65.1461585,12.5724287 64.4923565,13.0865837 63.2524414,14.0556641 L62.890625,13.6049805 L65.4106445,11.7197266 L65.956543,11.7197266 L65.956543,21 Z" id="Option-1-Copy-2" fill="#B2B2B2"></path>
                <path d="M27.1152344,47.347168 C27.1152344,48.8198316 26.747074,49.9846149 26.0107422,50.8415527 C25.2744104,51.6984906 24.2587955,52.1269531 22.9638672,52.1269531 C21.6731706,52.1269531 20.6596717,51.6984906 19.9233398,50.8415527 C19.187008,49.9846149 18.8188477,48.8155999 18.8188477,47.3344727 C18.8188477,45.8575773 19.1901818,44.6949098 19.9328613,43.8464355 C20.6755408,42.9979613 21.6900977,42.5737305 22.9765625,42.5737305 C24.2714908,42.5737305 25.2849898,43.0000771 26.0170898,43.8527832 C26.7491899,44.7054893 27.1152344,45.8702726 27.1152344,47.347168 L27.1152344,47.347168 Z M19.5234375,47.347168 C19.5234375,48.6759507 19.8196585,49.7032028 20.4121094,50.4289551 C21.0045603,51.1547074 21.8551377,51.5175781 22.9638672,51.5175781 C24.0810603,51.5175781 24.9348115,51.1578812 25.5251465,50.4384766 C26.1154815,49.7190719 26.4106445,48.688646 26.4106445,47.347168 C26.4106445,46.0099217 26.1154815,44.9847855 25.5251465,44.2717285 C24.9348115,43.5586716 24.085292,43.2021484 22.9765625,43.2021484 C21.8720648,43.2021484 21.0204294,43.5618454 20.4216309,44.28125 C19.8228323,45.0006546 19.5234375,46.0226171 19.5234375,47.347168 L19.5234375,47.347168 Z M32.0410156,52.1269531 C30.9788358,52.1269531 30.2044295,51.7291706 29.7177734,50.9335938 L29.6733398,50.9335938 L29.6923828,51.4667969 C29.70931,51.7799495 29.7177734,52.1227195 29.7177734,52.4951172 L29.7177734,55.1230469 L29.0893555,55.1230469 L29.0893555,45.1000977 L29.6225586,45.1000977 L29.7431641,46.0839844 L29.78125,46.0839844 C30.2552107,45.339189 31.0126901,44.9667969 32.0537109,44.9667969 C32.9847052,44.9667969 33.6945776,45.2725393 34.1833496,45.8840332 C34.6721216,46.4955271 34.9165039,47.3852481 34.9165039,48.5532227 C34.9165039,49.6873429 34.6594264,50.5664845 34.1452637,51.1906738 C33.6311009,51.8148631 32.9296919,52.1269531 32.0410156,52.1269531 L32.0410156,52.1269531 Z M32.0283203,51.5683594 C32.7350296,51.5683594 33.2819805,51.3059922 33.6691895,50.78125 C34.0563984,50.2565078 34.25,49.5223029 34.25,48.5786133 C34.25,46.5515849 33.517911,45.5380859 32.0537109,45.5380859 C31.2496705,45.5380859 30.6593443,45.7591938 30.2827148,46.201416 C29.9060854,46.6436383 29.7177734,47.3640901 29.7177734,48.362793 L29.7177734,48.565918 C29.7177734,49.6450249 29.8986798,50.4151995 30.260498,50.8764648 C30.6223163,51.3377302 31.2115845,51.5683594 32.0283203,51.5683594 L32.0283203,51.5683594 Z M38.6489258,51.5683594 C39.0467142,51.5683594 39.393716,51.5345055 39.6899414,51.4667969 L39.6899414,51.9746094 C39.3852524,52.0761724 39.0340189,52.1269531 38.6362305,52.1269531 C38.0268524,52.1269531 37.5772313,51.9640316 37.2873535,51.6381836 C36.9974758,51.3123356 36.8525391,50.8002965 36.8525391,50.1020508 L36.8525391,45.6459961 L35.8305664,45.6459961 L35.8305664,45.277832 L36.8525391,44.9921875 L37.1699219,43.4306641 L37.4936523,43.4306641 L37.4936523,45.1000977 L39.5185547,45.1000977 L39.5185547,45.6459961 L37.4936523,45.6459961 L37.4936523,50.0131836 C37.4936523,50.5421576 37.5867504,50.9335925 37.7729492,51.1875 C37.9591481,51.4414075 38.2511373,51.5683594 38.6489258,51.5683594 L38.6489258,51.5683594 Z M41.8100586,52 L41.1816406,52 L41.1816406,45.1000977 L41.8100586,45.1000977 L41.8100586,52 Z M41.0927734,43.1831055 C41.0927734,42.7768534 41.2260729,42.5737305 41.4926758,42.5737305 C41.6238613,42.5737305 41.7264807,42.6266271 41.8005371,42.7324219 C41.8745935,42.8382167 41.9116211,42.988443 41.9116211,43.1831055 C41.9116211,43.3735361 41.8745935,43.5237625 41.8005371,43.6337891 C41.7264807,43.7438157 41.6238613,43.7988281 41.4926758,43.7988281 C41.2260729,43.7988281 41.0927734,43.5935893 41.0927734,43.1831055 L41.0927734,43.1831055 Z M49.8271484,48.5405273 C49.8271484,49.666184 49.5542019,50.5453256 49.0083008,51.1779785 C48.4623996,51.8106314 47.7091519,52.1269531 46.7485352,52.1269531 C46.1433889,52.1269531 45.6101911,51.9809585 45.1489258,51.6889648 C44.6876605,51.3969712 44.3343111,50.9780301 44.0888672,50.4321289 C43.8434233,49.8862277 43.7207031,49.2557002 43.7207031,48.5405273 C43.7207031,47.4148707 43.9936496,46.5378449 44.5395508,45.9094238 C45.0854519,45.2810027 45.8344679,44.9667969 46.7866211,44.9667969 C47.7345425,44.9667969 48.4782688,45.2852344 49.0178223,45.9221191 C49.5573757,46.5590038 49.8271484,47.4317978 49.8271484,48.5405273 L49.8271484,48.5405273 Z M44.3808594,48.5405273 C44.3808594,49.4884487 44.589272,50.2279433 45.0061035,50.7590332 C45.422935,51.2901231 46.0122032,51.5556641 46.7739258,51.5556641 C47.5356483,51.5556641 48.1249165,51.2901231 48.541748,50.7590332 C48.9585796,50.2279433 49.1669922,49.4884487 49.1669922,48.5405273 C49.1669922,47.5883741 48.9564637,46.8499375 48.5354004,46.3251953 C48.1143371,45.8004531 47.522953,45.5380859 46.7612305,45.5380859 C45.9995079,45.5380859 45.4123556,45.7993952 44.9997559,46.3220215 C44.5871561,46.8446478 44.3808594,47.5841424 44.3808594,48.5405273 L44.3808594,48.5405273 Z M56.5493164,52 L56.5493164,47.5249023 C56.5493164,46.8308885 56.4033218,46.3262548 56.1113281,46.0109863 C55.8193345,45.6957178 55.3665395,45.5380859 54.7529297,45.5380859 C53.9277302,45.5380859 53.323651,45.7464986 52.9406738,46.1633301 C52.5576967,46.5801616 52.3662109,47.2561802 52.3662109,48.1914062 L52.3662109,52 L51.737793,52 L51.737793,45.1000977 L52.2709961,45.1000977 L52.3916016,46.0458984 L52.4296875,46.0458984 C52.8782575,45.3264938 53.6759383,44.9667969 54.8227539,44.9667969 C56.3885169,44.9667969 57.1713867,45.806795 57.1713867,47.4868164 L57.1713867,52 L56.5493164,52 Z M68.152832,52 L62.3447266,52 L62.3447266,51.4414062 L64.8139648,48.8642578 C65.5079787,48.1448532 65.9946275,47.5947285 66.2739258,47.2138672 C66.5532241,46.8330059 66.7584629,46.4690773 66.8896484,46.1220703 C67.020834,45.7750634 67.0864258,45.4111347 67.0864258,45.0302734 C67.0864258,44.4759087 66.9044615,44.0252296 66.5405273,43.6782227 C66.1765932,43.3312157 65.7047555,43.1577148 65.125,43.1577148 C64.3505821,43.1577148 63.6100296,43.4391248 62.9033203,44.0019531 L62.5605469,43.5639648 C63.3349648,42.9122689 64.1940057,42.5864258 65.1376953,42.5864258 C65.9459676,42.5864258 66.5817848,42.8022439 67.045166,43.2338867 C67.5085472,43.6655295 67.7402344,44.2600874 67.7402344,45.0175781 C67.7402344,45.631188 67.5847184,46.2246879 67.2736816,46.7980957 C66.9626449,47.3715035 66.3945354,48.0792601 65.5693359,48.9213867 L63.1889648,51.3652344 L63.1889648,51.390625 L68.152832,51.390625 L68.152832,52 Z" id="Option-2-Copy-2" fill="#B2B2B2"></path>
                <path d="M27.1152344,78.347168 C27.1152344,79.8198316 26.747074,80.9846149 26.0107422,81.8415527 C25.2744104,82.6984906 24.2587955,83.1269531 22.9638672,83.1269531 C21.6731706,83.1269531 20.6596717,82.6984906 19.9233398,81.8415527 C19.187008,80.9846149 18.8188477,79.8155999 18.8188477,78.3344727 C18.8188477,76.8575773 19.1901818,75.6949098 19.9328613,74.8464355 C20.6755408,73.9979613 21.6900977,73.5737305 22.9765625,73.5737305 C24.2714908,73.5737305 25.2849898,74.0000771 26.0170898,74.8527832 C26.7491899,75.7054893 27.1152344,76.8702726 27.1152344,78.347168 L27.1152344,78.347168 Z M19.5234375,78.347168 C19.5234375,79.6759507 19.8196585,80.7032028 20.4121094,81.4289551 C21.0045603,82.1547074 21.8551377,82.5175781 22.9638672,82.5175781 C24.0810603,82.5175781 24.9348115,82.1578812 25.5251465,81.4384766 C26.1154815,80.7190719 26.4106445,79.688646 26.4106445,78.347168 C26.4106445,77.0099217 26.1154815,75.9847855 25.5251465,75.2717285 C24.9348115,74.5586716 24.085292,74.2021484 22.9765625,74.2021484 C21.8720648,74.2021484 21.0204294,74.5618454 20.4216309,75.28125 C19.8228323,76.0006546 19.5234375,77.0226171 19.5234375,78.347168 L19.5234375,78.347168 Z M32.0410156,83.1269531 C30.9788358,83.1269531 30.2044295,82.7291706 29.7177734,81.9335938 L29.6733398,81.9335938 L29.6923828,82.4667969 C29.70931,82.7799495 29.7177734,83.1227195 29.7177734,83.4951172 L29.7177734,86.1230469 L29.0893555,86.1230469 L29.0893555,76.1000977 L29.6225586,76.1000977 L29.7431641,77.0839844 L29.78125,77.0839844 C30.2552107,76.339189 31.0126901,75.9667969 32.0537109,75.9667969 C32.9847052,75.9667969 33.6945776,76.2725393 34.1833496,76.8840332 C34.6721216,77.4955271 34.9165039,78.3852481 34.9165039,79.5532227 C34.9165039,80.6873429 34.6594264,81.5664845 34.1452637,82.1906738 C33.6311009,82.8148631 32.9296919,83.1269531 32.0410156,83.1269531 L32.0410156,83.1269531 Z M32.0283203,82.5683594 C32.7350296,82.5683594 33.2819805,82.3059922 33.6691895,81.78125 C34.0563984,81.2565078 34.25,80.5223029 34.25,79.5786133 C34.25,77.5515849 33.517911,76.5380859 32.0537109,76.5380859 C31.2496705,76.5380859 30.6593443,76.7591938 30.2827148,77.201416 C29.9060854,77.6436383 29.7177734,78.3640901 29.7177734,79.362793 L29.7177734,79.565918 C29.7177734,80.6450249 29.8986798,81.4151995 30.260498,81.8764648 C30.6223163,82.3377302 31.2115845,82.5683594 32.0283203,82.5683594 L32.0283203,82.5683594 Z M38.6489258,82.5683594 C39.0467142,82.5683594 39.393716,82.5345055 39.6899414,82.4667969 L39.6899414,82.9746094 C39.3852524,83.0761724 39.0340189,83.1269531 38.6362305,83.1269531 C38.0268524,83.1269531 37.5772313,82.9640316 37.2873535,82.6381836 C36.9974758,82.3123356 36.8525391,81.8002965 36.8525391,81.1020508 L36.8525391,76.6459961 L35.8305664,76.6459961 L35.8305664,76.277832 L36.8525391,75.9921875 L37.1699219,74.4306641 L37.4936523,74.4306641 L37.4936523,76.1000977 L39.5185547,76.1000977 L39.5185547,76.6459961 L37.4936523,76.6459961 L37.4936523,81.0131836 C37.4936523,81.5421576 37.5867504,81.9335925 37.7729492,82.1875 C37.9591481,82.4414075 38.2511373,82.5683594 38.6489258,82.5683594 L38.6489258,82.5683594 Z M41.8100586,83 L41.1816406,83 L41.1816406,76.1000977 L41.8100586,76.1000977 L41.8100586,83 Z M41.0927734,74.1831055 C41.0927734,73.7768534 41.2260729,73.5737305 41.4926758,73.5737305 C41.6238613,73.5737305 41.7264807,73.6266271 41.8005371,73.7324219 C41.8745935,73.8382167 41.9116211,73.988443 41.9116211,74.1831055 C41.9116211,74.3735361 41.8745935,74.5237625 41.8005371,74.6337891 C41.7264807,74.7438157 41.6238613,74.7988281 41.4926758,74.7988281 C41.2260729,74.7988281 41.0927734,74.5935893 41.0927734,74.1831055 L41.0927734,74.1831055 Z M49.8271484,79.5405273 C49.8271484,80.666184 49.5542019,81.5453256 49.0083008,82.1779785 C48.4623996,82.8106314 47.7091519,83.1269531 46.7485352,83.1269531 C46.1433889,83.1269531 45.6101911,82.9809585 45.1489258,82.6889648 C44.6876605,82.3969712 44.3343111,81.9780301 44.0888672,81.4321289 C43.8434233,80.8862277 43.7207031,80.2557002 43.7207031,79.5405273 C43.7207031,78.4148707 43.9936496,77.5378449 44.5395508,76.9094238 C45.0854519,76.2810027 45.8344679,75.9667969 46.7866211,75.9667969 C47.7345425,75.9667969 48.4782688,76.2852344 49.0178223,76.9221191 C49.5573757,77.5590038 49.8271484,78.4317978 49.8271484,79.5405273 L49.8271484,79.5405273 Z M44.3808594,79.5405273 C44.3808594,80.4884487 44.589272,81.2279433 45.0061035,81.7590332 C45.422935,82.2901231 46.0122032,82.5556641 46.7739258,82.5556641 C47.5356483,82.5556641 48.1249165,82.2901231 48.541748,81.7590332 C48.9585796,81.2279433 49.1669922,80.4884487 49.1669922,79.5405273 C49.1669922,78.5883741 48.9564637,77.8499375 48.5354004,77.3251953 C48.1143371,76.8004531 47.522953,76.5380859 46.7612305,76.5380859 C45.9995079,76.5380859 45.4123556,76.7993952 44.9997559,77.3220215 C44.5871561,77.8446478 44.3808594,78.5841424 44.3808594,79.5405273 L44.3808594,79.5405273 Z M56.5493164,83 L56.5493164,78.5249023 C56.5493164,77.8308885 56.4033218,77.3262548 56.1113281,77.0109863 C55.8193345,76.6957178 55.3665395,76.5380859 54.7529297,76.5380859 C53.9277302,76.5380859 53.323651,76.7464986 52.9406738,77.1633301 C52.5576967,77.5801616 52.3662109,78.2561802 52.3662109,79.1914062 L52.3662109,83 L51.737793,83 L51.737793,76.1000977 L52.2709961,76.1000977 L52.3916016,77.0458984 L52.4296875,77.0458984 C52.8782575,76.3264938 53.6759383,75.9667969 54.8227539,75.9667969 C56.3885169,75.9667969 57.1713867,76.806795 57.1713867,78.4868164 L57.1713867,83 L56.5493164,83 Z M67.8417969,75.9033203 C67.8417969,76.478844 67.6608905,76.9633769 67.2990723,77.3569336 C66.9372541,77.7504902 66.4516632,78.0022781 65.8422852,78.1123047 L65.8422852,78.1503906 C66.5870805,78.24349 67.1541322,78.4804668 67.543457,78.8613281 C67.9327819,79.2421894 68.1274414,79.7542286 68.1274414,80.3974609 C68.1274414,81.2649783 67.8322783,81.9367652 67.2419434,82.4128418 C66.6516084,82.8889184 65.8020889,83.1269531 64.6933594,83.1269531 C63.7496698,83.1269531 62.9265986,82.9513364 62.2241211,82.6000977 L62.2241211,81.9716797 C62.5795916,82.1578785 62.978432,82.3038732 63.4206543,82.409668 C63.8628766,82.5154628 64.2786439,82.5683594 64.6679688,82.5683594 C65.6031948,82.5683594 66.3056617,82.3789895 66.7753906,82.0002441 C67.2451195,81.6214988 67.4799805,81.087243 67.4799805,80.3974609 C67.4799805,79.7838511 67.2398299,79.3120134 66.7595215,78.9819336 C66.2792131,78.6518538 65.5735724,78.4868164 64.6425781,78.4868164 L63.6396484,78.4868164 L63.6396484,77.8774414 L64.6552734,77.8774414 C65.4254596,77.8774414 66.0358864,77.6944191 66.4865723,77.3283691 C66.9372581,76.9623191 67.1625977,76.466149 67.1625977,75.8398438 C67.1625977,75.3235651 66.9795754,74.9099137 66.6135254,74.598877 C66.2474754,74.2878402 65.7682321,74.1323242 65.1757812,74.1323242 C64.7145159,74.1323242 64.2934589,74.1968581 63.9125977,74.3259277 C63.5317364,74.4549974 63.1043318,74.6761052 62.6303711,74.9892578 L62.3193359,74.5639648 C62.6790383,74.2635076 63.1127904,74.0254729 63.6206055,73.8498535 C64.1284205,73.6742341 64.6425755,73.5864258 65.1630859,73.5864258 C66.0179079,73.5864258 66.6780576,73.7884908 67.1435547,74.192627 C67.6090518,74.5967631 67.8417969,75.1669885 67.8417969,75.9033203 L67.8417969,75.9033203 Z" id="Option-3-Copy-2" fill="#B2B2B2"></path>
                <path d="M27.1152344,111.347168 C27.1152344,112.819832 26.747074,113.984615 26.0107422,114.841553 C25.2744104,115.698491 24.2587955,116.126953 22.9638672,116.126953 C21.6731706,116.126953 20.6596717,115.698491 19.9233398,114.841553 C19.187008,113.984615 18.8188477,112.8156 18.8188477,111.334473 C18.8188477,109.857577 19.1901818,108.69491 19.9328613,107.846436 C20.6755408,106.997961 21.6900977,106.57373 22.9765625,106.57373 C24.2714908,106.57373 25.2849898,107.000077 26.0170898,107.852783 C26.7491899,108.705489 27.1152344,109.870273 27.1152344,111.347168 L27.1152344,111.347168 Z M19.5234375,111.347168 C19.5234375,112.675951 19.8196585,113.703203 20.4121094,114.428955 C21.0045603,115.154707 21.8551377,115.517578 22.9638672,115.517578 C24.0810603,115.517578 24.9348115,115.157881 25.5251465,114.438477 C26.1154815,113.719072 26.4106445,112.688646 26.4106445,111.347168 C26.4106445,110.009922 26.1154815,108.984785 25.5251465,108.271729 C24.9348115,107.558672 24.085292,107.202148 22.9765625,107.202148 C21.8720648,107.202148 21.0204294,107.561845 20.4216309,108.28125 C19.8228323,109.000655 19.5234375,110.022617 19.5234375,111.347168 L19.5234375,111.347168 Z M32.0410156,116.126953 C30.9788358,116.126953 30.2044295,115.729171 29.7177734,114.933594 L29.6733398,114.933594 L29.6923828,115.466797 C29.70931,115.779949 29.7177734,116.122719 29.7177734,116.495117 L29.7177734,119.123047 L29.0893555,119.123047 L29.0893555,109.100098 L29.6225586,109.100098 L29.7431641,110.083984 L29.78125,110.083984 C30.2552107,109.339189 31.0126901,108.966797 32.0537109,108.966797 C32.9847052,108.966797 33.6945776,109.272539 34.1833496,109.884033 C34.6721216,110.495527 34.9165039,111.385248 34.9165039,112.553223 C34.9165039,113.687343 34.6594264,114.566485 34.1452637,115.190674 C33.6311009,115.814863 32.9296919,116.126953 32.0410156,116.126953 L32.0410156,116.126953 Z M32.0283203,115.568359 C32.7350296,115.568359 33.2819805,115.305992 33.6691895,114.78125 C34.0563984,114.256508 34.25,113.522303 34.25,112.578613 C34.25,110.551585 33.517911,109.538086 32.0537109,109.538086 C31.2496705,109.538086 30.6593443,109.759194 30.2827148,110.201416 C29.9060854,110.643638 29.7177734,111.36409 29.7177734,112.362793 L29.7177734,112.565918 C29.7177734,113.645025 29.8986798,114.4152 30.260498,114.876465 C30.6223163,115.33773 31.2115845,115.568359 32.0283203,115.568359 L32.0283203,115.568359 Z M38.6489258,115.568359 C39.0467142,115.568359 39.393716,115.534506 39.6899414,115.466797 L39.6899414,115.974609 C39.3852524,116.076172 39.0340189,116.126953 38.6362305,116.126953 C38.0268524,116.126953 37.5772313,115.964032 37.2873535,115.638184 C36.9974758,115.312336 36.8525391,114.800296 36.8525391,114.102051 L36.8525391,109.645996 L35.8305664,109.645996 L35.8305664,109.277832 L36.8525391,108.992188 L37.1699219,107.430664 L37.4936523,107.430664 L37.4936523,109.100098 L39.5185547,109.100098 L39.5185547,109.645996 L37.4936523,109.645996 L37.4936523,114.013184 C37.4936523,114.542158 37.5867504,114.933592 37.7729492,115.1875 C37.9591481,115.441408 38.2511373,115.568359 38.6489258,115.568359 L38.6489258,115.568359 Z M41.8100586,116 L41.1816406,116 L41.1816406,109.100098 L41.8100586,109.100098 L41.8100586,116 Z M41.0927734,107.183105 C41.0927734,106.776853 41.2260729,106.57373 41.4926758,106.57373 C41.6238613,106.57373 41.7264807,106.626627 41.8005371,106.732422 C41.8745935,106.838217 41.9116211,106.988443 41.9116211,107.183105 C41.9116211,107.373536 41.8745935,107.523762 41.8005371,107.633789 C41.7264807,107.743816 41.6238613,107.798828 41.4926758,107.798828 C41.2260729,107.798828 41.0927734,107.593589 41.0927734,107.183105 L41.0927734,107.183105 Z M49.8271484,112.540527 C49.8271484,113.666184 49.5542019,114.545326 49.0083008,115.177979 C48.4623996,115.810631 47.7091519,116.126953 46.7485352,116.126953 C46.1433889,116.126953 45.6101911,115.980958 45.1489258,115.688965 C44.6876605,115.396971 44.3343111,114.97803 44.0888672,114.432129 C43.8434233,113.886228 43.7207031,113.2557 43.7207031,112.540527 C43.7207031,111.414871 43.9936496,110.537845 44.5395508,109.909424 C45.0854519,109.281003 45.8344679,108.966797 46.7866211,108.966797 C47.7345425,108.966797 48.4782688,109.285234 49.0178223,109.922119 C49.5573757,110.559004 49.8271484,111.431798 49.8271484,112.540527 L49.8271484,112.540527 Z M44.3808594,112.540527 C44.3808594,113.488449 44.589272,114.227943 45.0061035,114.759033 C45.422935,115.290123 46.0122032,115.555664 46.7739258,115.555664 C47.5356483,115.555664 48.1249165,115.290123 48.541748,114.759033 C48.9585796,114.227943 49.1669922,113.488449 49.1669922,112.540527 C49.1669922,111.588374 48.9564637,110.849938 48.5354004,110.325195 C48.1143371,109.800453 47.522953,109.538086 46.7612305,109.538086 C45.9995079,109.538086 45.4123556,109.799395 44.9997559,110.322021 C44.5871561,110.844648 44.3808594,111.584142 44.3808594,112.540527 L44.3808594,112.540527 Z M56.5493164,116 L56.5493164,111.524902 C56.5493164,110.830888 56.4033218,110.326255 56.1113281,110.010986 C55.8193345,109.695718 55.3665395,109.538086 54.7529297,109.538086 C53.9277302,109.538086 53.323651,109.746499 52.9406738,110.16333 C52.5576967,110.580162 52.3662109,111.25618 52.3662109,112.191406 L52.3662109,116 L51.737793,116 L51.737793,109.100098 L52.2709961,109.100098 L52.3916016,110.045898 L52.4296875,110.045898 C52.8782575,109.326494 53.6759383,108.966797 54.8227539,108.966797 C56.3885169,108.966797 57.1713867,109.806795 57.1713867,111.486816 L57.1713867,116 L56.5493164,116 Z M68.8701172,113.632324 L67.2705078,113.632324 L67.2705078,116 L66.6738281,116 L66.6738281,113.632324 L61.9003906,113.632324 L61.9003906,113.207031 L66.5024414,106.668945 L67.2705078,106.668945 L67.2705078,113.086426 L68.8701172,113.086426 L68.8701172,113.632324 Z M66.6738281,113.086426 L66.6738281,110.433105 C66.6738281,109.155104 66.7034502,108.082361 66.7626953,107.214844 L66.7119141,107.214844 C66.6272782,107.37142 66.3670269,107.769203 65.9311523,108.408203 L62.6557617,113.086426 L66.6738281,113.086426 Z" id="Option-4" fill="#B2B2B2"></path>
            </g>
        </g>
    </g>
</svg>