<?xml version="1.0" encoding="UTF-8" standalone="no"?>
<svg width="408px" height="169px" viewBox="0 0 408 169" version="1.1" xmlns="http://www.w3.org/2000/svg" xmlns:xlink="http://www.w3.org/1999/xlink">
    <!-- Generator: Sketch 40.2 (33826) - http://www.bohemiancoding.com/sketch -->
    <title>mnu-4</title>
    <desc>Created with Sketch.</desc>
    <defs>
        <rect id="path-1" x="0" y="0" width="200" height="97"></rect>
        <filter x="-50%" y="-50%" width="200%" height="200%" filterUnits="objectBoundingBox" id="filter-2">
            <feOffset dx="0" dy="1" in="SourceAlpha" result="shadowOffsetOuter1"></feOffset>
            <feGaussianBlur stdDeviation="2" in="shadowOffsetOuter1" result="shadowBlurOuter1"></feGaussianBlur>
            <feColorMatrix values="0 0 0 0 0   0 0 0 0 0   0 0 0 0 0  0 0 0 0.5 0" type="matrix" in="shadowBlurOuter1"></feColorMatrix>
        </filter>
        <rect id="path-3" x="200" y="32" width="200" height="129"></rect>
        <filter x="-50%" y="-50%" width="200%" height="200%" filterUnits="objectBoundingBox" id="filter-4">
            <feOffset dx="0" dy="1" in="SourceAlpha" result="shadowOffsetOuter1"></feOffset>
            <feGaussianBlur stdDeviation="2" in="shadowOffsetOuter1" result="shadowBlurOuter1"></feGaussianBlur>
            <feColorMatrix values="0 0 0 0 0   0 0 0 0 0   0 0 0 0 0  0 0 0 0.5 0" type="matrix" in="shadowBlurOuter1"></feColorMatrix>
        </filter>
    </defs>
    <g id="Components" stroke="none" stroke-width="1" fill="none" fill-rule="evenodd">
        <g id="Menus" transform="translate(-321.000000, -866.000000)">
            <g id="mnu-4" transform="translate(325.000000, 869.000000)">
                <g id="Rectangle-9">
                    <use fill="black" fill-opacity="1" filter="url(#filter-2)" xlink:href="#path-1"></use>
                    <use fill="#FFFFFF" fill-rule="evenodd" xlink:href="#path-1"></use>
                </g>
                <g id="Rectangle-9-Copy-3">
                    <use fill="black" fill-opacity="1" filter="url(#filter-4)" xlink:href="#path-3"></use>
                    <use fill="#FFFFFF" fill-rule="evenodd" xlink:href="#path-3"></use>
                </g>
                <rect id="Rectangle-10" fill-opacity="0.2" fill="#0A8CC6" x="0" y="32" width="200" height="32"></rect>
                <path d="M23.2749023,12.1704102 C22.1111595,12.1704102 21.1949903,12.5428023 20.5263672,13.2875977 C19.8577441,14.032393 19.5234375,15.0522396 19.5234375,16.347168 C19.5234375,17.6717189 19.8387013,18.7000289 20.4692383,19.4321289 C21.0997753,20.1642289 22.0011335,20.5302734 23.1733398,20.5302734 C23.9519896,20.5302734 24.6671517,20.4308278 25.3188477,20.2319336 L25.3188477,20.8032227 C24.7052378,21.019044 23.939295,21.1269531 23.0209961,21.1269531 C21.7176042,21.1269531 20.69141,20.7058961 19.9423828,19.8637695 C19.1933556,19.0216429 18.8188477,17.8452224 18.8188477,16.3344727 C18.8188477,15.390783 18.9976382,14.5592484 19.3552246,13.8398438 C19.712811,13.1204391 20.226966,12.5650247 20.8977051,12.173584 C21.5684441,11.7821432 22.3481401,11.5864258 23.2368164,11.5864258 C24.1424199,11.5864258 24.9527959,11.7556949 25.6679688,12.0942383 L25.4077148,12.6782227 C24.7306281,12.3396793 24.0196977,12.1704102 23.2749023,12.1704102 L23.2749023,12.1704102 Z M31.4189453,21 L31.2602539,19.9082031 L31.2094727,19.9082031 C30.8624657,20.3525413 30.5059426,20.6667471 30.1398926,20.8508301 C29.7738426,21.034913 29.3411483,21.1269531 28.8417969,21.1269531 C28.1647102,21.1269531 27.63786,20.9534523 27.2612305,20.6064453 C26.884601,20.2594384 26.6962891,19.7791372 26.6962891,19.1655273 C26.6962891,18.4926724 26.9766411,17.9700539 27.5373535,17.5976562 C28.098066,17.2252586 28.9094999,17.0284832 29.9716797,17.0073242 L31.2856445,16.9692383 L31.2856445,16.512207 C31.2856445,15.8562793 31.1523451,15.361167 30.8857422,15.0268555 C30.6191393,14.6925439 30.1896188,14.5253906 29.597168,14.5253906 C28.9581674,14.5253906 28.2959019,14.7031232 27.6103516,15.0585938 L27.3754883,14.5126953 C28.132979,14.1572248 28.881995,13.9794922 29.6225586,13.9794922 C30.3800494,13.9794922 30.946043,14.1762676 31.3205566,14.5698242 C31.6950702,14.9633809 31.8823242,15.5769815 31.8823242,16.4106445 L31.8823242,21 L31.4189453,21 Z M28.8798828,20.5556641 C29.6162146,20.5556641 30.1970194,20.3451356 30.6223145,19.9240723 C31.0476095,19.503009 31.2602539,18.9179725 31.2602539,18.1689453 L31.2602539,17.4897461 L30.0541992,17.5405273 C29.0851189,17.5870771 28.3942892,17.7383614 27.9816895,17.9943848 C27.5690897,18.2504082 27.362793,18.6492486 27.362793,19.190918 C27.362793,19.6225608 27.4950345,19.9579252 27.7595215,20.1970215 C28.0240085,20.4361177 28.3974585,20.5556641 28.8798828,20.5556641 L28.8798828,20.5556641 Z M35.9384766,20.5683594 C36.336265,20.5683594 36.6832667,20.5345055 36.9794922,20.4667969 L36.9794922,20.9746094 C36.6748032,21.0761724 36.3235697,21.1269531 35.9257812,21.1269531 C35.3164032,21.1269531 34.866782,20.9640316 34.5769043,20.6381836 C34.2870265,20.3123356 34.1420898,19.8002965 34.1420898,19.1020508 L34.1420898,14.6459961 L33.1201172,14.6459961 L33.1201172,14.277832 L34.1420898,13.9921875 L34.4594727,12.4306641 L34.7832031,12.4306641 L34.7832031,14.1000977 L36.8081055,14.1000977 L36.8081055,14.6459961 L34.7832031,14.6459961 L34.7832031,19.0131836 C34.7832031,19.5421576 34.8763012,19.9335925 35.0625,20.1875 C35.2486988,20.4414075 35.5406881,20.5683594 35.9384766,20.5683594 L35.9384766,20.5683594 Z M41.2578125,21.1269531 C40.2548778,21.1269531 39.473066,20.8180369 38.9123535,20.2001953 C38.3516411,19.5823537 38.0712891,18.7169652 38.0712891,17.6040039 C38.0712891,16.503738 38.3421197,15.6224805 38.8837891,14.9602051 C39.4254584,14.2979296 40.1554316,13.9667969 41.0737305,13.9667969 C41.8862345,13.9667969 42.5273414,14.2503227 42.9970703,14.8173828 C43.4667992,15.3844429 43.7016602,16.1546175 43.7016602,17.1279297 L43.7016602,17.6357422 L38.7314453,17.6357422 C38.7399089,18.5836636 38.9610167,19.3072892 39.3947754,19.8066406 C39.8285341,20.3059921 40.4495402,20.5556641 41.2578125,20.5556641 C41.6513692,20.5556641 41.997313,20.5281578 42.2956543,20.4731445 C42.5939956,20.4181312 42.9716774,20.2996428 43.4287109,20.1176758 L43.4287109,20.6889648 C43.0393861,20.8582365 42.6796892,20.9735511 42.3496094,21.0349121 C42.0195296,21.0962731 41.6556009,21.1269531 41.2578125,21.1269531 L41.2578125,21.1269531 Z M41.0737305,14.5253906 C40.4093391,14.5253906 39.8761413,14.7443826 39.4741211,15.182373 C39.0721009,15.6203635 38.8372399,16.251949 38.7695312,17.0771484 L43.0351562,17.0771484 C43.0351562,16.2773398 42.8616554,15.6521019 42.5146484,15.201416 C42.1676415,14.7507302 41.6873403,14.5253906 41.0737305,14.5253906 L41.0737305,14.5253906 Z M50.9887695,14.1000977 L50.9887695,14.5380859 L49.5605469,14.6269531 C49.9414082,15.1009138 50.1318359,15.6214164 50.1318359,16.1884766 C50.1318359,16.8528679 49.9107281,17.3913554 49.4685059,17.8039551 C49.0262836,18.2165548 48.4327837,18.4228516 47.6879883,18.4228516 C47.3748357,18.4228516 47.1547858,18.4101564 47.027832,18.3847656 C46.7781563,18.5159512 46.5877285,18.6704093 46.456543,18.8481445 C46.3253574,19.0258798 46.2597656,19.2141917 46.2597656,19.4130859 C46.2597656,19.6331391 46.3433423,19.7939448 46.510498,19.8955078 C46.6776538,19.9970708 46.9580058,20.0478516 47.3515625,20.0478516 L48.5576172,20.0478516 C49.3066444,20.0478516 49.8800436,20.1991359 50.277832,20.501709 C50.6756205,20.8042821 50.8745117,21.2517874 50.8745117,21.8442383 C50.8745117,22.5721065 50.5793487,23.1338685 49.9890137,23.529541 C49.3986787,23.9252136 48.5576226,24.1230469 47.4658203,24.1230469 C46.598303,24.1230469 45.9265161,23.9558936 45.4504395,23.621582 C44.9743629,23.2872705 44.7363281,22.8217803 44.7363281,22.2250977 C44.7363281,21.751137 44.8833807,21.3575862 45.1774902,21.0444336 C45.4715998,20.731281 45.8704402,20.5175787 46.3740234,20.4033203 C46.1666656,20.3144527 46.0005703,20.1885588 45.8757324,20.0256348 C45.7508946,19.8627108 45.6884766,19.6754568 45.6884766,19.4638672 C45.6884766,19.0026019 45.9825817,18.5963559 46.5708008,18.2451172 C46.1687805,18.0800773 45.8556326,17.8208839 45.6313477,17.4675293 C45.4070627,17.1141747 45.2949219,16.7089867 45.2949219,16.2519531 C45.2949219,15.562171 45.5139138,15.0088725 45.9519043,14.592041 C46.3898948,14.1752095 46.9812788,13.9667969 47.7260742,13.9667969 C48.178876,13.9667969 48.5301094,14.01123 48.7797852,14.1000977 L50.9887695,14.1000977 Z M45.402832,22.1679688 C45.402832,23.1158902 46.1074148,23.5898438 47.5166016,23.5898438 C49.3278085,23.5898438 50.2333984,23.0122128 50.2333984,21.8569336 C50.2333984,21.442218 50.0916355,21.1417653 49.8081055,20.9555664 C49.5245754,20.7693676 49.0654329,20.6762695 48.4306641,20.6762695 L47.3007812,20.6762695 C46.0354754,20.6762695 45.402832,21.1734976 45.402832,22.1679688 L45.402832,22.1679688 Z M45.9296875,16.2519531 C45.9296875,16.7851589 46.0915511,17.1988104 46.4152832,17.4929199 C46.7390153,17.7870295 47.1717095,17.934082 47.7133789,17.934082 C48.2889026,17.934082 48.7300603,17.7880874 49.0368652,17.4960938 C49.3436702,17.2041001 49.4970703,16.7809273 49.4970703,16.2265625 C49.4970703,15.6383434 49.3394384,15.1971857 49.0241699,14.9030762 C48.7089014,14.6089666 48.2677437,14.4619141 47.7006836,14.4619141 C47.1505506,14.4619141 46.7178564,14.6195459 46.4025879,14.9348145 C46.0873194,15.250083 45.9296875,15.6891248 45.9296875,16.2519531 L45.9296875,16.2519531 Z M58.1108398,17.5405273 C58.1108398,18.666184 57.8378934,19.5453256 57.2919922,20.1779785 C56.746091,20.8106314 55.9928433,21.1269531 55.0322266,21.1269531 C54.4270803,21.1269531 53.8938825,20.9809585 53.4326172,20.6889648 C52.9713519,20.3969712 52.6180025,19.9780301 52.3725586,19.4321289 C52.1271147,18.8862277 52.0043945,18.2557002 52.0043945,17.5405273 C52.0043945,16.4148707 52.277341,15.5378449 52.8232422,14.9094238 C53.3691434,14.2810027 54.1181593,13.9667969 55.0703125,13.9667969 C56.0182339,13.9667969 56.7619602,14.2852344 57.3015137,14.9221191 C57.8410672,15.5590038 58.1108398,16.4317978 58.1108398,17.5405273 L58.1108398,17.5405273 Z M52.6645508,17.5405273 C52.6645508,18.4884487 52.8729634,19.2279433 53.2897949,19.7590332 C53.7066264,20.2901231 54.2958946,20.5556641 55.0576172,20.5556641 C55.8193397,20.5556641 56.4086079,20.2901231 56.8254395,19.7590332 C57.242271,19.2279433 57.4506836,18.4884487 57.4506836,17.5405273 C57.4506836,16.5883741 57.2401551,15.8499375 56.8190918,15.3251953 C56.3980285,14.8004531 55.8066444,14.5380859 55.0449219,14.5380859 C54.2831993,14.5380859 53.696047,14.7993952 53.2834473,15.3220215 C52.8708475,15.8446478 52.6645508,16.5841424 52.6645508,17.5405273 L52.6645508,17.5405273 Z M62.7382812,13.9667969 C63.0302749,13.9667969 63.3434228,13.996419 63.6777344,14.0556641 L63.5571289,14.6586914 C63.2693671,14.5867509 62.9710302,14.5507812 62.6621094,14.5507812 C62.0738903,14.5507812 61.5914732,14.8004532 61.2148438,15.2998047 C60.8382143,15.7991561 60.6499023,16.4296837 60.6499023,17.1914062 L60.6499023,21 L60.0214844,21 L60.0214844,14.1000977 L60.5546875,14.1000977 L60.6181641,15.3442383 L60.6625977,15.3442383 C60.9461277,14.8364232 61.2486963,14.4799001 61.5703125,14.2746582 C61.8919287,14.0694163 62.2812477,13.9667969 62.7382812,13.9667969 L62.7382812,13.9667969 Z M63.925293,14.1000977 L64.5727539,14.1000977 L66.0327148,17.972168 C66.477053,19.1613015 66.7584629,19.9632141 66.8769531,20.3779297 L66.9150391,20.3779297 C67.0927743,19.8320285 67.3826477,19.0174208 67.784668,17.934082 L69.2446289,14.1000977 L69.8920898,14.1000977 L66.8007812,22.1171875 C66.5511055,22.7688835 66.341635,23.2089832 66.1723633,23.4375 C66.0030916,23.6660168 65.8052583,23.8374018 65.5788574,23.9516602 C65.3524566,24.0659185 65.0784521,24.1230469 64.7568359,24.1230469 C64.5156238,24.1230469 64.246909,24.0786137 63.9506836,23.9897461 L63.9506836,23.4438477 C64.1961275,23.5115563 64.4606106,23.5454102 64.7441406,23.5454102 C64.959962,23.5454102 65.1503898,23.4946294 65.3154297,23.3930664 C65.4804696,23.2915034 65.629638,23.1338715 65.7629395,22.920166 C65.8962409,22.7064605 66.050699,22.3679222 66.2263184,21.904541 C66.4019377,21.4411598 66.5151365,21.1396491 66.565918,21 L63.925293,14.1000977 Z M77.5981445,21 L76.9760742,21 L76.9760742,14.2397461 C76.9760742,13.6261363 77.0014646,12.9892611 77.0522461,12.3291016 C76.9887692,12.3925784 76.9231774,12.4539385 76.8554688,12.5131836 C76.7877601,12.5724287 76.133958,13.0865837 74.894043,14.0556641 L74.5322266,13.6049805 L77.0522461,11.7197266 L77.5981445,11.7197266 L77.5981445,21 Z" id="Category-1" fill="#4A4A4A"></path>
                <path d="M227.115234,48.347168 C227.115234,49.8198316 226.747074,50.9846149 226.010742,51.8415527 C225.27441,52.6984906 224.258796,53.1269531 222.963867,53.1269531 C221.673171,53.1269531 220.659672,52.6984906 219.92334,51.8415527 C219.187008,50.9846149 218.818848,49.8155999 218.818848,48.3344727 C218.818848,46.8575773 219.190182,45.6949098 219.932861,44.8464355 C220.675541,43.9979613 221.690098,43.5737305 222.976562,43.5737305 C224.271491,43.5737305 225.28499,44.0000771 226.01709,44.8527832 C226.74919,45.7054893 227.115234,46.8702726 227.115234,48.347168 L227.115234,48.347168 Z M219.523438,48.347168 C219.523438,49.6759507 219.819658,50.7032028 220.412109,51.4289551 C221.00456,52.1547074 221.855138,52.5175781 222.963867,52.5175781 C224.08106,52.5175781 224.934812,52.1578812 225.525146,51.4384766 C226.115481,50.7190719 226.410645,49.688646 226.410645,48.347168 C226.410645,47.0099217 226.115481,45.9847855 225.525146,45.2717285 C224.934812,44.5586716 224.085292,44.2021484 222.976562,44.2021484 C221.872065,44.2021484 221.020429,44.5618454 220.421631,45.28125 C219.822832,46.0006546 219.523438,47.0226171 219.523438,48.347168 L219.523438,48.347168 Z M232.041016,53.1269531 C230.978836,53.1269531 230.20443,52.7291706 229.717773,51.9335938 L229.67334,51.9335938 L229.692383,52.4667969 C229.70931,52.7799495 229.717773,53.1227195 229.717773,53.4951172 L229.717773,56.1230469 L229.089355,56.1230469 L229.089355,46.1000977 L229.622559,46.1000977 L229.743164,47.0839844 L229.78125,47.0839844 C230.255211,46.339189 231.01269,45.9667969 232.053711,45.9667969 C232.984705,45.9667969 233.694578,46.2725393 234.18335,46.8840332 C234.672122,47.4955271 234.916504,48.3852481 234.916504,49.5532227 C234.916504,50.6873429 234.659426,51.5664845 234.145264,52.1906738 C233.631101,52.8148631 232.929692,53.1269531 232.041016,53.1269531 L232.041016,53.1269531 Z M232.02832,52.5683594 C232.73503,52.5683594 233.28198,52.3059922 233.669189,51.78125 C234.056398,51.2565078 234.25,50.5223029 234.25,49.5786133 C234.25,47.5515849 233.517911,46.5380859 232.053711,46.5380859 C231.24967,46.5380859 230.659344,46.7591938 230.282715,47.201416 C229.906085,47.6436383 229.717773,48.3640901 229.717773,49.362793 L229.717773,49.565918 C229.717773,50.6450249 229.89868,51.4151995 230.260498,51.8764648 C230.622316,52.3377302 231.211584,52.5683594 232.02832,52.5683594 L232.02832,52.5683594 Z M238.648926,52.5683594 C239.046714,52.5683594 239.393716,52.5345055 239.689941,52.4667969 L239.689941,52.9746094 C239.385252,53.0761724 239.034019,53.1269531 238.63623,53.1269531 C238.026852,53.1269531 237.577231,52.9640316 237.287354,52.6381836 C236.997476,52.3123356 236.852539,51.8002965 236.852539,51.1020508 L236.852539,46.6459961 L235.830566,46.6459961 L235.830566,46.277832 L236.852539,45.9921875 L237.169922,44.4306641 L237.493652,44.4306641 L237.493652,46.1000977 L239.518555,46.1000977 L239.518555,46.6459961 L237.493652,46.6459961 L237.493652,51.0131836 C237.493652,51.5421576 237.58675,51.9335925 237.772949,52.1875 C237.959148,52.4414075 238.251137,52.5683594 238.648926,52.5683594 L238.648926,52.5683594 Z M241.810059,53 L241.181641,53 L241.181641,46.1000977 L241.810059,46.1000977 L241.810059,53 Z M241.092773,44.1831055 C241.092773,43.7768534 241.226073,43.5737305 241.492676,43.5737305 C241.623861,43.5737305 241.726481,43.6266271 241.800537,43.7324219 C241.874593,43.8382167 241.911621,43.988443 241.911621,44.1831055 C241.911621,44.3735361 241.874593,44.5237625 241.800537,44.6337891 C241.726481,44.7438157 241.623861,44.7988281 241.492676,44.7988281 C241.226073,44.7988281 241.092773,44.5935893 241.092773,44.1831055 L241.092773,44.1831055 Z M249.827148,49.5405273 C249.827148,50.666184 249.554202,51.5453256 249.008301,52.1779785 C248.4624,52.8106314 247.709152,53.1269531 246.748535,53.1269531 C246.143389,53.1269531 245.610191,52.9809585 245.148926,52.6889648 C244.68766,52.3969712 244.334311,51.9780301 244.088867,51.4321289 C243.843423,50.8862277 243.720703,50.2557002 243.720703,49.5405273 C243.720703,48.4148707 243.99365,47.5378449 244.539551,46.9094238 C245.085452,46.2810027 245.834468,45.9667969 246.786621,45.9667969 C247.734542,45.9667969 248.478269,46.2852344 249.017822,46.9221191 C249.557376,47.5590038 249.827148,48.4317978 249.827148,49.5405273 L249.827148,49.5405273 Z M244.380859,49.5405273 C244.380859,50.4884487 244.589272,51.2279433 245.006104,51.7590332 C245.422935,52.2901231 246.012203,52.5556641 246.773926,52.5556641 C247.535648,52.5556641 248.124917,52.2901231 248.541748,51.7590332 C248.95858,51.2279433 249.166992,50.4884487 249.166992,49.5405273 C249.166992,48.5883741 248.956464,47.8499375 248.5354,47.3251953 C248.114337,46.8004531 247.522953,46.5380859 246.76123,46.5380859 C245.999508,46.5380859 245.412356,46.7993952 244.999756,47.3220215 C244.587156,47.8446478 244.380859,48.5841424 244.380859,49.5405273 L244.380859,49.5405273 Z M256.549316,53 L256.549316,48.5249023 C256.549316,47.8308885 256.403322,47.3262548 256.111328,47.0109863 C255.819334,46.6957178 255.36654,46.5380859 254.75293,46.5380859 C253.92773,46.5380859 253.323651,46.7464986 252.940674,47.1633301 C252.557697,47.5801616 252.366211,48.2561802 252.366211,49.1914062 L252.366211,53 L251.737793,53 L251.737793,46.1000977 L252.270996,46.1000977 L252.391602,47.0458984 L252.429688,47.0458984 C252.878257,46.3264938 253.675938,45.9667969 254.822754,45.9667969 C256.388517,45.9667969 257.171387,46.806795 257.171387,48.4868164 L257.171387,53 L256.549316,53 Z M265.956543,53 L265.334473,53 L265.334473,46.2397461 C265.334473,45.6261363 265.359863,44.9892611 265.410645,44.3291016 C265.347168,44.3925784 265.281576,44.4539385 265.213867,44.5131836 C265.146159,44.5724287 264.492356,45.0865837 263.252441,46.0556641 L262.890625,45.6049805 L265.410645,43.7197266 L265.956543,43.7197266 L265.956543,53 Z" id="Option-1-Copy-3" fill="#4A4A4A"></path>
                <path d="M23.2749023,43.1704102 C22.1111595,43.1704102 21.1949903,43.5428023 20.5263672,44.2875977 C19.8577441,45.032393 19.5234375,46.0522396 19.5234375,47.347168 C19.5234375,48.6717189 19.8387013,49.7000289 20.4692383,50.4321289 C21.0997753,51.1642289 22.0011335,51.5302734 23.1733398,51.5302734 C23.9519896,51.5302734 24.6671517,51.4308278 25.3188477,51.2319336 L25.3188477,51.8032227 C24.7052378,52.019044 23.939295,52.1269531 23.0209961,52.1269531 C21.7176042,52.1269531 20.69141,51.7058961 19.9423828,50.8637695 C19.1933556,50.0216429 18.8188477,48.8452224 18.8188477,47.3344727 C18.8188477,46.390783 18.9976382,45.5592484 19.3552246,44.8398438 C19.712811,44.1204391 20.226966,43.5650247 20.8977051,43.173584 C21.5684441,42.7821432 22.3481401,42.5864258 23.2368164,42.5864258 C24.1424199,42.5864258 24.9527959,42.7556949 25.6679688,43.0942383 L25.4077148,43.6782227 C24.7306281,43.3396793 24.0196977,43.1704102 23.2749023,43.1704102 L23.2749023,43.1704102 Z M31.4189453,52 L31.2602539,50.9082031 L31.2094727,50.9082031 C30.8624657,51.3525413 30.5059426,51.6667471 30.1398926,51.8508301 C29.7738426,52.034913 29.3411483,52.1269531 28.8417969,52.1269531 C28.1647102,52.1269531 27.63786,51.9534523 27.2612305,51.6064453 C26.884601,51.2594384 26.6962891,50.7791372 26.6962891,50.1655273 C26.6962891,49.4926724 26.9766411,48.9700539 27.5373535,48.5976562 C28.098066,48.2252586 28.9094999,48.0284832 29.9716797,48.0073242 L31.2856445,47.9692383 L31.2856445,47.512207 C31.2856445,46.8562793 31.1523451,46.361167 30.8857422,46.0268555 C30.6191393,45.6925439 30.1896188,45.5253906 29.597168,45.5253906 C28.9581674,45.5253906 28.2959019,45.7031232 27.6103516,46.0585938 L27.3754883,45.5126953 C28.132979,45.1572248 28.881995,44.9794922 29.6225586,44.9794922 C30.3800494,44.9794922 30.946043,45.1762676 31.3205566,45.5698242 C31.6950702,45.9633809 31.8823242,46.5769815 31.8823242,47.4106445 L31.8823242,52 L31.4189453,52 Z M28.8798828,51.5556641 C29.6162146,51.5556641 30.1970194,51.3451356 30.6223145,50.9240723 C31.0476095,50.503009 31.2602539,49.9179725 31.2602539,49.1689453 L31.2602539,48.4897461 L30.0541992,48.5405273 C29.0851189,48.5870771 28.3942892,48.7383614 27.9816895,48.9943848 C27.5690897,49.2504082 27.362793,49.6492486 27.362793,50.190918 C27.362793,50.6225608 27.4950345,50.9579252 27.7595215,51.1970215 C28.0240085,51.4361177 28.3974585,51.5556641 28.8798828,51.5556641 L28.8798828,51.5556641 Z M35.9384766,51.5683594 C36.336265,51.5683594 36.6832667,51.5345055 36.9794922,51.4667969 L36.9794922,51.9746094 C36.6748032,52.0761724 36.3235697,52.1269531 35.9257812,52.1269531 C35.3164032,52.1269531 34.866782,51.9640316 34.5769043,51.6381836 C34.2870265,51.3123356 34.1420898,50.8002965 34.1420898,50.1020508 L34.1420898,45.6459961 L33.1201172,45.6459961 L33.1201172,45.277832 L34.1420898,44.9921875 L34.4594727,43.4306641 L34.7832031,43.4306641 L34.7832031,45.1000977 L36.8081055,45.1000977 L36.8081055,45.6459961 L34.7832031,45.6459961 L34.7832031,50.0131836 C34.7832031,50.5421576 34.8763012,50.9335925 35.0625,51.1875 C35.2486988,51.4414075 35.5406881,51.5683594 35.9384766,51.5683594 L35.9384766,51.5683594 Z M41.2578125,52.1269531 C40.2548778,52.1269531 39.473066,51.8180369 38.9123535,51.2001953 C38.3516411,50.5823537 38.0712891,49.7169652 38.0712891,48.6040039 C38.0712891,47.503738 38.3421197,46.6224805 38.8837891,45.9602051 C39.4254584,45.2979296 40.1554316,44.9667969 41.0737305,44.9667969 C41.8862345,44.9667969 42.5273414,45.2503227 42.9970703,45.8173828 C43.4667992,46.3844429 43.7016602,47.1546175 43.7016602,48.1279297 L43.7016602,48.6357422 L38.7314453,48.6357422 C38.7399089,49.5836636 38.9610167,50.3072892 39.3947754,50.8066406 C39.8285341,51.3059921 40.4495402,51.5556641 41.2578125,51.5556641 C41.6513692,51.5556641 41.997313,51.5281578 42.2956543,51.4731445 C42.5939956,51.4181312 42.9716774,51.2996428 43.4287109,51.1176758 L43.4287109,51.6889648 C43.0393861,51.8582365 42.6796892,51.9735511 42.3496094,52.0349121 C42.0195296,52.0962731 41.6556009,52.1269531 41.2578125,52.1269531 L41.2578125,52.1269531 Z M41.0737305,45.5253906 C40.4093391,45.5253906 39.8761413,45.7443826 39.4741211,46.182373 C39.0721009,46.6203635 38.8372399,47.251949 38.7695312,48.0771484 L43.0351562,48.0771484 C43.0351562,47.2773398 42.8616554,46.6521019 42.5146484,46.201416 C42.1676415,45.7507302 41.6873403,45.5253906 41.0737305,45.5253906 L41.0737305,45.5253906 Z M50.9887695,45.1000977 L50.9887695,45.5380859 L49.5605469,45.6269531 C49.9414082,46.1009138 50.1318359,46.6214164 50.1318359,47.1884766 C50.1318359,47.8528679 49.9107281,48.3913554 49.4685059,48.8039551 C49.0262836,49.2165548 48.4327837,49.4228516 47.6879883,49.4228516 C47.3748357,49.4228516 47.1547858,49.4101564 47.027832,49.3847656 C46.7781563,49.5159512 46.5877285,49.6704093 46.456543,49.8481445 C46.3253574,50.0258798 46.2597656,50.2141917 46.2597656,50.4130859 C46.2597656,50.6331391 46.3433423,50.7939448 46.510498,50.8955078 C46.6776538,50.9970708 46.9580058,51.0478516 47.3515625,51.0478516 L48.5576172,51.0478516 C49.3066444,51.0478516 49.8800436,51.1991359 50.277832,51.501709 C50.6756205,51.8042821 50.8745117,52.2517874 50.8745117,52.8442383 C50.8745117,53.5721065 50.5793487,54.1338685 49.9890137,54.529541 C49.3986787,54.9252136 48.5576226,55.1230469 47.4658203,55.1230469 C46.598303,55.1230469 45.9265161,54.9558936 45.4504395,54.621582 C44.9743629,54.2872705 44.7363281,53.8217803 44.7363281,53.2250977 C44.7363281,52.751137 44.8833807,52.3575862 45.1774902,52.0444336 C45.4715998,51.731281 45.8704402,51.5175787 46.3740234,51.4033203 C46.1666656,51.3144527 46.0005703,51.1885588 45.8757324,51.0256348 C45.7508946,50.8627108 45.6884766,50.6754568 45.6884766,50.4638672 C45.6884766,50.0026019 45.9825817,49.5963559 46.5708008,49.2451172 C46.1687805,49.0800773 45.8556326,48.8208839 45.6313477,48.4675293 C45.4070627,48.1141747 45.2949219,47.7089867 45.2949219,47.2519531 C45.2949219,46.562171 45.5139138,46.0088725 45.9519043,45.592041 C46.3898948,45.1752095 46.9812788,44.9667969 47.7260742,44.9667969 C48.178876,44.9667969 48.5301094,45.01123 48.7797852,45.1000977 L50.9887695,45.1000977 Z M45.402832,53.1679688 C45.402832,54.1158902 46.1074148,54.5898438 47.5166016,54.5898438 C49.3278085,54.5898438 50.2333984,54.0122128 50.2333984,52.8569336 C50.2333984,52.442218 50.0916355,52.1417653 49.8081055,51.9555664 C49.5245754,51.7693676 49.0654329,51.6762695 48.4306641,51.6762695 L47.3007812,51.6762695 C46.0354754,51.6762695 45.402832,52.1734976 45.402832,53.1679688 L45.402832,53.1679688 Z M45.9296875,47.2519531 C45.9296875,47.7851589 46.0915511,48.1988104 46.4152832,48.4929199 C46.7390153,48.7870295 47.1717095,48.934082 47.7133789,48.934082 C48.2889026,48.934082 48.7300603,48.7880874 49.0368652,48.4960938 C49.3436702,48.2041001 49.4970703,47.7809273 49.4970703,47.2265625 C49.4970703,46.6383434 49.3394384,46.1971857 49.0241699,45.9030762 C48.7089014,45.6089666 48.2677437,45.4619141 47.7006836,45.4619141 C47.1505506,45.4619141 46.7178564,45.6195459 46.4025879,45.9348145 C46.0873194,46.250083 45.9296875,46.6891248 45.9296875,47.2519531 L45.9296875,47.2519531 Z M58.1108398,48.5405273 C58.1108398,49.666184 57.8378934,50.5453256 57.2919922,51.1779785 C56.746091,51.8106314 55.9928433,52.1269531 55.0322266,52.1269531 C54.4270803,52.1269531 53.8938825,51.9809585 53.4326172,51.6889648 C52.9713519,51.3969712 52.6180025,50.9780301 52.3725586,50.4321289 C52.1271147,49.8862277 52.0043945,49.2557002 52.0043945,48.5405273 C52.0043945,47.4148707 52.277341,46.5378449 52.8232422,45.9094238 C53.3691434,45.2810027 54.1181593,44.9667969 55.0703125,44.9667969 C56.0182339,44.9667969 56.7619602,45.2852344 57.3015137,45.9221191 C57.8410672,46.5590038 58.1108398,47.4317978 58.1108398,48.5405273 L58.1108398,48.5405273 Z M52.6645508,48.5405273 C52.6645508,49.4884487 52.8729634,50.2279433 53.2897949,50.7590332 C53.7066264,51.2901231 54.2958946,51.5556641 55.0576172,51.5556641 C55.8193397,51.5556641 56.4086079,51.2901231 56.8254395,50.7590332 C57.242271,50.2279433 57.4506836,49.4884487 57.4506836,48.5405273 C57.4506836,47.5883741 57.2401551,46.8499375 56.8190918,46.3251953 C56.3980285,45.8004531 55.8066444,45.5380859 55.0449219,45.5380859 C54.2831993,45.5380859 53.696047,45.7993952 53.2834473,46.3220215 C52.8708475,46.8446478 52.6645508,47.5841424 52.6645508,48.5405273 L52.6645508,48.5405273 Z M62.7382812,44.9667969 C63.0302749,44.9667969 63.3434228,44.996419 63.6777344,45.0556641 L63.5571289,45.6586914 C63.2693671,45.5867509 62.9710302,45.5507812 62.6621094,45.5507812 C62.0738903,45.5507812 61.5914732,45.8004532 61.2148438,46.2998047 C60.8382143,46.7991561 60.6499023,47.4296837 60.6499023,48.1914062 L60.6499023,52 L60.0214844,52 L60.0214844,45.1000977 L60.5546875,45.1000977 L60.6181641,46.3442383 L60.6625977,46.3442383 C60.9461277,45.8364232 61.2486963,45.4799001 61.5703125,45.2746582 C61.8919287,45.0694163 62.2812477,44.9667969 62.7382812,44.9667969 L62.7382812,44.9667969 Z M63.925293,45.1000977 L64.5727539,45.1000977 L66.0327148,48.972168 C66.477053,50.1613015 66.7584629,50.9632141 66.8769531,51.3779297 L66.9150391,51.3779297 C67.0927743,50.8320285 67.3826477,50.0174208 67.784668,48.934082 L69.2446289,45.1000977 L69.8920898,45.1000977 L66.8007812,53.1171875 C66.5511055,53.7688835 66.341635,54.2089832 66.1723633,54.4375 C66.0030916,54.6660168 65.8052583,54.8374018 65.5788574,54.9516602 C65.3524566,55.0659185 65.0784521,55.1230469 64.7568359,55.1230469 C64.5156238,55.1230469 64.246909,55.0786137 63.9506836,54.9897461 L63.9506836,54.4438477 C64.1961275,54.5115563 64.4606106,54.5454102 64.7441406,54.5454102 C64.959962,54.5454102 65.1503898,54.4946294 65.3154297,54.3930664 C65.4804696,54.2915034 65.629638,54.1338715 65.7629395,53.920166 C65.8962409,53.7064605 66.050699,53.3679222 66.2263184,52.904541 C66.4019377,52.4411598 66.5151365,52.1396491 66.565918,52 L63.925293,45.1000977 Z M79.7944336,52 L73.9863281,52 L73.9863281,51.4414062 L76.4555664,48.8642578 C77.1495803,48.1448532 77.6362291,47.5947285 77.9155273,47.2138672 C78.1948256,46.8330059 78.4000644,46.4690773 78.53125,46.1220703 C78.6624356,45.7750634 78.7280273,45.4111347 78.7280273,45.0302734 C78.7280273,44.4759087 78.546063,44.0252296 78.1821289,43.6782227 C77.8181948,43.3312157 77.3463571,43.1577148 76.7666016,43.1577148 C75.9921836,43.1577148 75.2516311,43.4391248 74.5449219,44.0019531 L74.2021484,43.5639648 C74.9765664,42.9122689 75.8356073,42.5864258 76.7792969,42.5864258 C77.5875691,42.5864258 78.2233864,42.8022439 78.6867676,43.2338867 C79.1501488,43.6655295 79.3818359,44.2600874 79.3818359,45.0175781 C79.3818359,45.631188 79.2263199,46.2246879 78.9152832,46.7980957 C78.6042465,47.3715035 78.0361369,48.0792601 77.2109375,48.9213867 L74.8305664,51.3652344 L74.8305664,51.390625 L79.7944336,51.390625 L79.7944336,52 Z" id="Category-2" fill="#4A4A4A"></path>
                <path d="M227.115234,79.347168 C227.115234,80.8198316 226.747074,81.9846149 226.010742,82.8415527 C225.27441,83.6984906 224.258796,84.1269531 222.963867,84.1269531 C221.673171,84.1269531 220.659672,83.6984906 219.92334,82.8415527 C219.187008,81.9846149 218.818848,80.8155999 218.818848,79.3344727 C218.818848,77.8575773 219.190182,76.6949098 219.932861,75.8464355 C220.675541,74.9979613 221.690098,74.5737305 222.976562,74.5737305 C224.271491,74.5737305 225.28499,75.0000771 226.01709,75.8527832 C226.74919,76.7054893 227.115234,77.8702726 227.115234,79.347168 L227.115234,79.347168 Z M219.523438,79.347168 C219.523438,80.6759507 219.819658,81.7032028 220.412109,82.4289551 C221.00456,83.1547074 221.855138,83.5175781 222.963867,83.5175781 C224.08106,83.5175781 224.934812,83.1578812 225.525146,82.4384766 C226.115481,81.7190719 226.410645,80.688646 226.410645,79.347168 C226.410645,78.0099217 226.115481,76.9847855 225.525146,76.2717285 C224.934812,75.5586716 224.085292,75.2021484 222.976562,75.2021484 C221.872065,75.2021484 221.020429,75.5618454 220.421631,76.28125 C219.822832,77.0006546 219.523438,78.0226171 219.523438,79.347168 L219.523438,79.347168 Z M232.041016,84.1269531 C230.978836,84.1269531 230.20443,83.7291706 229.717773,82.9335938 L229.67334,82.9335938 L229.692383,83.4667969 C229.70931,83.7799495 229.717773,84.1227195 229.717773,84.4951172 L229.717773,87.1230469 L229.089355,87.1230469 L229.089355,77.1000977 L229.622559,77.1000977 L229.743164,78.0839844 L229.78125,78.0839844 C230.255211,77.339189 231.01269,76.9667969 232.053711,76.9667969 C232.984705,76.9667969 233.694578,77.2725393 234.18335,77.8840332 C234.672122,78.4955271 234.916504,79.3852481 234.916504,80.5532227 C234.916504,81.6873429 234.659426,82.5664845 234.145264,83.1906738 C233.631101,83.8148631 232.929692,84.1269531 232.041016,84.1269531 L232.041016,84.1269531 Z M232.02832,83.5683594 C232.73503,83.5683594 233.28198,83.3059922 233.669189,82.78125 C234.056398,82.2565078 234.25,81.5223029 234.25,80.5786133 C234.25,78.5515849 233.517911,77.5380859 232.053711,77.5380859 C231.24967,77.5380859 230.659344,77.7591938 230.282715,78.201416 C229.906085,78.6436383 229.717773,79.3640901 229.717773,80.362793 L229.717773,80.565918 C229.717773,81.6450249 229.89868,82.4151995 230.260498,82.8764648 C230.622316,83.3377302 231.211584,83.5683594 232.02832,83.5683594 L232.02832,83.5683594 Z M238.648926,83.5683594 C239.046714,83.5683594 239.393716,83.5345055 239.689941,83.4667969 L239.689941,83.9746094 C239.385252,84.0761724 239.034019,84.1269531 238.63623,84.1269531 C238.026852,84.1269531 237.577231,83.9640316 237.287354,83.6381836 C236.997476,83.3123356 236.852539,82.8002965 236.852539,82.1020508 L236.852539,77.6459961 L235.830566,77.6459961 L235.830566,77.277832 L236.852539,76.9921875 L237.169922,75.4306641 L237.493652,75.4306641 L237.493652,77.1000977 L239.518555,77.1000977 L239.518555,77.6459961 L237.493652,77.6459961 L237.493652,82.0131836 C237.493652,82.5421576 237.58675,82.9335925 237.772949,83.1875 C237.959148,83.4414075 238.251137,83.5683594 238.648926,83.5683594 L238.648926,83.5683594 Z M241.810059,84 L241.181641,84 L241.181641,77.1000977 L241.810059,77.1000977 L241.810059,84 Z M241.092773,75.1831055 C241.092773,74.7768534 241.226073,74.5737305 241.492676,74.5737305 C241.623861,74.5737305 241.726481,74.6266271 241.800537,74.7324219 C241.874593,74.8382167 241.911621,74.988443 241.911621,75.1831055 C241.911621,75.3735361 241.874593,75.5237625 241.800537,75.6337891 C241.726481,75.7438157 241.623861,75.7988281 241.492676,75.7988281 C241.226073,75.7988281 241.092773,75.5935893 241.092773,75.1831055 L241.092773,75.1831055 Z M249.827148,80.5405273 C249.827148,81.666184 249.554202,82.5453256 249.008301,83.1779785 C248.4624,83.8106314 247.709152,84.1269531 246.748535,84.1269531 C246.143389,84.1269531 245.610191,83.9809585 245.148926,83.6889648 C244.68766,83.3969712 244.334311,82.9780301 244.088867,82.4321289 C243.843423,81.8862277 243.720703,81.2557002 243.720703,80.5405273 C243.720703,79.4148707 243.99365,78.5378449 244.539551,77.9094238 C245.085452,77.2810027 245.834468,76.9667969 246.786621,76.9667969 C247.734542,76.9667969 248.478269,77.2852344 249.017822,77.9221191 C249.557376,78.5590038 249.827148,79.4317978 249.827148,80.5405273 L249.827148,80.5405273 Z M244.380859,80.5405273 C244.380859,81.4884487 244.589272,82.2279433 245.006104,82.7590332 C245.422935,83.2901231 246.012203,83.5556641 246.773926,83.5556641 C247.535648,83.5556641 248.124917,83.2901231 248.541748,82.7590332 C248.95858,82.2279433 249.166992,81.4884487 249.166992,80.5405273 C249.166992,79.5883741 248.956464,78.8499375 248.5354,78.3251953 C248.114337,77.8004531 247.522953,77.5380859 246.76123,77.5380859 C245.999508,77.5380859 245.412356,77.7993952 244.999756,78.3220215 C244.587156,78.8446478 244.380859,79.5841424 244.380859,80.5405273 L244.380859,80.5405273 Z M256.549316,84 L256.549316,79.5249023 C256.549316,78.8308885 256.403322,78.3262548 256.111328,78.0109863 C255.819334,77.6957178 255.36654,77.5380859 254.75293,77.5380859 C253.92773,77.5380859 253.323651,77.7464986 252.940674,78.1633301 C252.557697,78.5801616 252.366211,79.2561802 252.366211,80.1914062 L252.366211,84 L251.737793,84 L251.737793,77.1000977 L252.270996,77.1000977 L252.391602,78.0458984 L252.429688,78.0458984 C252.878257,77.3264938 253.675938,76.9667969 254.822754,76.9667969 C256.388517,76.9667969 257.171387,77.806795 257.171387,79.4868164 L257.171387,84 L256.549316,84 Z M268.152832,84 L262.344727,84 L262.344727,83.4414062 L264.813965,80.8642578 C265.507979,80.1448532 265.994628,79.5947285 266.273926,79.2138672 C266.553224,78.8330059 266.758463,78.4690773 266.889648,78.1220703 C267.020834,77.7750634 267.086426,77.4111347 267.086426,77.0302734 C267.086426,76.4759087 266.904461,76.0252296 266.540527,75.6782227 C266.176593,75.3312157 265.704756,75.1577148 265.125,75.1577148 C264.350582,75.1577148 263.61003,75.4391248 262.90332,76.0019531 L262.560547,75.5639648 C263.334965,74.9122689 264.194006,74.5864258 265.137695,74.5864258 C265.945968,74.5864258 266.581785,74.8022439 267.045166,75.2338867 C267.508547,75.6655295 267.740234,76.2600874 267.740234,77.0175781 C267.740234,77.631188 267.584718,78.2246879 267.273682,78.7980957 C266.962645,79.3715035 266.394535,80.0792601 265.569336,80.9213867 L263.188965,83.3652344 L263.188965,83.390625 L268.152832,83.390625 L268.152832,84 Z" id="Option-2-Copy-3" fill="#4A4A4A"></path>
                <path d="M227.115234,143.347168 C227.115234,144.819832 226.747074,145.984615 226.010742,146.841553 C225.27441,147.698491 224.258796,148.126953 222.963867,148.126953 C221.673171,148.126953 220.659672,147.698491 219.92334,146.841553 C219.187008,145.984615 218.818848,144.8156 218.818848,143.334473 C218.818848,141.857577 219.190182,140.69491 219.932861,139.846436 C220.675541,138.997961 221.690098,138.57373 222.976562,138.57373 C224.271491,138.57373 225.28499,139.000077 226.01709,139.852783 C226.74919,140.705489 227.115234,141.870273 227.115234,143.347168 L227.115234,143.347168 Z M219.523438,143.347168 C219.523438,144.675951 219.819658,145.703203 220.412109,146.428955 C221.00456,147.154707 221.855138,147.517578 222.963867,147.517578 C224.08106,147.517578 224.934812,147.157881 225.525146,146.438477 C226.115481,145.719072 226.410645,144.688646 226.410645,143.347168 C226.410645,142.009922 226.115481,140.984785 225.525146,140.271729 C224.934812,139.558672 224.085292,139.202148 222.976562,139.202148 C221.872065,139.202148 221.020429,139.561845 220.421631,140.28125 C219.822832,141.000655 219.523438,142.022617 219.523438,143.347168 L219.523438,143.347168 Z M232.041016,148.126953 C230.978836,148.126953 230.20443,147.729171 229.717773,146.933594 L229.67334,146.933594 L229.692383,147.466797 C229.70931,147.779949 229.717773,148.122719 229.717773,148.495117 L229.717773,151.123047 L229.089355,151.123047 L229.089355,141.100098 L229.622559,141.100098 L229.743164,142.083984 L229.78125,142.083984 C230.255211,141.339189 231.01269,140.966797 232.053711,140.966797 C232.984705,140.966797 233.694578,141.272539 234.18335,141.884033 C234.672122,142.495527 234.916504,143.385248 234.916504,144.553223 C234.916504,145.687343 234.659426,146.566485 234.145264,147.190674 C233.631101,147.814863 232.929692,148.126953 232.041016,148.126953 L232.041016,148.126953 Z M232.02832,147.568359 C232.73503,147.568359 233.28198,147.305992 233.669189,146.78125 C234.056398,146.256508 234.25,145.522303 234.25,144.578613 C234.25,142.551585 233.517911,141.538086 232.053711,141.538086 C231.24967,141.538086 230.659344,141.759194 230.282715,142.201416 C229.906085,142.643638 229.717773,143.36409 229.717773,144.362793 L229.717773,144.565918 C229.717773,145.645025 229.89868,146.4152 230.260498,146.876465 C230.622316,147.33773 231.211584,147.568359 232.02832,147.568359 L232.02832,147.568359 Z M238.648926,147.568359 C239.046714,147.568359 239.393716,147.534506 239.689941,147.466797 L239.689941,147.974609 C239.385252,148.076172 239.034019,148.126953 238.63623,148.126953 C238.026852,148.126953 237.577231,147.964032 237.287354,147.638184 C236.997476,147.312336 236.852539,146.800296 236.852539,146.102051 L236.852539,141.645996 L235.830566,141.645996 L235.830566,141.277832 L236.852539,140.992188 L237.169922,139.430664 L237.493652,139.430664 L237.493652,141.100098 L239.518555,141.100098 L239.518555,141.645996 L237.493652,141.645996 L237.493652,146.013184 C237.493652,146.542158 237.58675,146.933592 237.772949,147.1875 C237.959148,147.441408 238.251137,147.568359 238.648926,147.568359 L238.648926,147.568359 Z M241.810059,148 L241.181641,148 L241.181641,141.100098 L241.810059,141.100098 L241.810059,148 Z M241.092773,139.183105 C241.092773,138.776853 241.226073,138.57373 241.492676,138.57373 C241.623861,138.57373 241.726481,138.626627 241.800537,138.732422 C241.874593,138.838217 241.911621,138.988443 241.911621,139.183105 C241.911621,139.373536 241.874593,139.523762 241.800537,139.633789 C241.726481,139.743816 241.623861,139.798828 241.492676,139.798828 C241.226073,139.798828 241.092773,139.593589 241.092773,139.183105 L241.092773,139.183105 Z M249.827148,144.540527 C249.827148,145.666184 249.554202,146.545326 249.008301,147.177979 C248.4624,147.810631 247.709152,148.126953 246.748535,148.126953 C246.143389,148.126953 245.610191,147.980958 245.148926,147.688965 C244.68766,147.396971 244.334311,146.97803 244.088867,146.432129 C243.843423,145.886228 243.720703,145.2557 243.720703,144.540527 C243.720703,143.414871 243.99365,142.537845 244.539551,141.909424 C245.085452,141.281003 245.834468,140.966797 246.786621,140.966797 C247.734542,140.966797 248.478269,141.285234 249.017822,141.922119 C249.557376,142.559004 249.827148,143.431798 249.827148,144.540527 L249.827148,144.540527 Z M244.380859,144.540527 C244.380859,145.488449 244.589272,146.227943 245.006104,146.759033 C245.422935,147.290123 246.012203,147.555664 246.773926,147.555664 C247.535648,147.555664 248.124917,147.290123 248.541748,146.759033 C248.95858,146.227943 249.166992,145.488449 249.166992,144.540527 C249.166992,143.588374 248.956464,142.849938 248.5354,142.325195 C248.114337,141.800453 247.522953,141.538086 246.76123,141.538086 C245.999508,141.538086 245.412356,141.799395 244.999756,142.322021 C244.587156,142.844648 244.380859,143.584142 244.380859,144.540527 L244.380859,144.540527 Z M256.549316,148 L256.549316,143.524902 C256.549316,142.830888 256.403322,142.326255 256.111328,142.010986 C255.819334,141.695718 255.36654,141.538086 254.75293,141.538086 C253.92773,141.538086 253.323651,141.746499 252.940674,142.16333 C252.557697,142.580162 252.366211,143.25618 252.366211,144.191406 L252.366211,148 L251.737793,148 L251.737793,141.100098 L252.270996,141.100098 L252.391602,142.045898 L252.429688,142.045898 C252.878257,141.326494 253.675938,140.966797 254.822754,140.966797 C256.388517,140.966797 257.171387,141.806795 257.171387,143.486816 L257.171387,148 L256.549316,148 Z M268.870117,145.632324 L267.270508,145.632324 L267.270508,148 L266.673828,148 L266.673828,145.632324 L261.900391,145.632324 L261.900391,145.207031 L266.502441,138.668945 L267.270508,138.668945 L267.270508,145.086426 L268.870117,145.086426 L268.870117,145.632324 Z M266.673828,145.086426 L266.673828,142.433105 C266.673828,141.155104 266.70345,140.082361 266.762695,139.214844 L266.711914,139.214844 C266.627278,139.37142 266.367027,139.769203 265.931152,140.408203 L262.655762,145.086426 L266.673828,145.086426 Z" id="Option-4" fill="#4A4A4A"></path>
                <path d="M23.2749023,74.1704102 C22.1111595,74.1704102 21.1949903,74.5428023 20.5263672,75.2875977 C19.8577441,76.032393 19.5234375,77.0522396 19.5234375,78.347168 C19.5234375,79.6717189 19.8387013,80.7000289 20.4692383,81.4321289 C21.0997753,82.1642289 22.0011335,82.5302734 23.1733398,82.5302734 C23.9519896,82.5302734 24.6671517,82.4308278 25.3188477,82.2319336 L25.3188477,82.8032227 C24.7052378,83.019044 23.939295,83.1269531 23.0209961,83.1269531 C21.7176042,83.1269531 20.69141,82.7058961 19.9423828,81.8637695 C19.1933556,81.0216429 18.8188477,79.8452224 18.8188477,78.3344727 C18.8188477,77.390783 18.9976382,76.5592484 19.3552246,75.8398438 C19.712811,75.1204391 20.226966,74.5650247 20.8977051,74.173584 C21.5684441,73.7821432 22.3481401,73.5864258 23.2368164,73.5864258 C24.1424199,73.5864258 24.9527959,73.7556949 25.6679688,74.0942383 L25.4077148,74.6782227 C24.7306281,74.3396793 24.0196977,74.1704102 23.2749023,74.1704102 L23.2749023,74.1704102 Z M31.4189453,83 L31.2602539,81.9082031 L31.2094727,81.9082031 C30.8624657,82.3525413 30.5059426,82.6667471 30.1398926,82.8508301 C29.7738426,83.034913 29.3411483,83.1269531 28.8417969,83.1269531 C28.1647102,83.1269531 27.63786,82.9534523 27.2612305,82.6064453 C26.884601,82.2594384 26.6962891,81.7791372 26.6962891,81.1655273 C26.6962891,80.4926724 26.9766411,79.9700539 27.5373535,79.5976562 C28.098066,79.2252586 28.9094999,79.0284832 29.9716797,79.0073242 L31.2856445,78.9692383 L31.2856445,78.512207 C31.2856445,77.8562793 31.1523451,77.361167 30.8857422,77.0268555 C30.6191393,76.6925439 30.1896188,76.5253906 29.597168,76.5253906 C28.9581674,76.5253906 28.2959019,76.7031232 27.6103516,77.0585938 L27.3754883,76.5126953 C28.132979,76.1572248 28.881995,75.9794922 29.6225586,75.9794922 C30.3800494,75.9794922 30.946043,76.1762676 31.3205566,76.5698242 C31.6950702,76.9633809 31.8823242,77.5769815 31.8823242,78.4106445 L31.8823242,83 L31.4189453,83 Z M28.8798828,82.5556641 C29.6162146,82.5556641 30.1970194,82.3451356 30.6223145,81.9240723 C31.0476095,81.503009 31.2602539,80.9179725 31.2602539,80.1689453 L31.2602539,79.4897461 L30.0541992,79.5405273 C29.0851189,79.5870771 28.3942892,79.7383614 27.9816895,79.9943848 C27.5690897,80.2504082 27.362793,80.6492486 27.362793,81.190918 C27.362793,81.6225608 27.4950345,81.9579252 27.7595215,82.1970215 C28.0240085,82.4361177 28.3974585,82.5556641 28.8798828,82.5556641 L28.8798828,82.5556641 Z M35.9384766,82.5683594 C36.336265,82.5683594 36.6832667,82.5345055 36.9794922,82.4667969 L36.9794922,82.9746094 C36.6748032,83.0761724 36.3235697,83.1269531 35.9257812,83.1269531 C35.3164032,83.1269531 34.866782,82.9640316 34.5769043,82.6381836 C34.2870265,82.3123356 34.1420898,81.8002965 34.1420898,81.1020508 L34.1420898,76.6459961 L33.1201172,76.6459961 L33.1201172,76.277832 L34.1420898,75.9921875 L34.4594727,74.4306641 L34.7832031,74.4306641 L34.7832031,76.1000977 L36.8081055,76.1000977 L36.8081055,76.6459961 L34.7832031,76.6459961 L34.7832031,81.0131836 C34.7832031,81.5421576 34.8763012,81.9335925 35.0625,82.1875 C35.2486988,82.4414075 35.5406881,82.5683594 35.9384766,82.5683594 L35.9384766,82.5683594 Z M41.2578125,83.1269531 C40.2548778,83.1269531 39.473066,82.8180369 38.9123535,82.2001953 C38.3516411,81.5823537 38.0712891,80.7169652 38.0712891,79.6040039 C38.0712891,78.503738 38.3421197,77.6224805 38.8837891,76.9602051 C39.4254584,76.2979296 40.1554316,75.9667969 41.0737305,75.9667969 C41.8862345,75.9667969 42.5273414,76.2503227 42.9970703,76.8173828 C43.4667992,77.3844429 43.7016602,78.1546175 43.7016602,79.1279297 L43.7016602,79.6357422 L38.7314453,79.6357422 C38.7399089,80.5836636 38.9610167,81.3072892 39.3947754,81.8066406 C39.8285341,82.3059921 40.4495402,82.5556641 41.2578125,82.5556641 C41.6513692,82.5556641 41.997313,82.5281578 42.2956543,82.4731445 C42.5939956,82.4181312 42.9716774,82.2996428 43.4287109,82.1176758 L43.4287109,82.6889648 C43.0393861,82.8582365 42.6796892,82.9735511 42.3496094,83.0349121 C42.0195296,83.0962731 41.6556009,83.1269531 41.2578125,83.1269531 L41.2578125,83.1269531 Z M41.0737305,76.5253906 C40.4093391,76.5253906 39.8761413,76.7443826 39.4741211,77.182373 C39.0721009,77.6203635 38.8372399,78.251949 38.7695312,79.0771484 L43.0351562,79.0771484 C43.0351562,78.2773398 42.8616554,77.6521019 42.5146484,77.201416 C42.1676415,76.7507302 41.6873403,76.5253906 41.0737305,76.5253906 L41.0737305,76.5253906 Z M50.9887695,76.1000977 L50.9887695,76.5380859 L49.5605469,76.6269531 C49.9414082,77.1009138 50.1318359,77.6214164 50.1318359,78.1884766 C50.1318359,78.8528679 49.9107281,79.3913554 49.4685059,79.8039551 C49.0262836,80.2165548 48.4327837,80.4228516 47.6879883,80.4228516 C47.3748357,80.4228516 47.1547858,80.4101564 47.027832,80.3847656 C46.7781563,80.5159512 46.5877285,80.6704093 46.456543,80.8481445 C46.3253574,81.0258798 46.2597656,81.2141917 46.2597656,81.4130859 C46.2597656,81.6331391 46.3433423,81.7939448 46.510498,81.8955078 C46.6776538,81.9970708 46.9580058,82.0478516 47.3515625,82.0478516 L48.5576172,82.0478516 C49.3066444,82.0478516 49.8800436,82.1991359 50.277832,82.501709 C50.6756205,82.8042821 50.8745117,83.2517874 50.8745117,83.8442383 C50.8745117,84.5721065 50.5793487,85.1338685 49.9890137,85.529541 C49.3986787,85.9252136 48.5576226,86.1230469 47.4658203,86.1230469 C46.598303,86.1230469 45.9265161,85.9558936 45.4504395,85.621582 C44.9743629,85.2872705 44.7363281,84.8217803 44.7363281,84.2250977 C44.7363281,83.751137 44.8833807,83.3575862 45.1774902,83.0444336 C45.4715998,82.731281 45.8704402,82.5175787 46.3740234,82.4033203 C46.1666656,82.3144527 46.0005703,82.1885588 45.8757324,82.0256348 C45.7508946,81.8627108 45.6884766,81.6754568 45.6884766,81.4638672 C45.6884766,81.0026019 45.9825817,80.5963559 46.5708008,80.2451172 C46.1687805,80.0800773 45.8556326,79.8208839 45.6313477,79.4675293 C45.4070627,79.1141747 45.2949219,78.7089867 45.2949219,78.2519531 C45.2949219,77.562171 45.5139138,77.0088725 45.9519043,76.592041 C46.3898948,76.1752095 46.9812788,75.9667969 47.7260742,75.9667969 C48.178876,75.9667969 48.5301094,76.01123 48.7797852,76.1000977 L50.9887695,76.1000977 Z M45.402832,84.1679688 C45.402832,85.1158902 46.1074148,85.5898438 47.5166016,85.5898438 C49.3278085,85.5898438 50.2333984,85.0122128 50.2333984,83.8569336 C50.2333984,83.442218 50.0916355,83.1417653 49.8081055,82.9555664 C49.5245754,82.7693676 49.0654329,82.6762695 48.4306641,82.6762695 L47.3007812,82.6762695 C46.0354754,82.6762695 45.402832,83.1734976 45.402832,84.1679688 L45.402832,84.1679688 Z M45.9296875,78.2519531 C45.9296875,78.7851589 46.0915511,79.1988104 46.4152832,79.4929199 C46.7390153,79.7870295 47.1717095,79.934082 47.7133789,79.934082 C48.2889026,79.934082 48.7300603,79.7880874 49.0368652,79.4960938 C49.3436702,79.2041001 49.4970703,78.7809273 49.4970703,78.2265625 C49.4970703,77.6383434 49.3394384,77.1971857 49.0241699,76.9030762 C48.7089014,76.6089666 48.2677437,76.4619141 47.7006836,76.4619141 C47.1505506,76.4619141 46.7178564,76.6195459 46.4025879,76.9348145 C46.0873194,77.250083 45.9296875,77.6891248 45.9296875,78.2519531 L45.9296875,78.2519531 Z M58.1108398,79.5405273 C58.1108398,80.666184 57.8378934,81.5453256 57.2919922,82.1779785 C56.746091,82.8106314 55.9928433,83.1269531 55.0322266,83.1269531 C54.4270803,83.1269531 53.8938825,82.9809585 53.4326172,82.6889648 C52.9713519,82.3969712 52.6180025,81.9780301 52.3725586,81.4321289 C52.1271147,80.8862277 52.0043945,80.2557002 52.0043945,79.5405273 C52.0043945,78.4148707 52.277341,77.5378449 52.8232422,76.9094238 C53.3691434,76.2810027 54.1181593,75.9667969 55.0703125,75.9667969 C56.0182339,75.9667969 56.7619602,76.2852344 57.3015137,76.9221191 C57.8410672,77.5590038 58.1108398,78.4317978 58.1108398,79.5405273 L58.1108398,79.5405273 Z M52.6645508,79.5405273 C52.6645508,80.4884487 52.8729634,81.2279433 53.2897949,81.7590332 C53.7066264,82.2901231 54.2958946,82.5556641 55.0576172,82.5556641 C55.8193397,82.5556641 56.4086079,82.2901231 56.8254395,81.7590332 C57.242271,81.2279433 57.4506836,80.4884487 57.4506836,79.5405273 C57.4506836,78.5883741 57.2401551,77.8499375 56.8190918,77.3251953 C56.3980285,76.8004531 55.8066444,76.5380859 55.0449219,76.5380859 C54.2831993,76.5380859 53.696047,76.7993952 53.2834473,77.3220215 C52.8708475,77.8446478 52.6645508,78.5841424 52.6645508,79.5405273 L52.6645508,79.5405273 Z M62.7382812,75.9667969 C63.0302749,75.9667969 63.3434228,75.996419 63.6777344,76.0556641 L63.5571289,76.6586914 C63.2693671,76.5867509 62.9710302,76.5507812 62.6621094,76.5507812 C62.0738903,76.5507812 61.5914732,76.8004532 61.2148438,77.2998047 C60.8382143,77.7991561 60.6499023,78.4296837 60.6499023,79.1914062 L60.6499023,83 L60.0214844,83 L60.0214844,76.1000977 L60.5546875,76.1000977 L60.6181641,77.3442383 L60.6625977,77.3442383 C60.9461277,76.8364232 61.2486963,76.4799001 61.5703125,76.2746582 C61.8919287,76.0694163 62.2812477,75.9667969 62.7382812,75.9667969 L62.7382812,75.9667969 Z M63.925293,76.1000977 L64.5727539,76.1000977 L66.0327148,79.972168 C66.477053,81.1613015 66.7584629,81.9632141 66.8769531,82.3779297 L66.9150391,82.3779297 C67.0927743,81.8320285 67.3826477,81.0174208 67.784668,79.934082 L69.2446289,76.1000977 L69.8920898,76.1000977 L66.8007812,84.1171875 C66.5511055,84.7688835 66.341635,85.2089832 66.1723633,85.4375 C66.0030916,85.6660168 65.8052583,85.8374018 65.5788574,85.9516602 C65.3524566,86.0659185 65.0784521,86.1230469 64.7568359,86.1230469 C64.5156238,86.1230469 64.246909,86.0786137 63.9506836,85.9897461 L63.9506836,85.4438477 C64.1961275,85.5115563 64.4606106,85.5454102 64.7441406,85.5454102 C64.959962,85.5454102 65.1503898,85.4946294 65.3154297,85.3930664 C65.4804696,85.2915034 65.629638,85.1338715 65.7629395,84.920166 C65.8962409,84.7064605 66.050699,84.3679222 66.2263184,83.904541 C66.4019377,83.4411598 66.5151365,83.1396491 66.565918,83 L63.925293,76.1000977 Z M79.4833984,75.9033203 C79.4833984,76.478844 79.302492,76.9633769 78.9406738,77.3569336 C78.5788556,77.7504902 78.0932648,78.0022781 77.4838867,78.1123047 L77.4838867,78.1503906 C78.2286821,78.24349 78.7957337,78.4804668 79.1850586,78.8613281 C79.5743835,79.2421894 79.769043,79.7542286 79.769043,80.3974609 C79.769043,81.2649783 79.4738799,81.9367652 78.8835449,82.4128418 C78.2932099,82.8889184 77.4436904,83.1269531 76.3349609,83.1269531 C75.3912713,83.1269531 74.5682001,82.9513364 73.8657227,82.6000977 L73.8657227,81.9716797 C74.2211932,82.1578785 74.6200336,82.3038732 75.0622559,82.409668 C75.5044781,82.5154628 75.9202454,82.5683594 76.3095703,82.5683594 C77.2447963,82.5683594 77.9472633,82.3789895 78.4169922,82.0002441 C78.8867211,81.6214988 79.121582,81.087243 79.121582,80.3974609 C79.121582,79.7838511 78.8814314,79.3120134 78.401123,78.9819336 C77.9208147,78.6518538 77.2151739,78.4868164 76.2841797,78.4868164 L75.28125,78.4868164 L75.28125,77.8774414 L76.296875,77.8774414 C77.0670611,77.8774414 77.677488,77.6944191 78.1281738,77.3283691 C78.5788597,76.9623191 78.8041992,76.466149 78.8041992,75.8398438 C78.8041992,75.3235651 78.621177,74.9099137 78.255127,74.598877 C77.8890769,74.2878402 77.4098337,74.1323242 76.8173828,74.1323242 C76.3561175,74.1323242 75.9350605,74.1968581 75.5541992,74.3259277 C75.1733379,74.4549974 74.7459334,74.6761052 74.2719727,74.9892578 L73.9609375,74.5639648 C74.3206398,74.2635076 74.754392,74.0254729 75.262207,73.8498535 C75.7700221,73.6742341 76.2841771,73.5864258 76.8046875,73.5864258 C77.6595095,73.5864258 78.3196591,73.7884908 78.7851562,74.192627 C79.2506534,74.5967631 79.4833984,75.1669885 79.4833984,75.9033203 L79.4833984,75.9033203 Z" id="Category-3" fill="#4A4A4A"></path>
                <rect id="Rectangle-10-Copy-3" fill-opacity="0.1" fill="#0A8CC6" x="200" y="97" width="200" height="32"></rect>
                <path d="M227.115234,111.347168 C227.115234,112.819832 226.747074,113.984615 226.010742,114.841553 C225.27441,115.698491 224.258796,116.126953 222.963867,116.126953 C221.673171,116.126953 220.659672,115.698491 219.92334,114.841553 C219.187008,113.984615 218.818848,112.8156 218.818848,111.334473 C218.818848,109.857577 219.190182,108.69491 219.932861,107.846436 C220.675541,106.997961 221.690098,106.57373 222.976562,106.57373 C224.271491,106.57373 225.28499,107.000077 226.01709,107.852783 C226.74919,108.705489 227.115234,109.870273 227.115234,111.347168 L227.115234,111.347168 Z M219.523438,111.347168 C219.523438,112.675951 219.819658,113.703203 220.412109,114.428955 C221.00456,115.154707 221.855138,115.517578 222.963867,115.517578 C224.08106,115.517578 224.934812,115.157881 225.525146,114.438477 C226.115481,113.719072 226.410645,112.688646 226.410645,111.347168 C226.410645,110.009922 226.115481,108.984785 225.525146,108.271729 C224.934812,107.558672 224.085292,107.202148 222.976562,107.202148 C221.872065,107.202148 221.020429,107.561845 220.421631,108.28125 C219.822832,109.000655 219.523438,110.022617 219.523438,111.347168 L219.523438,111.347168 Z M232.041016,116.126953 C230.978836,116.126953 230.20443,115.729171 229.717773,114.933594 L229.67334,114.933594 L229.692383,115.466797 C229.70931,115.779949 229.717773,116.122719 229.717773,116.495117 L229.717773,119.123047 L229.089355,119.123047 L229.089355,109.100098 L229.622559,109.100098 L229.743164,110.083984 L229.78125,110.083984 C230.255211,109.339189 231.01269,108.966797 232.053711,108.966797 C232.984705,108.966797 233.694578,109.272539 234.18335,109.884033 C234.672122,110.495527 234.916504,111.385248 234.916504,112.553223 C234.916504,113.687343 234.659426,114.566485 234.145264,115.190674 C233.631101,115.814863 232.929692,116.126953 232.041016,116.126953 L232.041016,116.126953 Z M232.02832,115.568359 C232.73503,115.568359 233.28198,115.305992 233.669189,114.78125 C234.056398,114.256508 234.25,113.522303 234.25,112.578613 C234.25,110.551585 233.517911,109.538086 232.053711,109.538086 C231.24967,109.538086 230.659344,109.759194 230.282715,110.201416 C229.906085,110.643638 229.717773,111.36409 229.717773,112.362793 L229.717773,112.565918 C229.717773,113.645025 229.89868,114.4152 230.260498,114.876465 C230.622316,115.33773 231.211584,115.568359 232.02832,115.568359 L232.02832,115.568359 Z M238.648926,115.568359 C239.046714,115.568359 239.393716,115.534506 239.689941,115.466797 L239.689941,115.974609 C239.385252,116.076172 239.034019,116.126953 238.63623,116.126953 C238.026852,116.126953 237.577231,115.964032 237.287354,115.638184 C236.997476,115.312336 236.852539,114.800296 236.852539,114.102051 L236.852539,109.645996 L235.830566,109.645996 L235.830566,109.277832 L236.852539,108.992188 L237.169922,107.430664 L237.493652,107.430664 L237.493652,109.100098 L239.518555,109.100098 L239.518555,109.645996 L237.493652,109.645996 L237.493652,114.013184 C237.493652,114.542158 237.58675,114.933592 237.772949,115.1875 C237.959148,115.441408 238.251137,115.568359 238.648926,115.568359 L238.648926,115.568359 Z M241.810059,116 L241.181641,116 L241.181641,109.100098 L241.810059,109.100098 L241.810059,116 Z M241.092773,107.183105 C241.092773,106.776853 241.226073,106.57373 241.492676,106.57373 C241.623861,106.57373 241.726481,106.626627 241.800537,106.732422 C241.874593,106.838217 241.911621,106.988443 241.911621,107.183105 C241.911621,107.373536 241.874593,107.523762 241.800537,107.633789 C241.726481,107.743816 241.623861,107.798828 241.492676,107.798828 C241.226073,107.798828 241.092773,107.593589 241.092773,107.183105 L241.092773,107.183105 Z M249.827148,112.540527 C249.827148,113.666184 249.554202,114.545326 249.008301,115.177979 C248.4624,115.810631 247.709152,116.126953 246.748535,116.126953 C246.143389,116.126953 245.610191,115.980958 245.148926,115.688965 C244.68766,115.396971 244.334311,114.97803 244.088867,114.432129 C243.843423,113.886228 243.720703,113.2557 243.720703,112.540527 C243.720703,111.414871 243.99365,110.537845 244.539551,109.909424 C245.085452,109.281003 245.834468,108.966797 246.786621,108.966797 C247.734542,108.966797 248.478269,109.285234 249.017822,109.922119 C249.557376,110.559004 249.827148,111.431798 249.827148,112.540527 L249.827148,112.540527 Z M244.380859,112.540527 C244.380859,113.488449 244.589272,114.227943 245.006104,114.759033 C245.422935,115.290123 246.012203,115.555664 246.773926,115.555664 C247.535648,115.555664 248.124917,115.290123 248.541748,114.759033 C248.95858,114.227943 249.166992,113.488449 249.166992,112.540527 C249.166992,111.588374 248.956464,110.849938 248.5354,110.325195 C248.114337,109.800453 247.522953,109.538086 246.76123,109.538086 C245.999508,109.538086 245.412356,109.799395 244.999756,110.322021 C244.587156,110.844648 244.380859,111.584142 244.380859,112.540527 L244.380859,112.540527 Z M256.549316,116 L256.549316,111.524902 C256.549316,110.830888 256.403322,110.326255 256.111328,110.010986 C255.819334,109.695718 255.36654,109.538086 254.75293,109.538086 C253.92773,109.538086 253.323651,109.746499 252.940674,110.16333 C252.557697,110.580162 252.366211,111.25618 252.366211,112.191406 L252.366211,116 L251.737793,116 L251.737793,109.100098 L252.270996,109.100098 L252.391602,110.045898 L252.429688,110.045898 C252.878257,109.326494 253.675938,108.966797 254.822754,108.966797 C256.388517,108.966797 257.171387,109.806795 257.171387,111.486816 L257.171387,116 L256.549316,116 Z M267.841797,108.90332 C267.841797,109.478844 267.66089,109.963377 267.299072,110.356934 C266.937254,110.75049 266.451663,111.002278 265.842285,111.112305 L265.842285,111.150391 C266.587081,111.24349 267.154132,111.480467 267.543457,111.861328 C267.932782,112.242189 268.127441,112.754229 268.127441,113.397461 C268.127441,114.264978 267.832278,114.936765 267.241943,115.412842 C266.651608,115.888918 265.802089,116.126953 264.693359,116.126953 C263.74967,116.126953 262.926599,115.951336 262.224121,115.600098 L262.224121,114.97168 C262.579592,115.157879 262.978432,115.303873 263.420654,115.409668 C263.862877,115.515463 264.278644,115.568359 264.667969,115.568359 C265.603195,115.568359 266.305662,115.37899 266.775391,115.000244 C267.24512,114.621499 267.47998,114.087243 267.47998,113.397461 C267.47998,112.783851 267.23983,112.312013 266.759521,111.981934 C266.279213,111.651854 265.573572,111.486816 264.642578,111.486816 L263.639648,111.486816 L263.639648,110.877441 L264.655273,110.877441 C265.42546,110.877441 266.035886,110.694419 266.486572,110.328369 C266.937258,109.962319 267.162598,109.466149 267.162598,108.839844 C267.162598,108.323565 266.979575,107.909914 266.613525,107.598877 C266.247475,107.28784 265.768232,107.132324 265.175781,107.132324 C264.714516,107.132324 264.293459,107.196858 263.912598,107.325928 C263.531736,107.454997 263.104332,107.676105 262.630371,107.989258 L262.319336,107.563965 C262.679038,107.263508 263.11279,107.025473 263.620605,106.849854 C264.128421,106.674234 264.642576,106.586426 265.163086,106.586426 C266.017908,106.586426 266.678058,106.788491 267.143555,107.192627 C267.609052,107.596763 267.841797,108.166989 267.841797,108.90332 L267.841797,108.90332 Z" id="Option-3-Copy-3" fill="#4A4A4A"></path>
                <path d="M187.5,48 C187.5,48.1354173 187.450521,48.2526037 187.351563,48.3515625 L183.851562,51.8515625 C183.752604,51.9505213 183.635417,52 183.5,52 C183.364583,52 183.247396,51.9505213 183.148438,51.8515625 C183.049479,51.7526037 183,51.6354173 183,51.5 L183,44.5 C183,44.3645827 183.049479,44.2473963 183.148438,44.1484375 C183.247396,44.0494787 183.364583,44 183.5,44 C183.635417,44 183.752604,44.0494787 183.851562,44.1484375 L187.351563,47.6484375 C187.450521,47.7473963 187.5,47.8645827 187.5,48 L187.5,48 Z" id="-copy-6" fill="#4A4A4A"></path>
                <path d="M187.5,80 C187.5,80.1354173 187.450521,80.2526037 187.351563,80.3515625 L183.851562,83.8515625 C183.752604,83.9505213 183.635417,84 183.5,84 C183.364583,84 183.247396,83.9505213 183.148438,83.8515625 C183.049479,83.7526037 183,83.6354173 183,83.5 L183,76.5 C183,76.3645827 183.049479,76.2473963 183.148438,76.1484375 C183.247396,76.0494787 183.364583,76 183.5,76 C183.635417,76 183.752604,76.0494787 183.851562,76.1484375 L187.351563,79.6484375 C187.450521,79.7473963 187.5,79.8645827 187.5,80 L187.5,80 Z" id="-copy-6" fill="#4A4A4A"></path>
            </g>
        </g>
    </g>
</svg>