<?xml version="1.0" encoding="UTF-8" standalone="no"?>
<svg width="541px" height="32px" viewBox="0 0 541 32" version="1.1" xmlns="http://www.w3.org/2000/svg" xmlns:xlink="http://www.w3.org/1999/xlink">
    <!-- Generator: Sketch 40.2 (33826) - http://www.bohemiancoding.com/sketch -->
    <title>nbr-fld</title>
    <desc>Created with Sketch.</desc>
    <defs>
        <rect id="path-1" x="0" y="0" width="541" height="32"></rect>
        <mask id="mask-2" maskContentUnits="userSpaceOnUse" maskUnits="objectBoundingBox" x="0" y="0" width="541" height="32" fill="white">
            <use xlink:href="#path-1"></use>
        </mask>
    </defs>
    <g id="Components" stroke="none" stroke-width="1" fill="none" fill-rule="evenodd">
        <g id="Forms" transform="translate(-325.000000, -931.000000)">
            <g id="nbr-fld" transform="translate(325.000000, 931.000000)">
                <use id="Rectangle-6" stroke="#D0D0D0" mask="url(#mask-2)" stroke-width="2" fill="#FFFFFF" xlink:href="#path-1"></use>
                <path d="M523.895307,23.8346947 C523.789957,23.9387398 523.649163,24 523.499508,24 C523.350837,24 523.209058,23.9387398 523.104693,23.8346947 L519.167378,19.9461299 C519.062028,19.8420848 519,19.7030338 519,19.5552314 C519,19.2518475 519.255005,19 519.562192,19 L527.436823,19 C527.744995,19 528,19.2518475 528,19.5552314 C528,19.7030338 527.937972,19.8420848 527.832622,19.9461299 L523.895307,23.8346947 Z" id="Fill-46" fill="#4A4A4A"></path>
                <path d="M523.895307,13.8346947 C523.789957,13.9387398 523.649163,14 523.499508,14 C523.350837,14 523.209058,13.9387398 523.104693,13.8346947 L519.167378,9.94612991 C519.062028,9.84208479 519,9.70303384 519,9.55523143 C519,9.25184753 519.255005,9 519.562192,9 L527.436823,9 C527.744995,9 528,9.25184753 528,9.55523143 C528,9.70303384 527.937972,9.84208479 527.832622,9.94612991 L523.895307,13.8346947 Z" id="Fill-46" fill="#4A4A4A" transform="translate(523.500000, 11.500000) rotate(-180.000000) translate(-523.500000, -11.500000) "></path>
            </g>
        </g>
    </g>
</svg>