<?xml version="1.0" encoding="UTF-8" standalone="no"?>
<svg width="389px" height="144px" viewBox="0 0 389 144" version="1.1" xmlns="http://www.w3.org/2000/svg" xmlns:xlink="http://www.w3.org/1999/xlink">
    <!-- Generator: Sketch 40.2 (33826) - http://www.bohemiancoding.com/sketch -->
    <title>Group</title>
    <desc>Created with Sketch.</desc>
    <defs>
        <rect id="path-1" x="30" y="0" width="315" height="144"></rect>
        <mask id="mask-2" maskContentUnits="userSpaceOnUse" maskUnits="objectBoundingBox" x="0" y="0" width="315" height="144" fill="white">
            <use xlink:href="#path-1"></use>
        </mask>
    </defs>
    <g id="Product-Style" stroke="none" stroke-width="1" fill="none" fill-rule="evenodd">
        <g id="Product-Style---Color" transform="translate(-339.000000, -1854.000000)">
            <g id="Group" transform="translate(339.000000, 1854.000000)">
                <use id="Rectangle-19" stroke="#86BC40" mask="url(#mask-2)" stroke-width="4" fill="#FFFFFF" xlink:href="#path-1"></use>
                <rect id="Rectangle-15" fill="#86BC40" x="30" y="0" width="315" height="44"></rect>
                <path d="M51.8125,17.90625 C51.8125,19.0625058 51.4179727,19.9518198 50.6289062,20.5742188 C49.8398398,21.1966177 48.7109448,21.5078125 47.2421875,21.5078125 L45.8984375,21.5078125 L45.8984375,26 L44.5703125,26 L44.5703125,14.578125 L47.53125,14.578125 C50.3854309,14.578125 51.8125,15.6874889 51.8125,17.90625 L51.8125,17.90625 Z M45.8984375,20.3671875 L47.09375,20.3671875 C48.2708392,20.3671875 49.1223932,20.1770852 49.6484375,19.796875 C50.1744818,19.4166648 50.4375,18.8072959 50.4375,17.96875 C50.4375,17.2135379 50.1901066,16.6510435 49.6953125,16.28125 C49.2005184,15.9114565 48.4296927,15.7265625 47.3828125,15.7265625 L45.8984375,15.7265625 L45.8984375,20.3671875 Z M59.2734375,26 L59.015625,24.78125 L58.953125,24.78125 C58.5260395,25.317711 58.1002625,25.6809886 57.6757812,25.8710938 C57.2513,26.0611989 56.7213573,26.15625 56.0859375,26.15625 C55.2369749,26.15625 54.571617,25.9375022 54.0898438,25.5 C53.6080705,25.0624978 53.3671875,24.4401082 53.3671875,23.6328125 C53.3671875,21.9036372 54.7499862,20.9973963 57.515625,20.9140625 L58.96875,20.8671875 L58.96875,20.3359375 C58.96875,19.6640591 58.8242202,19.1679704 58.5351562,18.8476562 C58.2460923,18.5273421 57.7838573,18.3671875 57.1484375,18.3671875 C56.4348923,18.3671875 55.6276087,18.5859353 54.7265625,19.0234375 L54.328125,18.03125 C54.7500021,17.8020822 55.2122371,17.6223965 55.7148438,17.4921875 C56.2174504,17.3619785 56.7213516,17.296875 57.2265625,17.296875 C58.2474009,17.296875 59.0039038,17.5234352 59.4960938,17.9765625 C59.9882837,18.4296898 60.234375,19.156245 60.234375,20.15625 L60.234375,26 L59.2734375,26 Z M56.34375,25.0859375 C57.1510457,25.0859375 57.7851539,24.8645855 58.2460938,24.421875 C58.7070336,23.9791645 58.9375,23.359379 58.9375,22.5625 L58.9375,21.7890625 L57.640625,21.84375 C56.6093698,21.8802085 55.8658877,22.0403632 55.4101562,22.3242188 C54.9544248,22.6080743 54.7265625,23.0494762 54.7265625,23.6484375 C54.7265625,24.1171898 54.8684882,24.4739571 55.1523438,24.71875 C55.4361993,24.9635429 55.8333308,25.0859375 56.34375,25.0859375 L56.34375,25.0859375 Z M68.765625,26 L68.765625,20.4609375 C68.765625,19.7630173 68.6067724,19.2421892 68.2890625,18.8984375 C67.9713526,18.5546858 67.4739617,18.3828125 66.796875,18.3828125 C65.9010372,18.3828125 65.2447937,18.6249976 64.828125,19.109375 C64.4114563,19.5937524 64.203125,20.3932236 64.203125,21.5078125 L64.203125,26 L62.90625,26 L62.90625,17.4375 L63.9609375,17.4375 L64.171875,18.609375 L64.234375,18.609375 C64.5000013,18.1874979 64.8723934,17.8606782 65.3515625,17.6289062 C65.8307316,17.3971343 66.3645804,17.28125 66.953125,17.28125 C67.9843802,17.28125 68.7604141,17.5299454 69.28125,18.0273438 C69.8020859,18.5247421 70.0625,19.320307 70.0625,20.4140625 L70.0625,26 L68.765625,26 Z M76.34375,26.15625 C75.0781187,26.15625 74.0794307,25.7708372 73.3476562,25 C72.6158818,24.2291628 72.25,23.158861 72.25,21.7890625 C72.25,20.4088473 72.5898404,19.3125041 73.2695312,18.5 C73.9492221,17.6874959 74.8619734,17.28125 76.0078125,17.28125 C77.0807345,17.28125 77.9296844,17.6341111 78.5546875,18.3398438 C79.1796906,19.0455764 79.4921875,19.9765567 79.4921875,21.1328125 L79.4921875,21.953125 L73.59375,21.953125 C73.6197918,22.9583384 73.8736955,23.7213516 74.3554688,24.2421875 C74.837242,24.7630234 75.5156206,25.0234375 76.390625,25.0234375 C77.3125046,25.0234375 78.2239538,24.8307311 79.125,24.4453125 L79.125,25.6015625 C78.6666644,25.7994802 78.233075,25.9414058 77.8242188,26.0273438 C77.4153625,26.1132817 76.9218779,26.15625 76.34375,26.15625 L76.34375,26.15625 Z M75.9921875,18.3671875 C75.3046841,18.3671875 74.7565125,18.5911436 74.3476562,19.0390625 C73.9388,19.4869814 73.697917,20.1067669 73.625,20.8984375 L78.1015625,20.8984375 C78.1015625,20.0807251 77.9192727,19.4544293 77.5546875,19.0195312 C77.1901023,18.5846332 76.6692742,18.3671875 75.9921875,18.3671875 L75.9921875,18.3671875 Z M83,26 L81.703125,26 L81.703125,13.84375 L83,13.84375 L83,26 Z M98.7734375,26 L97.4453125,26 L97.4453125,20.625 L91.4296875,20.625 L91.4296875,26 L90.1015625,26 L90.1015625,14.578125 L91.4296875,14.578125 L91.4296875,19.4375 L97.4453125,19.4375 L97.4453125,14.578125 L98.7734375,14.578125 L98.7734375,26 Z M105.328125,26.15625 C104.062494,26.15625 103.063806,25.7708372 102.332031,25 C101.600257,24.2291628 101.234375,23.158861 101.234375,21.7890625 C101.234375,20.4088473 101.574215,19.3125041 102.253906,18.5 C102.933597,17.6874959 103.846348,17.28125 104.992188,17.28125 C106.06511,17.28125 106.914059,17.6341111 107.539062,18.3398438 C108.164066,19.0455764 108.476562,19.9765567 108.476562,21.1328125 L108.476562,21.953125 L102.578125,21.953125 C102.604167,22.9583384 102.858071,23.7213516 103.339844,24.2421875 C103.821617,24.7630234 104.499996,25.0234375 105.375,25.0234375 C106.29688,25.0234375 107.208329,24.8307311 108.109375,24.4453125 L108.109375,25.6015625 C107.651039,25.7994802 107.21745,25.9414058 106.808594,26.0273438 C106.399738,26.1132817 105.906253,26.15625 105.328125,26.15625 L105.328125,26.15625 Z M104.976562,18.3671875 C104.289059,18.3671875 103.740887,18.5911436 103.332031,19.0390625 C102.923175,19.4869814 102.682292,20.1067669 102.609375,20.8984375 L107.085938,20.8984375 C107.085938,20.0807251 106.903648,19.4544293 106.539062,19.0195312 C106.174477,18.5846332 105.653649,18.3671875 104.976562,18.3671875 L104.976562,18.3671875 Z M115.953125,26 L115.695312,24.78125 L115.632812,24.78125 C115.205727,25.317711 114.77995,25.6809886 114.355469,25.8710938 C113.930987,26.0611989 113.401045,26.15625 112.765625,26.15625 C111.916662,26.15625 111.251304,25.9375022 110.769531,25.5 C110.287758,25.0624978 110.046875,24.4401082 110.046875,23.6328125 C110.046875,21.9036372 111.429674,20.9973963 114.195312,20.9140625 L115.648438,20.8671875 L115.648438,20.3359375 C115.648438,19.6640591 115.503908,19.1679704 115.214844,18.8476562 C114.92578,18.5273421 114.463545,18.3671875 113.828125,18.3671875 C113.11458,18.3671875 112.307296,18.5859353 111.40625,19.0234375 L111.007812,18.03125 C111.42969,17.8020822 111.891925,17.6223965 112.394531,17.4921875 C112.897138,17.3619785 113.401039,17.296875 113.90625,17.296875 C114.927088,17.296875 115.683591,17.5234352 116.175781,17.9765625 C116.667971,18.4296898 116.914062,19.156245 116.914062,20.15625 L116.914062,26 L115.953125,26 Z M113.023438,25.0859375 C113.830733,25.0859375 114.464841,24.8645855 114.925781,24.421875 C115.386721,23.9791645 115.617188,23.359379 115.617188,22.5625 L115.617188,21.7890625 L114.320312,21.84375 C113.289057,21.8802085 112.545575,22.0403632 112.089844,22.3242188 C111.634112,22.6080743 111.40625,23.0494762 111.40625,23.6484375 C111.40625,24.1171898 111.548176,24.4739571 111.832031,24.71875 C112.115887,24.9635429 112.513018,25.0859375 113.023438,25.0859375 L113.023438,25.0859375 Z M125.414062,24.8515625 L125.34375,24.8515625 C124.744789,25.7213585 123.848964,26.15625 122.65625,26.15625 C121.536453,26.15625 120.665368,25.7734413 120.042969,25.0078125 C119.42057,24.2421837 119.109375,23.1536529 119.109375,21.7421875 C119.109375,20.3307221 119.421872,19.2343789 120.046875,18.453125 C120.671878,17.6718711 121.541661,17.28125 122.65625,17.28125 C123.817714,17.28125 124.70833,17.7031208 125.328125,18.546875 L125.429688,18.546875 L125.375,17.9296875 L125.34375,17.328125 L125.34375,13.84375 L126.640625,13.84375 L126.640625,26 L125.585938,26 L125.414062,24.8515625 Z M122.820312,25.0703125 C123.705734,25.0703125 124.347654,24.8294295 124.746094,24.3476562 C125.144533,23.865883 125.34375,23.088547 125.34375,22.015625 L125.34375,21.7421875 C125.34375,20.5286398 125.141929,19.662763 124.738281,19.1445312 C124.334633,18.6262995 123.690109,18.3671875 122.804688,18.3671875 C122.044267,18.3671875 121.462242,18.6627575 121.058594,19.2539062 C120.654946,19.845055 120.453125,20.6796821 120.453125,21.7578125 C120.453125,22.851568 120.653644,23.6770805 121.054688,24.234375 C121.455731,24.7916695 122.044267,25.0703125 122.820312,25.0703125 L122.820312,25.0703125 Z M133.007812,26.15625 C131.742181,26.15625 130.743493,25.7708372 130.011719,25 C129.279944,24.2291628 128.914062,23.158861 128.914062,21.7890625 C128.914062,20.4088473 129.253903,19.3125041 129.933594,18.5 C130.613285,17.6874959 131.526036,17.28125 132.671875,17.28125 C133.744797,17.28125 134.593747,17.6341111 135.21875,18.3398438 C135.843753,19.0455764 136.15625,19.9765567 136.15625,21.1328125 L136.15625,21.953125 L130.257812,21.953125 C130.283854,22.9583384 130.537758,23.7213516 131.019531,24.2421875 C131.501304,24.7630234 132.179683,25.0234375 133.054688,25.0234375 C133.976567,25.0234375 134.888016,24.8307311 135.789062,24.4453125 L135.789062,25.6015625 C135.330727,25.7994802 134.897137,25.9414058 134.488281,26.0273438 C134.079425,26.1132817 133.58594,26.15625 133.007812,26.15625 L133.007812,26.15625 Z M132.65625,18.3671875 C131.968747,18.3671875 131.420575,18.5911436 131.011719,19.0390625 C130.602863,19.4869814 130.36198,20.1067669 130.289062,20.8984375 L134.765625,20.8984375 C134.765625,20.0807251 134.583335,19.4544293 134.21875,19.0195312 C133.854165,18.5846332 133.333337,18.3671875 132.65625,18.3671875 L132.65625,18.3671875 Z M142.273438,17.28125 C142.653648,17.28125 142.99479,17.3124997 143.296875,17.375 L143.117188,18.578125 C142.763019,18.4999996 142.450522,18.4609375 142.179688,18.4609375 C141.486976,18.4609375 140.894534,18.7421847 140.402344,19.3046875 C139.910154,19.8671903 139.664062,20.5677041 139.664062,21.40625 L139.664062,26 L138.367188,26 L138.367188,17.4375 L139.4375,17.4375 L139.585938,19.0234375 L139.648438,19.0234375 C139.966147,18.466143 140.348956,18.0364598 140.796875,17.734375 C141.244794,17.4322902 141.736976,17.28125 142.273438,17.28125 L142.273438,17.28125 Z" id="Panel-Header" fill="#FFFFFF"></path>
                <path d="M54.1323242,81 L53.0532227,81 L53.0532227,72.6782227 L50.1142578,72.6782227 L50.1142578,71.7197266 L57.0712891,71.7197266 L57.0712891,72.6782227 L54.1323242,72.6782227 L54.1323242,81 Z M63.0698242,81 L63.0698242,76.4995117 C63.0698242,75.9324516 62.9407565,75.5092787 62.6826172,75.2299805 C62.4244779,74.9506822 62.0203478,74.8110352 61.4702148,74.8110352 C60.7381148,74.8110352 60.2038591,75.0099264 59.8674316,75.4077148 C59.5310042,75.8055033 59.362793,76.4571895 59.362793,77.362793 L59.362793,81 L58.309082,81 L58.309082,71.1230469 L59.362793,71.1230469 L59.362793,74.112793 C59.362793,74.4724953 59.3458661,74.7708321 59.3120117,75.0078125 L59.3754883,75.0078125 C59.5828461,74.6735009 59.8780092,74.4100758 60.2609863,74.2175293 C60.6439635,74.0249828 61.0808895,73.9287109 61.5717773,73.9287109 C62.4223675,73.9287109 63.0603006,74.130776 63.4855957,74.5349121 C63.9108908,74.9390482 64.1235352,75.581213 64.1235352,76.4614258 L64.1235352,81 L63.0698242,81 Z M69.2270508,81.1269531 C68.1987253,81.1269531 67.3872914,80.8138052 66.7927246,80.1875 C66.1981578,79.5611948 65.9008789,78.6915746 65.9008789,77.5786133 C65.9008789,76.4571884 66.1769992,75.5664096 66.729248,74.90625 C67.2814969,74.2460904 68.0231073,73.9160156 68.9541016,73.9160156 C69.8258507,73.9160156 70.5156225,74.2027152 71.0234375,74.776123 C71.5312525,75.3495309 71.7851562,76.1059523 71.7851562,77.0454102 L71.7851562,77.7119141 L66.9926758,77.7119141 C67.0138347,78.5286499 67.2201315,79.1485981 67.6115723,79.5717773 C68.003013,79.9949565 68.5541957,80.206543 69.2651367,80.206543 C70.0141639,80.206543 70.7547164,80.049969 71.4868164,79.7368164 L71.4868164,80.6762695 C71.1144187,80.8370776 70.7621273,80.9523922 70.4299316,81.0222168 C70.097736,81.0920414 69.6967797,81.1269531 69.2270508,81.1269531 L69.2270508,81.1269531 Z M68.9414062,74.7983398 C68.3828097,74.7983398 67.9374203,74.9803042 67.6052246,75.3442383 C67.2730289,75.7081724 67.0773115,76.2117481 67.0180664,76.8549805 L70.6552734,76.8549805 C70.6552734,76.1905891 70.5071629,75.6817238 70.2109375,75.3283691 C69.9147121,74.9750145 69.4915392,74.7983398 68.9414062,74.7983398 L68.9414062,74.7983398 Z M80.1958008,73.9287109 C81.1098679,73.9287109 81.8197403,74.2408009 82.3254395,74.8649902 C82.8311386,75.4891796 83.0839844,76.3725529 83.0839844,77.5151367 C83.0839844,78.6577206 82.8290227,79.5453256 82.3190918,80.1779785 C81.8091609,80.8106314 81.1014043,81.1269531 80.1958008,81.1269531 C79.742999,81.1269531 79.3293476,81.0433765 78.954834,80.8762207 C78.5803204,80.7090649 78.2661146,80.4519874 78.012207,80.1049805 L77.9360352,80.1049805 L77.7138672,81 L76.9584961,81 L76.9584961,71.1230469 L78.012207,71.1230469 L78.012207,73.5224609 C78.012207,74.0598985 77.9952801,74.5423156 77.9614258,74.9697266 L78.012207,74.9697266 C78.5030949,74.2757127 79.2309522,73.9287109 80.1958008,73.9287109 L80.1958008,73.9287109 Z M80.043457,74.8110352 C79.3240524,74.8110352 78.8056656,75.0173319 78.4882812,75.4299316 C78.1708969,75.8425314 78.012207,76.5375928 78.012207,77.5151367 C78.012207,78.4926807 78.1751286,79.1919738 78.5009766,79.6130371 C78.8268245,80.0341004 79.349443,80.2446289 80.0688477,80.2446289 C80.7163118,80.2446289 81.1987289,80.00871 81.5161133,79.5368652 C81.8334977,79.0650204 81.9921875,78.3868859 81.9921875,77.5024414 C81.9921875,76.5968379 81.8334977,75.9218772 81.5161133,75.4775391 C81.1987289,75.0332009 80.7078484,74.8110352 80.043457,74.8110352 L80.043457,74.8110352 Z M90.9296875,77.5151367 C90.9296875,78.649257 90.6440458,79.5347462 90.0727539,80.1716309 C89.501462,80.8085156 88.7122446,81.1269531 87.7050781,81.1269531 C87.0830047,81.1269531 86.5307641,80.9809585 86.0483398,80.6889648 C85.5659156,80.3969712 85.1935234,79.9780301 84.9311523,79.4321289 C84.6687812,78.8862277 84.5375977,78.2472367 84.5375977,77.5151367 C84.5375977,76.3810165 84.8211235,75.4976431 85.3881836,74.8649902 C85.9552437,74.2323373 86.7423452,73.9160156 87.7495117,73.9160156 C88.7228239,73.9160156 89.4961723,74.2397429 90.0695801,74.887207 C90.6429879,75.5346712 90.9296875,76.410639 90.9296875,77.5151367 L90.9296875,77.5151367 Z M85.6293945,77.5151367 C85.6293945,78.403813 85.8071271,79.0808896 86.1625977,79.5463867 C86.5180682,80.0118838 87.0406867,80.2446289 87.7304688,80.2446289 C88.4202508,80.2446289 88.9439272,80.0129418 89.3015137,79.5495605 C89.6591001,79.0861793 89.8378906,78.4080448 89.8378906,77.5151367 C89.8378906,76.6306922 89.6591001,75.9589053 89.3015137,75.4997559 C88.9439272,75.0406064 88.4160191,74.8110352 87.7177734,74.8110352 C87.0279913,74.8110352 86.5074887,75.0374326 86.15625,75.4902344 C85.8050113,75.9430361 85.6293945,76.6179968 85.6293945,77.5151367 L85.6293945,77.5151367 Z M97.512207,80.0668945 L97.4550781,80.0668945 C96.968422,80.7736038 96.2405647,81.1269531 95.2714844,81.1269531 C94.3616491,81.1269531 93.6538925,80.8159211 93.1481934,80.1938477 C92.6424942,79.5717742 92.3896484,78.687343 92.3896484,77.5405273 C92.3896484,76.3937117 92.6435521,75.5029329 93.1513672,74.8681641 C93.6591822,74.2333953 94.3658809,73.9160156 95.2714844,73.9160156 C96.215174,73.9160156 96.9387996,74.2587856 97.4423828,74.9443359 L97.5249023,74.9443359 L97.4804688,74.4428711 L97.4550781,73.9541016 L97.4550781,71.1230469 L98.5087891,71.1230469 L98.5087891,81 L97.6518555,81 L97.512207,80.0668945 Z M95.4047852,80.2446289 C96.1241898,80.2446289 96.6457503,80.0489115 96.9694824,79.6574707 C97.2932145,79.2660299 97.4550781,78.6344445 97.4550781,77.7626953 L97.4550781,77.5405273 C97.4550781,76.5545198 97.2910986,75.8509949 96.9631348,75.4299316 C96.6351709,75.0088683 96.1114945,74.7983398 95.3920898,74.7983398 C94.7742482,74.7983398 94.3013526,75.0384904 93.9733887,75.5187988 C93.6454248,75.9991072 93.4814453,76.6772417 93.4814453,77.5532227 C93.4814453,78.441899 93.6443669,79.1126279 93.9702148,79.5654297 C94.2960628,80.0182314 94.7742481,80.2446289 95.4047852,80.2446289 L95.4047852,80.2446289 Z M99.6386719,74.0429688 L100.768555,74.0429688 L102.291992,78.0102539 C102.626304,78.9158574 102.833658,79.5696594 102.914062,79.9716797 L102.964844,79.9716797 C103.019857,79.7558583 103.135172,79.38664 103.310791,78.8640137 C103.48641,78.3413874 104.060868,76.7343885 105.03418,74.0429688 L106.164062,74.0429688 L103.174316,81.9648438 C102.878091,82.7477253 102.532147,83.3031396 102.136475,83.6311035 C101.740802,83.9590674 101.255211,84.1230469 100.679688,84.1230469 C100.358071,84.1230469 100.040692,84.0870772 99.7275391,84.0151367 L99.7275391,83.1708984 C99.9602876,83.2216799 100.220539,83.2470703 100.508301,83.2470703 C101.231937,83.2470703 101.748208,82.8408244 102.057129,82.0283203 L102.444336,81.0380859 L99.6386719,74.0429688 Z M112.917969,80.2573242 C113.104168,80.2573242 113.284016,80.2435711 113.45752,80.2160645 C113.631023,80.1885578 113.768554,80.1599936 113.870117,80.1303711 L113.870117,80.9365234 C113.755859,80.9915367 113.587648,81.0370278 113.365479,81.072998 C113.143309,81.1089683 112.94336,81.1269531 112.765625,81.1269531 C111.419915,81.1269531 110.74707,80.4181386 110.74707,79.0004883 L110.74707,74.8618164 L109.750488,74.8618164 L109.750488,74.3540039 L110.74707,73.9160156 L111.191406,72.4306641 L111.800781,72.4306641 L111.800781,74.0429688 L113.819336,74.0429688 L113.819336,74.8618164 L111.800781,74.8618164 L111.800781,78.9560547 C111.800781,79.3750021 111.900227,79.6966135 112.099121,79.9208984 C112.298015,80.1451834 112.570962,80.2573242 112.917969,80.2573242 L112.917969,80.2573242 Z M118.199219,81.1269531 C117.170893,81.1269531 116.359459,80.8138052 115.764893,80.1875 C115.170326,79.5611948 114.873047,78.6915746 114.873047,77.5786133 C114.873047,76.4571884 115.149167,75.5664096 115.701416,74.90625 C116.253665,74.2460904 116.995275,73.9160156 117.92627,73.9160156 C118.798019,73.9160156 119.48779,74.2027152 119.995605,74.776123 C120.503421,75.3495309 120.757324,76.1059523 120.757324,77.0454102 L120.757324,77.7119141 L115.964844,77.7119141 C115.986003,78.5286499 116.192299,79.1485981 116.58374,79.5717773 C116.975181,79.9949565 117.526364,80.206543 118.237305,80.206543 C118.986332,80.206543 119.726884,80.049969 120.458984,79.7368164 L120.458984,80.6762695 C120.086587,80.8370776 119.734295,80.9523922 119.4021,81.0222168 C119.069904,81.0920414 118.668948,81.1269531 118.199219,81.1269531 L118.199219,81.1269531 Z M117.913574,74.7983398 C117.354978,74.7983398 116.909588,74.9803042 116.577393,75.3442383 C116.245197,75.7081724 116.049479,76.2117481 115.990234,76.8549805 L119.627441,76.8549805 C119.627441,76.1905891 119.479331,75.6817238 119.183105,75.3283691 C118.88688,74.9750145 118.463707,74.7983398 117.913574,74.7983398 L117.913574,74.7983398 Z M123.969238,77.4389648 L121.550781,74.0429688 L122.750488,74.0429688 L124.584961,76.7089844 L126.413086,74.0429688 L127.600098,74.0429688 L125.181641,77.4389648 L127.727051,81 L126.533691,81 L124.584961,78.1816406 L122.617188,81 L121.423828,81 L123.969238,77.4389648 Z M131.351562,80.2573242 C131.537761,80.2573242 131.71761,80.2435711 131.891113,80.2160645 C132.064617,80.1885578 132.202148,80.1599936 132.303711,80.1303711 L132.303711,80.9365234 C132.189453,80.9915367 132.021241,81.0370278 131.799072,81.072998 C131.576903,81.1089683 131.376954,81.1269531 131.199219,81.1269531 C129.853509,81.1269531 129.180664,80.4181386 129.180664,79.0004883 L129.180664,74.8618164 L128.184082,74.8618164 L128.184082,74.3540039 L129.180664,73.9160156 L129.625,72.4306641 L130.234375,72.4306641 L130.234375,74.0429688 L132.25293,74.0429688 L132.25293,74.8618164 L130.234375,74.8618164 L130.234375,78.9560547 C130.234375,79.3750021 130.333821,79.6966135 130.532715,79.9208984 C130.731609,80.1451834 131.004556,80.2573242 131.351562,80.2573242 L131.351562,80.2573242 Z M141.558594,79.1020508 C141.558594,79.749515 141.317385,80.2488589 140.834961,80.6000977 C140.352537,80.9513364 139.67546,81.1269531 138.803711,81.1269531 C137.88118,81.1269531 137.161786,80.9809585 136.645508,80.6889648 L136.645508,79.7114258 C136.979819,79.8806975 137.338458,80.0139969 137.721436,80.1113281 C138.104413,80.2086593 138.473631,80.2573242 138.829102,80.2573242 C139.379235,80.2573242 139.802407,80.1695159 140.098633,79.9938965 C140.394858,79.8182771 140.542969,79.5506203 140.542969,79.190918 C140.542969,78.9200833 140.425538,78.6883961 140.190674,78.4958496 C139.955809,78.3033031 139.497725,78.0758477 138.816406,77.8134766 C138.168942,77.5722644 137.708742,77.3617359 137.435791,77.1818848 C137.16284,77.0020336 136.959717,76.7978527 136.826416,76.5693359 C136.693115,76.3408192 136.626465,76.0678727 136.626465,75.7504883 C136.626465,75.1834282 136.857094,74.7359229 137.318359,74.407959 C137.779625,74.0799951 138.412268,73.9160156 139.216309,73.9160156 C139.965336,73.9160156 140.697425,74.0683579 141.412598,74.3730469 L141.038086,75.2299805 C140.33984,74.9422186 139.707197,74.7983398 139.140137,74.7983398 C138.640785,74.7983398 138.264161,74.8766268 138.010254,75.0332031 C137.756346,75.1897794 137.629395,75.4055976 137.629395,75.6806641 C137.629395,75.8668629 137.677001,76.0255527 137.772217,76.1567383 C137.867432,76.2879238 138.020832,76.4127598 138.232422,76.53125 C138.444011,76.6497402 138.850257,76.8211252 139.451172,77.0454102 C140.276371,77.3458674 140.833902,77.648436 141.123779,77.953125 C141.413657,78.257814 141.558594,78.6407855 141.558594,79.1020508 L141.558594,79.1020508 Z M148.033203,81 L148.033203,76.4995117 C148.033203,75.9324516 147.904135,75.5092787 147.645996,75.2299805 C147.387857,74.9506822 146.983727,74.8110352 146.433594,74.8110352 C145.701494,74.8110352 145.167238,75.0099264 144.830811,75.4077148 C144.494383,75.8055033 144.326172,76.4571895 144.326172,77.362793 L144.326172,81 L143.272461,81 L143.272461,71.1230469 L144.326172,71.1230469 L144.326172,74.112793 C144.326172,74.4724953 144.309245,74.7708321 144.275391,75.0078125 L144.338867,75.0078125 C144.546225,74.6735009 144.841388,74.4100758 145.224365,74.2175293 C145.607342,74.0249828 146.044268,73.9287109 146.535156,73.9287109 C147.385746,73.9287109 148.02368,74.130776 148.448975,74.5349121 C148.87427,74.9390482 149.086914,75.581213 149.086914,76.4614258 L149.086914,81 L148.033203,81 Z M157.256348,77.5151367 C157.256348,78.649257 156.970706,79.5347462 156.399414,80.1716309 C155.828122,80.8085156 155.038905,81.1269531 154.031738,81.1269531 C153.409665,81.1269531 152.857424,80.9809585 152.375,80.6889648 C151.892576,80.3969712 151.520184,79.9780301 151.257812,79.4321289 C150.995441,78.8862277 150.864258,78.2472367 150.864258,77.5151367 C150.864258,76.3810165 151.147784,75.4976431 151.714844,74.8649902 C152.281904,74.2323373 153.069005,73.9160156 154.076172,73.9160156 C155.049484,73.9160156 155.822832,74.2397429 156.39624,74.887207 C156.969648,75.5346712 157.256348,76.410639 157.256348,77.5151367 L157.256348,77.5151367 Z M151.956055,77.5151367 C151.956055,78.403813 152.133787,79.0808896 152.489258,79.5463867 C152.844728,80.0118838 153.367347,80.2446289 154.057129,80.2446289 C154.746911,80.2446289 155.270587,80.0129418 155.628174,79.5495605 C155.98576,79.0861793 156.164551,78.4080448 156.164551,77.5151367 C156.164551,76.6306922 155.98576,75.9589053 155.628174,75.4997559 C155.270587,75.0406064 154.742679,74.8110352 154.044434,74.8110352 C153.354651,74.8110352 152.834149,75.0374326 152.48291,75.4902344 C152.131671,75.9430361 151.956055,76.6179968 151.956055,77.5151367 L151.956055,77.5151367 Z M160.09375,74.0429688 L160.09375,78.5561523 C160.09375,79.1232125 160.222818,79.5463853 160.480957,79.8256836 C160.739096,80.1049819 161.143226,80.2446289 161.693359,80.2446289 C162.421228,80.2446289 162.953367,80.0457377 163.289795,79.6479492 C163.626222,79.2501608 163.794434,78.6005904 163.794434,77.6992188 L163.794434,74.0429688 L164.848145,74.0429688 L164.848145,81 L163.978516,81 L163.826172,80.0668945 L163.769043,80.0668945 C163.553222,80.4096697 163.253827,80.6720369 162.87085,80.8540039 C162.487872,81.035971 162.050946,81.1269531 161.560059,81.1269531 C160.7137,81.1269531 160.079999,80.925946 159.658936,80.5239258 C159.237872,80.1219055 159.027344,79.4786828 159.027344,78.5942383 L159.027344,74.0429688 L160.09375,74.0429688 Z M168.13623,81 L167.08252,81 L167.08252,71.1230469 L168.13623,71.1230469 L168.13623,81 Z M175.105957,80.0668945 L175.048828,80.0668945 C174.562172,80.7736038 173.834315,81.1269531 172.865234,81.1269531 C171.955399,81.1269531 171.247643,80.8159211 170.741943,80.1938477 C170.236244,79.5717742 169.983398,78.687343 169.983398,77.5405273 C169.983398,76.3937117 170.237302,75.5029329 170.745117,74.8681641 C171.252932,74.2333953 171.959631,73.9160156 172.865234,73.9160156 C173.808924,73.9160156 174.53255,74.2587856 175.036133,74.9443359 L175.118652,74.9443359 L175.074219,74.4428711 L175.048828,73.9541016 L175.048828,71.1230469 L176.102539,71.1230469 L176.102539,81 L175.245605,81 L175.105957,80.0668945 Z M172.998535,80.2446289 C173.71794,80.2446289 174.2395,80.0489115 174.563232,79.6574707 C174.886965,79.2660299 175.048828,78.6344445 175.048828,77.7626953 L175.048828,77.5405273 C175.048828,76.5545198 174.884849,75.8509949 174.556885,75.4299316 C174.228921,75.0088683 173.705244,74.7983398 172.98584,74.7983398 C172.367998,74.7983398 171.895103,75.0384904 171.567139,75.5187988 C171.239175,75.9991072 171.075195,76.6772417 171.075195,77.5532227 C171.075195,78.441899 171.238117,79.1126279 171.563965,79.5654297 C171.889813,80.0182314 172.367998,80.2446289 172.998535,80.2446289 L172.998535,80.2446289 Z M185.992188,81 L185.782715,80.0097656 L185.731934,80.0097656 C185.384927,80.4456402 185.038983,80.7408033 184.694092,80.8952637 C184.349201,81.0497241 183.918622,81.1269531 183.402344,81.1269531 C182.712562,81.1269531 182.171958,80.9492205 181.780518,80.59375 C181.389077,80.2382795 181.193359,79.7325879 181.193359,79.0766602 C181.193359,77.6717052 182.316883,76.9353845 184.563965,76.8676758 L185.744629,76.8295898 L185.744629,76.3979492 C185.744629,75.8520481 185.627198,75.4489759 185.392334,75.1887207 C185.15747,74.9284655 184.781904,74.7983398 184.265625,74.7983398 C183.685869,74.7983398 183.029952,74.9760724 182.297852,75.331543 L181.974121,74.5253906 C182.316896,74.3391918 182.692462,74.1931971 183.10083,74.0874023 C183.509198,73.9816075 183.918618,73.9287109 184.329102,73.9287109 C185.158533,73.9287109 185.773191,74.1127911 186.173096,74.480957 C186.573,74.8491229 186.772949,75.4394491 186.772949,76.2519531 L186.772949,81 L185.992188,81 Z M183.611816,80.2573242 C184.267744,80.2573242 184.782957,80.0774758 185.157471,79.7177734 C185.531984,79.3580711 185.719238,78.8544954 185.719238,78.2070312 L185.719238,77.5786133 L184.665527,77.6230469 C183.827633,77.6526694 183.223553,77.7827951 182.853271,78.0134277 C182.48299,78.2440604 182.297852,78.6026994 182.297852,79.0893555 C182.297852,79.4702167 182.413166,79.7600902 182.643799,79.9589844 C182.874431,80.1578786 183.197101,80.2573242 183.611816,80.2573242 L183.611816,80.2573242 Z M189.997559,81 L188.943848,81 L188.943848,71.1230469 L189.997559,71.1230469 L189.997559,81 Z M197.913086,81 L196.637207,76.918457 C196.556803,76.6687813 196.406577,76.1017297 196.186523,75.2172852 L196.135742,75.2172852 C195.966471,75.9578488 195.81836,76.5291321 195.691406,76.9311523 L194.377441,81 L193.158691,81 L191.260742,74.0429688 L192.365234,74.0429688 C192.813804,75.7906988 193.155516,77.1215775 193.390381,78.0356445 C193.625245,78.9497116 193.759603,79.5654281 193.793457,79.8828125 L193.844238,79.8828125 C193.890788,79.6416004 193.965901,79.3295104 194.06958,78.9465332 C194.173259,78.563556 194.263183,78.2599295 194.339355,78.0356445 L195.615234,74.0429688 L196.757812,74.0429688 L198.001953,78.0356445 C198.238933,78.7635128 198.399739,79.3749975 198.484375,79.8701172 L198.535156,79.8701172 C198.552083,79.7177727 198.597574,79.4829117 198.671631,79.1655273 C198.745687,78.8481429 199.186845,77.1406405 199.995117,74.0429688 L201.086914,74.0429688 L199.163574,81 L197.913086,81 Z M206.62207,81 L206.412598,80.0097656 L206.361816,80.0097656 C206.014809,80.4456402 205.668866,80.7408033 205.323975,80.8952637 C204.979084,81.0497241 204.548505,81.1269531 204.032227,81.1269531 C203.342444,81.1269531 202.801841,80.9492205 202.4104,80.59375 C202.01896,80.2382795 201.823242,79.7325879 201.823242,79.0766602 C201.823242,77.6717052 202.946766,76.9353845 205.193848,76.8676758 L206.374512,76.8295898 L206.374512,76.3979492 C206.374512,75.8520481 206.257081,75.4489759 206.022217,75.1887207 C205.787352,74.9284655 205.411786,74.7983398 204.895508,74.7983398 C204.315752,74.7983398 203.659834,74.9760724 202.927734,75.331543 L202.604004,74.5253906 C202.946779,74.3391918 203.322345,74.1931971 203.730713,74.0874023 C204.139081,73.9816075 204.548501,73.9287109 204.958984,73.9287109 C205.788416,73.9287109 206.403074,74.1127911 206.802979,74.480957 C207.202883,74.8491229 207.402832,75.4394491 207.402832,76.2519531 L207.402832,81 L206.62207,81 Z M204.241699,80.2573242 C204.897627,80.2573242 205.41284,80.0774758 205.787354,79.7177734 C206.161867,79.3580711 206.349121,78.8544954 206.349121,78.2070312 L206.349121,77.5786133 L205.29541,77.6230469 C204.457515,77.6526694 203.853436,77.7827951 203.483154,78.0134277 C203.112872,78.2440604 202.927734,78.6026994 202.927734,79.0893555 C202.927734,79.4702167 203.043049,79.7600902 203.273682,79.9589844 C203.504314,80.1578786 203.826984,80.2573242 204.241699,80.2573242 L204.241699,80.2573242 Z M208.469238,74.0429688 L209.599121,74.0429688 L211.122559,78.0102539 C211.45687,78.9158574 211.664225,79.5696594 211.744629,79.9716797 L211.79541,79.9716797 C211.850423,79.7558583 211.965738,79.38664 212.141357,78.8640137 C212.316977,78.3413874 212.891434,76.7343885 213.864746,74.0429688 L214.994629,74.0429688 L212.004883,81.9648438 C211.708657,82.7477253 211.362714,83.3031396 210.967041,83.6311035 C210.571368,83.9590674 210.085778,84.1230469 209.510254,84.1230469 C209.188638,84.1230469 208.871258,84.0870772 208.558105,84.0151367 L208.558105,83.1708984 C208.790854,83.2216799 209.051105,83.2470703 209.338867,83.2470703 C210.062504,83.2470703 210.578774,82.8408244 210.887695,82.0283203 L211.274902,81.0380859 L208.469238,74.0429688 Z M220.612305,79.1020508 C220.612305,79.749515 220.371096,80.2488589 219.888672,80.6000977 C219.406248,80.9513364 218.729171,81.1269531 217.857422,81.1269531 C216.934891,81.1269531 216.215497,80.9809585 215.699219,80.6889648 L215.699219,79.7114258 C216.03353,79.8806975 216.392169,80.0139969 216.775146,80.1113281 C217.158124,80.2086593 217.527342,80.2573242 217.882812,80.2573242 C218.432945,80.2573242 218.856118,80.1695159 219.152344,79.9938965 C219.448569,79.8182771 219.59668,79.5506203 219.59668,79.190918 C219.59668,78.9200833 219.479249,78.6883961 219.244385,78.4958496 C219.00952,78.3033031 218.551436,78.0758477 217.870117,77.8134766 C217.222653,77.5722644 216.762453,77.3617359 216.489502,77.1818848 C216.216551,77.0020336 216.013428,76.7978527 215.880127,76.5693359 C215.746826,76.3408192 215.680176,76.0678727 215.680176,75.7504883 C215.680176,75.1834282 215.910805,74.7359229 216.37207,74.407959 C216.833336,74.0799951 217.465979,73.9160156 218.27002,73.9160156 C219.019047,73.9160156 219.751136,74.0683579 220.466309,74.3730469 L220.091797,75.2299805 C219.393551,74.9422186 218.760908,74.7983398 218.193848,74.7983398 C217.694496,74.7983398 217.317872,74.8766268 217.063965,75.0332031 C216.810057,75.1897794 216.683105,75.4055976 216.683105,75.6806641 C216.683105,75.8668629 216.730712,76.0255527 216.825928,76.1567383 C216.921143,76.2879238 217.074543,76.4127598 217.286133,76.53125 C217.497722,76.6497402 217.903968,76.8211252 218.504883,77.0454102 C219.330082,77.3458674 219.887612,77.648436 220.17749,77.953125 C220.467368,78.257814 220.612305,78.6407855 220.612305,79.1020508 L220.612305,79.1020508 Z M228.94043,73.9287109 C229.854497,73.9287109 230.564369,74.2408009 231.070068,74.8649902 C231.575768,75.4891796 231.828613,76.3725529 231.828613,77.5151367 C231.828613,78.6577206 231.573652,79.5453256 231.063721,80.1779785 C230.55379,80.8106314 229.846033,81.1269531 228.94043,81.1269531 C228.487628,81.1269531 228.073976,81.0433765 227.699463,80.8762207 C227.324949,80.7090649 227.010743,80.4519874 226.756836,80.1049805 L226.680664,80.1049805 L226.458496,81 L225.703125,81 L225.703125,71.1230469 L226.756836,71.1230469 L226.756836,73.5224609 C226.756836,74.0598985 226.739909,74.5423156 226.706055,74.9697266 L226.756836,74.9697266 C227.247724,74.2757127 227.975581,73.9287109 228.94043,73.9287109 L228.94043,73.9287109 Z M228.788086,74.8110352 C228.068681,74.8110352 227.550295,75.0173319 227.23291,75.4299316 C226.915526,75.8425314 226.756836,76.5375928 226.756836,77.5151367 C226.756836,78.4926807 226.919757,79.1919738 227.245605,79.6130371 C227.571453,80.0341004 228.094072,80.2446289 228.813477,80.2446289 C229.460941,80.2446289 229.943358,80.00871 230.260742,79.5368652 C230.578127,79.0650204 230.736816,78.3868859 230.736816,77.5024414 C230.736816,76.5968379 230.578127,75.9218772 230.260742,75.4775391 C229.943358,75.0332009 229.452477,74.8110352 228.788086,74.8110352 L228.788086,74.8110352 Z M236.608398,81.1269531 C235.580073,81.1269531 234.768639,80.8138052 234.174072,80.1875 C233.579505,79.5611948 233.282227,78.6915746 233.282227,77.5786133 C233.282227,76.4571884 233.558347,75.5664096 234.110596,74.90625 C234.662845,74.2460904 235.404455,73.9160156 236.335449,73.9160156 C237.207198,73.9160156 237.89697,74.2027152 238.404785,74.776123 C238.9126,75.3495309 239.166504,76.1059523 239.166504,77.0454102 L239.166504,77.7119141 L234.374023,77.7119141 C234.395182,78.5286499 234.601479,79.1485981 234.99292,79.5717773 C235.384361,79.9949565 235.935543,80.206543 236.646484,80.206543 C237.395512,80.206543 238.136064,80.049969 238.868164,79.7368164 L238.868164,80.6762695 C238.495766,80.8370776 238.143475,80.9523922 237.811279,81.0222168 C237.479084,81.0920414 237.078127,81.1269531 236.608398,81.1269531 L236.608398,81.1269531 Z M236.322754,74.7983398 C235.764157,74.7983398 235.318768,74.9803042 234.986572,75.3442383 C234.654377,75.7081724 234.458659,76.2117481 234.399414,76.8549805 L238.036621,76.8549805 C238.036621,76.1905891 237.888511,75.6817238 237.592285,75.3283691 C237.29606,74.9750145 236.872887,74.7983398 236.322754,74.7983398 L236.322754,74.7983398 Z M249.449707,75.293457 L249.030762,77.4516602 L250.827148,77.4516602 L250.827148,78.2705078 L248.878418,78.2705078 L248.345215,81 L247.475586,81 L248.008789,78.2705078 L246.085449,78.2705078 L245.564941,81 L244.70166,81 L245.209473,78.2705078 L243.546387,78.2705078 L243.546387,77.4516602 L245.368164,77.4516602 L245.799805,75.293457 L244.041504,75.293457 L244.041504,74.4873047 L245.939453,74.4873047 L246.459961,71.7197266 L247.342285,71.7197266 L246.821777,74.4873047 L248.757812,74.4873047 L249.291016,71.7197266 L250.141602,71.7197266 L249.608398,74.4873047 L251.28418,74.4873047 L251.28418,75.293457 L249.449707,75.293457 Z M246.237793,77.4516602 L248.161133,77.4516602 L248.580078,75.293457 L246.656738,75.293457 L246.237793,77.4516602 Z M258.006348,73.9033203 C258.006348,74.4957712 257.840252,74.9803041 257.508057,75.3569336 C257.175861,75.7335631 256.705081,75.9853509 256.095703,76.1123047 L256.095703,76.1630859 C256.840499,76.2561854 257.392739,76.4931622 257.752441,76.8740234 C258.112144,77.2548847 258.291992,77.7542287 258.291992,78.3720703 C258.291992,79.2565148 257.985192,79.9367652 257.371582,80.4128418 C256.757972,80.8889184 255.886236,81.1269531 254.756348,81.1269531 C254.26546,81.1269531 253.815839,81.0899255 253.407471,81.0158691 C252.999103,80.9418128 252.602378,80.8116871 252.217285,80.6254883 L252.217285,79.6225586 C252.619305,79.8214528 253.047768,79.9727371 253.502686,80.076416 C253.957603,80.1800949 254.388182,80.2319336 254.794434,80.2319336 C256.398283,80.2319336 257.200195,79.6035219 257.200195,78.3466797 C257.200195,77.221023 256.315764,76.6582031 254.546875,76.6582031 L253.632812,76.6582031 L253.632812,75.7504883 L254.55957,75.7504883 C255.283207,75.7504883 255.856606,75.5907405 256.279785,75.2712402 C256.702964,74.9517399 256.914551,74.5084664 256.914551,73.9414062 C256.914551,73.4886045 256.759035,73.1331393 256.447998,72.875 C256.136961,72.6168607 255.714846,72.487793 255.181641,72.487793 C254.775389,72.487793 254.392417,72.5428054 254.032715,72.652832 C253.673013,72.7628586 253.262535,72.9659816 252.80127,73.262207 L252.268066,72.5512695 C252.648928,72.2508123 253.08797,72.0148934 253.585205,71.8435059 C254.082441,71.6721183 254.606117,71.5864258 255.15625,71.5864258 C256.057622,71.5864258 256.757973,71.7927225 257.257324,72.2053223 C257.756676,72.617922 258.006348,73.1839157 258.006348,73.9033203 L258.006348,73.9033203 Z M265.788574,81 L259.688477,81 L259.688477,80.0922852 L262.132324,77.6357422 C262.87712,76.8824832 263.368,76.3450537 263.60498,76.0234375 C263.841961,75.7018213 264.019693,75.3886734 264.138184,75.0839844 C264.256674,74.7792954 264.315918,74.4513364 264.315918,74.1000977 C264.315918,73.604978 264.165692,73.2124852 263.865234,72.9226074 C263.564777,72.6327297 263.147952,72.487793 262.614746,72.487793 C262.229653,72.487793 261.864666,72.5512689 261.519775,72.6782227 C261.174884,72.8051764 260.790855,73.0358056 260.367676,73.3701172 L259.809082,72.652832 C260.663904,71.941891 261.594884,71.5864258 262.602051,71.5864258 C263.4738,71.5864258 264.157224,71.8096495 264.652344,72.2561035 C265.147463,72.7025576 265.39502,73.3024051 265.39502,74.0556641 C265.39502,74.6438831 265.229982,75.2257458 264.899902,75.8012695 C264.569823,76.3767932 263.95199,77.1046505 263.046387,77.9848633 L261.015137,79.9716797 L261.015137,80.0224609 L265.788574,80.0224609 L265.788574,81 Z M272.872559,73.9033203 C272.872559,74.4957712 272.706463,74.9803041 272.374268,75.3569336 C272.042072,75.7335631 271.571292,75.9853509 270.961914,76.1123047 L270.961914,76.1630859 C271.706709,76.2561854 272.25895,76.4931622 272.618652,76.8740234 C272.978355,77.2548847 273.158203,77.7542287 273.158203,78.3720703 C273.158203,79.2565148 272.851403,79.9367652 272.237793,80.4128418 C271.624183,80.8889184 270.752447,81.1269531 269.622559,81.1269531 C269.131671,81.1269531 268.68205,81.0899255 268.273682,81.0158691 C267.865314,80.9418128 267.468589,80.8116871 267.083496,80.6254883 L267.083496,79.6225586 C267.485516,79.8214528 267.913979,79.9727371 268.368896,80.076416 C268.823814,80.1800949 269.254392,80.2319336 269.660645,80.2319336 C271.264494,80.2319336 272.066406,79.6035219 272.066406,78.3466797 C272.066406,77.221023 271.181975,76.6582031 269.413086,76.6582031 L268.499023,76.6582031 L268.499023,75.7504883 L269.425781,75.7504883 C270.149418,75.7504883 270.722817,75.5907405 271.145996,75.2712402 C271.569175,74.9517399 271.780762,74.5084664 271.780762,73.9414062 C271.780762,73.4886045 271.625246,73.1331393 271.314209,72.875 C271.003172,72.6168607 270.581057,72.487793 270.047852,72.487793 C269.6416,72.487793 269.258628,72.5428054 268.898926,72.652832 C268.539223,72.7628586 268.128746,72.9659816 267.66748,73.262207 L267.134277,72.5512695 C267.515139,72.2508123 267.95418,72.0148934 268.451416,71.8435059 C268.948652,71.6721183 269.472328,71.5864258 270.022461,71.5864258 C270.923833,71.5864258 271.624184,71.7927225 272.123535,72.2053223 C272.622887,72.617922 272.872559,73.1839157 272.872559,73.9033203 L272.872559,73.9033203 Z M280.654785,81 L274.554688,81 L274.554688,80.0922852 L276.998535,77.6357422 C277.743331,76.8824832 278.234211,76.3450537 278.471191,76.0234375 C278.708172,75.7018213 278.885904,75.3886734 279.004395,75.0839844 C279.122885,74.7792954 279.182129,74.4513364 279.182129,74.1000977 C279.182129,73.604978 279.031903,73.2124852 278.731445,72.9226074 C278.430988,72.6327297 278.014163,72.487793 277.480957,72.487793 C277.095864,72.487793 276.730877,72.5512689 276.385986,72.6782227 C276.041095,72.8051764 275.657066,73.0358056 275.233887,73.3701172 L274.675293,72.652832 C275.530115,71.941891 276.461095,71.5864258 277.468262,71.5864258 C278.340011,71.5864258 279.023435,71.8096495 279.518555,72.2561035 C280.013674,72.7025576 280.26123,73.3024051 280.26123,74.0556641 C280.26123,74.6438831 280.096193,75.2257458 279.766113,75.8012695 C279.436034,76.3767932 278.818201,77.1046505 277.912598,77.9848633 L275.881348,79.9716797 L275.881348,80.0224609 L280.654785,80.0224609 L280.654785,81 Z M287.73877,73.9033203 C287.73877,74.4957712 287.572674,74.9803041 287.240479,75.3569336 C286.908283,75.7335631 286.437503,75.9853509 285.828125,76.1123047 L285.828125,76.1630859 C286.57292,76.2561854 287.125161,76.4931622 287.484863,76.8740234 C287.844566,77.2548847 288.024414,77.7542287 288.024414,78.3720703 C288.024414,79.2565148 287.717614,79.9367652 287.104004,80.4128418 C286.490394,80.8889184 285.618658,81.1269531 284.48877,81.1269531 C283.997882,81.1269531 283.548261,81.0899255 283.139893,81.0158691 C282.731525,80.9418128 282.3348,80.8116871 281.949707,80.6254883 L281.949707,79.6225586 C282.351727,79.8214528 282.78019,79.9727371 283.235107,80.076416 C283.690025,80.1800949 284.120603,80.2319336 284.526855,80.2319336 C286.130705,80.2319336 286.932617,79.6035219 286.932617,78.3466797 C286.932617,77.221023 286.048186,76.6582031 284.279297,76.6582031 L283.365234,76.6582031 L283.365234,75.7504883 L284.291992,75.7504883 C285.015629,75.7504883 285.589028,75.5907405 286.012207,75.2712402 C286.435386,74.9517399 286.646973,74.5084664 286.646973,73.9414062 C286.646973,73.4886045 286.491457,73.1331393 286.18042,72.875 C285.869383,72.6168607 285.447268,72.487793 284.914062,72.487793 C284.50781,72.487793 284.124839,72.5428054 283.765137,72.652832 C283.405434,72.7628586 282.994957,72.9659816 282.533691,73.262207 L282.000488,72.5512695 C282.38135,72.2508123 282.820391,72.0148934 283.317627,71.8435059 C283.814863,71.6721183 284.338539,71.5864258 284.888672,71.5864258 C285.790044,71.5864258 286.490395,71.7927225 286.989746,72.2053223 C287.489098,72.617922 287.73877,73.1839157 287.73877,73.9033203 L287.73877,73.9033203 Z M295.520996,81 L289.420898,81 L289.420898,80.0922852 L291.864746,77.6357422 C292.609541,76.8824832 293.100422,76.3450537 293.337402,76.0234375 C293.574383,75.7018213 293.752115,75.3886734 293.870605,75.0839844 C293.989096,74.7792954 294.04834,74.4513364 294.04834,74.1000977 C294.04834,73.604978 293.898113,73.2124852 293.597656,72.9226074 C293.297199,72.6327297 292.880374,72.487793 292.347168,72.487793 C291.962075,72.487793 291.597088,72.5512689 291.252197,72.6782227 C290.907306,72.8051764 290.523277,73.0358056 290.100098,73.3701172 L289.541504,72.652832 C290.396326,71.941891 291.327306,71.5864258 292.334473,71.5864258 C293.206222,71.5864258 293.889646,71.8096495 294.384766,72.2561035 C294.879885,72.7025576 295.127441,73.3024051 295.127441,74.0556641 C295.127441,74.6438831 294.962404,75.2257458 294.632324,75.8012695 C294.302244,76.3767932 293.684412,77.1046505 292.778809,77.9848633 L290.747559,79.9716797 L290.747559,80.0224609 L295.520996,80.0224609 L295.520996,81 Z M304.991699,81 L304.782227,80.0097656 L304.731445,80.0097656 C304.384438,80.4456402 304.038495,80.7408033 303.693604,80.8952637 C303.348712,81.0497241 302.918134,81.1269531 302.401855,81.1269531 C301.712073,81.1269531 301.17147,80.9492205 300.780029,80.59375 C300.388589,80.2382795 300.192871,79.7325879 300.192871,79.0766602 C300.192871,77.6717052 301.316395,76.9353845 303.563477,76.8676758 L304.744141,76.8295898 L304.744141,76.3979492 C304.744141,75.8520481 304.62671,75.4489759 304.391846,75.1887207 C304.156981,74.9284655 303.781415,74.7983398 303.265137,74.7983398 C302.685381,74.7983398 302.029463,74.9760724 301.297363,75.331543 L300.973633,74.5253906 C301.316408,74.3391918 301.691974,74.1931971 302.100342,74.0874023 C302.50871,73.9816075 302.918129,73.9287109 303.328613,73.9287109 C304.158045,73.9287109 304.772703,74.1127911 305.172607,74.480957 C305.572512,74.8491229 305.772461,75.4394491 305.772461,76.2519531 L305.772461,81 L304.991699,81 Z M302.611328,80.2573242 C303.267256,80.2573242 303.782469,80.0774758 304.156982,79.7177734 C304.531496,79.3580711 304.71875,78.8544954 304.71875,78.2070312 L304.71875,77.5786133 L303.665039,77.6230469 C302.827144,77.6526694 302.223065,77.7827951 301.852783,78.0134277 C301.482501,78.2440604 301.297363,78.6026994 301.297363,79.0893555 C301.297363,79.4702167 301.412678,79.7600902 301.643311,79.9589844 C301.873943,80.1578786 302.196613,80.2573242 302.611328,80.2573242 L302.611328,80.2573242 Z M312.704102,81 L312.704102,76.4995117 C312.704102,75.9324516 312.575034,75.5092787 312.316895,75.2299805 C312.058755,74.9506822 311.654625,74.8110352 311.104492,74.8110352 C310.376624,74.8110352 309.843426,75.0078105 309.504883,75.4013672 C309.166339,75.7949238 308.99707,76.4444942 308.99707,77.3500977 L308.99707,81 L307.943359,81 L307.943359,74.0429688 L308.800293,74.0429688 L308.97168,74.9951172 L309.022461,74.9951172 C309.238282,74.652342 309.540851,74.3868011 309.930176,74.1984863 C310.319501,74.0101716 310.753253,73.9160156 311.231445,73.9160156 C312.06934,73.9160156 312.699868,74.1180807 313.123047,74.5222168 C313.546226,74.9263529 313.757812,75.5727495 313.757812,76.4614258 L313.757812,81 L312.704102,81 Z M320.657715,80.0668945 L320.600586,80.0668945 C320.11393,80.7736038 319.386073,81.1269531 318.416992,81.1269531 C317.507157,81.1269531 316.7994,80.8159211 316.293701,80.1938477 C315.788002,79.5717742 315.535156,78.687343 315.535156,77.5405273 C315.535156,76.3937117 315.78906,75.5029329 316.296875,74.8681641 C316.80469,74.2333953 317.511389,73.9160156 318.416992,73.9160156 C319.360682,73.9160156 320.084307,74.2587856 320.587891,74.9443359 L320.67041,74.9443359 L320.625977,74.4428711 L320.600586,73.9541016 L320.600586,71.1230469 L321.654297,71.1230469 L321.654297,81 L320.797363,81 L320.657715,80.0668945 Z M318.550293,80.2446289 C319.269698,80.2446289 319.791258,80.0489115 320.11499,79.6574707 C320.438722,79.2660299 320.600586,78.6344445 320.600586,77.7626953 L320.600586,77.5405273 C320.600586,76.5545198 320.436606,75.8509949 320.108643,75.4299316 C319.780679,75.0088683 319.257002,74.7983398 318.537598,74.7983398 C317.919756,74.7983398 317.44686,75.0384904 317.118896,75.5187988 C316.790933,75.9991072 316.626953,76.6772417 316.626953,77.5532227 C316.626953,78.441899 316.789875,79.1126279 317.115723,79.5654297 C317.441571,80.0182314 317.919756,80.2446289 318.550293,80.2446289 L318.550293,80.2446289 Z M55.8779297,99 L55.8779297,94.4995117 C55.8779297,93.9324516 55.748862,93.5092787 55.4907227,93.2299805 C55.2325833,92.9506822 54.8284533,92.8110352 54.2783203,92.8110352 C53.5504521,92.8110352 53.0172543,93.0078105 52.6787109,93.4013672 C52.3401676,93.7949238 52.1708984,94.4444942 52.1708984,95.3500977 L52.1708984,99 L51.1171875,99 L51.1171875,92.0429688 L51.9741211,92.0429688 L52.1455078,92.9951172 L52.1962891,92.9951172 C52.4121105,92.652342 52.714679,92.3868011 53.1040039,92.1984863 C53.4933288,92.0101716 53.9270809,91.9160156 54.4052734,91.9160156 C55.2431683,91.9160156 55.8736958,92.1180807 56.296875,92.5222168 C56.7200542,92.9263529 56.9316406,93.5727495 56.9316406,94.4614258 L56.9316406,99 L55.8779297,99 Z M62.0351562,99.1269531 C61.0068308,99.1269531 60.1953969,98.8138052 59.6008301,98.1875 C59.0062633,97.5611948 58.7089844,96.6915746 58.7089844,95.5786133 C58.7089844,94.4571884 58.9851047,93.5664096 59.5373535,92.90625 C60.0896024,92.2460904 60.8312128,91.9160156 61.762207,91.9160156 C62.6339562,91.9160156 63.3237279,92.2027152 63.831543,92.776123 C64.339358,93.3495309 64.5932617,94.1059523 64.5932617,95.0454102 L64.5932617,95.7119141 L59.8007812,95.7119141 C59.8219402,96.5286499 60.028237,97.1485981 60.4196777,97.5717773 C60.8111185,97.9949565 61.3623011,98.206543 62.0732422,98.206543 C62.8222694,98.206543 63.5628219,98.049969 64.2949219,97.7368164 L64.2949219,98.6762695 C63.9225242,98.8370776 63.5702328,98.9523922 63.2380371,99.0222168 C62.9058414,99.0920414 62.5048852,99.1269531 62.0351562,99.1269531 L62.0351562,99.1269531 Z M61.7495117,92.7983398 C61.1909152,92.7983398 60.7455257,92.9803042 60.4133301,93.3442383 C60.0811344,93.7081724 59.885417,94.2117481 59.8261719,94.8549805 L63.4633789,94.8549805 C63.4633789,94.1905891 63.3152684,93.6817238 63.019043,93.3283691 C62.7228175,92.9750145 62.2996447,92.7983398 61.7495117,92.7983398 L61.7495117,92.7983398 Z M67.652832,99 L65.012207,92.0429688 L66.1420898,92.0429688 L67.6401367,96.1689453 C67.9786801,97.1337939 68.1775713,97.7600897 68.2368164,98.0478516 L68.2875977,98.0478516 C68.3341474,97.8235666 68.4811999,97.3591344 68.7287598,96.654541 C68.9763196,95.9499476 69.531734,94.4127723 70.3950195,92.0429688 L71.5249023,92.0429688 L68.8842773,99 L67.652832,99 Z M75.5810547,99.1269531 C74.5527292,99.1269531 73.7412953,98.8138052 73.1467285,98.1875 C72.5521617,97.5611948 72.2548828,96.6915746 72.2548828,95.5786133 C72.2548828,94.4571884 72.5310031,93.5664096 73.083252,92.90625 C73.6355008,92.2460904 74.3771112,91.9160156 75.3081055,91.9160156 C76.1798546,91.9160156 76.8696264,92.2027152 77.3774414,92.776123 C77.8852564,93.3495309 78.1391602,94.1059523 78.1391602,95.0454102 L78.1391602,95.7119141 L73.3466797,95.7119141 C73.3678386,96.5286499 73.5741354,97.1485981 73.9655762,97.5717773 C74.3570169,97.9949565 74.9081996,98.206543 75.6191406,98.206543 C76.3681678,98.206543 77.1087203,98.049969 77.8408203,97.7368164 L77.8408203,98.6762695 C77.4684226,98.8370776 77.1161312,98.9523922 76.7839355,99.0222168 C76.4517399,99.0920414 76.0507836,99.1269531 75.5810547,99.1269531 L75.5810547,99.1269531 Z M75.2954102,92.7983398 C74.7368136,92.7983398 74.2914242,92.9803042 73.9592285,93.3442383 C73.6270328,93.7081724 73.4313154,94.2117481 73.3720703,94.8549805 L77.0092773,94.8549805 C77.0092773,94.1905891 76.8611668,93.6817238 76.5649414,93.3283691 C76.268716,92.9750145 75.8455431,92.7983398 75.2954102,92.7983398 L75.2954102,92.7983398 Z M83.109375,91.9160156 C83.4182958,91.9160156 83.695474,91.941406 83.940918,91.9921875 L83.7949219,92.9697266 C83.50716,92.9062497 83.2532563,92.8745117 83.0332031,92.8745117 C82.4703748,92.8745117 81.9890157,93.1030251 81.5891113,93.5600586 C81.189207,94.0170921 80.9892578,94.5862596 80.9892578,95.2675781 L80.9892578,99 L79.9355469,99 L79.9355469,92.0429688 L80.8051758,92.0429688 L80.9257812,93.331543 L80.9765625,93.331543 C81.2347018,92.8787412 81.5457339,92.5296236 81.909668,92.2841797 C82.2736021,92.0387358 82.6735004,91.9160156 83.109375,91.9160156 L83.109375,91.9160156 Z M90.8662109,98.2573242 C91.0524098,98.2573242 91.2322582,98.2435711 91.4057617,98.2160645 C91.5792652,98.1885578 91.7167964,98.1599936 91.8183594,98.1303711 L91.8183594,98.9365234 C91.704101,98.9915367 91.5358898,99.0370278 91.3137207,99.072998 C91.0915516,99.1089683 90.8916025,99.1269531 90.7138672,99.1269531 C89.3681573,99.1269531 88.6953125,98.4181386 88.6953125,97.0004883 L88.6953125,92.8618164 L87.6987305,92.8618164 L87.6987305,92.3540039 L88.6953125,91.9160156 L89.1396484,90.4306641 L89.7490234,90.4306641 L89.7490234,92.0429688 L91.7675781,92.0429688 L91.7675781,92.8618164 L89.7490234,92.8618164 L89.7490234,96.9560547 C89.7490234,97.3750021 89.8484691,97.6966135 90.0473633,97.9208984 C90.2462575,98.1451834 90.519204,98.2573242 90.8662109,98.2573242 L90.8662109,98.2573242 Z M97.9692383,99 L97.9692383,94.4995117 C97.9692383,93.9324516 97.8401706,93.5092787 97.5820312,93.2299805 C97.3238919,92.9506822 96.9197619,92.8110352 96.3696289,92.8110352 C95.6375289,92.8110352 95.1032732,93.0099264 94.7668457,93.4077148 C94.4304182,93.8055033 94.262207,94.4571895 94.262207,95.362793 L94.262207,99 L93.2084961,99 L93.2084961,89.1230469 L94.262207,89.1230469 L94.262207,92.112793 C94.262207,92.4724953 94.2452801,92.7708321 94.2114258,93.0078125 L94.2749023,93.0078125 C94.4822602,92.6735009 94.7774232,92.4100758 95.1604004,92.2175293 C95.5433776,92.0249828 95.9803035,91.9287109 96.4711914,91.9287109 C97.3217816,91.9287109 97.9597147,92.130776 98.3850098,92.5349121 C98.8103049,92.9390482 99.0229492,93.581213 99.0229492,94.4614258 L99.0229492,99 L97.9692383,99 Z M102.241211,99 L101.1875,99 L101.1875,92.0429688 L102.241211,92.0429688 L102.241211,99 Z M101.098633,90.1577148 C101.098633,89.9165027 101.157877,89.739828 101.276367,89.6276855 C101.394857,89.5155431 101.542968,89.4594727 101.720703,89.4594727 C101.889975,89.4594727 102.035969,89.516601 102.158691,89.6308594 C102.281413,89.7451178 102.342773,89.9207345 102.342773,90.1577148 C102.342773,90.3946952 102.281413,90.5713699 102.158691,90.6877441 C102.035969,90.8041184 101.889975,90.8623047 101.720703,90.8623047 C101.542968,90.8623047 101.394857,90.8041184 101.276367,90.6877441 C101.157877,90.5713699 101.098633,90.3946952 101.098633,90.1577148 L101.098633,90.1577148 Z M108.963379,97.1020508 C108.963379,97.749515 108.72217,98.2488589 108.239746,98.6000977 C107.757322,98.9513364 107.080245,99.1269531 106.208496,99.1269531 C105.285965,99.1269531 104.566572,98.9809585 104.050293,98.6889648 L104.050293,97.7114258 C104.384605,97.8806975 104.743244,98.0139969 105.126221,98.1113281 C105.509198,98.2086593 105.878416,98.2573242 106.233887,98.2573242 C106.78402,98.2573242 107.207193,98.1695159 107.503418,97.9938965 C107.799643,97.8182771 107.947754,97.5506203 107.947754,97.190918 C107.947754,96.9200833 107.830323,96.6883961 107.595459,96.4958496 C107.360595,96.3033031 106.90251,96.0758477 106.221191,95.8134766 C105.573727,95.5722644 105.113527,95.3617359 104.840576,95.1818848 C104.567626,95.0020336 104.364503,94.7978527 104.231201,94.5693359 C104.0979,94.3408192 104.03125,94.0678727 104.03125,93.7504883 C104.03125,93.1834282 104.261879,92.7359229 104.723145,92.407959 C105.18441,92.0799951 105.817053,91.9160156 106.621094,91.9160156 C107.370121,91.9160156 108.10221,92.0683579 108.817383,92.3730469 L108.442871,93.2299805 C107.744625,92.9422186 107.111982,92.7983398 106.544922,92.7983398 C106.04557,92.7983398 105.668947,92.8766268 105.415039,93.0332031 C105.161132,93.1897794 105.03418,93.4055976 105.03418,93.6806641 C105.03418,93.8668629 105.081787,94.0255527 105.177002,94.1567383 C105.272217,94.2879238 105.425617,94.4127598 105.637207,94.53125 C105.848797,94.6497402 106.255043,94.8211252 106.855957,95.0454102 C107.681156,95.3458674 108.238687,95.648436 108.528564,95.953125 C108.818442,96.257814 108.963379,96.6407855 108.963379,97.1020508 L108.963379,97.1020508 Z M116.834473,99.1269531 C115.827306,99.1269531 115.04761,98.816979 114.495361,98.1970215 C113.943112,97.577064 113.666992,96.7000382 113.666992,95.565918 C113.666992,94.4021752 113.947344,93.5029329 114.508057,92.8681641 C115.068769,92.2333953 115.867508,91.9160156 116.904297,91.9160156 C117.238608,91.9160156 117.572915,91.9519853 117.907227,92.0239258 C118.241538,92.0958662 118.503905,92.1805008 118.694336,92.277832 L118.370605,93.1728516 C118.137857,93.0797521 117.883953,93.0025231 117.608887,92.9411621 C117.33382,92.8798011 117.090496,92.8491211 116.878906,92.8491211 C115.465488,92.8491211 114.758789,93.7504793 114.758789,95.5532227 C114.758789,96.4080446 114.931232,97.0639626 115.276123,97.5209961 C115.621014,97.9780296 116.131995,98.206543 116.809082,98.206543 C117.388838,98.206543 117.983395,98.081707 118.592773,97.8320312 L118.592773,98.7651367 C118.127276,99.0063489 117.541182,99.1269531 116.834473,99.1269531 L116.834473,99.1269531 Z M126.248047,95.5151367 C126.248047,96.649257 125.962405,97.5347462 125.391113,98.1716309 C124.819821,98.8085156 124.030604,99.1269531 123.023438,99.1269531 C122.401364,99.1269531 121.849124,98.9809585 121.366699,98.6889648 C120.884275,98.3969712 120.511883,97.9780301 120.249512,97.4321289 C119.987141,96.8862277 119.855957,96.2472367 119.855957,95.5151367 C119.855957,94.3810165 120.139483,93.4976431 120.706543,92.8649902 C121.273603,92.2323373 122.060705,91.9160156 123.067871,91.9160156 C124.041183,91.9160156 124.814532,92.2397429 125.387939,92.887207 C125.961347,93.5346712 126.248047,94.410639 126.248047,95.5151367 L126.248047,95.5151367 Z M120.947754,95.5151367 C120.947754,96.403813 121.125487,97.0808896 121.480957,97.5463867 C121.836428,98.0118838 122.359046,98.2446289 123.048828,98.2446289 C123.73861,98.2446289 124.262287,98.0129418 124.619873,97.5495605 C124.977459,97.0861793 125.15625,96.4080448 125.15625,95.5151367 C125.15625,94.6306922 124.977459,93.9589053 124.619873,93.4997559 C124.262287,93.0406064 123.734378,92.8110352 123.036133,92.8110352 C122.346351,92.8110352 121.825848,93.0374326 121.474609,93.4902344 C121.123371,93.9430361 120.947754,94.6179968 120.947754,95.5151367 L120.947754,95.5151367 Z M129.148926,99 L128.095215,99 L128.095215,89.1230469 L129.148926,89.1230469 L129.148926,99 Z M137.388184,95.5151367 C137.388184,96.649257 137.102542,97.5347462 136.53125,98.1716309 C135.959958,98.8085156 135.170741,99.1269531 134.163574,99.1269531 C133.541501,99.1269531 132.98926,98.9809585 132.506836,98.6889648 C132.024412,98.3969712 131.65202,97.9780301 131.389648,97.4321289 C131.127277,96.8862277 130.996094,96.2472367 130.996094,95.5151367 C130.996094,94.3810165 131.27962,93.4976431 131.84668,92.8649902 C132.41374,92.2323373 133.200841,91.9160156 134.208008,91.9160156 C135.18132,91.9160156 135.954668,92.2397429 136.528076,92.887207 C137.101484,93.5346712 137.388184,94.410639 137.388184,95.5151367 L137.388184,95.5151367 Z M132.087891,95.5151367 C132.087891,96.403813 132.265623,97.0808896 132.621094,97.5463867 C132.976564,98.0118838 133.499183,98.2446289 134.188965,98.2446289 C134.878747,98.2446289 135.402423,98.0129418 135.76001,97.5495605 C136.117596,97.0861793 136.296387,96.4080448 136.296387,95.5151367 C136.296387,94.6306922 136.117596,93.9589053 135.76001,93.4997559 C135.402423,93.0406064 134.874515,92.8110352 134.17627,92.8110352 C133.486487,92.8110352 132.965985,93.0374326 132.614746,93.4902344 C132.263507,93.9430361 132.087891,94.6179968 132.087891,95.5151367 L132.087891,95.5151367 Z M142.40918,91.9160156 C142.718101,91.9160156 142.995279,91.941406 143.240723,91.9921875 L143.094727,92.9697266 C142.806965,92.9062497 142.553061,92.8745117 142.333008,92.8745117 C141.770179,92.8745117 141.28882,93.1030251 140.888916,93.5600586 C140.489012,94.0170921 140.289062,94.5862596 140.289062,95.2675781 L140.289062,99 L139.235352,99 L139.235352,92.0429688 L140.10498,92.0429688 L140.225586,93.331543 L140.276367,93.331543 C140.534506,92.8787412 140.845539,92.5296236 141.209473,92.2841797 C141.573407,92.0387358 141.973305,91.9160156 142.40918,91.9160156 L142.40918,91.9160156 Z M144.389648,98.3271484 C144.389648,98.0436184 144.454182,97.8288582 144.583252,97.6828613 C144.712322,97.5368645 144.89746,97.4638672 145.138672,97.4638672 C145.384116,97.4638672 145.575602,97.5368645 145.713135,97.6828613 C145.850668,97.8288582 145.919434,98.0436184 145.919434,98.3271484 C145.919434,98.6022149 145.84961,98.8138013 145.709961,98.9619141 C145.570312,99.1100268 145.379884,99.184082 145.138672,99.184082 C144.92285,99.184082 144.74406,99.1174323 144.602295,98.9841309 C144.46053,98.8508294 144.389648,98.6318375 144.389648,98.3271484 L144.389648,98.3271484 Z" id="The-body-text-should" fill="#86BC40"></path>
                <rect id="Rectangle-9" fill="#D0011B" transform="translate(194.349851, 76.110475) rotate(-75.000000) translate(-194.349851, -76.110475) " x="189.849851" y="-123.889525" width="9" height="400"></rect>
            </g>
        </g>
    </g>
</svg>