<?xml version="1.0" encoding="UTF-8" standalone="no"?>
<svg width="61px" height="18px" viewBox="0 0 61 18" version="1.1" xmlns="http://www.w3.org/2000/svg" xmlns:xlink="http://www.w3.org/1999/xlink">
    <!-- Generator: Sketch 40.2 (33826) - http://www.bohemiancoding.com/sketch -->
    <title>rad-btn</title>
    <desc>Created with Sketch.</desc>
    <defs></defs>
    <g id="Components" stroke="none" stroke-width="1" fill="none" fill-rule="evenodd">
        <g id="Forms" transform="translate(-498.000000, -1024.000000)" fill="#4A4A4A">
            <g id="rad-btn" transform="translate(498.000000, 1024.000000)">
                <path d="M8.57142857,2.5 C7.47023259,2.5 6.45461775,2.77157467 5.52455357,3.31473214 C4.5944894,3.85788962 3.85788962,4.5944894 3.31473214,5.52455357 C2.77157467,6.45461775 2.5,7.47023259 2.5,8.57142857 C2.5,9.67262455 2.77157467,10.6882394 3.31473214,11.6183036 C3.85788962,12.5483677 4.5944894,13.2849675 5.52455357,13.828125 C6.45461775,14.3712825 7.47023259,14.6428571 8.57142857,14.6428571 C9.67262455,14.6428571 10.6882394,14.3712825 11.6183036,13.828125 C12.5483677,13.2849675 13.2849675,12.5483677 13.828125,11.6183036 C14.3712825,10.6882394 14.6428571,9.67262455 14.6428571,8.57142857 C14.6428571,7.47023259 14.3712825,6.45461775 13.828125,5.52455357 C13.2849675,4.5944894 12.5483677,3.85788962 11.6183036,3.31473214 C10.6882394,2.77157467 9.67262455,2.5 8.57142857,2.5 L8.57142857,2.5 Z M17.1428571,8.57142857 C17.1428571,10.1264959 16.7596765,11.5606333 15.9933036,12.8738839 C15.2269307,14.1871345 14.1871345,15.2269307 12.8738839,15.9933036 C11.5606333,16.7596765 10.1264959,17.1428571 8.57142857,17.1428571 C7.01636127,17.1428571 5.58222383,16.7596765 4.26897321,15.9933036 C2.9557226,15.2269307 1.91592645,14.1871345 1.14955357,12.8738839 C0.383180692,11.5606333 0,10.1264959 0,8.57142857 C0,7.01636127 0.383180692,5.58222383 1.14955357,4.26897321 C1.91592645,2.9557226 2.9557226,1.91592645 4.26897321,1.14955357 C5.58222383,0.383180692 7.01636127,0 8.57142857,0 C10.1264959,0 11.5606333,0.383180692 12.8738839,1.14955357 C14.1871345,1.91592645 15.2269307,2.9557226 15.9933036,4.26897321 C16.7596765,5.58222383 17.1428571,7.01636127 17.1428571,8.57142857 L17.1428571,8.57142857 Z" id=""></path>
                <path d="M54.4285714,8.57142857 C54.4285714,9.36012299 54.1495564,10.0334794 53.5915179,10.5915179 C53.0334794,11.1495564 52.360123,11.4285714 51.5714286,11.4285714 C50.7827342,11.4285714 50.1093778,11.1495564 49.5513393,10.5915179 C48.9933008,10.0334794 48.7142857,9.36012299 48.7142857,8.57142857 C48.7142857,7.78273415 48.9933008,7.10937779 49.5513393,6.55133929 C50.1093778,5.99330078 50.7827342,5.71428571 51.5714286,5.71428571 C52.360123,5.71428571 53.0334794,5.99330078 53.5915179,6.55133929 C54.1495564,7.10937779 54.4285714,7.78273415 54.4285714,8.57142857 L54.4285714,8.57142857 Z M51.5714286,2.5 C50.4702326,2.5 49.4546177,2.77157467 48.5245536,3.31473214 C47.5944894,3.85788962 46.8578896,4.5944894 46.3147321,5.52455357 C45.7715747,6.45461775 45.5,7.47023259 45.5,8.57142857 C45.5,9.67262455 45.7715747,10.6882394 46.3147321,11.6183036 C46.8578896,12.5483677 47.5944894,13.2849675 48.5245536,13.828125 C49.4546177,14.3712825 50.4702326,14.6428571 51.5714286,14.6428571 C52.6726246,14.6428571 53.6882394,14.3712825 54.6183036,13.828125 C55.5483677,13.2849675 56.2849675,12.5483677 56.828125,11.6183036 C57.3712825,10.6882394 57.6428571,9.67262455 57.6428571,8.57142857 C57.6428571,7.47023259 57.3712825,6.45461775 56.828125,5.52455357 C56.2849675,4.5944894 55.5483677,3.85788962 54.6183036,3.31473214 C53.6882394,2.77157467 52.6726246,2.5 51.5714286,2.5 L51.5714286,2.5 Z M60.1428571,8.57142857 C60.1428571,10.1264959 59.7596765,11.5606333 58.9933036,12.8738839 C58.2269307,14.1871345 57.1871345,15.2269307 55.8738839,15.9933036 C54.5606333,16.7596765 53.1264959,17.1428571 51.5714286,17.1428571 C50.0163613,17.1428571 48.5822238,16.7596765 47.2689732,15.9933036 C45.9557226,15.2269307 44.9159265,14.1871345 44.1495536,12.8738839 C43.3831807,11.5606333 43,10.1264959 43,8.57142857 C43,7.01636127 43.3831807,5.58222383 44.1495536,4.26897321 C44.9159265,2.9557226 45.9557226,1.91592645 47.2689732,1.14955357 C48.5822238,0.383180692 50.0163613,0 51.5714286,0 C53.1264959,0 54.5606333,0.383180692 55.8738839,1.14955357 C57.1871345,1.91592645 58.2269307,2.9557226 58.9933036,4.26897321 C59.7596765,5.58222383 60.1428571,7.01636127 60.1428571,8.57142857 L60.1428571,8.57142857 Z" id=""></path>
            </g>
        </g>
    </g>
</svg>