<?xml version="1.0" encoding="UTF-8" standalone="no"?>
<svg width="231px" height="21px" viewBox="0 0 231 21" version="1.1" xmlns="http://www.w3.org/2000/svg" xmlns:xlink="http://www.w3.org/1999/xlink">
    <!-- Generator: Sketch 40.2 (33826) - http://www.bohemiancoding.com/sketch -->
    <title>Slider</title>
    <desc>Created with Sketch.</desc>
    <defs></defs>
    <g id="Components" stroke="none" stroke-width="1" fill="none" fill-rule="evenodd">
        <g id="Forms" transform="translate(-326.000000, -1122.000000)">
            <g id="Slider" transform="translate(326.000000, 1122.000000)">
                <path d="M2.947,14.738 C1.847,14.738 0.946,13.838 0.946,12.738 L0.946,7.738 C0.946,6.638 1.847,5.738 2.947,5.738 L228.946,5.738 C230.047,5.738 230.947,6.638 230.947,7.738 L230.947,12.738 C230.947,13.838 230.047,14.738 228.946,14.738 L2.947,14.738 Z" id="Fill-241" fill="#E6E6E6"></path>
                <path d="M228.5,14.5 L228.5,14 L2.501,14 C1.679,13.998 1.002,13.321 1.001,12.5 L1.001,7.5 C1.002,6.678 1.679,6.001 2.501,6 L228.5,6 C229.322,6.001 229.999,6.678 230,7.5 L230,12.5 C229.999,13.321 229.322,13.998 228.5,14 L228.5,15 C229.879,14.998 230.999,13.878 231.001,12.5 L231.001,7.5 C230.999,6.121 229.879,5.002 228.5,5 L2.501,5 C1.122,5.002 0.002,6.121 0,7.5 L0,12.5 C0.002,13.878 1.122,14.998 2.501,15 L228.5,15 L228.5,14.5" id="Fill-242" fill="#D0D0D0"></path>
                <path d="M122.999,20 L107.999,20 C106.899,20 106,19.1 106,18 L106,3 C106,1.9 106.899,1 107.999,1 L122.999,1 C124.1,1 124.999,1.9 124.999,3 L124.999,18 C124.999,19.1 124.1,20 122.999,20" id="Fill-243" fill="#F5F5F5"></path>
                <path d="M123.446,19.738 L123.446,19.238 L108.446,19.238 C107.625,19.236 106.948,18.559 106.946,17.738 L106.946,2.738 C106.948,1.916 107.625,1.239 108.446,1.238 L123.446,1.238 C124.268,1.239 124.945,1.916 124.947,2.738 L124.947,17.738 C124.945,18.559 124.268,19.236 123.446,19.238 L123.446,20.238 C124.825,20.236 125.945,19.116 125.947,17.738 L125.947,2.738 C125.945,1.359 124.825,0.24 123.446,0.238 L108.446,0.238 C107.068,0.24 105.948,1.359 105.946,2.738 L105.946,17.738 C105.948,19.116 107.068,20.236 108.446,20.238 L123.446,20.238 L123.446,19.738" id="Fill-244" fill="#D0D0D0"></path>
                <polygon id="Fill-245" fill="#D0D0D0" points="114 5 115.5 5 115.5 16 114 16"></polygon>
                <polygon id="Fill-246" fill="#D0D0D0" points="117 5 118.5 5 118.5 16 117 16"></polygon>
            </g>
        </g>
    </g>
</svg>
