<?xml version="1.0" encoding="UTF-8" standalone="no"?>
<svg width="250px" height="250px" viewBox="0 0 250 250" version="1.1" xmlns="http://www.w3.org/2000/svg" xmlns:xlink="http://www.w3.org/1999/xlink">
    <!-- Generator: Sketch 40.2 (33826) - http://www.bohemiancoding.com/sketch -->
    <title>Group 2</title>
    <desc>Created with Sketch.</desc>
    <defs></defs>
    <g id="Introduction" stroke="none" stroke-width="1" fill="none" fill-rule="evenodd">
        <g id="Style-Guide---Introduction---Hero-Image-Copy-13" transform="translate(-595.000000, -784.000000)">
            <g id="Group-2" transform="translate(595.000000, 784.000000)">
                <rect id="Rectangle-6-Copy" fill="#0A8CC6" x="0" y="0" width="250" height="250"></rect>
                <path d="M159.692308,118.423077 L159.692308,126.5 C159.692308,135.796921 156.589875,143.884281 150.384916,150.76232 C144.179957,157.640359 136.513267,161.58413 127.384615,162.59375 L127.384615,170.923077 L143.538462,170.923077 C144.632217,170.923077 145.578722,171.322712 146.378005,172.121995 C147.177288,172.921278 147.576923,173.867783 147.576923,174.961538 C147.576923,176.055294 147.177288,177.001799 146.378005,177.801082 C145.578722,178.600365 144.632217,179 143.538462,179 L103.153846,179 C102.060091,179 101.113586,178.600365 100.314303,177.801082 C99.51502,177.001799 99.1153846,176.055294 99.1153846,174.961538 C99.1153846,173.867783 99.51502,172.921278 100.314303,172.121995 C101.113586,171.322712 102.060091,170.923077 103.153846,170.923077 L119.307692,170.923077 L119.307692,162.59375 C110.179041,161.58413 102.512351,157.640359 96.3073918,150.76232 C90.1024329,143.884281 87,135.796921 87,126.5 L87,118.423077 C87,117.329321 87.3996354,116.382816 88.1989183,115.583534 C88.9982011,114.784251 89.9447061,114.384615 91.0384615,114.384615 C92.132217,114.384615 93.078722,114.784251 93.8780048,115.583534 C94.6772877,116.382816 95.0769231,117.329321 95.0769231,118.423077 L95.0769231,126.5 C95.0769231,134.282491 97.8428209,140.939576 103.3747,146.471454 C108.906578,152.003333 115.563663,154.769231 123.346154,154.769231 C131.128645,154.769231 137.78573,152.003333 143.317608,146.471454 C148.849487,140.939576 151.615385,134.282491 151.615385,126.5 L151.615385,118.423077 C151.615385,117.329321 152.01502,116.382816 152.814303,115.583534 C153.613586,114.784251 154.560091,114.384615 155.653846,114.384615 C156.747602,114.384615 157.694107,114.784251 158.493389,115.583534 C159.292672,116.382816 159.692308,117.329321 159.692308,118.423077 Z M143.538462,94.1923077 L143.538462,126.5 C143.538462,132.052912 141.561318,136.806471 137.606971,140.760817 C133.652624,144.715164 128.899066,146.692308 123.346154,146.692308 C117.793241,146.692308 113.039683,144.715164 109.085337,140.760817 C105.13099,136.806471 103.153846,132.052912 103.153846,126.5 L103.153846,94.1923077 C103.153846,88.6393953 105.13099,83.8858371 109.085337,79.9314904 C113.039683,75.9771437 117.793241,74 123.346154,74 C128.899066,74 133.652624,75.9771437 137.606971,79.9314904 C141.561318,83.8858371 143.538462,88.6393953 143.538462,94.1923077 Z" id="" fill="#FFFFFF"></path>
            </g>
        </g>
    </g>
</svg>