<?xml version="1.0" encoding="UTF-8" standalone="no"?>
<svg width="204px" height="317px" viewBox="0 0 204 317" version="1.1" xmlns="http://www.w3.org/2000/svg" xmlns:xlink="http://www.w3.org/1999/xlink">
    <!-- Generator: Sketch 40.2 (33826) - http://www.bohemiancoding.com/sketch -->
    <title>tlbr-3</title>
    <desc>Created with Sketch.</desc>
    <defs></defs>
    <g id="Components" stroke="none" stroke-width="1" fill="none" fill-rule="evenodd">
        <g id="Toolbars" transform="translate(-327.000000, -983.000000)">
            <g id="tlbr-3" transform="translate(327.000000, 983.000000)">
                <rect id="Rectangle-23" fill="#F5F5F5" x="0" y="0" width="40" height="317"></rect>
                <path d="M24.926994,55.9119252 L24.926994,60.401403 C24.926994,60.5635238 24.8677585,60.7038186 24.7492855,60.8222915 C24.6308126,60.9407644 24.4905178,61 24.328397,61 L20.7368148,61 L20.7368148,57.4084178 L18.3424266,57.4084178 L18.3424266,61 L14.7508444,61 C14.5887235,61 14.4484288,60.9407644 14.3299558,60.8222915 C14.2114829,60.7038186 14.1522474,60.5635238 14.1522474,60.401403 L14.1522474,55.9119252 C14.1522474,55.9056898 14.1538062,55.8963368 14.1569239,55.8838659 C14.1600416,55.8713951 14.1616004,55.8620421 14.1616004,55.8558067 L19.5396207,51.4224474 L24.917641,55.8558067 C24.9238764,55.8682775 24.926994,55.8869835 24.926994,55.9119252 L24.926994,55.9119252 Z M27.0127306,55.2665627 L26.4328397,55.9586906 C26.3829564,56.0148093 26.3174855,56.0491036 26.2364251,56.0615744 L26.2083658,56.0615744 C26.1273054,56.0615744 26.0618345,56.0397508 26.0119512,55.9961029 L19.5396207,50.5993765 L13.0672902,55.9961029 C12.9924652,56.0459862 12.9176413,56.0678099 12.8428163,56.0615744 C12.7617559,56.0491036 12.696285,56.0148093 12.6464017,55.9586906 L12.0665108,55.2665627 C12.0166275,55.2042086 11.9948038,55.1309435 12.0010392,55.0467654 C12.0072747,54.9625873 12.0415689,54.8955575 12.1039231,54.8456742 L18.8287867,49.24318 C19.0283201,49.0810592 19.2652623,49 19.5396207,49 C19.813979,49 20.0509213,49.0810592 20.2504547,49.24318 L22.5326059,51.1512081 L22.5326059,49.3273578 C22.5326059,49.2400619 22.5606648,49.1683557 22.6167836,49.1122369 C22.6729023,49.0561182 22.7446086,49.0280592 22.8319044,49.0280592 L24.6276955,49.0280592 C24.7149914,49.0280592 24.7866976,49.0561182 24.8428163,49.1122369 C24.8989351,49.1683557 24.926994,49.2400619 24.926994,49.3273578 L24.926994,53.1434139 L26.9753183,54.8456742 C27.0376725,54.8955575 27.0719667,54.9625873 27.0782021,55.0467654 C27.0844376,55.1309435 27.0626139,55.2042086 27.0127306,55.2665627 L27.0127306,55.2665627 Z" id="-copy-2" fill="#4A4A4A"></path>
                <path d="M25,98.9765625 C25,99.6015656 24.8098977,100.09505 24.4296875,100.457031 C24.0494773,100.819012 23.544274,101 22.9140625,101 L16.0859375,101 C15.455726,101 14.9505227,100.819012 14.5703125,100.457031 C14.1901023,100.09505 14,99.6015656 14,98.9765625 C14,98.7005195 14.0091145,98.4309909 14.0273438,98.1679688 C14.045573,97.9049466 14.082031,97.6210953 14.1367187,97.3164063 C14.1914065,97.0117172 14.2604162,96.729168 14.34375,96.46875 C14.4270837,96.208332 14.5390618,95.9544283 14.6796875,95.7070313 C14.8203132,95.4596342 14.9817699,95.2486988 15.1640625,95.0742188 C15.3463551,94.8997387 15.5690091,94.7604172 15.8320312,94.65625 C16.0950534,94.5520828 16.3854151,94.5 16.703125,94.5 C16.7500002,94.5 16.8593741,94.555989 17.03125,94.6679688 C17.2031259,94.7799485 17.3971343,94.9049472 17.6132813,95.0429687 C17.8294282,95.1809903 18.1106754,95.305989 18.4570312,95.4179688 C18.8033871,95.5299485 19.1510399,95.5859375 19.5,95.5859375 C19.8489601,95.5859375 20.1966129,95.5299485 20.5429687,95.4179688 C20.8893246,95.305989 21.1705718,95.1809903 21.3867188,95.0429687 C21.6028657,94.9049472 21.7968741,94.7799485 21.96875,94.6679688 C22.1406259,94.555989 22.2499998,94.5 22.296875,94.5 C22.6145849,94.5 22.9049466,94.5520828 23.1679687,94.65625 C23.4309909,94.7604172 23.6536449,94.8997387 23.8359375,95.0742188 C24.0182301,95.2486988 24.1796868,95.4596342 24.3203125,95.7070313 C24.4609382,95.9544283 24.5729162,96.208332 24.65625,96.46875 C24.7395837,96.729168 24.8085935,97.0117172 24.8632812,97.3164063 C24.917969,97.6210953 24.954427,97.9049466 24.9726562,98.1679688 C24.9908855,98.4309909 25,98.7005195 25,98.9765625 Z M22.5,92 C22.5,92.8281291 22.2070342,93.5351533 21.6210937,94.1210938 C21.0351533,94.7070342 20.3281291,95 19.5,95 C18.6718709,95 17.9648467,94.7070342 17.3789062,94.1210938 C16.7929658,93.5351533 16.5,92.8281291 16.5,92 C16.5,91.1718709 16.7929658,90.4648467 17.3789062,89.8789063 C17.9648467,89.2929658 18.6718709,89 19.5,89 C20.3281291,89 21.0351533,89.2929658 21.6210937,89.8789063 C22.2070342,90.4648467 22.5,91.1718709 22.5,92 Z" id="" fill="#4A4A4A"></path>
                <path d="M27.4,19.2 L27.4,20.4 C27.4,20.5625008 27.3406256,20.7031244 27.221875,20.821875 C27.1031244,20.9406256 26.9625008,21 26.8,21 L13.6,21 C13.4374992,21 13.2968756,20.9406256 13.178125,20.821875 C13.0593744,20.7031244 13,20.5625008 13,20.4 L13,19.2 C13,19.0374992 13.0593744,18.8968756 13.178125,18.778125 C13.2968756,18.6593744 13.4374992,18.6 13.6,18.6 L26.8,18.6 C26.9625008,18.6 27.1031244,18.6593744 27.221875,18.778125 C27.3406256,18.8968756 27.4,19.0374992 27.4,19.2 Z M27.4,14.4 L27.4,15.6 C27.4,15.7625008 27.3406256,15.9031244 27.221875,16.021875 C27.1031244,16.1406256 26.9625008,16.2 26.8,16.2 L13.6,16.2 C13.4374992,16.2 13.2968756,16.1406256 13.178125,16.021875 C13.0593744,15.9031244 13,15.7625008 13,15.6 L13,14.4 C13,14.2374992 13.0593744,14.0968756 13.178125,13.978125 C13.2968756,13.8593744 13.4374992,13.8 13.6,13.8 L26.8,13.8 C26.9625008,13.8 27.1031244,13.8593744 27.221875,13.978125 C27.3406256,14.0968756 27.4,14.2374992 27.4,14.4 Z M27.4,9.6 L27.4,10.8 C27.4,10.9625008 27.3406256,11.1031244 27.221875,11.221875 C27.1031244,11.3406256 26.9625008,11.4 26.8,11.4 L13.6,11.4 C13.4374992,11.4 13.2968756,11.3406256 13.178125,11.221875 C13.0593744,11.1031244 13,10.9625008 13,10.8 L13,9.6 C13,9.43749919 13.0593744,9.29687559 13.178125,9.178125 C13.2968756,9.05937441 13.4374992,9 13.6,9 L26.8,9 C26.9625008,9 27.1031244,9.05937441 27.221875,9.178125 C27.3406256,9.29687559 27.4,9.43749919 27.4,9.6 Z" id="" fill="#4A4A4A"></path>
                <path d="M25.808764,131.734375 C26.0170984,132.031251 26.0639729,132.367186 25.949389,132.742188 L23.8009515,139.820313 C23.7019927,140.153647 23.5027759,140.433593 23.2032953,140.660156 C22.9038146,140.88672 22.5848074,141 22.246264,141 L15.0353265,141 C14.6342829,141 14.247568,140.860678 13.8751703,140.582031 C13.5027726,140.303384 13.2436606,139.96094 13.0978265,139.554687 C12.9728259,139.205727 12.9676176,138.875002 13.0822015,138.5625 C13.0822015,138.541667 13.090014,138.471355 13.105639,138.351562 C13.1212641,138.23177 13.1316807,138.135417 13.136889,138.0625 C13.1420974,138.020833 13.134285,137.964844 13.1134515,137.894531 C13.0926181,137.824218 13.0848057,137.773438 13.090014,137.742188 C13.1004308,137.684896 13.1212639,137.630209 13.152514,137.578125 C13.1837642,137.526041 13.2267325,137.464844 13.2814203,137.394531 C13.3361081,137.324218 13.3790764,137.263021 13.4103265,137.210938 C13.5301188,137.01302 13.6473051,136.774741 13.761889,136.496094 C13.8764729,136.217447 13.9545972,135.979168 13.996264,135.78125 C14.0118891,135.729166 14.0131912,135.651042 14.0001703,135.546875 C13.9871494,135.442708 13.9858473,135.369792 13.996264,135.328125 C14.0118891,135.270833 14.0561595,135.197917 14.1290765,135.109375 C14.2019936,135.020833 14.246264,134.960938 14.261889,134.929688 C14.3712646,134.742187 14.4806385,134.502606 14.590014,134.210938 C14.6993896,133.919269 14.7644931,133.684897 14.7853265,133.507813 C14.7905349,133.460937 14.7840245,133.377605 14.7657953,133.257813 C14.747566,133.13802 14.7488681,133.065104 14.7697015,133.039063 C14.790535,132.971354 14.8478261,132.891928 14.9415765,132.800781 C15.035327,132.709635 15.0926181,132.651042 15.1134515,132.625 C15.2124104,132.489583 15.3230863,132.269533 15.4454828,131.964844 C15.5678792,131.660155 15.6394931,131.408855 15.6603265,131.210938 C15.6655349,131.169271 15.6577225,131.102865 15.636889,131.011719 C15.6160556,130.920572 15.6108473,130.851563 15.621264,130.804687 C15.6316808,130.763021 15.655118,130.716146 15.6915765,130.664063 C15.7280351,130.611979 15.7749096,130.552084 15.8322015,130.484375 C15.8894935,130.416666 15.9337639,130.361979 15.965014,130.320313 C16.0066809,130.257812 16.0496492,130.178386 16.0939203,130.082031 C16.1381913,129.985677 16.1772534,129.894532 16.2111078,129.808594 C16.2449621,129.722656 16.2866284,129.628907 16.3361078,129.527344 C16.3855872,129.425781 16.4363679,129.342448 16.4884515,129.277344 C16.5405351,129.212239 16.6095449,129.151042 16.6954828,129.09375 C16.7814207,129.036458 16.8751698,129.00651 16.9767328,129.003906 C17.0782958,129.001302 17.2019925,129.015625 17.3478265,129.046875 L17.340014,129.070313 C17.5379317,129.023437 17.6707429,129 17.7384515,129 L23.683764,129 C24.0691826,129 24.3660547,129.145832 24.574389,129.4375 C24.7827234,129.729168 24.8295979,130.067706 24.715014,130.453125 L22.574389,137.53125 C22.3868881,138.151045 22.200692,138.55078 22.0157953,138.730469 C21.8308985,138.910157 21.4962665,139 21.011889,139 L14.2228265,139 C14.0822008,139 13.9832435,139.039062 13.9259515,139.117187 C13.8686596,139.200521 13.8660554,139.312499 13.918139,139.453125 C14.0431397,139.81771 14.4181359,140 15.043139,140 L22.2540765,140 C22.405119,140 22.5509508,139.959636 22.6915765,139.878906 C22.8322022,139.798177 22.9233472,139.690105 22.965014,139.554687 L25.308764,131.84375 C25.3452226,131.729166 25.3582433,131.58073 25.3478265,131.398438 C25.5457442,131.476563 25.6993885,131.588541 25.808764,131.734375 Z M17.496264,131.75 C17.4754306,131.817709 17.4806389,131.876302 17.511889,131.925781 C17.5431392,131.975261 17.595222,132 17.668139,132 L22.418139,132 C22.4858477,132 22.5522533,131.975261 22.6173578,131.925781 C22.6824623,131.876302 22.7254306,131.817709 22.746264,131.75 L22.9103265,131.25 C22.93116,131.182291 22.9259517,131.123698 22.8947015,131.074219 C22.8634514,131.024739 22.8113686,131 22.7384515,131 L17.9884515,131 C17.9207429,131 17.8543373,131.024739 17.7892328,131.074219 C17.7241283,131.123698 17.68116,131.182291 17.6603265,131.25 L17.496264,131.75 Z M16.8478265,133.75 C16.8269931,133.817709 16.8322014,133.876302 16.8634515,133.925781 C16.8947017,133.975261 16.9467845,134 17.0197015,134 L21.7697015,134 C21.8374102,134 21.9038158,133.975261 21.9689203,133.925781 C22.0340248,133.876302 22.0769931,133.817709 22.0978265,133.75 L22.261889,133.25 C22.2827225,133.182291 22.2775142,133.123698 22.246264,133.074219 C22.2150139,133.024739 22.1629311,133 22.090014,133 L17.340014,133 C17.2723054,133 17.2058998,133.024739 17.1407953,133.074219 C17.0756908,133.123698 17.0327225,133.182291 17.011889,133.25 L16.8478265,133.75 Z" id="" fill="#4A4A4A"></path>
                <rect id="Rectangle-23" fill="#F5F5F5" x="70" y="0" width="134" height="317"></rect>
                <path d="M94.926994,55.9119252 L94.926994,60.401403 C94.926994,60.5635238 94.8677585,60.7038186 94.7492855,60.8222915 C94.6308126,60.9407644 94.4905178,61 94.328397,61 L90.7368148,61 L90.7368148,57.4084178 L88.3424266,57.4084178 L88.3424266,61 L84.7508444,61 C84.5887235,61 84.4484288,60.9407644 84.3299558,60.8222915 C84.2114829,60.7038186 84.1522474,60.5635238 84.1522474,60.401403 L84.1522474,55.9119252 C84.1522474,55.9056898 84.1538062,55.8963368 84.1569239,55.8838659 C84.1600416,55.8713951 84.1616004,55.8620421 84.1616004,55.8558067 L89.5396207,51.4224474 L94.917641,55.8558067 C94.9238764,55.8682775 94.926994,55.8869835 94.926994,55.9119252 L94.926994,55.9119252 Z M97.0127306,55.2665627 L96.4328397,55.9586906 C96.3829564,56.0148093 96.3174855,56.0491036 96.2364251,56.0615744 L96.2083658,56.0615744 C96.1273054,56.0615744 96.0618345,56.0397508 96.0119512,55.9961029 L89.5396207,50.5993765 L83.0672902,55.9961029 C82.9924652,56.0459862 82.9176413,56.0678099 82.8428163,56.0615744 C82.7617559,56.0491036 82.696285,56.0148093 82.6464017,55.9586906 L82.0665108,55.2665627 C82.0166275,55.2042086 81.9948038,55.1309435 82.0010392,55.0467654 C82.0072747,54.9625873 82.0415689,54.8955575 82.1039231,54.8456742 L88.8287867,49.24318 C89.0283201,49.0810592 89.2652623,49 89.5396207,49 C89.813979,49 90.0509213,49.0810592 90.2504547,49.24318 L92.5326059,51.1512081 L92.5326059,49.3273578 C92.5326059,49.2400619 92.5606648,49.1683557 92.6167836,49.1122369 C92.6729023,49.0561182 92.7446086,49.0280592 92.8319044,49.0280592 L94.6276955,49.0280592 C94.7149914,49.0280592 94.7866976,49.0561182 94.8428163,49.1122369 C94.8989351,49.1683557 94.926994,49.2400619 94.926994,49.3273578 L94.926994,53.1434139 L96.9753183,54.8456742 C97.0376725,54.8955575 97.0719667,54.9625873 97.0782021,55.0467654 C97.0844376,55.1309435 97.0626139,55.2042086 97.0127306,55.2665627 L97.0127306,55.2665627 Z" id="-copy-2" fill="#4A4A4A"></path>
                <path d="M95,98.9765625 C95,99.6015656 94.8098977,100.09505 94.4296875,100.457031 C94.0494773,100.819012 93.544274,101 92.9140625,101 L86.0859375,101 C85.455726,101 84.9505227,100.819012 84.5703125,100.457031 C84.1901023,100.09505 84,99.6015656 84,98.9765625 C84,98.7005195 84.0091145,98.4309909 84.0273438,98.1679688 C84.045573,97.9049466 84.082031,97.6210953 84.1367188,97.3164063 C84.1914065,97.0117172 84.2604162,96.729168 84.34375,96.46875 C84.4270837,96.208332 84.5390618,95.9544283 84.6796875,95.7070313 C84.8203132,95.4596342 84.9817699,95.2486988 85.1640625,95.0742188 C85.3463551,94.8997387 85.5690091,94.7604172 85.8320312,94.65625 C86.0950534,94.5520828 86.3854151,94.5 86.703125,94.5 C86.7500002,94.5 86.8593741,94.555989 87.03125,94.6679688 C87.2031259,94.7799485 87.3971343,94.9049472 87.6132813,95.0429687 C87.8294282,95.1809903 88.1106754,95.305989 88.4570312,95.4179688 C88.8033871,95.5299485 89.1510399,95.5859375 89.5,95.5859375 C89.8489601,95.5859375 90.1966129,95.5299485 90.5429687,95.4179688 C90.8893246,95.305989 91.1705718,95.1809903 91.3867188,95.0429687 C91.6028657,94.9049472 91.7968741,94.7799485 91.96875,94.6679688 C92.1406259,94.555989 92.2499998,94.5 92.296875,94.5 C92.6145849,94.5 92.9049466,94.5520828 93.1679687,94.65625 C93.4309909,94.7604172 93.6536449,94.8997387 93.8359375,95.0742188 C94.0182301,95.2486988 94.1796868,95.4596342 94.3203125,95.7070313 C94.4609382,95.9544283 94.5729162,96.208332 94.65625,96.46875 C94.7395837,96.729168 94.8085935,97.0117172 94.8632812,97.3164063 C94.917969,97.6210953 94.954427,97.9049466 94.9726562,98.1679688 C94.9908855,98.4309909 95,98.7005195 95,98.9765625 Z M92.5,92 C92.5,92.8281291 92.2070342,93.5351533 91.6210937,94.1210938 C91.0351533,94.7070342 90.3281291,95 89.5,95 C88.6718709,95 87.9648467,94.7070342 87.3789062,94.1210938 C86.7929658,93.5351533 86.5,92.8281291 86.5,92 C86.5,91.1718709 86.7929658,90.4648467 87.3789062,89.8789063 C87.9648467,89.2929658 88.6718709,89 89.5,89 C90.3281291,89 91.0351533,89.2929658 91.6210937,89.8789063 C92.2070342,90.4648467 92.5,91.1718709 92.5,92 Z" id="" fill="#4A4A4A"></path>
                <path d="M97.4,19.2 L97.4,20.4 C97.4,20.5625008 97.3406256,20.7031244 97.221875,20.821875 C97.1031244,20.9406256 96.9625008,21 96.8,21 L83.6,21 C83.4374992,21 83.2968756,20.9406256 83.178125,20.821875 C83.0593744,20.7031244 83,20.5625008 83,20.4 L83,19.2 C83,19.0374992 83.0593744,18.8968756 83.178125,18.778125 C83.2968756,18.6593744 83.4374992,18.6 83.6,18.6 L96.8,18.6 C96.9625008,18.6 97.1031244,18.6593744 97.221875,18.778125 C97.3406256,18.8968756 97.4,19.0374992 97.4,19.2 Z M97.4,14.4 L97.4,15.6 C97.4,15.7625008 97.3406256,15.9031244 97.221875,16.021875 C97.1031244,16.1406256 96.9625008,16.2 96.8,16.2 L83.6,16.2 C83.4374992,16.2 83.2968756,16.1406256 83.178125,16.021875 C83.0593744,15.9031244 83,15.7625008 83,15.6 L83,14.4 C83,14.2374992 83.0593744,14.0968756 83.178125,13.978125 C83.2968756,13.8593744 83.4374992,13.8 83.6,13.8 L96.8,13.8 C96.9625008,13.8 97.1031244,13.8593744 97.221875,13.978125 C97.3406256,14.0968756 97.4,14.2374992 97.4,14.4 Z M97.4,9.6 L97.4,10.8 C97.4,10.9625008 97.3406256,11.1031244 97.221875,11.221875 C97.1031244,11.3406256 96.9625008,11.4 96.8,11.4 L83.6,11.4 C83.4374992,11.4 83.2968756,11.3406256 83.178125,11.221875 C83.0593744,11.1031244 83,10.9625008 83,10.8 L83,9.6 C83,9.43749919 83.0593744,9.29687559 83.178125,9.178125 C83.2968756,9.05937441 83.4374992,9 83.6,9 L96.8,9 C96.9625008,9 97.1031244,9.05937441 97.221875,9.178125 C97.3406256,9.29687559 97.4,9.43749919 97.4,9.6 Z" id="" fill="#4A4A4A"></path>
                <path d="M95.808764,131.734375 C96.0170984,132.031251 96.0639729,132.367186 95.949389,132.742188 L93.8009515,139.820313 C93.7019927,140.153647 93.5027759,140.433593 93.2032953,140.660156 C92.9038146,140.88672 92.5848074,141 92.246264,141 L85.0353265,141 C84.6342829,141 84.247568,140.860678 83.8751703,140.582031 C83.5027726,140.303384 83.2436606,139.96094 83.0978265,139.554687 C82.9728259,139.205727 82.9676176,138.875002 83.0822015,138.5625 C83.0822015,138.541667 83.090014,138.471355 83.105639,138.351562 C83.1212641,138.23177 83.1316807,138.135417 83.136889,138.0625 C83.1420974,138.020833 83.134285,137.964844 83.1134515,137.894531 C83.0926181,137.824218 83.0848057,137.773438 83.090014,137.742188 C83.1004308,137.684896 83.1212639,137.630209 83.152514,137.578125 C83.1837642,137.526041 83.2267325,137.464844 83.2814203,137.394531 C83.3361081,137.324218 83.3790764,137.263021 83.4103265,137.210938 C83.5301188,137.01302 83.6473051,136.774741 83.761889,136.496094 C83.8764729,136.217447 83.9545972,135.979168 83.996264,135.78125 C84.0118891,135.729166 84.0131912,135.651042 84.0001703,135.546875 C83.9871494,135.442708 83.9858473,135.369792 83.996264,135.328125 C84.0118891,135.270833 84.0561595,135.197917 84.1290765,135.109375 C84.2019936,135.020833 84.246264,134.960938 84.261889,134.929688 C84.3712646,134.742187 84.4806385,134.502606 84.590014,134.210938 C84.6993896,133.919269 84.7644931,133.684897 84.7853265,133.507813 C84.7905349,133.460937 84.7840245,133.377605 84.7657953,133.257813 C84.747566,133.13802 84.7488681,133.065104 84.7697015,133.039063 C84.790535,132.971354 84.8478261,132.891928 84.9415765,132.800781 C85.035327,132.709635 85.0926181,132.651042 85.1134515,132.625 C85.2124104,132.489583 85.3230863,132.269533 85.4454828,131.964844 C85.5678792,131.660155 85.6394931,131.408855 85.6603265,131.210938 C85.6655349,131.169271 85.6577225,131.102865 85.636889,131.011719 C85.6160556,130.920572 85.6108473,130.851563 85.621264,130.804687 C85.6316808,130.763021 85.655118,130.716146 85.6915765,130.664063 C85.7280351,130.611979 85.7749096,130.552084 85.8322015,130.484375 C85.8894935,130.416666 85.9337639,130.361979 85.965014,130.320313 C86.0066809,130.257812 86.0496492,130.178386 86.0939203,130.082031 C86.1381913,129.985677 86.1772534,129.894532 86.2111078,129.808594 C86.2449621,129.722656 86.2866284,129.628907 86.3361078,129.527344 C86.3855872,129.425781 86.4363679,129.342448 86.4884515,129.277344 C86.5405351,129.212239 86.6095449,129.151042 86.6954828,129.09375 C86.7814207,129.036458 86.8751698,129.00651 86.9767328,129.003906 C87.0782958,129.001302 87.2019925,129.015625 87.3478265,129.046875 L87.340014,129.070313 C87.5379317,129.023437 87.6707429,129 87.7384515,129 L93.683764,129 C94.0691826,129 94.3660547,129.145832 94.574389,129.4375 C94.7827234,129.729168 94.8295979,130.067706 94.715014,130.453125 L92.574389,137.53125 C92.3868881,138.151045 92.200692,138.55078 92.0157953,138.730469 C91.8308985,138.910157 91.4962665,139 91.011889,139 L84.2228265,139 C84.0822008,139 83.9832435,139.039062 83.9259515,139.117187 C83.8686596,139.200521 83.8660554,139.312499 83.918139,139.453125 C84.0431397,139.81771 84.4181359,140 85.043139,140 L92.2540765,140 C92.405119,140 92.5509508,139.959636 92.6915765,139.878906 C92.8322022,139.798177 92.9233472,139.690105 92.965014,139.554687 L95.308764,131.84375 C95.3452226,131.729166 95.3582433,131.58073 95.3478265,131.398438 C95.5457442,131.476563 95.6993885,131.588541 95.808764,131.734375 Z M87.496264,131.75 C87.4754306,131.817709 87.4806389,131.876302 87.511889,131.925781 C87.5431392,131.975261 87.595222,132 87.668139,132 L92.418139,132 C92.4858477,132 92.5522533,131.975261 92.6173578,131.925781 C92.6824623,131.876302 92.7254306,131.817709 92.746264,131.75 L92.9103265,131.25 C92.93116,131.182291 92.9259517,131.123698 92.8947015,131.074219 C92.8634514,131.024739 92.8113686,131 92.7384515,131 L87.9884515,131 C87.9207429,131 87.8543373,131.024739 87.7892328,131.074219 C87.7241283,131.123698 87.68116,131.182291 87.6603265,131.25 L87.496264,131.75 Z M86.8478265,133.75 C86.8269931,133.817709 86.8322014,133.876302 86.8634515,133.925781 C86.8947017,133.975261 86.9467845,134 87.0197015,134 L91.7697015,134 C91.8374102,134 91.9038158,133.975261 91.9689203,133.925781 C92.0340248,133.876302 92.0769931,133.817709 92.0978265,133.75 L92.261889,133.25 C92.2827225,133.182291 92.2775142,133.123698 92.246264,133.074219 C92.2150139,133.024739 92.1629311,133 92.090014,133 L87.340014,133 C87.2723054,133 87.2058998,133.024739 87.1407953,133.074219 C87.0756908,133.123698 87.0327225,133.182291 87.011889,133.25 L86.8478265,133.75 Z" id="" fill="#4A4A4A"></path>
                <path d="M117.96875,19 L115.0625,11.40625 L115.015625,11.40625 C115.070313,12.0078155 115.097656,12.7226521 115.097656,13.5507812 L115.097656,19 L114.177734,19 L114.177734,10.4335938 L115.677734,10.4335938 L118.390625,17.5 L118.4375,17.5 L121.173828,10.4335938 L122.662109,10.4335938 L122.662109,19 L121.666016,19 L121.666016,13.4804688 C121.666016,12.8476531 121.693359,12.16016 121.748047,11.4179688 L121.701172,11.4179688 L118.771484,19 L117.96875,19 Z M127.578125,19.1171875 C126.628902,19.1171875 125.879886,18.8281279 125.331055,18.25 C124.782224,17.6718721 124.507812,16.8691458 124.507812,15.8417969 C124.507812,14.8066354 124.762693,13.984378 125.272461,13.375 C125.782229,12.765622 126.466793,12.4609375 127.326172,12.4609375 C128.130863,12.4609375 128.767576,12.7255833 129.236328,13.2548828 C129.70508,13.7841823 129.939453,14.4824175 129.939453,15.3496094 L129.939453,15.9648438 L125.515625,15.9648438 C125.535156,16.7187538 125.725584,17.2910137 126.086914,17.6816406 C126.448244,18.0722676 126.957028,18.2675781 127.613281,18.2675781 C128.304691,18.2675781 128.988278,18.1230483 129.664062,17.8339844 L129.664062,18.7011719 C129.320311,18.8496101 128.995119,18.9560544 128.688477,19.0205078 C128.381834,19.0849613 128.011721,19.1171875 127.578125,19.1171875 L127.578125,19.1171875 Z M127.314453,13.2753906 C126.798826,13.2753906 126.387697,13.4433577 126.081055,13.7792969 C125.774413,14.1152361 125.59375,14.5800752 125.539062,15.1738281 L128.896484,15.1738281 C128.896484,14.5605438 128.759767,14.0908219 128.486328,13.7646484 C128.212889,13.4384749 127.822268,13.2753906 127.314453,13.2753906 L127.314453,13.2753906 Z M135.992188,19 L135.992188,14.8457031 C135.992188,14.322263 135.873048,13.9316419 135.634766,13.6738281 C135.396483,13.4160143 135.02344,13.2871094 134.515625,13.2871094 C133.843747,13.2871094 133.351564,13.4687482 133.039062,13.8320312 C132.726561,14.1953143 132.570312,14.7949177 132.570312,15.6308594 L132.570312,19 L131.597656,19 L131.597656,12.578125 L132.388672,12.578125 L132.546875,13.4570312 L132.59375,13.4570312 C132.79297,13.1406234 133.072264,12.8955087 133.431641,12.7216797 C133.791017,12.5478507 134.191404,12.4609375 134.632812,12.4609375 C135.406254,12.4609375 135.988279,12.6474591 136.378906,13.0205078 C136.769533,13.3935566 136.964844,13.9902303 136.964844,14.8105469 L136.964844,19 L135.992188,19 Z M139.876953,12.578125 L139.876953,16.7441406 C139.876953,17.2675807 139.996093,17.6582018 140.234375,17.9160156 C140.472657,18.1738294 140.845701,18.3027344 141.353516,18.3027344 C142.025394,18.3027344 142.5166,18.1191425 142.827148,17.7519531 C143.137697,17.3847638 143.292969,16.7851604 143.292969,15.953125 L143.292969,12.578125 L144.265625,12.578125 L144.265625,19 L143.462891,19 L143.322266,18.1386719 L143.269531,18.1386719 C143.070312,18.4550797 142.793947,18.6972648 142.44043,18.8652344 C142.086912,19.033204 141.683596,19.1171875 141.230469,19.1171875 C140.449215,19.1171875 139.86426,18.9316425 139.475586,18.5605469 C139.086912,18.1894513 138.892578,17.5957072 138.892578,16.7792969 L138.892578,12.578125 L139.876953,12.578125 Z" id="Menu" fill="#4A4A4A"></path>
                <path d="M120.681641,60 L119.685547,60 L119.685547,55.96875 L115.173828,55.96875 L115.173828,60 L114.177734,60 L114.177734,51.4335938 L115.173828,51.4335938 L115.173828,55.078125 L119.685547,55.078125 L119.685547,51.4335938 L120.681641,51.4335938 L120.681641,60 Z M128.427734,56.7832031 C128.427734,57.8300834 128.164065,58.647458 127.636719,59.2353516 C127.109372,59.8232451 126.380864,60.1171875 125.451172,60.1171875 C124.87695,60.1171875 124.36719,59.9824232 123.921875,59.7128906 C123.47656,59.443358 123.132814,59.0566431 122.890625,58.5527344 C122.648436,58.0488256 122.527344,57.4589878 122.527344,56.7832031 C122.527344,55.7363229 122.78906,54.9209014 123.3125,54.3369141 C123.83594,53.7529268 124.562495,53.4609375 125.492188,53.4609375 C126.390629,53.4609375 127.10449,53.7597626 127.633789,54.3574219 C128.163089,54.9550811 128.427734,55.7636668 128.427734,56.7832031 L128.427734,56.7832031 Z M123.535156,56.7832031 C123.535156,57.6035197 123.699217,58.2285135 124.027344,58.6582031 C124.35547,59.0878928 124.837887,59.3027344 125.474609,59.3027344 C126.111331,59.3027344 126.594725,59.0888693 126.924805,58.6611328 C127.254884,58.2333963 127.419922,57.607426 127.419922,56.7832031 C127.419922,55.9667928 127.254884,55.3466818 126.924805,54.9228516 C126.594725,54.4990213 126.107425,54.2871094 125.462891,54.2871094 C124.826169,54.2871094 124.345705,54.4960917 124.021484,54.9140625 C123.697264,55.3320333 123.535156,55.955074 123.535156,56.7832031 L123.535156,56.7832031 Z M138.318359,60 L138.318359,55.8222656 C138.318359,55.3105443 138.208985,54.9267591 137.990234,54.6708984 C137.771483,54.4150378 137.431643,54.2871094 136.970703,54.2871094 C136.365231,54.2871094 135.91797,54.4609358 135.628906,54.8085938 C135.339842,55.1562517 135.195312,55.6914026 135.195312,56.4140625 L135.195312,60 L134.222656,60 L134.222656,55.8222656 C134.222656,55.3105443 134.113282,54.9267591 133.894531,54.6708984 C133.67578,54.4150378 133.333987,54.2871094 132.869141,54.2871094 C132.259763,54.2871094 131.813478,54.4697247 131.530273,54.8349609 C131.247069,55.2001971 131.105469,55.798824 131.105469,56.6308594 L131.105469,60 L130.132812,60 L130.132812,53.578125 L130.923828,53.578125 L131.082031,54.4570312 L131.128906,54.4570312 C131.312501,54.1445297 131.571287,53.9003915 131.905273,53.7246094 C132.239259,53.5488272 132.613279,53.4609375 133.027344,53.4609375 C134.031255,53.4609375 134.687498,53.8242151 134.996094,54.5507812 L135.042969,54.5507812 C135.234376,54.2148421 135.511717,53.9492197 135.875,53.7539062 C136.238283,53.5585928 136.652341,53.4609375 137.117188,53.4609375 C137.843754,53.4609375 138.387694,53.6474591 138.749023,54.0205078 C139.110353,54.3935566 139.291016,54.9902303 139.291016,55.8105469 L139.291016,60 L138.318359,60 Z M144.007812,60.1171875 C143.058589,60.1171875 142.309573,59.8281279 141.760742,59.25 C141.211911,58.6718721 140.9375,57.8691458 140.9375,56.8417969 C140.9375,55.8066354 141.19238,54.984378 141.702148,54.375 C142.211917,53.765622 142.89648,53.4609375 143.755859,53.4609375 C144.560551,53.4609375 145.197263,53.7255833 145.666016,54.2548828 C146.134768,54.7841823 146.369141,55.4824175 146.369141,56.3496094 L146.369141,56.9648438 L141.945312,56.9648438 C141.964844,57.7187538 142.155272,58.2910137 142.516602,58.6816406 C142.877931,59.0722676 143.386715,59.2675781 144.042969,59.2675781 C144.734378,59.2675781 145.417965,59.1230483 146.09375,58.8339844 L146.09375,59.7011719 C145.749998,59.8496101 145.424806,59.9560544 145.118164,60.0205078 C144.811522,60.0849613 144.441408,60.1171875 144.007812,60.1171875 L144.007812,60.1171875 Z M143.744141,54.2753906 C143.228513,54.2753906 142.817384,54.4433577 142.510742,54.7792969 C142.2041,55.1152361 142.023438,55.5800752 141.96875,56.1738281 L145.326172,56.1738281 C145.326172,55.5605438 145.189454,55.0908219 144.916016,54.7646484 C144.642577,54.4384749 144.251956,54.2753906 143.744141,54.2753906 L143.744141,54.2753906 Z" id="Home" fill="#4A4A4A"></path>
                <path d="M120.646484,91.4335938 L120.646484,96.9765625 C120.646484,97.9531299 120.351565,98.7207003 119.761719,99.2792969 C119.171872,99.8378934 118.361333,100.117188 117.330078,100.117188 C116.298823,100.117188 115.500979,99.8359403 114.936523,99.2734375 C114.372067,98.7109347 114.089844,97.9375049 114.089844,96.953125 L114.089844,91.4335938 L115.085938,91.4335938 L115.085938,97.0234375 C115.085938,97.7382848 115.281248,98.2871075 115.671875,98.6699219 C116.062502,99.0527363 116.636715,99.2441406 117.394531,99.2441406 C118.117191,99.2441406 118.673826,99.0517597 119.064453,98.6669922 C119.45508,98.2822246 119.650391,97.7304723 119.650391,97.0117188 L119.650391,91.4335938 L120.646484,91.4335938 Z M126.910156,98.2480469 C126.910156,98.8457061 126.687502,99.306639 126.242188,99.6308594 C125.796873,99.9550797 125.171879,100.117188 124.367188,100.117188 C123.515621,100.117188 122.851565,99.9824232 122.375,99.7128906 L122.375,98.8105469 C122.683595,98.9667977 123.014647,99.0898433 123.368164,99.1796875 C123.721681,99.2695317 124.062498,99.3144531 124.390625,99.3144531 C124.89844,99.3144531 125.289061,99.2333992 125.5625,99.0712891 C125.835939,98.9091789 125.972656,98.662111 125.972656,98.3300781 C125.972656,98.0800769 125.864259,97.8662118 125.647461,97.6884766 C125.430663,97.5107413 125.007816,97.3007825 124.378906,97.0585938 C123.781247,96.8359364 123.356447,96.6416024 123.104492,96.4755859 C122.852538,96.3095695 122.66504,96.1210948 122.541992,95.9101562 C122.418945,95.6992177 122.357422,95.4472671 122.357422,95.1542969 C122.357422,94.6308568 122.57031,94.217775 122.996094,93.9150391 C123.421877,93.6123032 124.005856,93.4609375 124.748047,93.4609375 C125.439457,93.4609375 126.115231,93.6015611 126.775391,93.8828125 L126.429688,94.6738281 C125.785153,94.4082018 125.201174,94.2753906 124.677734,94.2753906 C124.216795,94.2753906 123.869142,94.3476555 123.634766,94.4921875 C123.400389,94.6367195 123.283203,94.8359362 123.283203,95.0898438 C123.283203,95.2617196 123.327148,95.4082025 123.415039,95.5292969 C123.50293,95.6503912 123.64453,95.7656245 123.839844,95.875 C124.035157,95.9843755 124.410153,96.1425771 124.964844,96.3496094 C125.726566,96.6269545 126.24121,96.9062486 126.508789,97.1875 C126.776369,97.4687514 126.910156,97.8222635 126.910156,98.2480469 L126.910156,98.2480469 Z M131.205078,100.117188 C130.255855,100.117188 129.506839,99.8281279 128.958008,99.25 C128.409177,98.6718721 128.134766,97.8691458 128.134766,96.8417969 C128.134766,95.8066354 128.389646,94.984378 128.899414,94.375 C129.409182,93.765622 130.093746,93.4609375 130.953125,93.4609375 C131.757817,93.4609375 132.394529,93.7255833 132.863281,94.2548828 C133.332034,94.7841823 133.566406,95.4824175 133.566406,96.3496094 L133.566406,96.9648438 L129.142578,96.9648438 C129.162109,97.7187538 129.352537,98.2910137 129.713867,98.6816406 C130.075197,99.0722676 130.583981,99.2675781 131.240234,99.2675781 C131.931644,99.2675781 132.615231,99.1230483 133.291016,98.8339844 L133.291016,99.7011719 C132.947264,99.8496101 132.622072,99.9560544 132.31543,100.020508 C132.008788,100.084961 131.638674,100.117188 131.205078,100.117188 L131.205078,100.117188 Z M130.941406,94.2753906 C130.425779,94.2753906 130.01465,94.4433577 129.708008,94.7792969 C129.401366,95.1152361 129.220703,95.5800752 129.166016,96.1738281 L132.523438,96.1738281 C132.523438,95.5605438 132.38672,95.0908219 132.113281,94.7646484 C131.839842,94.4384749 131.449221,94.2753906 130.941406,94.2753906 L130.941406,94.2753906 Z M138.154297,93.4609375 C138.439455,93.4609375 138.695311,93.4843748 138.921875,93.53125 L138.787109,94.4335938 C138.521483,94.3749997 138.28711,94.3457031 138.083984,94.3457031 C137.564451,94.3457031 137.120119,94.5566385 136.750977,94.9785156 C136.381834,95.4003927 136.197266,95.9257781 136.197266,96.5546875 L136.197266,100 L135.224609,100 L135.224609,93.578125 L136.027344,93.578125 L136.138672,94.7675781 L136.185547,94.7675781 C136.423829,94.3496073 136.710936,94.0273449 137.046875,93.8007812 C137.382814,93.5742176 137.751951,93.4609375 138.154297,93.4609375 L138.154297,93.4609375 Z M144.265625,98.2480469 C144.265625,98.8457061 144.042971,99.306639 143.597656,99.6308594 C143.152342,99.9550797 142.527348,100.117188 141.722656,100.117188 C140.871089,100.117188 140.207034,99.9824232 139.730469,99.7128906 L139.730469,98.8105469 C140.039064,98.9667977 140.370115,99.0898433 140.723633,99.1796875 C141.07715,99.2695317 141.417967,99.3144531 141.746094,99.3144531 C142.253909,99.3144531 142.64453,99.2333992 142.917969,99.0712891 C143.191408,98.9091789 143.328125,98.662111 143.328125,98.3300781 C143.328125,98.0800769 143.219728,97.8662118 143.00293,97.6884766 C142.786132,97.5107413 142.363284,97.3007825 141.734375,97.0585938 C141.136716,96.8359364 140.711915,96.6416024 140.459961,96.4755859 C140.208007,96.3095695 140.020508,96.1210948 139.897461,95.9101562 C139.774413,95.6992177 139.712891,95.4472671 139.712891,95.1542969 C139.712891,94.6308568 139.925779,94.217775 140.351562,93.9150391 C140.777346,93.6123032 141.361324,93.4609375 142.103516,93.4609375 C142.794925,93.4609375 143.4707,93.6015611 144.130859,93.8828125 L143.785156,94.6738281 C143.140622,94.4082018 142.556643,94.2753906 142.033203,94.2753906 C141.572263,94.2753906 141.224611,94.3476555 140.990234,94.4921875 C140.755858,94.6367195 140.638672,94.8359362 140.638672,95.0898438 C140.638672,95.2617196 140.682617,95.4082025 140.770508,95.5292969 C140.858399,95.6503912 140.999999,95.7656245 141.195312,95.875 C141.390626,95.9843755 141.765622,96.1425771 142.320312,96.3496094 C143.082035,96.6269545 143.596678,96.9062486 143.864258,97.1875 C144.131837,97.4687514 144.265625,97.8222635 144.265625,98.2480469 L144.265625,98.2480469 Z" id="Users" fill="#4A4A4A"></path>
                <path d="M121.015625,134.634766 C121.015625,136.048835 120.63184,137.129879 119.864258,137.87793 C119.096676,138.62598 117.992195,139 116.550781,139 L114.177734,139 L114.177734,130.433594 L116.802734,130.433594 C118.134772,130.433594 119.169918,130.802731 119.908203,131.541016 C120.646488,132.279301 121.015625,133.31054 121.015625,134.634766 L121.015625,134.634766 Z M119.960938,134.669922 C119.960938,133.552729 119.680667,132.71094 119.120117,132.144531 C118.559568,131.578122 117.726568,131.294922 116.621094,131.294922 L115.173828,131.294922 L115.173828,138.138672 L116.386719,138.138672 C117.574225,138.138672 118.466794,137.846683 119.064453,137.262695 C119.662112,136.678708 119.960938,135.814459 119.960938,134.669922 L119.960938,134.669922 Z M128.322266,135.783203 C128.322266,136.830083 128.058596,137.647458 127.53125,138.235352 C127.003904,138.823245 126.275395,139.117188 125.345703,139.117188 C124.771482,139.117188 124.261721,138.982423 123.816406,138.712891 C123.371092,138.443358 123.027345,138.056643 122.785156,137.552734 C122.542968,137.048826 122.421875,136.458988 122.421875,135.783203 C122.421875,134.736323 122.683591,133.920901 123.207031,133.336914 C123.730471,132.752927 124.457027,132.460938 125.386719,132.460938 C126.285161,132.460938 126.999021,132.759763 127.52832,133.357422 C128.05762,133.955081 128.322266,134.763667 128.322266,135.783203 L128.322266,135.783203 Z M123.429688,135.783203 C123.429688,136.60352 123.593748,137.228513 123.921875,137.658203 C124.250002,138.087893 124.732419,138.302734 125.369141,138.302734 C126.005863,138.302734 126.489256,138.088869 126.819336,137.661133 C127.149416,137.233396 127.314453,136.607426 127.314453,135.783203 C127.314453,134.966793 127.149416,134.346682 126.819336,133.922852 C126.489256,133.499021 126.001956,133.287109 125.357422,133.287109 C124.7207,133.287109 124.240236,133.496092 123.916016,133.914062 C123.591795,134.332033 123.429688,134.955074 123.429688,135.783203 L123.429688,135.783203 Z M132.59375,139.117188 C131.664058,139.117188 130.944338,138.831058 130.43457,138.258789 C129.924802,137.686521 129.669922,136.876958 129.669922,135.830078 C129.669922,134.755854 129.928708,133.925784 130.446289,133.339844 C130.96387,132.753903 131.701167,132.460938 132.658203,132.460938 C132.966798,132.460938 133.275389,132.49414 133.583984,132.560547 C133.89258,132.626953 134.134765,132.705078 134.310547,132.794922 L134.011719,133.621094 C133.796874,133.535156 133.562501,133.463867 133.308594,133.407227 C133.054686,133.350586 132.830079,133.322266 132.634766,133.322266 C131.330072,133.322266 130.677734,134.154289 130.677734,135.818359 C130.677734,136.607426 130.836912,137.212889 131.155273,137.634766 C131.473634,138.056643 131.945309,138.267578 132.570312,138.267578 C133.105471,138.267578 133.654294,138.152345 134.216797,137.921875 L134.216797,138.783203 C133.787107,139.00586 133.246097,139.117188 132.59375,139.117188 L132.59375,139.117188 Z M139.882812,137.248047 C139.882812,137.845706 139.660158,138.306639 139.214844,138.630859 C138.769529,138.95508 138.144535,139.117188 137.339844,139.117188 C136.488277,139.117188 135.824221,138.982423 135.347656,138.712891 L135.347656,137.810547 C135.656252,137.966798 135.987303,138.089843 136.34082,138.179688 C136.694338,138.269532 137.035155,138.314453 137.363281,138.314453 C137.871096,138.314453 138.261717,138.233399 138.535156,138.071289 C138.808595,137.909179 138.945312,137.662111 138.945312,137.330078 C138.945312,137.080077 138.836915,136.866212 138.620117,136.688477 C138.403319,136.510741 137.980472,136.300782 137.351562,136.058594 C136.753903,135.835936 136.329103,135.641602 136.077148,135.475586 C135.825194,135.309569 135.637696,135.121095 135.514648,134.910156 C135.391601,134.699218 135.330078,134.447267 135.330078,134.154297 C135.330078,133.630857 135.542967,133.217775 135.96875,132.915039 C136.394533,132.612303 136.978512,132.460938 137.720703,132.460938 C138.412113,132.460938 139.087887,132.601561 139.748047,132.882812 L139.402344,133.673828 C138.757809,133.408202 138.173831,133.275391 137.650391,133.275391 C137.189451,133.275391 136.841798,133.347656 136.607422,133.492188 C136.373046,133.636719 136.255859,133.835936 136.255859,134.089844 C136.255859,134.26172 136.299804,134.408203 136.387695,134.529297 C136.475586,134.650391 136.617187,134.765624 136.8125,134.875 C137.007813,134.984376 137.38281,135.142577 137.9375,135.349609 C138.699223,135.626955 139.213866,135.906249 139.481445,136.1875 C139.749025,136.468751 139.882812,136.822263 139.882812,137.248047 L139.882812,137.248047 Z" id="Docs" fill="#4A4A4A"></path>
            </g>
        </g>
    </g>
</svg>