<?xml version="1.0" encoding="UTF-8" standalone="no"?>
<svg width="819px" height="40px" viewBox="0 0 819 40" version="1.1" xmlns="http://www.w3.org/2000/svg" xmlns:xlink="http://www.w3.org/1999/xlink">
    <!-- Generator: Sketch 40.2 (33826) - http://www.bohemiancoding.com/sketch -->
    <title>tlbr-1</title>
    <desc>Created with Sketch.</desc>
    <defs>
        <rect id="path-1" x="10" y="4" width="32" height="32"></rect>
        <mask id="mask-2" maskContentUnits="userSpaceOnUse" maskUnits="objectBoundingBox" x="0" y="0" width="32" height="32" fill="white">
            <use xlink:href="#path-1"></use>
        </mask>
        <rect id="path-3" x="560" y="4" width="251" height="32"></rect>
        <mask id="mask-4" maskContentUnits="userSpaceOnUse" maskUnits="objectBoundingBox" x="0" y="0" width="251" height="32" fill="white">
            <use xlink:href="#path-3"></use>
        </mask>
        <rect id="path-5" x="0" y="0" width="64" height="32"></rect>
        <mask id="mask-6" maskContentUnits="userSpaceOnUse" maskUnits="objectBoundingBox" x="0" y="0" width="64" height="32" fill="white">
            <use xlink:href="#path-5"></use>
        </mask>
        <rect id="path-7" x="63" y="0" width="64" height="32"></rect>
        <mask id="mask-8" maskContentUnits="userSpaceOnUse" maskUnits="objectBoundingBox" x="0" y="0" width="64" height="32" fill="white">
            <use xlink:href="#path-7"></use>
        </mask>
        <rect id="path-9" x="126" y="0" width="64" height="32"></rect>
        <mask id="mask-10" maskContentUnits="userSpaceOnUse" maskUnits="objectBoundingBox" x="0" y="0" width="64" height="32" fill="white">
            <use xlink:href="#path-9"></use>
        </mask>
    </defs>
    <g id="Components" stroke="none" stroke-width="1" fill="none" fill-rule="evenodd">
        <g id="Toolbars" transform="translate(-325.000000, -705.000000)">
            <g id="tlbr-1" transform="translate(325.000000, 705.000000)">
                <rect id="Rectangle-21" fill="#F5F5F5" x="5.68434189e-14" y="0" width="819" height="40"></rect>
                <use id="Rectangle-4" stroke="#BCBCBC" mask="url(#mask-2)" stroke-width="2" fill="#F5F5F5" xlink:href="#path-1"></use>
                <path d="M30.926994,20.9119252 L30.926994,25.401403 C30.926994,25.5635238 30.8677585,25.7038186 30.7492855,25.8222915 C30.6308126,25.9407644 30.4905178,26 30.328397,26 L26.7368148,26 L26.7368148,22.4084178 L24.3424266,22.4084178 L24.3424266,26 L20.7508444,26 C20.5887235,26 20.4484288,25.9407644 20.3299558,25.8222915 C20.2114829,25.7038186 20.1522474,25.5635238 20.1522474,25.401403 L20.1522474,20.9119252 C20.1522474,20.9056898 20.1538062,20.8963368 20.1569239,20.8838659 C20.1600416,20.8713951 20.1616004,20.8620421 20.1616004,20.8558067 L25.5396207,16.4224474 L30.917641,20.8558067 C30.9238764,20.8682775 30.926994,20.8869835 30.926994,20.9119252 L30.926994,20.9119252 Z M33.0127306,20.2665627 L32.4328397,20.9586906 C32.3829564,21.0148093 32.3174855,21.0491036 32.2364251,21.0615744 L32.2083658,21.0615744 C32.1273054,21.0615744 32.0618345,21.0397508 32.0119512,20.9961029 L25.5396207,15.5993765 L19.0672902,20.9961029 C18.9924652,21.0459862 18.9176413,21.0678099 18.8428163,21.0615744 C18.7617559,21.0491036 18.696285,21.0148093 18.6464017,20.9586906 L18.0665108,20.2665627 C18.0166275,20.2042086 17.9948038,20.1309435 18.0010392,20.0467654 C18.0072747,19.9625873 18.0415689,19.8955575 18.1039231,19.8456742 L24.8287867,14.24318 C25.0283201,14.0810592 25.2652623,14 25.5396207,14 C25.813979,14 26.0509213,14.0810592 26.2504547,14.24318 L28.5326059,16.1512081 L28.5326059,14.3273578 C28.5326059,14.2400619 28.5606648,14.1683557 28.6167836,14.1122369 C28.6729023,14.0561182 28.7446086,14.0280592 28.8319044,14.0280592 L30.6276955,14.0280592 C30.7149914,14.0280592 30.7866976,14.0561182 30.8428163,14.1122369 C30.8989351,14.1683557 30.926994,14.2400619 30.926994,14.3273578 L30.926994,18.1434139 L32.9753183,19.8456742 C33.0376725,19.8955575 33.0719667,19.9625873 33.0782021,20.0467654 C33.0844376,20.1309435 33.0626139,20.2042086 33.0127306,20.2665627 L33.0127306,20.2665627 Z" id="" fill="#4A4A4A"></path>
                <use id="Rectangle-22" stroke="#BCBCBC" mask="url(#mask-4)" stroke-width="2" fill="#FFFFFF" xlink:href="#path-3"></use>
                <g id="Toolbar-Toggle-Buttons" transform="translate(52.000000, 4.000000)">
                    <g>
                        <use id="Rectangle-1" stroke="#BCBCBC" mask="url(#mask-6)" stroke-width="2" fill="#BCBCBC" xlink:href="#path-5"></use>
                        <use id="Rectangle-1-Copy" stroke="#BCBCBC" mask="url(#mask-8)" stroke-width="2" fill="#F5F5F5" xlink:href="#path-7"></use>
                        <use id="Rectangle-1-Copy-2" stroke="#BCBCBC" mask="url(#mask-10)" stroke-width="2" fill="#F5F5F5" xlink:href="#path-9"></use>
                        <path d="M28.3310547,16.347168 C28.3310547,17.832527 27.9554888,19.000484 27.2043457,19.8510742 C26.4532026,20.7016644 25.4090236,21.1269531 24.0717773,21.1269531 C22.7049085,21.1269531 21.6501502,20.7090699 20.9074707,19.873291 C20.1647912,19.0375121 19.793457,17.8579178 19.793457,16.3344727 C19.793457,14.8237229 20.1658491,13.652592 20.9106445,12.8210449 C21.6554399,11.9894978 22.7133721,11.5737305 24.0844727,11.5737305 C25.4174871,11.5737305 26.4584923,11.9969033 27.2075195,12.8432617 C27.9565467,13.6896201 28.3310547,14.8575772 28.3310547,16.347168 L28.3310547,16.347168 Z M20.9360352,16.347168 C20.9360352,17.6040102 21.203692,18.557207 21.7390137,19.2067871 C22.2743354,19.8563672 23.0519155,20.1811523 24.0717773,20.1811523 C25.1001028,20.1811523 25.876625,19.8574251 26.4013672,19.2099609 C26.9261094,18.5624968 27.1884766,17.608242 27.1884766,16.347168 C27.1884766,15.0987893 26.9271673,14.1519401 26.404541,13.5065918 C25.8819147,12.8612435 25.1085663,12.5385742 24.0844727,12.5385742 C23.0561472,12.5385742 22.2743354,12.8633594 21.7390137,13.5129395 C21.203692,14.1625195 20.9360352,15.1072529 20.9360352,16.347168 L20.9360352,16.347168 Z M35.0050414,21 L35.0050414,16.4995117 C35.0050414,15.9324516 34.8759737,15.5092787 34.6178344,15.2299805 C34.3596951,14.9506822 33.955565,14.8110352 33.405432,14.8110352 C32.6775638,14.8110352 32.144366,15.0078105 31.8058227,15.4013672 C31.4672793,15.7949238 31.2980102,16.4444942 31.2980102,17.3500977 L31.2980102,21 L30.2442992,21 L30.2442992,14.0429688 L31.1012328,14.0429688 L31.2726195,14.9951172 L31.3234008,14.9951172 C31.5392222,14.652342 31.8417908,14.3868011 32.2311156,14.1984863 C32.6204405,14.0101716 33.0541927,13.9160156 33.5323852,13.9160156 C34.37028,13.9160156 35.0008075,14.1180807 35.4239867,14.5222168 C35.8471659,14.9263529 36.0587523,15.5727495 36.0587523,16.4614258 L36.0587523,21 L35.0050414,21 Z M41.164868,21.1269531 C40.1365425,21.1269531 39.3251086,20.8138052 38.7305418,20.1875 C38.135975,19.5611948 37.8386961,18.6915746 37.8386961,17.5786133 C37.8386961,16.4571884 38.1148164,15.5664096 38.6670652,14.90625 C39.2193141,14.2460904 39.9609245,13.9160156 40.8919188,13.9160156 C41.7636679,13.9160156 42.4534396,14.2027152 42.9612547,14.776123 C43.4690697,15.3495309 43.7229734,16.1059523 43.7229734,17.0454102 L43.7229734,17.7119141 L38.930493,17.7119141 C38.9516519,18.5286499 39.1579487,19.1485981 39.5493895,19.5717773 C39.9408302,19.9949565 40.4920129,20.206543 41.2029539,20.206543 C41.9519811,20.206543 42.6925336,20.049969 43.4246336,19.7368164 L43.4246336,20.6762695 C43.0522359,20.8370776 42.6999445,20.9523922 42.3677488,21.0222168 C42.0355532,21.0920414 41.6345969,21.1269531 41.164868,21.1269531 L41.164868,21.1269531 Z M40.8792234,14.7983398 C40.3206269,14.7983398 39.8752375,14.9803042 39.5430418,15.3442383 C39.2108461,15.7081724 39.0151287,16.2117481 38.9558836,16.8549805 L42.5930906,16.8549805 C42.5930906,16.1905891 42.4449801,15.6817238 42.1487547,15.3283691 C41.8525292,14.9750145 41.4293564,14.7983398 40.8792234,14.7983398 L40.8792234,14.7983398 Z" id="One" fill="#4A4A4A"></path>
                        <path d="M86.1323242,21 L85.0532227,21 L85.0532227,12.6782227 L82.1142578,12.6782227 L82.1142578,11.7197266 L89.0712891,11.7197266 L89.0712891,12.6782227 L86.1323242,12.6782227 L86.1323242,21 Z M95.7325805,21 L94.4567016,16.918457 C94.3762975,16.6687813 94.2260712,16.1017297 94.006018,15.2172852 L93.9552367,15.2172852 C93.785965,15.9578488 93.6378545,16.5291321 93.5109008,16.9311523 L92.1969359,21 L90.9781859,21 L89.0802367,14.0429688 L90.1847289,14.0429688 C90.6332989,15.7906988 90.9750109,17.1215775 91.2098754,18.0356445 C91.4447398,18.9497116 91.5790972,19.5654281 91.6129516,19.8828125 L91.6637328,19.8828125 C91.7102825,19.6416004 91.7853957,19.3295104 91.8890746,18.9465332 C91.9927535,18.563556 92.0826777,18.2599295 92.15885,18.0356445 L93.4347289,14.0429688 L94.577307,14.0429688 L95.8214477,18.0356445 C96.058428,18.7635128 96.2192337,19.3749975 96.3038695,19.8701172 L96.3546508,19.8701172 C96.3715779,19.7177727 96.417069,19.4829117 96.4911254,19.1655273 C96.5651818,18.8481429 97.0063394,17.1406405 97.8146117,14.0429688 L98.9064086,14.0429688 L96.9830688,21 L95.7325805,21 Z M106.170727,17.5151367 C106.170727,18.649257 105.885086,19.5347462 105.313794,20.1716309 C104.742502,20.8085156 103.953284,21.1269531 102.946118,21.1269531 C102.324045,21.1269531 101.771804,20.9809585 101.28938,20.6889648 C100.806955,20.3969712 100.434563,19.9780301 100.172192,19.4321289 C99.9098211,18.8862277 99.7786375,18.2472367 99.7786375,17.5151367 C99.7786375,16.3810165 100.062163,15.4976431 100.629223,14.8649902 C101.196284,14.2323373 101.983385,13.9160156 102.990552,13.9160156 C103.963864,13.9160156 104.737212,14.2397429 105.31062,14.887207 C105.884028,15.5346712 106.170727,16.410639 106.170727,17.5151367 L106.170727,17.5151367 Z M100.870434,17.5151367 C100.870434,18.403813 101.048167,19.0808896 101.403638,19.5463867 C101.759108,20.0118838 102.281726,20.2446289 102.971509,20.2446289 C103.661291,20.2446289 104.184967,20.0129418 104.542554,19.5495605 C104.90014,19.0861793 105.07893,18.4080448 105.07893,17.5151367 C105.07893,16.6306922 104.90014,15.9589053 104.542554,15.4997559 C104.184967,15.0406064 103.657059,14.8110352 102.958813,14.8110352 C102.269031,14.8110352 101.748529,15.0374326 101.39729,15.4902344 C101.046051,15.9430361 100.870434,16.6179968 100.870434,17.5151367 L100.870434,17.5151367 Z" id="Two" fill="#4A4A4A"></path>
                        <path d="M145.132324,21 L144.053223,21 L144.053223,12.6782227 L141.114258,12.6782227 L141.114258,11.7197266 L148.071289,11.7197266 L148.071289,12.6782227 L145.132324,12.6782227 L145.132324,21 Z M154.072424,21 L154.072424,16.4995117 C154.072424,15.9324516 153.943356,15.5092787 153.685217,15.2299805 C153.427078,14.9506822 153.022948,14.8110352 152.472815,14.8110352 C151.740715,14.8110352 151.206459,15.0099264 150.870032,15.4077148 C150.533604,15.8055033 150.365393,16.4571895 150.365393,17.362793 L150.365393,21 L149.311682,21 L149.311682,11.1230469 L150.365393,11.1230469 L150.365393,14.112793 C150.365393,14.4724953 150.348466,14.7708321 150.314612,15.0078125 L150.378088,15.0078125 C150.585446,14.6735009 150.880609,14.4100758 151.263586,14.2175293 C151.646564,14.0249828 152.083489,13.9287109 152.574377,13.9287109 C153.424968,13.9287109 154.062901,14.130776 154.488196,14.5349121 C154.913491,14.9390482 155.126135,15.581213 155.126135,16.4614258 L155.126135,21 L154.072424,21 Z M160.467114,13.9160156 C160.776035,13.9160156 161.053213,13.941406 161.298657,13.9921875 L161.152661,14.9697266 C160.864899,14.9062497 160.610995,14.8745117 160.390942,14.8745117 C159.828114,14.8745117 159.346755,15.1030251 158.94685,15.5600586 C158.546946,16.0170921 158.346997,16.5862596 158.346997,17.2675781 L158.346997,21 L157.293286,21 L157.293286,14.0429688 L158.162915,14.0429688 L158.28352,15.331543 L158.334302,15.331543 C158.592441,14.8787412 158.903473,14.5296236 159.267407,14.2841797 C159.631341,14.0387358 160.031239,13.9160156 160.467114,13.9160156 L160.467114,13.9160156 Z M165.281238,21.1269531 C164.252912,21.1269531 163.441478,20.8138052 162.846911,20.1875 C162.252345,19.5611948 161.955066,18.6915746 161.955066,17.5786133 C161.955066,16.4571884 162.231186,15.5664096 162.783435,14.90625 C163.335684,14.2460904 164.077294,13.9160156 165.008288,13.9160156 C165.880037,13.9160156 166.569809,14.2027152 167.077624,14.776123 C167.585439,15.3495309 167.839343,16.1059523 167.839343,17.0454102 L167.839343,17.7119141 L163.046863,17.7119141 C163.068021,18.5286499 163.274318,19.1485981 163.665759,19.5717773 C164.0572,19.9949565 164.608382,20.206543 165.319323,20.206543 C166.068351,20.206543 166.808903,20.049969 167.541003,19.7368164 L167.541003,20.6762695 C167.168605,20.8370776 166.816314,20.9523922 166.484118,21.0222168 C166.151923,21.0920414 165.750966,21.1269531 165.281238,21.1269531 L165.281238,21.1269531 Z M164.995593,14.7983398 C164.436996,14.7983398 163.991607,14.9803042 163.659411,15.3442383 C163.327216,15.7081724 163.131498,16.2117481 163.072253,16.8549805 L166.70946,16.8549805 C166.70946,16.1905891 166.56135,15.6817238 166.265124,15.3283691 C165.968899,14.9750145 165.545726,14.7983398 164.995593,14.7983398 L164.995593,14.7983398 Z M172.577295,21.1269531 C171.548969,21.1269531 170.737535,20.8138052 170.142968,20.1875 C169.548402,19.5611948 169.251123,18.6915746 169.251123,17.5786133 C169.251123,16.4571884 169.527243,15.5664096 170.079492,14.90625 C170.631741,14.2460904 171.373351,13.9160156 172.304345,13.9160156 C173.176094,13.9160156 173.865866,14.2027152 174.373681,14.776123 C174.881496,15.3495309 175.1354,16.1059523 175.1354,17.0454102 L175.1354,17.7119141 L170.34292,17.7119141 C170.364078,18.5286499 170.570375,19.1485981 170.961816,19.5717773 C171.353257,19.9949565 171.904439,20.206543 172.61538,20.206543 C173.364408,20.206543 174.10496,20.049969 174.83706,19.7368164 L174.83706,20.6762695 C174.464662,20.8370776 174.112371,20.9523922 173.780175,21.0222168 C173.44798,21.0920414 173.047023,21.1269531 172.577295,21.1269531 L172.577295,21.1269531 Z M172.29165,14.7983398 C171.733053,14.7983398 171.287664,14.9803042 170.955468,15.3442383 C170.623273,15.7081724 170.427555,16.2117481 170.36831,16.8549805 L174.005517,16.8549805 C174.005517,16.1905891 173.857407,15.6817238 173.561181,15.3283691 C173.264956,14.9750145 172.841783,14.7983398 172.29165,14.7983398 L172.29165,14.7983398 Z" id="Three" fill="#4A4A4A"></path>
                    </g>
                </g>
                <path d="M254.5,9.5 L254.5,30.5" id="Line" stroke="#D0D0D0" stroke-linecap="square"></path>
                <path d="M576.307692,19.0769231 C576.307692,18.1874956 575.99159,17.4266859 575.359375,16.7944712 C574.72716,16.1622565 573.966351,15.8461538 573.076923,15.8461538 C572.187496,15.8461538 571.426686,16.1622565 570.794471,16.7944712 C570.162256,17.4266859 569.846154,18.1874956 569.846154,19.0769231 C569.846154,19.9663506 570.162256,20.7271603 570.794471,21.359375 C571.426686,21.9915897 572.187496,22.3076923 573.076923,22.3076923 C573.966351,22.3076923 574.72716,21.9915897 575.359375,21.359375 C575.99159,20.7271603 576.307692,19.9663506 576.307692,19.0769231 Z M580,25.0769231 C580,25.3269243 579.908655,25.5432683 579.725962,25.7259615 C579.543268,25.9086548 579.326924,26 579.076923,26 C578.817306,26 578.600962,25.9086548 578.427885,25.7259615 L575.954327,23.2596154 C575.093746,23.8557722 574.134621,24.1538462 573.076923,24.1538462 C572.38942,24.1538462 571.731974,24.020434 571.104567,23.7536058 C570.47716,23.4867775 569.9363,23.1262042 569.481971,22.671875 C569.027642,22.2175458 568.667069,21.6766858 568.40024,21.0492788 C568.133412,20.4218719 568,19.7644265 568,19.0769231 C568,18.3894196 568.133412,17.7319743 568.40024,17.1045673 C568.667069,16.4771603 569.027642,15.9363003 569.481971,15.4819712 C569.9363,15.027642 570.47716,14.6670686 571.104567,14.4002404 C571.731974,14.1334121 572.38942,14 573.076923,14 C573.764427,14 574.421872,14.1334121 575.049279,14.4002404 C575.676686,14.6670686 576.217546,15.027642 576.671875,15.4819712 C577.126204,15.9363003 577.486778,16.4771603 577.753606,17.1045673 C578.020434,17.7319743 578.153846,18.3894196 578.153846,19.0769231 C578.153846,20.1346207 577.855772,21.0937457 577.259615,21.9543269 L579.733173,24.4278846 C579.911059,24.6057701 580,24.8221141 580,25.0769231 Z" id="" fill="#4A4A4A"></path>
                <path d="M294.96875,24 L292.0625,16.40625 L292.015625,16.40625 C292.070313,17.0078155 292.097656,17.7226521 292.097656,18.5507812 L292.097656,24 L291.177734,24 L291.177734,15.4335938 L292.677734,15.4335938 L295.390625,22.5 L295.4375,22.5 L298.173828,15.4335938 L299.662109,15.4335938 L299.662109,24 L298.666016,24 L298.666016,18.4804688 C298.666016,17.8476531 298.693359,17.16016 298.748047,16.4179688 L298.701172,16.4179688 L295.771484,24 L294.96875,24 Z M304.578125,24.1171875 C303.628902,24.1171875 302.879886,23.8281279 302.331055,23.25 C301.782224,22.6718721 301.507812,21.8691458 301.507812,20.8417969 C301.507812,19.8066354 301.762693,18.984378 302.272461,18.375 C302.782229,17.765622 303.466793,17.4609375 304.326172,17.4609375 C305.130863,17.4609375 305.767576,17.7255833 306.236328,18.2548828 C306.70508,18.7841823 306.939453,19.4824175 306.939453,20.3496094 L306.939453,20.9648438 L302.515625,20.9648438 C302.535156,21.7187538 302.725584,22.2910137 303.086914,22.6816406 C303.448244,23.0722676 303.957028,23.2675781 304.613281,23.2675781 C305.304691,23.2675781 305.988278,23.1230483 306.664062,22.8339844 L306.664062,23.7011719 C306.320311,23.8496101 305.995119,23.9560544 305.688477,24.0205078 C305.381834,24.0849613 305.011721,24.1171875 304.578125,24.1171875 L304.578125,24.1171875 Z M304.314453,18.2753906 C303.798826,18.2753906 303.387697,18.4433577 303.081055,18.7792969 C302.774413,19.1152361 302.59375,19.5800752 302.539062,20.1738281 L305.896484,20.1738281 C305.896484,19.5605438 305.759767,19.0908219 305.486328,18.7646484 C305.212889,18.4384749 304.822268,18.2753906 304.314453,18.2753906 L304.314453,18.2753906 Z M312.992188,24 L312.992188,19.8457031 C312.992188,19.322263 312.873048,18.9316419 312.634766,18.6738281 C312.396483,18.4160143 312.02344,18.2871094 311.515625,18.2871094 C310.843747,18.2871094 310.351564,18.4687482 310.039062,18.8320312 C309.726561,19.1953143 309.570312,19.7949177 309.570312,20.6308594 L309.570312,24 L308.597656,24 L308.597656,17.578125 L309.388672,17.578125 L309.546875,18.4570312 L309.59375,18.4570312 C309.79297,18.1406234 310.072264,17.8955087 310.431641,17.7216797 C310.791017,17.5478507 311.191404,17.4609375 311.632812,17.4609375 C312.406254,17.4609375 312.988279,17.6474591 313.378906,18.0205078 C313.769533,18.3935566 313.964844,18.9902303 313.964844,19.8105469 L313.964844,24 L312.992188,24 Z M316.876953,17.578125 L316.876953,21.7441406 C316.876953,22.2675807 316.996093,22.6582018 317.234375,22.9160156 C317.472657,23.1738294 317.845701,23.3027344 318.353516,23.3027344 C319.025394,23.3027344 319.5166,23.1191425 319.827148,22.7519531 C320.137697,22.3847638 320.292969,21.7851604 320.292969,20.953125 L320.292969,17.578125 L321.265625,17.578125 L321.265625,24 L320.462891,24 L320.322266,23.1386719 L320.269531,23.1386719 C320.070312,23.4550797 319.793947,23.6972648 319.44043,23.8652344 C319.086912,24.033204 318.683596,24.1171875 318.230469,24.1171875 C317.449215,24.1171875 316.86426,23.9316425 316.475586,23.5605469 C316.086912,23.1894513 315.892578,22.5957072 315.892578,21.7792969 L315.892578,17.578125 L316.876953,17.578125 Z" id="Menu" fill="#4A4A4A"></path>
                <path d="M345.101562,21.6015625 L341.601562,25.1015625 C341.502604,25.2005213 341.385417,25.25 341.25,25.25 C341.114583,25.25 340.997396,25.2005213 340.898438,25.1015625 C340.799479,25.0026037 340.75,24.8854173 340.75,24.75 L340.75,17.75 C340.75,17.6145827 340.799479,17.4973963 340.898438,17.3984375 C340.997396,17.2994787 341.114583,17.25 341.25,17.25 C341.385417,17.25 341.502604,17.2994787 341.601562,17.3984375 L345.101562,20.8984375 C345.200521,20.9973963 345.25,21.1145827 345.25,21.25 C345.25,21.3854173 345.200521,21.5026037 345.101562,21.6015625 Z" id="-copy-13" fill="#4A4A4A" transform="translate(343.000000, 21.250000) rotate(-270.000000) translate(-343.000000, -21.250000) "></path>
                <path d="M278.830357,16.5446429 C278.955358,16.6696435 279.0625,16.8392846 279.151786,17.0535714 C279.241072,17.2678582 279.285714,17.4642848 279.285714,17.6428571 L279.285714,25.3571429 C279.285714,25.5357152 279.223215,25.6874994 279.098214,25.8125 C278.973214,25.9375006 278.821429,26 278.642857,26 L269.642857,26 C269.464285,26 269.312501,25.9375006 269.1875,25.8125 C269.062499,25.6874994 269,25.5357152 269,25.3571429 L269,14.6428571 C269,14.4642848 269.062499,14.3125006 269.1875,14.1875 C269.312501,14.0624994 269.464285,14 269.642857,14 L275.642857,14 C275.821429,14 276.017856,14.0446424 276.232143,14.1339286 C276.44643,14.2232147 276.616071,14.3303565 276.741071,14.4553571 L278.830357,16.5446429 Z M275.857143,14.9107143 L275.857143,17.4285714 L278.375,17.4285714 C278.330357,17.2991065 278.28125,17.2075896 278.227679,17.1540179 L276.131696,15.0580357 C276.078125,15.004464 275.986608,14.9553574 275.857143,14.9107143 L275.857143,14.9107143 Z M278.428571,25.1428571 L278.428571,18.2857143 L275.642857,18.2857143 C275.464285,18.2857143 275.312501,18.2232149 275.1875,18.0982143 C275.062499,17.9732137 275,17.8214295 275,17.6428571 L275,14.8571429 L269.857143,14.8571429 L269.857143,25.1428571 L278.428571,25.1428571 Z" id="-copy-8" fill="#4A4A4A"></path>
            </g>
        </g>
    </g>
</svg>