<?xml version="1.0" encoding="UTF-8" standalone="no"?>
<svg width="201px" height="317px" viewBox="0 0 201 317" version="1.1" xmlns="http://www.w3.org/2000/svg" xmlns:xlink="http://www.w3.org/1999/xlink">
    <!-- Generator: Sketch 40.2 (33826) - http://www.bohemiancoding.com/sketch -->
    <title>tlbr-4</title>
    <desc>Created with Sketch.</desc>
    <defs></defs>
    <g id="Components" stroke="none" stroke-width="1" fill="none" fill-rule="evenodd">
        <g id="Toolbars" transform="translate(-614.000000, -983.000000)">
            <g id="tlbr-4" transform="translate(614.000000, 983.000000)">
                <rect id="Rectangle-23-Copy-2" fill="#333333" x="0" y="0" width="40" height="317"></rect>
                <path d="M24.926994,55.9119252 L24.926994,60.401403 C24.926994,60.5635238 24.8677585,60.7038186 24.7492855,60.8222915 C24.6308126,60.9407644 24.4905178,61 24.328397,61 L20.7368148,61 L20.7368148,57.4084178 L18.3424266,57.4084178 L18.3424266,61 L14.7508444,61 C14.5887235,61 14.4484288,60.9407644 14.3299558,60.8222915 C14.2114829,60.7038186 14.1522474,60.5635238 14.1522474,60.401403 L14.1522474,55.9119252 C14.1522474,55.9056898 14.1538062,55.8963368 14.1569239,55.8838659 C14.1600416,55.8713951 14.1616004,55.8620421 14.1616004,55.8558067 L19.5396207,51.4224474 L24.917641,55.8558067 C24.9238764,55.8682775 24.926994,55.8869835 24.926994,55.9119252 L24.926994,55.9119252 Z M27.0127306,55.2665627 L26.4328397,55.9586906 C26.3829564,56.0148093 26.3174855,56.0491036 26.2364251,56.0615744 L26.2083658,56.0615744 C26.1273054,56.0615744 26.0618345,56.0397508 26.0119512,55.9961029 L19.5396207,50.5993765 L13.0672902,55.9961029 C12.9924652,56.0459862 12.9176413,56.0678099 12.8428163,56.0615744 C12.7617559,56.0491036 12.696285,56.0148093 12.6464017,55.9586906 L12.0665108,55.2665627 C12.0166275,55.2042086 11.9948038,55.1309435 12.0010392,55.0467654 C12.0072747,54.9625873 12.0415689,54.8955575 12.1039231,54.8456742 L18.8287867,49.24318 C19.0283201,49.0810592 19.2652623,49 19.5396207,49 C19.813979,49 20.0509213,49.0810592 20.2504547,49.24318 L22.5326059,51.1512081 L22.5326059,49.3273578 C22.5326059,49.2400619 22.5606648,49.1683557 22.6167836,49.1122369 C22.6729023,49.0561182 22.7446086,49.0280592 22.8319044,49.0280592 L24.6276955,49.0280592 C24.7149914,49.0280592 24.7866976,49.0561182 24.8428163,49.1122369 C24.8989351,49.1683557 24.926994,49.2400619 24.926994,49.3273578 L24.926994,53.1434139 L26.9753183,54.8456742 C27.0376725,54.8955575 27.0719667,54.9625873 27.0782021,55.0467654 C27.0844376,55.1309435 27.0626139,55.2042086 27.0127306,55.2665627 L27.0127306,55.2665627 Z" id="-copy-3" fill="#B2B2B2"></path>
                <path d="M25,98.9765625 C25,99.6015656 24.8098977,100.09505 24.4296875,100.457031 C24.0494773,100.819012 23.544274,101 22.9140625,101 L16.0859375,101 C15.455726,101 14.9505227,100.819012 14.5703125,100.457031 C14.1901023,100.09505 14,99.6015656 14,98.9765625 C14,98.7005195 14.0091145,98.4309909 14.0273438,98.1679688 C14.045573,97.9049466 14.082031,97.6210953 14.1367187,97.3164063 C14.1914065,97.0117172 14.2604162,96.729168 14.34375,96.46875 C14.4270837,96.208332 14.5390618,95.9544283 14.6796875,95.7070313 C14.8203132,95.4596342 14.9817699,95.2486988 15.1640625,95.0742188 C15.3463551,94.8997387 15.5690091,94.7604172 15.8320312,94.65625 C16.0950534,94.5520828 16.3854151,94.5 16.703125,94.5 C16.7500002,94.5 16.8593741,94.555989 17.03125,94.6679688 C17.2031259,94.7799485 17.3971343,94.9049472 17.6132813,95.0429687 C17.8294282,95.1809903 18.1106754,95.305989 18.4570312,95.4179688 C18.8033871,95.5299485 19.1510399,95.5859375 19.5,95.5859375 C19.8489601,95.5859375 20.1966129,95.5299485 20.5429687,95.4179688 C20.8893246,95.305989 21.1705718,95.1809903 21.3867188,95.0429687 C21.6028657,94.9049472 21.7968741,94.7799485 21.96875,94.6679688 C22.1406259,94.555989 22.2499998,94.5 22.296875,94.5 C22.6145849,94.5 22.9049466,94.5520828 23.1679687,94.65625 C23.4309909,94.7604172 23.6536449,94.8997387 23.8359375,95.0742188 C24.0182301,95.2486988 24.1796868,95.4596342 24.3203125,95.7070313 C24.4609382,95.9544283 24.5729162,96.208332 24.65625,96.46875 C24.7395837,96.729168 24.8085935,97.0117172 24.8632812,97.3164063 C24.917969,97.6210953 24.954427,97.9049466 24.9726562,98.1679688 C24.9908855,98.4309909 25,98.7005195 25,98.9765625 Z M22.5,92 C22.5,92.8281291 22.2070342,93.5351533 21.6210937,94.1210938 C21.0351533,94.7070342 20.3281291,95 19.5,95 C18.6718709,95 17.9648467,94.7070342 17.3789062,94.1210938 C16.7929658,93.5351533 16.5,92.8281291 16.5,92 C16.5,91.1718709 16.7929658,90.4648467 17.3789062,89.8789063 C17.9648467,89.2929658 18.6718709,89 19.5,89 C20.3281291,89 21.0351533,89.2929658 21.6210937,89.8789063 C22.2070342,90.4648467 22.5,91.1718709 22.5,92 Z" id="-copy" fill="#B2B2B2"></path>
                <path d="M26.4,19.2 L26.4,20.4 C26.4,20.5625008 26.3406256,20.7031244 26.221875,20.821875 C26.1031244,20.9406256 25.9625008,21 25.8,21 L12.6,21 C12.4374992,21 12.2968756,20.9406256 12.178125,20.821875 C12.0593744,20.7031244 12,20.5625008 12,20.4 L12,19.2 C12,19.0374992 12.0593744,18.8968756 12.178125,18.778125 C12.2968756,18.6593744 12.4374992,18.6 12.6,18.6 L25.8,18.6 C25.9625008,18.6 26.1031244,18.6593744 26.221875,18.778125 C26.3406256,18.8968756 26.4,19.0374992 26.4,19.2 Z M26.4,14.4 L26.4,15.6 C26.4,15.7625008 26.3406256,15.9031244 26.221875,16.021875 C26.1031244,16.1406256 25.9625008,16.2 25.8,16.2 L12.6,16.2 C12.4374992,16.2 12.2968756,16.1406256 12.178125,16.021875 C12.0593744,15.9031244 12,15.7625008 12,15.6 L12,14.4 C12,14.2374992 12.0593744,14.0968756 12.178125,13.978125 C12.2968756,13.8593744 12.4374992,13.8 12.6,13.8 L25.8,13.8 C25.9625008,13.8 26.1031244,13.8593744 26.221875,13.978125 C26.3406256,14.0968756 26.4,14.2374992 26.4,14.4 Z M26.4,9.6 L26.4,10.8 C26.4,10.9625008 26.3406256,11.1031244 26.221875,11.221875 C26.1031244,11.3406256 25.9625008,11.4 25.8,11.4 L12.6,11.4 C12.4374992,11.4 12.2968756,11.3406256 12.178125,11.221875 C12.0593744,11.1031244 12,10.9625008 12,10.8 L12,9.6 C12,9.43749919 12.0593744,9.29687559 12.178125,9.178125 C12.2968756,9.05937441 12.4374992,9 12.6,9 L25.8,9 C25.9625008,9 26.1031244,9.05937441 26.221875,9.178125 C26.3406256,9.29687559 26.4,9.43749919 26.4,9.6 Z" id="-copy" fill="#B2B2B2"></path>
                <rect id="Rectangle-23-Copy" fill="#333333" x="67" y="0" width="134" height="317"></rect>
                <path d="M91.926994,55.9119252 L91.926994,60.401403 C91.926994,60.5635238 91.8677585,60.7038186 91.7492855,60.8222915 C91.6308126,60.9407644 91.4905178,61 91.328397,61 L87.7368148,61 L87.7368148,57.4084178 L85.3424266,57.4084178 L85.3424266,61 L81.7508444,61 C81.5887235,61 81.4484288,60.9407644 81.3299558,60.8222915 C81.2114829,60.7038186 81.1522474,60.5635238 81.1522474,60.401403 L81.1522474,55.9119252 C81.1522474,55.9056898 81.1538062,55.8963368 81.1569239,55.8838659 C81.1600416,55.8713951 81.1616004,55.8620421 81.1616004,55.8558067 L86.5396207,51.4224474 L91.917641,55.8558067 C91.9238764,55.8682775 91.926994,55.8869835 91.926994,55.9119252 L91.926994,55.9119252 Z M94.0127306,55.2665627 L93.4328397,55.9586906 C93.3829564,56.0148093 93.3174855,56.0491036 93.2364251,56.0615744 L93.2083658,56.0615744 C93.1273054,56.0615744 93.0618345,56.0397508 93.0119512,55.9961029 L86.5396207,50.5993765 L80.0672902,55.9961029 C79.9924652,56.0459862 79.9176413,56.0678099 79.8428163,56.0615744 C79.7617559,56.0491036 79.696285,56.0148093 79.6464017,55.9586906 L79.0665108,55.2665627 C79.0166275,55.2042086 78.9948038,55.1309435 79.0010392,55.0467654 C79.0072747,54.9625873 79.0415689,54.8955575 79.1039231,54.8456742 L85.8287867,49.24318 C86.0283201,49.0810592 86.2652623,49 86.5396207,49 C86.813979,49 87.0509213,49.0810592 87.2504547,49.24318 L89.5326059,51.1512081 L89.5326059,49.3273578 C89.5326059,49.2400619 89.5606648,49.1683557 89.6167836,49.1122369 C89.6729023,49.0561182 89.7446086,49.0280592 89.8319044,49.0280592 L91.6276955,49.0280592 C91.7149914,49.0280592 91.7866976,49.0561182 91.8428163,49.1122369 C91.8989351,49.1683557 91.926994,49.2400619 91.926994,49.3273578 L91.926994,53.1434139 L93.9753183,54.8456742 C94.0376725,54.8955575 94.0719667,54.9625873 94.0782021,55.0467654 C94.0844376,55.1309435 94.0626139,55.2042086 94.0127306,55.2665627 L94.0127306,55.2665627 Z" id="-copy-4" fill="#B2B2B2"></path>
                <path d="M92,98.9765625 C92,99.6015656 91.8098977,100.09505 91.4296875,100.457031 C91.0494773,100.819012 90.544274,101 89.9140625,101 L83.0859375,101 C82.455726,101 81.9505227,100.819012 81.5703125,100.457031 C81.1901023,100.09505 81,99.6015656 81,98.9765625 C81,98.7005195 81.0091145,98.4309909 81.0273438,98.1679688 C81.045573,97.9049466 81.082031,97.6210953 81.1367188,97.3164063 C81.1914065,97.0117172 81.2604162,96.729168 81.34375,96.46875 C81.4270837,96.208332 81.5390618,95.9544283 81.6796875,95.7070313 C81.8203132,95.4596342 81.9817699,95.2486988 82.1640625,95.0742188 C82.3463551,94.8997387 82.5690091,94.7604172 82.8320312,94.65625 C83.0950534,94.5520828 83.3854151,94.5 83.703125,94.5 C83.7500002,94.5 83.8593741,94.555989 84.03125,94.6679688 C84.2031259,94.7799485 84.3971343,94.9049472 84.6132813,95.0429687 C84.8294282,95.1809903 85.1106754,95.305989 85.4570312,95.4179688 C85.8033871,95.5299485 86.1510399,95.5859375 86.5,95.5859375 C86.8489601,95.5859375 87.1966129,95.5299485 87.5429687,95.4179688 C87.8893246,95.305989 88.1705718,95.1809903 88.3867188,95.0429687 C88.6028657,94.9049472 88.7968741,94.7799485 88.96875,94.6679688 C89.1406259,94.555989 89.2499998,94.5 89.296875,94.5 C89.6145849,94.5 89.9049466,94.5520828 90.1679687,94.65625 C90.4309909,94.7604172 90.6536449,94.8997387 90.8359375,95.0742188 C91.0182301,95.2486988 91.1796868,95.4596342 91.3203125,95.7070313 C91.4609382,95.9544283 91.5729162,96.208332 91.65625,96.46875 C91.7395837,96.729168 91.8085935,97.0117172 91.8632812,97.3164063 C91.917969,97.6210953 91.954427,97.9049466 91.9726562,98.1679688 C91.9908855,98.4309909 92,98.7005195 92,98.9765625 Z M89.5,92 C89.5,92.8281291 89.2070342,93.5351533 88.6210937,94.1210938 C88.0351533,94.7070342 87.3281291,95 86.5,95 C85.6718709,95 84.9648467,94.7070342 84.3789062,94.1210938 C83.7929658,93.5351533 83.5,92.8281291 83.5,92 C83.5,91.1718709 83.7929658,90.4648467 84.3789062,89.8789063 C84.9648467,89.2929658 85.6718709,89 86.5,89 C87.3281291,89 88.0351533,89.2929658 88.6210937,89.8789063 C89.2070342,90.4648467 89.5,91.1718709 89.5,92 Z" id="-copy-2" fill="#B2B2B2"></path>
                <path d="M94.4,19.2 L94.4,20.4 C94.4,20.5625008 94.3406256,20.7031244 94.221875,20.821875 C94.1031244,20.9406256 93.9625008,21 93.8,21 L80.6,21 C80.4374992,21 80.2968756,20.9406256 80.178125,20.821875 C80.0593744,20.7031244 80,20.5625008 80,20.4 L80,19.2 C80,19.0374992 80.0593744,18.8968756 80.178125,18.778125 C80.2968756,18.6593744 80.4374992,18.6 80.6,18.6 L93.8,18.6 C93.9625008,18.6 94.1031244,18.6593744 94.221875,18.778125 C94.3406256,18.8968756 94.4,19.0374992 94.4,19.2 Z M94.4,14.4 L94.4,15.6 C94.4,15.7625008 94.3406256,15.9031244 94.221875,16.021875 C94.1031244,16.1406256 93.9625008,16.2 93.8,16.2 L80.6,16.2 C80.4374992,16.2 80.2968756,16.1406256 80.178125,16.021875 C80.0593744,15.9031244 80,15.7625008 80,15.6 L80,14.4 C80,14.2374992 80.0593744,14.0968756 80.178125,13.978125 C80.2968756,13.8593744 80.4374992,13.8 80.6,13.8 L93.8,13.8 C93.9625008,13.8 94.1031244,13.8593744 94.221875,13.978125 C94.3406256,14.0968756 94.4,14.2374992 94.4,14.4 Z M94.4,9.6 L94.4,10.8 C94.4,10.9625008 94.3406256,11.1031244 94.221875,11.221875 C94.1031244,11.3406256 93.9625008,11.4 93.8,11.4 L80.6,11.4 C80.4374992,11.4 80.2968756,11.3406256 80.178125,11.221875 C80.0593744,11.1031244 80,10.9625008 80,10.8 L80,9.6 C80,9.43749919 80.0593744,9.29687559 80.178125,9.178125 C80.2968756,9.05937441 80.4374992,9 80.6,9 L93.8,9 C93.9625008,9 94.1031244,9.05937441 94.221875,9.178125 C94.3406256,9.29687559 94.4,9.43749919 94.4,9.6 Z" id="-copy-2" fill="#B2B2B2"></path>
                <path d="M92.808764,131.734375 C93.0170984,132.031251 93.0639729,132.367186 92.949389,132.742188 L90.8009515,139.820313 C90.7019927,140.153647 90.5027759,140.433593 90.2032953,140.660156 C89.9038146,140.88672 89.5848074,141 89.246264,141 L82.0353265,141 C81.6342829,141 81.247568,140.860678 80.8751703,140.582031 C80.5027726,140.303384 80.2436606,139.96094 80.0978265,139.554687 C79.9728259,139.205727 79.9676176,138.875002 80.0822015,138.5625 C80.0822015,138.541667 80.090014,138.471355 80.105639,138.351562 C80.1212641,138.23177 80.1316807,138.135417 80.136889,138.0625 C80.1420974,138.020833 80.134285,137.964844 80.1134515,137.894531 C80.0926181,137.824218 80.0848057,137.773438 80.090014,137.742188 C80.1004308,137.684896 80.1212639,137.630209 80.152514,137.578125 C80.1837642,137.526041 80.2267325,137.464844 80.2814203,137.394531 C80.3361081,137.324218 80.3790764,137.263021 80.4103265,137.210938 C80.5301188,137.01302 80.6473051,136.774741 80.761889,136.496094 C80.8764729,136.217447 80.9545972,135.979168 80.996264,135.78125 C81.0118891,135.729166 81.0131912,135.651042 81.0001703,135.546875 C80.9871494,135.442708 80.9858473,135.369792 80.996264,135.328125 C81.0118891,135.270833 81.0561595,135.197917 81.1290765,135.109375 C81.2019936,135.020833 81.246264,134.960938 81.261889,134.929688 C81.3712646,134.742187 81.4806385,134.502606 81.590014,134.210938 C81.6993896,133.919269 81.7644931,133.684897 81.7853265,133.507813 C81.7905349,133.460937 81.7840245,133.377605 81.7657953,133.257813 C81.747566,133.13802 81.7488681,133.065104 81.7697015,133.039063 C81.790535,132.971354 81.8478261,132.891928 81.9415765,132.800781 C82.035327,132.709635 82.0926181,132.651042 82.1134515,132.625 C82.2124104,132.489583 82.3230863,132.269533 82.4454828,131.964844 C82.5678792,131.660155 82.6394931,131.408855 82.6603265,131.210938 C82.6655349,131.169271 82.6577225,131.102865 82.636889,131.011719 C82.6160556,130.920572 82.6108473,130.851563 82.621264,130.804687 C82.6316808,130.763021 82.655118,130.716146 82.6915765,130.664063 C82.7280351,130.611979 82.7749096,130.552084 82.8322015,130.484375 C82.8894935,130.416666 82.9337639,130.361979 82.965014,130.320313 C83.0066809,130.257812 83.0496492,130.178386 83.0939203,130.082031 C83.1381913,129.985677 83.1772534,129.894532 83.2111078,129.808594 C83.2449621,129.722656 83.2866284,129.628907 83.3361078,129.527344 C83.3855872,129.425781 83.4363679,129.342448 83.4884515,129.277344 C83.5405351,129.212239 83.6095449,129.151042 83.6954828,129.09375 C83.7814207,129.036458 83.8751698,129.00651 83.9767328,129.003906 C84.0782958,129.001302 84.2019925,129.015625 84.3478265,129.046875 L84.340014,129.070313 C84.5379317,129.023437 84.6707429,129 84.7384515,129 L90.683764,129 C91.0691826,129 91.3660547,129.145832 91.574389,129.4375 C91.7827234,129.729168 91.8295979,130.067706 91.715014,130.453125 L89.574389,137.53125 C89.3868881,138.151045 89.200692,138.55078 89.0157953,138.730469 C88.8308985,138.910157 88.4962665,139 88.011889,139 L81.2228265,139 C81.0822008,139 80.9832435,139.039062 80.9259515,139.117187 C80.8686596,139.200521 80.8660554,139.312499 80.918139,139.453125 C81.0431397,139.81771 81.4181359,140 82.043139,140 L89.2540765,140 C89.405119,140 89.5509508,139.959636 89.6915765,139.878906 C89.8322022,139.798177 89.9233472,139.690105 89.965014,139.554687 L92.308764,131.84375 C92.3452226,131.729166 92.3582433,131.58073 92.3478265,131.398438 C92.5457442,131.476563 92.6993885,131.588541 92.808764,131.734375 Z M84.496264,131.75 C84.4754306,131.817709 84.4806389,131.876302 84.511889,131.925781 C84.5431392,131.975261 84.595222,132 84.668139,132 L89.418139,132 C89.4858477,132 89.5522533,131.975261 89.6173578,131.925781 C89.6824623,131.876302 89.7254306,131.817709 89.746264,131.75 L89.9103265,131.25 C89.93116,131.182291 89.9259517,131.123698 89.8947015,131.074219 C89.8634514,131.024739 89.8113686,131 89.7384515,131 L84.9884515,131 C84.9207429,131 84.8543373,131.024739 84.7892328,131.074219 C84.7241283,131.123698 84.68116,131.182291 84.6603265,131.25 L84.496264,131.75 Z M83.8478265,133.75 C83.8269931,133.817709 83.8322014,133.876302 83.8634515,133.925781 C83.8947017,133.975261 83.9467845,134 84.0197015,134 L88.7697015,134 C88.8374102,134 88.9038158,133.975261 88.9689203,133.925781 C89.0340248,133.876302 89.0769931,133.817709 89.0978265,133.75 L89.261889,133.25 C89.2827225,133.182291 89.2775142,133.123698 89.246264,133.074219 C89.2150139,133.024739 89.1629311,133 89.090014,133 L84.340014,133 C84.2723054,133 84.2058998,133.024739 84.1407953,133.074219 C84.0756908,133.123698 84.0327225,133.182291 84.011889,133.25 L83.8478265,133.75 Z" id="-copy-2" fill="#B2B2B2"></path>
                <path d="M25.808764,131.734375 C26.0170984,132.031251 26.0639729,132.367186 25.949389,132.742188 L23.8009515,139.820313 C23.7019927,140.153647 23.5027759,140.433593 23.2032953,140.660156 C22.9038146,140.88672 22.5848074,141 22.246264,141 L15.0353265,141 C14.6342829,141 14.247568,140.860678 13.8751703,140.582031 C13.5027726,140.303384 13.2436606,139.96094 13.0978265,139.554687 C12.9728259,139.205727 12.9676176,138.875002 13.0822015,138.5625 C13.0822015,138.541667 13.090014,138.471355 13.105639,138.351562 C13.1212641,138.23177 13.1316807,138.135417 13.136889,138.0625 C13.1420974,138.020833 13.134285,137.964844 13.1134515,137.894531 C13.0926181,137.824218 13.0848057,137.773438 13.090014,137.742188 C13.1004308,137.684896 13.1212639,137.630209 13.152514,137.578125 C13.1837642,137.526041 13.2267325,137.464844 13.2814203,137.394531 C13.3361081,137.324218 13.3790764,137.263021 13.4103265,137.210938 C13.5301188,137.01302 13.6473051,136.774741 13.761889,136.496094 C13.8764729,136.217447 13.9545972,135.979168 13.996264,135.78125 C14.0118891,135.729166 14.0131912,135.651042 14.0001703,135.546875 C13.9871494,135.442708 13.9858473,135.369792 13.996264,135.328125 C14.0118891,135.270833 14.0561595,135.197917 14.1290765,135.109375 C14.2019936,135.020833 14.246264,134.960938 14.261889,134.929688 C14.3712646,134.742187 14.4806385,134.502606 14.590014,134.210938 C14.6993896,133.919269 14.7644931,133.684897 14.7853265,133.507813 C14.7905349,133.460937 14.7840245,133.377605 14.7657953,133.257813 C14.747566,133.13802 14.7488681,133.065104 14.7697015,133.039063 C14.790535,132.971354 14.8478261,132.891928 14.9415765,132.800781 C15.035327,132.709635 15.0926181,132.651042 15.1134515,132.625 C15.2124104,132.489583 15.3230863,132.269533 15.4454828,131.964844 C15.5678792,131.660155 15.6394931,131.408855 15.6603265,131.210938 C15.6655349,131.169271 15.6577225,131.102865 15.636889,131.011719 C15.6160556,130.920572 15.6108473,130.851563 15.621264,130.804687 C15.6316808,130.763021 15.655118,130.716146 15.6915765,130.664063 C15.7280351,130.611979 15.7749096,130.552084 15.8322015,130.484375 C15.8894935,130.416666 15.9337639,130.361979 15.965014,130.320313 C16.0066809,130.257812 16.0496492,130.178386 16.0939203,130.082031 C16.1381913,129.985677 16.1772534,129.894532 16.2111078,129.808594 C16.2449621,129.722656 16.2866284,129.628907 16.3361078,129.527344 C16.3855872,129.425781 16.4363679,129.342448 16.4884515,129.277344 C16.5405351,129.212239 16.6095449,129.151042 16.6954828,129.09375 C16.7814207,129.036458 16.8751698,129.00651 16.9767328,129.003906 C17.0782958,129.001302 17.2019925,129.015625 17.3478265,129.046875 L17.340014,129.070313 C17.5379317,129.023437 17.6707429,129 17.7384515,129 L23.683764,129 C24.0691826,129 24.3660547,129.145832 24.574389,129.4375 C24.7827234,129.729168 24.8295979,130.067706 24.715014,130.453125 L22.574389,137.53125 C22.3868881,138.151045 22.200692,138.55078 22.0157953,138.730469 C21.8308985,138.910157 21.4962665,139 21.011889,139 L14.2228265,139 C14.0822008,139 13.9832435,139.039062 13.9259515,139.117187 C13.8686596,139.200521 13.8660554,139.312499 13.918139,139.453125 C14.0431397,139.81771 14.4181359,140 15.043139,140 L22.2540765,140 C22.405119,140 22.5509508,139.959636 22.6915765,139.878906 C22.8322022,139.798177 22.9233472,139.690105 22.965014,139.554687 L25.308764,131.84375 C25.3452226,131.729166 25.3582433,131.58073 25.3478265,131.398438 C25.5457442,131.476563 25.6993885,131.588541 25.808764,131.734375 Z M17.496264,131.75 C17.4754306,131.817709 17.4806389,131.876302 17.511889,131.925781 C17.5431392,131.975261 17.595222,132 17.668139,132 L22.418139,132 C22.4858477,132 22.5522533,131.975261 22.6173578,131.925781 C22.6824623,131.876302 22.7254306,131.817709 22.746264,131.75 L22.9103265,131.25 C22.93116,131.182291 22.9259517,131.123698 22.8947015,131.074219 C22.8634514,131.024739 22.8113686,131 22.7384515,131 L17.9884515,131 C17.9207429,131 17.8543373,131.024739 17.7892328,131.074219 C17.7241283,131.123698 17.68116,131.182291 17.6603265,131.25 L17.496264,131.75 Z M16.8478265,133.75 C16.8269931,133.817709 16.8322014,133.876302 16.8634515,133.925781 C16.8947017,133.975261 16.9467845,134 17.0197015,134 L21.7697015,134 C21.8374102,134 21.9038158,133.975261 21.9689203,133.925781 C22.0340248,133.876302 22.0769931,133.817709 22.0978265,133.75 L22.261889,133.25 C22.2827225,133.182291 22.2775142,133.123698 22.246264,133.074219 C22.2150139,133.024739 22.1629311,133 22.090014,133 L17.340014,133 C17.2723054,133 17.2058998,133.024739 17.1407953,133.074219 C17.0756908,133.123698 17.0327225,133.182291 17.011889,133.25 L16.8478265,133.75 Z" id="-copy" fill="#B2B2B2"></path>
                <path d="M114.96875,19 L112.0625,11.40625 L112.015625,11.40625 C112.070313,12.0078155 112.097656,12.7226521 112.097656,13.5507812 L112.097656,19 L111.177734,19 L111.177734,10.4335938 L112.677734,10.4335938 L115.390625,17.5 L115.4375,17.5 L118.173828,10.4335938 L119.662109,10.4335938 L119.662109,19 L118.666016,19 L118.666016,13.4804688 C118.666016,12.8476531 118.693359,12.16016 118.748047,11.4179688 L118.701172,11.4179688 L115.771484,19 L114.96875,19 Z M124.578125,19.1171875 C123.628902,19.1171875 122.879886,18.8281279 122.331055,18.25 C121.782224,17.6718721 121.507812,16.8691458 121.507812,15.8417969 C121.507812,14.8066354 121.762693,13.984378 122.272461,13.375 C122.782229,12.765622 123.466793,12.4609375 124.326172,12.4609375 C125.130863,12.4609375 125.767576,12.7255833 126.236328,13.2548828 C126.70508,13.7841823 126.939453,14.4824175 126.939453,15.3496094 L126.939453,15.9648438 L122.515625,15.9648438 C122.535156,16.7187538 122.725584,17.2910137 123.086914,17.6816406 C123.448244,18.0722676 123.957028,18.2675781 124.613281,18.2675781 C125.304691,18.2675781 125.988278,18.1230483 126.664062,17.8339844 L126.664062,18.7011719 C126.320311,18.8496101 125.995119,18.9560544 125.688477,19.0205078 C125.381834,19.0849613 125.011721,19.1171875 124.578125,19.1171875 L124.578125,19.1171875 Z M124.314453,13.2753906 C123.798826,13.2753906 123.387697,13.4433577 123.081055,13.7792969 C122.774413,14.1152361 122.59375,14.5800752 122.539062,15.1738281 L125.896484,15.1738281 C125.896484,14.5605438 125.759767,14.0908219 125.486328,13.7646484 C125.212889,13.4384749 124.822268,13.2753906 124.314453,13.2753906 L124.314453,13.2753906 Z M132.992188,19 L132.992188,14.8457031 C132.992188,14.322263 132.873048,13.9316419 132.634766,13.6738281 C132.396483,13.4160143 132.02344,13.2871094 131.515625,13.2871094 C130.843747,13.2871094 130.351564,13.4687482 130.039062,13.8320312 C129.726561,14.1953143 129.570312,14.7949177 129.570312,15.6308594 L129.570312,19 L128.597656,19 L128.597656,12.578125 L129.388672,12.578125 L129.546875,13.4570312 L129.59375,13.4570312 C129.79297,13.1406234 130.072264,12.8955087 130.431641,12.7216797 C130.791017,12.5478507 131.191404,12.4609375 131.632812,12.4609375 C132.406254,12.4609375 132.988279,12.6474591 133.378906,13.0205078 C133.769533,13.3935566 133.964844,13.9902303 133.964844,14.8105469 L133.964844,19 L132.992188,19 Z M136.876953,12.578125 L136.876953,16.7441406 C136.876953,17.2675807 136.996093,17.6582018 137.234375,17.9160156 C137.472657,18.1738294 137.845701,18.3027344 138.353516,18.3027344 C139.025394,18.3027344 139.5166,18.1191425 139.827148,17.7519531 C140.137697,17.3847638 140.292969,16.7851604 140.292969,15.953125 L140.292969,12.578125 L141.265625,12.578125 L141.265625,19 L140.462891,19 L140.322266,18.1386719 L140.269531,18.1386719 C140.070312,18.4550797 139.793947,18.6972648 139.44043,18.8652344 C139.086912,19.033204 138.683596,19.1171875 138.230469,19.1171875 C137.449215,19.1171875 136.86426,18.9316425 136.475586,18.5605469 C136.086912,18.1894513 135.892578,17.5957072 135.892578,16.7792969 L135.892578,12.578125 L136.876953,12.578125 Z" id="Menu-Copy" fill="#B2B2B2"></path>
                <path d="M117.681641,60 L116.685547,60 L116.685547,55.96875 L112.173828,55.96875 L112.173828,60 L111.177734,60 L111.177734,51.4335938 L112.173828,51.4335938 L112.173828,55.078125 L116.685547,55.078125 L116.685547,51.4335938 L117.681641,51.4335938 L117.681641,60 Z M125.427734,56.7832031 C125.427734,57.8300834 125.164065,58.647458 124.636719,59.2353516 C124.109372,59.8232451 123.380864,60.1171875 122.451172,60.1171875 C121.87695,60.1171875 121.36719,59.9824232 120.921875,59.7128906 C120.47656,59.443358 120.132814,59.0566431 119.890625,58.5527344 C119.648436,58.0488256 119.527344,57.4589878 119.527344,56.7832031 C119.527344,55.7363229 119.78906,54.9209014 120.3125,54.3369141 C120.83594,53.7529268 121.562495,53.4609375 122.492188,53.4609375 C123.390629,53.4609375 124.10449,53.7597626 124.633789,54.3574219 C125.163089,54.9550811 125.427734,55.7636668 125.427734,56.7832031 L125.427734,56.7832031 Z M120.535156,56.7832031 C120.535156,57.6035197 120.699217,58.2285135 121.027344,58.6582031 C121.35547,59.0878928 121.837887,59.3027344 122.474609,59.3027344 C123.111331,59.3027344 123.594725,59.0888693 123.924805,58.6611328 C124.254884,58.2333963 124.419922,57.607426 124.419922,56.7832031 C124.419922,55.9667928 124.254884,55.3466818 123.924805,54.9228516 C123.594725,54.4990213 123.107425,54.2871094 122.462891,54.2871094 C121.826169,54.2871094 121.345705,54.4960917 121.021484,54.9140625 C120.697264,55.3320333 120.535156,55.955074 120.535156,56.7832031 L120.535156,56.7832031 Z M135.318359,60 L135.318359,55.8222656 C135.318359,55.3105443 135.208985,54.9267591 134.990234,54.6708984 C134.771483,54.4150378 134.431643,54.2871094 133.970703,54.2871094 C133.365231,54.2871094 132.91797,54.4609358 132.628906,54.8085938 C132.339842,55.1562517 132.195312,55.6914026 132.195312,56.4140625 L132.195312,60 L131.222656,60 L131.222656,55.8222656 C131.222656,55.3105443 131.113282,54.9267591 130.894531,54.6708984 C130.67578,54.4150378 130.333987,54.2871094 129.869141,54.2871094 C129.259763,54.2871094 128.813478,54.4697247 128.530273,54.8349609 C128.247069,55.2001971 128.105469,55.798824 128.105469,56.6308594 L128.105469,60 L127.132812,60 L127.132812,53.578125 L127.923828,53.578125 L128.082031,54.4570312 L128.128906,54.4570312 C128.312501,54.1445297 128.571287,53.9003915 128.905273,53.7246094 C129.239259,53.5488272 129.613279,53.4609375 130.027344,53.4609375 C131.031255,53.4609375 131.687498,53.8242151 131.996094,54.5507812 L132.042969,54.5507812 C132.234376,54.2148421 132.511717,53.9492197 132.875,53.7539062 C133.238283,53.5585928 133.652341,53.4609375 134.117188,53.4609375 C134.843754,53.4609375 135.387694,53.6474591 135.749023,54.0205078 C136.110353,54.3935566 136.291016,54.9902303 136.291016,55.8105469 L136.291016,60 L135.318359,60 Z M141.007812,60.1171875 C140.058589,60.1171875 139.309573,59.8281279 138.760742,59.25 C138.211911,58.6718721 137.9375,57.8691458 137.9375,56.8417969 C137.9375,55.8066354 138.19238,54.984378 138.702148,54.375 C139.211917,53.765622 139.89648,53.4609375 140.755859,53.4609375 C141.560551,53.4609375 142.197263,53.7255833 142.666016,54.2548828 C143.134768,54.7841823 143.369141,55.4824175 143.369141,56.3496094 L143.369141,56.9648438 L138.945312,56.9648438 C138.964844,57.7187538 139.155272,58.2910137 139.516602,58.6816406 C139.877931,59.0722676 140.386715,59.2675781 141.042969,59.2675781 C141.734378,59.2675781 142.417965,59.1230483 143.09375,58.8339844 L143.09375,59.7011719 C142.749998,59.8496101 142.424806,59.9560544 142.118164,60.0205078 C141.811522,60.0849613 141.441408,60.1171875 141.007812,60.1171875 L141.007812,60.1171875 Z M140.744141,54.2753906 C140.228513,54.2753906 139.817384,54.4433577 139.510742,54.7792969 C139.2041,55.1152361 139.023438,55.5800752 138.96875,56.1738281 L142.326172,56.1738281 C142.326172,55.5605438 142.189454,55.0908219 141.916016,54.7646484 C141.642577,54.4384749 141.251956,54.2753906 140.744141,54.2753906 L140.744141,54.2753906 Z" id="Home-Copy" fill="#B2B2B2"></path>
                <path d="M117.646484,91.4335938 L117.646484,96.9765625 C117.646484,97.9531299 117.351565,98.7207003 116.761719,99.2792969 C116.171872,99.8378934 115.361333,100.117188 114.330078,100.117188 C113.298823,100.117188 112.500979,99.8359403 111.936523,99.2734375 C111.372067,98.7109347 111.089844,97.9375049 111.089844,96.953125 L111.089844,91.4335938 L112.085938,91.4335938 L112.085938,97.0234375 C112.085938,97.7382848 112.281248,98.2871075 112.671875,98.6699219 C113.062502,99.0527363 113.636715,99.2441406 114.394531,99.2441406 C115.117191,99.2441406 115.673826,99.0517597 116.064453,98.6669922 C116.45508,98.2822246 116.650391,97.7304723 116.650391,97.0117188 L116.650391,91.4335938 L117.646484,91.4335938 Z M123.910156,98.2480469 C123.910156,98.8457061 123.687502,99.306639 123.242188,99.6308594 C122.796873,99.9550797 122.171879,100.117188 121.367188,100.117188 C120.515621,100.117188 119.851565,99.9824232 119.375,99.7128906 L119.375,98.8105469 C119.683595,98.9667977 120.014647,99.0898433 120.368164,99.1796875 C120.721681,99.2695317 121.062498,99.3144531 121.390625,99.3144531 C121.89844,99.3144531 122.289061,99.2333992 122.5625,99.0712891 C122.835939,98.9091789 122.972656,98.662111 122.972656,98.3300781 C122.972656,98.0800769 122.864259,97.8662118 122.647461,97.6884766 C122.430663,97.5107413 122.007816,97.3007825 121.378906,97.0585938 C120.781247,96.8359364 120.356447,96.6416024 120.104492,96.4755859 C119.852538,96.3095695 119.66504,96.1210948 119.541992,95.9101562 C119.418945,95.6992177 119.357422,95.4472671 119.357422,95.1542969 C119.357422,94.6308568 119.57031,94.217775 119.996094,93.9150391 C120.421877,93.6123032 121.005856,93.4609375 121.748047,93.4609375 C122.439457,93.4609375 123.115231,93.6015611 123.775391,93.8828125 L123.429688,94.6738281 C122.785153,94.4082018 122.201174,94.2753906 121.677734,94.2753906 C121.216795,94.2753906 120.869142,94.3476555 120.634766,94.4921875 C120.400389,94.6367195 120.283203,94.8359362 120.283203,95.0898438 C120.283203,95.2617196 120.327148,95.4082025 120.415039,95.5292969 C120.50293,95.6503912 120.64453,95.7656245 120.839844,95.875 C121.035157,95.9843755 121.410153,96.1425771 121.964844,96.3496094 C122.726566,96.6269545 123.24121,96.9062486 123.508789,97.1875 C123.776369,97.4687514 123.910156,97.8222635 123.910156,98.2480469 L123.910156,98.2480469 Z M128.205078,100.117188 C127.255855,100.117188 126.506839,99.8281279 125.958008,99.25 C125.409177,98.6718721 125.134766,97.8691458 125.134766,96.8417969 C125.134766,95.8066354 125.389646,94.984378 125.899414,94.375 C126.409182,93.765622 127.093746,93.4609375 127.953125,93.4609375 C128.757817,93.4609375 129.394529,93.7255833 129.863281,94.2548828 C130.332034,94.7841823 130.566406,95.4824175 130.566406,96.3496094 L130.566406,96.9648438 L126.142578,96.9648438 C126.162109,97.7187538 126.352537,98.2910137 126.713867,98.6816406 C127.075197,99.0722676 127.583981,99.2675781 128.240234,99.2675781 C128.931644,99.2675781 129.615231,99.1230483 130.291016,98.8339844 L130.291016,99.7011719 C129.947264,99.8496101 129.622072,99.9560544 129.31543,100.020508 C129.008788,100.084961 128.638674,100.117188 128.205078,100.117188 L128.205078,100.117188 Z M127.941406,94.2753906 C127.425779,94.2753906 127.01465,94.4433577 126.708008,94.7792969 C126.401366,95.1152361 126.220703,95.5800752 126.166016,96.1738281 L129.523438,96.1738281 C129.523438,95.5605438 129.38672,95.0908219 129.113281,94.7646484 C128.839842,94.4384749 128.449221,94.2753906 127.941406,94.2753906 L127.941406,94.2753906 Z M135.154297,93.4609375 C135.439455,93.4609375 135.695311,93.4843748 135.921875,93.53125 L135.787109,94.4335938 C135.521483,94.3749997 135.28711,94.3457031 135.083984,94.3457031 C134.564451,94.3457031 134.120119,94.5566385 133.750977,94.9785156 C133.381834,95.4003927 133.197266,95.9257781 133.197266,96.5546875 L133.197266,100 L132.224609,100 L132.224609,93.578125 L133.027344,93.578125 L133.138672,94.7675781 L133.185547,94.7675781 C133.423829,94.3496073 133.710936,94.0273449 134.046875,93.8007812 C134.382814,93.5742176 134.751951,93.4609375 135.154297,93.4609375 L135.154297,93.4609375 Z M141.265625,98.2480469 C141.265625,98.8457061 141.042971,99.306639 140.597656,99.6308594 C140.152342,99.9550797 139.527348,100.117188 138.722656,100.117188 C137.871089,100.117188 137.207034,99.9824232 136.730469,99.7128906 L136.730469,98.8105469 C137.039064,98.9667977 137.370115,99.0898433 137.723633,99.1796875 C138.07715,99.2695317 138.417967,99.3144531 138.746094,99.3144531 C139.253909,99.3144531 139.64453,99.2333992 139.917969,99.0712891 C140.191408,98.9091789 140.328125,98.662111 140.328125,98.3300781 C140.328125,98.0800769 140.219728,97.8662118 140.00293,97.6884766 C139.786132,97.5107413 139.363284,97.3007825 138.734375,97.0585938 C138.136716,96.8359364 137.711915,96.6416024 137.459961,96.4755859 C137.208007,96.3095695 137.020508,96.1210948 136.897461,95.9101562 C136.774413,95.6992177 136.712891,95.4472671 136.712891,95.1542969 C136.712891,94.6308568 136.925779,94.217775 137.351562,93.9150391 C137.777346,93.6123032 138.361324,93.4609375 139.103516,93.4609375 C139.794925,93.4609375 140.4707,93.6015611 141.130859,93.8828125 L140.785156,94.6738281 C140.140622,94.4082018 139.556643,94.2753906 139.033203,94.2753906 C138.572263,94.2753906 138.224611,94.3476555 137.990234,94.4921875 C137.755858,94.6367195 137.638672,94.8359362 137.638672,95.0898438 C137.638672,95.2617196 137.682617,95.4082025 137.770508,95.5292969 C137.858399,95.6503912 137.999999,95.7656245 138.195312,95.875 C138.390626,95.9843755 138.765622,96.1425771 139.320312,96.3496094 C140.082035,96.6269545 140.596678,96.9062486 140.864258,97.1875 C141.131837,97.4687514 141.265625,97.8222635 141.265625,98.2480469 L141.265625,98.2480469 Z" id="Users-Copy" fill="#B2B2B2"></path>
                <path d="M118.015625,134.634766 C118.015625,136.048835 117.63184,137.129879 116.864258,137.87793 C116.096676,138.62598 114.992195,139 113.550781,139 L111.177734,139 L111.177734,130.433594 L113.802734,130.433594 C115.134772,130.433594 116.169918,130.802731 116.908203,131.541016 C117.646488,132.279301 118.015625,133.31054 118.015625,134.634766 L118.015625,134.634766 Z M116.960938,134.669922 C116.960938,133.552729 116.680667,132.71094 116.120117,132.144531 C115.559568,131.578122 114.726568,131.294922 113.621094,131.294922 L112.173828,131.294922 L112.173828,138.138672 L113.386719,138.138672 C114.574225,138.138672 115.466794,137.846683 116.064453,137.262695 C116.662112,136.678708 116.960938,135.814459 116.960938,134.669922 L116.960938,134.669922 Z M125.322266,135.783203 C125.322266,136.830083 125.058596,137.647458 124.53125,138.235352 C124.003904,138.823245 123.275395,139.117188 122.345703,139.117188 C121.771482,139.117188 121.261721,138.982423 120.816406,138.712891 C120.371092,138.443358 120.027345,138.056643 119.785156,137.552734 C119.542968,137.048826 119.421875,136.458988 119.421875,135.783203 C119.421875,134.736323 119.683591,133.920901 120.207031,133.336914 C120.730471,132.752927 121.457027,132.460938 122.386719,132.460938 C123.285161,132.460938 123.999021,132.759763 124.52832,133.357422 C125.05762,133.955081 125.322266,134.763667 125.322266,135.783203 L125.322266,135.783203 Z M120.429688,135.783203 C120.429688,136.60352 120.593748,137.228513 120.921875,137.658203 C121.250002,138.087893 121.732419,138.302734 122.369141,138.302734 C123.005863,138.302734 123.489256,138.088869 123.819336,137.661133 C124.149416,137.233396 124.314453,136.607426 124.314453,135.783203 C124.314453,134.966793 124.149416,134.346682 123.819336,133.922852 C123.489256,133.499021 123.001956,133.287109 122.357422,133.287109 C121.7207,133.287109 121.240236,133.496092 120.916016,133.914062 C120.591795,134.332033 120.429688,134.955074 120.429688,135.783203 L120.429688,135.783203 Z M129.59375,139.117188 C128.664058,139.117188 127.944338,138.831058 127.43457,138.258789 C126.924802,137.686521 126.669922,136.876958 126.669922,135.830078 C126.669922,134.755854 126.928708,133.925784 127.446289,133.339844 C127.96387,132.753903 128.701167,132.460938 129.658203,132.460938 C129.966798,132.460938 130.275389,132.49414 130.583984,132.560547 C130.89258,132.626953 131.134765,132.705078 131.310547,132.794922 L131.011719,133.621094 C130.796874,133.535156 130.562501,133.463867 130.308594,133.407227 C130.054686,133.350586 129.830079,133.322266 129.634766,133.322266 C128.330072,133.322266 127.677734,134.154289 127.677734,135.818359 C127.677734,136.607426 127.836912,137.212889 128.155273,137.634766 C128.473634,138.056643 128.945309,138.267578 129.570312,138.267578 C130.105471,138.267578 130.654294,138.152345 131.216797,137.921875 L131.216797,138.783203 C130.787107,139.00586 130.246097,139.117188 129.59375,139.117188 L129.59375,139.117188 Z M136.882812,137.248047 C136.882812,137.845706 136.660158,138.306639 136.214844,138.630859 C135.769529,138.95508 135.144535,139.117188 134.339844,139.117188 C133.488277,139.117188 132.824221,138.982423 132.347656,138.712891 L132.347656,137.810547 C132.656252,137.966798 132.987303,138.089843 133.34082,138.179688 C133.694338,138.269532 134.035155,138.314453 134.363281,138.314453 C134.871096,138.314453 135.261717,138.233399 135.535156,138.071289 C135.808595,137.909179 135.945312,137.662111 135.945312,137.330078 C135.945312,137.080077 135.836915,136.866212 135.620117,136.688477 C135.403319,136.510741 134.980472,136.300782 134.351562,136.058594 C133.753903,135.835936 133.329103,135.641602 133.077148,135.475586 C132.825194,135.309569 132.637696,135.121095 132.514648,134.910156 C132.391601,134.699218 132.330078,134.447267 132.330078,134.154297 C132.330078,133.630857 132.542967,133.217775 132.96875,132.915039 C133.394533,132.612303 133.978512,132.460938 134.720703,132.460938 C135.412113,132.460938 136.087887,132.601561 136.748047,132.882812 L136.402344,133.673828 C135.757809,133.408202 135.173831,133.275391 134.650391,133.275391 C134.189451,133.275391 133.841798,133.347656 133.607422,133.492188 C133.373046,133.636719 133.255859,133.835936 133.255859,134.089844 C133.255859,134.26172 133.299804,134.408203 133.387695,134.529297 C133.475586,134.650391 133.617187,134.765624 133.8125,134.875 C134.007813,134.984376 134.38281,135.142577 134.9375,135.349609 C135.699223,135.626955 136.213866,135.906249 136.481445,136.1875 C136.749025,136.468751 136.882812,136.822263 136.882812,137.248047 L136.882812,137.248047 Z" id="Docs-Copy" fill="#B2B2B2"></path>
            </g>
        </g>
    </g>
</svg>