<?xml version="1.0" encoding="UTF-8" standalone="no"?>
<svg width="160px" height="160px" viewBox="0 0 160 160" version="1.1" xmlns="http://www.w3.org/2000/svg" xmlns:xlink="http://www.w3.org/1999/xlink">
    <!-- Generator: Sketch 40.2 (33826) - http://www.bohemiancoding.com/sketch -->
    <title>White on Blue</title>
    <desc>Created with Sketch.</desc>
    <defs></defs>
    <g id="Product-Style" stroke="none" stroke-width="1" fill="none" fill-rule="evenodd">
        <g id="Product-Style---Logo" transform="translate(-998.000000, -1845.000000)">
            <g id="White-on-Blue" transform="translate(998.000000, 1845.000000)">
                <rect id="Rectangle-7" fill="#025B80" x="0" y="0" width="160" height="160"></rect>
                <g id="Fill-1-+-Fill-2-Copy-2" transform="translate(36.000000, 19.000000)" fill="#FFFFFF">
                    <path d="M60.5435963,121.658167 C62.8667156,115.472301 65.1898349,113.89446 65.1898349,109.286434 C65.1898349,101.929912 60.7405872,95.0994662 53.854789,91.8839503 L24.3093945,77.6309312 C9.48422018,70.2238994 0.269247706,55.6320777 0.269247706,39.5552752 C0.269247706,23.1878484 9.72722936,8.4779121 24.9512294,1.16490573 L27.2271193,0.0459248408 C24.2722569,3.45881656 22.5841101,7.80652357 22.5841101,12.4122178 C22.5841101,19.7741796 27.0333578,26.6054025 33.919156,29.8162561 L63.4637431,44.0708293 C78.2881101,51.4794153 87.5046972,66.0704599 87.5046972,82.1441541 C87.5046972,98.5100268 78.0467156,113.221517 62.8219083,120.538409 L60.5435963,121.658167" id="Fill-1"></path>
                </g>
            </g>
        </g>
    </g>
</svg>