<?xml version="1.0" encoding="UTF-8" standalone="no"?>
<svg width="200px" height="250px" viewBox="0 0 200 250" version="1.1" xmlns="http://www.w3.org/2000/svg" xmlns:xlink="http://www.w3.org/1999/xlink">
    <!-- Generator: Sketch 40.2 (33826) - http://www.bohemiancoding.com/sketch -->
    <title>tr-lst-2</title>
    <desc>Created with Sketch.</desc>
    <defs></defs>
    <g id="Components" stroke="none" stroke-width="1" fill="none" fill-rule="evenodd">
        <g id="Lists" transform="translate(-577.000000, -627.000000)">
            <g id="tr-lst-2" transform="translate(577.000000, 627.000000)">
                <rect id="Rectangle-13" fill="#F5F5F5" x="0" y="0" width="200" height="250"></rect>
                <rect id="Rectangle-13-Copy-3" fill="#E0E0E0" x="0" y="137" width="200" height="32"></rect>
                <path d="M51.4545455,37.4545455 L51.4545455,29.4545455 C51.4545455,29.1515136 51.3484859,28.8939405 51.1363636,28.6818182 C50.9242414,28.4696959 50.6666682,28.3636364 50.3636364,28.3636364 L42.3636364,28.3636364 C42.0606045,28.3636364 41.8030314,28.2575768 41.5909091,28.0454545 C41.3787868,27.8333323 41.2727273,27.5757591 41.2727273,27.2727273 L41.2727273,26.5454545 C41.2727273,26.2424227 41.1666677,25.9848495 40.9545455,25.7727273 C40.7424232,25.560605 40.48485,25.4545455 40.1818182,25.4545455 L36.5454545,25.4545455 C36.2424227,25.4545455 35.9848495,25.560605 35.7727273,25.7727273 C35.560605,25.9848495 35.4545455,26.2424227 35.4545455,26.5454545 L35.4545455,37.4545455 C35.4545455,37.7575773 35.560605,38.0151505 35.7727273,38.2272727 C35.9848495,38.439395 36.2424227,38.5454545 36.5454545,38.5454545 L50.3636364,38.5454545 C50.6666682,38.5454545 50.9242414,38.439395 51.1363636,38.2272727 C51.3484859,38.0151505 51.4545455,37.7575773 51.4545455,37.4545455 L51.4545455,37.4545455 Z M52.9090909,29.4545455 L52.9090909,37.4545455 C52.9090909,38.1515186 52.6590934,38.7499975 52.1590909,39.25 C51.6590884,39.7500025 51.0606095,40 50.3636364,40 L36.5454545,40 C35.8484814,40 35.2500025,39.7500025 34.75,39.25 C34.2499975,38.7499975 34,38.1515186 34,37.4545455 L34,26.5454545 C34,25.8484814 34.2499975,25.2500025 34.75,24.75 C35.2500025,24.2499975 35.8484814,24 36.5454545,24 L40.1818182,24 C40.8787914,24 41.4772702,24.2499975 41.9772727,24.75 C42.4772752,25.2500025 42.7272727,25.8484814 42.7272727,26.5454545 L42.7272727,26.9090909 L50.3636364,26.9090909 C51.0606095,26.9090909 51.6590884,27.1590884 52.1590909,27.6590909 C52.6590934,28.1590934 52.9090909,28.7575723 52.9090909,29.4545455 L52.9090909,29.4545455 Z" id="" fill="#4A4A4A"></path>
                <path d="M98.1071429,148.392857 C98.2738104,148.559525 98.4166661,148.785713 98.5357143,149.071429 C98.6547625,149.357144 98.7142857,149.619046 98.7142857,149.857143 L98.7142857,160.142857 C98.7142857,160.380954 98.6309532,160.583333 98.4642857,160.75 C98.2976182,160.916667 98.0952393,161 97.8571429,161 L85.8571429,161 C85.6190464,161 85.4166675,160.916667 85.25,160.75 C85.0833325,160.583333 85,160.380954 85,160.142857 L85,145.857143 C85,145.619046 85.0833325,145.416667 85.25,145.25 C85.4166675,145.083333 85.6190464,145 85.8571429,145 L93.8571429,145 C94.0952393,145 94.3571414,145.059523 94.6428571,145.178571 C94.9285729,145.29762 95.1547611,145.440475 95.3214286,145.607143 L98.1071429,148.392857 Z M94.1428571,146.214286 L94.1428571,149.571429 L97.5,149.571429 C97.4404759,149.398809 97.3750004,149.276786 97.3035714,149.205357 L94.5089286,146.410714 C94.4374996,146.339285 94.3154771,146.27381 94.1428571,146.214286 L94.1428571,146.214286 Z M97.5714286,159.857143 L97.5714286,150.714286 L93.8571429,150.714286 C93.6190464,150.714286 93.4166675,150.630953 93.25,150.464286 C93.0833325,150.297618 93,150.095239 93,149.857143 L93,146.142857 L86.1428571,146.142857 L86.1428571,159.857143 L97.5714286,159.857143 Z" id="" fill="#4A4A4A"></path>
                <path d="M23.5,32 C23.5,32.1354173 23.4505213,32.2526037 23.3515625,32.3515625 L19.8515625,35.8515625 C19.7526037,35.9505213 19.6354173,36 19.5,36 C19.3645827,36 19.2473963,35.9505213 19.1484375,35.8515625 C19.0494787,35.7526037 19,35.6354173 19,35.5 L19,28.5 C19,28.3645827 19.0494787,28.2473963 19.1484375,28.1484375 C19.2473963,28.0494787 19.3645827,28 19.5,28 C19.6354173,28 19.7526037,28.0494787 19.8515625,28.1484375 L23.3515625,31.6484375 C23.4505213,31.7473963 23.5,31.8645827 23.5,32 L23.5,32 Z" id="" fill="#4A4A4A"></path>
                <path d="M51.4545455,67.4545455 L51.4545455,59.4545455 C51.4545455,59.1515136 51.3484859,58.8939405 51.1363636,58.6818182 C50.9242414,58.4696959 50.6666682,58.3636364 50.3636364,58.3636364 L42.3636364,58.3636364 C42.0606045,58.3636364 41.8030314,58.2575768 41.5909091,58.0454545 C41.3787868,57.8333323 41.2727273,57.5757591 41.2727273,57.2727273 L41.2727273,56.5454545 C41.2727273,56.2424227 41.1666677,55.9848495 40.9545455,55.7727273 C40.7424232,55.560605 40.48485,55.4545455 40.1818182,55.4545455 L36.5454545,55.4545455 C36.2424227,55.4545455 35.9848495,55.560605 35.7727273,55.7727273 C35.560605,55.9848495 35.4545455,56.2424227 35.4545455,56.5454545 L35.4545455,67.4545455 C35.4545455,67.7575773 35.560605,68.0151505 35.7727273,68.2272727 C35.9848495,68.439395 36.2424227,68.5454545 36.5454545,68.5454545 L50.3636364,68.5454545 C50.6666682,68.5454545 50.9242414,68.439395 51.1363636,68.2272727 C51.3484859,68.0151505 51.4545455,67.7575773 51.4545455,67.4545455 L51.4545455,67.4545455 Z M52.9090909,59.4545455 L52.9090909,67.4545455 C52.9090909,68.1515186 52.6590934,68.7499975 52.1590909,69.25 C51.6590884,69.7500025 51.0606095,70 50.3636364,70 L36.5454545,70 C35.8484814,70 35.2500025,69.7500025 34.75,69.25 C34.2499975,68.7499975 34,68.1515186 34,67.4545455 L34,56.5454545 C34,55.8484814 34.2499975,55.2500025 34.75,54.75 C35.2500025,54.2499975 35.8484814,54 36.5454545,54 L40.1818182,54 C40.8787914,54 41.4772702,54.2499975 41.9772727,54.75 C42.4772752,55.2500025 42.7272727,55.8484814 42.7272727,56.5454545 L42.7272727,56.9090909 L50.3636364,56.9090909 C51.0606095,56.9090909 51.6590884,57.1590884 52.1590909,57.6590909 C52.6590934,58.1590934 52.9090909,58.7575723 52.9090909,59.4545455 L52.9090909,59.4545455 Z" id="" fill="#4A4A4A"></path>
                <path d="M23.5,62 C23.5,62.1354173 23.4505213,62.2526037 23.3515625,62.3515625 L19.8515625,65.8515625 C19.7526037,65.9505213 19.6354173,66 19.5,66 C19.3645827,66 19.2473963,65.9505213 19.1484375,65.8515625 C19.0494787,65.7526037 19,65.6354173 19,65.5 L19,58.5 C19,58.3645827 19.0494787,58.2473963 19.1484375,58.1484375 C19.2473963,58.0494787 19.3645827,58 19.5,58 C19.6354173,58 19.7526037,58.0494787 19.8515625,58.1484375 L23.3515625,61.6484375 C23.4505213,61.7473963 23.5,61.8645827 23.5,62 L23.5,62 Z" id="" fill="#4A4A4A"></path>
                <path d="M23.5,92 C23.5,92.1354173 23.4505213,92.2526037 23.3515625,92.3515625 L19.8515625,95.8515625 C19.7526037,95.9505213 19.6354173,96 19.5,96 C19.3645827,96 19.2473963,95.9505213 19.1484375,95.8515625 C19.0494787,95.7526037 19,95.6354173 19,95.5 L19,88.5 C19,88.3645827 19.0494787,88.2473963 19.1484375,88.1484375 C19.2473963,88.0494787 19.3645827,88 19.5,88 C19.6354173,88 19.7526037,88.0494787 19.8515625,88.1484375 L23.3515625,91.6484375 C23.4505213,91.7473963 23.5,91.8645827 23.5,92 L23.5,92 Z" id="" fill="#4A4A4A" transform="translate(21.500000, 92.500000) rotate(-270.000000) translate(-21.500000, -92.500000) "></path>
                <path d="M70.2495117,28.5512695 C69.2296498,28.5512695 68.4245635,28.8908657 67.8342285,29.5700684 C67.2438935,30.249271 66.9487305,31.1791933 66.9487305,32.3598633 C66.9487305,33.5743876 67.2333142,34.5127734 67.8024902,35.1750488 C68.3716663,35.8373243 69.1831002,36.168457 70.2368164,36.168457 C70.8842806,36.168457 71.6227172,36.0520845 72.4521484,35.8193359 L72.4521484,36.7651367 C71.8089161,37.0063489 71.015467,37.1269531 70.0717773,37.1269531 C68.7049085,37.1269531 67.6501502,36.7122437 66.9074707,35.8828125 C66.1647912,35.0533813 65.793457,33.8748449 65.793457,32.347168 C65.793457,31.390783 65.9722476,30.5529007 66.329834,29.8334961 C66.6874204,29.1140915 67.2036913,28.559735 67.8786621,28.1704102 C68.5536329,27.7810853 69.34814,27.5864258 70.262207,27.5864258 C71.2355192,27.5864258 72.0860966,27.7641584 72.8139648,28.1196289 L72.3569336,29.0463867 C71.6544561,28.7163069 70.9519892,28.5512695 70.2495117,28.5512695 L70.2495117,28.5512695 Z M78.5966797,37 L78.387207,36.0097656 L78.3364258,36.0097656 C77.9894188,36.4456402 77.643475,36.7408033 77.298584,36.8952637 C76.9536929,37.0497241 76.5231146,37.1269531 76.0068359,37.1269531 C75.3170538,37.1269531 74.7764505,36.9492205 74.3850098,36.59375 C73.993569,36.2382795 73.7978516,35.7325879 73.7978516,35.0766602 C73.7978516,33.6717052 74.9213755,32.9353845 77.168457,32.8676758 L78.3491211,32.8295898 L78.3491211,32.3979492 C78.3491211,31.8520481 78.2316906,31.4489759 77.9968262,31.1887207 C77.7619617,30.9284655 77.3863958,30.7983398 76.8701172,30.7983398 C76.2903617,30.7983398 75.6344438,30.9760724 74.9023438,31.331543 L74.5786133,30.5253906 C74.9213884,30.3391918 75.2969543,30.1931971 75.7053223,30.0874023 C76.1136902,29.9816075 76.5231099,29.9287109 76.9335938,29.9287109 C77.763025,29.9287109 78.3776835,30.1127911 78.7775879,30.480957 C79.1774922,30.8491229 79.3774414,31.4394491 79.3774414,32.2519531 L79.3774414,37 L78.5966797,37 Z M76.2163086,36.2573242 C76.8722364,36.2573242 77.3874493,36.0774758 77.7619629,35.7177734 C78.1364765,35.3580711 78.3237305,34.8544954 78.3237305,34.2070312 L78.3237305,33.5786133 L77.2700195,33.6230469 C76.4321247,33.6526694 75.8280455,33.7827951 75.4577637,34.0134277 C75.0874819,34.2440604 74.9023438,34.6026994 74.9023438,35.0893555 C74.9023438,35.4702167 75.0176584,35.7600902 75.248291,35.9589844 C75.4789237,36.1578786 75.801593,36.2573242 76.2163086,36.2573242 L76.2163086,36.2573242 Z M83.7954102,36.2573242 C83.981609,36.2573242 84.1614575,36.2435711 84.3349609,36.2160645 C84.5084644,36.1885578 84.6459956,36.1599936 84.7475586,36.1303711 L84.7475586,36.9365234 C84.6333002,36.9915367 84.465089,37.0370278 84.2429199,37.072998 C84.0207508,37.1089683 83.8208017,37.1269531 83.6430664,37.1269531 C82.2973566,37.1269531 81.6245117,36.4181386 81.6245117,35.0004883 L81.6245117,30.8618164 L80.6279297,30.8618164 L80.6279297,30.3540039 L81.6245117,29.9160156 L82.0688477,28.4306641 L82.6782227,28.4306641 L82.6782227,30.0429688 L84.6967773,30.0429688 L84.6967773,30.8618164 L82.6782227,30.8618164 L82.6782227,34.9560547 C82.6782227,35.3750021 82.7776683,35.6966135 82.9765625,35.9208984 C83.1754567,36.1451834 83.4484032,36.2573242 83.7954102,36.2573242 L83.7954102,36.2573242 Z M89.0766602,37.1269531 C88.0483347,37.1269531 87.2369008,36.8138052 86.642334,36.1875 C86.0477672,35.5611948 85.7504883,34.6915746 85.7504883,33.5786133 C85.7504883,32.4571884 86.0266086,31.5664096 86.5788574,30.90625 C87.1311063,30.2460904 87.8727167,29.9160156 88.8037109,29.9160156 C89.6754601,29.9160156 90.3652318,30.2027152 90.8730469,30.776123 C91.3808619,31.3495309 91.6347656,32.1059523 91.6347656,33.0454102 L91.6347656,33.7119141 L86.8422852,33.7119141 C86.8634441,34.5286499 87.0697409,35.1485981 87.4611816,35.5717773 C87.8526224,35.9949565 88.403805,36.206543 89.1147461,36.206543 C89.8637733,36.206543 90.6043258,36.049969 91.3364258,35.7368164 L91.3364258,36.6762695 C90.9640281,36.8370776 90.6117367,36.9523922 90.279541,37.0222168 C89.9473453,37.0920414 89.5463891,37.1269531 89.0766602,37.1269531 L89.0766602,37.1269531 Z M88.7910156,30.7983398 C88.2324191,30.7983398 87.7870297,30.9803042 87.454834,31.3442383 C87.1226383,31.7081724 86.9269209,32.2117481 86.8676758,32.8549805 L90.5048828,32.8549805 C90.5048828,32.1905891 90.3567723,31.6817238 90.0605469,31.3283691 C89.7643214,30.9750145 89.3411486,30.7983398 88.7910156,30.7983398 L88.7910156,30.7983398 Z M99.125,30.0429688 L99.125,30.7094727 L97.8364258,30.8618164 C97.954916,31.0099291 98.0607092,31.2035307 98.1538086,31.442627 C98.246908,31.6817232 98.293457,31.9514959 98.293457,32.2519531 C98.293457,32.9332716 98.060712,33.4770487 97.5952148,33.8833008 C97.1297177,34.2895528 96.4907267,34.4926758 95.6782227,34.4926758 C95.4708648,34.4926758 95.2762053,34.4757489 95.0942383,34.4418945 C94.6456683,34.6788749 94.4213867,34.9772117 94.4213867,35.3369141 C94.4213867,35.5273447 94.4996737,35.6680497 94.65625,35.7590332 C94.8128263,35.8500167 95.0815411,35.8955078 95.4624023,35.8955078 L96.6938477,35.8955078 C97.4471066,35.8955078 98.0257955,36.0541976 98.4299316,36.371582 C98.8340678,36.6889664 99.0361328,37.1502248 99.0361328,37.7553711 C99.0361328,38.5255572 98.7272166,39.1127096 98.109375,39.5168457 C97.4915334,39.9209818 96.5901752,40.1230469 95.4052734,40.1230469 C94.4954382,40.1230469 93.7940292,39.9537777 93.3010254,39.6152344 C92.8080216,39.276691 92.5615234,38.7985057 92.5615234,38.1806641 C92.5615234,37.7574849 92.6969387,37.3914403 92.9677734,37.0825195 C93.2386081,36.7735987 93.6194637,36.5641282 94.1103516,36.4541016 C93.9326163,36.3736975 93.7834479,36.2488615 93.6628418,36.0795898 C93.5422357,35.9103182 93.4819336,35.7135428 93.4819336,35.4892578 C93.4819336,35.2353503 93.5496413,35.0131845 93.6850586,34.8227539 C93.8204759,34.6323233 94.0341782,34.4482431 94.3261719,34.2705078 C93.9664696,34.1223951 93.6734224,33.8706072 93.4470215,33.5151367 C93.2206206,33.1596662 93.1074219,32.7534203 93.1074219,32.2963867 C93.1074219,31.5346642 93.3359352,30.9475118 93.7929688,30.5349121 C94.2500023,30.1223124 94.8974567,29.9160156 95.7353516,29.9160156 C96.0992857,29.9160156 96.4272446,29.9583329 96.7192383,30.0429688 L99.125,30.0429688 Z M93.5771484,38.1679688 C93.5771484,38.5445982 93.7358383,38.8302399 94.0532227,39.0249023 C94.3706071,39.2195648 94.8255179,39.3168945 95.4179688,39.3168945 C96.3024133,39.3168945 96.9572733,39.184653 97.3825684,38.920166 C97.8078635,38.655679 98.0205078,38.29704 98.0205078,37.8442383 C98.0205078,37.4676088 97.9041353,37.2062996 97.6713867,37.0603027 C97.4386382,36.9143059 97.0006543,36.8413086 96.3574219,36.8413086 L95.0942383,36.8413086 C94.6160458,36.8413086 94.2436537,36.9555653 93.9770508,37.184082 C93.7104479,37.4125988 93.5771484,37.7405578 93.5771484,38.1679688 L93.5771484,38.1679688 Z M94.1484375,32.2709961 C94.1484375,32.7576522 94.2859687,33.1258126 94.5610352,33.3754883 C94.8361016,33.625164 95.2190731,33.75 95.7099609,33.75 C96.7382864,33.75 97.2524414,33.250656 97.2524414,32.2519531 C97.2524414,31.2067005 96.7319388,30.684082 95.690918,30.684082 C95.1957983,30.684082 94.8149427,30.8173815 94.5483398,31.0839844 C94.2817369,31.3505873 94.1484375,31.7462539 94.1484375,32.2709961 L94.1484375,32.2709961 Z M106.558105,33.5151367 C106.558105,34.649257 106.272464,35.5347462 105.701172,36.1716309 C105.12988,36.8085156 104.340663,37.1269531 103.333496,37.1269531 C102.711423,37.1269531 102.159182,36.9809585 101.676758,36.6889648 C101.194334,36.3969712 100.821941,35.9780301 100.55957,35.4321289 C100.297199,34.8862277 100.166016,34.2472367 100.166016,33.5151367 C100.166016,32.3810165 100.449541,31.4976431 101.016602,30.8649902 C101.583662,30.2323373 102.370763,29.9160156 103.37793,29.9160156 C104.351242,29.9160156 105.12459,30.2397429 105.697998,30.887207 C106.271406,31.5346712 106.558105,32.410639 106.558105,33.5151367 L106.558105,33.5151367 Z M101.257812,33.5151367 C101.257812,34.403813 101.435545,35.0808896 101.791016,35.5463867 C102.146486,36.0118838 102.669105,36.2446289 103.358887,36.2446289 C104.048669,36.2446289 104.572345,36.0129418 104.929932,35.5495605 C105.287518,35.0861793 105.466309,34.4080448 105.466309,33.5151367 C105.466309,32.6306922 105.287518,31.9589053 104.929932,31.4997559 C104.572345,31.0406064 104.044437,30.8110352 103.346191,30.8110352 C102.656409,30.8110352 102.135907,31.0374326 101.784668,31.4902344 C101.433429,31.9430361 101.257812,32.6179968 101.257812,33.5151367 L101.257812,33.5151367 Z M111.579102,29.9160156 C111.888022,29.9160156 112.165201,29.941406 112.410645,29.9921875 L112.264648,30.9697266 C111.976887,30.9062497 111.722983,30.8745117 111.50293,30.8745117 C110.940101,30.8745117 110.458742,31.1030251 110.058838,31.5600586 C109.658934,32.0170921 109.458984,32.5862596 109.458984,33.2675781 L109.458984,37 L108.405273,37 L108.405273,30.0429688 L109.274902,30.0429688 L109.395508,31.331543 L109.446289,31.331543 C109.704428,30.8787412 110.01546,30.5296236 110.379395,30.2841797 C110.743329,30.0387358 111.143227,29.9160156 111.579102,29.9160156 L111.579102,29.9160156 Z M112.607422,30.0429688 L113.737305,30.0429688 L115.260742,34.0102539 C115.595054,34.9158574 115.802408,35.5696594 115.882812,35.9716797 L115.933594,35.9716797 C115.988607,35.7558583 116.103922,35.38664 116.279541,34.8640137 C116.45516,34.3413874 117.029618,32.7343885 118.00293,30.0429688 L119.132812,30.0429688 L116.143066,37.9648438 C115.846841,38.7477253 115.500897,39.3031396 115.105225,39.6311035 C114.709552,39.9590674 114.223961,40.1230469 113.648438,40.1230469 C113.326821,40.1230469 113.009442,40.0870772 112.696289,40.0151367 L112.696289,39.1708984 C112.929038,39.2216799 113.189289,39.2470703 113.477051,39.2470703 C114.200687,39.2470703 114.716958,38.8408244 115.025879,38.0283203 L115.413086,37.0380859 L112.607422,30.0429688 Z M127.061035,37 L126.032715,37 L126.032715,30.3857422 C126.032715,29.8356092 126.049642,29.3151066 126.083496,28.8242188 C125.994628,28.9130864 125.895183,29.0061844 125.785156,29.1035156 C125.67513,29.2008468 125.171554,29.6134404 124.274414,30.3413086 L123.71582,29.6176758 L126.172363,27.7197266 L127.061035,27.7197266 L127.061035,37 Z" id="Category-1" fill="#4A4A4A"></path>
                <path d="M70.2495117,58.5512695 C69.2296498,58.5512695 68.4245635,58.8908657 67.8342285,59.5700684 C67.2438935,60.249271 66.9487305,61.1791933 66.9487305,62.3598633 C66.9487305,63.5743876 67.2333142,64.5127734 67.8024902,65.1750488 C68.3716663,65.8373243 69.1831002,66.168457 70.2368164,66.168457 C70.8842806,66.168457 71.6227172,66.0520845 72.4521484,65.8193359 L72.4521484,66.7651367 C71.8089161,67.0063489 71.015467,67.1269531 70.0717773,67.1269531 C68.7049085,67.1269531 67.6501502,66.7122437 66.9074707,65.8828125 C66.1647912,65.0533813 65.793457,63.8748449 65.793457,62.347168 C65.793457,61.390783 65.9722476,60.5529007 66.329834,59.8334961 C66.6874204,59.1140915 67.2036913,58.559735 67.8786621,58.1704102 C68.5536329,57.7810853 69.34814,57.5864258 70.262207,57.5864258 C71.2355192,57.5864258 72.0860966,57.7641584 72.8139648,58.1196289 L72.3569336,59.0463867 C71.6544561,58.7163069 70.9519892,58.5512695 70.2495117,58.5512695 L70.2495117,58.5512695 Z M78.5966797,67 L78.387207,66.0097656 L78.3364258,66.0097656 C77.9894188,66.4456402 77.643475,66.7408033 77.298584,66.8952637 C76.9536929,67.0497241 76.5231146,67.1269531 76.0068359,67.1269531 C75.3170538,67.1269531 74.7764505,66.9492205 74.3850098,66.59375 C73.993569,66.2382795 73.7978516,65.7325879 73.7978516,65.0766602 C73.7978516,63.6717052 74.9213755,62.9353845 77.168457,62.8676758 L78.3491211,62.8295898 L78.3491211,62.3979492 C78.3491211,61.8520481 78.2316906,61.4489759 77.9968262,61.1887207 C77.7619617,60.9284655 77.3863958,60.7983398 76.8701172,60.7983398 C76.2903617,60.7983398 75.6344438,60.9760724 74.9023438,61.331543 L74.5786133,60.5253906 C74.9213884,60.3391918 75.2969543,60.1931971 75.7053223,60.0874023 C76.1136902,59.9816075 76.5231099,59.9287109 76.9335938,59.9287109 C77.763025,59.9287109 78.3776835,60.1127911 78.7775879,60.480957 C79.1774922,60.8491229 79.3774414,61.4394491 79.3774414,62.2519531 L79.3774414,67 L78.5966797,67 Z M76.2163086,66.2573242 C76.8722364,66.2573242 77.3874493,66.0774758 77.7619629,65.7177734 C78.1364765,65.3580711 78.3237305,64.8544954 78.3237305,64.2070312 L78.3237305,63.5786133 L77.2700195,63.6230469 C76.4321247,63.6526694 75.8280455,63.7827951 75.4577637,64.0134277 C75.0874819,64.2440604 74.9023438,64.6026994 74.9023438,65.0893555 C74.9023438,65.4702167 75.0176584,65.7600902 75.248291,65.9589844 C75.4789237,66.1578786 75.801593,66.2573242 76.2163086,66.2573242 L76.2163086,66.2573242 Z M83.7954102,66.2573242 C83.981609,66.2573242 84.1614575,66.2435711 84.3349609,66.2160645 C84.5084644,66.1885578 84.6459956,66.1599936 84.7475586,66.1303711 L84.7475586,66.9365234 C84.6333002,66.9915367 84.465089,67.0370278 84.2429199,67.072998 C84.0207508,67.1089683 83.8208017,67.1269531 83.6430664,67.1269531 C82.2973566,67.1269531 81.6245117,66.4181386 81.6245117,65.0004883 L81.6245117,60.8618164 L80.6279297,60.8618164 L80.6279297,60.3540039 L81.6245117,59.9160156 L82.0688477,58.4306641 L82.6782227,58.4306641 L82.6782227,60.0429688 L84.6967773,60.0429688 L84.6967773,60.8618164 L82.6782227,60.8618164 L82.6782227,64.9560547 C82.6782227,65.3750021 82.7776683,65.6966135 82.9765625,65.9208984 C83.1754567,66.1451834 83.4484032,66.2573242 83.7954102,66.2573242 L83.7954102,66.2573242 Z M89.0766602,67.1269531 C88.0483347,67.1269531 87.2369008,66.8138052 86.642334,66.1875 C86.0477672,65.5611948 85.7504883,64.6915746 85.7504883,63.5786133 C85.7504883,62.4571884 86.0266086,61.5664096 86.5788574,60.90625 C87.1311063,60.2460904 87.8727167,59.9160156 88.8037109,59.9160156 C89.6754601,59.9160156 90.3652318,60.2027152 90.8730469,60.776123 C91.3808619,61.3495309 91.6347656,62.1059523 91.6347656,63.0454102 L91.6347656,63.7119141 L86.8422852,63.7119141 C86.8634441,64.5286499 87.0697409,65.1485981 87.4611816,65.5717773 C87.8526224,65.9949565 88.403805,66.206543 89.1147461,66.206543 C89.8637733,66.206543 90.6043258,66.049969 91.3364258,65.7368164 L91.3364258,66.6762695 C90.9640281,66.8370776 90.6117367,66.9523922 90.279541,67.0222168 C89.9473453,67.0920414 89.5463891,67.1269531 89.0766602,67.1269531 L89.0766602,67.1269531 Z M88.7910156,60.7983398 C88.2324191,60.7983398 87.7870297,60.9803042 87.454834,61.3442383 C87.1226383,61.7081724 86.9269209,62.2117481 86.8676758,62.8549805 L90.5048828,62.8549805 C90.5048828,62.1905891 90.3567723,61.6817238 90.0605469,61.3283691 C89.7643214,60.9750145 89.3411486,60.7983398 88.7910156,60.7983398 L88.7910156,60.7983398 Z M99.125,60.0429688 L99.125,60.7094727 L97.8364258,60.8618164 C97.954916,61.0099291 98.0607092,61.2035307 98.1538086,61.442627 C98.246908,61.6817232 98.293457,61.9514959 98.293457,62.2519531 C98.293457,62.9332716 98.060712,63.4770487 97.5952148,63.8833008 C97.1297177,64.2895528 96.4907267,64.4926758 95.6782227,64.4926758 C95.4708648,64.4926758 95.2762053,64.4757489 95.0942383,64.4418945 C94.6456683,64.6788749 94.4213867,64.9772117 94.4213867,65.3369141 C94.4213867,65.5273447 94.4996737,65.6680497 94.65625,65.7590332 C94.8128263,65.8500167 95.0815411,65.8955078 95.4624023,65.8955078 L96.6938477,65.8955078 C97.4471066,65.8955078 98.0257955,66.0541976 98.4299316,66.371582 C98.8340678,66.6889664 99.0361328,67.1502248 99.0361328,67.7553711 C99.0361328,68.5255572 98.7272166,69.1127096 98.109375,69.5168457 C97.4915334,69.9209818 96.5901752,70.1230469 95.4052734,70.1230469 C94.4954382,70.1230469 93.7940292,69.9537777 93.3010254,69.6152344 C92.8080216,69.276691 92.5615234,68.7985057 92.5615234,68.1806641 C92.5615234,67.7574849 92.6969387,67.3914403 92.9677734,67.0825195 C93.2386081,66.7735987 93.6194637,66.5641282 94.1103516,66.4541016 C93.9326163,66.3736975 93.7834479,66.2488615 93.6628418,66.0795898 C93.5422357,65.9103182 93.4819336,65.7135428 93.4819336,65.4892578 C93.4819336,65.2353503 93.5496413,65.0131845 93.6850586,64.8227539 C93.8204759,64.6323233 94.0341782,64.4482431 94.3261719,64.2705078 C93.9664696,64.1223951 93.6734224,63.8706072 93.4470215,63.5151367 C93.2206206,63.1596662 93.1074219,62.7534203 93.1074219,62.2963867 C93.1074219,61.5346642 93.3359352,60.9475118 93.7929688,60.5349121 C94.2500023,60.1223124 94.8974567,59.9160156 95.7353516,59.9160156 C96.0992857,59.9160156 96.4272446,59.9583329 96.7192383,60.0429688 L99.125,60.0429688 Z M93.5771484,68.1679688 C93.5771484,68.5445982 93.7358383,68.8302399 94.0532227,69.0249023 C94.3706071,69.2195648 94.8255179,69.3168945 95.4179688,69.3168945 C96.3024133,69.3168945 96.9572733,69.184653 97.3825684,68.920166 C97.8078635,68.655679 98.0205078,68.29704 98.0205078,67.8442383 C98.0205078,67.4676088 97.9041353,67.2062996 97.6713867,67.0603027 C97.4386382,66.9143059 97.0006543,66.8413086 96.3574219,66.8413086 L95.0942383,66.8413086 C94.6160458,66.8413086 94.2436537,66.9555653 93.9770508,67.184082 C93.7104479,67.4125988 93.5771484,67.7405578 93.5771484,68.1679688 L93.5771484,68.1679688 Z M94.1484375,62.2709961 C94.1484375,62.7576522 94.2859687,63.1258126 94.5610352,63.3754883 C94.8361016,63.625164 95.2190731,63.75 95.7099609,63.75 C96.7382864,63.75 97.2524414,63.250656 97.2524414,62.2519531 C97.2524414,61.2067005 96.7319388,60.684082 95.690918,60.684082 C95.1957983,60.684082 94.8149427,60.8173815 94.5483398,61.0839844 C94.2817369,61.3505873 94.1484375,61.7462539 94.1484375,62.2709961 L94.1484375,62.2709961 Z M106.558105,63.5151367 C106.558105,64.649257 106.272464,65.5347462 105.701172,66.1716309 C105.12988,66.8085156 104.340663,67.1269531 103.333496,67.1269531 C102.711423,67.1269531 102.159182,66.9809585 101.676758,66.6889648 C101.194334,66.3969712 100.821941,65.9780301 100.55957,65.4321289 C100.297199,64.8862277 100.166016,64.2472367 100.166016,63.5151367 C100.166016,62.3810165 100.449541,61.4976431 101.016602,60.8649902 C101.583662,60.2323373 102.370763,59.9160156 103.37793,59.9160156 C104.351242,59.9160156 105.12459,60.2397429 105.697998,60.887207 C106.271406,61.5346712 106.558105,62.410639 106.558105,63.5151367 L106.558105,63.5151367 Z M101.257812,63.5151367 C101.257812,64.403813 101.435545,65.0808896 101.791016,65.5463867 C102.146486,66.0118838 102.669105,66.2446289 103.358887,66.2446289 C104.048669,66.2446289 104.572345,66.0129418 104.929932,65.5495605 C105.287518,65.0861793 105.466309,64.4080448 105.466309,63.5151367 C105.466309,62.6306922 105.287518,61.9589053 104.929932,61.4997559 C104.572345,61.0406064 104.044437,60.8110352 103.346191,60.8110352 C102.656409,60.8110352 102.135907,61.0374326 101.784668,61.4902344 C101.433429,61.9430361 101.257812,62.6179968 101.257812,63.5151367 L101.257812,63.5151367 Z M111.579102,59.9160156 C111.888022,59.9160156 112.165201,59.941406 112.410645,59.9921875 L112.264648,60.9697266 C111.976887,60.9062497 111.722983,60.8745117 111.50293,60.8745117 C110.940101,60.8745117 110.458742,61.1030251 110.058838,61.5600586 C109.658934,62.0170921 109.458984,62.5862596 109.458984,63.2675781 L109.458984,67 L108.405273,67 L108.405273,60.0429688 L109.274902,60.0429688 L109.395508,61.331543 L109.446289,61.331543 C109.704428,60.8787412 110.01546,60.5296236 110.379395,60.2841797 C110.743329,60.0387358 111.143227,59.9160156 111.579102,59.9160156 L111.579102,59.9160156 Z M112.607422,60.0429688 L113.737305,60.0429688 L115.260742,64.0102539 C115.595054,64.9158574 115.802408,65.5696594 115.882812,65.9716797 L115.933594,65.9716797 C115.988607,65.7558583 116.103922,65.38664 116.279541,64.8640137 C116.45516,64.3413874 117.029618,62.7343885 118.00293,60.0429688 L119.132812,60.0429688 L116.143066,67.9648438 C115.846841,68.7477253 115.500897,69.3031396 115.105225,69.6311035 C114.709552,69.9590674 114.223961,70.1230469 113.648438,70.1230469 C113.326821,70.1230469 113.009442,70.0870772 112.696289,70.0151367 L112.696289,69.1708984 C112.929038,69.2216799 113.189289,69.2470703 113.477051,69.2470703 C114.200687,69.2470703 114.716958,68.8408244 115.025879,68.0283203 L115.413086,67.0380859 L112.607422,60.0429688 Z M129.257324,67 L123.157227,67 L123.157227,66.0922852 L125.601074,63.6357422 C126.34587,62.8824832 126.83675,62.3450537 127.07373,62.0234375 C127.310711,61.7018213 127.488443,61.3886734 127.606934,61.0839844 C127.725424,60.7792954 127.784668,60.4513364 127.784668,60.1000977 C127.784668,59.604978 127.634442,59.2124852 127.333984,58.9226074 C127.033527,58.6327297 126.616702,58.487793 126.083496,58.487793 C125.698403,58.487793 125.333416,58.5512689 124.988525,58.6782227 C124.643634,58.8051764 124.259605,59.0358056 123.836426,59.3701172 L123.277832,58.652832 C124.132654,57.941891 125.063634,57.5864258 126.070801,57.5864258 C126.94255,57.5864258 127.625974,57.8096495 128.121094,58.2561035 C128.616213,58.7025576 128.86377,59.3024051 128.86377,60.0556641 C128.86377,60.6438831 128.698732,61.2257458 128.368652,61.8012695 C128.038573,62.3767932 127.42074,63.1046505 126.515137,63.9848633 L124.483887,65.9716797 L124.483887,66.0224609 L129.257324,66.0224609 L129.257324,67 Z" id="Category-2" fill="#4A4A4A"></path>
                <path d="M70.2495117,88.5512695 C69.2296498,88.5512695 68.4245635,88.8908657 67.8342285,89.5700684 C67.2438935,90.249271 66.9487305,91.1791933 66.9487305,92.3598633 C66.9487305,93.5743876 67.2333142,94.5127734 67.8024902,95.1750488 C68.3716663,95.8373243 69.1831002,96.168457 70.2368164,96.168457 C70.8842806,96.168457 71.6227172,96.0520845 72.4521484,95.8193359 L72.4521484,96.7651367 C71.8089161,97.0063489 71.015467,97.1269531 70.0717773,97.1269531 C68.7049085,97.1269531 67.6501502,96.7122437 66.9074707,95.8828125 C66.1647912,95.0533813 65.793457,93.8748449 65.793457,92.347168 C65.793457,91.390783 65.9722476,90.5529007 66.329834,89.8334961 C66.6874204,89.1140915 67.2036913,88.559735 67.8786621,88.1704102 C68.5536329,87.7810853 69.34814,87.5864258 70.262207,87.5864258 C71.2355192,87.5864258 72.0860966,87.7641584 72.8139648,88.1196289 L72.3569336,89.0463867 C71.6544561,88.7163069 70.9519892,88.5512695 70.2495117,88.5512695 L70.2495117,88.5512695 Z M78.5966797,97 L78.387207,96.0097656 L78.3364258,96.0097656 C77.9894188,96.4456402 77.643475,96.7408033 77.298584,96.8952637 C76.9536929,97.0497241 76.5231146,97.1269531 76.0068359,97.1269531 C75.3170538,97.1269531 74.7764505,96.9492205 74.3850098,96.59375 C73.993569,96.2382795 73.7978516,95.7325879 73.7978516,95.0766602 C73.7978516,93.6717052 74.9213755,92.9353845 77.168457,92.8676758 L78.3491211,92.8295898 L78.3491211,92.3979492 C78.3491211,91.8520481 78.2316906,91.4489759 77.9968262,91.1887207 C77.7619617,90.9284655 77.3863958,90.7983398 76.8701172,90.7983398 C76.2903617,90.7983398 75.6344438,90.9760724 74.9023438,91.331543 L74.5786133,90.5253906 C74.9213884,90.3391918 75.2969543,90.1931971 75.7053223,90.0874023 C76.1136902,89.9816075 76.5231099,89.9287109 76.9335938,89.9287109 C77.763025,89.9287109 78.3776835,90.1127911 78.7775879,90.480957 C79.1774922,90.8491229 79.3774414,91.4394491 79.3774414,92.2519531 L79.3774414,97 L78.5966797,97 Z M76.2163086,96.2573242 C76.8722364,96.2573242 77.3874493,96.0774758 77.7619629,95.7177734 C78.1364765,95.3580711 78.3237305,94.8544954 78.3237305,94.2070312 L78.3237305,93.5786133 L77.2700195,93.6230469 C76.4321247,93.6526694 75.8280455,93.7827951 75.4577637,94.0134277 C75.0874819,94.2440604 74.9023438,94.6026994 74.9023438,95.0893555 C74.9023438,95.4702167 75.0176584,95.7600902 75.248291,95.9589844 C75.4789237,96.1578786 75.801593,96.2573242 76.2163086,96.2573242 L76.2163086,96.2573242 Z M83.7954102,96.2573242 C83.981609,96.2573242 84.1614575,96.2435711 84.3349609,96.2160645 C84.5084644,96.1885578 84.6459956,96.1599936 84.7475586,96.1303711 L84.7475586,96.9365234 C84.6333002,96.9915367 84.465089,97.0370278 84.2429199,97.072998 C84.0207508,97.1089683 83.8208017,97.1269531 83.6430664,97.1269531 C82.2973566,97.1269531 81.6245117,96.4181386 81.6245117,95.0004883 L81.6245117,90.8618164 L80.6279297,90.8618164 L80.6279297,90.3540039 L81.6245117,89.9160156 L82.0688477,88.4306641 L82.6782227,88.4306641 L82.6782227,90.0429688 L84.6967773,90.0429688 L84.6967773,90.8618164 L82.6782227,90.8618164 L82.6782227,94.9560547 C82.6782227,95.3750021 82.7776683,95.6966135 82.9765625,95.9208984 C83.1754567,96.1451834 83.4484032,96.2573242 83.7954102,96.2573242 L83.7954102,96.2573242 Z M89.0766602,97.1269531 C88.0483347,97.1269531 87.2369008,96.8138052 86.642334,96.1875 C86.0477672,95.5611948 85.7504883,94.6915746 85.7504883,93.5786133 C85.7504883,92.4571884 86.0266086,91.5664096 86.5788574,90.90625 C87.1311063,90.2460904 87.8727167,89.9160156 88.8037109,89.9160156 C89.6754601,89.9160156 90.3652318,90.2027152 90.8730469,90.776123 C91.3808619,91.3495309 91.6347656,92.1059523 91.6347656,93.0454102 L91.6347656,93.7119141 L86.8422852,93.7119141 C86.8634441,94.5286499 87.0697409,95.1485981 87.4611816,95.5717773 C87.8526224,95.9949565 88.403805,96.206543 89.1147461,96.206543 C89.8637733,96.206543 90.6043258,96.049969 91.3364258,95.7368164 L91.3364258,96.6762695 C90.9640281,96.8370776 90.6117367,96.9523922 90.279541,97.0222168 C89.9473453,97.0920414 89.5463891,97.1269531 89.0766602,97.1269531 L89.0766602,97.1269531 Z M88.7910156,90.7983398 C88.2324191,90.7983398 87.7870297,90.9803042 87.454834,91.3442383 C87.1226383,91.7081724 86.9269209,92.2117481 86.8676758,92.8549805 L90.5048828,92.8549805 C90.5048828,92.1905891 90.3567723,91.6817238 90.0605469,91.3283691 C89.7643214,90.9750145 89.3411486,90.7983398 88.7910156,90.7983398 L88.7910156,90.7983398 Z M99.125,90.0429688 L99.125,90.7094727 L97.8364258,90.8618164 C97.954916,91.0099291 98.0607092,91.2035307 98.1538086,91.442627 C98.246908,91.6817232 98.293457,91.9514959 98.293457,92.2519531 C98.293457,92.9332716 98.060712,93.4770487 97.5952148,93.8833008 C97.1297177,94.2895528 96.4907267,94.4926758 95.6782227,94.4926758 C95.4708648,94.4926758 95.2762053,94.4757489 95.0942383,94.4418945 C94.6456683,94.6788749 94.4213867,94.9772117 94.4213867,95.3369141 C94.4213867,95.5273447 94.4996737,95.6680497 94.65625,95.7590332 C94.8128263,95.8500167 95.0815411,95.8955078 95.4624023,95.8955078 L96.6938477,95.8955078 C97.4471066,95.8955078 98.0257955,96.0541976 98.4299316,96.371582 C98.8340678,96.6889664 99.0361328,97.1502248 99.0361328,97.7553711 C99.0361328,98.5255572 98.7272166,99.1127096 98.109375,99.5168457 C97.4915334,99.9209818 96.5901752,100.123047 95.4052734,100.123047 C94.4954382,100.123047 93.7940292,99.9537777 93.3010254,99.6152344 C92.8080216,99.276691 92.5615234,98.7985057 92.5615234,98.1806641 C92.5615234,97.7574849 92.6969387,97.3914403 92.9677734,97.0825195 C93.2386081,96.7735987 93.6194637,96.5641282 94.1103516,96.4541016 C93.9326163,96.3736975 93.7834479,96.2488615 93.6628418,96.0795898 C93.5422357,95.9103182 93.4819336,95.7135428 93.4819336,95.4892578 C93.4819336,95.2353503 93.5496413,95.0131845 93.6850586,94.8227539 C93.8204759,94.6323233 94.0341782,94.4482431 94.3261719,94.2705078 C93.9664696,94.1223951 93.6734224,93.8706072 93.4470215,93.5151367 C93.2206206,93.1596662 93.1074219,92.7534203 93.1074219,92.2963867 C93.1074219,91.5346642 93.3359352,90.9475118 93.7929688,90.5349121 C94.2500023,90.1223124 94.8974567,89.9160156 95.7353516,89.9160156 C96.0992857,89.9160156 96.4272446,89.9583329 96.7192383,90.0429688 L99.125,90.0429688 Z M93.5771484,98.1679688 C93.5771484,98.5445982 93.7358383,98.8302399 94.0532227,99.0249023 C94.3706071,99.2195648 94.8255179,99.3168945 95.4179688,99.3168945 C96.3024133,99.3168945 96.9572733,99.184653 97.3825684,98.920166 C97.8078635,98.655679 98.0205078,98.29704 98.0205078,97.8442383 C98.0205078,97.4676088 97.9041353,97.2062996 97.6713867,97.0603027 C97.4386382,96.9143059 97.0006543,96.8413086 96.3574219,96.8413086 L95.0942383,96.8413086 C94.6160458,96.8413086 94.2436537,96.9555653 93.9770508,97.184082 C93.7104479,97.4125988 93.5771484,97.7405578 93.5771484,98.1679688 L93.5771484,98.1679688 Z M94.1484375,92.2709961 C94.1484375,92.7576522 94.2859687,93.1258126 94.5610352,93.3754883 C94.8361016,93.625164 95.2190731,93.75 95.7099609,93.75 C96.7382864,93.75 97.2524414,93.250656 97.2524414,92.2519531 C97.2524414,91.2067005 96.7319388,90.684082 95.690918,90.684082 C95.1957983,90.684082 94.8149427,90.8173815 94.5483398,91.0839844 C94.2817369,91.3505873 94.1484375,91.7462539 94.1484375,92.2709961 L94.1484375,92.2709961 Z M106.558105,93.5151367 C106.558105,94.649257 106.272464,95.5347462 105.701172,96.1716309 C105.12988,96.8085156 104.340663,97.1269531 103.333496,97.1269531 C102.711423,97.1269531 102.159182,96.9809585 101.676758,96.6889648 C101.194334,96.3969712 100.821941,95.9780301 100.55957,95.4321289 C100.297199,94.8862277 100.166016,94.2472367 100.166016,93.5151367 C100.166016,92.3810165 100.449541,91.4976431 101.016602,90.8649902 C101.583662,90.2323373 102.370763,89.9160156 103.37793,89.9160156 C104.351242,89.9160156 105.12459,90.2397429 105.697998,90.887207 C106.271406,91.5346712 106.558105,92.410639 106.558105,93.5151367 L106.558105,93.5151367 Z M101.257812,93.5151367 C101.257812,94.403813 101.435545,95.0808896 101.791016,95.5463867 C102.146486,96.0118838 102.669105,96.2446289 103.358887,96.2446289 C104.048669,96.2446289 104.572345,96.0129418 104.929932,95.5495605 C105.287518,95.0861793 105.466309,94.4080448 105.466309,93.5151367 C105.466309,92.6306922 105.287518,91.9589053 104.929932,91.4997559 C104.572345,91.0406064 104.044437,90.8110352 103.346191,90.8110352 C102.656409,90.8110352 102.135907,91.0374326 101.784668,91.4902344 C101.433429,91.9430361 101.257812,92.6179968 101.257812,93.5151367 L101.257812,93.5151367 Z M111.579102,89.9160156 C111.888022,89.9160156 112.165201,89.941406 112.410645,89.9921875 L112.264648,90.9697266 C111.976887,90.9062497 111.722983,90.8745117 111.50293,90.8745117 C110.940101,90.8745117 110.458742,91.1030251 110.058838,91.5600586 C109.658934,92.0170921 109.458984,92.5862596 109.458984,93.2675781 L109.458984,97 L108.405273,97 L108.405273,90.0429688 L109.274902,90.0429688 L109.395508,91.331543 L109.446289,91.331543 C109.704428,90.8787412 110.01546,90.5296236 110.379395,90.2841797 C110.743329,90.0387358 111.143227,89.9160156 111.579102,89.9160156 L111.579102,89.9160156 Z M112.607422,90.0429688 L113.737305,90.0429688 L115.260742,94.0102539 C115.595054,94.9158574 115.802408,95.5696594 115.882812,95.9716797 L115.933594,95.9716797 C115.988607,95.7558583 116.103922,95.38664 116.279541,94.8640137 C116.45516,94.3413874 117.029618,92.7343885 118.00293,90.0429688 L119.132812,90.0429688 L116.143066,97.9648438 C115.846841,98.7477253 115.500897,99.3031396 115.105225,99.6311035 C114.709552,99.9590674 114.223961,100.123047 113.648438,100.123047 C113.326821,100.123047 113.009442,100.087077 112.696289,100.015137 L112.696289,99.1708984 C112.929038,99.2216799 113.189289,99.2470703 113.477051,99.2470703 C114.200687,99.2470703 114.716958,98.8408244 115.025879,98.0283203 L115.413086,97.0380859 L112.607422,90.0429688 Z M128.908203,89.9033203 C128.908203,90.4957712 128.742108,90.9803041 128.409912,91.3569336 C128.077716,91.7335631 127.606937,91.9853509 126.997559,92.1123047 L126.997559,92.1630859 C127.742354,92.2561854 128.294595,92.4931622 128.654297,92.8740234 C129.013999,93.2548847 129.193848,93.7542287 129.193848,94.3720703 C129.193848,95.2565148 128.887047,95.9367652 128.273438,96.4128418 C127.659828,96.8889184 126.788092,97.1269531 125.658203,97.1269531 C125.167315,97.1269531 124.717694,97.0899255 124.309326,97.0158691 C123.900958,96.9418128 123.504234,96.8116871 123.119141,96.6254883 L123.119141,95.6225586 C123.521161,95.8214528 123.949623,95.9727371 124.404541,96.076416 C124.859459,96.1800949 125.290037,96.2319336 125.696289,96.2319336 C127.300138,96.2319336 128.102051,95.6035219 128.102051,94.3466797 C128.102051,93.221023 127.21762,92.6582031 125.44873,92.6582031 L124.534668,92.6582031 L124.534668,91.7504883 L125.461426,91.7504883 C126.185062,91.7504883 126.758461,91.5907405 127.181641,91.2712402 C127.60482,90.9517399 127.816406,90.5084664 127.816406,89.9414062 C127.816406,89.4886045 127.66089,89.1331393 127.349854,88.875 C127.038817,88.6168607 126.616702,88.487793 126.083496,88.487793 C125.677244,88.487793 125.294273,88.5428054 124.93457,88.652832 C124.574868,88.7628586 124.16439,88.9659816 123.703125,89.262207 L123.169922,88.5512695 C123.550783,88.2508123 123.989825,88.0148934 124.487061,87.8435059 C124.984296,87.6721183 125.507973,87.5864258 126.058105,87.5864258 C126.959477,87.5864258 127.659828,87.7927225 128.15918,88.2053223 C128.658531,88.617922 128.908203,89.1839157 128.908203,89.9033203 L128.908203,89.9033203 Z" id="Category-3" fill="#4A4A4A"></path>
                <path d="M112.275879,159 L112.275879,149.719727 L113.35498,149.719727 L113.35498,159 L112.275879,159 Z M117.98877,158.257324 C118.174968,158.257324 118.354817,158.243571 118.52832,158.216064 C118.701824,158.188558 118.839355,158.159994 118.940918,158.130371 L118.940918,158.936523 C118.82666,158.991537 118.658448,159.037028 118.436279,159.072998 C118.21411,159.108968 118.014161,159.126953 117.836426,159.126953 C116.490716,159.126953 115.817871,158.418139 115.817871,157.000488 L115.817871,152.861816 L114.821289,152.861816 L114.821289,152.354004 L115.817871,151.916016 L116.262207,150.430664 L116.871582,150.430664 L116.871582,152.042969 L118.890137,152.042969 L118.890137,152.861816 L116.871582,152.861816 L116.871582,156.956055 C116.871582,157.375002 116.971028,157.696613 117.169922,157.920898 C117.368816,158.145183 117.641763,158.257324 117.98877,158.257324 L117.98877,158.257324 Z M123.27002,159.126953 C122.241694,159.126953 121.43026,158.813805 120.835693,158.1875 C120.241127,157.561195 119.943848,156.691575 119.943848,155.578613 C119.943848,154.457188 120.219968,153.56641 120.772217,152.90625 C121.324466,152.24609 122.066076,151.916016 122.99707,151.916016 C123.868819,151.916016 124.558591,152.202715 125.066406,152.776123 C125.574221,153.349531 125.828125,154.105952 125.828125,155.04541 L125.828125,155.711914 L121.035645,155.711914 C121.056803,156.52865 121.2631,157.148598 121.654541,157.571777 C122.045982,157.994957 122.597164,158.206543 123.308105,158.206543 C124.057133,158.206543 124.797685,158.049969 125.529785,157.736816 L125.529785,158.67627 C125.157387,158.837078 124.805096,158.952392 124.4729,159.022217 C124.140705,159.092041 123.739748,159.126953 123.27002,159.126953 L123.27002,159.126953 Z M122.984375,152.79834 C122.425778,152.79834 121.980389,152.980304 121.648193,153.344238 C121.315998,153.708172 121.12028,154.211748 121.061035,154.85498 L124.698242,154.85498 C124.698242,154.190589 124.550132,153.681724 124.253906,153.328369 C123.957681,152.975015 123.534508,152.79834 122.984375,152.79834 L122.984375,152.79834 Z M136.492188,159 L136.492188,154.474121 C136.492188,153.919756 136.373699,153.503989 136.136719,153.226807 C135.899738,152.949624 135.531578,152.811035 135.032227,152.811035 C134.376299,152.811035 133.891766,152.999347 133.578613,153.375977 C133.265461,153.752606 133.108887,154.332353 133.108887,155.115234 L133.108887,159 L132.055176,159 L132.055176,154.474121 C132.055176,153.919756 131.936687,153.503989 131.699707,153.226807 C131.462727,152.949624 131.09245,152.811035 130.588867,152.811035 C129.928708,152.811035 129.445233,153.008868 129.138428,153.404541 C128.831623,153.800214 128.678223,154.448726 128.678223,155.350098 L128.678223,159 L127.624512,159 L127.624512,152.042969 L128.481445,152.042969 L128.652832,152.995117 L128.703613,152.995117 C128.902508,152.656574 129.18286,152.392091 129.544678,152.20166 C129.906496,152.01123 130.311684,151.916016 130.760254,151.916016 C131.847824,151.916016 132.558755,152.309566 132.893066,153.09668 L132.943848,153.09668 C133.151205,152.732746 133.451658,152.444988 133.845215,152.233398 C134.238771,152.021809 134.687335,151.916016 135.190918,151.916016 C135.978031,151.916016 136.567299,152.118081 136.95874,152.522217 C137.350181,152.926353 137.545898,153.572749 137.545898,154.461426 L137.545898,159 L136.492188,159 Z M146.515137,159 L145.486816,159 L145.486816,152.385742 C145.486816,151.835609 145.503743,151.315107 145.537598,150.824219 C145.44873,150.913086 145.349284,151.006184 145.239258,151.103516 C145.129231,151.200847 144.625656,151.61344 143.728516,152.341309 L143.169922,151.617676 L145.626465,149.719727 L146.515137,149.719727 L146.515137,159 Z" id="Item-1" fill="#4A4A4A"></path>
                <path d="M98.1071429,178.392857 C98.2738104,178.559525 98.4166661,178.785713 98.5357143,179.071429 C98.6547625,179.357144 98.7142857,179.619046 98.7142857,179.857143 L98.7142857,190.142857 C98.7142857,190.380954 98.6309532,190.583333 98.4642857,190.75 C98.2976182,190.916667 98.0952393,191 97.8571429,191 L85.8571429,191 C85.6190464,191 85.4166675,190.916667 85.25,190.75 C85.0833325,190.583333 85,190.380954 85,190.142857 L85,175.857143 C85,175.619046 85.0833325,175.416667 85.25,175.25 C85.4166675,175.083333 85.6190464,175 85.8571429,175 L93.8571429,175 C94.0952393,175 94.3571414,175.059523 94.6428571,175.178571 C94.9285729,175.29762 95.1547611,175.440475 95.3214286,175.607143 L98.1071429,178.392857 Z M94.1428571,176.214286 L94.1428571,179.571429 L97.5,179.571429 C97.4404759,179.398809 97.3750004,179.276786 97.3035714,179.205357 L94.5089286,176.410714 C94.4374996,176.339285 94.3154771,176.27381 94.1428571,176.214286 L94.1428571,176.214286 Z M97.5714286,189.857143 L97.5714286,180.714286 L93.8571429,180.714286 C93.6190464,180.714286 93.4166675,180.630953 93.25,180.464286 C93.0833325,180.297618 93,180.095239 93,179.857143 L93,176.142857 L86.1428571,176.142857 L86.1428571,189.857143 L97.5714286,189.857143 Z" id="" fill="#4A4A4A"></path>
                <path d="M112.275879,189 L112.275879,179.719727 L113.35498,179.719727 L113.35498,189 L112.275879,189 Z M117.98877,188.257324 C118.174968,188.257324 118.354817,188.243571 118.52832,188.216064 C118.701824,188.188558 118.839355,188.159994 118.940918,188.130371 L118.940918,188.936523 C118.82666,188.991537 118.658448,189.037028 118.436279,189.072998 C118.21411,189.108968 118.014161,189.126953 117.836426,189.126953 C116.490716,189.126953 115.817871,188.418139 115.817871,187.000488 L115.817871,182.861816 L114.821289,182.861816 L114.821289,182.354004 L115.817871,181.916016 L116.262207,180.430664 L116.871582,180.430664 L116.871582,182.042969 L118.890137,182.042969 L118.890137,182.861816 L116.871582,182.861816 L116.871582,186.956055 C116.871582,187.375002 116.971028,187.696613 117.169922,187.920898 C117.368816,188.145183 117.641763,188.257324 117.98877,188.257324 L117.98877,188.257324 Z M123.27002,189.126953 C122.241694,189.126953 121.43026,188.813805 120.835693,188.1875 C120.241127,187.561195 119.943848,186.691575 119.943848,185.578613 C119.943848,184.457188 120.219968,183.56641 120.772217,182.90625 C121.324466,182.24609 122.066076,181.916016 122.99707,181.916016 C123.868819,181.916016 124.558591,182.202715 125.066406,182.776123 C125.574221,183.349531 125.828125,184.105952 125.828125,185.04541 L125.828125,185.711914 L121.035645,185.711914 C121.056803,186.52865 121.2631,187.148598 121.654541,187.571777 C122.045982,187.994957 122.597164,188.206543 123.308105,188.206543 C124.057133,188.206543 124.797685,188.049969 125.529785,187.736816 L125.529785,188.67627 C125.157387,188.837078 124.805096,188.952392 124.4729,189.022217 C124.140705,189.092041 123.739748,189.126953 123.27002,189.126953 L123.27002,189.126953 Z M122.984375,182.79834 C122.425778,182.79834 121.980389,182.980304 121.648193,183.344238 C121.315998,183.708172 121.12028,184.211748 121.061035,184.85498 L124.698242,184.85498 C124.698242,184.190589 124.550132,183.681724 124.253906,183.328369 C123.957681,182.975015 123.534508,182.79834 122.984375,182.79834 L122.984375,182.79834 Z M136.492188,189 L136.492188,184.474121 C136.492188,183.919756 136.373699,183.503989 136.136719,183.226807 C135.899738,182.949624 135.531578,182.811035 135.032227,182.811035 C134.376299,182.811035 133.891766,182.999347 133.578613,183.375977 C133.265461,183.752606 133.108887,184.332353 133.108887,185.115234 L133.108887,189 L132.055176,189 L132.055176,184.474121 C132.055176,183.919756 131.936687,183.503989 131.699707,183.226807 C131.462727,182.949624 131.09245,182.811035 130.588867,182.811035 C129.928708,182.811035 129.445233,183.008868 129.138428,183.404541 C128.831623,183.800214 128.678223,184.448726 128.678223,185.350098 L128.678223,189 L127.624512,189 L127.624512,182.042969 L128.481445,182.042969 L128.652832,182.995117 L128.703613,182.995117 C128.902508,182.656574 129.18286,182.392091 129.544678,182.20166 C129.906496,182.01123 130.311684,181.916016 130.760254,181.916016 C131.847824,181.916016 132.558755,182.309566 132.893066,183.09668 L132.943848,183.09668 C133.151205,182.732746 133.451658,182.444988 133.845215,182.233398 C134.238771,182.021809 134.687335,181.916016 135.190918,181.916016 C135.978031,181.916016 136.567299,182.118081 136.95874,182.522217 C137.350181,182.926353 137.545898,183.572749 137.545898,184.461426 L137.545898,189 L136.492188,189 Z M148.711426,189 L142.611328,189 L142.611328,188.092285 L145.055176,185.635742 C145.799971,184.882483 146.290852,184.345054 146.527832,184.023438 C146.764812,183.701821 146.942545,183.388673 147.061035,183.083984 C147.179525,182.779295 147.23877,182.451336 147.23877,182.100098 C147.23877,181.604978 147.088543,181.212485 146.788086,180.922607 C146.487629,180.63273 146.070803,180.487793 145.537598,180.487793 C145.152505,180.487793 144.787518,180.551269 144.442627,180.678223 C144.097736,180.805176 143.713707,181.035806 143.290527,181.370117 L142.731934,180.652832 C143.586756,179.941891 144.517736,179.586426 145.524902,179.586426 C146.396651,179.586426 147.080076,179.809649 147.575195,180.256104 C148.070315,180.702558 148.317871,181.302405 148.317871,182.055664 C148.317871,182.643883 148.152834,183.225746 147.822754,183.80127 C147.492674,184.376793 146.874842,185.104651 145.969238,185.984863 L143.937988,187.97168 L143.937988,188.022461 L148.711426,188.022461 L148.711426,189 Z" id="Item-2" fill="#4A4A4A"></path>
                <path d="M98.1071429,208.392857 C98.2738104,208.559525 98.4166661,208.785713 98.5357143,209.071429 C98.6547625,209.357144 98.7142857,209.619046 98.7142857,209.857143 L98.7142857,220.142857 C98.7142857,220.380954 98.6309532,220.583333 98.4642857,220.75 C98.2976182,220.916667 98.0952393,221 97.8571429,221 L85.8571429,221 C85.6190464,221 85.4166675,220.916667 85.25,220.75 C85.0833325,220.583333 85,220.380954 85,220.142857 L85,205.857143 C85,205.619046 85.0833325,205.416667 85.25,205.25 C85.4166675,205.083333 85.6190464,205 85.8571429,205 L93.8571429,205 C94.0952393,205 94.3571414,205.059523 94.6428571,205.178571 C94.9285729,205.29762 95.1547611,205.440475 95.3214286,205.607143 L98.1071429,208.392857 Z M94.1428571,206.214286 L94.1428571,209.571429 L97.5,209.571429 C97.4404759,209.398809 97.3750004,209.276786 97.3035714,209.205357 L94.5089286,206.410714 C94.4374996,206.339285 94.3154771,206.27381 94.1428571,206.214286 L94.1428571,206.214286 Z M97.5714286,219.857143 L97.5714286,210.714286 L93.8571429,210.714286 C93.6190464,210.714286 93.4166675,210.630953 93.25,210.464286 C93.0833325,210.297618 93,210.095239 93,209.857143 L93,206.142857 L86.1428571,206.142857 L86.1428571,219.857143 L97.5714286,219.857143 Z" id="" fill="#4A4A4A"></path>
                <path d="M112.275879,219 L112.275879,209.719727 L113.35498,209.719727 L113.35498,219 L112.275879,219 Z M117.98877,218.257324 C118.174968,218.257324 118.354817,218.243571 118.52832,218.216064 C118.701824,218.188558 118.839355,218.159994 118.940918,218.130371 L118.940918,218.936523 C118.82666,218.991537 118.658448,219.037028 118.436279,219.072998 C118.21411,219.108968 118.014161,219.126953 117.836426,219.126953 C116.490716,219.126953 115.817871,218.418139 115.817871,217.000488 L115.817871,212.861816 L114.821289,212.861816 L114.821289,212.354004 L115.817871,211.916016 L116.262207,210.430664 L116.871582,210.430664 L116.871582,212.042969 L118.890137,212.042969 L118.890137,212.861816 L116.871582,212.861816 L116.871582,216.956055 C116.871582,217.375002 116.971028,217.696613 117.169922,217.920898 C117.368816,218.145183 117.641763,218.257324 117.98877,218.257324 L117.98877,218.257324 Z M123.27002,219.126953 C122.241694,219.126953 121.43026,218.813805 120.835693,218.1875 C120.241127,217.561195 119.943848,216.691575 119.943848,215.578613 C119.943848,214.457188 120.219968,213.56641 120.772217,212.90625 C121.324466,212.24609 122.066076,211.916016 122.99707,211.916016 C123.868819,211.916016 124.558591,212.202715 125.066406,212.776123 C125.574221,213.349531 125.828125,214.105952 125.828125,215.04541 L125.828125,215.711914 L121.035645,215.711914 C121.056803,216.52865 121.2631,217.148598 121.654541,217.571777 C122.045982,217.994957 122.597164,218.206543 123.308105,218.206543 C124.057133,218.206543 124.797685,218.049969 125.529785,217.736816 L125.529785,218.67627 C125.157387,218.837078 124.805096,218.952392 124.4729,219.022217 C124.140705,219.092041 123.739748,219.126953 123.27002,219.126953 L123.27002,219.126953 Z M122.984375,212.79834 C122.425778,212.79834 121.980389,212.980304 121.648193,213.344238 C121.315998,213.708172 121.12028,214.211748 121.061035,214.85498 L124.698242,214.85498 C124.698242,214.190589 124.550132,213.681724 124.253906,213.328369 C123.957681,212.975015 123.534508,212.79834 122.984375,212.79834 L122.984375,212.79834 Z M136.492188,219 L136.492188,214.474121 C136.492188,213.919756 136.373699,213.503989 136.136719,213.226807 C135.899738,212.949624 135.531578,212.811035 135.032227,212.811035 C134.376299,212.811035 133.891766,212.999347 133.578613,213.375977 C133.265461,213.752606 133.108887,214.332353 133.108887,215.115234 L133.108887,219 L132.055176,219 L132.055176,214.474121 C132.055176,213.919756 131.936687,213.503989 131.699707,213.226807 C131.462727,212.949624 131.09245,212.811035 130.588867,212.811035 C129.928708,212.811035 129.445233,213.008868 129.138428,213.404541 C128.831623,213.800214 128.678223,214.448726 128.678223,215.350098 L128.678223,219 L127.624512,219 L127.624512,212.042969 L128.481445,212.042969 L128.652832,212.995117 L128.703613,212.995117 C128.902508,212.656574 129.18286,212.392091 129.544678,212.20166 C129.906496,212.01123 130.311684,211.916016 130.760254,211.916016 C131.847824,211.916016 132.558755,212.309566 132.893066,213.09668 L132.943848,213.09668 C133.151205,212.732746 133.451658,212.444988 133.845215,212.233398 C134.238771,212.021809 134.687335,211.916016 135.190918,211.916016 C135.978031,211.916016 136.567299,212.118081 136.95874,212.522217 C137.350181,212.926353 137.545898,213.572749 137.545898,214.461426 L137.545898,219 L136.492188,219 Z M148.362305,211.90332 C148.362305,212.495771 148.196209,212.980304 147.864014,213.356934 C147.531818,213.733563 147.061038,213.985351 146.45166,214.112305 L146.45166,214.163086 C147.196456,214.256185 147.748696,214.493162 148.108398,214.874023 C148.468101,215.254885 148.647949,215.754229 148.647949,216.37207 C148.647949,217.256515 148.341149,217.936765 147.727539,218.412842 C147.113929,218.888918 146.242193,219.126953 145.112305,219.126953 C144.621417,219.126953 144.171796,219.089926 143.763428,219.015869 C143.35506,218.941813 142.958335,218.811687 142.573242,218.625488 L142.573242,217.622559 C142.975262,217.821453 143.403725,217.972737 143.858643,218.076416 C144.31356,218.180095 144.744139,218.231934 145.150391,218.231934 C146.75424,218.231934 147.556152,217.603522 147.556152,216.34668 C147.556152,215.221023 146.671721,214.658203 144.902832,214.658203 L143.98877,214.658203 L143.98877,213.750488 L144.915527,213.750488 C145.639164,213.750488 146.212563,213.590741 146.635742,213.27124 C147.058921,212.95174 147.270508,212.508466 147.270508,211.941406 C147.270508,211.488605 147.114992,211.133139 146.803955,210.875 C146.492918,210.616861 146.070803,210.487793 145.537598,210.487793 C145.131346,210.487793 144.748374,210.542805 144.388672,210.652832 C144.02897,210.762859 143.618492,210.965982 143.157227,211.262207 L142.624023,210.55127 C143.004885,210.250812 143.443927,210.014893 143.941162,209.843506 C144.438398,209.672118 144.962074,209.586426 145.512207,209.586426 C146.413579,209.586426 147.11393,209.792723 147.613281,210.205322 C148.112633,210.617922 148.362305,211.183916 148.362305,211.90332 L148.362305,211.90332 Z" id="Item-3" fill="#4A4A4A"></path>
                <path d="M54.2386364,93.125 C54.2386364,92.8598472 54.0378808,92.7272727 53.6363636,92.7272727 L41.2727273,92.7272727 C40.9696955,92.7272727 40.6458351,92.8087113 40.3011364,92.9715909 C39.9564377,93.1344705 39.685607,93.3333322 39.4886364,93.5681818 L36.1477273,97.6931818 C36.011363,97.8750009 35.9431818,98.0265145 35.9431818,98.1477273 C35.9431818,98.4128801 36.1439374,98.5454545 36.5454545,98.5454545 L48.9090909,98.5454545 C49.2121227,98.5454545 49.537877,98.462122 49.8863636,98.2954545 C50.2348502,98.128787 50.5037869,97.9280315 50.6931818,97.6931818 L54.0340909,93.5681818 C54.1704552,93.4015143 54.2386364,93.2537885 54.2386364,93.125 L54.2386364,93.125 Z M41.2727273,91.2727273 L50,91.2727273 L50,89.4545455 C50,89.1515136 49.8939405,88.8939405 49.6818182,88.6818182 C49.4696959,88.4696959 49.2121227,88.3636364 48.9090909,88.3636364 L42.3636364,88.3636364 C42.0606045,88.3636364 41.8030314,88.2575768 41.5909091,88.0454545 C41.3787868,87.8333323 41.2727273,87.5757591 41.2727273,87.2727273 L41.2727273,86.5454545 C41.2727273,86.2424227 41.1666677,85.9848495 40.9545455,85.7727273 C40.7424232,85.560605 40.48485,85.4545455 40.1818182,85.4545455 L36.5454545,85.4545455 C36.2424227,85.4545455 35.9848495,85.560605 35.7727273,85.7727273 C35.560605,85.9848495 35.4545455,86.2424227 35.4545455,86.5454545 L35.4545455,96.2386364 L38.3636364,92.6590909 C38.6969714,92.2575738 39.1363609,91.9261377 39.6818182,91.6647727 C40.2272755,91.4034078 40.7575732,91.2727273 41.2727273,91.2727273 L41.2727273,91.2727273 Z M55.6931818,93.125 C55.6931818,93.5946993 55.5189411,94.0492402 55.1704545,94.4886364 L51.8181818,98.6136364 C51.4924226,99.0151535 51.0530331,99.3465896 50.5,99.6079545 C49.9469669,99.8693195 49.4166692,100 48.9090909,100 L36.5454545,100 C35.8484814,100 35.2500025,99.7500025 34.75,99.25 C34.2499975,98.7499975 34,98.1515186 34,97.4545455 L34,86.5454545 C34,85.8484814 34.2499975,85.2500025 34.75,84.75 C35.2500025,84.2499975 35.8484814,84 36.5454545,84 L40.1818182,84 C40.8787914,84 41.4772702,84.2499975 41.9772727,84.75 C42.4772752,85.2500025 42.7272727,85.8484814 42.7272727,86.5454545 L42.7272727,86.9090909 L48.9090909,86.9090909 C49.6060641,86.9090909 50.204543,87.1590884 50.7045455,87.6590909 C51.204548,88.1590934 51.4545455,88.7575723 51.4545455,89.4545455 L51.4545455,91.2727273 L53.6363636,91.2727273 C54.0454566,91.2727273 54.4204528,91.3655294 54.7613636,91.5511364 C55.1022744,91.7367434 55.3560598,92.0037861 55.5227273,92.3522727 C55.6363642,92.5946982 55.6931818,92.8522714 55.6931818,93.125 L55.6931818,93.125 Z" id="" fill="#4A4A4A"></path>
                <path d="M46.5,122 C46.5,122.135417 46.4505213,122.252604 46.3515625,122.351563 L42.8515625,125.851563 C42.7526037,125.950521 42.6354173,126 42.5,126 C42.3645827,126 42.2473963,125.950521 42.1484375,125.851563 C42.0494787,125.752604 42,125.635417 42,125.5 L42,118.5 C42,118.364583 42.0494787,118.247396 42.1484375,118.148438 C42.2473963,118.049479 42.3645827,118 42.5,118 C42.6354173,118 42.7526037,118.049479 42.8515625,118.148438 L46.3515625,121.648438 C46.4505213,121.747396 46.5,121.864583 46.5,122 L46.5,122 Z" id="" fill="#4A4A4A" transform="translate(44.500000, 122.500000) rotate(-270.000000) translate(-44.500000, -122.500000) "></path>
                <path d="M93.2495117,118.55127 C92.2296498,118.55127 91.4245635,118.890866 90.8342285,119.570068 C90.2438935,120.249271 89.9487305,121.179193 89.9487305,122.359863 C89.9487305,123.574388 90.2333142,124.512773 90.8024902,125.175049 C91.3716663,125.837324 92.1831002,126.168457 93.2368164,126.168457 C93.8842806,126.168457 94.6227172,126.052084 95.4521484,125.819336 L95.4521484,126.765137 C94.8089161,127.006349 94.015467,127.126953 93.0717773,127.126953 C91.7049085,127.126953 90.6501502,126.712244 89.9074707,125.882812 C89.1647912,125.053381 88.793457,123.874845 88.793457,122.347168 C88.793457,121.390783 88.9722476,120.552901 89.329834,119.833496 C89.6874204,119.114091 90.2036913,118.559735 90.8786621,118.17041 C91.5536329,117.781085 92.34814,117.586426 93.262207,117.586426 C94.2355192,117.586426 95.0860966,117.764158 95.8139648,118.119629 L95.3569336,119.046387 C94.6544561,118.716307 93.9519892,118.55127 93.2495117,118.55127 L93.2495117,118.55127 Z M101.59668,127 L101.387207,126.009766 L101.336426,126.009766 C100.989419,126.44564 100.643475,126.740803 100.298584,126.895264 C99.9536929,127.049724 99.5231146,127.126953 99.0068359,127.126953 C98.3170538,127.126953 97.7764505,126.949221 97.3850098,126.59375 C96.993569,126.238279 96.7978516,125.732588 96.7978516,125.07666 C96.7978516,123.671705 97.9213755,122.935384 100.168457,122.867676 L101.349121,122.82959 L101.349121,122.397949 C101.349121,121.852048 101.231691,121.448976 100.996826,121.188721 C100.761962,120.928465 100.386396,120.79834 99.8701172,120.79834 C99.2903617,120.79834 98.6344438,120.976072 97.9023438,121.331543 L97.5786133,120.525391 C97.9213884,120.339192 98.2969543,120.193197 98.7053223,120.087402 C99.1136902,119.981608 99.5231099,119.928711 99.9335938,119.928711 C100.763025,119.928711 101.377684,120.112791 101.777588,120.480957 C102.177492,120.849123 102.377441,121.439449 102.377441,122.251953 L102.377441,127 L101.59668,127 Z M99.2163086,126.257324 C99.8722364,126.257324 100.387449,126.077476 100.761963,125.717773 C101.136476,125.358071 101.32373,124.854495 101.32373,124.207031 L101.32373,123.578613 L100.27002,123.623047 C99.4321247,123.652669 98.8280455,123.782795 98.4577637,124.013428 C98.0874819,124.24406 97.9023438,124.602699 97.9023438,125.089355 C97.9023438,125.470217 98.0176584,125.76009 98.248291,125.958984 C98.4789237,126.157879 98.801593,126.257324 99.2163086,126.257324 L99.2163086,126.257324 Z M106.79541,126.257324 C106.981609,126.257324 107.161457,126.243571 107.334961,126.216064 C107.508464,126.188558 107.645996,126.159994 107.747559,126.130371 L107.747559,126.936523 C107.6333,126.991537 107.465089,127.037028 107.24292,127.072998 C107.020751,127.108968 106.820802,127.126953 106.643066,127.126953 C105.297357,127.126953 104.624512,126.418139 104.624512,125.000488 L104.624512,120.861816 L103.62793,120.861816 L103.62793,120.354004 L104.624512,119.916016 L105.068848,118.430664 L105.678223,118.430664 L105.678223,120.042969 L107.696777,120.042969 L107.696777,120.861816 L105.678223,120.861816 L105.678223,124.956055 C105.678223,125.375002 105.777668,125.696613 105.976562,125.920898 C106.175457,126.145183 106.448403,126.257324 106.79541,126.257324 L106.79541,126.257324 Z M112.07666,127.126953 C111.048335,127.126953 110.236901,126.813805 109.642334,126.1875 C109.047767,125.561195 108.750488,124.691575 108.750488,123.578613 C108.750488,122.457188 109.026609,121.56641 109.578857,120.90625 C110.131106,120.24609 110.872717,119.916016 111.803711,119.916016 C112.67546,119.916016 113.365232,120.202715 113.873047,120.776123 C114.380862,121.349531 114.634766,122.105952 114.634766,123.04541 L114.634766,123.711914 L109.842285,123.711914 C109.863444,124.52865 110.069741,125.148598 110.461182,125.571777 C110.852622,125.994957 111.403805,126.206543 112.114746,126.206543 C112.863773,126.206543 113.604326,126.049969 114.336426,125.736816 L114.336426,126.67627 C113.964028,126.837078 113.611737,126.952392 113.279541,127.022217 C112.947345,127.092041 112.546389,127.126953 112.07666,127.126953 L112.07666,127.126953 Z M111.791016,120.79834 C111.232419,120.79834 110.78703,120.980304 110.454834,121.344238 C110.122638,121.708172 109.926921,122.211748 109.867676,122.85498 L113.504883,122.85498 C113.504883,122.190589 113.356772,121.681724 113.060547,121.328369 C112.764321,120.975015 112.341149,120.79834 111.791016,120.79834 L111.791016,120.79834 Z M122.125,120.042969 L122.125,120.709473 L120.836426,120.861816 C120.954916,121.009929 121.060709,121.203531 121.153809,121.442627 C121.246908,121.681723 121.293457,121.951496 121.293457,122.251953 C121.293457,122.933272 121.060712,123.477049 120.595215,123.883301 C120.129718,124.289553 119.490727,124.492676 118.678223,124.492676 C118.470865,124.492676 118.276205,124.475749 118.094238,124.441895 C117.645668,124.678875 117.421387,124.977212 117.421387,125.336914 C117.421387,125.527345 117.499674,125.66805 117.65625,125.759033 C117.812826,125.850017 118.081541,125.895508 118.462402,125.895508 L119.693848,125.895508 C120.447107,125.895508 121.025796,126.054198 121.429932,126.371582 C121.834068,126.688966 122.036133,127.150225 122.036133,127.755371 C122.036133,128.525557 121.727217,129.11271 121.109375,129.516846 C120.491533,129.920982 119.590175,130.123047 118.405273,130.123047 C117.495438,130.123047 116.794029,129.953778 116.301025,129.615234 C115.808022,129.276691 115.561523,128.798506 115.561523,128.180664 C115.561523,127.757485 115.696939,127.39144 115.967773,127.08252 C116.238608,126.773599 116.619464,126.564128 117.110352,126.454102 C116.932616,126.373698 116.783448,126.248862 116.662842,126.07959 C116.542236,125.910318 116.481934,125.713543 116.481934,125.489258 C116.481934,125.23535 116.549641,125.013185 116.685059,124.822754 C116.820476,124.632323 117.034178,124.448243 117.326172,124.270508 C116.96647,124.122395 116.673422,123.870607 116.447021,123.515137 C116.220621,123.159666 116.107422,122.75342 116.107422,122.296387 C116.107422,121.534664 116.335935,120.947512 116.792969,120.534912 C117.250002,120.122312 117.897457,119.916016 118.735352,119.916016 C119.099286,119.916016 119.427245,119.958333 119.719238,120.042969 L122.125,120.042969 Z M116.577148,128.167969 C116.577148,128.544598 116.735838,128.83024 117.053223,129.024902 C117.370607,129.219565 117.825518,129.316895 118.417969,129.316895 C119.302413,129.316895 119.957273,129.184653 120.382568,128.920166 C120.807863,128.655679 121.020508,128.29704 121.020508,127.844238 C121.020508,127.467609 120.904135,127.2063 120.671387,127.060303 C120.438638,126.914306 120.000654,126.841309 119.357422,126.841309 L118.094238,126.841309 C117.616046,126.841309 117.243654,126.955565 116.977051,127.184082 C116.710448,127.412599 116.577148,127.740558 116.577148,128.167969 L116.577148,128.167969 Z M117.148438,122.270996 C117.148438,122.757652 117.285969,123.125813 117.561035,123.375488 C117.836102,123.625164 118.219073,123.75 118.709961,123.75 C119.738286,123.75 120.252441,123.250656 120.252441,122.251953 C120.252441,121.206701 119.731939,120.684082 118.690918,120.684082 C118.195798,120.684082 117.814943,120.817381 117.54834,121.083984 C117.281737,121.350587 117.148438,121.746254 117.148438,122.270996 L117.148438,122.270996 Z M129.558105,123.515137 C129.558105,124.649257 129.272464,125.534746 128.701172,126.171631 C128.12988,126.808516 127.340663,127.126953 126.333496,127.126953 C125.711423,127.126953 125.159182,126.980958 124.676758,126.688965 C124.194334,126.396971 123.821941,125.97803 123.55957,125.432129 C123.297199,124.886228 123.166016,124.247237 123.166016,123.515137 C123.166016,122.381016 123.449541,121.497643 124.016602,120.86499 C124.583662,120.232337 125.370763,119.916016 126.37793,119.916016 C127.351242,119.916016 128.12459,120.239743 128.697998,120.887207 C129.271406,121.534671 129.558105,122.410639 129.558105,123.515137 L129.558105,123.515137 Z M124.257812,123.515137 C124.257812,124.403813 124.435545,125.08089 124.791016,125.546387 C125.146486,126.011884 125.669105,126.244629 126.358887,126.244629 C127.048669,126.244629 127.572345,126.012942 127.929932,125.549561 C128.287518,125.086179 128.466309,124.408045 128.466309,123.515137 C128.466309,122.630692 128.287518,121.958905 127.929932,121.499756 C127.572345,121.040606 127.044437,120.811035 126.346191,120.811035 C125.656409,120.811035 125.135907,121.037433 124.784668,121.490234 C124.433429,121.943036 124.257812,122.617997 124.257812,123.515137 L124.257812,123.515137 Z M134.579102,119.916016 C134.888022,119.916016 135.165201,119.941406 135.410645,119.992188 L135.264648,120.969727 C134.976887,120.90625 134.722983,120.874512 134.50293,120.874512 C133.940101,120.874512 133.458742,121.103025 133.058838,121.560059 C132.658934,122.017092 132.458984,122.58626 132.458984,123.267578 L132.458984,127 L131.405273,127 L131.405273,120.042969 L132.274902,120.042969 L132.395508,121.331543 L132.446289,121.331543 C132.704428,120.878741 133.01546,120.529624 133.379395,120.28418 C133.743329,120.038736 134.143227,119.916016 134.579102,119.916016 L134.579102,119.916016 Z M135.607422,120.042969 L136.737305,120.042969 L138.260742,124.010254 C138.595054,124.915857 138.802408,125.569659 138.882812,125.97168 L138.933594,125.97168 C138.988607,125.755858 139.103922,125.38664 139.279541,124.864014 C139.45516,124.341387 140.029618,122.734388 141.00293,120.042969 L142.132812,120.042969 L139.143066,127.964844 C138.846841,128.747725 138.500897,129.30314 138.105225,129.631104 C137.709552,129.959067 137.223961,130.123047 136.648438,130.123047 C136.326821,130.123047 136.009442,130.087077 135.696289,130.015137 L135.696289,129.170898 C135.929038,129.22168 136.189289,129.24707 136.477051,129.24707 C137.200687,129.24707 137.716958,128.840824 138.025879,128.02832 L138.413086,127.038086 L135.607422,120.042969 Z M152.695312,124.867188 L151.317871,124.867188 L151.317871,127 L150.308594,127 L150.308594,124.867188 L145.79541,124.867188 L145.79541,123.946777 L150.200684,117.668945 L151.317871,117.668945 L151.317871,123.908691 L152.695312,123.908691 L152.695312,124.867188 Z M150.308594,123.908691 L150.308594,120.82373 C150.308594,120.218584 150.329752,119.53516 150.37207,118.773438 L150.321289,118.773438 C150.118163,119.17969 149.927735,119.516112 149.75,119.782715 L146.849121,123.908691 L150.308594,123.908691 Z" id="Category-4" fill="#4A4A4A"></path>
                <path d="M77.2386364,123.125 C77.2386364,122.859847 77.0378808,122.727273 76.6363636,122.727273 L64.2727273,122.727273 C63.9696955,122.727273 63.6458351,122.808711 63.3011364,122.971591 C62.9564377,123.134471 62.685607,123.333332 62.4886364,123.568182 L59.1477273,127.693182 C59.011363,127.875001 58.9431818,128.026515 58.9431818,128.147727 C58.9431818,128.41288 59.1439374,128.545455 59.5454545,128.545455 L71.9090909,128.545455 C72.2121227,128.545455 72.537877,128.462122 72.8863636,128.295455 C73.2348502,128.128787 73.5037869,127.928031 73.6931818,127.693182 L77.0340909,123.568182 C77.1704552,123.401514 77.2386364,123.253789 77.2386364,123.125 L77.2386364,123.125 Z M64.2727273,121.272727 L73,121.272727 L73,119.454545 C73,119.151514 72.8939405,118.89394 72.6818182,118.681818 C72.4696959,118.469696 72.2121227,118.363636 71.9090909,118.363636 L65.3636364,118.363636 C65.0606045,118.363636 64.8030314,118.257577 64.5909091,118.045455 C64.3787868,117.833332 64.2727273,117.575759 64.2727273,117.272727 L64.2727273,116.545455 C64.2727273,116.242423 64.1666677,115.98485 63.9545455,115.772727 C63.7424232,115.560605 63.48485,115.454545 63.1818182,115.454545 L59.5454545,115.454545 C59.2424227,115.454545 58.9848495,115.560605 58.7727273,115.772727 C58.560605,115.98485 58.4545455,116.242423 58.4545455,116.545455 L58.4545455,126.238636 L61.3636364,122.659091 C61.6969714,122.257574 62.1363609,121.926138 62.6818182,121.664773 C63.2272755,121.403408 63.7575732,121.272727 64.2727273,121.272727 L64.2727273,121.272727 Z M78.6931818,123.125 C78.6931818,123.594699 78.5189411,124.04924 78.1704545,124.488636 L74.8181818,128.613636 C74.4924226,129.015154 74.0530331,129.34659 73.5,129.607955 C72.9469669,129.869319 72.4166692,130 71.9090909,130 L59.5454545,130 C58.8484814,130 58.2500025,129.750002 57.75,129.25 C57.2499975,128.749997 57,128.151519 57,127.454545 L57,116.545455 C57,115.848481 57.2499975,115.250002 57.75,114.75 C58.2500025,114.249997 58.8484814,114 59.5454545,114 L63.1818182,114 C63.8787914,114 64.4772702,114.249997 64.9772727,114.75 C65.4772752,115.250002 65.7272727,115.848481 65.7272727,116.545455 L65.7272727,116.909091 L71.9090909,116.909091 C72.6060641,116.909091 73.204543,117.159088 73.7045455,117.659091 C74.204548,118.159093 74.4545455,118.757572 74.4545455,119.454545 L74.4545455,121.272727 L76.6363636,121.272727 C77.0454566,121.272727 77.4204528,121.365529 77.7613636,121.551136 C78.1022744,121.736743 78.3560598,122.003786 78.5227273,122.352273 C78.6363642,122.594698 78.6931818,122.852271 78.6931818,123.125 L78.6931818,123.125 Z" id="" fill="#4A4A4A"></path>
            </g>
        </g>
    </g>
</svg>