<?xml version="1.0" encoding="UTF-8" standalone="no"?>
<svg width="248px" height="288px" viewBox="0 0 248 288" version="1.1" xmlns="http://www.w3.org/2000/svg" xmlns:xlink="http://www.w3.org/1999/xlink">
    <!-- Generator: Sketch 40.2 (33826) - http://www.bohemiancoding.com/sketch -->
    <title>tr-nav-1</title>
    <desc>Created with Sketch.</desc>
    <defs></defs>
    <g id="Components" stroke="none" stroke-width="1" fill="none" fill-rule="evenodd">
        <g id="Lists" transform="translate(-329.000000, -1277.000000)">
            <g id="tr-nav-1" transform="translate(329.000000, 1277.000000)">
                <rect id="Rectangle-13-Copy-4" fill="#333333" x="0" y="0" width="248" height="288"></rect>
                <rect id="Rectangle-13-Copy-6" fill="#3F3F3F" x="0" y="36" width="248" height="36"></rect>
                <rect id="Rectangle-13-Copy-7" fill="#262626" x="0" y="72" width="248" height="108"></rect>
                <path d="M59.3217773,22 L58.2426758,22 L58.2426758,17.6328125 L53.3549805,17.6328125 L53.3549805,22 L52.2758789,22 L52.2758789,12.7197266 L53.3549805,12.7197266 L53.3549805,16.6679688 L58.2426758,16.6679688 L58.2426758,12.7197266 L59.3217773,12.7197266 L59.3217773,22 Z M67.7133789,18.5151367 C67.7133789,19.649257 67.4277372,20.5347462 66.8564453,21.1716309 C66.2851534,21.8085156 65.495936,22.1269531 64.4887695,22.1269531 C63.8666961,22.1269531 63.3144555,21.9809585 62.8320312,21.6889648 C62.349607,21.3969712 61.9772149,20.9780301 61.7148438,20.4321289 C61.4524726,19.8862277 61.3212891,19.2472367 61.3212891,18.5151367 C61.3212891,17.3810165 61.6048149,16.4976431 62.171875,15.8649902 C62.7389351,15.2323373 63.5260366,14.9160156 64.5332031,14.9160156 C65.5065153,14.9160156 66.2798637,15.2397429 66.8532715,15.887207 C67.4266793,16.5346712 67.7133789,17.410639 67.7133789,18.5151367 L67.7133789,18.5151367 Z M62.4130859,18.5151367 C62.4130859,19.403813 62.5908185,20.0808896 62.9462891,20.5463867 C63.3017596,21.0118838 63.8243781,21.2446289 64.5141602,21.2446289 C65.2039423,21.2446289 65.7276187,21.0129418 66.0852051,20.5495605 C66.4427915,20.0861793 66.621582,19.4080448 66.621582,18.5151367 C66.621582,17.6306922 66.4427915,16.9589053 66.0852051,16.4997559 C65.7276187,16.0406064 65.1997105,15.8110352 64.5014648,15.8110352 C63.8116827,15.8110352 63.2911801,16.0374326 62.9399414,16.4902344 C62.5887027,16.9430361 62.4130859,17.6179968 62.4130859,18.5151367 L62.4130859,18.5151367 Z M78.4282227,22 L78.4282227,17.4741211 C78.4282227,16.9197563 78.3097343,16.503989 78.0727539,16.2268066 C77.8357736,15.9496243 77.4676132,15.8110352 76.9682617,15.8110352 C76.312334,15.8110352 75.827801,15.9993471 75.5146484,16.3759766 C75.2014958,16.752606 75.0449219,17.3323529 75.0449219,18.1152344 L75.0449219,22 L73.9912109,22 L73.9912109,17.4741211 C73.9912109,16.9197563 73.8727225,16.503989 73.6357422,16.2268066 C73.3987618,15.9496243 73.0284856,15.8110352 72.5249023,15.8110352 C71.8647428,15.8110352 71.3812678,16.0088685 71.0744629,16.404541 C70.767658,16.8002136 70.6142578,17.448726 70.6142578,18.3500977 L70.6142578,22 L69.5605469,22 L69.5605469,15.0429688 L70.4174805,15.0429688 L70.5888672,15.9951172 L70.6396484,15.9951172 C70.8385427,15.6565738 71.1188947,15.3920908 71.4807129,15.2016602 C71.8425311,15.0112295 72.2477191,14.9160156 72.6962891,14.9160156 C73.7838596,14.9160156 74.49479,15.3095664 74.8291016,16.0966797 L74.8798828,16.0966797 C75.0872406,15.7327456 75.3876933,15.444988 75.78125,15.2333984 C76.1748067,15.0218088 76.6233699,14.9160156 77.1269531,14.9160156 C77.9140664,14.9160156 78.5033346,15.1180807 78.8947754,15.5222168 C79.2862161,15.9263529 79.4819336,16.5727495 79.4819336,17.4614258 L79.4819336,22 L78.4282227,22 Z M84.5917969,22.1269531 C83.5634714,22.1269531 82.7520375,21.8138052 82.1574707,21.1875 C81.5629039,20.5611948 81.265625,19.6915746 81.265625,18.5786133 C81.265625,17.4571884 81.5417453,16.5664096 82.0939941,15.90625 C82.646243,15.2460904 83.3878534,14.9160156 84.3188477,14.9160156 C85.1905968,14.9160156 85.8803686,15.2027152 86.3881836,15.776123 C86.8959986,16.3495309 87.1499023,17.1059523 87.1499023,18.0454102 L87.1499023,18.7119141 L82.3574219,18.7119141 C82.3785808,19.5286499 82.5848776,20.1485981 82.9763184,20.5717773 C83.3677591,20.9949565 83.9189418,21.206543 84.6298828,21.206543 C85.37891,21.206543 86.1194625,21.049969 86.8515625,20.7368164 L86.8515625,21.6762695 C86.4791648,21.8370776 86.1268734,21.9523922 85.7946777,22.0222168 C85.4624821,22.0920414 85.0615258,22.1269531 84.5917969,22.1269531 L84.5917969,22.1269531 Z M84.3061523,15.7983398 C83.7475558,15.7983398 83.3021664,15.9803042 82.9699707,16.3442383 C82.637775,16.7081724 82.4420576,17.2117481 82.3828125,17.8549805 L86.0200195,17.8549805 C86.0200195,17.1905891 85.871909,16.6817238 85.5756836,16.3283691 C85.2794582,15.9750145 84.8562853,15.7983398 84.3061523,15.7983398 L84.3061523,15.7983398 Z" id="Home" fill="#B2B2B2"></path>
                <path d="M53.3549805,57 L52.2758789,57 L52.2758789,47.7197266 L57.4492188,47.7197266 L57.4492188,48.6782227 L53.3549805,48.6782227 L53.3549805,52.0742188 L57.2016602,52.0742188 L57.2016602,53.0327148 L53.3549805,53.0327148 L53.3549805,57 Z M62.0004883,49.9160156 C62.3094091,49.9160156 62.5865873,49.941406 62.8320312,49.9921875 L62.6860352,50.9697266 C62.3982733,50.9062497 62.1443696,50.8745117 61.9243164,50.8745117 C61.3614881,50.8745117 60.880129,51.1030251 60.4802246,51.5600586 C60.0803203,52.0170921 59.8803711,52.5862596 59.8803711,53.2675781 L59.8803711,57 L58.8266602,57 L58.8266602,50.0429688 L59.6962891,50.0429688 L59.8168945,51.331543 L59.8676758,51.331543 C60.1258151,50.8787412 60.4368471,50.5296236 60.8007812,50.2841797 C61.1647154,50.0387358 61.5646137,49.9160156 62.0004883,49.9160156 L62.0004883,49.9160156 Z M65.1870117,57 L64.1333008,57 L64.1333008,50.0429688 L65.1870117,50.0429688 L65.1870117,57 Z M64.0444336,48.1577148 C64.0444336,47.9165027 64.1036778,47.739828 64.222168,47.6276855 C64.3406581,47.5155431 64.4887686,47.4594727 64.6665039,47.4594727 C64.8357756,47.4594727 64.9817702,47.516601 65.1044922,47.6308594 C65.2272142,47.7451178 65.2885742,47.9207345 65.2885742,48.1577148 C65.2885742,48.3946952 65.2272142,48.5713699 65.1044922,48.6877441 C64.9817702,48.8041184 64.8357756,48.8623047 64.6665039,48.8623047 C64.4887686,48.8623047 64.3406581,48.8041184 64.222168,48.6877441 C64.1036778,48.5713699 64.0444336,48.3946952 64.0444336,48.1577148 L64.0444336,48.1577148 Z M70.3603516,57.1269531 C69.3320261,57.1269531 68.5205922,56.8138052 67.9260254,56.1875 C67.3314586,55.5611948 67.0341797,54.6915746 67.0341797,53.5786133 C67.0341797,52.4571884 67.3103,51.5664096 67.8625488,50.90625 C68.4147977,50.2460904 69.1564081,49.9160156 70.0874023,49.9160156 C70.9591515,49.9160156 71.6489232,50.2027152 72.1567383,50.776123 C72.6645533,51.3495309 72.918457,52.1059523 72.918457,53.0454102 L72.918457,53.7119141 L68.1259766,53.7119141 C68.1471355,54.5286499 68.3534323,55.1485981 68.744873,55.5717773 C69.1363138,55.9949565 69.6874964,56.206543 70.3984375,56.206543 C71.1474647,56.206543 71.8880172,56.049969 72.6201172,55.7368164 L72.6201172,56.6762695 C72.2477195,56.8370776 71.8954281,56.9523922 71.5632324,57.0222168 C71.2310368,57.0920414 70.8300805,57.1269531 70.3603516,57.1269531 L70.3603516,57.1269531 Z M70.074707,50.7983398 C69.5161105,50.7983398 69.0707211,50.9803042 68.7385254,51.3442383 C68.4063297,51.7081724 68.2106123,52.2117481 68.1513672,52.8549805 L71.7885742,52.8549805 C71.7885742,52.1905891 71.6404637,51.6817238 71.3442383,51.3283691 C71.0480128,50.9750145 70.62484,50.7983398 70.074707,50.7983398 L70.074707,50.7983398 Z M79.4755859,57 L79.4755859,52.4995117 C79.4755859,51.9324516 79.3465182,51.5092787 79.0883789,51.2299805 C78.8302396,50.9506822 78.4261095,50.8110352 77.8759766,50.8110352 C77.1481083,50.8110352 76.6149105,51.0078105 76.2763672,51.4013672 C75.9378238,51.7949238 75.7685547,52.4444942 75.7685547,53.3500977 L75.7685547,57 L74.7148438,57 L74.7148438,50.0429688 L75.5717773,50.0429688 L75.7431641,50.9951172 L75.7939453,50.9951172 C76.0097667,50.652342 76.3123353,50.3868011 76.7016602,50.1984863 C77.090985,50.0101716 77.5247372,49.9160156 78.0029297,49.9160156 C78.8408245,49.9160156 79.4713521,50.1180807 79.8945312,50.5222168 C80.3177104,50.9263529 80.5292969,51.5727495 80.5292969,52.4614258 L80.5292969,57 L79.4755859,57 Z M87.4291992,56.0668945 L87.3720703,56.0668945 C86.8854142,56.7736038 86.1575569,57.1269531 85.1884766,57.1269531 C84.2786413,57.1269531 83.5708847,56.8159211 83.0651855,56.1938477 C82.5594864,55.5717742 82.3066406,54.687343 82.3066406,53.5405273 C82.3066406,52.3937117 82.5605443,51.5029329 83.0683594,50.8681641 C83.5761744,50.2333953 84.2828731,49.9160156 85.1884766,49.9160156 C86.1321662,49.9160156 86.8557918,50.2587856 87.359375,50.9443359 L87.4418945,50.9443359 L87.3974609,50.4428711 L87.3720703,49.9541016 L87.3720703,47.1230469 L88.4257812,47.1230469 L88.4257812,57 L87.5688477,57 L87.4291992,56.0668945 Z M85.3217773,56.2446289 C86.041182,56.2446289 86.5627425,56.0489115 86.8864746,55.6574707 C87.2102067,55.2660299 87.3720703,54.6344445 87.3720703,53.7626953 L87.3720703,53.5405273 C87.3720703,52.5545198 87.2080908,51.8509949 86.880127,51.4299316 C86.5521631,51.0088683 86.0284867,50.7983398 85.309082,50.7983398 C84.6912404,50.7983398 84.2183447,51.0384904 83.8903809,51.5187988 C83.562417,51.9991072 83.3984375,52.6772417 83.3984375,53.5532227 C83.3984375,54.441899 83.561359,55.1126279 83.887207,55.5654297 C84.213055,56.0182314 84.6912403,56.2446289 85.3217773,56.2446289 L85.3217773,56.2446289 Z M95.1479492,55.1020508 C95.1479492,55.749515 94.9067407,56.2488589 94.4243164,56.6000977 C93.9418921,56.9513364 93.2648156,57.1269531 92.3930664,57.1269531 C91.4705358,57.1269531 90.7511419,56.9809585 90.2348633,56.6889648 L90.2348633,55.7114258 C90.5691748,55.8806975 90.9278138,56.0139969 91.310791,56.1113281 C91.6937682,56.2086593 92.0629865,56.2573242 92.418457,56.2573242 C92.96859,56.2573242 93.3917628,56.1695159 93.6879883,55.9938965 C93.9842137,55.8182771 94.1323242,55.5506203 94.1323242,55.190918 C94.1323242,54.9200833 94.0148938,54.6883961 93.7800293,54.4958496 C93.5451648,54.3033031 93.0870802,54.0758477 92.4057617,53.8134766 C91.7582975,53.5722644 91.2980971,53.3617359 91.0251465,53.1818848 C90.7521959,53.0020336 90.5490729,52.7978527 90.4157715,52.5693359 C90.28247,52.3408192 90.2158203,52.0678727 90.2158203,51.7504883 C90.2158203,51.1834282 90.4464495,50.7359229 90.9077148,50.407959 C91.3689802,50.0799951 92.0016236,49.9160156 92.8056641,49.9160156 C93.5546912,49.9160156 94.2867803,50.0683579 95.0019531,50.3730469 L94.6274414,51.2299805 C93.9291957,50.9422186 93.2965523,50.7983398 92.7294922,50.7983398 C92.2301407,50.7983398 91.8535169,50.8766268 91.5996094,51.0332031 C91.3457019,51.1897794 91.21875,51.4055976 91.21875,51.6806641 C91.21875,51.8668629 91.2663569,52.0255527 91.3615723,52.1567383 C91.4567876,52.2879238 91.6101877,52.4127598 91.8217773,52.53125 C92.0333669,52.6497402 92.4396129,52.8211252 93.0405273,53.0454102 C93.8657268,53.3458674 94.423257,53.648436 94.7131348,53.953125 C95.0030125,54.257814 95.1479492,54.6407855 95.1479492,55.1020508 L95.1479492,55.1020508 Z" id="Friends" fill="#B2B2B2"></path>
                <path d="M56.3828125,201 L53.234375,192.773438 L53.1835938,192.773438 C53.2428388,193.425133 53.2724609,194.19954 53.2724609,195.09668 L53.2724609,201 L52.2758789,201 L52.2758789,191.719727 L53.9008789,191.719727 L56.8398438,199.375 L56.890625,199.375 L59.8549805,191.719727 L61.4672852,191.719727 L61.4672852,201 L60.3881836,201 L60.3881836,195.020508 C60.3881836,194.334958 60.4178057,193.590173 60.4770508,192.786133 L60.4262695,192.786133 L57.2524414,201 L56.3828125,201 Z M66.7929688,201.126953 C65.7646433,201.126953 64.9532094,200.813805 64.3586426,200.1875 C63.7640758,199.561195 63.4667969,198.691575 63.4667969,197.578613 C63.4667969,196.457188 63.7429172,195.56641 64.295166,194.90625 C64.8474149,194.24609 65.5890253,193.916016 66.5200195,193.916016 C67.3917687,193.916016 68.0815404,194.202715 68.5893555,194.776123 C69.0971705,195.349531 69.3510742,196.105952 69.3510742,197.04541 L69.3510742,197.711914 L64.5585938,197.711914 C64.5797527,198.52865 64.7860495,199.148598 65.1774902,199.571777 C65.568931,199.994957 66.1201136,200.206543 66.8310547,200.206543 C67.5800819,200.206543 68.3206344,200.049969 69.0527344,199.736816 L69.0527344,200.67627 C68.6803367,200.837078 68.3280453,200.952392 67.9958496,201.022217 C67.6636539,201.092041 67.2626977,201.126953 66.7929688,201.126953 L66.7929688,201.126953 Z M66.5073242,194.79834 C65.9487277,194.79834 65.5033382,194.980304 65.1711426,195.344238 C64.8389469,195.708172 64.6432295,196.211748 64.5839844,196.85498 L68.2211914,196.85498 C68.2211914,196.190589 68.0730809,195.681724 67.7768555,195.328369 C67.48063,194.975015 67.0574572,194.79834 66.5073242,194.79834 L66.5073242,194.79834 Z M75.6352539,199.102051 C75.6352539,199.749515 75.3940454,200.248859 74.9116211,200.600098 C74.4291968,200.951336 73.7521202,201.126953 72.8803711,201.126953 C71.9578404,201.126953 71.2384466,200.980958 70.722168,200.688965 L70.722168,199.711426 C71.0564795,199.880697 71.4151185,200.013997 71.7980957,200.111328 C72.1810729,200.208659 72.5502912,200.257324 72.9057617,200.257324 C73.4558947,200.257324 73.8790675,200.169516 74.175293,199.993896 C74.4715184,199.818277 74.6196289,199.55062 74.6196289,199.190918 C74.6196289,198.920083 74.5021984,198.688396 74.267334,198.49585 C74.0324695,198.303303 73.5743849,198.075848 72.8930664,197.813477 C72.2456022,197.572264 71.7854018,197.361736 71.5124512,197.181885 C71.2395006,197.002034 71.0363776,196.797853 70.9030762,196.569336 C70.7697747,196.340819 70.703125,196.067873 70.703125,195.750488 C70.703125,195.183428 70.9337542,194.735923 71.3950195,194.407959 C71.8562849,194.079995 72.4889283,193.916016 73.2929688,193.916016 C74.0419959,193.916016 74.774085,194.068358 75.4892578,194.373047 L75.1147461,195.22998 C74.4165004,194.942219 73.783857,194.79834 73.2167969,194.79834 C72.7174454,194.79834 72.3408216,194.876627 72.0869141,195.033203 C71.8330065,195.189779 71.7060547,195.405598 71.7060547,195.680664 C71.7060547,195.866863 71.7536616,196.025553 71.848877,196.156738 C71.9440923,196.287924 72.0974924,196.41276 72.309082,196.53125 C72.5206716,196.64974 72.9269176,196.821125 73.527832,197.04541 C74.3530315,197.345867 74.9105617,197.648436 75.2004395,197.953125 C75.4903172,198.257814 75.6352539,198.640785 75.6352539,199.102051 L75.6352539,199.102051 Z M81.8369141,199.102051 C81.8369141,199.749515 81.5957055,200.248859 81.1132812,200.600098 C80.630857,200.951336 79.9537804,201.126953 79.0820312,201.126953 C78.1595006,201.126953 77.4401067,200.980958 76.9238281,200.688965 L76.9238281,199.711426 C77.2581397,199.880697 77.6167787,200.013997 77.9997559,200.111328 C78.382733,200.208659 78.7519513,200.257324 79.1074219,200.257324 C79.6575548,200.257324 80.0807277,200.169516 80.3769531,199.993896 C80.6731786,199.818277 80.8212891,199.55062 80.8212891,199.190918 C80.8212891,198.920083 80.7038586,198.688396 80.4689941,198.49585 C80.2341297,198.303303 79.7760451,198.075848 79.0947266,197.813477 C78.4472624,197.572264 77.9870619,197.361736 77.7141113,197.181885 C77.4411607,197.002034 77.2380378,196.797853 77.1047363,196.569336 C76.9714349,196.340819 76.9047852,196.067873 76.9047852,195.750488 C76.9047852,195.183428 77.1354144,194.735923 77.5966797,194.407959 C78.057945,194.079995 78.6905884,193.916016 79.4946289,193.916016 C80.2436561,193.916016 80.9757451,194.068358 81.690918,194.373047 L81.3164062,195.22998 C80.6181606,194.942219 79.9855172,194.79834 79.418457,194.79834 C78.9191056,194.79834 78.5424817,194.876627 78.2885742,195.033203 C78.0346667,195.189779 77.9077148,195.405598 77.9077148,195.680664 C77.9077148,195.866863 77.9553218,196.025553 78.0505371,196.156738 C78.1457524,196.287924 78.2991526,196.41276 78.5107422,196.53125 C78.7223318,196.64974 79.1285777,196.821125 79.7294922,197.04541 C80.5546916,197.345867 81.1122219,197.648436 81.4020996,197.953125 C81.6919774,198.257814 81.8369141,198.640785 81.8369141,199.102051 L81.8369141,199.102051 Z M87.8291016,201 L87.6196289,200.009766 L87.5688477,200.009766 C87.2218407,200.44564 86.8758969,200.740803 86.5310059,200.895264 C86.1861148,201.049724 85.7555364,201.126953 85.2392578,201.126953 C84.5494757,201.126953 84.0088724,200.949221 83.6174316,200.59375 C83.2259909,200.238279 83.0302734,199.732588 83.0302734,199.07666 C83.0302734,197.671705 84.1537974,196.935384 86.4008789,196.867676 L87.581543,196.82959 L87.581543,196.397949 C87.581543,195.852048 87.4641125,195.448976 87.229248,195.188721 C86.9943836,194.928465 86.6188177,194.79834 86.1025391,194.79834 C85.5227836,194.79834 84.8668656,194.976072 84.1347656,195.331543 L83.8110352,194.525391 C84.1538103,194.339192 84.5293762,194.193197 84.9377441,194.087402 C85.3461121,193.981608 85.7555318,193.928711 86.1660156,193.928711 C86.9954469,193.928711 87.6101054,194.112791 88.0100098,194.480957 C88.4099141,194.849123 88.6098633,195.439449 88.6098633,196.251953 L88.6098633,201 L87.8291016,201 Z M85.4487305,200.257324 C86.1046582,200.257324 86.6198712,200.077476 86.9943848,199.717773 C87.3688984,199.358071 87.5561523,198.854495 87.5561523,198.207031 L87.5561523,197.578613 L86.5024414,197.623047 C85.6645466,197.652669 85.0604673,197.782795 84.6901855,198.013428 C84.3199037,198.24406 84.1347656,198.602699 84.1347656,199.089355 C84.1347656,199.470217 84.2500802,199.76009 84.4807129,199.958984 C84.7113456,200.157879 85.0340149,200.257324 85.4487305,200.257324 L85.4487305,200.257324 Z M96.4746094,194.042969 L96.4746094,194.709473 L95.1860352,194.861816 C95.3045253,195.009929 95.4103185,195.203531 95.503418,195.442627 C95.5965174,195.681723 95.6430664,195.951496 95.6430664,196.251953 C95.6430664,196.933272 95.4103213,197.477049 94.9448242,197.883301 C94.4793271,198.289553 93.8403361,198.492676 93.027832,198.492676 C92.8204742,198.492676 92.6258147,198.475749 92.4438477,198.441895 C91.9952777,198.678875 91.7709961,198.977212 91.7709961,199.336914 C91.7709961,199.527345 91.8492831,199.66805 92.0058594,199.759033 C92.1624357,199.850017 92.4311504,199.895508 92.8120117,199.895508 L94.043457,199.895508 C94.796716,199.895508 95.3754049,200.054198 95.779541,200.371582 C96.1836772,200.688966 96.3857422,201.150225 96.3857422,201.755371 C96.3857422,202.525557 96.076826,203.11271 95.4589844,203.516846 C94.8411427,203.920982 93.9397846,204.123047 92.7548828,204.123047 C91.8450475,204.123047 91.1436385,203.953778 90.6506348,203.615234 C90.157631,203.276691 89.9111328,202.798506 89.9111328,202.180664 C89.9111328,201.757485 90.0465481,201.39144 90.3173828,201.08252 C90.5882175,200.773599 90.9690731,200.564128 91.4599609,200.454102 C91.2822257,200.373698 91.1330572,200.248862 91.0124512,200.07959 C90.8918451,199.910318 90.831543,199.713543 90.831543,199.489258 C90.831543,199.23535 90.8992506,199.013185 91.034668,198.822754 C91.1700853,198.632323 91.3837876,198.448243 91.6757812,198.270508 C91.3160789,198.122395 91.0230317,197.870607 90.7966309,197.515137 C90.57023,197.159666 90.4570312,196.75342 90.4570312,196.296387 C90.4570312,195.534664 90.6855446,194.947512 91.1425781,194.534912 C91.5996117,194.122312 92.2470661,193.916016 93.0849609,193.916016 C93.448895,193.916016 93.776854,193.958333 94.0688477,194.042969 L96.4746094,194.042969 Z M90.9267578,202.167969 C90.9267578,202.544598 91.0854476,202.83024 91.402832,203.024902 C91.7202164,203.219565 92.1751272,203.316895 92.7675781,203.316895 C93.6520227,203.316895 94.3068826,203.184653 94.7321777,202.920166 C95.1574728,202.655679 95.3701172,202.29704 95.3701172,201.844238 C95.3701172,201.467609 95.2537447,201.2063 95.0209961,201.060303 C94.7882475,200.914306 94.3502636,200.841309 93.7070312,200.841309 L92.4438477,200.841309 C91.9656552,200.841309 91.5932631,200.955565 91.3266602,201.184082 C91.0600573,201.412599 90.9267578,201.740558 90.9267578,202.167969 L90.9267578,202.167969 Z M91.4980469,196.270996 C91.4980469,196.757652 91.6355781,197.125813 91.9106445,197.375488 C92.185711,197.625164 92.5686824,197.75 93.0595703,197.75 C94.0878958,197.75 94.6020508,197.250656 94.6020508,196.251953 C94.6020508,195.206701 94.0815482,194.684082 93.0405273,194.684082 C92.5454077,194.684082 92.1645521,194.817381 91.8979492,195.083984 C91.6313463,195.350587 91.4980469,195.746254 91.4980469,196.270996 L91.4980469,196.270996 Z M100.841797,201.126953 C99.8134714,201.126953 99.0020375,200.813805 98.4074707,200.1875 C97.8129039,199.561195 97.515625,198.691575 97.515625,197.578613 C97.515625,196.457188 97.7917453,195.56641 98.3439941,194.90625 C98.896243,194.24609 99.6378534,193.916016 100.568848,193.916016 C101.440597,193.916016 102.130369,194.202715 102.638184,194.776123 C103.145999,195.349531 103.399902,196.105952 103.399902,197.04541 L103.399902,197.711914 L98.6074219,197.711914 C98.6285808,198.52865 98.8348776,199.148598 99.2263184,199.571777 C99.6177591,199.994957 100.168942,200.206543 100.879883,200.206543 C101.62891,200.206543 102.369462,200.049969 103.101562,199.736816 L103.101562,200.67627 C102.729165,200.837078 102.376873,200.952392 102.044678,201.022217 C101.712482,201.092041 101.311526,201.126953 100.841797,201.126953 L100.841797,201.126953 Z M100.556152,194.79834 C99.9975558,194.79834 99.5521664,194.980304 99.2199707,195.344238 C98.887775,195.708172 98.6920576,196.211748 98.6328125,196.85498 L102.27002,196.85498 C102.27002,196.190589 102.121909,195.681724 101.825684,195.328369 C101.529458,194.975015 101.106285,194.79834 100.556152,194.79834 L100.556152,194.79834 Z M109.684082,199.102051 C109.684082,199.749515 109.442874,200.248859 108.960449,200.600098 C108.478025,200.951336 107.800948,201.126953 106.929199,201.126953 C106.006669,201.126953 105.287275,200.980958 104.770996,200.688965 L104.770996,199.711426 C105.105308,199.880697 105.463947,200.013997 105.846924,200.111328 C106.229901,200.208659 106.599119,200.257324 106.95459,200.257324 C107.504723,200.257324 107.927896,200.169516 108.224121,199.993896 C108.520347,199.818277 108.668457,199.55062 108.668457,199.190918 C108.668457,198.920083 108.551027,198.688396 108.316162,198.49585 C108.081298,198.303303 107.623213,198.075848 106.941895,197.813477 C106.29443,197.572264 105.83423,197.361736 105.561279,197.181885 C105.288329,197.002034 105.085206,196.797853 104.951904,196.569336 C104.818603,196.340819 104.751953,196.067873 104.751953,195.750488 C104.751953,195.183428 104.982582,194.735923 105.443848,194.407959 C105.905113,194.079995 106.537756,193.916016 107.341797,193.916016 C108.090824,193.916016 108.822913,194.068358 109.538086,194.373047 L109.163574,195.22998 C108.465329,194.942219 107.832685,194.79834 107.265625,194.79834 C106.766274,194.79834 106.38965,194.876627 106.135742,195.033203 C105.881835,195.189779 105.754883,195.405598 105.754883,195.680664 C105.754883,195.866863 105.80249,196.025553 105.897705,196.156738 C105.99292,196.287924 106.146321,196.41276 106.35791,196.53125 C106.5695,196.64974 106.975746,196.821125 107.57666,197.04541 C108.40186,197.345867 108.95939,197.648436 109.249268,197.953125 C109.539145,198.257814 109.684082,198.640785 109.684082,199.102051 L109.684082,199.102051 Z" id="Messages" fill="#B2B2B2"></path>
                <path d="M53.3549805,237 L52.2758789,237 L52.2758789,227.719727 L57.4492188,227.719727 L57.4492188,228.678223 L53.3549805,228.678223 L53.3549805,232.074219 L57.2016602,232.074219 L57.2016602,233.032715 L53.3549805,233.032715 L53.3549805,237 Z M63.1049805,237 L62.8955078,236.009766 L62.8447266,236.009766 C62.4977196,236.44564 62.1517758,236.740803 61.8068848,236.895264 C61.4619937,237.049724 61.0314153,237.126953 60.5151367,237.126953 C59.8253546,237.126953 59.2847513,236.949221 58.8933105,236.59375 C58.5018698,236.238279 58.3061523,235.732588 58.3061523,235.07666 C58.3061523,233.671705 59.4296763,232.935384 61.6767578,232.867676 L62.8574219,232.82959 L62.8574219,232.397949 C62.8574219,231.852048 62.7399914,231.448976 62.505127,231.188721 C62.2702625,230.928465 61.8946966,230.79834 61.378418,230.79834 C60.7986625,230.79834 60.1427445,230.976072 59.4106445,231.331543 L59.0869141,230.525391 C59.4296892,230.339192 59.8052551,230.193197 60.213623,230.087402 C60.621991,229.981608 61.0314107,229.928711 61.4418945,229.928711 C62.2713258,229.928711 62.8859843,230.112791 63.2858887,230.480957 C63.685793,230.849123 63.8857422,231.439449 63.8857422,232.251953 L63.8857422,237 L63.1049805,237 Z M60.7246094,236.257324 C61.3805371,236.257324 61.8957501,236.077476 62.2702637,235.717773 C62.6447773,235.358071 62.8320312,234.854495 62.8320312,234.207031 L62.8320312,233.578613 L61.7783203,233.623047 C60.9404255,233.652669 60.3363463,233.782795 59.9660645,234.013428 C59.5957827,234.24406 59.4106445,234.602699 59.4106445,235.089355 C59.4106445,235.470217 59.5259591,235.76009 59.7565918,235.958984 C59.9872245,236.157879 60.3098938,236.257324 60.7246094,236.257324 L60.7246094,236.257324 Z M67.5800781,237 L64.9394531,230.042969 L66.0693359,230.042969 L67.5673828,234.168945 C67.9059262,235.133794 68.1048174,235.76009 68.1640625,236.047852 L68.2148438,236.047852 C68.2613935,235.823567 68.408446,235.359134 68.6560059,234.654541 C68.9035657,233.949948 69.4589801,232.412772 70.3222656,230.042969 L71.4521484,230.042969 L68.8115234,237 L67.5800781,237 Z M78.5742188,233.515137 C78.5742188,234.649257 78.2885771,235.534746 77.7172852,236.171631 C77.1459932,236.808516 76.3567759,237.126953 75.3496094,237.126953 C74.727536,237.126953 74.1752954,236.980958 73.6928711,236.688965 C73.2104468,236.396971 72.8380547,235.97803 72.5756836,235.432129 C72.3133125,234.886228 72.1821289,234.247237 72.1821289,233.515137 C72.1821289,232.381016 72.4656547,231.497643 73.0327148,230.86499 C73.599775,230.232337 74.3868765,229.916016 75.394043,229.916016 C76.3673551,229.916016 77.1407035,230.239743 77.7141113,230.887207 C78.2875191,231.534671 78.5742188,232.410639 78.5742188,233.515137 L78.5742188,233.515137 Z M73.2739258,233.515137 C73.2739258,234.403813 73.4516584,235.08089 73.8071289,235.546387 C74.1625994,236.011884 74.6852179,236.244629 75.375,236.244629 C76.0647821,236.244629 76.5884585,236.012942 76.9460449,235.549561 C77.3036313,235.086179 77.4824219,234.408045 77.4824219,233.515137 C77.4824219,232.630692 77.3036313,231.958905 76.9460449,231.499756 C76.5884585,231.040606 76.0605504,230.811035 75.3623047,230.811035 C74.6725226,230.811035 74.15202,231.037433 73.8007812,231.490234 C73.4495425,231.943036 73.2739258,232.617997 73.2739258,233.515137 L73.2739258,233.515137 Z M83.5952148,229.916016 C83.9041357,229.916016 84.1813139,229.941406 84.4267578,229.992188 L84.2807617,230.969727 C83.9929999,230.90625 83.7390962,230.874512 83.519043,230.874512 C82.9562146,230.874512 82.4748555,231.103025 82.0749512,231.560059 C81.6750468,232.017092 81.4750977,232.58626 81.4750977,233.267578 L81.4750977,237 L80.4213867,237 L80.4213867,230.042969 L81.2910156,230.042969 L81.4116211,231.331543 L81.4624023,231.331543 C81.7205417,230.878741 82.0315737,230.529624 82.3955078,230.28418 C82.7594419,230.038736 83.1593403,229.916016 83.5952148,229.916016 L83.5952148,229.916016 Z M86.7817383,237 L85.7280273,237 L85.7280273,230.042969 L86.7817383,230.042969 L86.7817383,237 Z M85.6391602,228.157715 C85.6391602,227.916503 85.6984044,227.739828 85.8168945,227.627686 C85.9353847,227.515543 86.0834952,227.459473 86.2612305,227.459473 C86.4305021,227.459473 86.5764968,227.516601 86.6992188,227.630859 C86.8219407,227.745118 86.8833008,227.920734 86.8833008,228.157715 C86.8833008,228.394695 86.8219407,228.57137 86.6992188,228.687744 C86.5764968,228.804118 86.4305021,228.862305 86.2612305,228.862305 C86.0834952,228.862305 85.9353847,228.804118 85.8168945,228.687744 C85.6984044,228.57137 85.6391602,228.394695 85.6391602,228.157715 L85.6391602,228.157715 Z M91.2631836,236.257324 C91.4493824,236.257324 91.6292309,236.243571 91.8027344,236.216064 C91.9762378,236.188558 92.113769,236.159994 92.215332,236.130371 L92.215332,236.936523 C92.1010736,236.991537 91.9328624,237.037028 91.7106934,237.072998 C91.4885243,237.108968 91.2885751,237.126953 91.1108398,237.126953 C89.76513,237.126953 89.0922852,236.418139 89.0922852,235.000488 L89.0922852,230.861816 L88.0957031,230.861816 L88.0957031,230.354004 L89.0922852,229.916016 L89.5366211,228.430664 L90.1459961,228.430664 L90.1459961,230.042969 L92.1645508,230.042969 L92.1645508,230.861816 L90.1459961,230.861816 L90.1459961,234.956055 C90.1459961,235.375002 90.2454417,235.696613 90.4443359,235.920898 C90.6432302,236.145183 90.9161767,236.257324 91.2631836,236.257324 L91.2631836,236.257324 Z M96.5444336,237.126953 C95.5161081,237.126953 94.7046742,236.813805 94.1101074,236.1875 C93.5155406,235.561195 93.2182617,234.691575 93.2182617,233.578613 C93.2182617,232.457188 93.494382,231.56641 94.0466309,230.90625 C94.5988797,230.24609 95.3404901,229.916016 96.2714844,229.916016 C97.1432335,229.916016 97.8330053,230.202715 98.3408203,230.776123 C98.8486354,231.349531 99.1025391,232.105952 99.1025391,233.04541 L99.1025391,233.711914 L94.3100586,233.711914 C94.3312176,234.52865 94.5375143,235.148598 94.9289551,235.571777 C95.3203958,235.994957 95.8715785,236.206543 96.5825195,236.206543 C97.3315467,236.206543 98.0720992,236.049969 98.8041992,235.736816 L98.8041992,236.67627 C98.4318015,236.837078 98.0795101,236.952392 97.7473145,237.022217 C97.4151188,237.092041 97.0141625,237.126953 96.5444336,237.126953 L96.5444336,237.126953 Z M96.2587891,230.79834 C95.7001925,230.79834 95.2548031,230.980304 94.9226074,231.344238 C94.5904118,231.708172 94.3946943,232.211748 94.3354492,232.85498 L97.9726562,232.85498 C97.9726562,232.190589 97.8245458,231.681724 97.5283203,231.328369 C97.2320949,230.975015 96.808922,230.79834 96.2587891,230.79834 L96.2587891,230.79834 Z M105.386719,235.102051 C105.386719,235.749515 105.14551,236.248859 104.663086,236.600098 C104.180662,236.951336 103.503585,237.126953 102.631836,237.126953 C101.709305,237.126953 100.989911,236.980958 100.473633,236.688965 L100.473633,235.711426 C100.807944,235.880697 101.166583,236.013997 101.549561,236.111328 C101.932538,236.208659 102.301756,236.257324 102.657227,236.257324 C103.20736,236.257324 103.630532,236.169516 103.926758,235.993896 C104.222983,235.818277 104.371094,235.55062 104.371094,235.190918 C104.371094,234.920083 104.253663,234.688396 104.018799,234.49585 C103.783934,234.303303 103.32585,234.075848 102.644531,233.813477 C101.997067,233.572264 101.536867,233.361736 101.263916,233.181885 C100.990965,233.002034 100.787842,232.797853 100.654541,232.569336 C100.52124,232.340819 100.45459,232.067873 100.45459,231.750488 C100.45459,231.183428 100.685219,230.735923 101.146484,230.407959 C101.60775,230.079995 102.240393,229.916016 103.044434,229.916016 C103.793461,229.916016 104.52555,230.068358 105.240723,230.373047 L104.866211,231.22998 C104.167965,230.942219 103.535322,230.79834 102.968262,230.79834 C102.46891,230.79834 102.092286,230.876627 101.838379,231.033203 C101.584471,231.189779 101.45752,231.405598 101.45752,231.680664 C101.45752,231.866863 101.505126,232.025553 101.600342,232.156738 C101.695557,232.287924 101.848957,232.41276 102.060547,232.53125 C102.272136,232.64974 102.678382,232.821125 103.279297,233.04541 C104.104496,233.345867 104.662027,233.648436 104.951904,233.953125 C105.241782,234.257814 105.386719,234.640785 105.386719,235.102051 L105.386719,235.102051 Z" id="Favorites" fill="#B2B2B2"></path>
                <path d="M57.5126953,270.530762 C57.5126953,271.347498 57.2164743,271.984373 56.6240234,272.441406 C56.0315726,272.89844 55.2275441,273.126953 54.2119141,273.126953 C53.1116481,273.126953 52.2653024,272.98519 51.6728516,272.70166 L51.6728516,271.660645 C52.0537128,271.821453 52.4684222,271.948404 52.9169922,272.041504 C53.3655621,272.134603 53.8098936,272.181152 54.25,272.181152 C54.9694046,272.181152 55.5110659,272.044679 55.875,271.771729 C56.2389341,271.498778 56.4208984,271.11898 56.4208984,270.632324 C56.4208984,270.310708 56.3563646,270.047283 56.2272949,269.842041 C56.0982253,269.636799 55.8824071,269.447429 55.579834,269.273926 C55.2772609,269.100422 54.8170604,268.903647 54.1992188,268.683594 C53.3359332,268.374673 52.7191588,268.008628 52.348877,267.585449 C51.9785952,267.16227 51.793457,266.610029 51.793457,265.928711 C51.793457,265.213538 52.0621718,264.644371 52.5996094,264.221191 C53.137047,263.798012 53.8479773,263.586426 54.7324219,263.586426 C55.6549525,263.586426 56.5034141,263.755695 57.277832,264.094238 L56.9414062,265.033691 C56.1754519,264.712075 55.4306677,264.55127 54.7070312,264.55127 C54.1357393,264.55127 53.689292,264.67399 53.3676758,264.919434 C53.0460596,265.164878 52.8852539,265.505532 52.8852539,265.941406 C52.8852539,266.263022 52.9444981,266.526448 53.0629883,266.731689 C53.1814785,266.936931 53.3814276,267.125243 53.6628418,267.296631 C53.944256,267.468018 54.3748343,267.657388 54.9545898,267.864746 C55.927902,268.211753 56.597573,268.584145 56.963623,268.981934 C57.3296731,269.379722 57.5126953,269.895993 57.5126953,270.530762 L57.5126953,270.530762 Z M62.190918,273.126953 C61.1625925,273.126953 60.3511586,272.813805 59.7565918,272.1875 C59.162025,271.561195 58.8647461,270.691575 58.8647461,269.578613 C58.8647461,268.457188 59.1408664,267.56641 59.6931152,266.90625 C60.2453641,266.24609 60.9869745,265.916016 61.9179688,265.916016 C62.7897179,265.916016 63.4794896,266.202715 63.9873047,266.776123 C64.4951197,267.349531 64.7490234,268.105952 64.7490234,269.04541 L64.7490234,269.711914 L59.956543,269.711914 C59.9777019,270.52865 60.1839987,271.148598 60.5754395,271.571777 C60.9668802,271.994957 61.5180629,272.206543 62.2290039,272.206543 C62.9780311,272.206543 63.7185836,272.049969 64.4506836,271.736816 L64.4506836,272.67627 C64.0782859,272.837078 63.7259945,272.952392 63.3937988,273.022217 C63.0616032,273.092041 62.6606469,273.126953 62.190918,273.126953 L62.190918,273.126953 Z M61.9052734,266.79834 C61.3466769,266.79834 60.9012875,266.980304 60.5690918,267.344238 C60.2368961,267.708172 60.0411787,268.211748 59.9819336,268.85498 L63.6191406,268.85498 C63.6191406,268.190589 63.4710301,267.681724 63.1748047,267.328369 C62.8785792,266.975015 62.4554064,266.79834 61.9052734,266.79834 L61.9052734,266.79834 Z M68.7924805,272.257324 C68.9786793,272.257324 69.1585278,272.243571 69.3320312,272.216064 C69.5055347,272.188558 69.6430659,272.159994 69.7446289,272.130371 L69.7446289,272.936523 C69.6303705,272.991537 69.4621593,273.037028 69.2399902,273.072998 C69.0178212,273.108968 68.817872,273.126953 68.6401367,273.126953 C67.2944269,273.126953 66.621582,272.418139 66.621582,271.000488 L66.621582,266.861816 L65.625,266.861816 L65.625,266.354004 L66.621582,265.916016 L67.065918,264.430664 L67.675293,264.430664 L67.675293,266.042969 L69.6938477,266.042969 L69.6938477,266.861816 L67.675293,266.861816 L67.675293,270.956055 C67.675293,271.375002 67.7747386,271.696613 67.9736328,271.920898 C68.172527,272.145183 68.4454735,272.257324 68.7924805,272.257324 L68.7924805,272.257324 Z M73.3818359,272.257324 C73.5680348,272.257324 73.7478832,272.243571 73.9213867,272.216064 C74.0948902,272.188558 74.2324214,272.159994 74.3339844,272.130371 L74.3339844,272.936523 C74.219726,272.991537 74.0515148,273.037028 73.8293457,273.072998 C73.6071766,273.108968 73.4072275,273.126953 73.2294922,273.126953 C71.8837823,273.126953 71.2109375,272.418139 71.2109375,271.000488 L71.2109375,266.861816 L70.2143555,266.861816 L70.2143555,266.354004 L71.2109375,265.916016 L71.6552734,264.430664 L72.2646484,264.430664 L72.2646484,266.042969 L74.2832031,266.042969 L74.2832031,266.861816 L72.2646484,266.861816 L72.2646484,270.956055 C72.2646484,271.375002 72.3640941,271.696613 72.5629883,271.920898 C72.7618825,272.145183 73.034829,272.257324 73.3818359,272.257324 L73.3818359,272.257324 Z M76.777832,273 L75.7241211,273 L75.7241211,266.042969 L76.777832,266.042969 L76.777832,273 Z M75.6352539,264.157715 C75.6352539,263.916503 75.6944981,263.739828 75.8129883,263.627686 C75.9314785,263.515543 76.079589,263.459473 76.2573242,263.459473 C76.4265959,263.459473 76.5725905,263.516601 76.6953125,263.630859 C76.8180345,263.745118 76.8793945,263.920734 76.8793945,264.157715 C76.8793945,264.394695 76.8180345,264.57137 76.6953125,264.687744 C76.5725905,264.804118 76.4265959,264.862305 76.2573242,264.862305 C76.079589,264.862305 75.9314785,264.804118 75.8129883,264.687744 C75.6944981,264.57137 75.6352539,264.394695 75.6352539,264.157715 L75.6352539,264.157715 Z M83.7729492,273 L83.7729492,268.499512 C83.7729492,267.932452 83.6438815,267.509279 83.3857422,267.22998 C83.1276029,266.950682 82.7234728,266.811035 82.1733398,266.811035 C81.4454716,266.811035 80.9122738,267.007811 80.5737305,267.401367 C80.2351871,267.794924 80.065918,268.444494 80.065918,269.350098 L80.065918,273 L79.012207,273 L79.012207,266.042969 L79.8691406,266.042969 L80.0405273,266.995117 L80.0913086,266.995117 C80.30713,266.652342 80.6096986,266.386801 80.9990234,266.198486 C81.3883483,266.010172 81.8221005,265.916016 82.300293,265.916016 C83.1381878,265.916016 83.7687153,266.118081 84.1918945,266.522217 C84.6150737,266.926353 84.8266602,267.572749 84.8266602,268.461426 L84.8266602,273 L83.7729492,273 Z M92.6850586,266.042969 L92.6850586,266.709473 L91.3964844,266.861816 C91.5149746,267.009929 91.6207678,267.203531 91.7138672,267.442627 C91.8069666,267.681723 91.8535156,267.951496 91.8535156,268.251953 C91.8535156,268.933272 91.6207706,269.477049 91.1552734,269.883301 C90.6897763,270.289553 90.0507853,270.492676 89.2382812,270.492676 C89.0309234,270.492676 88.8362639,270.475749 88.6542969,270.441895 C88.2057269,270.678875 87.9814453,270.977212 87.9814453,271.336914 C87.9814453,271.527345 88.0597323,271.66805 88.2163086,271.759033 C88.3728849,271.850017 88.6415997,271.895508 89.0224609,271.895508 L90.2539062,271.895508 C91.0071652,271.895508 91.5858541,272.054198 91.9899902,272.371582 C92.3941264,272.688966 92.5961914,273.150225 92.5961914,273.755371 C92.5961914,274.525557 92.2872752,275.11271 91.6694336,275.516846 C91.051592,275.920982 90.1502338,276.123047 88.965332,276.123047 C88.0554968,276.123047 87.3540878,275.953778 86.861084,275.615234 C86.3680802,275.276691 86.121582,274.798506 86.121582,274.180664 C86.121582,273.757485 86.2569973,273.39144 86.527832,273.08252 C86.7986667,272.773599 87.1795223,272.564128 87.6704102,272.454102 C87.4926749,272.373698 87.3435065,272.248862 87.2229004,272.07959 C87.1022943,271.910318 87.0419922,271.713543 87.0419922,271.489258 C87.0419922,271.23535 87.1096998,271.013185 87.2451172,270.822754 C87.3805345,270.632323 87.5942368,270.448243 87.8862305,270.270508 C87.5265281,270.122395 87.2334809,269.870607 87.0070801,269.515137 C86.7806792,269.159666 86.6674805,268.75342 86.6674805,268.296387 C86.6674805,267.534664 86.8959938,266.947512 87.3530273,266.534912 C87.8100609,266.122312 88.4575153,265.916016 89.2954102,265.916016 C89.6593443,265.916016 89.9873032,265.958333 90.2792969,266.042969 L92.6850586,266.042969 Z M87.137207,274.167969 C87.137207,274.544598 87.2958969,274.83024 87.6132812,275.024902 C87.9306656,275.219565 88.3855765,275.316895 88.9780273,275.316895 C89.8624719,275.316895 90.5173319,275.184653 90.942627,274.920166 C91.367922,274.655679 91.5805664,274.29704 91.5805664,273.844238 C91.5805664,273.467609 91.4641939,273.2063 91.2314453,273.060303 C90.9986968,272.914306 90.5607129,272.841309 89.9174805,272.841309 L88.6542969,272.841309 C88.1761044,272.841309 87.8037123,272.955565 87.5371094,273.184082 C87.2705065,273.412599 87.137207,273.740558 87.137207,274.167969 L87.137207,274.167969 Z M87.7084961,268.270996 C87.7084961,268.757652 87.8460273,269.125813 88.1210938,269.375488 C88.3961602,269.625164 88.7791317,269.75 89.2700195,269.75 C90.298345,269.75 90.8125,269.250656 90.8125,268.251953 C90.8125,267.206701 90.2919974,266.684082 89.2509766,266.684082 C88.7558569,266.684082 88.3750013,266.817381 88.1083984,267.083984 C87.8417955,267.350587 87.7084961,267.746254 87.7084961,268.270996 L87.7084961,268.270996 Z M98.6010742,271.102051 C98.6010742,271.749515 98.3598657,272.248859 97.8774414,272.600098 C97.3950171,272.951336 96.7179406,273.126953 95.8461914,273.126953 C94.9236608,273.126953 94.2042669,272.980958 93.6879883,272.688965 L93.6879883,271.711426 C94.0222998,271.880697 94.3809388,272.013997 94.763916,272.111328 C95.1468932,272.208659 95.5161115,272.257324 95.871582,272.257324 C96.421715,272.257324 96.8448878,272.169516 97.1411133,271.993896 C97.4373387,271.818277 97.5854492,271.55062 97.5854492,271.190918 C97.5854492,270.920083 97.4680188,270.688396 97.2331543,270.49585 C96.9982898,270.303303 96.5402052,270.075848 95.8588867,269.813477 C95.2114225,269.572264 94.7512221,269.361736 94.4782715,269.181885 C94.2053209,269.002034 94.0021979,268.797853 93.8688965,268.569336 C93.735595,268.340819 93.6689453,268.067873 93.6689453,267.750488 C93.6689453,267.183428 93.8995745,266.735923 94.3608398,266.407959 C94.8221052,266.079995 95.4547486,265.916016 96.2587891,265.916016 C97.0078162,265.916016 97.7399053,266.068358 98.4550781,266.373047 L98.0805664,267.22998 C97.3823207,266.942219 96.7496773,266.79834 96.1826172,266.79834 C95.6832657,266.79834 95.3066419,266.876627 95.0527344,267.033203 C94.7988269,267.189779 94.671875,267.405598 94.671875,267.680664 C94.671875,267.866863 94.7194819,268.025553 94.8146973,268.156738 C94.9099126,268.287924 95.0633127,268.41276 95.2749023,268.53125 C95.4864919,268.64974 95.8927379,268.821125 96.4936523,269.04541 C97.3188518,269.345867 97.876382,269.648436 98.1662598,269.953125 C98.4561375,270.257814 98.6010742,270.640785 98.6010742,271.102051 L98.6010742,271.102051 Z" id="Settings" fill="#B2B2B2"></path>
                <path d="M79.2758789,94 L79.2758789,84.7197266 L80.3549805,84.7197266 L80.3549805,94 L79.2758789,94 Z M84.9887695,93.2573242 C85.1749684,93.2573242 85.3548168,93.2435711 85.5283203,93.2160645 C85.7018238,93.1885578 85.839355,93.1599936 85.940918,93.1303711 L85.940918,93.9365234 C85.8266596,93.9915367 85.6584484,94.0370278 85.4362793,94.072998 C85.2141102,94.1089683 85.014161,94.1269531 84.8364258,94.1269531 C83.4907159,94.1269531 82.8178711,93.4181386 82.8178711,92.0004883 L82.8178711,87.8618164 L81.8212891,87.8618164 L81.8212891,87.3540039 L82.8178711,86.9160156 L83.262207,85.4306641 L83.871582,85.4306641 L83.871582,87.0429688 L85.8901367,87.0429688 L85.8901367,87.8618164 L83.871582,87.8618164 L83.871582,91.9560547 C83.871582,92.3750021 83.9710277,92.6966135 84.1699219,92.9208984 C84.3688161,93.1451834 84.6417626,93.2573242 84.9887695,93.2573242 L84.9887695,93.2573242 Z M90.2700195,94.1269531 C89.2416941,94.1269531 88.4302601,93.8138052 87.8356934,93.1875 C87.2411266,92.5611948 86.9438477,91.6915746 86.9438477,90.5786133 C86.9438477,89.4571884 87.2199679,88.5664096 87.7722168,87.90625 C88.3244657,87.2460904 89.0660761,86.9160156 89.9970703,86.9160156 C90.8688195,86.9160156 91.5585912,87.2027152 92.0664062,87.776123 C92.5742213,88.3495309 92.828125,89.1059523 92.828125,90.0454102 L92.828125,90.7119141 L88.0356445,90.7119141 C88.0568035,91.5286499 88.2631003,92.1485981 88.654541,92.5717773 C89.0459818,92.9949565 89.5971644,93.206543 90.3081055,93.206543 C91.0571327,93.206543 91.7976851,93.049969 92.5297852,92.7368164 L92.5297852,93.6762695 C92.1573875,93.8370776 91.8050961,93.9523922 91.4729004,94.0222168 C91.1407047,94.0920414 90.7397484,94.1269531 90.2700195,94.1269531 L90.2700195,94.1269531 Z M89.984375,87.7983398 C89.4257785,87.7983398 88.980389,87.9803042 88.6481934,88.3442383 C88.3159977,88.7081724 88.1202802,89.2117481 88.0610352,89.8549805 L91.6982422,89.8549805 C91.6982422,89.1905891 91.5501317,88.6817238 91.2539062,88.3283691 C90.9576808,87.9750145 90.534508,87.7983398 89.984375,87.7983398 L89.984375,87.7983398 Z M103.492188,94 L103.492188,89.4741211 C103.492188,88.9197563 103.373699,88.503989 103.136719,88.2268066 C102.899738,87.9496243 102.531578,87.8110352 102.032227,87.8110352 C101.376299,87.8110352 100.891766,87.9993471 100.578613,88.3759766 C100.265461,88.752606 100.108887,89.3323529 100.108887,90.1152344 L100.108887,94 L99.0551758,94 L99.0551758,89.4741211 C99.0551758,88.9197563 98.9366874,88.503989 98.699707,88.2268066 C98.4627267,87.9496243 98.0924504,87.8110352 97.5888672,87.8110352 C96.9287076,87.8110352 96.4452327,88.0088685 96.1384277,88.404541 C95.8316228,88.8002136 95.6782227,89.448726 95.6782227,90.3500977 L95.6782227,94 L94.6245117,94 L94.6245117,87.0429688 L95.4814453,87.0429688 L95.652832,87.9951172 L95.7036133,87.9951172 C95.9025075,87.6565738 96.1828595,87.3920908 96.5446777,87.2016602 C96.9064959,87.0112295 97.311684,86.9160156 97.7602539,86.9160156 C98.8478244,86.9160156 99.5587548,87.3095664 99.8930664,88.0966797 L99.9438477,88.0966797 C100.151205,87.7327456 100.451658,87.444988 100.845215,87.2333984 C101.238771,87.0218088 101.687335,86.9160156 102.190918,86.9160156 C102.978031,86.9160156 103.567299,87.1180807 103.95874,87.5222168 C104.350181,87.9263529 104.545898,88.5727495 104.545898,89.4614258 L104.545898,94 L103.492188,94 Z M113.515137,94 L112.486816,94 L112.486816,87.3857422 C112.486816,86.8356092 112.503743,86.3151066 112.537598,85.8242188 C112.44873,85.9130864 112.349284,86.0061844 112.239258,86.1035156 C112.129231,86.2008468 111.625656,86.6134404 110.728516,87.3413086 L110.169922,86.6176758 L112.626465,84.7197266 L113.515137,84.7197266 L113.515137,94 Z" id="Item-1" fill="#B2B2B2"></path>
                <path d="M79.2758789,130 L79.2758789,120.719727 L80.3549805,120.719727 L80.3549805,130 L79.2758789,130 Z M84.9887695,129.257324 C85.1749684,129.257324 85.3548168,129.243571 85.5283203,129.216064 C85.7018238,129.188558 85.839355,129.159994 85.940918,129.130371 L85.940918,129.936523 C85.8266596,129.991537 85.6584484,130.037028 85.4362793,130.072998 C85.2141102,130.108968 85.014161,130.126953 84.8364258,130.126953 C83.4907159,130.126953 82.8178711,129.418139 82.8178711,128.000488 L82.8178711,123.861816 L81.8212891,123.861816 L81.8212891,123.354004 L82.8178711,122.916016 L83.262207,121.430664 L83.871582,121.430664 L83.871582,123.042969 L85.8901367,123.042969 L85.8901367,123.861816 L83.871582,123.861816 L83.871582,127.956055 C83.871582,128.375002 83.9710277,128.696613 84.1699219,128.920898 C84.3688161,129.145183 84.6417626,129.257324 84.9887695,129.257324 L84.9887695,129.257324 Z M90.2700195,130.126953 C89.2416941,130.126953 88.4302601,129.813805 87.8356934,129.1875 C87.2411266,128.561195 86.9438477,127.691575 86.9438477,126.578613 C86.9438477,125.457188 87.2199679,124.56641 87.7722168,123.90625 C88.3244657,123.24609 89.0660761,122.916016 89.9970703,122.916016 C90.8688195,122.916016 91.5585912,123.202715 92.0664062,123.776123 C92.5742213,124.349531 92.828125,125.105952 92.828125,126.04541 L92.828125,126.711914 L88.0356445,126.711914 C88.0568035,127.52865 88.2631003,128.148598 88.654541,128.571777 C89.0459818,128.994957 89.5971644,129.206543 90.3081055,129.206543 C91.0571327,129.206543 91.7976851,129.049969 92.5297852,128.736816 L92.5297852,129.67627 C92.1573875,129.837078 91.8050961,129.952392 91.4729004,130.022217 C91.1407047,130.092041 90.7397484,130.126953 90.2700195,130.126953 L90.2700195,130.126953 Z M89.984375,123.79834 C89.4257785,123.79834 88.980389,123.980304 88.6481934,124.344238 C88.3159977,124.708172 88.1202802,125.211748 88.0610352,125.85498 L91.6982422,125.85498 C91.6982422,125.190589 91.5501317,124.681724 91.2539062,124.328369 C90.9576808,123.975015 90.534508,123.79834 89.984375,123.79834 L89.984375,123.79834 Z M103.492188,130 L103.492188,125.474121 C103.492188,124.919756 103.373699,124.503989 103.136719,124.226807 C102.899738,123.949624 102.531578,123.811035 102.032227,123.811035 C101.376299,123.811035 100.891766,123.999347 100.578613,124.375977 C100.265461,124.752606 100.108887,125.332353 100.108887,126.115234 L100.108887,130 L99.0551758,130 L99.0551758,125.474121 C99.0551758,124.919756 98.9366874,124.503989 98.699707,124.226807 C98.4627267,123.949624 98.0924504,123.811035 97.5888672,123.811035 C96.9287076,123.811035 96.4452327,124.008868 96.1384277,124.404541 C95.8316228,124.800214 95.6782227,125.448726 95.6782227,126.350098 L95.6782227,130 L94.6245117,130 L94.6245117,123.042969 L95.4814453,123.042969 L95.652832,123.995117 L95.7036133,123.995117 C95.9025075,123.656574 96.1828595,123.392091 96.5446777,123.20166 C96.9064959,123.01123 97.311684,122.916016 97.7602539,122.916016 C98.8478244,122.916016 99.5587548,123.309566 99.8930664,124.09668 L99.9438477,124.09668 C100.151205,123.732746 100.451658,123.444988 100.845215,123.233398 C101.238771,123.021809 101.687335,122.916016 102.190918,122.916016 C102.978031,122.916016 103.567299,123.118081 103.95874,123.522217 C104.350181,123.926353 104.545898,124.572749 104.545898,125.461426 L104.545898,130 L103.492188,130 Z M115.711426,130 L109.611328,130 L109.611328,129.092285 L112.055176,126.635742 C112.799971,125.882483 113.290852,125.345054 113.527832,125.023438 C113.764812,124.701821 113.942545,124.388673 114.061035,124.083984 C114.179525,123.779295 114.23877,123.451336 114.23877,123.100098 C114.23877,122.604978 114.088543,122.212485 113.788086,121.922607 C113.487629,121.63273 113.070803,121.487793 112.537598,121.487793 C112.152505,121.487793 111.787518,121.551269 111.442627,121.678223 C111.097736,121.805176 110.713707,122.035806 110.290527,122.370117 L109.731934,121.652832 C110.586756,120.941891 111.517736,120.586426 112.524902,120.586426 C113.396651,120.586426 114.080076,120.809649 114.575195,121.256104 C115.070315,121.702558 115.317871,122.302405 115.317871,123.055664 C115.317871,123.643883 115.152834,124.225746 114.822754,124.80127 C114.492674,125.376793 113.874842,126.104651 112.969238,126.984863 L110.937988,128.97168 L110.937988,129.022461 L115.711426,129.022461 L115.711426,130 Z" id="Item-2-Copy-3" fill="#B2B2B2"></path>
                <path d="M80.2758789,166 L80.2758789,156.719727 L81.3549805,156.719727 L81.3549805,166 L80.2758789,166 Z M85.9887695,165.257324 C86.1749684,165.257324 86.3548168,165.243571 86.5283203,165.216064 C86.7018238,165.188558 86.839355,165.159994 86.940918,165.130371 L86.940918,165.936523 C86.8266596,165.991537 86.6584484,166.037028 86.4362793,166.072998 C86.2141102,166.108968 86.014161,166.126953 85.8364258,166.126953 C84.4907159,166.126953 83.8178711,165.418139 83.8178711,164.000488 L83.8178711,159.861816 L82.8212891,159.861816 L82.8212891,159.354004 L83.8178711,158.916016 L84.262207,157.430664 L84.871582,157.430664 L84.871582,159.042969 L86.8901367,159.042969 L86.8901367,159.861816 L84.871582,159.861816 L84.871582,163.956055 C84.871582,164.375002 84.9710277,164.696613 85.1699219,164.920898 C85.3688161,165.145183 85.6417626,165.257324 85.9887695,165.257324 L85.9887695,165.257324 Z M91.2700195,166.126953 C90.2416941,166.126953 89.4302601,165.813805 88.8356934,165.1875 C88.2411266,164.561195 87.9438477,163.691575 87.9438477,162.578613 C87.9438477,161.457188 88.2199679,160.56641 88.7722168,159.90625 C89.3244657,159.24609 90.0660761,158.916016 90.9970703,158.916016 C91.8688195,158.916016 92.5585912,159.202715 93.0664062,159.776123 C93.5742213,160.349531 93.828125,161.105952 93.828125,162.04541 L93.828125,162.711914 L89.0356445,162.711914 C89.0568035,163.52865 89.2631003,164.148598 89.654541,164.571777 C90.0459818,164.994957 90.5971644,165.206543 91.3081055,165.206543 C92.0571327,165.206543 92.7976851,165.049969 93.5297852,164.736816 L93.5297852,165.67627 C93.1573875,165.837078 92.8050961,165.952392 92.4729004,166.022217 C92.1407047,166.092041 91.7397484,166.126953 91.2700195,166.126953 L91.2700195,166.126953 Z M90.984375,159.79834 C90.4257785,159.79834 89.980389,159.980304 89.6481934,160.344238 C89.3159977,160.708172 89.1202802,161.211748 89.0610352,161.85498 L92.6982422,161.85498 C92.6982422,161.190589 92.5501317,160.681724 92.2539062,160.328369 C91.9576808,159.975015 91.534508,159.79834 90.984375,159.79834 L90.984375,159.79834 Z M104.492188,166 L104.492188,161.474121 C104.492188,160.919756 104.373699,160.503989 104.136719,160.226807 C103.899738,159.949624 103.531578,159.811035 103.032227,159.811035 C102.376299,159.811035 101.891766,159.999347 101.578613,160.375977 C101.265461,160.752606 101.108887,161.332353 101.108887,162.115234 L101.108887,166 L100.055176,166 L100.055176,161.474121 C100.055176,160.919756 99.9366874,160.503989 99.699707,160.226807 C99.4627267,159.949624 99.0924504,159.811035 98.5888672,159.811035 C97.9287076,159.811035 97.4452327,160.008868 97.1384277,160.404541 C96.8316228,160.800214 96.6782227,161.448726 96.6782227,162.350098 L96.6782227,166 L95.6245117,166 L95.6245117,159.042969 L96.4814453,159.042969 L96.652832,159.995117 L96.7036133,159.995117 C96.9025075,159.656574 97.1828595,159.392091 97.5446777,159.20166 C97.9064959,159.01123 98.311684,158.916016 98.7602539,158.916016 C99.8478244,158.916016 100.558755,159.309566 100.893066,160.09668 L100.943848,160.09668 C101.151205,159.732746 101.451658,159.444988 101.845215,159.233398 C102.238771,159.021809 102.687335,158.916016 103.190918,158.916016 C103.978031,158.916016 104.567299,159.118081 104.95874,159.522217 C105.350181,159.926353 105.545898,160.572749 105.545898,161.461426 L105.545898,166 L104.492188,166 Z M116.362305,158.90332 C116.362305,159.495771 116.196209,159.980304 115.864014,160.356934 C115.531818,160.733563 115.061038,160.985351 114.45166,161.112305 L114.45166,161.163086 C115.196456,161.256185 115.748696,161.493162 116.108398,161.874023 C116.468101,162.254885 116.647949,162.754229 116.647949,163.37207 C116.647949,164.256515 116.341149,164.936765 115.727539,165.412842 C115.113929,165.888918 114.242193,166.126953 113.112305,166.126953 C112.621417,166.126953 112.171796,166.089926 111.763428,166.015869 C111.35506,165.941813 110.958335,165.811687 110.573242,165.625488 L110.573242,164.622559 C110.975262,164.821453 111.403725,164.972737 111.858643,165.076416 C112.31356,165.180095 112.744139,165.231934 113.150391,165.231934 C114.75424,165.231934 115.556152,164.603522 115.556152,163.34668 C115.556152,162.221023 114.671721,161.658203 112.902832,161.658203 L111.98877,161.658203 L111.98877,160.750488 L112.915527,160.750488 C113.639164,160.750488 114.212563,160.590741 114.635742,160.27124 C115.058921,159.95174 115.270508,159.508466 115.270508,158.941406 C115.270508,158.488605 115.114992,158.133139 114.803955,157.875 C114.492918,157.616861 114.070803,157.487793 113.537598,157.487793 C113.131346,157.487793 112.748374,157.542805 112.388672,157.652832 C112.02897,157.762859 111.618492,157.965982 111.157227,158.262207 L110.624023,157.55127 C111.004885,157.250812 111.443927,157.014893 111.941162,156.843506 C112.438398,156.672118 112.962074,156.586426 113.512207,156.586426 C114.413579,156.586426 115.11393,156.792723 115.613281,157.205322 C116.112633,157.617922 116.362305,158.183916 116.362305,158.90332 L116.362305,158.90332 Z" id="Item-3-Copy-3" fill="#B2B2B2"></path>
                <rect id="Rectangle-231" fill="#0A8CC6" x="0" y="36" width="6" height="36"></rect>
                <path d="M234.5,19 C234.5,19.1354173 234.450521,19.2526037 234.351563,19.3515625 L230.851562,22.8515625 C230.752604,22.9505213 230.635417,23 230.5,23 C230.364583,23 230.247396,22.9505213 230.148438,22.8515625 C230.049479,22.7526037 230,22.6354173 230,22.5 L230,15.5 C230,15.3645827 230.049479,15.2473963 230.148438,15.1484375 C230.247396,15.0494787 230.364583,15 230.5,15 C230.635417,15 230.752604,15.0494787 230.851562,15.1484375 L234.351563,18.6484375 C234.450521,18.7473963 234.5,18.8645827 234.5,19 L234.5,19 Z" id="-copy-6" fill="#B2B2B2"></path>
                <path d="M234.5,197 C234.5,197.135417 234.450521,197.252604 234.351563,197.351563 L230.851562,200.851563 C230.752604,200.950521 230.635417,201 230.5,201 C230.364583,201 230.247396,200.950521 230.148438,200.851563 C230.049479,200.752604 230,200.635417 230,200.5 L230,193.5 C230,193.364583 230.049479,193.247396 230.148438,193.148438 C230.247396,193.049479 230.364583,193 230.5,193 C230.635417,193 230.752604,193.049479 230.851562,193.148438 L234.351563,196.648438 C234.450521,196.747396 234.5,196.864583 234.5,197 L234.5,197 Z" id="-copy-6" fill="#B2B2B2"></path>
                <path d="M234.5,233 C234.5,233.135417 234.450521,233.252604 234.351563,233.351563 L230.851562,236.851563 C230.752604,236.950521 230.635417,237 230.5,237 C230.364583,237 230.247396,236.950521 230.148438,236.851563 C230.049479,236.752604 230,236.635417 230,236.5 L230,229.5 C230,229.364583 230.049479,229.247396 230.148438,229.148438 C230.247396,229.049479 230.364583,229 230.5,229 C230.635417,229 230.752604,229.049479 230.851562,229.148438 L234.351563,232.648438 C234.450521,232.747396 234.5,232.864583 234.5,233 L234.5,233 Z" id="-copy-6" fill="#B2B2B2"></path>
                <path d="M234.5,269 C234.5,269.135417 234.450521,269.252604 234.351563,269.351562 L230.851562,272.851562 C230.752604,272.950521 230.635417,273 230.5,273 C230.364583,273 230.247396,272.950521 230.148438,272.851562 C230.049479,272.752604 230,272.635417 230,272.5 L230,265.5 C230,265.364583 230.049479,265.247396 230.148438,265.148438 C230.247396,265.049479 230.364583,265 230.5,265 C230.635417,265 230.752604,265.049479 230.851562,265.148438 L234.351563,268.648438 C234.450521,268.747396 234.5,268.864583 234.5,269 L234.5,269 Z" id="-copy-6" fill="#B2B2B2"></path>
                <path d="M233.5,53 C233.5,53.1354173 233.450521,53.2526037 233.351563,53.3515625 L229.851562,56.8515625 C229.752604,56.9505213 229.635417,57 229.5,57 C229.364583,57 229.247396,56.9505213 229.148438,56.8515625 C229.049479,56.7526037 229,56.6354173 229,56.5 L229,49.5 C229,49.3645827 229.049479,49.2473963 229.148438,49.1484375 C229.247396,49.0494787 229.364583,49 229.5,49 C229.635417,49 229.752604,49.0494787 229.851562,49.1484375 L233.351563,52.6484375 C233.450521,52.7473963 233.5,52.8645827 233.5,53 L233.5,53 Z" id="-copy-7" fill="#B2B2B2" transform="translate(231.500000, 53.500000) rotate(-270.000000) translate(-231.500000, -53.500000) "></path>
                <path d="M37.2359921,18.2159002 L37.2359921,24.2018706 C37.2359921,24.4180317 37.1570113,24.6050914 36.9990474,24.7630553 C36.8410835,24.9210192 36.6540238,25 36.4378627,25 L31.6490864,25 L31.6490864,20.2112237 L28.4565688,20.2112237 L28.4565688,25 L23.6677925,25 C23.4516314,25 23.2645717,24.9210192 23.1066078,24.7630553 C22.9486439,24.6050914 22.8696631,24.4180317 22.8696631,24.2018706 L22.8696631,18.2159002 C22.8696631,18.2075863 22.8717416,18.1951157 22.8758985,18.1784879 C22.8800555,18.1618601 22.8821339,18.1493895 22.8821339,18.1410756 L30.0528276,12.2299299 L37.2235213,18.1410756 C37.2318352,18.1577034 37.2359921,18.1826447 37.2359921,18.2159002 L37.2359921,18.2159002 Z M40.0169741,17.355417 L39.2437863,18.2782541 C39.1772752,18.3530791 39.0899806,18.3988048 38.9819001,18.4154326 L38.9444878,18.4154326 C38.8364072,18.4154326 38.7491127,18.3863344 38.6826016,18.3281372 L30.0528276,11.1325019 L21.4230536,18.3281372 C21.323287,18.3946483 21.2235218,18.4237465 21.1237551,18.4154326 C21.0156745,18.3988048 20.92838,18.3530791 20.8618689,18.2782541 L20.0886811,17.355417 C20.02217,17.2722781 19.9930718,17.1745914 20.0013857,17.0623539 C20.0096996,16.9501164 20.0554253,16.8607434 20.1385642,16.7942323 L29.105049,9.32424006 C29.3710934,9.10807894 29.6870165,9 30.0528276,9 C30.4186387,9 30.7345618,9.10807894 31.0006062,9.32424006 L34.0434745,11.8682775 L34.0434745,9.43647701 C34.0434745,9.32008256 34.0808865,9.22447426 34.1557115,9.14964926 C34.2305365,9.07482426 34.3261448,9.03741231 34.4425392,9.03741231 L36.8369274,9.03741231 C36.9533218,9.03741231 37.0489301,9.07482426 37.1237551,9.14964926 C37.1985801,9.22447426 37.2359921,9.32008256 37.2359921,9.43647701 L37.2359921,14.5245518 L39.967091,16.7942323 C40.0502299,16.8607434 40.0959556,16.9501164 40.1042695,17.0623539 C40.1125834,17.1745914 40.0834852,17.2722781 40.0169741,17.355417 L40.0169741,17.355417 Z" id="" fill="#B2B2B2"></path>
                <path d="M26.2946429,52 C25.3303523,52.0297621 24.5416697,52.4107106 23.9285714,53.1428571 L22.7321429,53.1428571 C22.2440452,53.1428571 21.833335,53.0223226 21.5,52.78125 C21.166665,52.5401774 21,52.1875023 21,51.7232143 C21,49.6220133 21.3690439,48.5714286 22.1071429,48.5714286 C22.1428573,48.5714286 22.2723203,48.6339279 22.4955357,48.7589286 C22.7187511,48.8839292 23.0089268,49.010416 23.3660714,49.1383929 C23.7232161,49.2663697 24.0773792,49.3303571 24.4285714,49.3303571 C24.8273829,49.3303571 25.2232123,49.2619054 25.6160714,49.125 C25.5863094,49.3452392 25.5714286,49.5416658 25.5714286,49.7142857 C25.5714286,50.5416708 25.8124976,51.3035679 26.2946429,52 L26.2946429,52 Z M35.8571429,57.6875 C35.8571429,58.4017893 35.6398831,58.9657717 35.2053571,59.3794643 C34.7708312,59.7931568 34.193456,60 33.4732143,60 L25.6696429,60 C24.9494012,60 24.372026,59.7931568 23.9375,59.3794643 C23.502974,58.9657717 23.2857143,58.4017893 23.2857143,57.6875 C23.2857143,57.3720222 23.2961308,57.0639896 23.3169643,56.7633929 C23.3377977,56.4627961 23.379464,56.1383946 23.4419643,55.7901786 C23.5044646,55.4419625 23.5833329,55.1190491 23.6785714,54.8214286 C23.77381,54.523808 23.9017849,54.2336324 24.0625,53.9508929 C24.2232151,53.6681533 24.4077371,53.4270843 24.6160714,53.2276786 C24.8244058,53.0282728 25.0788675,52.8690482 25.3794643,52.75 C25.680061,52.6309518 26.0119029,52.5714286 26.375,52.5714286 C26.4345241,52.5714286 26.562499,52.635416 26.7589286,52.7633929 C26.9553581,52.8913697 27.1726179,53.0342254 27.4107143,53.1919643 C27.6488107,53.3497032 27.9672599,53.4925589 28.3660714,53.6205357 C28.7648829,53.7485125 29.1666646,53.8125 29.5714286,53.8125 C29.9761925,53.8125 30.3779742,53.7485125 30.7767857,53.6205357 C31.1755972,53.4925589 31.4940464,53.3497032 31.7321429,53.1919643 C31.9702393,53.0342254 32.187499,52.8913697 32.3839286,52.7633929 C32.5803581,52.635416 32.708333,52.5714286 32.7678571,52.5714286 C33.1309542,52.5714286 33.4627961,52.6309518 33.7633929,52.75 C34.0639896,52.8690482 34.3184513,53.0282728 34.5267857,53.2276786 C34.7351201,53.4270843 34.9196421,53.6681533 35.0803571,53.9508929 C35.2410722,54.2336324 35.3690471,54.523808 35.4642857,54.8214286 C35.5595243,55.1190491 35.6383925,55.4419625 35.7008929,55.7901786 C35.7633932,56.1383946 35.8050594,56.4627961 35.8258929,56.7633929 C35.8467263,57.0639896 35.8571429,57.3720222 35.8571429,57.6875 L35.8571429,57.6875 Z M26.7142857,46.2857143 C26.7142857,46.9166698 26.4910737,47.4553549 26.0446429,47.9017857 C25.5982121,48.3482165 25.059527,48.5714286 24.4285714,48.5714286 C23.7976159,48.5714286 23.2589308,48.3482165 22.8125,47.9017857 C22.3660692,47.4553549 22.1428571,46.9166698 22.1428571,46.2857143 C22.1428571,45.6547587 22.3660692,45.1160737 22.8125,44.6696429 C23.2589308,44.2232121 23.7976159,44 24.4285714,44 C25.059527,44 25.5982121,44.2232121 26.0446429,44.6696429 C26.4910737,45.1160737 26.7142857,45.6547587 26.7142857,46.2857143 L26.7142857,46.2857143 Z M33,49.7142857 C33,50.660719 32.6651819,51.4687467 31.9955357,52.1383929 C31.3258895,52.8080391 30.5178619,53.1428571 29.5714286,53.1428571 C28.6249953,53.1428571 27.8169676,52.8080391 27.1473214,52.1383929 C26.4776752,51.4687467 26.1428571,50.660719 26.1428571,49.7142857 C26.1428571,48.7678524 26.4776752,47.9598248 27.1473214,47.2901786 C27.8169676,46.6205324 28.6249953,46.2857143 29.5714286,46.2857143 C30.5178619,46.2857143 31.3258895,46.6205324 31.9955357,47.2901786 C32.6651819,47.9598248 33,48.7678524 33,49.7142857 L33,49.7142857 Z M38.1428571,51.7232143 C38.1428571,52.1875023 37.9761921,52.5401774 37.6428571,52.78125 C37.3095221,53.0223226 36.898812,53.1428571 36.4107143,53.1428571 L35.2142857,53.1428571 C34.6011874,52.4107106 33.8125048,52.0297621 32.8482143,52 C33.3303596,51.3035679 33.5714286,50.5416708 33.5714286,49.7142857 C33.5714286,49.5416658 33.5565478,49.3452392 33.5267857,49.125 C33.9196448,49.2619054 34.3154742,49.3303571 34.7142857,49.3303571 C35.0654779,49.3303571 35.4196411,49.2663697 35.7767857,49.1383929 C36.1339304,49.010416 36.424106,48.8839292 36.6473214,48.7589286 C36.8705368,48.6339279 36.9999998,48.5714286 37.0357143,48.5714286 C37.7738132,48.5714286 38.1428571,49.6220133 38.1428571,51.7232143 L38.1428571,51.7232143 Z M37,46.2857143 C37,46.9166698 36.7767879,47.4553549 36.3303571,47.9017857 C35.8839263,48.3482165 35.3452413,48.5714286 34.7142857,48.5714286 C34.0833302,48.5714286 33.5446451,48.3482165 33.0982143,47.9017857 C32.6517835,47.4553549 32.4285714,46.9166698 32.4285714,46.2857143 C32.4285714,45.6547587 32.6517835,45.1160737 33.0982143,44.6696429 C33.5446451,44.2232121 34.0833302,44 34.7142857,44 C35.3452413,44 35.8839263,44.2232121 36.3303571,44.6696429 C36.7767879,45.1160737 37,45.6547587 37,46.2857143 L37,46.2857143 Z" id="" fill="#B2B2B2"></path>
                <path d="M67.6666667,93.3020833 C67.6666667,94.1354208 67.413197,94.7934004 66.90625,95.2760417 C66.399303,95.758683 65.7256986,96 64.8854167,96 L55.78125,96 C54.940968,96 54.2673636,95.758683 53.7604167,95.2760417 C53.2534697,94.7934004 53,94.1354208 53,93.3020833 C53,92.9340259 53.0121527,92.5746545 53.0364583,92.2239583 C53.060764,91.8732621 53.1093746,91.4947937 53.1822917,91.0885417 C53.2552087,90.6822896 53.3472217,90.3055573 53.4583333,89.9583333 C53.569445,89.6111094 53.7187491,89.2725711 53.90625,88.9427083 C54.0937509,88.6128456 54.3090266,88.3315984 54.5520833,88.0989583 C54.7951401,87.8663183 55.0920121,87.6805563 55.4427083,87.5416667 C55.7934045,87.4027771 56.1805534,87.3333333 56.6041667,87.3333333 C56.666667,87.3333333 56.8124989,87.4079854 57.0416667,87.5572917 C57.2708345,87.706598 57.5295124,87.873263 57.8177083,88.0572917 C58.1059042,88.2413204 58.4809005,88.4079854 58.9427083,88.5572917 C59.4045162,88.706598 59.8680532,88.78125 60.3333333,88.78125 C60.7986134,88.78125 61.2621505,88.706598 61.7239583,88.5572917 C62.1857662,88.4079854 62.5607624,88.2413204 62.8489583,88.0572917 C63.1371542,87.873263 63.3958322,87.706598 63.625,87.5572917 C63.8541678,87.4079854 63.9999997,87.3333333 64.0625,87.3333333 C64.4861132,87.3333333 64.8732621,87.4027771 65.2239583,87.5416667 C65.5746545,87.6805563 65.8715266,87.8663183 66.1145833,88.0989583 C66.3576401,88.3315984 66.5729157,88.6128456 66.7604167,88.9427083 C66.9479176,89.2725711 67.0972217,89.6111094 67.2083333,89.9583333 C67.319445,90.3055573 67.411458,90.6822896 67.484375,91.0885417 C67.557292,91.4947937 67.6059027,91.8732621 67.6302083,92.2239583 C67.654514,92.5746545 67.6666667,92.9340259 67.6666667,93.3020833 L67.6666667,93.3020833 Z M64.3333333,84 C64.3333333,85.1041722 63.9427122,86.0468711 63.1614583,86.828125 C62.3802044,87.6093789 61.4375055,88 60.3333333,88 C59.2291611,88 58.2864622,87.6093789 57.5052083,86.828125 C56.7239544,86.0468711 56.3333333,85.1041722 56.3333333,84 C56.3333333,82.8958278 56.7239544,81.9531289 57.5052083,81.171875 C58.2864622,80.3906211 59.2291611,80 60.3333333,80 C61.4375055,80 62.3802044,80.3906211 63.1614583,81.171875 C63.9427122,81.9531289 64.3333333,82.8958278 64.3333333,84 L64.3333333,84 Z" id="" fill="#B2B2B2"></path>
                <path d="M67.6666667,129.302083 C67.6666667,130.135421 67.413197,130.7934 66.90625,131.276042 C66.399303,131.758683 65.7256986,132 64.8854167,132 L55.78125,132 C54.940968,132 54.2673636,131.758683 53.7604167,131.276042 C53.2534697,130.7934 53,130.135421 53,129.302083 C53,128.934026 53.0121527,128.574655 53.0364583,128.223958 C53.060764,127.873262 53.1093746,127.494794 53.1822917,127.088542 C53.2552087,126.68229 53.3472217,126.305557 53.4583333,125.958333 C53.569445,125.611109 53.7187491,125.272571 53.90625,124.942708 C54.0937509,124.612846 54.3090266,124.331598 54.5520833,124.098958 C54.7951401,123.866318 55.0920121,123.680556 55.4427083,123.541667 C55.7934045,123.402777 56.1805534,123.333333 56.6041667,123.333333 C56.666667,123.333333 56.8124989,123.407985 57.0416667,123.557292 C57.2708345,123.706598 57.5295124,123.873263 57.8177083,124.057292 C58.1059042,124.24132 58.4809005,124.407985 58.9427083,124.557292 C59.4045162,124.706598 59.8680532,124.78125 60.3333333,124.78125 C60.7986134,124.78125 61.2621505,124.706598 61.7239583,124.557292 C62.1857662,124.407985 62.5607624,124.24132 62.8489583,124.057292 C63.1371542,123.873263 63.3958322,123.706598 63.625,123.557292 C63.8541678,123.407985 63.9999997,123.333333 64.0625,123.333333 C64.4861132,123.333333 64.8732621,123.402777 65.2239583,123.541667 C65.5746545,123.680556 65.8715266,123.866318 66.1145833,124.098958 C66.3576401,124.331598 66.5729157,124.612846 66.7604167,124.942708 C66.9479176,125.272571 67.0972217,125.611109 67.2083333,125.958333 C67.319445,126.305557 67.411458,126.68229 67.484375,127.088542 C67.557292,127.494794 67.6059027,127.873262 67.6302083,128.223958 C67.654514,128.574655 67.6666667,128.934026 67.6666667,129.302083 L67.6666667,129.302083 Z M64.3333333,120 C64.3333333,121.104172 63.9427122,122.046871 63.1614583,122.828125 C62.3802044,123.609379 61.4375055,124 60.3333333,124 C59.2291611,124 58.2864622,123.609379 57.5052083,122.828125 C56.7239544,122.046871 56.3333333,121.104172 56.3333333,120 C56.3333333,118.895828 56.7239544,117.953129 57.5052083,117.171875 C58.2864622,116.390621 59.2291611,116 60.3333333,116 C61.4375055,116 62.3802044,116.390621 63.1614583,117.171875 C63.9427122,117.953129 64.3333333,118.895828 64.3333333,120 L64.3333333,120 Z" id="" fill="#B2B2B2"></path>
                <path d="M67.6666667,165.302083 C67.6666667,166.135421 67.413197,166.7934 66.90625,167.276042 C66.399303,167.758683 65.7256986,168 64.8854167,168 L55.78125,168 C54.940968,168 54.2673636,167.758683 53.7604167,167.276042 C53.2534697,166.7934 53,166.135421 53,165.302083 C53,164.934026 53.0121527,164.574655 53.0364583,164.223958 C53.060764,163.873262 53.1093746,163.494794 53.1822917,163.088542 C53.2552087,162.68229 53.3472217,162.305557 53.4583333,161.958333 C53.569445,161.611109 53.7187491,161.272571 53.90625,160.942708 C54.0937509,160.612846 54.3090266,160.331598 54.5520833,160.098958 C54.7951401,159.866318 55.0920121,159.680556 55.4427083,159.541667 C55.7934045,159.402777 56.1805534,159.333333 56.6041667,159.333333 C56.666667,159.333333 56.8124989,159.407985 57.0416667,159.557292 C57.2708345,159.706598 57.5295124,159.873263 57.8177083,160.057292 C58.1059042,160.24132 58.4809005,160.407985 58.9427083,160.557292 C59.4045162,160.706598 59.8680532,160.78125 60.3333333,160.78125 C60.7986134,160.78125 61.2621505,160.706598 61.7239583,160.557292 C62.1857662,160.407985 62.5607624,160.24132 62.8489583,160.057292 C63.1371542,159.873263 63.3958322,159.706598 63.625,159.557292 C63.8541678,159.407985 63.9999997,159.333333 64.0625,159.333333 C64.4861132,159.333333 64.8732621,159.402777 65.2239583,159.541667 C65.5746545,159.680556 65.8715266,159.866318 66.1145833,160.098958 C66.3576401,160.331598 66.5729157,160.612846 66.7604167,160.942708 C66.9479176,161.272571 67.0972217,161.611109 67.2083333,161.958333 C67.319445,162.305557 67.411458,162.68229 67.484375,163.088542 C67.557292,163.494794 67.6059027,163.873262 67.6302083,164.223958 C67.654514,164.574655 67.6666667,164.934026 67.6666667,165.302083 L67.6666667,165.302083 Z M64.3333333,156 C64.3333333,157.104172 63.9427122,158.046871 63.1614583,158.828125 C62.3802044,159.609379 61.4375055,160 60.3333333,160 C59.2291611,160 58.2864622,159.609379 57.5052083,158.828125 C56.7239544,158.046871 56.3333333,157.104172 56.3333333,156 C56.3333333,154.895828 56.7239544,153.953129 57.5052083,153.171875 C58.2864622,152.390621 59.2291611,152 60.3333333,152 C61.4375055,152 62.3802044,152.390621 63.1614583,153.171875 C63.9427122,153.953129 64.3333333,154.895828 64.3333333,156 L64.3333333,156 Z" id="" fill="#B2B2B2"></path>
                <path d="M36.7763075,229.200378 C36.7763075,229.348247 36.6889318,229.509556 36.5141777,229.68431 L32.8544423,233.253308 L33.7214871,238.294266 C33.7282084,238.341315 33.731569,238.408527 33.731569,238.495904 C33.731569,238.637052 33.6962826,238.756353 33.6257089,238.853812 C33.5551351,238.951271 33.4526367,239 33.3182105,239 C33.1905056,239 33.0560814,238.959673 32.9149338,238.879017 L28.3881537,236.499685 L23.8613737,238.879017 C23.7135048,238.959673 23.5790806,239 23.458097,239 C23.3169495,239 23.2110905,238.951271 23.1405167,238.853812 C23.0699429,238.756353 23.0346566,238.637052 23.0346566,238.495904 C23.0346566,238.455576 23.0413778,238.388364 23.0548204,238.294266 L23.9218652,233.253308 L20.2520479,229.68431 C20.0840151,229.502835 20,229.341526 20,229.200378 C20,228.95169 20.1881939,228.797102 20.5645873,228.73661 L25.6257089,228.00063 L27.8941399,223.413359 C28.0218448,223.137785 28.1865144,223 28.3881537,223 C28.5897931,223 28.7544627,223.137785 28.8821676,223.413359 L31.1505986,228.00063 L36.2117202,228.73661 C36.5881136,228.797102 36.7763075,228.95169 36.7763075,229.200378 L36.7763075,229.200378 Z" id="" fill="#B2B2B2"></path>
                <path d="M31.6666667,268 C31.6666667,267.263885 31.4062526,266.635419 30.8854167,266.114583 C30.3645807,265.593747 29.7361148,265.333333 29,265.333333 C28.2638852,265.333333 27.6354193,265.593747 27.1145833,266.114583 C26.5937474,266.635419 26.3333333,267.263885 26.3333333,268 C26.3333333,268.736115 26.5937474,269.364581 27.1145833,269.885417 C27.6354193,270.406253 28.2638852,270.666667 29,270.666667 C29.7361148,270.666667 30.3645807,270.406253 30.8854167,269.885417 C31.4062526,269.364581 31.6666667,268.736115 31.6666667,268 L31.6666667,268 Z M37,266.864583 L37,269.177083 C37,269.260417 36.9722225,269.340277 36.9166667,269.416667 C36.8611108,269.493056 36.7916671,269.538194 36.7083333,269.552083 L34.78125,269.84375 C34.6493049,270.218752 34.5138896,270.534721 34.375,270.791667 C34.6180568,271.138891 34.9895808,271.618053 35.4895833,272.229167 C35.5590281,272.3125 35.59375,272.399305 35.59375,272.489583 C35.59375,272.579862 35.5625003,272.659722 35.5,272.729167 C35.3124991,272.986112 34.9687525,273.361109 34.46875,273.854167 C33.9687475,274.347225 33.6423619,274.59375 33.4895833,274.59375 C33.4062496,274.59375 33.3159727,274.5625 33.21875,274.5 L31.78125,273.375 C31.4756929,273.534723 31.1597239,273.666666 30.8333333,273.770833 C30.7222217,274.715283 30.6215282,275.361109 30.53125,275.708333 C30.4826386,275.902779 30.3576399,276 30.15625,276 L27.84375,276 C27.7465273,276 27.6614587,275.970486 27.5885417,275.911458 C27.5156246,275.85243 27.4756945,275.777778 27.46875,275.6875 L27.1770833,273.770833 C26.8368039,273.659722 26.524307,273.531251 26.2395833,273.385417 L24.7708333,274.5 C24.7013885,274.5625 24.6145839,274.59375 24.5104167,274.59375 C24.413194,274.59375 24.3263893,274.555556 24.25,274.479167 C23.3749956,273.687496 22.8020847,273.104169 22.53125,272.729167 C22.4826386,272.659722 22.4583333,272.579862 22.4583333,272.489583 C22.4583333,272.40625 22.4861108,272.326389 22.5416667,272.25 C22.6458339,272.104166 22.8229154,271.873265 23.0729167,271.557292 C23.3229179,271.241318 23.510416,270.996529 23.6354167,270.822917 C23.4479157,270.475693 23.305556,270.131946 23.2083333,269.791667 L21.3020833,269.510417 C21.2118051,269.496528 21.1388892,269.453125 21.0833333,269.380208 C21.0277775,269.307291 21,269.225695 21,269.135417 L21,266.822917 C21,266.739583 21.0277775,266.659723 21.0833333,266.583333 C21.1388892,266.506944 21.2048607,266.461806 21.28125,266.447917 L23.21875,266.15625 C23.3159727,265.836804 23.451388,265.517363 23.625,265.197917 C23.3472208,264.802081 22.9756968,264.322919 22.5104167,263.760417 C22.4409719,263.677083 22.40625,263.59375 22.40625,263.510417 C22.40625,263.440972 22.4374997,263.361112 22.5,263.270833 C22.6805565,263.020832 23.0225669,262.647572 23.5260417,262.151042 C24.0295164,261.654511 24.3576381,261.40625 24.5104167,261.40625 C24.6006949,261.40625 24.6909718,261.440972 24.78125,261.510417 L26.21875,262.625 C26.5243071,262.465277 26.8402761,262.333334 27.1666667,262.229167 C27.2777783,261.284717 27.3784718,260.638891 27.46875,260.291667 C27.5173614,260.097221 27.6423601,260 27.84375,260 L30.15625,260 C30.2534727,260 30.3385413,260.029514 30.4114583,260.088542 C30.4843754,260.14757 30.5243055,260.222222 30.53125,260.3125 L30.8229167,262.229167 C31.1631961,262.340278 31.475693,262.468749 31.7604167,262.614583 L33.2395833,261.5 C33.3020836,261.4375 33.3854161,261.40625 33.4895833,261.40625 C33.5798616,261.40625 33.6666663,261.440972 33.75,261.510417 C34.6458378,262.33681 35.2187488,262.927082 35.46875,263.28125 C35.5173614,263.336806 35.5416667,263.413194 35.5416667,263.510417 C35.5416667,263.59375 35.5138892,263.673611 35.4583333,263.75 C35.3541661,263.895834 35.1770846,264.126735 34.9270833,264.442708 C34.6770821,264.758682 34.489584,265.003471 34.3645833,265.177083 C34.5451398,265.524307 34.6874995,265.864582 34.7916667,266.197917 L36.6979167,266.489583 C36.7881949,266.503472 36.8611108,266.546875 36.9166667,266.619792 C36.9722225,266.692709 37,266.774305 37,266.864583 L37,266.864583 Z" id="" fill="#B2B2B2"></path>
                <path d="M37.662928,195.665331 C37.662928,196.873429 37.246349,197.989514 36.4131784,199.013619 C35.5800078,200.037725 34.4483014,200.846582 33.0180252,201.440216 C31.587749,202.03385 30.0255776,202.330663 28.331464,202.330663 C27.8454478,202.330663 27.3420815,202.302891 26.8213499,202.247346 C25.4466184,203.462387 23.849732,204.302488 22.0306429,204.767675 C21.6904316,204.864878 21.2946815,204.941251 20.8433807,204.996795 C20.7253482,205.010682 20.6194677,204.979438 20.525736,204.903064 C20.4320043,204.82669 20.3712532,204.726017 20.3434809,204.601041 L20.3434809,204.590627 C20.3226516,204.562854 20.3209159,204.521197 20.3382736,204.465652 C20.3556313,204.410107 20.3625743,204.375392 20.3591027,204.361506 C20.3556312,204.34762 20.3712529,204.314641 20.4059684,204.262568 C20.4406838,204.210494 20.4615127,204.179251 20.4684558,204.168836 C20.4753989,204.158422 20.4996994,204.128914 20.5413579,204.080312 C20.5830164,204.031711 20.6107884,204.000467 20.6246745,203.986581 C20.6732762,203.931036 20.7808924,203.81127 20.9475265,203.627278 C21.1141607,203.443286 21.2339271,203.31137 21.3068296,203.231524 C21.379732,203.151679 21.4873482,203.014555 21.6296815,202.820148 C21.7720149,202.625742 21.8848383,202.448696 21.9681554,202.289005 C22.0514725,202.129314 22.1452028,201.924496 22.2493491,201.674544 C22.3534954,201.424593 22.4437542,201.16076 22.5201282,200.883036 C21.4300633,200.265101 20.570869,199.501373 19.9425195,198.591829 C19.31417,197.682284 19,196.706795 19,195.665331 C19,194.76273 19.2464759,193.900064 19.7394352,193.077308 C20.2323945,192.254552 20.8954495,191.544632 21.7286201,190.947527 C22.5617907,190.350421 23.5546374,189.876562 24.70719,189.525936 C25.8597427,189.17531 27.067822,189 28.331464,189 C30.0255776,189 31.587749,189.296813 33.0180252,189.890447 C34.4483014,190.484081 35.5800078,191.292938 36.4131784,192.317044 C37.246349,193.341149 37.662928,194.457234 37.662928,195.665331 L37.662928,195.665331 Z" id="" fill="#B2B2B2"></path>
            </g>
        </g>
    </g>
</svg>